<svg width="221" height="42" viewBox="0 0 221 42" fill="none" xmlns="http://www.w3.org/2000/svg">
<rect width="220.969" height="42" rx="10" fill="#EFF6FF"/>
<path d="M10 11.0794C10 9.66685 11.1451 8.52174 12.5577 8.52174H26.8932C28.3058 8.52174 29.4509 9.66685 29.4509 11.0794V19.4884C29.4509 20.6864 28.6193 21.7239 27.4501 21.9847L13.1145 25.1826C11.5167 25.539 10 24.3234 10 22.6862V11.0794Z" fill="#09090B"/>
<rect x="26.5938" y="13.3627" width="1.27883" height="3.83649" rx="0.639416" fill="white"/>
<rect x="24.0345" y="13.3627" width="1.27883" height="3.83649" rx="0.639416" fill="white"/>
<path d="M40.969 22.3336C40.969 20.9211 39.8239 19.776 38.4113 19.776H28.1707C26.7581 19.776 25.613 20.9211 25.613 22.3336V28.0023C25.613 29.2003 26.4446 30.2378 27.6139 30.4986L37.8545 32.783C39.4523 33.1394 40.969 31.9238 40.969 30.2867V22.3336Z" fill="#60A5FA"/>
<rect width="1.02306" height="2.81343" rx="0.511532" transform="matrix(-1 0 0 1 28.4276 23.8678)" fill="#EFF6FF"/>
<rect width="1.02306" height="2.81343" rx="0.511532" transform="matrix(-1 0 0 1 30.4749 23.8678)" fill="#EFF6FF"/>
<path d="M33.8014 17.3718L32.0101 16.205" stroke="#60A5FA" stroke-width="0.532493" stroke-linecap="round"/>
<path d="M32.0105 13.823L33.8018 12.6562" stroke="#60A5FA" stroke-width="0.532493" stroke-linecap="round"/>
<path d="M32.0105 13.823L33.8018 12.6562" stroke="#60A5FA" stroke-width="0.532493" stroke-linecap="round"/>
<path d="M32.0104 15.0211H33.7865" stroke="#60A5FA" stroke-width="0.532493" stroke-linecap="round"/>
<mask id="path-12-outside-1_1022_5831" maskUnits="userSpaceOnUse" x="45.969" y="8" width="164" height="21" fill="black">
<rect fill="white" x="45.969" y="8" width="164" height="21"/>
<path d="M57.7933 9.17702L66.3104 28H64.041L61.8516 23.0606H51.6792L49.4632 28H47.3005L55.8176 9.17702H57.7933ZM61.0239 21.165L56.7788 11.6333L52.5069 21.165H61.0239ZM80.8254 25.6505C80.1312 26.4336 79.3392 27.0744 78.4492 27.5728C77.577 28.0712 76.4912 28.3204 75.1919 28.3204C74.1773 28.3204 73.2339 28.1335 72.3617 27.7597C71.5074 27.3681 70.7598 26.8519 70.119 26.2111C69.496 25.5526 69.0065 24.7872 68.6505 23.915C68.2946 23.0428 68.1166 22.1173 68.1166 21.1383C68.1166 20.1593 68.2946 19.2337 68.6505 18.3616C69.0065 17.4716 69.496 16.6973 70.119 16.0387C70.7598 15.3801 71.5074 14.864 72.3617 14.4902C73.2339 14.0986 74.1773 13.9028 75.1919 13.9028C75.8504 13.9028 76.4467 13.9651 76.9807 14.0897C77.5147 14.2143 78.0042 14.3923 78.4492 14.6237C78.8942 14.8373 79.3036 15.0954 79.6773 15.3979C80.0511 15.7005 80.3982 16.0209 80.7186 16.3591L79.357 17.8009C78.8052 17.2313 78.2 16.7418 77.5414 16.3324C76.9006 15.923 76.1085 15.7183 75.1652 15.7183C74.471 15.7183 73.8213 15.8607 73.2161 16.1455C72.6109 16.4125 72.0859 16.7952 71.6409 17.2936C71.1959 17.7742 70.8488 18.3438 70.5996 19.0023C70.3504 19.6431 70.2258 20.3373 70.2258 21.0849C70.2258 21.8325 70.3504 22.5356 70.5996 23.1941C70.8666 23.8527 71.2226 24.4312 71.6676 24.9296C72.1303 25.4102 72.6643 25.7929 73.2695 26.0777C73.8925 26.3446 74.5689 26.4781 75.2987 26.4781C76.1886 26.4781 76.9718 26.2823 77.6482 25.8908C78.3424 25.4992 78.9654 25.0097 79.5171 24.4223L80.8254 25.6505ZM87.0007 16.012V24.0752C87.0007 24.9296 87.2143 25.5259 87.6414 25.8641C88.0686 26.2022 88.6293 26.3713 89.3235 26.3713C89.6795 26.3713 90.0088 26.3357 90.3114 26.2645C90.6318 26.1933 90.9699 26.0688 91.3259 25.8908V27.6529C90.9699 27.8487 90.5873 27.9911 90.1779 28.0801C89.7863 28.1869 89.3413 28.2403 88.8429 28.2403C88.2911 28.2403 87.7749 28.1691 87.2943 28.0267C86.8138 27.8843 86.3955 27.6618 86.0395 27.3592C85.7013 27.0388 85.4343 26.6294 85.2385 26.1311C85.0427 25.6327 84.9448 25.0364 84.9448 24.3422V16.012H83.0225V14.1965H84.9448V10.0314H87.0007V14.1965H91.3793V16.012H87.0007ZM97.4213 11.1795H95.0718V8.91002H97.4213V11.1795ZM97.2611 28H95.2053V14.1965H97.2611V28ZM115.569 21.0849C115.569 22.0639 115.382 22.9983 115.008 23.8883C114.652 24.7605 114.154 25.5259 113.513 26.1844C112.872 26.843 112.107 27.3681 111.217 27.7597C110.327 28.1335 109.366 28.3204 108.333 28.3204C107.301 28.3204 106.349 28.1335 105.476 27.7597C104.604 27.3681 103.848 26.8519 103.207 26.2111C102.566 25.5526 102.068 24.7872 101.712 23.915C101.356 23.0428 101.178 22.1173 101.178 21.1383C101.178 20.1593 101.356 19.2337 101.712 18.3616C102.068 17.4716 102.566 16.6973 103.207 16.0387C103.848 15.3801 104.604 14.864 105.476 14.4902C106.366 14.0986 107.336 13.9028 108.387 13.9028C109.419 13.9028 110.371 14.0986 111.243 14.4902C112.133 14.864 112.899 15.3801 113.54 16.0387C114.18 16.6795 114.679 17.436 115.035 18.3082C115.391 19.1803 115.569 20.1059 115.569 21.0849ZM113.459 21.1383C113.459 20.3907 113.326 19.6876 113.059 19.029C112.81 18.3705 112.454 17.8009 111.991 17.3203C111.528 16.8219 110.985 16.4303 110.362 16.1455C109.739 15.8607 109.063 15.7183 108.333 15.7183C107.586 15.7183 106.9 15.8607 106.277 16.1455C105.654 16.4125 105.12 16.7952 104.675 17.2936C104.248 17.7742 103.91 18.3438 103.661 19.0023C103.412 19.6431 103.287 20.3373 103.287 21.0849C103.287 21.8325 103.412 22.5356 103.661 23.1941C103.928 23.8527 104.284 24.4223 104.729 24.9029C105.192 25.3835 105.734 25.7662 106.357 26.051C106.98 26.3357 107.657 26.4781 108.387 26.4781C109.134 26.4781 109.819 26.3446 110.442 26.0777C111.065 25.7929 111.599 25.4102 112.044 24.9296C112.489 24.449 112.836 23.8883 113.086 23.2475C113.335 22.5889 113.459 21.8859 113.459 21.1383ZM121.349 20.097V28H119.293V14.1965H121.349V16.5994C121.811 15.8518 122.417 15.22 123.164 14.7038C123.912 14.1698 124.882 13.9028 126.074 13.9028C126.911 13.9028 127.65 14.0363 128.29 14.3033C128.949 14.5703 129.501 14.953 129.946 15.4513C130.409 15.9319 130.756 16.5104 130.987 17.1868C131.236 17.8632 131.361 18.6108 131.361 19.4295V28H129.305V19.9368C129.305 18.6553 128.976 17.6407 128.317 16.8931C127.659 16.1455 126.715 15.7717 125.487 15.7717C124.9 15.7717 124.348 15.8785 123.832 16.0921C123.333 16.2879 122.897 16.5816 122.523 16.9732C122.15 17.347 121.856 17.8009 121.642 18.3349C121.447 18.8689 121.349 19.4562 121.349 20.097ZM158.087 15.2645C158.087 16.279 157.891 17.169 157.5 17.9344C157.108 18.6998 156.574 19.3405 155.898 19.8567C155.239 20.3729 154.465 20.7645 153.575 21.0315C152.685 21.2807 151.742 21.4053 150.745 21.4053H146.206V28H144.097V9.31051H151.092C152.142 9.31051 153.094 9.45291 153.949 9.7377C154.821 10.0047 155.56 10.3963 156.165 10.9125C156.788 11.4109 157.26 12.0338 157.58 12.7814C157.918 13.5112 158.087 14.3389 158.087 15.2645ZM155.951 15.3445C155.951 13.9918 155.489 12.9772 154.563 12.3008C153.655 11.6067 152.445 11.2596 150.932 11.2596H146.206V19.4829H150.825C151.59 19.4829 152.285 19.385 152.908 19.1892C153.548 18.9934 154.091 18.7176 154.536 18.3616C154.999 17.9878 155.346 17.5517 155.578 17.0533C155.827 16.5371 155.951 15.9675 155.951 15.3445ZM174.99 21.0849C174.99 22.0639 174.803 22.9983 174.429 23.8883C174.073 24.7605 173.575 25.5259 172.934 26.1844C172.294 26.843 171.528 27.3681 170.638 27.7597C169.748 28.1335 168.787 28.3204 167.755 28.3204C166.722 28.3204 165.77 28.1335 164.898 27.7597C164.026 27.3681 163.269 26.8519 162.628 26.2111C161.988 25.5526 161.489 24.7872 161.133 23.915C160.777 23.0428 160.599 22.1173 160.599 21.1383C160.599 20.1593 160.777 19.2337 161.133 18.3616C161.489 17.4716 161.988 16.6973 162.628 16.0387C163.269 15.3801 164.026 14.864 164.898 14.4902C165.788 14.0986 166.758 13.9028 167.808 13.9028C168.84 13.9028 169.793 14.0986 170.665 14.4902C171.555 14.864 172.32 15.3801 172.961 16.0387C173.602 16.6795 174.1 17.436 174.456 18.3082C174.812 19.1803 174.99 20.1059 174.99 21.0849ZM172.881 21.1383C172.881 20.3907 172.747 19.6876 172.48 19.029C172.231 18.3705 171.875 17.8009 171.412 17.3203C170.95 16.8219 170.407 16.4303 169.784 16.1455C169.161 15.8607 168.484 15.7183 167.755 15.7183C167.007 15.7183 166.322 15.8607 165.699 16.1455C165.076 16.4125 164.542 16.7952 164.097 17.2936C163.67 17.7742 163.331 18.3438 163.082 19.0023C162.833 19.6431 162.709 20.3373 162.709 21.0849C162.709 21.8325 162.833 22.5356 163.082 23.1941C163.349 23.8527 163.705 24.4223 164.15 24.9029C164.613 25.3835 165.156 25.7662 165.779 26.051C166.402 26.3357 167.078 26.4781 167.808 26.4781C168.556 26.4781 169.241 26.3446 169.864 26.0777C170.487 25.7929 171.021 25.4102 171.466 24.9296C171.911 24.449 172.258 23.8883 172.507 23.2475C172.756 22.5889 172.881 21.8859 172.881 21.1383ZM181.117 11.1795H178.768V8.91002H181.117V11.1795ZM180.957 28H178.901V14.1965H180.957V28ZM187.784 20.097V28H185.728V14.1965H187.784V16.5994C188.247 15.8518 188.852 15.22 189.599 14.7038C190.347 14.1698 191.317 13.9028 192.51 13.9028C193.346 13.9028 194.085 14.0363 194.726 14.3033C195.384 14.5703 195.936 14.953 196.381 15.4513C196.844 15.9319 197.191 16.5104 197.422 17.1868C197.672 17.8632 197.796 18.6108 197.796 19.4295V28H195.74V19.9368C195.74 18.6553 195.411 17.6407 194.752 16.8931C194.094 16.1455 193.15 15.7717 191.922 15.7717C191.335 15.7717 190.783 15.8785 190.267 16.0921C189.769 16.2879 189.332 16.5816 188.959 16.9732C188.585 17.347 188.291 17.8009 188.078 18.3349C187.882 18.8689 187.784 19.4562 187.784 20.097ZM204.957 16.012V24.0752C204.957 24.9296 205.171 25.5259 205.598 25.8641C206.025 26.2022 206.586 26.3713 207.28 26.3713C207.636 26.3713 207.965 26.3357 208.268 26.2645C208.588 26.1933 208.926 26.0688 209.282 25.8908V27.6529C208.926 27.8487 208.544 27.9911 208.134 28.0801C207.743 28.1869 207.298 28.2403 206.799 28.2403C206.248 28.2403 205.731 28.1691 205.251 28.0267C204.77 27.8843 204.352 27.6618 203.996 27.3592C203.658 27.0388 203.391 26.6294 203.195 26.1311C202.999 25.6327 202.901 25.0364 202.901 24.3422V16.012H200.979V14.1965H202.901V10.0314H204.957V14.1965H209.336V16.012H204.957Z"/>
</mask>
<path d="M57.7933 9.17702L66.3104 28H64.041L61.8516 23.0606H51.6792L49.4632 28H47.3005L55.8176 9.17702H57.7933ZM61.0239 21.165L56.7788 11.6333L52.5069 21.165H61.0239ZM80.8254 25.6505C80.1312 26.4336 79.3392 27.0744 78.4492 27.5728C77.577 28.0712 76.4912 28.3204 75.1919 28.3204C74.1773 28.3204 73.2339 28.1335 72.3617 27.7597C71.5074 27.3681 70.7598 26.8519 70.119 26.2111C69.496 25.5526 69.0065 24.7872 68.6505 23.915C68.2946 23.0428 68.1166 22.1173 68.1166 21.1383C68.1166 20.1593 68.2946 19.2337 68.6505 18.3616C69.0065 17.4716 69.496 16.6973 70.119 16.0387C70.7598 15.3801 71.5074 14.864 72.3617 14.4902C73.2339 14.0986 74.1773 13.9028 75.1919 13.9028C75.8504 13.9028 76.4467 13.9651 76.9807 14.0897C77.5147 14.2143 78.0042 14.3923 78.4492 14.6237C78.8942 14.8373 79.3036 15.0954 79.6773 15.3979C80.0511 15.7005 80.3982 16.0209 80.7186 16.3591L79.357 17.8009C78.8052 17.2313 78.2 16.7418 77.5414 16.3324C76.9006 15.923 76.1085 15.7183 75.1652 15.7183C74.471 15.7183 73.8213 15.8607 73.2161 16.1455C72.6109 16.4125 72.0859 16.7952 71.6409 17.2936C71.1959 17.7742 70.8488 18.3438 70.5996 19.0023C70.3504 19.6431 70.2258 20.3373 70.2258 21.0849C70.2258 21.8325 70.3504 22.5356 70.5996 23.1941C70.8666 23.8527 71.2226 24.4312 71.6676 24.9296C72.1303 25.4102 72.6643 25.7929 73.2695 26.0777C73.8925 26.3446 74.5689 26.4781 75.2987 26.4781C76.1886 26.4781 76.9718 26.2823 77.6482 25.8908C78.3424 25.4992 78.9654 25.0097 79.5171 24.4223L80.8254 25.6505ZM87.0007 16.012V24.0752C87.0007 24.9296 87.2143 25.5259 87.6414 25.8641C88.0686 26.2022 88.6293 26.3713 89.3235 26.3713C89.6795 26.3713 90.0088 26.3357 90.3114 26.2645C90.6318 26.1933 90.9699 26.0688 91.3259 25.8908V27.6529C90.9699 27.8487 90.5873 27.9911 90.1779 28.0801C89.7863 28.1869 89.3413 28.2403 88.8429 28.2403C88.2911 28.2403 87.7749 28.1691 87.2943 28.0267C86.8138 27.8843 86.3955 27.6618 86.0395 27.3592C85.7013 27.0388 85.4343 26.6294 85.2385 26.1311C85.0427 25.6327 84.9448 25.0364 84.9448 24.3422V16.012H83.0225V14.1965H84.9448V10.0314H87.0007V14.1965H91.3793V16.012H87.0007ZM97.4213 11.1795H95.0718V8.91002H97.4213V11.1795ZM97.2611 28H95.2053V14.1965H97.2611V28ZM115.569 21.0849C115.569 22.0639 115.382 22.9983 115.008 23.8883C114.652 24.7605 114.154 25.5259 113.513 26.1844C112.872 26.843 112.107 27.3681 111.217 27.7597C110.327 28.1335 109.366 28.3204 108.333 28.3204C107.301 28.3204 106.349 28.1335 105.476 27.7597C104.604 27.3681 103.848 26.8519 103.207 26.2111C102.566 25.5526 102.068 24.7872 101.712 23.915C101.356 23.0428 101.178 22.1173 101.178 21.1383C101.178 20.1593 101.356 19.2337 101.712 18.3616C102.068 17.4716 102.566 16.6973 103.207 16.0387C103.848 15.3801 104.604 14.864 105.476 14.4902C106.366 14.0986 107.336 13.9028 108.387 13.9028C109.419 13.9028 110.371 14.0986 111.243 14.4902C112.133 14.864 112.899 15.3801 113.54 16.0387C114.18 16.6795 114.679 17.436 115.035 18.3082C115.391 19.1803 115.569 20.1059 115.569 21.0849ZM113.459 21.1383C113.459 20.3907 113.326 19.6876 113.059 19.029C112.81 18.3705 112.454 17.8009 111.991 17.3203C111.528 16.8219 110.985 16.4303 110.362 16.1455C109.739 15.8607 109.063 15.7183 108.333 15.7183C107.586 15.7183 106.9 15.8607 106.277 16.1455C105.654 16.4125 105.12 16.7952 104.675 17.2936C104.248 17.7742 103.91 18.3438 103.661 19.0023C103.412 19.6431 103.287 20.3373 103.287 21.0849C103.287 21.8325 103.412 22.5356 103.661 23.1941C103.928 23.8527 104.284 24.4223 104.729 24.9029C105.192 25.3835 105.734 25.7662 106.357 26.051C106.98 26.3357 107.657 26.4781 108.387 26.4781C109.134 26.4781 109.819 26.3446 110.442 26.0777C111.065 25.7929 111.599 25.4102 112.044 24.9296C112.489 24.449 112.836 23.8883 113.086 23.2475C113.335 22.5889 113.459 21.8859 113.459 21.1383ZM121.349 20.097V28H119.293V14.1965H121.349V16.5994C121.811 15.8518 122.417 15.22 123.164 14.7038C123.912 14.1698 124.882 13.9028 126.074 13.9028C126.911 13.9028 127.65 14.0363 128.29 14.3033C128.949 14.5703 129.501 14.953 129.946 15.4513C130.409 15.9319 130.756 16.5104 130.987 17.1868C131.236 17.8632 131.361 18.6108 131.361 19.4295V28H129.305V19.9368C129.305 18.6553 128.976 17.6407 128.317 16.8931C127.659 16.1455 126.715 15.7717 125.487 15.7717C124.9 15.7717 124.348 15.8785 123.832 16.0921C123.333 16.2879 122.897 16.5816 122.523 16.9732C122.15 17.347 121.856 17.8009 121.642 18.3349C121.447 18.8689 121.349 19.4562 121.349 20.097ZM158.087 15.2645C158.087 16.279 157.891 17.169 157.5 17.9344C157.108 18.6998 156.574 19.3405 155.898 19.8567C155.239 20.3729 154.465 20.7645 153.575 21.0315C152.685 21.2807 151.742 21.4053 150.745 21.4053H146.206V28H144.097V9.31051H151.092C152.142 9.31051 153.094 9.45291 153.949 9.7377C154.821 10.0047 155.56 10.3963 156.165 10.9125C156.788 11.4109 157.26 12.0338 157.58 12.7814C157.918 13.5112 158.087 14.3389 158.087 15.2645ZM155.951 15.3445C155.951 13.9918 155.489 12.9772 154.563 12.3008C153.655 11.6067 152.445 11.2596 150.932 11.2596H146.206V19.4829H150.825C151.59 19.4829 152.285 19.385 152.908 19.1892C153.548 18.9934 154.091 18.7176 154.536 18.3616C154.999 17.9878 155.346 17.5517 155.578 17.0533C155.827 16.5371 155.951 15.9675 155.951 15.3445ZM174.99 21.0849C174.99 22.0639 174.803 22.9983 174.429 23.8883C174.073 24.7605 173.575 25.5259 172.934 26.1844C172.294 26.843 171.528 27.3681 170.638 27.7597C169.748 28.1335 168.787 28.3204 167.755 28.3204C166.722 28.3204 165.77 28.1335 164.898 27.7597C164.026 27.3681 163.269 26.8519 162.628 26.2111C161.988 25.5526 161.489 24.7872 161.133 23.915C160.777 23.0428 160.599 22.1173 160.599 21.1383C160.599 20.1593 160.777 19.2337 161.133 18.3616C161.489 17.4716 161.988 16.6973 162.628 16.0387C163.269 15.3801 164.026 14.864 164.898 14.4902C165.788 14.0986 166.758 13.9028 167.808 13.9028C168.84 13.9028 169.793 14.0986 170.665 14.4902C171.555 14.864 172.32 15.3801 172.961 16.0387C173.602 16.6795 174.1 17.436 174.456 18.3082C174.812 19.1803 174.99 20.1059 174.99 21.0849ZM172.881 21.1383C172.881 20.3907 172.747 19.6876 172.48 19.029C172.231 18.3705 171.875 17.8009 171.412 17.3203C170.95 16.8219 170.407 16.4303 169.784 16.1455C169.161 15.8607 168.484 15.7183 167.755 15.7183C167.007 15.7183 166.322 15.8607 165.699 16.1455C165.076 16.4125 164.542 16.7952 164.097 17.2936C163.67 17.7742 163.331 18.3438 163.082 19.0023C162.833 19.6431 162.709 20.3373 162.709 21.0849C162.709 21.8325 162.833 22.5356 163.082 23.1941C163.349 23.8527 163.705 24.4223 164.15 24.9029C164.613 25.3835 165.156 25.7662 165.779 26.051C166.402 26.3357 167.078 26.4781 167.808 26.4781C168.556 26.4781 169.241 26.3446 169.864 26.0777C170.487 25.7929 171.021 25.4102 171.466 24.9296C171.911 24.449 172.258 23.8883 172.507 23.2475C172.756 22.5889 172.881 21.8859 172.881 21.1383ZM181.117 11.1795H178.768V8.91002H181.117V11.1795ZM180.957 28H178.901V14.1965H180.957V28ZM187.784 20.097V28H185.728V14.1965H187.784V16.5994C188.247 15.8518 188.852 15.22 189.599 14.7038C190.347 14.1698 191.317 13.9028 192.51 13.9028C193.346 13.9028 194.085 14.0363 194.726 14.3033C195.384 14.5703 195.936 14.953 196.381 15.4513C196.844 15.9319 197.191 16.5104 197.422 17.1868C197.672 17.8632 197.796 18.6108 197.796 19.4295V28H195.74V19.9368C195.74 18.6553 195.411 17.6407 194.752 16.8931C194.094 16.1455 193.15 15.7717 191.922 15.7717C191.335 15.7717 190.783 15.8785 190.267 16.0921C189.769 16.2879 189.332 16.5816 188.959 16.9732C188.585 17.347 188.291 17.8009 188.078 18.3349C187.882 18.8689 187.784 19.4562 187.784 20.097ZM204.957 16.012V24.0752C204.957 24.9296 205.171 25.5259 205.598 25.8641C206.025 26.2022 206.586 26.3713 207.28 26.3713C207.636 26.3713 207.965 26.3357 208.268 26.2645C208.588 26.1933 208.926 26.0688 209.282 25.8908V27.6529C208.926 27.8487 208.544 27.9911 208.134 28.0801C207.743 28.1869 207.298 28.2403 206.799 28.2403C206.248 28.2403 205.731 28.1691 205.251 28.0267C204.77 27.8843 204.352 27.6618 203.996 27.3592C203.658 27.0388 203.391 26.6294 203.195 26.1311C202.999 25.6327 202.901 25.0364 202.901 24.3422V16.012H200.979V14.1965H202.901V10.0314H204.957V14.1965H209.336V16.012H204.957Z" fill="#18181B"/>
<path d="M57.7933 9.17702L58.1676 9.00768L58.0583 8.76626H57.7933V9.17702ZM66.3104 28V28.4108H66.9471L66.6846 27.8307L66.3104 28ZM64.041 28L63.6654 28.1664L63.7737 28.4108H64.041V28ZM61.8516 23.0606L62.2271 22.8942L62.1189 22.6499H61.8516V23.0606ZM51.6792 23.0606V22.6499H51.4133L51.3044 22.8925L51.6792 23.0606ZM49.4632 28V28.4108H49.7291L49.8379 28.1681L49.4632 28ZM47.3005 28L46.9263 27.8307L46.6638 28.4108H47.3005V28ZM55.8176 9.17702V8.76626H55.5526L55.4434 9.00768L55.8176 9.17702ZM61.0239 21.165V21.5757H61.6565L61.3992 20.9979L61.0239 21.165ZM56.7788 11.6333L57.154 11.4662L56.7799 10.6264L56.4039 11.4654L56.7788 11.6333ZM52.5069 21.165L52.132 20.997L51.8727 21.5757H52.5069V21.165ZM57.7933 9.17702L57.4191 9.34635L65.9362 28.1693L66.3104 28L66.6846 27.8307L58.1676 9.00768L57.7933 9.17702ZM66.3104 28V27.5892H64.041V28V28.4108H66.3104V28ZM64.041 28L64.4165 27.8336L62.2271 22.8942L61.8516 23.0606L61.4761 23.2271L63.6654 28.1664L64.041 28ZM61.8516 23.0606V22.6499H51.6792V23.0606V23.4714H61.8516V23.0606ZM51.6792 23.0606L51.3044 22.8925L49.0884 27.8319L49.4632 28L49.8379 28.1681L52.054 23.2288L51.6792 23.0606ZM49.4632 28V27.5892H47.3005V28V28.4108H49.4632V28ZM47.3005 28L47.6747 28.1693L56.1918 9.34635L55.8176 9.17702L55.4434 9.00768L46.9263 27.8307L47.3005 28ZM55.8176 9.17702V9.58778H57.7933V9.17702V8.76626H55.8176V9.17702ZM61.0239 21.165L61.3992 20.9979L57.154 11.4662L56.7788 11.6333L56.4035 11.8005L60.6487 21.3321L61.0239 21.165ZM56.7788 11.6333L56.4039 11.4654L52.132 20.997L52.5069 21.165L52.8817 21.333L57.1536 11.8013L56.7788 11.6333ZM52.5069 21.165V21.5757H61.0239V21.165V20.7542H52.5069V21.165ZM80.8254 25.6505L81.1328 25.9229L81.3976 25.6242L81.1065 25.351L80.8254 25.6505ZM78.4492 27.5728L78.2485 27.2144L78.2454 27.2162L78.4492 27.5728ZM72.3617 27.7597L72.1905 28.1332L72.1999 28.1373L72.3617 27.7597ZM70.119 26.2111L69.8205 26.4935L69.8286 26.5016L70.119 26.2111ZM68.6505 23.915L69.0308 23.7598L68.6505 23.915ZM68.6505 18.3616L69.0309 18.5168L69.0319 18.5141L68.6505 18.3616ZM70.119 16.0387L69.8246 15.7523L69.8206 15.7565L70.119 16.0387ZM72.3617 14.4902L72.5264 14.8665L72.53 14.8649L72.3617 14.4902ZM76.9807 14.0897L77.0741 13.6897H77.0741L76.9807 14.0897ZM78.4492 14.6237L78.2596 14.9883L78.2714 14.994L78.4492 14.6237ZM79.6773 15.3979L79.9358 15.0787L79.6773 15.3979ZM80.7186 16.3591L81.0172 16.6412L81.284 16.3587L81.0168 16.0766L80.7186 16.3591ZM79.3569 17.8009L79.0619 18.0867L79.3607 18.3951L79.6556 18.0829L79.3569 17.8009ZM77.5414 16.3324L77.3202 16.6786L77.3245 16.6813L77.5414 16.3324ZM73.2161 16.1455L73.382 16.5214L73.391 16.5172L73.2161 16.1455ZM71.6409 17.2936L71.9423 17.5727L71.9473 17.5672L71.6409 17.2936ZM70.5996 19.0023L70.9824 19.1512L70.9838 19.1477L70.5996 19.0023ZM70.5996 23.1941L70.2153 23.3395L70.2189 23.3485L70.5996 23.1941ZM71.6676 24.9296L71.3612 25.2032L71.3663 25.2089L71.3717 25.2145L71.6676 24.9296ZM73.2695 26.0777L73.0946 26.4493L73.1011 26.4524L73.1077 26.4552L73.2695 26.0777ZM77.6482 25.8908L77.4464 25.533L77.4424 25.5353L77.6482 25.8908ZM79.5171 24.4223L79.7983 24.1228L79.4989 23.8418L79.2178 24.1411L79.5171 24.4223ZM80.8254 25.6505L80.518 25.378C79.8535 26.1277 79.0973 26.7391 78.2485 27.2144L78.4492 27.5728L78.6499 27.9312C79.581 27.4098 80.4089 26.7396 81.1328 25.9229L80.8254 25.6505ZM78.4492 27.5728L78.2454 27.2162C77.4509 27.6702 76.4402 27.9096 75.1919 27.9096V28.3204V28.7311C76.5422 28.7311 77.7031 28.4722 78.653 27.9294L78.4492 27.5728ZM75.1919 28.3204V27.9096C74.229 27.9096 73.3411 27.7326 72.5235 27.3822L72.3617 27.7597L72.1999 28.1373C73.1267 28.5344 74.1256 28.7311 75.1919 28.7311V28.3204ZM72.3617 27.7597L72.5329 27.3863C71.7212 27.0143 71.0144 26.5257 70.4095 25.9207L70.119 26.2111L69.8286 26.5016C70.5051 27.1782 71.2935 27.7219 72.1906 28.1331L72.3617 27.7597ZM70.119 26.2111L70.4174 25.9289C69.8307 25.3087 69.3684 24.5868 69.0308 23.7598L68.6505 23.915L68.2702 24.0702C68.6447 24.9876 69.1613 25.7965 69.8206 26.4934L70.119 26.2111ZM68.6505 23.915L69.0308 23.7598C68.6958 22.9388 68.5273 22.0662 68.5273 21.1383H68.1166H67.7058C67.7058 22.1684 67.8934 23.1469 68.2702 24.0702L68.6505 23.915ZM68.1166 21.1383H68.5273C68.5273 20.2104 68.6958 19.3378 69.0308 18.5168L68.6505 18.3616L68.2702 18.2063C67.8934 19.1297 67.7058 20.1082 67.7058 21.1383H68.1166ZM68.6505 18.3616L69.0319 18.5141C69.3698 17.6694 69.832 16.9398 70.4174 16.321L70.119 16.0387L69.8206 15.7565C69.16 16.4548 68.6433 17.2737 68.2692 18.209L68.6505 18.3616ZM70.119 16.0387L70.4134 16.3252C71.0166 15.7052 71.7199 15.2193 72.5264 14.8665L72.3617 14.4902L72.1971 14.1139C71.2948 14.5086 70.503 15.0551 69.8246 15.7523L70.119 16.0387ZM72.3617 14.4902L72.53 14.8649C73.3461 14.4985 74.2317 14.3135 75.1919 14.3135V13.9028V13.492C74.1229 13.492 73.1218 13.6987 72.1935 14.1154L72.3617 14.4902ZM75.1919 13.9028V14.3135C75.8251 14.3135 76.3894 14.3735 76.8874 14.4897L76.9807 14.0897L77.0741 13.6897C76.5041 13.5567 75.8758 13.492 75.1919 13.492V13.9028ZM76.9807 14.0897L76.8874 14.4897C77.391 14.6072 77.8478 14.7739 78.2597 14.9881L78.4492 14.6237L78.6387 14.2592C78.1606 14.0106 77.6384 13.8213 77.0741 13.6897L76.9807 14.0897ZM78.4492 14.6237L78.2714 14.994C78.6884 15.1941 79.0706 15.4352 79.4189 15.7172L79.6773 15.3979L79.9358 15.0787C79.5365 14.7555 79.0999 14.4804 78.6269 14.2534L78.4492 14.6237ZM79.6773 15.3979L79.4189 15.7172C79.7791 16.0088 80.1129 16.317 80.4204 16.6416L80.7186 16.3591L81.0168 16.0766C80.6836 15.7249 80.3232 15.3923 79.9358 15.0787L79.6773 15.3979ZM80.7186 16.3591L80.42 16.0771L79.0583 17.5188L79.3569 17.8009L79.6556 18.0829L81.0172 16.6412L80.7186 16.3591ZM79.3569 17.8009L79.652 17.5151C79.0773 16.9219 78.446 16.4111 77.7583 15.9836L77.5414 16.3324L77.3245 16.6813C77.9539 17.0725 78.533 17.5407 79.0619 18.0867L79.3569 17.8009ZM77.5414 16.3324L77.7625 15.9863C77.0415 15.5256 76.1681 15.3076 75.1652 15.3076V15.7183V16.1291C76.049 16.1291 76.7598 16.3205 77.3203 16.6786L77.5414 16.3324ZM75.1652 15.7183V15.3076C74.4129 15.3076 73.7032 15.4623 73.0412 15.7739L73.2161 16.1455L73.391 16.5172C73.9394 16.2591 74.5291 16.1291 75.1652 16.1291V15.7183ZM73.2161 16.1455L73.0503 15.7697C72.391 16.0606 71.8181 16.4784 71.3345 17.02L71.6409 17.2936L71.9473 17.5672C72.3536 17.112 72.8309 16.7644 73.3819 16.5213L73.2161 16.1455ZM71.6409 17.2936L71.3395 17.0145C70.8559 17.5368 70.4819 18.1527 70.2154 18.857L70.5996 19.0023L70.9838 19.1477C71.2157 18.5349 71.5358 18.0116 71.9423 17.5727L71.6409 17.2936ZM70.5996 19.0023L70.2168 18.8535C69.9476 19.5457 69.815 20.2908 69.815 21.0849H70.2258H70.6366C70.6366 20.3838 70.7532 19.7406 70.9824 19.1512L70.5996 19.0023ZM70.2258 21.0849H69.815C69.815 21.879 69.9476 22.6317 70.2154 23.3395L70.5996 23.1941L70.9838 23.0488C70.7532 22.4394 70.6366 21.7859 70.6366 21.0849H70.2258ZM70.5996 23.1941L70.2189 23.3485C70.5025 24.048 70.8828 24.6674 71.3612 25.2032L71.6676 24.9296L71.974 24.656C71.5623 24.195 71.2307 23.6575 70.9803 23.0398L70.5996 23.1941ZM71.6676 24.9296L71.3717 25.2145C71.8693 25.7312 72.4443 26.1433 73.0946 26.4493L73.2695 26.0777L73.4444 25.706C72.8844 25.4424 72.3914 25.0891 71.9634 24.6447L71.6676 24.9296ZM73.2695 26.0777L73.1077 26.4552C73.7856 26.7457 74.5176 26.8889 75.2987 26.8889V26.4781V26.0674C74.6202 26.0674 73.9994 25.9435 73.4313 25.7001L73.2695 26.0777ZM75.2987 26.4781V26.8889C76.2507 26.8889 77.1068 26.6788 77.854 26.2462L77.6482 25.8908L77.4424 25.5353C76.8368 25.8859 76.1266 26.0674 75.2987 26.0674V26.4781ZM77.6482 25.8908L77.85 26.2485C78.5808 25.8363 79.2366 25.3209 79.8165 24.7035L79.5171 24.4223L79.2178 24.1411C78.6941 24.6985 78.104 25.1621 77.4464 25.533L77.6482 25.8908ZM79.5171 24.4223L79.236 24.7218L80.5443 25.9499L80.8254 25.6505L81.1065 25.351L79.7983 24.1228L79.5171 24.4223ZM87.0007 16.012V15.6013H86.5899V16.012H87.0007ZM87.6414 25.8641L87.8964 25.542L87.6414 25.8641ZM90.3114 26.2645L90.2223 25.8635L90.2173 25.8647L90.3114 26.2645ZM91.3259 25.8908H91.7367V25.2261L91.1422 25.5234L91.3259 25.8908ZM91.3259 27.6529L91.5239 28.0128L91.7367 27.8958V27.6529H91.3259ZM90.1779 28.0801L90.0906 27.6787L90.0801 27.681L90.0698 27.6838L90.1779 28.0801ZM87.2943 28.0267L87.1777 28.4205H87.1777L87.2943 28.0267ZM86.0395 27.3592L85.757 27.6574L85.765 27.665L85.7735 27.6722L86.0395 27.3592ZM85.2385 26.1311L84.8562 26.2812L85.2385 26.1311ZM84.9448 16.012H85.3556V15.6013H84.9448V16.012ZM83.0225 16.012H82.6117V16.4228H83.0225V16.012ZM83.0225 14.1965V13.7857H82.6117V14.1965H83.0225ZM84.9448 14.1965V14.6072H85.3556V14.1965H84.9448ZM84.9448 10.0314V9.62064H84.5341V10.0314H84.9448ZM87.0007 10.0314H87.4114V9.62064H87.0007V10.0314ZM87.0007 14.1965H86.5899V14.6072H87.0007V14.1965ZM91.3793 14.1965H91.7901V13.7857H91.3793V14.1965ZM91.3793 16.012V16.4228H91.7901V16.012H91.3793ZM87.0007 16.012H86.5899V24.0752H87.0007H87.4114V16.012H87.0007ZM87.0007 24.0752H86.5899C86.5899 24.9832 86.8157 25.7343 87.3865 26.1861L87.6414 25.8641L87.8964 25.542C87.6128 25.3175 87.4114 24.8759 87.4114 24.0752H87.0007ZM87.6414 25.8641L87.3865 26.1861C87.9041 26.5959 88.5625 26.7821 89.3235 26.7821V26.3713V25.9606C88.6961 25.9606 88.2331 25.8086 87.8964 25.542L87.6414 25.8641ZM89.3235 26.3713V26.7821C89.7067 26.7821 90.0679 26.7438 90.4054 26.6644L90.3114 26.2645L90.2173 25.8647C89.9496 25.9277 89.6523 25.9606 89.3235 25.9606V26.3713ZM90.3114 26.2645L90.4005 26.6655C90.7597 26.5857 91.1297 26.4481 91.5096 26.2582L91.3259 25.8908L91.1422 25.5234C90.8102 25.6894 90.5038 25.801 90.2223 25.8636L90.3114 26.2645ZM91.3259 25.8908H90.9152V27.6529H91.3259H91.7367V25.8908H91.3259ZM91.3259 27.6529L91.128 27.293C90.8078 27.4691 90.4625 27.5979 90.0906 27.6787L90.1779 28.0801L90.2651 28.4815C90.712 28.3843 91.1321 28.2283 91.5239 28.0128L91.3259 27.6529ZM90.1779 28.0801L90.0698 27.6838C89.7204 27.7791 89.3127 27.8295 88.8429 27.8295V28.2403V28.6511C89.3698 28.6511 89.8522 28.5947 90.2859 28.4764L90.1779 28.0801ZM88.8429 28.2403V27.8295C88.3267 27.8295 87.8501 27.763 87.411 27.6329L87.2943 28.0267L87.1777 28.4205C87.6997 28.5752 88.2556 28.6511 88.8429 28.6511V28.2403ZM87.2943 28.0267L87.411 27.6329C86.9813 27.5055 86.6148 27.3091 86.3055 27.0462L86.0395 27.3592L85.7735 27.6722C86.1762 28.0145 86.6463 28.2631 87.1777 28.4205L87.2943 28.0267ZM86.0395 27.3592L86.322 27.061C86.0336 26.7878 85.7979 26.4316 85.6208 25.9809L85.2385 26.1311L84.8562 26.2812C85.0707 26.8273 85.369 27.2898 85.757 27.6574L86.0395 27.3592ZM85.2385 26.1311L85.6208 25.9809C85.4485 25.5422 85.3556 24.9995 85.3556 24.3422H84.9448H84.5341C84.5341 25.0733 84.6369 25.7232 84.8562 26.2812L85.2385 26.1311ZM84.9448 24.3422H85.3556V16.012H84.9448H84.5341V24.3422H84.9448ZM84.9448 16.012V15.6013H83.0225V16.012V16.4228H84.9448V16.012ZM83.0225 16.012H83.4332V14.1965H83.0225H82.6117V16.012H83.0225ZM83.0225 14.1965V14.6072H84.9448V14.1965V13.7857H83.0225V14.1965ZM84.9448 14.1965H85.3556V10.0314H84.9448H84.5341V14.1965H84.9448ZM84.9448 10.0314V10.4422H87.0007V10.0314V9.62064H84.9448V10.0314ZM87.0007 10.0314H86.5899V14.1965H87.0007H87.4114V10.0314H87.0007ZM87.0007 14.1965V14.6072H91.3793V14.1965V13.7857H87.0007V14.1965ZM91.3793 14.1965H90.9686V16.012H91.3793H91.7901V14.1965H91.3793ZM91.3793 16.012V15.6013H87.0007V16.012V16.4228H91.3793V16.012ZM97.4213 11.1795V11.5902H97.8321V11.1795H97.4213ZM95.0718 11.1795H94.661V11.5902H95.0718V11.1795ZM95.0718 8.91002V8.49927H94.661V8.91002H95.0718ZM97.4213 8.91002H97.8321V8.49927H97.4213V8.91002ZM97.2611 28V28.4108H97.6719V28H97.2611ZM95.2053 28H94.7945V28.4108H95.2053V28ZM95.2053 14.1965V13.7857H94.7945V14.1965H95.2053ZM97.2611 14.1965H97.6719V13.7857H97.2611V14.1965ZM97.4213 11.1795V10.7687H95.0718V11.1795V11.5902H97.4213V11.1795ZM95.0718 11.1795H95.4825V8.91002H95.0718H94.661V11.1795H95.0718ZM95.0718 8.91002V9.32078H97.4213V8.91002V8.49927H95.0718V8.91002ZM97.4213 8.91002H97.0105V11.1795H97.4213H97.8321V8.91002H97.4213ZM97.2611 28V27.5892H95.2053V28V28.4108H97.2611V28ZM95.2053 28H95.616V14.1965H95.2053H94.7945V28H95.2053ZM95.2053 14.1965V14.6072H97.2611V14.1965V13.7857H95.2053V14.1965ZM97.2611 14.1965H96.8503V28H97.2611H97.6719V14.1965H97.2611ZM115.008 23.8883L114.629 23.7292L114.628 23.7331L115.008 23.8883ZM113.513 26.1845L113.218 25.898L113.513 26.1845ZM111.217 27.7597L111.376 28.1385L111.382 28.1357L111.217 27.7597ZM105.476 27.7597L105.308 28.1345L105.315 28.1373L105.476 27.7597ZM103.207 26.2111L102.912 26.4976L102.916 26.5016L103.207 26.2111ZM101.712 23.915L102.092 23.7598L101.712 23.915ZM101.712 18.3616L102.092 18.5168L102.093 18.5141L101.712 18.3616ZM103.207 16.0387L103.501 16.3252L103.207 16.0387ZM105.476 14.4902L105.638 14.8677L105.642 14.8661L105.476 14.4902ZM111.243 14.4902L111.075 14.865L111.084 14.8689L111.243 14.4902ZM113.54 16.0387L113.245 16.3252L113.249 16.3292L113.54 16.0387ZM115.035 18.3082L114.654 18.4634V18.4634L115.035 18.3082ZM113.059 19.029L112.675 19.1744L112.678 19.1834L113.059 19.029ZM111.991 17.3203L111.69 17.5998L111.695 17.6052L111.991 17.3203ZM110.362 16.1455L110.533 15.772L110.362 16.1455ZM106.277 16.1455L106.439 16.5232L106.448 16.5191L106.277 16.1455ZM104.675 17.2936L104.369 17.02L104.368 17.0207L104.675 17.2936ZM103.661 19.0023L104.044 19.1512L104.045 19.1477L103.661 19.0023ZM103.661 23.1941L103.277 23.3395L103.28 23.3485L103.661 23.1941ZM104.729 24.9029L104.427 25.182L104.433 25.1878L104.729 24.9029ZM106.357 26.051L106.528 25.6774L106.357 26.051ZM110.442 26.0777L110.604 26.4553L110.613 26.4512L110.442 26.0777ZM112.044 24.9296L112.346 25.2087L112.044 24.9296ZM113.086 23.2475L113.468 23.3964L113.47 23.3929L113.086 23.2475ZM115.569 21.0849H115.158C115.158 22.01 114.982 22.8904 114.629 23.7293L115.008 23.8883L115.387 24.0474C115.782 23.1063 115.979 22.1177 115.979 21.0849H115.569ZM115.008 23.8883L114.628 23.7331C114.291 24.5577 113.821 25.2782 113.218 25.898L113.513 26.1845L113.807 26.4709C114.486 25.7735 115.013 24.9633 115.388 24.0435L115.008 23.8883ZM113.513 26.1845L113.218 25.898C112.617 26.5166 111.896 27.0122 111.051 27.3837L111.217 27.7597L111.382 28.1357C112.318 27.7241 113.127 27.1695 113.807 26.4709L113.513 26.1845ZM111.217 27.7597L111.058 27.381C110.221 27.7322 109.315 27.9096 108.333 27.9096V28.3204V28.7311C109.416 28.7311 110.432 28.5348 111.376 28.1384L111.217 27.7597ZM108.333 28.3204V27.9096C107.351 27.9096 106.455 27.7322 105.638 27.3822L105.476 27.7597L105.315 28.1373C106.242 28.5348 107.25 28.7311 108.333 28.7311V28.3204ZM105.476 27.7597L105.645 27.385C104.815 27.0127 104.101 26.5243 103.497 25.9207L103.207 26.2111L102.916 26.5016C103.594 27.1796 104.393 27.7235 105.308 28.1344L105.476 27.7597ZM103.207 26.2111L103.501 25.9247C102.898 25.3049 102.429 24.5844 102.092 23.7598L101.712 23.915L101.331 24.0702C101.707 24.99 102.234 25.8002 102.912 26.4976L103.207 26.2111ZM101.712 23.915L102.092 23.7598C101.757 22.9388 101.589 22.0662 101.589 21.1383H101.178H100.767C100.767 22.1684 100.955 23.1469 101.331 24.0702L101.712 23.915ZM101.178 21.1383H101.589C101.589 20.2104 101.757 19.3378 102.092 18.5168L101.712 18.3616L101.331 18.2063C100.955 19.1297 100.767 20.1082 100.767 21.1383H101.178ZM101.712 18.3616L102.093 18.5141C102.43 17.6718 102.9 16.9436 103.501 16.3252L103.207 16.0387L102.912 15.7523C102.233 16.451 101.705 17.2713 101.33 18.209L101.712 18.3616ZM103.207 16.0387L103.501 16.3252C104.103 15.7067 104.814 15.2209 105.638 14.8677L105.476 14.4902L105.315 14.1126C104.394 14.507 103.592 15.0536 102.912 15.7523L103.207 16.0387ZM105.476 14.4902L105.642 14.8661C106.476 14.4993 107.389 14.3135 108.387 14.3135V13.9028V13.492C107.284 13.492 106.257 13.6979 105.311 14.1142L105.476 14.4902ZM108.387 13.9028V14.3135C109.366 14.3135 110.26 14.4989 111.075 14.8649L111.243 14.4902L111.412 14.1154C110.482 13.6983 109.472 13.492 108.387 13.492V13.9028ZM111.243 14.4902L111.084 14.8689C111.926 15.2224 112.645 15.7081 113.245 16.3252L113.54 16.0387L113.834 15.7523C113.153 15.0522 112.341 14.5055 111.402 14.1115L111.243 14.4902ZM113.54 16.0387L113.249 16.3292C113.85 16.9298 114.318 17.6398 114.654 18.4634L115.035 18.3082L115.415 18.1529C115.039 17.2322 114.511 16.4292 113.83 15.7483L113.54 16.0387ZM115.035 18.3082L114.654 18.4634C114.989 19.2844 115.158 20.157 115.158 21.0849H115.569H115.979C115.979 20.0548 115.792 19.0763 115.415 18.1529L115.035 18.3082ZM113.459 21.1383H113.87C113.87 20.3406 113.727 19.5849 113.44 18.8747L113.059 19.029L112.678 19.1834C112.924 19.7904 113.049 20.4408 113.049 21.1383H113.459ZM113.059 19.029L113.443 18.8837C113.175 18.176 112.79 17.5582 112.287 17.0354L111.991 17.3203L111.695 17.6052C112.117 18.0435 112.444 18.5649 112.675 19.1744L113.059 19.029ZM111.991 17.3203L112.292 17.0408C111.792 16.5025 111.205 16.0791 110.533 15.772L110.362 16.1455L110.192 16.5191C110.766 16.7816 111.264 17.1413 111.69 17.5998L111.991 17.3203ZM110.362 16.1455L110.533 15.772C109.853 15.4611 109.118 15.3076 108.333 15.3076V15.7183V16.1291C109.008 16.1291 109.626 16.2604 110.192 16.5191L110.362 16.1455ZM108.333 15.7183V15.3076C107.532 15.3076 106.788 15.4605 106.107 15.772L106.277 16.1455L106.448 16.5191C107.013 16.261 107.639 16.1291 108.333 16.1291V15.7183ZM106.277 16.1455L106.116 15.768C105.438 16.0583 104.855 16.4762 104.369 17.02L104.675 17.2936L104.982 17.5672C105.386 17.1143 105.871 16.7668 106.439 16.5231L106.277 16.1455ZM104.675 17.2936L104.368 17.0207C103.905 17.5421 103.542 18.156 103.277 18.857L103.661 19.0023L104.045 19.1477C104.278 18.5315 104.591 18.0062 104.982 17.5665L104.675 17.2936ZM103.661 19.0023L103.278 18.8535C103.009 19.5457 102.876 20.2908 102.876 21.0849H103.287H103.698C103.698 20.3838 103.814 19.7406 104.044 19.1512L103.661 19.0023ZM103.287 21.0849H102.876C102.876 21.879 103.009 22.6317 103.277 23.3395L103.661 23.1941L104.045 23.0488C103.814 22.4394 103.698 21.7859 103.698 21.0849H103.287ZM103.661 23.1941L103.28 23.3485C103.564 24.0491 103.946 24.6619 104.427 25.182L104.729 24.9029L105.03 24.6238C104.622 24.1827 104.291 23.6563 104.041 23.0398L103.661 23.1941ZM104.729 24.9029L104.433 25.1878C104.932 25.7065 105.518 26.1189 106.187 26.4245L106.357 26.051L106.528 25.6774C105.951 25.4134 105.451 25.0604 105.025 24.618L104.729 24.9029ZM106.357 26.051L106.187 26.4245C106.867 26.7354 107.602 26.8889 108.387 26.8889V26.4781V26.0674C107.712 26.0674 107.094 25.9361 106.528 25.6774L106.357 26.051ZM108.387 26.4781V26.8889C109.184 26.8889 109.925 26.7463 110.604 26.4552L110.442 26.0777L110.281 25.7001C109.714 25.943 109.084 26.0674 108.387 26.0674V26.4781ZM110.442 26.0777L110.613 26.4512C111.283 26.1449 111.862 25.7309 112.346 25.2087L112.044 24.9296L111.743 24.6505C111.337 25.0895 110.848 25.4408 110.272 25.7041L110.442 26.0777ZM112.044 24.9296L112.346 25.2087C112.828 24.6883 113.201 24.0829 113.468 23.3964L113.086 23.2475L112.703 23.0987C112.471 23.6937 112.151 24.2097 111.743 24.6505L112.044 24.9296ZM113.086 23.2475L113.47 23.3929C113.738 22.6851 113.87 21.9324 113.87 21.1383H113.459H113.049C113.049 21.8393 112.932 22.4928 112.701 23.1022L113.086 23.2475ZM121.349 28V28.4108H121.759V28H121.349ZM119.293 28H118.882V28.4108H119.293V28ZM119.293 14.1965V13.7857H118.882V14.1965H119.293ZM121.349 14.1965H121.759V13.7857H121.349V14.1965ZM121.349 16.5994H120.938V18.0433L121.698 16.8156L121.349 16.5994ZM123.164 14.7038L123.398 15.0418L123.403 15.038L123.164 14.7038ZM128.29 14.3033L128.132 14.6825L128.136 14.6839L128.29 14.3033ZM129.946 15.4513L129.639 15.7249L129.645 15.7307L129.65 15.7363L129.946 15.4513ZM130.987 17.1868L130.598 17.3198L130.602 17.3288L130.987 17.1868ZM131.361 28V28.4108H131.772V28H131.361ZM129.305 28H128.894V28.4108H129.305V28ZM128.317 16.8931L128.009 17.1646L128.317 16.8931ZM123.832 16.0921L123.982 16.4745L123.989 16.4717L123.832 16.0921ZM122.523 16.9732L122.814 17.2637L122.821 17.2568L122.523 16.9732ZM121.642 18.3349L121.261 18.1823L121.257 18.1935L121.642 18.3349ZM121.349 20.097H120.938V28H121.349H121.759V20.097H121.349ZM121.349 28V27.5892H119.293V28V28.4108H121.349V28ZM119.293 28H119.704V14.1965H119.293H118.882V28H119.293ZM119.293 14.1965V14.6072H121.349V14.1965V13.7857H119.293V14.1965ZM121.349 14.1965H120.938V16.5994H121.349H121.759V14.1965H121.349ZM121.349 16.5994L121.698 16.8156C122.13 16.1178 122.695 15.5269 123.398 15.0418L123.164 14.7038L122.931 14.3658C122.138 14.913 121.493 15.5859 120.999 16.3832L121.349 16.5994ZM123.164 14.7038L123.403 15.038C124.063 14.5668 124.942 14.3135 126.074 14.3135V13.9028V13.492C124.822 13.492 123.761 13.7728 122.925 14.3695L123.164 14.7038ZM126.074 13.9028V14.3135C126.868 14.3135 127.551 14.4401 128.132 14.6824L128.29 14.3033L128.448 13.9241C127.748 13.6325 126.954 13.492 126.074 13.492V13.9028ZM128.29 14.3033L128.136 14.6839C128.74 14.9289 129.239 15.2763 129.639 15.7249L129.946 15.4513L130.252 15.1778C129.763 14.6296 129.158 14.2117 128.445 13.9226L128.29 14.3033ZM129.946 15.4513L129.65 15.7363C130.068 16.1705 130.385 16.6961 130.598 17.3198L130.987 17.1868L131.376 17.0538C131.126 16.3248 130.749 15.6933 130.242 15.1664L129.946 15.4513ZM130.987 17.1868L130.602 17.3288C130.832 17.954 130.95 18.6527 130.95 19.4295H131.361H131.772C131.772 18.5688 131.641 17.7724 131.373 17.0448L130.987 17.1868ZM131.361 19.4295H130.95V28H131.361H131.772V19.4295H131.361ZM131.361 28V27.5892H129.305V28V28.4108H131.361V28ZM129.305 28H129.716V19.9368H129.305H128.894V28H129.305ZM129.305 19.9368H129.716C129.716 18.5847 129.367 17.4636 128.625 16.6216L128.317 16.8931L128.009 17.1646C128.584 17.8177 128.894 18.7258 128.894 19.9368H129.305ZM128.317 16.8931L128.625 16.6216C127.871 15.7654 126.803 15.361 125.487 15.361V15.7717V16.1825C126.627 16.1825 127.446 16.5257 128.009 17.1646L128.317 16.8931ZM125.487 15.7717V15.361C124.849 15.361 124.243 15.4773 123.675 15.7126L123.832 16.0921L123.989 16.4717C124.453 16.2797 124.951 16.1825 125.487 16.1825V15.7717ZM123.832 16.0921L123.681 15.7098C123.127 15.9277 122.641 16.2553 122.226 16.6896L122.523 16.9732L122.821 17.2568C123.154 16.9079 123.54 16.6482 123.982 16.4744L123.832 16.0921ZM122.523 16.9732L122.233 16.6828C121.816 17.0992 121.493 17.6013 121.261 18.1823L121.642 18.3349L122.024 18.4874C122.218 18.0005 122.483 17.5948 122.814 17.2637L122.523 16.9732ZM121.642 18.3349L121.257 18.1935C121.042 18.7781 120.938 19.414 120.938 20.097H121.349H121.759C121.759 19.4984 121.851 18.9596 122.028 18.4763L121.642 18.3349ZM157.5 17.9344L157.134 17.7473L157.5 17.9344ZM155.898 19.8567L155.649 19.5302L155.645 19.5334L155.898 19.8567ZM153.575 21.0315L153.686 21.4271L153.693 21.4249L153.575 21.0315ZM146.206 21.4053V20.9945H145.795V21.4053H146.206ZM146.206 28V28.4108H146.617V28H146.206ZM144.097 28H143.686V28.4108H144.097V28ZM144.097 9.31051V8.89976H143.686V9.31051H144.097ZM153.949 9.7377L153.819 10.1275L153.829 10.1305L153.949 9.7377ZM156.165 10.9125L155.898 11.2251L155.908 11.2332L156.165 10.9125ZM157.58 12.7814L157.202 12.9433L157.207 12.9541L157.58 12.7814ZM154.563 12.3008L154.313 12.6272L154.321 12.6325L154.563 12.3008ZM146.206 11.2596V10.8488H145.795V11.2596H146.206ZM146.206 19.4829H145.795V19.8937H146.206V19.4829ZM152.908 19.1892L152.788 18.7964L152.784 18.7974L152.908 19.1892ZM154.536 18.3616L154.793 18.6823L154.794 18.6811L154.536 18.3616ZM155.578 17.0533L155.208 16.8747L155.205 16.8803L155.578 17.0533ZM158.087 15.2645H157.676C157.676 16.2256 157.491 17.0494 157.134 17.7473L157.5 17.9344L157.866 18.1215C158.292 17.2886 158.498 16.3324 158.498 15.2645H158.087ZM157.5 17.9344L157.134 17.7473C156.77 18.4587 156.276 19.0516 155.649 19.5302L155.898 19.8567L156.147 20.1833C156.873 19.6295 157.446 18.9408 157.866 18.1215L157.5 17.9344ZM155.898 19.8567L155.645 19.5334C155.03 20.0147 154.303 20.3842 153.457 20.6381L153.575 21.0315L153.693 21.4249C154.627 21.1448 155.448 20.7311 156.151 20.18L155.898 19.8567ZM153.575 21.0315L153.464 20.6359C152.613 20.8743 151.707 20.9945 150.745 20.9945V21.4053V21.816C151.776 21.816 152.757 21.6871 153.686 21.427L153.575 21.0315ZM150.745 21.4053V20.9945H146.206V21.4053V21.816H150.745V21.4053ZM146.206 21.4053H145.795V28H146.206H146.617V21.4053H146.206ZM146.206 28V27.5892H144.097V28V28.4108H146.206V28ZM144.097 28H144.508V9.31051H144.097H143.686V28H144.097ZM144.097 9.31051V9.72127H151.092V9.31051V8.89976H144.097V9.31051ZM151.092 9.31051V9.72127C152.105 9.72127 153.013 9.85865 153.819 10.1274L153.949 9.7377L154.079 9.34802C153.176 9.04717 152.179 8.89976 151.092 8.89976V9.31051ZM153.949 9.7377L153.829 10.1305C154.655 10.3834 155.342 10.7503 155.898 11.225L156.165 10.9125L156.431 10.6C155.778 10.0423 154.987 9.62598 154.069 9.34494L153.949 9.7377ZM156.165 10.9125L155.908 11.2332C156.477 11.6885 156.908 12.2565 157.202 12.9432L157.58 12.7814L157.958 12.6196C157.611 11.8112 157.098 11.1332 156.421 10.5917L156.165 10.9125ZM157.58 12.7814L157.207 12.9541C157.517 13.6222 157.676 14.3896 157.676 15.2645H158.087H158.498C158.498 14.2882 158.319 13.4002 157.953 12.6087L157.58 12.7814ZM155.951 15.3445H156.362C156.362 13.8875 155.857 12.7375 154.805 11.9692L154.563 12.3008L154.321 12.6325C155.12 13.217 155.541 14.0961 155.541 15.3445H155.951ZM154.563 12.3008L154.812 11.9745C153.813 11.2102 152.506 10.8488 150.932 10.8488V11.2596V11.6703C152.384 11.6703 153.497 12.0031 154.313 12.6271L154.563 12.3008ZM150.932 11.2596V10.8488H146.206V11.2596V11.6703H150.932V11.2596ZM146.206 11.2596H145.795V19.4829H146.206H146.617V11.2596H146.206ZM146.206 19.4829V19.8937H150.825V19.4829V19.0722H146.206V19.4829ZM150.825 19.4829V19.8937C151.625 19.8937 152.362 19.7914 153.031 19.5811L152.908 19.1892L152.784 18.7974C152.207 18.9787 151.556 19.0722 150.825 19.0722V19.4829ZM152.908 19.1892L153.028 19.5821C153.709 19.3737 154.301 19.0759 154.793 18.6823L154.536 18.3616L154.28 18.0408C153.882 18.3592 153.387 18.6132 152.788 18.7964L152.908 19.1892ZM154.536 18.3616L154.794 18.6811C155.302 18.2712 155.69 17.7862 155.95 17.2263L155.578 17.0533L155.205 16.8803C155.002 17.3171 154.696 17.7044 154.278 18.042L154.536 18.3616ZM155.578 17.0533L155.947 17.2319C156.226 16.6553 156.362 16.0239 156.362 15.3445H155.951H155.541C155.541 15.9111 155.428 16.4189 155.208 16.8747L155.578 17.0533ZM174.429 23.8883L174.051 23.7292L174.049 23.7331L174.429 23.8883ZM172.934 26.1845L172.64 25.898L172.934 26.1845ZM170.638 27.7597L170.797 28.1385L170.804 28.1357L170.638 27.7597ZM164.898 27.7597L164.73 28.1345L164.736 28.1373L164.898 27.7597ZM162.628 26.2111L162.334 26.4976L162.338 26.5016L162.628 26.2111ZM161.133 23.915L161.514 23.7598L161.133 23.915ZM161.133 18.3616L161.514 18.5168L161.515 18.5141L161.133 18.3616ZM162.628 16.0387L162.923 16.3252L162.628 16.0387ZM164.898 14.4902L165.06 14.8677L165.063 14.8661L164.898 14.4902ZM170.665 14.4902L170.497 14.865L170.506 14.8689L170.665 14.4902ZM172.961 16.0387L172.667 16.3252L172.671 16.3292L172.961 16.0387ZM174.456 18.3082L174.076 18.4634V18.4634L174.456 18.3082ZM172.48 19.029L172.096 19.1744L172.1 19.1834L172.48 19.029ZM171.412 17.3203L171.111 17.5998L171.117 17.6052L171.412 17.3203ZM169.784 16.1455L169.955 15.772L169.784 16.1455ZM165.699 16.1455L165.861 16.5232L165.87 16.5191L165.699 16.1455ZM164.097 17.2936L163.79 17.02L163.79 17.0207L164.097 17.2936ZM163.082 19.0023L163.465 19.1512L163.466 19.1477L163.082 19.0023ZM163.082 23.1941L162.698 23.3395L162.702 23.3485L163.082 23.1941ZM164.15 24.9029L163.849 25.182L163.854 25.1878L164.15 24.9029ZM165.779 26.051L165.95 25.6774L165.779 26.051ZM169.864 26.0777L170.026 26.4553L170.035 26.4512L169.864 26.0777ZM171.466 24.9296L171.767 25.2087L171.466 24.9296ZM172.507 23.2475L172.89 23.3964L172.891 23.3929L172.507 23.2475ZM174.99 21.0849H174.579C174.579 22.01 174.403 22.8904 174.051 23.7293L174.429 23.8883L174.808 24.0474C175.203 23.1063 175.401 22.1177 175.401 21.0849H174.99ZM174.429 23.8883L174.049 23.7331C173.713 24.5577 173.243 25.2782 172.64 25.898L172.934 26.1845L173.229 26.4709C173.907 25.7735 174.434 24.9633 174.81 24.0435L174.429 23.8883ZM172.934 26.1845L172.64 25.898C172.038 26.5166 171.317 27.0122 170.473 27.3837L170.638 27.7597L170.804 28.1357C171.739 27.7241 172.549 27.1695 173.229 26.4709L172.934 26.1845ZM170.638 27.7597L170.479 27.381C169.643 27.7322 168.736 27.9096 167.755 27.9096V28.3204V28.7311C168.838 28.7311 169.853 28.5348 170.797 28.1384L170.638 27.7597ZM167.755 28.3204V27.9096C166.773 27.9096 165.876 27.7322 165.06 27.3822L164.898 27.7597L164.736 28.1373C165.664 28.5348 166.672 28.7311 167.755 28.7311V28.3204ZM164.898 27.7597L165.066 27.385C164.237 27.0127 163.522 26.5243 162.919 25.9207L162.628 26.2111L162.338 26.5016C163.016 27.1796 163.814 27.7235 164.73 28.1344L164.898 27.7597ZM162.628 26.2111L162.923 25.9247C162.32 25.3049 161.85 24.5844 161.514 23.7598L161.133 23.915L160.753 24.0702C161.128 24.99 161.656 25.8002 162.334 26.4976L162.628 26.2111ZM161.133 23.915L161.514 23.7598C161.178 22.9388 161.01 22.0662 161.01 21.1383H160.599H160.189C160.189 22.1684 160.376 23.1469 160.753 24.0702L161.133 23.915ZM160.599 21.1383H161.01C161.01 20.2104 161.178 19.3378 161.514 18.5168L161.133 18.3616L160.753 18.2063C160.376 19.1297 160.189 20.1082 160.189 21.1383H160.599ZM161.133 18.3616L161.515 18.5141C161.852 17.6718 162.321 16.9436 162.923 16.3252L162.628 16.0387L162.334 15.7523C161.654 16.451 161.127 17.2713 160.752 18.209L161.133 18.3616ZM162.628 16.0387L162.923 16.3252C163.525 15.7067 164.236 15.2209 165.06 14.8677L164.898 14.4902L164.736 14.1126C163.816 14.507 163.014 15.0536 162.334 15.7523L162.628 16.0387ZM164.898 14.4902L165.063 14.8661C165.897 14.4993 166.81 14.3135 167.808 14.3135V13.9028V13.492C166.706 13.492 165.679 13.6979 164.732 14.1142L164.898 14.4902ZM167.808 13.9028V14.3135C168.787 14.3135 169.682 14.4989 170.497 14.8649L170.665 14.4902L170.833 14.1154C169.904 13.6983 168.894 13.492 167.808 13.492V13.9028ZM170.665 14.4902L170.506 14.8689C171.348 15.2224 172.066 15.7081 172.667 16.3252L172.961 16.0387L173.255 15.7523C172.574 15.0522 171.762 14.5055 170.824 14.1115L170.665 14.4902ZM172.961 16.0387L172.671 16.3292C173.271 16.9298 173.74 17.6398 174.076 18.4634L174.456 18.3082L174.836 18.1529C174.461 17.2322 173.932 16.4292 173.251 15.7483L172.961 16.0387ZM174.456 18.3082L174.076 18.4634C174.411 19.2844 174.579 20.157 174.579 21.0849H174.99H175.401C175.401 20.0548 175.213 19.0763 174.836 18.1529L174.456 18.3082ZM172.881 21.1383H173.292C173.292 20.3406 173.149 19.5849 172.861 18.8747L172.48 19.029L172.1 19.1834C172.346 19.7904 172.47 20.4408 172.47 21.1383H172.881ZM172.48 19.029L172.865 18.8837C172.597 18.176 172.212 17.5582 171.708 17.0354L171.412 17.3203L171.117 17.6052C171.539 18.0435 171.866 18.5649 172.096 19.1744L172.48 19.029ZM171.412 17.3203L171.713 17.0408C171.214 16.5025 170.626 16.0791 169.955 15.772L169.784 16.1455L169.613 16.5191C170.187 16.7816 170.686 17.1413 171.111 17.5998L171.412 17.3203ZM169.784 16.1455L169.955 15.772C169.275 15.4611 168.539 15.3076 167.755 15.3076V15.7183V16.1291C168.429 16.1291 169.047 16.2604 169.613 16.5191L169.784 16.1455ZM167.755 15.7183V15.3076C166.954 15.3076 166.209 15.4605 165.528 15.772L165.699 16.1455L165.87 16.5191C166.434 16.261 167.061 16.1291 167.755 16.1291V15.7183ZM165.699 16.1455L165.537 15.768C164.86 16.0583 164.276 16.4762 163.79 17.02L164.097 17.2936L164.403 17.5672C164.808 17.1143 165.292 16.7668 165.861 16.5231L165.699 16.1455ZM164.097 17.2936L163.79 17.0207C163.326 17.5421 162.963 18.156 162.698 18.857L163.082 19.0023L163.466 19.1477C163.7 18.5315 164.013 18.0062 164.404 17.5665L164.097 17.2936ZM163.082 19.0023L162.699 18.8535C162.43 19.5457 162.298 20.2908 162.298 21.0849H162.709H163.119C163.119 20.3838 163.236 19.7406 163.465 19.1512L163.082 19.0023ZM162.709 21.0849H162.298C162.298 21.879 162.43 22.6317 162.698 23.3395L163.082 23.1941L163.466 23.0488C163.236 22.4394 163.119 21.7859 163.119 21.0849H162.709ZM163.082 23.1941L162.702 23.3485C162.986 24.0491 163.367 24.6619 163.849 25.182L164.15 24.9029L164.452 24.6238C164.043 24.1827 163.713 23.6563 163.463 23.0398L163.082 23.1941ZM164.15 24.9029L163.854 25.1878C164.354 25.7065 164.94 26.1189 165.608 26.4245L165.779 26.051L165.95 25.6774C165.372 25.4134 164.872 25.0604 164.446 24.618L164.15 24.9029ZM165.779 26.051L165.608 26.4245C166.288 26.7354 167.023 26.8889 167.808 26.8889V26.4781V26.0674C167.133 26.0674 166.516 25.9361 165.95 25.6774L165.779 26.051ZM167.808 26.4781V26.8889C168.606 26.8889 169.347 26.7463 170.026 26.4552L169.864 26.0777L169.702 25.7001C169.135 25.943 168.506 26.0674 167.808 26.0674V26.4781ZM169.864 26.0777L170.035 26.4512C170.705 26.1449 171.284 25.7309 171.767 25.2087L171.466 24.9296L171.164 24.6505C170.758 25.0895 170.269 25.4408 169.693 25.7041L169.864 26.0777ZM171.466 24.9296L171.767 25.2087C172.249 24.6883 172.623 24.0829 172.89 23.3964L172.507 23.2475L172.124 23.0987C171.893 23.6937 171.573 24.2097 171.164 24.6505L171.466 24.9296ZM172.507 23.2475L172.891 23.3929C173.159 22.6851 173.292 21.9324 173.292 21.1383H172.881H172.47C172.47 21.8393 172.354 22.4928 172.123 23.1022L172.507 23.2475ZM181.117 11.1795V11.5902H181.528V11.1795H181.117ZM178.768 11.1795H178.357V11.5902H178.768V11.1795ZM178.768 8.91002V8.49927H178.357V8.91002H178.768ZM181.117 8.91002H181.528V8.49927H181.117V8.91002ZM180.957 28V28.4108H181.368V28H180.957ZM178.901 28H178.49V28.4108H178.901V28ZM178.901 14.1965V13.7857H178.49V14.1965H178.901ZM180.957 14.1965H181.368V13.7857H180.957V14.1965ZM181.117 11.1795V10.7687H178.768V11.1795V11.5902H181.117V11.1795ZM178.768 11.1795H179.178V8.91002H178.768H178.357V11.1795H178.768ZM178.768 8.91002V9.32078H181.117V8.91002V8.49927H178.768V8.91002ZM181.117 8.91002H180.706V11.1795H181.117H181.528V8.91002H181.117ZM180.957 28V27.5892H178.901V28V28.4108H180.957V28ZM178.901 28H179.312V14.1965H178.901H178.49V28H178.901ZM178.901 14.1965V14.6072H180.957V14.1965V13.7857H178.901V14.1965ZM180.957 14.1965H180.546V28H180.957H181.368V14.1965H180.957ZM187.784 28V28.4108H188.195V28H187.784ZM185.728 28H185.317V28.4108H185.728V28ZM185.728 14.1965V13.7857H185.317V14.1965H185.728ZM187.784 14.1965H188.195V13.7857H187.784V14.1965ZM187.784 16.5994H187.373V18.0433L188.133 16.8156L187.784 16.5994ZM189.599 14.7038L189.833 15.0418L189.838 15.038L189.599 14.7038ZM194.726 14.3033L194.568 14.6825L194.571 14.6839L194.726 14.3033ZM196.381 15.4513L196.075 15.7249L196.08 15.7307L196.085 15.7363L196.381 15.4513ZM197.422 17.1868L197.034 17.3198L197.037 17.3288L197.422 17.1868ZM197.796 28V28.4108H198.207V28H197.796ZM195.74 28H195.33V28.4108H195.74V28ZM194.752 16.8931L194.444 17.1646L194.752 16.8931ZM190.267 16.0921L190.417 16.4745L190.424 16.4717L190.267 16.0921ZM188.959 16.9732L189.249 17.2637L189.256 17.2568L188.959 16.9732ZM188.078 18.3349L187.696 18.1823L187.692 18.1935L188.078 18.3349ZM187.784 20.097H187.373V28H187.784H188.195V20.097H187.784ZM187.784 28V27.5892H185.728V28V28.4108H187.784V28ZM185.728 28H186.139V14.1965H185.728H185.317V28H185.728ZM185.728 14.1965V14.6072H187.784V14.1965V13.7857H185.728V14.1965ZM187.784 14.1965H187.373V16.5994H187.784H188.195V14.1965H187.784ZM187.784 16.5994L188.133 16.8156C188.565 16.1178 189.13 15.5269 189.833 15.0418L189.599 14.7038L189.366 14.3658C188.573 14.913 187.928 15.5859 187.435 16.3832L187.784 16.5994ZM189.599 14.7038L189.838 15.038C190.498 14.5668 191.377 14.3135 192.51 14.3135V13.9028V13.492C191.257 13.492 190.196 13.7728 189.361 14.3695L189.599 14.7038ZM192.51 13.9028V14.3135C193.303 14.3135 193.986 14.4401 194.568 14.6824L194.726 14.3033L194.884 13.9241C194.184 13.6325 193.39 13.492 192.51 13.492V13.9028ZM194.726 14.3033L194.571 14.6839C195.176 14.9289 195.674 15.2763 196.075 15.7249L196.381 15.4513L196.687 15.1778C196.198 14.6296 195.593 14.2117 194.88 13.9226L194.726 14.3033ZM196.381 15.4513L196.085 15.7363C196.503 16.1705 196.82 16.6961 197.034 17.3198L197.422 17.1868L197.811 17.0538C197.562 16.3248 197.184 15.6933 196.677 15.1664L196.381 15.4513ZM197.422 17.1868L197.037 17.3288C197.267 17.954 197.385 18.6527 197.385 19.4295H197.796H198.207C198.207 18.5688 198.076 17.7724 197.808 17.0448L197.422 17.1868ZM197.796 19.4295H197.385V28H197.796H198.207V19.4295H197.796ZM197.796 28V27.5892H195.74V28V28.4108H197.796V28ZM195.74 28H196.151V19.9368H195.74H195.33V28H195.74ZM195.74 19.9368H196.151C196.151 18.5847 195.802 17.4636 195.061 16.6216L194.752 16.8931L194.444 17.1646C195.02 17.8177 195.33 18.7258 195.33 19.9368H195.74ZM194.752 16.8931L195.061 16.6216C194.306 15.7654 193.239 15.361 191.922 15.361V15.7717V16.1825C193.062 16.1825 193.881 16.5257 194.444 17.1646L194.752 16.8931ZM191.922 15.7717V15.361C191.284 15.361 190.678 15.4773 190.11 15.7126L190.267 16.0921L190.424 16.4717C190.888 16.2797 191.386 16.1825 191.922 16.1825V15.7717ZM190.267 16.0921L190.117 15.7098C189.562 15.9277 189.076 16.2553 188.662 16.6896L188.959 16.9732L189.256 17.2568C189.589 16.9079 189.975 16.6482 190.417 16.4744L190.267 16.0921ZM188.959 16.9732L188.668 16.6828C188.252 17.0992 187.929 17.6013 187.696 18.1823L188.078 18.3349L188.459 18.4874C188.654 18.0005 188.918 17.5948 189.249 17.2637L188.959 16.9732ZM188.078 18.3349L187.692 18.1935C187.478 18.7781 187.373 19.414 187.373 20.097H187.784H188.195C188.195 19.4984 188.286 18.9596 188.463 18.4763L188.078 18.3349ZM204.957 16.012V15.6013H204.546V16.012H204.957ZM205.598 25.8641L205.853 25.542L205.598 25.8641ZM208.268 26.2645L208.179 25.8635L208.174 25.8647L208.268 26.2645ZM209.282 25.8908H209.693V25.2261L209.099 25.5234L209.282 25.8908ZM209.282 27.6529L209.48 28.0128L209.693 27.8958V27.6529H209.282ZM208.134 28.0801L208.047 27.6787L208.037 27.681L208.026 27.6838L208.134 28.0801ZM205.251 28.0267L205.134 28.4205L205.251 28.0267ZM203.996 27.3592L203.714 27.6574L203.722 27.665L203.73 27.6722L203.996 27.3592ZM203.195 26.1311L202.813 26.2812L203.195 26.1311ZM202.901 16.012H203.312V15.6013H202.901V16.012ZM200.979 16.012H200.568V16.4228H200.979V16.012ZM200.979 14.1965V13.7857H200.568V14.1965H200.979ZM202.901 14.1965V14.6072H203.312V14.1965H202.901ZM202.901 10.0314V9.62064H202.491V10.0314H202.901ZM204.957 10.0314H205.368V9.62064H204.957V10.0314ZM204.957 14.1965H204.546V14.6072H204.957V14.1965ZM209.336 14.1965H209.747V13.7857H209.336V14.1965ZM209.336 16.012V16.4228H209.747V16.012H209.336ZM204.957 16.012H204.546V24.0752H204.957H205.368V16.012H204.957ZM204.957 24.0752H204.546C204.546 24.9832 204.772 25.7343 205.343 26.1861L205.598 25.8641L205.853 25.542C205.569 25.3175 205.368 24.8759 205.368 24.0752H204.957ZM205.598 25.8641L205.343 26.1861C205.861 26.5959 206.519 26.7821 207.28 26.7821V26.3713V25.9606C206.653 25.9606 206.19 25.8086 205.853 25.542L205.598 25.8641ZM207.28 26.3713V26.7821C207.663 26.7821 208.024 26.7438 208.362 26.6644L208.268 26.2645L208.174 25.8647C207.906 25.9277 207.609 25.9606 207.28 25.9606V26.3713ZM208.268 26.2645L208.357 26.6655C208.716 26.5857 209.086 26.4481 209.466 26.2582L209.282 25.8908L209.099 25.5234C208.767 25.6894 208.46 25.801 208.179 25.8636L208.268 26.2645ZM209.282 25.8908H208.872V27.6529H209.282H209.693V25.8908H209.282ZM209.282 27.6529L209.085 27.293C208.764 27.4691 208.419 27.5979 208.047 27.6787L208.134 28.0801L208.222 28.4815C208.669 28.3843 209.089 28.2283 209.48 28.0128L209.282 27.6529ZM208.134 28.0801L208.026 27.6838C207.677 27.7791 207.269 27.8295 206.799 27.8295V28.2403V28.6511C207.326 28.6511 207.809 28.5947 208.242 28.4764L208.134 28.0801ZM206.799 28.2403V27.8295C206.283 27.8295 205.807 27.763 205.368 27.6329L205.251 28.0267L205.134 28.4205C205.656 28.5752 206.212 28.6511 206.799 28.6511V28.2403ZM205.251 28.0267L205.368 27.6329C204.938 27.5055 204.571 27.3091 204.262 27.0462L203.996 27.3592L203.73 27.6722C204.133 28.0145 204.603 28.2631 205.134 28.4205L205.251 28.0267ZM203.996 27.3592L204.278 27.061C203.99 26.7878 203.754 26.4316 203.577 25.9809L203.195 26.1311L202.813 26.2812C203.027 26.8273 203.326 27.2898 203.714 27.6574L203.996 27.3592ZM203.195 26.1311L203.577 25.9809C203.405 25.5422 203.312 24.9995 203.312 24.3422H202.901H202.491C202.491 25.0733 202.593 25.7232 202.813 26.2812L203.195 26.1311ZM202.901 24.3422H203.312V16.012H202.901H202.491V24.3422H202.901ZM202.901 16.012V15.6013H200.979V16.012V16.4228H202.901V16.012ZM200.979 16.012H201.39V14.1965H200.979H200.568V16.012H200.979ZM200.979 14.1965V14.6072H202.901V14.1965V13.7857H200.979V14.1965ZM202.901 14.1965H203.312V10.0314H202.901H202.491V14.1965H202.901ZM202.901 10.0314V10.4422H204.957V10.0314V9.62064H202.901V10.0314ZM204.957 10.0314H204.546V14.1965H204.957H205.368V10.0314H204.957ZM204.957 14.1965V14.6072H209.336V14.1965V13.7857H204.957V14.1965ZM209.336 14.1965H208.925V16.012H209.336H209.747V14.1965H209.336ZM209.336 16.012V15.6013H204.957V16.012V16.4228H209.336V16.012Z" fill="#18181B" mask="url(#path-12-outside-1_1022_5831)"/>
</svg>
