<svg width="1440" height="1024" viewBox="0 0 1440 1024" fill="none" xmlns="http://www.w3.org/2000/svg">
<rect width="1440" height="1024" fill="white"/>
<rect x="664" y="934" width="34" height="34" rx="17" fill="#F8FAFC"/>
<path d="M682.604 945.395V956H680.978V947.006H680.919L678.385 948.661V947.123L681.022 945.395H682.604Z" fill="#3B82F6"/>
<path d="M717.477 956V954.828L721.154 951.122C722.311 949.906 722.897 949.232 722.897 948.31C722.897 947.27 722.047 946.596 720.934 946.596C719.762 946.596 719 947.343 719 948.471H717.477C717.462 946.537 718.942 945.248 720.963 945.248C723.014 945.248 724.42 946.537 724.435 948.266C724.42 949.452 723.864 950.39 721.872 952.353L719.718 954.535V954.623H724.611V956H717.477Z" fill="#18181B"/>
<path d="M761.022 956.146C758.825 956.146 757.257 954.96 757.199 953.231H758.839C758.898 954.169 759.821 954.755 761.007 954.755C762.282 954.755 763.219 954.052 763.219 953.026C763.219 951.986 762.34 951.225 760.832 951.225H759.923V949.906H760.832C762.033 949.906 762.882 949.232 762.882 948.222C762.882 947.255 762.165 946.596 761.037 946.596C759.967 946.596 759.03 947.182 758.986 948.148H757.433C757.477 946.42 759.074 945.248 761.051 945.248C763.131 945.248 764.45 946.566 764.435 948.134C764.45 949.335 763.703 950.214 762.56 950.492V950.565C764.01 950.771 764.845 951.737 764.845 953.085C764.845 954.857 763.219 956.146 761.022 956.146Z" fill="#18181B"/>
<rect x="1168.6" y="164.6" width="84.8" height="28.8" rx="4.4" fill="white"/>
<rect x="1168.6" y="164.6" width="84.8" height="28.8" rx="4.4" stroke="#E4E4E7" stroke-width="1.2"/>
<path d="M1183.57 179.093V181.363C1184.77 181.297 1185.98 181.195 1187.13 181.026L1187.23 182.052C1184.25 182.594 1181.08 182.623 1178.73 182.623L1178.56 181.48C1179.61 181.473 1180.86 181.466 1182.17 181.422V179.093H1183.57ZM1186.51 173.79V174.918H1183.57C1183.64 176.456 1184.88 177.789 1186.85 178.316L1186.2 179.4C1184.64 178.954 1183.46 178.001 1182.88 176.749C1182.3 178.067 1181.15 179.063 1179.57 179.518L1178.91 178.463C1180.86 177.906 1182.09 176.529 1182.16 174.918H1179.26V173.79H1182.17V172.223H1183.57V173.79H1186.51ZM1189.34 172.12V185.274H1187.95V172.12H1189.34ZM1202.33 172.135V181.744H1200.94V172.135H1202.33ZM1202.73 183.839V184.967H1193.75V180.836H1195.15V183.839H1202.73ZM1196.22 174.156C1196.21 176.075 1197.44 177.833 1199.46 178.536L1198.74 179.649C1197.23 179.085 1196.11 177.972 1195.52 176.544C1194.94 178.067 1193.81 179.291 1192.27 179.884L1191.52 178.785C1193.59 178.023 1194.8 176.134 1194.8 174.156V172.853H1196.22V174.156ZM1211.11 173.028C1211.11 174.669 1213.21 176.251 1215.71 176.617L1215.16 177.716C1213.08 177.372 1211.24 176.295 1210.4 174.815C1209.57 176.324 1207.71 177.401 1205.63 177.745L1205.1 176.646C1207.59 176.266 1209.68 174.728 1209.68 173.028V172.457H1211.11V173.028ZM1216.41 178.727V179.854H1211.19V182.389H1209.82V179.854H1204.4V178.727H1216.41ZM1215.08 183.839V184.967H1205.89V181.158H1207.28V183.839H1215.08Z" fill="#18181B"/>
<g clip-path="url(#clip0_1004_7970)">
<path d="M1233 177L1238 182L1243 177H1233Z" fill="#18181B"/>
</g>
<rect x="551" y="241" width="337" height="258" rx="30" fill="#FAFAFA"/>
<circle cx="612" cy="300" r="23" fill="#E2E8F0"/>
<rect x="599.168" y="290.948" width="22.3304" height="20.3821" rx="1.01864" fill="#71717A"/>
<path d="M624.935 294.989H604.233C603.775 294.989 603.373 295.295 603.251 295.737L599.355 309.892C599.176 310.54 599.664 311.181 600.337 311.181H620.603C621.051 311.181 621.446 310.888 621.577 310.46L625.909 296.306C626.11 295.651 625.62 294.989 624.935 294.989Z" fill="#AFAFC1" stroke="#AFAFC1" stroke-width="0.315328"/>
<path d="M590.57 364V347.031H593.617V354.227H601.516V347.031H604.586V364H601.516V356.781H593.617V364H590.57ZM619.08 352.75C618.729 350.711 617.088 349.539 615.025 349.539C612.236 349.539 610.291 351.672 610.291 355.516C610.291 359.406 612.26 361.492 615.025 361.492C617.041 361.492 618.682 360.367 619.08 358.375H622.15C621.682 361.633 619.01 364.234 614.979 364.234C610.502 364.234 607.221 360.977 607.221 355.516C607.221 350.031 610.549 346.797 614.979 346.797C618.729 346.797 621.635 348.977 622.15 352.75H619.08ZM630.457 364H624.691V347.031H630.551C635.613 347.031 638.684 350.219 638.684 355.492C638.684 360.789 635.613 364 630.457 364ZM627.738 361.352H630.293C633.832 361.352 635.637 359.406 635.637 355.492C635.637 351.602 633.832 349.68 630.387 349.68H627.738V361.352ZM657.453 346.141V348.25H649.859V350.219H656.844V352.258H649.859V354.344C653.82 354.332 656.234 354.262 659.023 353.805L659.281 355.844C656.234 356.383 653.586 356.43 649.016 356.406H647.211V346.141H657.453ZM663.687 344.922V357.508H661.062V344.922H663.687ZM663.687 358.445V365.828H649.625V358.445H663.687ZM652.203 360.461V363.719H661.133V360.461H652.203ZM684.228 345.508V347.477H681.322V350.688H684.111V352.656H668.549V350.688H671.338V347.477H668.432V345.508H684.228ZM686.01 353.992V356.055H666.697V353.992H686.01ZM683.596 357.484V362.523H671.549V363.953H684.182V365.898H668.994V360.719H681.041V359.383H668.971V357.484H683.596ZM673.939 350.688H678.697V347.477H673.939V350.688Z" fill="#18181B"/>
<rect x="737" y="432" width="116" height="35" rx="5" fill="#F3F0F0"/>
<path d="M754.938 443.125C754.938 446.797 752.453 449.344 748.25 450.422L747.562 449.078C750.852 448.227 752.781 446.562 753.078 444.5H748.375V443.125H754.938ZM759.234 442.281V450.188H757.484V442.281H759.234ZM759.234 450.797V456.203H749.906V450.797H759.234ZM751.625 452.172V454.828H757.531V452.172H751.625ZM765.864 445.656C765.848 448.172 767.114 450.734 769.301 451.781L768.239 453.172C766.708 452.398 765.606 450.906 765.004 449.109C764.387 451.031 763.231 452.625 761.614 453.438L760.551 452.047C762.817 450.969 764.114 448.266 764.129 445.656V443.406H765.864V445.656ZM771.879 442.266V447.797H774.051V449.281H771.879V456.391H770.145V442.266H771.879ZM785.306 442.281V445.656H787.29V447.094H785.306V450.766H783.571V442.281H785.306ZM781.149 443.141V447.203H776.446V448.688C778.845 448.672 780.485 448.586 782.415 448.266L782.603 449.656C780.493 450.031 778.665 450.125 775.868 450.109H774.712V445.891H779.446V444.516H774.696V443.141H781.149ZM780.696 451.078C783.603 451.094 785.431 452.078 785.446 453.75C785.431 455.406 783.603 456.359 780.696 456.359C777.728 456.359 775.915 455.406 775.915 453.75C775.915 452.078 777.728 451.094 780.696 451.078ZM780.696 452.438C778.728 452.438 777.603 452.906 777.618 453.75C777.603 454.594 778.728 455.047 780.696 455.047C782.649 455.047 783.728 454.594 783.728 453.75C783.728 452.906 782.649 452.438 780.696 452.438ZM799.154 442.328V450.234H797.685V442.328H799.154ZM789.904 443.141V448.047C792.162 448.031 794.146 447.867 796.248 447.422L796.451 448.656C794.138 449.125 792.029 449.297 789.576 449.297H788.419V443.141H789.904ZM799.154 450.875V456.141H789.982V450.875H799.154ZM791.435 452.047V454.953H797.701V452.047H791.435ZM808.897 443.219C811.116 443.219 812.694 444.578 812.709 446.547C812.694 448.289 811.459 449.555 809.631 449.812V452.031C810.952 451.969 812.295 451.859 813.553 451.672L813.662 452.75C810.491 453.344 807.1 453.359 804.6 453.359L804.412 452.141C805.514 452.141 806.795 452.141 808.147 452.094V449.812C806.334 449.547 805.069 448.281 805.084 446.547C805.069 444.578 806.694 443.219 808.897 443.219ZM808.897 444.5C807.537 444.5 806.537 445.297 806.553 446.547C806.537 447.781 807.537 448.609 808.897 448.594C810.256 448.609 811.256 447.781 811.256 446.547C811.256 445.297 810.256 444.5 808.897 444.5ZM815.912 442.328V456.359H814.428V442.328H815.912ZM821.593 455V453.75L825.515 449.797C826.749 448.5 827.374 447.781 827.374 446.797C827.374 445.688 826.468 444.969 825.281 444.969C824.031 444.969 823.218 445.766 823.218 446.969H821.593C821.577 444.906 823.156 443.531 825.312 443.531C827.499 443.531 828.999 444.906 829.015 446.75C828.999 448.016 828.406 449.016 826.281 451.109L823.984 453.438V453.531H829.202V455H821.593ZM841.816 442.328V450.594H840.332V448.516H837.285V449.656H830.785V443.375H837.285V444.531H840.332V442.328H841.816ZM832.254 444.562V448.469H835.832V444.562H832.254ZM837.129 450.984C840.066 450.984 841.863 451.953 841.863 453.656C841.863 455.344 840.066 456.312 837.129 456.297C834.191 456.312 832.379 455.344 832.394 453.656C832.379 451.953 834.191 450.984 837.129 450.984ZM837.129 452.125C835.082 452.141 833.863 452.672 833.863 453.656C833.863 454.594 835.082 455.156 837.129 455.156C839.176 455.156 840.394 454.594 840.394 453.656C840.394 452.672 839.176 452.141 837.129 452.125ZM837.285 447.312H840.332V445.719H837.285V447.312Z" fill="#71717A"/>
<rect x="551" y="529" width="337" height="258" rx="30" fill="#F6FAFF"/>
<circle cx="612" cy="588" r="23" fill="#BFDBFE"/>
<rect x="599.168" y="578.948" width="22.3304" height="20.3821" rx="1.01864" fill="#1E40AF"/>
<rect x="600.324" y="577.549" width="21.1786" height="20.317" rx="0.509318" fill="#DBEAFE"/>
<rect x="601.394" y="577" width="20.109" height="20.317" rx="0.509318" fill="white"/>
<path opacity="0.3" d="M603.853 579.654H617.758" stroke="#93C5FD" stroke-width="0.5" stroke-linecap="round"/>
<path opacity="0.3" d="M603.853 581.759H615.191" stroke="#93C5FD" stroke-width="0.5" stroke-linecap="round"/>
<path d="M603.853 583.864H617.33" stroke="#93C5FD" stroke-width="0.254659"/>
<path d="M603.853 585.237H617.33" stroke="#93C5FD" stroke-width="0.254659"/>
<path d="M603.853 586.609H617.33" stroke="#93C5FD" stroke-width="0.254659"/>
<path d="M624.935 582.989H604.233C603.775 582.989 603.373 583.295 603.251 583.737L599.355 597.892C599.176 598.54 599.664 599.181 600.337 599.181H620.603C621.051 599.181 621.446 598.888 621.577 598.46L625.909 584.306C626.11 583.651 625.62 582.989 624.935 582.989Z" fill="#3B82F6" stroke="#3B82F6" stroke-width="0.315328"/>
<path d="M597.32 637.422C597.32 639.742 599.031 641.969 602.359 642.883L601.164 644.945C598.738 644.277 597.016 642.836 596.055 641.031C595.129 643.082 593.371 644.699 590.875 645.461L589.609 643.422C592.938 642.461 594.719 640.023 594.719 637.422V637.328H590.289V635.266H594.719V632.805H597.344V635.266H601.75V637.328H597.32V637.422ZM606.414 632.898V638.078H609.367V640.211H606.414V645.742H603.812V632.898H606.414ZM599.523 646.188C603.93 646.188 606.602 647.617 606.625 650.125C606.602 652.609 603.93 654.039 599.523 654.039C595.07 654.039 592.352 652.609 592.352 650.125C592.352 647.617 595.07 646.188 599.523 646.188ZM599.523 648.203C596.594 648.203 594.953 648.836 594.953 650.125C594.953 651.391 596.594 652.047 599.523 652.047C602.43 652.047 604.047 651.391 604.047 650.125C604.047 648.836 602.43 648.203 599.523 648.203ZM616.244 633.836C618.986 633.812 621.143 635.395 621.682 637.727H625.502V632.898H628.104V644.266H625.502V639.836H621.705C621.178 642.215 618.998 643.82 616.244 643.82C612.986 643.82 610.643 641.734 610.643 638.805C610.643 635.922 612.986 633.812 616.244 633.836ZM616.244 636.016C614.416 636.016 613.127 637.094 613.127 638.805C613.127 640.492 614.416 641.617 616.244 641.617C618.025 641.617 619.291 640.492 619.314 638.805C619.291 637.094 618.025 636.016 616.244 636.016ZM616.713 645.25V647.5H625.502V645.25H628.104V653.828H614.135V645.25H616.713ZM616.713 651.719H625.502V649.516H616.713V651.719ZM654.373 632.922V645.297H651.771V642.953H646.732V640.844H651.771V638.57H646.943C645.596 641.945 642.514 644.301 637.896 645.578L636.842 643.516C641.799 642.168 644.436 639.66 644.857 636.508H637.967V634.398H647.693C647.693 635.137 647.635 635.84 647.506 636.508H651.771V632.922H654.373ZM647.365 645.531C651.654 645.531 654.514 647.148 654.514 649.75C654.514 652.352 651.654 653.969 647.365 653.969C643.029 653.969 640.17 652.352 640.17 649.75C640.17 647.148 643.029 645.531 647.365 645.531ZM647.365 647.57C644.506 647.57 642.771 648.344 642.771 649.75C642.771 651.133 644.506 651.906 647.365 651.906C650.154 651.906 651.912 651.133 651.912 649.75C651.912 648.344 650.154 647.57 647.365 647.57ZM665.328 637.211C665.328 639.836 667.133 642.414 670.508 643.469L669.172 645.508C666.769 644.723 665.023 643.141 664.062 641.125C663.102 643.316 661.309 645.062 658.789 645.93L657.453 643.867C660.852 642.742 662.68 640 662.703 637.211V636.602H658.133V634.516H669.781V636.602H665.328V637.211ZM674.937 632.922V648.297H672.312V632.922H674.937ZM675.523 651.555V653.664H660.922V646.891H663.547V651.555H675.523ZM696.182 632.898V654.086H693.697V643.281H691.307V653.008H688.916V633.297H691.307V641.195H693.697V632.898H696.182ZM686.525 635.406V637.516H681.228V646.938C683.537 646.914 685.435 646.797 687.58 646.398L687.768 648.531C685.213 649.047 682.986 649.117 680.033 649.141H678.603V635.406H686.525ZM716.254 632.898V654.086H713.652V632.898H716.254ZM698.699 648.203C700.387 648.191 702.297 648.191 704.301 648.133V646.188C701.91 645.812 700.363 644.348 700.363 642.344C700.363 639.953 702.473 638.359 705.566 638.359C708.684 638.359 710.84 639.953 710.84 642.344C710.84 644.336 709.281 645.789 706.902 646.164V648.039C708.766 647.957 710.641 647.805 712.41 647.57L712.598 649.516C707.934 650.312 702.894 650.359 699.074 650.359L698.699 648.203ZM712.035 635.336V637.398H699.144V635.336H704.301V632.969H706.902V635.336H712.035ZM705.566 640.352C703.973 640.375 702.824 641.102 702.848 642.344C702.824 643.562 703.973 644.289 705.566 644.266C707.23 644.289 708.332 643.562 708.332 642.344C708.332 641.102 707.23 640.375 705.566 640.352ZM734.414 646.141C739.008 646.164 741.914 647.617 741.937 650.125C741.914 652.586 739.008 654.062 734.414 654.062C729.844 654.062 726.914 652.586 726.914 650.125C726.914 647.617 729.844 646.164 734.414 646.141ZM734.414 648.109C731.367 648.109 729.516 648.836 729.539 650.125C729.516 651.367 731.367 652.047 734.414 652.047C737.484 652.047 739.336 651.367 739.359 650.125C739.336 648.836 737.484 648.109 734.414 648.109ZM741.797 633.906V635.664C741.797 637.328 741.797 639.109 741.211 641.289L738.633 641.055C739.16 638.992 739.195 637.504 739.195 635.969H727.125V633.906H741.797ZM744.141 642.508V644.617H724.922V642.508H732.375V638.664H734.953V642.508H744.141ZM764.892 649.375V651.508H745.533V649.375H753.877V644.758H747.666V634.539H762.666V644.758H756.455V649.375H764.892ZM750.221 636.625V642.719H760.088V636.625H750.221ZM783.933 632.922V648.391H781.332V640.633H777.582V638.523H781.332V632.922H783.933ZM784.473 651.555V653.664H770.035V647.031H772.637V651.555H784.473ZM773.973 637.141C773.973 639.695 775.683 642.32 778.965 643.398L777.652 645.484C775.285 644.676 773.609 643.07 772.683 641.055C771.746 643.293 769.976 645.062 767.48 645.93L766.144 643.82C769.519 642.719 771.324 639.93 771.324 637.117V636.555H766.918V634.445H778.355V636.555H773.973V637.141Z" fill="#18181B"/>
<rect x="737" y="720" width="116" height="35" rx="5" fill="#CBE2FF"/>
<path d="M754.938 731.125C754.938 734.797 752.453 737.344 748.25 738.422L747.562 737.078C750.852 736.227 752.781 734.562 753.078 732.5H748.375V731.125H754.938ZM759.234 730.281V738.188H757.484V730.281H759.234ZM759.234 738.797V744.203H749.906V738.797H759.234ZM751.625 740.172V742.828H757.531V740.172H751.625ZM765.864 733.656C765.848 736.172 767.114 738.734 769.301 739.781L768.239 741.172C766.708 740.398 765.606 738.906 765.004 737.109C764.387 739.031 763.231 740.625 761.614 741.438L760.551 740.047C762.817 738.969 764.114 736.266 764.129 733.656V731.406H765.864V733.656ZM771.879 730.266V735.797H774.051V737.281H771.879V744.391H770.145V730.266H771.879ZM785.306 730.281V733.656H787.29V735.094H785.306V738.766H783.571V730.281H785.306ZM781.149 731.141V735.203H776.446V736.688C778.845 736.672 780.485 736.586 782.415 736.266L782.603 737.656C780.493 738.031 778.665 738.125 775.868 738.109H774.712V733.891H779.446V732.516H774.696V731.141H781.149ZM780.696 739.078C783.603 739.094 785.431 740.078 785.446 741.75C785.431 743.406 783.603 744.359 780.696 744.359C777.728 744.359 775.915 743.406 775.915 741.75C775.915 740.078 777.728 739.094 780.696 739.078ZM780.696 740.438C778.728 740.438 777.603 740.906 777.618 741.75C777.603 742.594 778.728 743.047 780.696 743.047C782.649 743.047 783.728 742.594 783.728 741.75C783.728 740.906 782.649 740.438 780.696 740.438ZM799.154 730.328V738.234H797.685V730.328H799.154ZM789.904 731.141V736.047C792.162 736.031 794.146 735.867 796.248 735.422L796.451 736.656C794.138 737.125 792.029 737.297 789.576 737.297H788.419V731.141H789.904ZM799.154 738.875V744.141H789.982V738.875H799.154ZM791.435 740.047V742.953H797.701V740.047H791.435ZM808.897 731.219C811.116 731.219 812.694 732.578 812.709 734.547C812.694 736.289 811.459 737.555 809.631 737.812V740.031C810.952 739.969 812.295 739.859 813.553 739.672L813.662 740.75C810.491 741.344 807.1 741.359 804.6 741.359L804.412 740.141C805.514 740.141 806.795 740.141 808.147 740.094V737.812C806.334 737.547 805.069 736.281 805.084 734.547C805.069 732.578 806.694 731.219 808.897 731.219ZM808.897 732.5C807.537 732.5 806.537 733.297 806.553 734.547C806.537 735.781 807.537 736.609 808.897 736.594C810.256 736.609 811.256 735.781 811.256 734.547C811.256 733.297 810.256 732.5 808.897 732.5ZM815.912 730.328V744.359H814.428V730.328H815.912ZM821.593 743V741.75L825.515 737.797C826.749 736.5 827.374 735.781 827.374 734.797C827.374 733.688 826.468 732.969 825.281 732.969C824.031 732.969 823.218 733.766 823.218 734.969H821.593C821.577 732.906 823.156 731.531 825.312 731.531C827.499 731.531 828.999 732.906 829.015 734.75C828.999 736.016 828.406 737.016 826.281 739.109L823.984 741.438V741.531H829.202V743H821.593ZM841.816 730.328V738.594H840.332V736.516H837.285V737.656H830.785V731.375H837.285V732.531H840.332V730.328H841.816ZM832.254 732.562V736.469H835.832V732.562H832.254ZM837.129 738.984C840.066 738.984 841.863 739.953 841.863 741.656C841.863 743.344 840.066 744.312 837.129 744.297C834.191 744.312 832.379 743.344 832.394 741.656C832.379 739.953 834.191 738.984 837.129 738.984ZM837.129 740.125C835.082 740.141 833.863 740.672 833.863 741.656C833.863 742.594 835.082 743.156 837.129 743.156C839.176 743.156 840.394 742.594 840.394 741.656C840.394 740.672 839.176 740.141 837.129 740.125ZM837.285 735.312H840.332V733.719H837.285V735.312Z" fill="#60A5FA"/>
<rect x="184" y="241" width="337" height="258" rx="30" fill="#F6FAFF"/>
<circle cx="245" cy="300" r="23" fill="#BFDBFE"/>
<rect x="232.168" y="290.948" width="22.3304" height="20.3821" rx="1.01864" fill="#1E40AF"/>
<rect x="233.324" y="289.549" width="21.1786" height="20.317" rx="0.509318" fill="#DBEAFE"/>
<rect x="234.394" y="289" width="20.109" height="20.317" rx="0.509318" fill="white"/>
<path opacity="0.3" d="M236.853 291.654H250.758" stroke="#93C5FD" stroke-width="0.5" stroke-linecap="round"/>
<path opacity="0.3" d="M236.853 293.759H248.191" stroke="#93C5FD" stroke-width="0.5" stroke-linecap="round"/>
<path d="M236.853 295.864H250.33" stroke="#93C5FD" stroke-width="0.254659"/>
<path d="M236.853 297.237H250.33" stroke="#93C5FD" stroke-width="0.254659"/>
<path d="M236.853 298.609H250.33" stroke="#93C5FD" stroke-width="0.254659"/>
<path d="M257.935 294.989H237.233C236.775 294.989 236.373 295.295 236.251 295.737L232.355 309.892C232.176 310.54 232.664 311.181 233.337 311.181H253.603C254.051 311.181 254.446 310.888 254.577 310.46L258.909 296.306C259.11 295.651 258.62 294.989 257.935 294.989Z" fill="#3B82F6" stroke="#3B82F6" stroke-width="0.315328"/>
<path d="M232.125 346.164C232.125 351.461 229.734 355.164 223.945 357.414L222.773 355.516C225.281 354.59 227.016 353.383 228.117 351.906L223.172 352.422L222.82 350.312L229.148 349.961C229.312 349.434 229.441 348.883 229.523 348.297H223.758V346.164H232.125ZM240.82 344.922V356.664H238.336V351.93H236.109V356.477H233.648V345.32H236.109V349.82H238.336V344.922H240.82ZM229.148 357.531V359.57H238.242V357.531H240.82V365.828H226.523V357.531H229.148ZM229.148 363.766H238.242V361.609H229.148V363.766ZM254.307 347.805C254.307 351.086 257.518 354.367 261.947 355.141L260.775 357.32C257.225 356.57 254.318 354.426 252.947 351.578C251.541 354.402 248.635 356.559 245.096 357.32L243.947 355.141C248.33 354.344 251.518 351.062 251.541 347.805V346.234H254.307V347.805ZM262.721 361.234V363.391H243.361V361.234H262.721ZM283.332 356.664V358.797H263.973V356.664H272.34V354.906H266.457V345.625H281.012V347.641H269.059V349.281H280.496V351.227H269.059V352.914H281.176V354.906H274.941V356.664H283.332ZM281.34 363.555V365.664H266.41V359.945H268.965V363.555H281.34ZM297.883 347.031V364H294.812V350.008H294.719L290.758 352.539V349.75L294.953 347.031H297.883ZM323.543 344.898V350.852H326.519V353.008H323.543V360.227H320.941V344.898H323.543ZM317.215 346.656V348.742H310.301V354.508C314.285 354.52 316.5 354.379 319.019 353.852L319.301 355.961C316.535 356.5 314.051 356.641 309.434 356.641H307.723V346.656H317.215ZM324.387 363.555V365.664H309.973V358.609H312.574V363.555H324.387ZM345.185 344.898V366.086H342.56V344.898H345.185ZM338.857 347.148C338.857 353.453 336.42 358.82 328.99 362.336L327.631 360.25C333.174 357.613 335.752 354.027 336.209 349.211H328.709V347.148H338.857ZM373.119 361.352V363.531H353.76V361.352H373.119ZM371.432 346.867V348.953H368.338V355.703H371.361V357.766H355.424V355.703H358.4V348.953H355.353V346.867H371.432ZM361.002 355.703H365.76V348.953H361.002V355.703ZM393.777 361.469V363.625H374.418V361.469H382.762V358.023H376.715V351.086H388.902V348.461H376.668V346.352H391.48V353.148H379.316V355.891H391.973V358.023H385.34V361.469H393.777ZM409.021 345.344V357.672H406.537V352.328H403.889V350.219H406.537V345.344H409.021ZM401.615 349.445C401.615 351.719 402.881 354.016 405.576 355.094L404.264 357.086C402.389 356.359 401.123 355 400.396 353.359C399.623 355.199 398.275 356.711 396.271 357.531L394.912 355.492C397.748 354.367 399.084 351.859 399.084 349.445V348.602H395.521V346.516H404.967V348.602H401.615V349.445ZM413.193 344.898V357.812H410.709V344.898H413.193ZM413.193 358.656V366.086H410.592V360.742H398.685V358.656H413.193ZM432.961 356.008V358.07H418.101V346.562H432.773V348.672H420.75V351.227H432.281V353.266H420.75V356.008H432.961ZM435.094 361.375V363.508H415.734V361.375H435.094Z" fill="#18181B"/>
<rect x="370" y="432" width="116" height="35" rx="5" fill="#CBE2FF"/>
<path d="M387.938 443.125C387.938 446.797 385.453 449.344 381.25 450.422L380.562 449.078C383.852 448.227 385.781 446.562 386.078 444.5H381.375V443.125H387.938ZM392.234 442.281V450.188H390.484V442.281H392.234ZM392.234 450.797V456.203H382.906V450.797H392.234ZM384.625 452.172V454.828H390.531V452.172H384.625ZM398.864 445.656C398.848 448.172 400.114 450.734 402.301 451.781L401.239 453.172C399.708 452.398 398.606 450.906 398.004 449.109C397.387 451.031 396.231 452.625 394.614 453.438L393.551 452.047C395.817 450.969 397.114 448.266 397.129 445.656V443.406H398.864V445.656ZM404.879 442.266V447.797H407.051V449.281H404.879V456.391H403.145V442.266H404.879ZM418.306 442.281V445.656H420.29V447.094H418.306V450.766H416.571V442.281H418.306ZM414.149 443.141V447.203H409.446V448.688C411.845 448.672 413.485 448.586 415.415 448.266L415.603 449.656C413.493 450.031 411.665 450.125 408.868 450.109H407.712V445.891H412.446V444.516H407.696V443.141H414.149ZM413.696 451.078C416.603 451.094 418.431 452.078 418.446 453.75C418.431 455.406 416.603 456.359 413.696 456.359C410.728 456.359 408.915 455.406 408.915 453.75C408.915 452.078 410.728 451.094 413.696 451.078ZM413.696 452.438C411.728 452.438 410.603 452.906 410.618 453.75C410.603 454.594 411.728 455.047 413.696 455.047C415.649 455.047 416.728 454.594 416.728 453.75C416.728 452.906 415.649 452.438 413.696 452.438ZM432.154 442.328V450.234H430.685V442.328H432.154ZM422.904 443.141V448.047C425.162 448.031 427.146 447.867 429.248 447.422L429.451 448.656C427.138 449.125 425.029 449.297 422.576 449.297H421.419V443.141H422.904ZM432.154 450.875V456.141H422.982V450.875H432.154ZM424.435 452.047V454.953H430.701V452.047H424.435ZM441.897 443.219C444.116 443.219 445.694 444.578 445.709 446.547C445.694 448.289 444.459 449.555 442.631 449.812V452.031C443.952 451.969 445.295 451.859 446.553 451.672L446.662 452.75C443.491 453.344 440.1 453.359 437.6 453.359L437.412 452.141C438.514 452.141 439.795 452.141 441.147 452.094V449.812C439.334 449.547 438.069 448.281 438.084 446.547C438.069 444.578 439.694 443.219 441.897 443.219ZM441.897 444.5C440.537 444.5 439.537 445.297 439.553 446.547C439.537 447.781 440.537 448.609 441.897 448.594C443.256 448.609 444.256 447.781 444.256 446.547C444.256 445.297 443.256 444.5 441.897 444.5ZM448.912 442.328V456.359H447.428V442.328H448.912ZM454.593 455V453.75L458.515 449.797C459.749 448.5 460.374 447.781 460.374 446.797C460.374 445.688 459.468 444.969 458.281 444.969C457.031 444.969 456.218 445.766 456.218 446.969H454.593C454.577 444.906 456.156 443.531 458.312 443.531C460.499 443.531 461.999 444.906 462.015 446.75C461.999 448.016 461.406 449.016 459.281 451.109L456.984 453.438V453.531H462.202V455H454.593ZM474.816 442.328V450.594H473.332V448.516H470.285V449.656H463.785V443.375H470.285V444.531H473.332V442.328H474.816ZM465.254 444.562V448.469H468.832V444.562H465.254ZM470.129 450.984C473.066 450.984 474.863 451.953 474.863 453.656C474.863 455.344 473.066 456.312 470.129 456.297C467.191 456.312 465.379 455.344 465.394 453.656C465.379 451.953 467.191 450.984 470.129 450.984ZM470.129 452.125C468.082 452.141 466.863 452.672 466.863 453.656C466.863 454.594 468.082 455.156 470.129 455.156C472.176 455.156 473.394 454.594 473.394 453.656C473.394 452.672 472.176 452.141 470.129 452.125ZM470.285 447.312H473.332V445.719H470.285V447.312Z" fill="#60A5FA"/>
<rect x="184" y="529" width="337" height="258" rx="30" fill="#FAFAFA"/>
<circle cx="245" cy="588" r="23" fill="#E2E8F0"/>
<rect x="232.168" y="578.948" width="22.3304" height="20.3821" rx="1.01864" fill="#71717A"/>
<path d="M257.935 582.989H237.233C236.775 582.989 236.373 583.295 236.251 583.737L232.355 597.892C232.176 598.54 232.664 599.181 233.337 599.181H253.603C254.051 599.181 254.446 598.888 254.577 598.46L258.909 584.306C259.11 583.651 258.62 582.989 257.935 582.989Z" fill="#AFAFC1" stroke="#AFAFC1" stroke-width="0.315328"/>
<path d="M240.938 632.898V654.086H238.453V632.898H240.938ZM236.625 633.297V653.055H234.164V642.391H231.117V640.281H234.164V633.297H236.625ZM229.242 638.688C229.242 642.273 230.531 645.859 233.555 647.594L232.008 649.516C230.051 648.344 228.75 646.328 228.023 643.914C227.273 646.527 225.926 648.754 223.922 650.008L222.328 648.062C225.398 646.211 226.734 642.367 226.734 638.688V637.281H223.055V635.172H232.664V637.281H229.242V638.688ZM262.674 642.93V645.016H254.283V647.055H260.33V653.828H245.635V647.055H251.705V645.016H243.361V642.93H262.674ZM260.893 633.531V635.617H257.986V639.25H260.775V641.359H245.213V639.25H248.002V635.617H245.096V633.531H260.893ZM248.213 649.07V651.719H257.799V649.07H248.213ZM250.604 639.25H255.361V635.617H250.604V639.25ZM281.645 632.898V654.109H279.02V632.898H281.645ZM275.551 634.82V636.953H267.957V646.797C271.859 646.785 274.309 646.668 277.121 646.164L277.379 648.32C274.355 648.883 271.613 649 267.137 649H265.332V634.82H275.551ZM292.271 638.922C292.271 642.203 294.217 645.93 297.568 647.477L296.115 649.539C293.725 648.414 291.955 646.141 291.006 643.492C290.045 646.398 288.193 648.883 285.756 650.055L284.232 648.016C287.607 646.422 289.646 642.438 289.67 638.922V637.141H285.053V634.984H296.701V637.141H292.271V638.922ZM301.271 632.898V641.148H304.529V643.328H301.271V654.086H298.67V632.898H301.271ZM322.984 632.922V648.227H320.359V632.922H322.984ZM323.57 651.555V653.664H308.969V646.68H311.594V651.555H323.57ZM311.43 634.305C314.641 634.305 317.125 636.531 317.125 639.602C317.125 642.742 314.641 644.922 311.43 644.922C308.195 644.922 305.711 642.742 305.711 639.602C305.711 636.531 308.195 634.305 311.43 634.305ZM311.43 636.578C309.625 636.578 308.242 637.773 308.266 639.602C308.242 641.477 309.625 642.648 311.43 642.648C313.187 642.648 314.57 641.477 314.57 639.602C314.57 637.773 313.187 636.578 311.43 636.578ZM343.689 632.898V654.086H341.064V632.898H343.689ZM337.361 635.148C337.361 641.453 334.924 646.82 327.494 650.336L326.135 648.25C331.678 645.613 334.256 642.027 334.713 637.211H327.213V635.148H337.361ZM366.012 649.445V651.578H346.652V649.445H355.019V645.062H357.598V649.445H366.012ZM364.277 635.969V638.078H357.668C357.844 640.715 360.598 643.141 365.168 643.75L364.207 645.789C360.539 645.273 357.715 643.645 356.309 641.312C354.902 643.645 352.101 645.273 348.434 645.789L347.449 643.75C352.043 643.141 354.785 640.715 354.996 638.078H348.363V635.969H355.019V633.227H357.598V635.969H364.277ZM380.516 635.031V652H377.445V638.008H377.351L373.391 640.539V637.75L377.586 635.031H380.516ZM400.879 634.141V636.25H393.285V638.219H400.269V640.258H393.285V642.344C397.246 642.332 399.66 642.262 402.449 641.805L402.707 643.844C399.66 644.383 397.012 644.43 392.441 644.406H390.637V634.141H400.879ZM407.113 632.922V645.508H404.488V632.922H407.113ZM407.113 646.445V653.828H393.051V646.445H407.113ZM395.629 648.461V651.719H404.558V648.461H395.629ZM427.654 633.508V635.477H424.748V638.688H427.537V640.656H411.974V638.688H414.764V635.477H411.857V633.508H427.654ZM429.435 641.992V644.055H410.123V641.992H429.435ZM427.021 645.484V650.523H414.974V651.953H427.607V653.898H412.42V648.719H424.467V647.383H412.396V645.484H427.021ZM417.365 638.688H422.123V635.477H417.365V638.688Z" fill="#18181B"/>
<rect x="370" y="720" width="116" height="35" rx="5" fill="#F3F0F0"/>
<path d="M387.938 731.125C387.938 734.797 385.453 737.344 381.25 738.422L380.562 737.078C383.852 736.227 385.781 734.562 386.078 732.5H381.375V731.125H387.938ZM392.234 730.281V738.188H390.484V730.281H392.234ZM392.234 738.797V744.203H382.906V738.797H392.234ZM384.625 740.172V742.828H390.531V740.172H384.625ZM398.864 733.656C398.848 736.172 400.114 738.734 402.301 739.781L401.239 741.172C399.708 740.398 398.606 738.906 398.004 737.109C397.387 739.031 396.231 740.625 394.614 741.438L393.551 740.047C395.817 738.969 397.114 736.266 397.129 733.656V731.406H398.864V733.656ZM404.879 730.266V735.797H407.051V737.281H404.879V744.391H403.145V730.266H404.879ZM418.306 730.281V733.656H420.29V735.094H418.306V738.766H416.571V730.281H418.306ZM414.149 731.141V735.203H409.446V736.688C411.845 736.672 413.485 736.586 415.415 736.266L415.603 737.656C413.493 738.031 411.665 738.125 408.868 738.109H407.712V733.891H412.446V732.516H407.696V731.141H414.149ZM413.696 739.078C416.603 739.094 418.431 740.078 418.446 741.75C418.431 743.406 416.603 744.359 413.696 744.359C410.728 744.359 408.915 743.406 408.915 741.75C408.915 740.078 410.728 739.094 413.696 739.078ZM413.696 740.438C411.728 740.438 410.603 740.906 410.618 741.75C410.603 742.594 411.728 743.047 413.696 743.047C415.649 743.047 416.728 742.594 416.728 741.75C416.728 740.906 415.649 740.438 413.696 740.438ZM432.154 730.328V738.234H430.685V730.328H432.154ZM422.904 731.141V736.047C425.162 736.031 427.146 735.867 429.248 735.422L429.451 736.656C427.138 737.125 425.029 737.297 422.576 737.297H421.419V731.141H422.904ZM432.154 738.875V744.141H422.982V738.875H432.154ZM424.435 740.047V742.953H430.701V740.047H424.435ZM441.897 731.219C444.116 731.219 445.694 732.578 445.709 734.547C445.694 736.289 444.459 737.555 442.631 737.812V740.031C443.952 739.969 445.295 739.859 446.553 739.672L446.662 740.75C443.491 741.344 440.1 741.359 437.6 741.359L437.412 740.141C438.514 740.141 439.795 740.141 441.147 740.094V737.812C439.334 737.547 438.069 736.281 438.084 734.547C438.069 732.578 439.694 731.219 441.897 731.219ZM441.897 732.5C440.537 732.5 439.537 733.297 439.553 734.547C439.537 735.781 440.537 736.609 441.897 736.594C443.256 736.609 444.256 735.781 444.256 734.547C444.256 733.297 443.256 732.5 441.897 732.5ZM448.912 730.328V744.359H447.428V730.328H448.912ZM454.593 743V741.75L458.515 737.797C459.749 736.5 460.374 735.781 460.374 734.797C460.374 733.688 459.468 732.969 458.281 732.969C457.031 732.969 456.218 733.766 456.218 734.969H454.593C454.577 732.906 456.156 731.531 458.312 731.531C460.499 731.531 461.999 732.906 462.015 734.75C461.999 736.016 461.406 737.016 459.281 739.109L456.984 741.438V741.531H462.202V743H454.593ZM474.816 730.328V738.594H473.332V736.516H470.285V737.656H463.785V731.375H470.285V732.531H473.332V730.328H474.816ZM465.254 732.562V736.469H468.832V732.562H465.254ZM470.129 738.984C473.066 738.984 474.863 739.953 474.863 741.656C474.863 743.344 473.066 744.312 470.129 744.297C467.191 744.312 465.379 743.344 465.394 741.656C465.379 739.953 467.191 738.984 470.129 738.984ZM470.129 740.125C468.082 740.141 466.863 740.672 466.863 741.656C466.863 742.594 468.082 743.156 470.129 743.156C472.176 743.156 473.394 742.594 473.394 741.656C473.394 740.672 472.176 740.141 470.129 740.125ZM470.285 735.312H473.332V733.719H470.285V735.312Z" fill="#71717A"/>
<rect x="918" y="241" width="337" height="258" rx="30" fill="#F6FAFF"/>
<circle cx="979" cy="300" r="23" fill="#BFDBFE"/>
<rect x="966.168" y="290.948" width="22.3304" height="20.3821" rx="1.01864" fill="#1E40AF"/>
<rect x="967.324" y="289.549" width="21.1786" height="20.317" rx="0.509318" fill="#DBEAFE"/>
<rect x="968.394" y="289" width="20.109" height="20.317" rx="0.509318" fill="white"/>
<path opacity="0.3" d="M970.853 291.654H984.758" stroke="#93C5FD" stroke-width="0.5" stroke-linecap="round"/>
<path opacity="0.3" d="M970.853 293.759H982.191" stroke="#93C5FD" stroke-width="0.5" stroke-linecap="round"/>
<path d="M970.853 295.864H984.33" stroke="#93C5FD" stroke-width="0.254659"/>
<path d="M970.853 297.237H984.33" stroke="#93C5FD" stroke-width="0.254659"/>
<path d="M970.853 298.609H984.33" stroke="#93C5FD" stroke-width="0.254659"/>
<path d="M991.935 294.989H971.233C970.775 294.989 970.373 295.295 970.251 295.737L966.355 309.892C966.176 310.54 966.664 311.181 967.337 311.181H987.603C988.051 311.181 988.446 310.888 988.577 310.46L992.909 296.306C993.11 295.651 992.62 294.989 991.935 294.989Z" fill="#3B82F6" stroke="#3B82F6" stroke-width="0.315328"/>
<path d="M968.117 346.141V348.25H960.523V350.219H967.508V352.258H960.523V354.344C964.484 354.332 966.898 354.262 969.688 353.805L969.945 355.844C966.898 356.383 964.25 356.43 959.68 356.406H957.875V346.141H968.117ZM974.352 344.922V357.508H971.727V344.922H974.352ZM974.352 358.445V365.828H960.289V358.445H974.352ZM962.867 360.461V363.719H971.797V360.461H962.867ZM996.721 361.375V363.508H977.361V361.375H985.705V356.758H979.494V346.539H994.494V356.758H988.283V361.375H996.721ZM982.049 348.625V354.719H991.916V348.625H982.049ZM1015.67 344.922V356.922H1013.04V344.922H1015.67ZM1015.67 357.953V365.828H1001.61V357.953H1015.67ZM1004.18 360.016V363.719H1013.11V360.016H1004.18ZM1004.11 345.93C1007.37 345.93 1009.81 347.992 1009.81 350.992C1009.81 353.898 1007.37 356.008 1004.11 356.008C1000.83 356.008 998.395 353.898 998.395 350.992C998.395 347.992 1000.83 345.93 1004.11 345.93ZM1004.11 348.133C1002.26 348.133 1000.93 349.234 1000.95 350.992C1000.93 352.703 1002.26 353.805 1004.11 353.805C1005.94 353.805 1007.25 352.703 1007.25 350.992C1007.25 349.234 1005.94 348.133 1004.11 348.133ZM1025.16 347.031H1028.91L1033.95 359.359H1034.16L1039.2 347.031H1042.95V364H1040.02V352.328H1039.85L1035.14 363.953H1032.96L1028.25 352.281H1028.11V364H1025.16V347.031ZM1045.25 349.586V347.031H1058.78V349.586H1053.55V364H1050.5V349.586H1045.25ZM1083.47 344.898V366.086H1080.87V344.898H1083.47ZM1065.92 360.203C1067.61 360.191 1069.52 360.191 1071.52 360.133V358.188C1069.13 357.812 1067.58 356.348 1067.58 354.344C1067.58 351.953 1069.69 350.359 1072.79 350.359C1075.9 350.359 1078.06 351.953 1078.06 354.344C1078.06 356.336 1076.5 357.789 1074.12 358.164V360.039C1075.99 359.957 1077.86 359.805 1079.63 359.57L1079.82 361.516C1075.15 362.312 1070.12 362.359 1066.29 362.359L1065.92 360.203ZM1079.26 347.336V349.398H1066.37V347.336H1071.52V344.969H1074.12V347.336H1079.26ZM1072.79 352.352C1071.19 352.375 1070.04 353.102 1070.07 354.344C1070.04 355.562 1071.19 356.289 1072.79 356.266C1074.45 356.289 1075.55 355.562 1075.55 354.344C1075.55 353.102 1074.45 352.375 1072.79 352.352ZM1093.35 346.375C1096.7 346.352 1099.16 348.484 1099.19 351.484C1099.16 354.508 1096.7 356.617 1093.35 356.617C1090.02 356.617 1087.54 354.508 1087.54 351.484C1087.54 348.484 1090.02 346.352 1093.35 346.375ZM1093.35 348.625C1091.5 348.625 1090.12 349.727 1090.12 351.484C1090.12 353.266 1091.5 354.344 1093.35 354.344C1095.23 354.344 1096.63 353.266 1096.63 351.484C1096.63 349.727 1095.23 348.625 1093.35 348.625ZM1104.13 344.898V366.109H1101.53V344.898H1104.13ZM1086.58 359.547C1090.4 359.547 1095.7 359.5 1100.27 358.844L1100.48 360.742C1095.72 361.656 1090.63 361.68 1086.91 361.68L1086.58 359.547Z" fill="#18181B"/>
<rect x="1104" y="432" width="116" height="35" rx="5" fill="#CBE2FF"/>
<path d="M1121.94 443.125C1121.94 446.797 1119.45 449.344 1115.25 450.422L1114.56 449.078C1117.85 448.227 1119.78 446.562 1120.08 444.5H1115.38V443.125H1121.94ZM1126.23 442.281V450.188H1124.48V442.281H1126.23ZM1126.23 450.797V456.203H1116.91V450.797H1126.23ZM1118.62 452.172V454.828H1124.53V452.172H1118.62ZM1132.86 445.656C1132.85 448.172 1134.11 450.734 1136.3 451.781L1135.24 453.172C1133.71 452.398 1132.61 450.906 1132 449.109C1131.39 451.031 1130.23 452.625 1128.61 453.438L1127.55 452.047C1129.82 450.969 1131.11 448.266 1131.13 445.656V443.406H1132.86V445.656ZM1138.88 442.266V447.797H1141.05V449.281H1138.88V456.391H1137.15V442.266H1138.88ZM1152.31 442.281V445.656H1154.29V447.094H1152.31V450.766H1150.57V442.281H1152.31ZM1148.15 443.141V447.203H1143.45V448.688C1145.84 448.672 1147.49 448.586 1149.42 448.266L1149.6 449.656C1147.49 450.031 1145.67 450.125 1142.87 450.109H1141.71V445.891H1146.45V444.516H1141.7V443.141H1148.15ZM1147.7 451.078C1150.6 451.094 1152.43 452.078 1152.45 453.75C1152.43 455.406 1150.6 456.359 1147.7 456.359C1144.73 456.359 1142.92 455.406 1142.92 453.75C1142.92 452.078 1144.73 451.094 1147.7 451.078ZM1147.7 452.438C1145.73 452.438 1144.6 452.906 1144.62 453.75C1144.6 454.594 1145.73 455.047 1147.7 455.047C1149.65 455.047 1150.73 454.594 1150.73 453.75C1150.73 452.906 1149.65 452.438 1147.7 452.438ZM1166.15 442.328V450.234H1164.69V442.328H1166.15ZM1156.9 443.141V448.047C1159.16 448.031 1161.15 447.867 1163.25 447.422L1163.45 448.656C1161.14 449.125 1159.03 449.297 1156.58 449.297H1155.42V443.141H1156.9ZM1166.15 450.875V456.141H1156.98V450.875H1166.15ZM1158.44 452.047V454.953H1164.7V452.047H1158.44ZM1175.9 443.219C1178.12 443.219 1179.69 444.578 1179.71 446.547C1179.69 448.289 1178.46 449.555 1176.63 449.812V452.031C1177.95 451.969 1179.3 451.859 1180.55 451.672L1180.66 452.75C1177.49 453.344 1174.1 453.359 1171.6 453.359L1171.41 452.141C1172.51 452.141 1173.8 452.141 1175.15 452.094V449.812C1173.33 449.547 1172.07 448.281 1172.08 446.547C1172.07 444.578 1173.69 443.219 1175.9 443.219ZM1175.9 444.5C1174.54 444.5 1173.54 445.297 1173.55 446.547C1173.54 447.781 1174.54 448.609 1175.9 448.594C1177.26 448.609 1178.26 447.781 1178.26 446.547C1178.26 445.297 1177.26 444.5 1175.9 444.5ZM1182.91 442.328V456.359H1181.43V442.328H1182.91ZM1188.59 455V453.75L1192.51 449.797C1193.75 448.5 1194.37 447.781 1194.37 446.797C1194.37 445.688 1193.47 444.969 1192.28 444.969C1191.03 444.969 1190.22 445.766 1190.22 446.969H1188.59C1188.58 444.906 1190.16 443.531 1192.31 443.531C1194.5 443.531 1196 444.906 1196.01 446.75C1196 448.016 1195.41 449.016 1193.28 451.109L1190.98 453.438V453.531H1196.2V455H1188.59ZM1208.82 442.328V450.594H1207.33V448.516H1204.29V449.656H1197.79V443.375H1204.29V444.531H1207.33V442.328H1208.82ZM1199.25 444.562V448.469H1202.83V444.562H1199.25ZM1204.13 450.984C1207.07 450.984 1208.86 451.953 1208.86 453.656C1208.86 455.344 1207.07 456.312 1204.13 456.297C1201.19 456.312 1199.38 455.344 1199.39 453.656C1199.38 451.953 1201.19 450.984 1204.13 450.984ZM1204.13 452.125C1202.08 452.141 1200.86 452.672 1200.86 453.656C1200.86 454.594 1202.08 455.156 1204.13 455.156C1206.18 455.156 1207.39 454.594 1207.39 453.656C1207.39 452.672 1206.18 452.141 1204.13 452.125ZM1204.29 447.312H1207.33V445.719H1204.29V447.312Z" fill="#60A5FA"/>
<rect x="918" y="529" width="337" height="258" rx="30" fill="#F8FAFC"/>
<circle cx="979" cy="588" r="23" fill="#E4E4E7"/>
<rect x="966.168" y="578.948" width="22.3304" height="20.3821" rx="1.01864" fill="#71717A"/>
<rect x="967.324" y="577.549" width="21.1786" height="20.317" rx="0.509318" fill="#FAFAFA"/>
<rect x="968.394" y="577" width="20.109" height="20.317" rx="0.509318" fill="white"/>
<path opacity="0.3" d="M970.853 579.654H984.758" stroke="#D4D4D8" stroke-width="0.5" stroke-linecap="round"/>
<path opacity="0.3" d="M970.853 581.759H982.191" stroke="#D4D4D8" stroke-width="0.5" stroke-linecap="round"/>
<path d="M970.853 583.864H984.33" stroke="#D4D4D8" stroke-width="0.254659"/>
<path d="M970.853 585.237H984.33" stroke="#D4D4D8" stroke-width="0.254659"/>
<path d="M970.853 586.609H984.33" stroke="#D4D4D8" stroke-width="0.254659"/>
<path d="M991.935 582.989H971.233C970.775 582.989 970.373 583.295 970.251 583.737L966.355 597.892C966.176 598.54 966.664 599.181 967.337 599.181H987.603C988.051 599.181 988.446 598.888 988.577 598.46L992.909 584.306C993.11 583.651 992.62 582.989 991.935 582.989Z" fill="#D4D4D8" stroke="#E4E4E7" stroke-width="0.315328"/>
<path d="M976.016 641.5V643.562H967.625V645.156H973.602V650.359H961.555V651.906H974.188V653.898H959V648.484H971.047V647.125H958.977V645.156H965.023V643.562H956.703V641.5H976.016ZM973.531 633.555V640.164H959.141V633.555H973.531ZM961.695 635.594V638.125H970.93V635.594H961.695ZM995.01 632.898V654.109H992.432V632.898H995.01ZM988.494 634.75V642.695H981.205V646.961C984.545 646.938 987.428 646.773 990.721 646.211L990.955 648.344C987.346 648.977 984.182 649.094 980.385 649.094H978.533V640.633H985.846V636.859H978.51V634.75H988.494ZM1010.61 634.938V637H998.043V634.938H1003.04V632.805H1005.64V634.938H1010.61ZM1004.32 637.82C1007.39 637.82 1009.48 639.367 1009.5 641.688C1009.48 644.008 1007.39 645.555 1004.32 645.555C1001.25 645.555 999.121 644.008 999.121 641.688C999.121 639.367 1001.25 637.82 1004.32 637.82ZM1004.32 639.789C1002.71 639.789 1001.65 640.492 1001.65 641.688C1001.65 642.883 1002.71 643.562 1004.32 643.539C1005.94 643.562 1007.02 642.883 1007.02 641.688C1007.02 640.492 1005.94 639.789 1004.32 639.789ZM1014.73 632.898V638.523H1017.68V640.656H1014.73V646.164H1012.13V632.898H1014.73ZM1014.73 647.148V654.086H1012.13V649.234H1000.62V647.148H1014.73ZM1036.87 632.898V654.086H1034.36V643.211H1032.08V653.102H1029.65V633.461H1032.08V641.102H1034.36V632.898H1036.87ZM1027.84 635.57C1027.84 641.289 1026.04 646.211 1020.01 649.656L1018.51 647.852C1023.03 645.238 1024.94 641.887 1025.31 637.656H1019.5V635.57H1027.84ZM1058.67 644.734V646.844H1039.31V644.734H1047.7V642.883H1041.77V637.258H1053.68V635.477H1041.7V633.438H1056.28V639.109H1044.35V640.867H1056.7V642.883H1050.28V644.734H1058.67ZM1056.75 651.977V654.086H1041.8V648.016H1044.42V651.977H1056.75ZM1083.21 632.898V643.703H1080.63V632.898H1083.21ZM1083.25 644.688V650.195H1071.79V651.836H1083.89V653.898H1069.24V648.25H1080.65V646.703H1069.19V644.688H1083.25ZM1073.5 635.055C1073.5 637.75 1075.29 640.281 1078.64 641.289L1077.37 643.305C1074.91 642.555 1073.15 640.973 1072.19 638.945C1071.23 641.148 1069.43 642.871 1066.89 643.68L1065.58 641.641C1069 640.539 1070.81 637.82 1070.81 635.055V633.414H1073.5V635.055ZM1104.01 632.898V645.719H1101.4V641.336H1098.38V639.18H1101.4V632.898H1104.01ZM1104.01 646.68V653.828H1089.92V646.68H1104.01ZM1092.52 648.742V651.719H1101.45V648.742H1092.52ZM1098.73 634.867V636.977H1086.31V634.867H1091.23V632.734H1093.81V634.867H1098.73ZM1092.52 637.797C1095.47 637.797 1097.54 639.367 1097.56 641.594C1097.54 643.891 1095.47 645.391 1092.52 645.391C1089.59 645.391 1087.51 643.891 1087.51 641.594C1087.51 639.367 1089.59 637.797 1092.52 637.797ZM1092.52 639.766C1091 639.766 1089.99 640.469 1089.99 641.594C1089.99 642.766 1091 643.445 1092.52 643.445C1094.04 643.445 1095.05 642.766 1095.05 641.594C1095.05 640.469 1094.04 639.766 1092.52 639.766Z" fill="#18181B"/>
<rect x="1104" y="720" width="116" height="35" rx="5" fill="#F3F0F0"/>
<path d="M1121.94 731.125C1121.94 734.797 1119.45 737.344 1115.25 738.422L1114.56 737.078C1117.85 736.227 1119.78 734.562 1120.08 732.5H1115.38V731.125H1121.94ZM1126.23 730.281V738.188H1124.48V730.281H1126.23ZM1126.23 738.797V744.203H1116.91V738.797H1126.23ZM1118.62 740.172V742.828H1124.53V740.172H1118.62ZM1132.86 733.656C1132.85 736.172 1134.11 738.734 1136.3 739.781L1135.24 741.172C1133.71 740.398 1132.61 738.906 1132 737.109C1131.39 739.031 1130.23 740.625 1128.61 741.438L1127.55 740.047C1129.82 738.969 1131.11 736.266 1131.13 733.656V731.406H1132.86V733.656ZM1138.88 730.266V735.797H1141.05V737.281H1138.88V744.391H1137.15V730.266H1138.88ZM1152.31 730.281V733.656H1154.29V735.094H1152.31V738.766H1150.57V730.281H1152.31ZM1148.15 731.141V735.203H1143.45V736.688C1145.84 736.672 1147.49 736.586 1149.42 736.266L1149.6 737.656C1147.49 738.031 1145.67 738.125 1142.87 738.109H1141.71V733.891H1146.45V732.516H1141.7V731.141H1148.15ZM1147.7 739.078C1150.6 739.094 1152.43 740.078 1152.45 741.75C1152.43 743.406 1150.6 744.359 1147.7 744.359C1144.73 744.359 1142.92 743.406 1142.92 741.75C1142.92 740.078 1144.73 739.094 1147.7 739.078ZM1147.7 740.438C1145.73 740.438 1144.6 740.906 1144.62 741.75C1144.6 742.594 1145.73 743.047 1147.7 743.047C1149.65 743.047 1150.73 742.594 1150.73 741.75C1150.73 740.906 1149.65 740.438 1147.7 740.438ZM1166.15 730.328V738.234H1164.69V730.328H1166.15ZM1156.9 731.141V736.047C1159.16 736.031 1161.15 735.867 1163.25 735.422L1163.45 736.656C1161.14 737.125 1159.03 737.297 1156.58 737.297H1155.42V731.141H1156.9ZM1166.15 738.875V744.141H1156.98V738.875H1166.15ZM1158.44 740.047V742.953H1164.7V740.047H1158.44ZM1175.9 731.219C1178.12 731.219 1179.69 732.578 1179.71 734.547C1179.69 736.289 1178.46 737.555 1176.63 737.812V740.031C1177.95 739.969 1179.3 739.859 1180.55 739.672L1180.66 740.75C1177.49 741.344 1174.1 741.359 1171.6 741.359L1171.41 740.141C1172.51 740.141 1173.8 740.141 1175.15 740.094V737.812C1173.33 737.547 1172.07 736.281 1172.08 734.547C1172.07 732.578 1173.69 731.219 1175.9 731.219ZM1175.9 732.5C1174.54 732.5 1173.54 733.297 1173.55 734.547C1173.54 735.781 1174.54 736.609 1175.9 736.594C1177.26 736.609 1178.26 735.781 1178.26 734.547C1178.26 733.297 1177.26 732.5 1175.9 732.5ZM1182.91 730.328V744.359H1181.43V730.328H1182.91ZM1188.59 743V741.75L1192.51 737.797C1193.75 736.5 1194.37 735.781 1194.37 734.797C1194.37 733.688 1193.47 732.969 1192.28 732.969C1191.03 732.969 1190.22 733.766 1190.22 734.969H1188.59C1188.58 732.906 1190.16 731.531 1192.31 731.531C1194.5 731.531 1196 732.906 1196.01 734.75C1196 736.016 1195.41 737.016 1193.28 739.109L1190.98 741.438V741.531H1196.2V743H1188.59ZM1208.82 730.328V738.594H1207.33V736.516H1204.29V737.656H1197.79V731.375H1204.29V732.531H1207.33V730.328H1208.82ZM1199.25 732.562V736.469H1202.83V732.562H1199.25ZM1204.13 738.984C1207.07 738.984 1208.86 739.953 1208.86 741.656C1208.86 743.344 1207.07 744.312 1204.13 744.297C1201.19 744.312 1199.38 743.344 1199.39 741.656C1199.38 739.953 1201.19 738.984 1204.13 738.984ZM1204.13 740.125C1202.08 740.141 1200.86 740.672 1200.86 741.656C1200.86 742.594 1202.08 743.156 1204.13 743.156C1206.18 743.156 1207.39 742.594 1207.39 741.656C1207.39 740.672 1206.18 740.141 1204.13 740.125ZM1204.29 735.312H1207.33V733.719H1204.29V735.312Z" fill="#71717A"/>
<rect x="983" y="837" width="123" height="58" rx="10" fill="#FAFAFA"/>
<path d="M1010.82 870.119V871.525H996.402V870.119H1010.82ZM1009.5 859.256V860.627H1007.09V865.883H1009.44V867.219H997.668V865.883H1000.02V860.627H997.632V859.256H1009.5ZM1001.68 865.883H1005.45V860.627H1001.68V865.883ZM1026.31 870.207V871.613H1011.9V870.207H1018.24V867.447H1013.65V862.438H1022.9V860.223H1013.62V858.852H1024.55V863.773H1015.31V866.076H1024.92V867.447H1019.89V870.207H1026.31ZM1037.73 858.078V867.236H1036.14V863.105H1033.95V861.752H1036.14V858.078H1037.73ZM1032.15 861.119C1032.15 862.824 1033.19 864.6 1035.19 865.426L1034.35 866.709C1032.92 866.12 1031.93 865.03 1031.38 863.738C1030.82 865.188 1029.78 866.41 1028.25 867.061L1027.35 865.742C1029.45 864.898 1030.54 862.947 1030.54 861.119V860.346H1027.74V858.992H1034.79V860.346H1032.15V861.119ZM1040.82 857.744V867.359H1039.24V857.744H1040.82ZM1040.82 868.01V873.494H1039.17V869.363H1030.11V868.01H1040.82ZM1055.66 866.129V867.465H1044.69V859.045H1055.5V860.398H1046.38V862.525H1055.17V863.844H1046.38V866.129H1055.66ZM1057.3 870.137V871.508H1042.88V870.137H1057.3ZM1068.23 860.996C1068.23 862.824 1069.65 864.512 1072.06 865.197L1071.29 866.498C1069.47 865.962 1068.12 864.854 1067.42 863.422C1066.73 865.004 1065.35 866.226 1063.48 866.797L1062.67 865.496C1065.08 864.793 1066.58 862.982 1066.58 860.996V860.838H1063.15V859.502H1066.58V857.674H1068.25V859.502H1071.66V860.838H1068.23V860.996ZM1075.08 857.744V861.646H1077.37V863.035H1075.08V867.043H1073.41V857.744H1075.08ZM1075.08 867.746V873.301H1065.03V867.746H1075.08ZM1066.66 869.064V871.947H1073.43V869.064H1066.66ZM1082.47 858.922C1083.91 858.922 1085.09 859.748 1085.8 861.172H1089.68V857.744H1091.33V873.529H1089.68V867.482H1085.9C1085.22 869.064 1083.98 869.979 1082.47 869.979C1080.12 869.979 1078.47 867.834 1078.48 864.441C1078.47 861.066 1080.12 858.922 1082.47 858.922ZM1082.47 860.416C1081.05 860.416 1080.06 861.963 1080.06 864.441C1080.06 866.938 1081.05 868.484 1082.47 868.484C1083.9 868.484 1084.88 866.938 1084.88 864.441C1084.88 861.963 1083.9 860.416 1082.47 860.416ZM1086.27 862.543C1086.38 863.123 1086.46 863.756 1086.46 864.441C1086.46 865.039 1086.41 865.593 1086.31 866.111H1089.68V862.543H1086.27Z" fill="#5B8AD6"/>
<rect x="1130" y="837" width="125" height="58" rx="10" fill="#5B8AD6"/>
<path d="M1158.82 870.119V871.525H1144.4V870.119H1158.82ZM1157.5 859.256V860.627H1155.09V865.883H1157.44V867.219H1145.67V865.883H1148.02V860.627H1145.63V859.256H1157.5ZM1149.68 865.883H1153.45V860.627H1149.68V865.883ZM1174.31 870.207V871.613H1159.9V870.207H1166.24V867.447H1161.65V862.438H1170.9V860.223H1161.62V858.852H1172.55V863.773H1163.31V866.076H1172.92V867.447H1167.89V870.207H1174.31ZM1185.73 858.078V867.236H1184.14V863.105H1181.95V861.752H1184.14V858.078H1185.73ZM1180.15 861.119C1180.15 862.824 1181.19 864.6 1183.19 865.426L1182.35 866.709C1180.92 866.12 1179.93 865.03 1179.38 863.738C1178.82 865.188 1177.78 866.41 1176.25 867.061L1175.35 865.742C1177.45 864.898 1178.54 862.947 1178.54 861.119V860.346H1175.74V858.992H1182.79V860.346H1180.15V861.119ZM1188.82 857.744V867.359H1187.24V857.744H1188.82ZM1188.82 868.01V873.494H1187.17V869.363H1178.11V868.01H1188.82ZM1203.66 866.129V867.465H1192.69V859.045H1203.5V860.398H1194.38V862.525H1203.17V863.844H1194.38V866.129H1203.66ZM1205.3 870.137V871.508H1190.88V870.137H1205.3ZM1215.52 860.768C1215.52 862.49 1216.63 864.23 1218.67 865.004L1217.79 866.287C1216.32 865.725 1215.3 864.652 1214.73 863.352C1214.15 864.819 1213.07 866.094 1211.55 866.744L1210.64 865.443C1212.76 864.512 1213.91 862.525 1213.91 860.768V858.729H1215.52V860.768ZM1224.14 857.762V867.447H1222.56V863.229H1220.71V866.955H1219.16V858.043H1220.71V861.857H1222.56V857.762H1224.14ZM1218.86 867.746C1222.15 867.746 1224.21 868.818 1224.23 870.611C1224.21 872.404 1222.15 873.477 1218.86 873.459C1215.58 873.477 1213.52 872.404 1213.54 870.611C1213.52 868.818 1215.58 867.746 1218.86 867.746ZM1218.86 869.029C1216.58 869.029 1215.17 869.609 1215.19 870.611C1215.17 871.613 1216.58 872.193 1218.86 872.176C1221.15 872.193 1222.54 871.613 1222.56 870.611C1222.54 869.609 1221.15 869.029 1218.86 869.029ZM1231.79 860.1C1231.79 862.314 1233.22 864.283 1235.61 865.057L1234.69 866.357C1232.96 865.733 1231.69 864.521 1231 862.947C1230.31 864.749 1228.94 866.146 1227.05 866.832L1226.15 865.496C1228.66 864.635 1230.12 862.543 1230.14 860.17V858.623H1231.79V860.1ZM1239.33 857.744V867.043H1237.66V862.314H1234.34V860.943H1237.66V857.744H1239.33ZM1234.06 867.482C1237.36 867.482 1239.39 868.572 1239.39 870.488C1239.39 872.387 1237.36 873.477 1234.06 873.459C1230.75 873.477 1228.72 872.387 1228.73 870.488C1228.72 868.572 1230.75 867.482 1234.06 867.482ZM1234.06 868.783C1231.76 868.783 1230.39 869.398 1230.39 870.488C1230.39 871.543 1231.76 872.141 1234.06 872.141C1236.36 872.141 1237.73 871.543 1237.73 870.488C1237.73 869.398 1236.36 868.783 1234.06 868.783Z" fill="white"/>
<mask id="path-84-outside-1_1004_7970" maskUnits="userSpaceOnUse" x="181.343" y="38.1725" width="164" height="22" fill="black">
<rect fill="white" x="181.343" y="38.1725" width="164" height="22"/>
<path d="M193.663 39.4662L200.205 58.4494H196.253L194.918 54.4178H187.683L186.321 58.4494H182.343L189.071 39.4662H193.663ZM188.51 51.6678H194.037L191.26 42.9104L188.51 51.6678Z"/>
<path d="M212.712 54.7115L213.62 57.4081C213.104 57.8353 212.436 58.1735 211.617 58.4227C210.798 58.6719 209.846 58.7965 208.76 58.7965C206.536 58.7965 204.818 58.2714 203.607 57.2212C202.415 56.1533 201.819 54.5513 201.819 52.4154V51.2673C201.819 49.9501 202.014 48.8733 202.406 48.0367C202.815 47.2001 203.349 46.5415 204.008 46.061C204.649 45.5804 205.387 45.2511 206.224 45.0731C207.061 44.8951 207.915 44.8061 208.787 44.8061C210.015 44.8061 210.976 44.9396 211.671 45.2066C212.365 45.4736 212.979 45.7851 213.513 46.141L212.632 48.8644C212.027 48.5618 211.404 48.3304 210.763 48.1702C210.14 48.01 209.481 47.9299 208.787 47.9299C207.612 47.9299 206.802 48.2948 206.358 49.0246C205.93 49.7365 205.717 50.6799 205.717 51.8547C205.717 53.1897 205.966 54.1686 206.464 54.7916C206.963 55.3968 207.728 55.6994 208.76 55.6994C209.383 55.6994 210.024 55.6371 210.683 55.5125C211.341 55.3701 212.018 55.1031 212.712 54.7115Z"/>
<path d="M224.576 48.1168H221.585V54.845C221.585 55.1832 221.656 55.4146 221.799 55.5392C221.941 55.6638 222.137 55.7261 222.386 55.7261C222.618 55.7261 222.876 55.6816 223.161 55.5926C223.463 55.5036 223.775 55.3701 224.095 55.1921L225.003 57.4615C224.647 57.8175 224.113 58.129 223.401 58.396C222.707 58.663 221.995 58.7965 221.265 58.7965C219.948 58.7965 219.031 58.485 218.515 57.862C217.999 57.2212 217.741 56.3402 217.741 55.2188V48.1168H215.631V45.0731H217.741V40.7211L221.585 39.9735V45.0731H224.576V48.1168Z"/>
<path d="M233.451 55.7261C233.682 55.7261 233.94 55.6816 234.225 55.5926C234.51 55.5036 234.812 55.3701 235.133 55.1921L236.04 57.4615C235.684 57.8175 235.159 58.129 234.465 58.396C233.771 58.663 233.059 58.7965 232.329 58.7965C231.012 58.7965 230.095 58.485 229.579 57.862C229.063 57.2212 228.805 56.3402 228.805 55.2188V48.2236H227.417V45.26H232.703V54.845C232.703 55.1832 232.765 55.4146 232.89 55.5392C233.014 55.6638 233.201 55.7261 233.451 55.7261ZM232.703 42.9905H228.538V39.1725H232.703V42.9905Z"/>
<path d="M244.345 44.8061C246.374 44.8061 247.994 45.3668 249.204 46.4881C250.415 47.6095 251.02 49.3717 251.02 51.7746C251.02 54.0707 250.441 55.8151 249.285 57.0076C248.145 58.2002 246.499 58.7965 244.345 58.7965C242.174 58.7965 240.509 58.2002 239.352 57.0076C238.213 55.8151 237.644 54.0707 237.644 51.7746C237.644 49.3717 238.249 47.6095 239.459 46.4881C240.687 45.3668 242.316 44.8061 244.345 44.8061ZM241.595 51.7746C241.595 53.0562 241.791 54.0351 242.183 54.7115C242.592 55.3701 243.313 55.6994 244.345 55.6994C245.36 55.6994 246.072 55.3701 246.481 54.7115C246.89 54.0351 247.095 53.0562 247.095 51.7746C247.095 50.4396 246.89 49.4696 246.481 48.8644C246.089 48.2414 245.386 47.9299 244.372 47.9299C243.322 47.9299 242.592 48.2414 242.183 48.8644C241.791 49.4696 241.595 50.4396 241.595 51.7746Z"/>
<path d="M266.388 58.4494H262.49V49.5586C262.49 48.989 262.383 48.5707 262.169 48.3037C261.973 48.0189 261.644 47.8765 261.181 47.8765C260.612 47.8765 260.007 48.0367 259.366 48.3571C258.725 48.6597 258.218 49.0068 257.844 49.3984V58.4494H253.946V45.26H257.524L257.737 46.1944C258.218 45.8207 258.769 45.5003 259.392 45.2333C260.015 44.9485 260.781 44.8061 261.689 44.8061C263.255 44.8061 264.43 45.1443 265.213 45.8207C265.996 46.497 266.388 47.5205 266.388 48.8911V58.4494Z"/>
<path d="M277.053 43.1507C277.053 41.7802 277.356 40.8279 277.961 40.2939C278.584 39.7421 279.581 39.4662 280.951 39.4662H284.289C286.905 39.4662 288.73 39.9913 289.762 41.0415C290.812 42.0739 291.337 43.6046 291.337 45.6338C291.337 47.9477 290.759 49.5586 289.602 50.4663C288.445 51.3741 286.665 51.828 284.262 51.828H281.005V58.4494H277.053V43.1507ZM283.942 42.5099H282.286C281.77 42.5099 281.423 42.6167 281.245 42.8303C281.085 43.0261 281.005 43.3287 281.005 43.7381V48.7576H283.888C285.027 48.7576 285.882 48.5173 286.451 48.0367C287.021 47.5561 287.306 46.7551 287.306 45.6338C287.306 44.4946 287.021 43.6936 286.451 43.2308C285.9 42.7502 285.063 42.5099 283.942 42.5099Z"/>
<path d="M300.429 44.8061C302.458 44.8061 304.078 45.3668 305.289 46.4881C306.499 47.6095 307.104 49.3717 307.104 51.7746C307.104 54.0707 306.526 55.8151 305.369 57.0076C304.229 58.2002 302.583 58.7965 300.429 58.7965C298.258 58.7965 296.593 58.2002 295.436 57.0076C294.297 55.8151 293.728 54.0707 293.728 51.7746C293.728 49.3717 294.333 47.6095 295.543 46.4881C296.771 45.3668 298.4 44.8061 300.429 44.8061ZM297.679 51.7746C297.679 53.0562 297.875 54.0351 298.267 54.7115C298.676 55.3701 299.397 55.6994 300.429 55.6994C301.444 55.6994 302.156 55.3701 302.565 54.7115C302.975 54.0351 303.179 53.0562 303.179 51.7746C303.179 50.4396 302.975 49.4696 302.565 48.8644C302.174 48.2414 301.471 47.9299 300.456 47.9299C299.406 47.9299 298.676 48.2414 298.267 48.8644C297.875 49.4696 297.679 50.4396 297.679 51.7746Z"/>
<path d="M315.53 55.7261C315.761 55.7261 316.019 55.6816 316.304 55.5926C316.589 55.5036 316.892 55.3701 317.212 55.1921L318.12 57.4615C317.764 57.8175 317.239 58.129 316.545 58.396C315.85 58.663 315.138 58.7965 314.409 58.7965C313.091 58.7965 312.175 58.485 311.659 57.862C311.142 57.2212 310.884 56.3402 310.884 55.2188V48.2236H309.496V45.26H314.782V54.845C314.782 55.1832 314.845 55.4146 314.969 55.5392C315.094 55.6638 315.281 55.7261 315.53 55.7261ZM314.782 42.9905H310.617V39.1725H314.782V42.9905Z"/>
<path d="M332.432 58.4494H328.534V49.5586C328.534 48.989 328.427 48.5707 328.213 48.3037C328.018 48.0189 327.688 47.8765 327.225 47.8765C326.656 47.8765 326.051 48.0367 325.41 48.3571C324.769 48.6597 324.262 49.0068 323.888 49.3984V58.4494H319.99V45.26H323.568L323.781 46.1944C324.262 45.8207 324.814 45.5003 325.437 45.2333C326.06 44.9485 326.825 44.8061 327.733 44.8061C329.299 44.8061 330.474 45.1443 331.257 45.8207C332.04 46.497 332.432 47.5205 332.432 48.8911V58.4494Z"/>
<path d="M344.044 48.1168H341.054V54.845C341.054 55.1832 341.125 55.4146 341.268 55.5392C341.41 55.6638 341.606 55.7261 341.855 55.7261C342.086 55.7261 342.345 55.6816 342.629 55.5926C342.932 55.5036 343.243 55.3701 343.564 55.1921L344.472 57.4615C344.116 57.8175 343.582 58.129 342.87 58.396C342.175 58.663 341.463 58.7965 340.734 58.7965C339.416 58.7965 338.5 58.485 337.984 57.862C337.467 57.2212 337.209 56.3402 337.209 55.2188V48.1168H335.1V45.0731H337.209V40.7211L341.054 39.9735V45.0731H344.044V48.1168Z"/>
</mask>
<path d="M193.663 39.4662L200.205 58.4494H196.253L194.918 54.4178H187.683L186.321 58.4494H182.343L189.071 39.4662H193.663ZM188.51 51.6678H194.037L191.26 42.9104L188.51 51.6678Z" fill="#18181B"/>
<path d="M212.712 54.7115L213.62 57.4081C213.104 57.8353 212.436 58.1735 211.617 58.4227C210.798 58.6719 209.846 58.7965 208.76 58.7965C206.536 58.7965 204.818 58.2714 203.607 57.2212C202.415 56.1533 201.819 54.5513 201.819 52.4154V51.2673C201.819 49.9501 202.014 48.8733 202.406 48.0367C202.815 47.2001 203.349 46.5415 204.008 46.061C204.649 45.5804 205.387 45.2511 206.224 45.0731C207.061 44.8951 207.915 44.8061 208.787 44.8061C210.015 44.8061 210.976 44.9396 211.671 45.2066C212.365 45.4736 212.979 45.7851 213.513 46.141L212.632 48.8644C212.027 48.5618 211.404 48.3304 210.763 48.1702C210.14 48.01 209.481 47.9299 208.787 47.9299C207.612 47.9299 206.802 48.2948 206.358 49.0246C205.93 49.7365 205.717 50.6799 205.717 51.8547C205.717 53.1897 205.966 54.1686 206.464 54.7916C206.963 55.3968 207.728 55.6994 208.76 55.6994C209.383 55.6994 210.024 55.6371 210.683 55.5125C211.341 55.3701 212.018 55.1031 212.712 54.7115Z" fill="#18181B"/>
<path d="M224.576 48.1168H221.585V54.845C221.585 55.1832 221.656 55.4146 221.799 55.5392C221.941 55.6638 222.137 55.7261 222.386 55.7261C222.618 55.7261 222.876 55.6816 223.161 55.5926C223.463 55.5036 223.775 55.3701 224.095 55.1921L225.003 57.4615C224.647 57.8175 224.113 58.129 223.401 58.396C222.707 58.663 221.995 58.7965 221.265 58.7965C219.948 58.7965 219.031 58.485 218.515 57.862C217.999 57.2212 217.741 56.3402 217.741 55.2188V48.1168H215.631V45.0731H217.741V40.7211L221.585 39.9735V45.0731H224.576V48.1168Z" fill="#18181B"/>
<path d="M233.451 55.7261C233.682 55.7261 233.94 55.6816 234.225 55.5926C234.51 55.5036 234.812 55.3701 235.133 55.1921L236.04 57.4615C235.684 57.8175 235.159 58.129 234.465 58.396C233.771 58.663 233.059 58.7965 232.329 58.7965C231.012 58.7965 230.095 58.485 229.579 57.862C229.063 57.2212 228.805 56.3402 228.805 55.2188V48.2236H227.417V45.26H232.703V54.845C232.703 55.1832 232.765 55.4146 232.89 55.5392C233.014 55.6638 233.201 55.7261 233.451 55.7261ZM232.703 42.9905H228.538V39.1725H232.703V42.9905Z" fill="#18181B"/>
<path d="M244.345 44.8061C246.374 44.8061 247.994 45.3668 249.204 46.4881C250.415 47.6095 251.02 49.3717 251.02 51.7746C251.02 54.0707 250.441 55.8151 249.285 57.0076C248.145 58.2002 246.499 58.7965 244.345 58.7965C242.174 58.7965 240.509 58.2002 239.352 57.0076C238.213 55.8151 237.644 54.0707 237.644 51.7746C237.644 49.3717 238.249 47.6095 239.459 46.4881C240.687 45.3668 242.316 44.8061 244.345 44.8061ZM241.595 51.7746C241.595 53.0562 241.791 54.0351 242.183 54.7115C242.592 55.3701 243.313 55.6994 244.345 55.6994C245.36 55.6994 246.072 55.3701 246.481 54.7115C246.89 54.0351 247.095 53.0562 247.095 51.7746C247.095 50.4396 246.89 49.4696 246.481 48.8644C246.089 48.2414 245.386 47.9299 244.372 47.9299C243.322 47.9299 242.592 48.2414 242.183 48.8644C241.791 49.4696 241.595 50.4396 241.595 51.7746Z" fill="#18181B"/>
<path d="M266.388 58.4494H262.49V49.5586C262.49 48.989 262.383 48.5707 262.169 48.3037C261.973 48.0189 261.644 47.8765 261.181 47.8765C260.612 47.8765 260.007 48.0367 259.366 48.3571C258.725 48.6597 258.218 49.0068 257.844 49.3984V58.4494H253.946V45.26H257.524L257.737 46.1944C258.218 45.8207 258.769 45.5003 259.392 45.2333C260.015 44.9485 260.781 44.8061 261.689 44.8061C263.255 44.8061 264.43 45.1443 265.213 45.8207C265.996 46.497 266.388 47.5205 266.388 48.8911V58.4494Z" fill="#18181B"/>
<path d="M277.053 43.1507C277.053 41.7802 277.356 40.8279 277.961 40.2939C278.584 39.7421 279.581 39.4662 280.951 39.4662H284.289C286.905 39.4662 288.73 39.9913 289.762 41.0415C290.812 42.0739 291.337 43.6046 291.337 45.6338C291.337 47.9477 290.759 49.5586 289.602 50.4663C288.445 51.3741 286.665 51.828 284.262 51.828H281.005V58.4494H277.053V43.1507ZM283.942 42.5099H282.286C281.77 42.5099 281.423 42.6167 281.245 42.8303C281.085 43.0261 281.005 43.3287 281.005 43.7381V48.7576H283.888C285.027 48.7576 285.882 48.5173 286.451 48.0367C287.021 47.5561 287.306 46.7551 287.306 45.6338C287.306 44.4946 287.021 43.6936 286.451 43.2308C285.9 42.7502 285.063 42.5099 283.942 42.5099Z" fill="#18181B"/>
<path d="M300.429 44.8061C302.458 44.8061 304.078 45.3668 305.289 46.4881C306.499 47.6095 307.104 49.3717 307.104 51.7746C307.104 54.0707 306.526 55.8151 305.369 57.0076C304.229 58.2002 302.583 58.7965 300.429 58.7965C298.258 58.7965 296.593 58.2002 295.436 57.0076C294.297 55.8151 293.728 54.0707 293.728 51.7746C293.728 49.3717 294.333 47.6095 295.543 46.4881C296.771 45.3668 298.4 44.8061 300.429 44.8061ZM297.679 51.7746C297.679 53.0562 297.875 54.0351 298.267 54.7115C298.676 55.3701 299.397 55.6994 300.429 55.6994C301.444 55.6994 302.156 55.3701 302.565 54.7115C302.975 54.0351 303.179 53.0562 303.179 51.7746C303.179 50.4396 302.975 49.4696 302.565 48.8644C302.174 48.2414 301.471 47.9299 300.456 47.9299C299.406 47.9299 298.676 48.2414 298.267 48.8644C297.875 49.4696 297.679 50.4396 297.679 51.7746Z" fill="#18181B"/>
<path d="M315.53 55.7261C315.761 55.7261 316.019 55.6816 316.304 55.5926C316.589 55.5036 316.892 55.3701 317.212 55.1921L318.12 57.4615C317.764 57.8175 317.239 58.129 316.545 58.396C315.85 58.663 315.138 58.7965 314.409 58.7965C313.091 58.7965 312.175 58.485 311.659 57.862C311.142 57.2212 310.884 56.3402 310.884 55.2188V48.2236H309.496V45.26H314.782V54.845C314.782 55.1832 314.845 55.4146 314.969 55.5392C315.094 55.6638 315.281 55.7261 315.53 55.7261ZM314.782 42.9905H310.617V39.1725H314.782V42.9905Z" fill="#18181B"/>
<path d="M332.432 58.4494H328.534V49.5586C328.534 48.989 328.427 48.5707 328.213 48.3037C328.018 48.0189 327.688 47.8765 327.225 47.8765C326.656 47.8765 326.051 48.0367 325.41 48.3571C324.769 48.6597 324.262 49.0068 323.888 49.3984V58.4494H319.99V45.26H323.568L323.781 46.1944C324.262 45.8207 324.814 45.5003 325.437 45.2333C326.06 44.9485 326.825 44.8061 327.733 44.8061C329.299 44.8061 330.474 45.1443 331.257 45.8207C332.04 46.497 332.432 47.5205 332.432 48.8911V58.4494Z" fill="#18181B"/>
<path d="M344.044 48.1168H341.054V54.845C341.054 55.1832 341.125 55.4146 341.268 55.5392C341.41 55.6638 341.606 55.7261 341.855 55.7261C342.086 55.7261 342.345 55.6816 342.629 55.5926C342.932 55.5036 343.243 55.3701 343.564 55.1921L344.472 57.4615C344.116 57.8175 343.582 58.129 342.87 58.396C342.175 58.663 341.463 58.7965 340.734 58.7965C339.416 58.7965 338.5 58.485 337.984 57.862C337.467 57.2212 337.209 56.3402 337.209 55.2188V48.1168H335.1V45.0731H337.209V40.7211L341.054 39.9735V45.0731H344.044V48.1168Z" fill="#18181B"/>
<path d="M193.663 39.4662L200.205 58.4494H196.253L194.918 54.4178H187.683L186.321 58.4494H182.343L189.071 39.4662H193.663ZM188.51 51.6678H194.037L191.26 42.9104L188.51 51.6678Z" stroke="#18181B" stroke-width="0.821516" mask="url(#path-84-outside-1_1004_7970)"/>
<path d="M212.712 54.7115L213.62 57.4081C213.104 57.8353 212.436 58.1735 211.617 58.4227C210.798 58.6719 209.846 58.7965 208.76 58.7965C206.536 58.7965 204.818 58.2714 203.607 57.2212C202.415 56.1533 201.819 54.5513 201.819 52.4154V51.2673C201.819 49.9501 202.014 48.8733 202.406 48.0367C202.815 47.2001 203.349 46.5415 204.008 46.061C204.649 45.5804 205.387 45.2511 206.224 45.0731C207.061 44.8951 207.915 44.8061 208.787 44.8061C210.015 44.8061 210.976 44.9396 211.671 45.2066C212.365 45.4736 212.979 45.7851 213.513 46.141L212.632 48.8644C212.027 48.5618 211.404 48.3304 210.763 48.1702C210.14 48.01 209.481 47.9299 208.787 47.9299C207.612 47.9299 206.802 48.2948 206.358 49.0246C205.93 49.7365 205.717 50.6799 205.717 51.8547C205.717 53.1897 205.966 54.1686 206.464 54.7916C206.963 55.3968 207.728 55.6994 208.76 55.6994C209.383 55.6994 210.024 55.6371 210.683 55.5125C211.341 55.3701 212.018 55.1031 212.712 54.7115Z" stroke="#18181B" stroke-width="0.821516" mask="url(#path-84-outside-1_1004_7970)"/>
<path d="M224.576 48.1168H221.585V54.845C221.585 55.1832 221.656 55.4146 221.799 55.5392C221.941 55.6638 222.137 55.7261 222.386 55.7261C222.618 55.7261 222.876 55.6816 223.161 55.5926C223.463 55.5036 223.775 55.3701 224.095 55.1921L225.003 57.4615C224.647 57.8175 224.113 58.129 223.401 58.396C222.707 58.663 221.995 58.7965 221.265 58.7965C219.948 58.7965 219.031 58.485 218.515 57.862C217.999 57.2212 217.741 56.3402 217.741 55.2188V48.1168H215.631V45.0731H217.741V40.7211L221.585 39.9735V45.0731H224.576V48.1168Z" stroke="#18181B" stroke-width="0.821516" mask="url(#path-84-outside-1_1004_7970)"/>
<path d="M233.451 55.7261C233.682 55.7261 233.94 55.6816 234.225 55.5926C234.51 55.5036 234.812 55.3701 235.133 55.1921L236.04 57.4615C235.684 57.8175 235.159 58.129 234.465 58.396C233.771 58.663 233.059 58.7965 232.329 58.7965C231.012 58.7965 230.095 58.485 229.579 57.862C229.063 57.2212 228.805 56.3402 228.805 55.2188V48.2236H227.417V45.26H232.703V54.845C232.703 55.1832 232.765 55.4146 232.89 55.5392C233.014 55.6638 233.201 55.7261 233.451 55.7261ZM232.703 42.9905H228.538V39.1725H232.703V42.9905Z" stroke="#18181B" stroke-width="0.821516" mask="url(#path-84-outside-1_1004_7970)"/>
<path d="M244.345 44.8061C246.374 44.8061 247.994 45.3668 249.204 46.4881C250.415 47.6095 251.02 49.3717 251.02 51.7746C251.02 54.0707 250.441 55.8151 249.285 57.0076C248.145 58.2002 246.499 58.7965 244.345 58.7965C242.174 58.7965 240.509 58.2002 239.352 57.0076C238.213 55.8151 237.644 54.0707 237.644 51.7746C237.644 49.3717 238.249 47.6095 239.459 46.4881C240.687 45.3668 242.316 44.8061 244.345 44.8061ZM241.595 51.7746C241.595 53.0562 241.791 54.0351 242.183 54.7115C242.592 55.3701 243.313 55.6994 244.345 55.6994C245.36 55.6994 246.072 55.3701 246.481 54.7115C246.89 54.0351 247.095 53.0562 247.095 51.7746C247.095 50.4396 246.89 49.4696 246.481 48.8644C246.089 48.2414 245.386 47.9299 244.372 47.9299C243.322 47.9299 242.592 48.2414 242.183 48.8644C241.791 49.4696 241.595 50.4396 241.595 51.7746Z" stroke="#18181B" stroke-width="0.821516" mask="url(#path-84-outside-1_1004_7970)"/>
<path d="M266.388 58.4494H262.49V49.5586C262.49 48.989 262.383 48.5707 262.169 48.3037C261.973 48.0189 261.644 47.8765 261.181 47.8765C260.612 47.8765 260.007 48.0367 259.366 48.3571C258.725 48.6597 258.218 49.0068 257.844 49.3984V58.4494H253.946V45.26H257.524L257.737 46.1944C258.218 45.8207 258.769 45.5003 259.392 45.2333C260.015 44.9485 260.781 44.8061 261.689 44.8061C263.255 44.8061 264.43 45.1443 265.213 45.8207C265.996 46.497 266.388 47.5205 266.388 48.8911V58.4494Z" stroke="#18181B" stroke-width="0.821516" mask="url(#path-84-outside-1_1004_7970)"/>
<path d="M277.053 43.1507C277.053 41.7802 277.356 40.8279 277.961 40.2939C278.584 39.7421 279.581 39.4662 280.951 39.4662H284.289C286.905 39.4662 288.73 39.9913 289.762 41.0415C290.812 42.0739 291.337 43.6046 291.337 45.6338C291.337 47.9477 290.759 49.5586 289.602 50.4663C288.445 51.3741 286.665 51.828 284.262 51.828H281.005V58.4494H277.053V43.1507ZM283.942 42.5099H282.286C281.77 42.5099 281.423 42.6167 281.245 42.8303C281.085 43.0261 281.005 43.3287 281.005 43.7381V48.7576H283.888C285.027 48.7576 285.882 48.5173 286.451 48.0367C287.021 47.5561 287.306 46.7551 287.306 45.6338C287.306 44.4946 287.021 43.6936 286.451 43.2308C285.9 42.7502 285.063 42.5099 283.942 42.5099Z" stroke="#18181B" stroke-width="0.821516" mask="url(#path-84-outside-1_1004_7970)"/>
<path d="M300.429 44.8061C302.458 44.8061 304.078 45.3668 305.289 46.4881C306.499 47.6095 307.104 49.3717 307.104 51.7746C307.104 54.0707 306.526 55.8151 305.369 57.0076C304.229 58.2002 302.583 58.7965 300.429 58.7965C298.258 58.7965 296.593 58.2002 295.436 57.0076C294.297 55.8151 293.728 54.0707 293.728 51.7746C293.728 49.3717 294.333 47.6095 295.543 46.4881C296.771 45.3668 298.4 44.8061 300.429 44.8061ZM297.679 51.7746C297.679 53.0562 297.875 54.0351 298.267 54.7115C298.676 55.3701 299.397 55.6994 300.429 55.6994C301.444 55.6994 302.156 55.3701 302.565 54.7115C302.975 54.0351 303.179 53.0562 303.179 51.7746C303.179 50.4396 302.975 49.4696 302.565 48.8644C302.174 48.2414 301.471 47.9299 300.456 47.9299C299.406 47.9299 298.676 48.2414 298.267 48.8644C297.875 49.4696 297.679 50.4396 297.679 51.7746Z" stroke="#18181B" stroke-width="0.821516" mask="url(#path-84-outside-1_1004_7970)"/>
<path d="M315.53 55.7261C315.761 55.7261 316.019 55.6816 316.304 55.5926C316.589 55.5036 316.892 55.3701 317.212 55.1921L318.12 57.4615C317.764 57.8175 317.239 58.129 316.545 58.396C315.85 58.663 315.138 58.7965 314.409 58.7965C313.091 58.7965 312.175 58.485 311.659 57.862C311.142 57.2212 310.884 56.3402 310.884 55.2188V48.2236H309.496V45.26H314.782V54.845C314.782 55.1832 314.845 55.4146 314.969 55.5392C315.094 55.6638 315.281 55.7261 315.53 55.7261ZM314.782 42.9905H310.617V39.1725H314.782V42.9905Z" stroke="#18181B" stroke-width="0.821516" mask="url(#path-84-outside-1_1004_7970)"/>
<path d="M332.432 58.4494H328.534V49.5586C328.534 48.989 328.427 48.5707 328.213 48.3037C328.018 48.0189 327.688 47.8765 327.225 47.8765C326.656 47.8765 326.051 48.0367 325.41 48.3571C324.769 48.6597 324.262 49.0068 323.888 49.3984V58.4494H319.99V45.26H323.568L323.781 46.1944C324.262 45.8207 324.814 45.5003 325.437 45.2333C326.06 44.9485 326.825 44.8061 327.733 44.8061C329.299 44.8061 330.474 45.1443 331.257 45.8207C332.04 46.497 332.432 47.5205 332.432 48.8911V58.4494Z" stroke="#18181B" stroke-width="0.821516" mask="url(#path-84-outside-1_1004_7970)"/>
<path d="M344.044 48.1168H341.054V54.845C341.054 55.1832 341.125 55.4146 341.268 55.5392C341.41 55.6638 341.606 55.7261 341.855 55.7261C342.086 55.7261 342.345 55.6816 342.629 55.5926C342.932 55.5036 343.243 55.3701 343.564 55.1921L344.472 57.4615C344.116 57.8175 343.582 58.129 342.87 58.396C342.175 58.663 341.463 58.7965 340.734 58.7965C339.416 58.7965 338.5 58.485 337.984 57.862C337.467 57.2212 337.209 56.3402 337.209 55.2188V48.1168H335.1V45.0731H337.209V40.7211L341.054 39.9735V45.0731H344.044V48.1168Z" stroke="#18181B" stroke-width="0.821516" mask="url(#path-84-outside-1_1004_7970)"/>
<path d="M146 41.58C146 40.1674 147.145 39.0223 148.558 39.0223H162.893C164.306 39.0223 165.451 40.1674 165.451 41.58V49.989C165.451 51.187 164.619 52.2245 163.45 52.4853L149.115 55.6831C147.517 56.0395 146 54.8239 146 53.1868V41.58Z" fill="#18181B"/>
<rect x="162.594" y="43.8633" width="1.27883" height="3.83649" rx="0.639416" fill="white"/>
<rect x="160.035" y="43.8633" width="1.27883" height="3.83649" rx="0.639416" fill="white"/>
<path d="M176.969 52.8342C176.969 51.4217 175.824 50.2766 174.411 50.2766H164.17C162.758 50.2766 161.613 51.4217 161.613 52.8342V58.5029C161.613 59.7009 162.444 60.7384 163.614 60.9992L173.854 63.2836C175.452 63.64 176.969 62.4244 176.969 60.7873V52.8342Z" fill="#60A5FA"/>
<rect width="1.02306" height="2.81343" rx="0.511532" transform="matrix(-1 0 0 1 164.427 54.3683)" fill="#CBE2FF"/>
<rect width="1.02306" height="2.81343" rx="0.511532" transform="matrix(-1 0 0 1 166.475 54.3683)" fill="#CBE2FF"/>
<path d="M169.801 47.8724L168.01 46.7056" stroke="#60A5FA" stroke-width="0.532493" stroke-linecap="round"/>
<path d="M168.011 44.3236L169.802 43.1567" stroke="#60A5FA" stroke-width="0.532493" stroke-linecap="round"/>
<path d="M168.011 44.3236L169.802 43.1567" stroke="#60A5FA" stroke-width="0.532493" stroke-linecap="round"/>
<path d="M168.01 45.5217H169.786" stroke="#60A5FA" stroke-width="0.532493" stroke-linecap="round"/>
<path d="M613.219 44.5879C615.346 44.5879 616.91 46.2051 616.928 48.4902C616.91 50.8105 615.346 52.375 613.219 52.375C611.092 52.375 609.545 50.8105 609.545 48.4902C609.545 46.2051 611.092 44.5879 613.219 44.5879ZM613.219 46.4863C612.234 46.4863 611.549 47.2246 611.549 48.4902C611.549 49.7559 612.234 50.5117 613.219 50.5117C614.186 50.5117 614.871 49.7559 614.889 48.4902C614.871 47.2246 614.186 46.4863 613.219 46.4863ZM623.221 43.6387V53.1836H621.094V49.2988H619.775V53.0957H617.701V43.9199H619.775V47.5059H621.094V43.6387H623.221ZM623.221 53.8867V59.6172H620.988V55.6797H612.164V53.8867H623.221ZM631.025 46.3809C631.025 48.5957 632.115 50.793 634.646 51.7246L633.398 53.4648C631.72 52.8057 630.568 51.5488 629.918 49.9668C629.215 51.6543 627.976 52.9727 626.156 53.6582L624.961 51.9004C627.58 50.9688 628.758 48.7188 628.758 46.3809V44.5352H631.025V46.3809ZM638.514 43.6387V55.5039H636.281V50.6172H633.539V48.8066H636.281V47.5234H633.539V45.7129H636.281V43.6387H638.514ZM638.848 57.543V59.3359H627.861V54.3613H630.129V57.543H638.848ZM659.379 55.9609V57.8418H644.736V55.9609H650.889V53.0781H645.949V51.3203H648.094V46.75H645.879V44.957H658.148V46.75H655.898V51.3203H658.078V53.0781H653.121V55.9609H659.379ZM650.344 51.3203H653.684V46.75H650.344V51.3203ZM673.688 43.6387V55.1348H671.438V43.6387H673.688ZM674.109 57.543V59.3359H662.965V53.9746H665.232V57.543H674.109ZM664.916 44.6582C667.377 44.6582 669.293 46.3457 669.293 48.6836C669.293 51.0742 667.377 52.7441 664.916 52.7441C662.455 52.7441 660.539 51.0742 660.539 48.6836C660.539 46.3457 662.455 44.6582 664.916 44.6582ZM664.916 46.6094C663.668 46.5918 662.719 47.3828 662.736 48.6836C662.719 50.0195 663.668 50.793 664.916 50.793C666.129 50.793 667.078 50.0195 667.078 48.6836C667.078 47.3828 666.129 46.5918 664.916 46.6094ZM688.893 51.8828V53.6582H677.572V44.7988H688.77V46.6094H679.857V48.2969H688.4V50.0547H679.857V51.8828H688.893ZM690.492 55.9258V57.7539H675.85V55.9258H690.492Z" fill="#AFAFC1"/>
<path d="M749.117 55.8906V57.7539H734.475V55.8906H749.117ZM747.887 45.0273V46.8203H745.637V51.6719H747.816V53.4297H735.688V51.6719H737.832V46.8203H735.617V45.0273H747.887ZM740.082 51.6719H743.422V46.8203H740.082V51.6719ZM764.674 55.9961V57.8418H750.031V55.9961H756.201V53.5879H751.719V48.209H760.771V46.4512H751.701V44.6582H762.986V49.9668H753.969V51.7598H763.355V53.5879H758.434V55.9961H764.674ZM776.152 43.9375V53.2891H774.025V49.3867H772.25V47.5762H774.025V43.9375H776.152ZM770.633 47.0664C770.633 48.7539 771.477 50.4238 773.533 51.2148L772.408 52.9375C771.046 52.4102 770.123 51.4609 769.578 50.3008C768.989 51.6016 768.005 52.665 766.537 53.2539L765.359 51.4785C767.557 50.6523 768.453 48.8242 768.453 47.0488V46.5742H765.904V44.7812H773.023V46.5742H770.633V47.0664ZM779.334 43.6211V53.377H777.207V43.6211H779.334ZM779.334 53.957V59.6172H777.102V55.7324H768.277V53.957H779.334ZM794.188 51.8828V53.6582H782.867V44.7988H794.064V46.6094H785.152V48.2969H793.695V50.0547H785.152V51.8828H794.188ZM795.787 55.9258V57.7539H781.145V55.9258H795.787ZM809.814 44.7812V45.7832C809.814 46.8906 809.814 48.4902 809.445 50.4766L807.248 50.2656C807.529 48.7275 807.6 47.5674 807.617 46.6094H801.588V44.7812H809.814ZM805.842 48.4727V51.5312C807.433 51.4697 809.067 51.3467 810.57 51.127L810.693 52.7441C807.371 53.3594 803.609 53.4121 800.832 53.4297L800.639 51.6367C801.535 51.6367 802.546 51.6367 803.609 51.6016V48.4727H805.842ZM813.734 43.6211V48.4902H815.668V50.3711H813.734V55.5918H811.432V43.6211H813.734ZM814.227 57.543V59.3359H802.994V54.5195H805.244V57.543H814.227ZM829.818 43.6211V59.6523H827.586V43.6211H829.818ZM824.861 44.957V51.127H819.588V54.0625C822.022 54.0537 824.097 53.9131 826.443 53.5352L826.637 55.3457C824 55.8027 821.627 55.9082 818.709 55.9082H817.268V49.3516H822.576V46.7676H817.25V44.957H824.861Z" fill="#3B82F6"/>
<g clip-path="url(#clip1_1004_7970)">
<circle cx="1219.5" cy="51.5" r="13.5" fill="#FAFAFA"/>
<path d="M1225.06 47.2529C1225.06 46.2359 1224.24 45.4114 1223.22 45.4114H1214.2C1213.18 45.4114 1212.35 46.2359 1212.35 47.2529V53.7894C1212.35 54.6297 1212.92 55.3634 1213.74 55.5727L1222.76 57.8939C1223.93 58.1936 1225.06 57.3137 1225.06 56.1105V47.2529Z" fill="#3B82F6"/>
<rect width="0.841798" height="2.52539" rx="0.420899" transform="matrix(-1 0 0 1 1215.46 49.9037)" fill="white"/>
<rect width="0.841798" height="2.52539" rx="0.420899" transform="matrix(-1 0 0 1 1217.15 49.9037)" fill="white"/>
</g>
<path d="M1245.94 45.125C1245.94 48.7969 1243.45 51.3438 1239.25 52.4219L1238.56 51.0781C1241.85 50.2266 1243.78 48.5625 1244.08 46.5H1239.38V45.125H1245.94ZM1250.23 44.2812V52.1875H1248.48V44.2812H1250.23ZM1250.23 52.7969V58.2031H1240.91V52.7969H1250.23ZM1242.62 54.1719V56.8281H1248.53V54.1719H1242.62ZM1257.34 47.6562C1257.33 50.1719 1258.59 52.7344 1260.78 53.7812L1259.72 55.1719C1258.19 54.3984 1257.09 52.9062 1256.48 51.1094C1255.87 53.0312 1254.71 54.625 1253.09 55.4375L1252.03 54.0469C1254.3 52.9688 1255.59 50.2656 1255.61 47.6562V45.4062H1257.34V47.6562ZM1263.36 44.2656V49.7969H1265.53V51.2812H1263.36V58.3906H1261.62V44.2656H1263.36ZM1277.27 44.2812V47.6562H1279.25V49.0938H1277.27V52.7656H1275.53V44.2812H1277.27ZM1273.11 45.1406V49.2031H1268.41V50.6875C1270.8 50.6719 1272.45 50.5859 1274.38 50.2656L1274.56 51.6562C1272.45 52.0312 1270.62 52.125 1267.83 52.1094H1266.67V47.8906H1271.41V46.5156H1266.66V45.1406H1273.11ZM1272.66 53.0781C1275.56 53.0938 1277.39 54.0781 1277.41 55.75C1277.39 57.4062 1275.56 58.3594 1272.66 58.3594C1269.69 58.3594 1267.88 57.4062 1267.88 55.75C1267.88 54.0781 1269.69 53.0938 1272.66 53.0781ZM1272.66 54.4375C1270.69 54.4375 1269.56 54.9062 1269.58 55.75C1269.56 56.5938 1270.69 57.0469 1272.66 57.0469C1274.61 57.0469 1275.69 56.5938 1275.69 55.75C1275.69 54.9062 1274.61 54.4375 1272.66 54.4375ZM1291.59 44.3281V52.2344H1290.12V44.3281H1291.59ZM1282.34 45.1406V50.0469C1284.6 50.0312 1286.59 49.8672 1288.69 49.4219L1288.89 50.6562C1286.58 51.125 1284.47 51.2969 1282.02 51.2969H1280.86V45.1406H1282.34ZM1291.59 52.875V58.1406H1282.42V52.875H1291.59ZM1283.88 54.0469V56.9531H1290.14V54.0469H1283.88Z" fill="#18181B"/>
<path d="M200.797 166.656V168.727H184.527V166.656H200.797ZM199.43 154.586V156.578H196.93V161.969H199.352V163.922H185.875V161.969H188.258V156.578H185.797V154.586H199.43ZM190.758 161.969H194.469V156.578H190.758V161.969ZM218.012 166.773V168.824H201.743V166.773H208.598V164.098H203.618V158.121H213.676V156.168H203.598V154.176H216.137V160.074H206.118V162.066H216.547V164.098H211.078V166.773H218.012ZM230.696 153.375V163.766H228.333V159.43H226.36V157.418H228.333V153.375H230.696ZM224.563 156.852C224.563 158.727 225.501 160.582 227.786 161.461L226.536 163.375C225.022 162.789 223.997 161.734 223.391 160.445C222.737 161.891 221.643 163.072 220.012 163.727L218.704 161.754C221.145 160.836 222.141 158.805 222.141 156.832V156.305H219.309V154.312H227.219V156.305H224.563V156.852ZM234.231 153.023V163.863H231.868V153.023H234.231ZM234.231 164.508V170.797H231.751V166.48H221.946V164.508H234.231ZM250.665 162.203V164.176H238.087V154.332H250.528V156.344H240.626V158.219H250.118V160.172H240.626V162.203H250.665ZM252.442 166.695V168.727H236.173V166.695H252.442ZM272.83 153.023V170.836H270.349V153.023H272.83ZM267.322 154.508V161.363H261.463V164.625C264.168 164.615 266.472 164.459 269.08 164.039L269.295 166.051C266.365 166.559 263.728 166.676 260.486 166.676H258.884V159.391H264.783V156.52H258.865V154.508H267.322ZM284.498 155.367C284.498 157.965 286.803 160.758 290.826 161.441L289.732 163.512C286.637 162.896 284.332 161.158 283.189 158.863C282.008 161.139 279.703 162.887 276.627 163.512L275.553 161.441C279.498 160.738 281.822 157.945 281.842 155.367V154.078H284.498V155.367ZM291.412 166.559V168.609H275.143V166.559H291.412ZM306.85 162.203V164.176H294.272V154.332H306.713V156.344H296.811V158.219H306.303V160.172H296.811V162.203H306.85ZM308.627 166.695V168.727H292.358V166.695H308.627Z" fill="#18181B"/>
<path d="M309 189.5H310.5V186.5H309V189.5ZM184 188V189.5H309V188V186.5H184V188Z" fill="#3B82F6"/>
<defs>
<clipPath id="clip0_1004_7970">
<rect width="24" height="24" fill="white" transform="translate(1226 167)"/>
</clipPath>
<clipPath id="clip1_1004_7970">
<rect x="1206" y="38" width="27" height="27" rx="13.5" fill="white"/>
</clipPath>
</defs>
</svg>
