<svg width="1440" height="1168" viewBox="0 0 1440 1168" fill="none" xmlns="http://www.w3.org/2000/svg">
<rect width="1440" height="1168" fill="white"/>
<rect x="146" y="252" width="1148" height="773" rx="10" fill="#F3F4F6"/>
<rect width="1440" height="100" fill="white"/>
<rect opacity="0.23" x="146" y="165" width="1148" height="73" rx="10" fill="#CBE2FF"/>
<path d="M191.85 199.062V201.211H183.109V202.871H189.335V208.291H176.786V209.902H189.945V211.978H174.125V206.338H186.674V204.922H174.101V202.871H180.399V201.211H171.732V199.062H191.85ZM189.262 190.786V197.671H174.271V190.786H189.262ZM176.933 192.91V195.547H186.552V192.91H176.933ZM211.635 190.103V212.197H208.95V190.103H211.635ZM204.848 192.031V200.308H197.255V204.751C200.734 204.727 203.737 204.556 207.167 203.97L207.412 206.191C203.652 206.851 200.356 206.973 196.401 206.973H194.472V198.159H202.089V194.229H194.448V192.031H204.848ZM227.881 192.227V194.375H214.795V192.227H219.995V190.005H222.705V192.227H227.881ZM221.338 195.229C224.536 195.229 226.709 196.841 226.733 199.258C226.709 201.675 224.536 203.286 221.338 203.286C218.139 203.286 215.918 201.675 215.918 199.258C215.918 196.841 218.139 195.229 221.338 195.229ZM221.338 197.28C219.653 197.28 218.554 198.013 218.554 199.258C218.554 200.503 219.653 201.211 221.338 201.187C223.022 201.211 224.145 200.503 224.145 199.258C224.145 198.013 223.022 197.28 221.338 197.28ZM232.178 190.103V195.962H235.254V198.184H232.178V203.921H229.468V190.103H232.178ZM232.178 204.946V212.173H229.468V207.119H217.48V204.946H232.178ZM255.235 190.103V212.173H252.622V200.845H250.254V211.147H247.715V190.688H250.254V198.647H252.622V190.103H255.235ZM245.835 192.886C245.835 198.843 243.955 203.97 237.681 207.559L236.118 205.679C240.818 202.957 242.808 199.465 243.198 195.059H237.144V192.886H245.835ZM277.95 202.432V204.629H257.784V202.432H266.524V200.503H260.347V194.644H272.75V192.788H260.274V190.664H275.46V196.572H263.033V198.403H275.899V200.503H269.21V202.432H277.95ZM275.948 209.976V212.173H260.372V205.85H263.106V209.976H275.948ZM297.062 191.396V193.594H289.152V195.645H296.427V197.769H289.152V199.941C293.278 199.929 295.792 199.856 298.698 199.38L298.966 201.504C295.792 202.065 293.034 202.114 288.273 202.09H286.393V191.396H297.062ZM303.556 190.127V203.237H300.822V190.127H303.556ZM303.556 204.214V211.904H288.908V204.214H303.556ZM291.593 206.313V209.707H300.895V206.313H291.593ZM324.953 190.737V192.788H321.926V196.133H324.831V198.184H308.62V196.133H311.525V192.788H308.498V190.737H324.953ZM326.808 199.575V201.724H306.691V199.575H326.808ZM324.294 203.213V208.462H311.745V209.951H324.904V211.978H309.084V206.582H321.633V205.19H309.059V203.213H324.294ZM314.235 196.133H319.191V192.788H314.235V196.133Z" fill="#18181B"/>
<g clip-path="url(#clip0_1004_6356)">
<path d="M1244 204.833C1243.08 204.833 1242.33 205.583 1242.33 206.5C1242.33 207.417 1243.08 208.167 1244 208.167C1244.92 208.167 1245.67 207.417 1245.67 206.5C1245.67 205.583 1244.92 204.833 1244 204.833ZM1244 203.167C1244.92 203.167 1245.67 202.417 1245.67 201.5C1245.67 200.583 1244.92 199.833 1244 199.833C1243.08 199.833 1242.33 200.583 1242.33 201.5C1242.33 202.417 1243.08 203.167 1244 203.167ZM1244 198.167C1244.92 198.167 1245.67 197.417 1245.67 196.5C1245.67 195.583 1244.92 194.833 1244 194.833C1243.08 194.833 1242.33 195.583 1242.33 196.5C1242.33 197.417 1243.08 198.167 1244 198.167Z" fill="#71717A"/>
</g>
<path d="M579.527 603.562C582.668 603.562 584.895 606.422 584.918 610.922C584.895 615.445 582.668 618.305 579.527 618.305C576.387 618.305 574.137 615.445 574.16 610.922C574.137 606.422 576.387 603.562 579.527 603.562ZM579.527 605.555C577.606 605.555 576.293 607.617 576.293 610.922C576.293 614.25 577.606 616.312 579.527 616.312C581.473 616.312 582.785 614.25 582.785 610.922C582.785 607.617 581.473 605.555 579.527 605.555ZM590.262 601.992V610.219H593.637V612.094H590.262V622.992H588.035V601.992H590.262ZM602.342 605.766C602.342 608.461 604.358 611.039 607.592 612.07L606.443 613.805C604.029 613.008 602.201 611.344 601.264 609.234C600.315 611.52 598.451 613.324 595.943 614.203L594.795 612.492C598.053 611.367 600.068 608.625 600.092 605.766V605.18H595.381V603.375H606.959V605.18H602.342V605.766ZM611.975 601.992V614.672H609.748V601.992H611.975ZM611.975 615.727V622.992H609.748V617.531H597.748V615.727H611.975ZM640.143 614.648V616.477H631.658V623.016H629.455V616.477H620.994V614.648H640.143ZM638.315 604.523V606.328H631.682C631.811 608.648 634.975 610.91 638.971 611.414L638.174 613.195C634.799 612.727 631.928 611.145 630.58 609C629.209 611.168 626.315 612.727 622.94 613.195L622.119 611.414C626.115 610.91 629.303 608.695 629.455 606.328H622.799V604.523H629.455V601.992H631.658V604.523H638.315ZM658.012 601.992V610.359H661.27V612.211H658.012V622.969H655.785V601.992H658.012ZM652.527 604.195C652.504 610.266 649.832 615.68 642.918 619.102L641.676 617.367C646.938 614.742 649.797 610.945 650.254 606.047H642.731V604.195H652.527ZM674.545 608.719V610.523H670.443V613.172C672.307 613.09 674.158 612.961 675.881 612.773L676.045 614.414C671.568 615.023 666.647 615.141 662.709 615.141L662.404 613.359C664.197 613.348 666.201 613.324 668.24 613.266V610.523H664.279V603.328H674.357V605.133H666.506V608.719H674.545ZM679.725 601.992V617.742H677.498V601.992H679.725ZM680.381 620.742V622.547H665.873V616.617H668.1V620.742H680.381ZM706.111 601.992V622.992H703.885V601.992H706.111ZM688.861 617.273C690.584 617.262 692.564 617.25 694.627 617.18V615.094C692.166 614.777 690.572 613.336 690.596 611.273C690.572 608.906 692.635 607.336 695.682 607.336C698.752 607.336 700.861 608.906 700.861 611.273C700.861 613.312 699.268 614.742 696.83 615.07V617.109C698.775 617.027 700.744 616.875 702.596 616.641L702.76 618.305C698.096 619.078 693.01 619.125 689.166 619.125L688.861 617.273ZM702.127 604.5V606.281H689.307V604.5H694.627V602.039H696.854V604.5H702.127ZM695.682 609.07C693.924 609.07 692.682 609.938 692.705 611.273C692.682 612.609 693.924 613.43 695.682 613.43C697.486 613.43 698.729 612.609 698.729 611.273C698.729 609.938 697.486 609.07 695.682 609.07ZM716.246 603.492C719.574 603.469 721.941 605.531 721.965 608.484C721.941 611.438 719.574 613.5 716.246 613.5C712.941 613.5 710.504 611.438 710.527 608.484C710.504 605.531 712.941 603.469 716.246 603.492ZM716.246 605.414C714.207 605.414 712.707 606.633 712.73 608.484C712.707 610.336 714.207 611.555 716.246 611.555C718.285 611.555 719.785 610.336 719.785 608.484C719.785 606.633 718.285 605.414 716.246 605.414ZM726.77 601.992V623.039H724.543V601.992H726.77ZM709.52 616.664C713.34 616.664 718.637 616.617 723.23 615.961L723.395 617.578C718.637 618.492 713.551 618.516 709.801 618.516L709.52 616.664ZM752.547 602.859V610.055H746.5V612.492H754.984V614.297H735.836V612.492H744.297V610.055H738.273V602.859H752.547ZM740.453 604.617V608.273H750.344V604.617H740.453ZM752.641 616.289V622.992H750.391V618.047H737.969V616.289H752.641ZM775.713 618.68V620.508H756.494V618.68H761.65V614.016H758.182V612.211H761.322V605.672H758.135V603.844H773.955V605.672H770.744V612.211H773.885V614.016H770.439V618.68H775.713ZM763.525 612.211H768.564V605.672H763.525V612.211ZM763.877 618.68H768.213V614.016H763.877V618.68ZM793.512 601.992V610.359H796.769V612.211H793.512V622.969H791.285V601.992H793.512ZM788.027 604.195C788.004 610.266 785.332 615.68 778.418 619.102L777.176 617.367C782.437 614.742 785.297 610.945 785.754 606.047H778.23V604.195H788.027ZM808.062 614.297V616.734H811.344V614.297H813.406V622.734H805.976V614.297H808.062ZM808.062 621H811.344V618.422H808.062V621ZM819.5 615.867C819.5 618.07 820.719 620.297 823.32 621.211L822.172 622.898C820.273 622.172 819.043 620.801 818.398 619.125C817.695 620.766 816.453 622.148 814.648 622.898L813.523 621.211C816.055 620.18 817.297 617.953 817.297 615.867V614.156H819.5V615.867ZM809.398 602.883C812.164 602.883 814.297 604.453 814.766 606.797H818.867V601.992H821.094V613.125H818.867V608.625H814.789C814.332 611.039 812.187 612.609 809.398 612.609C806.187 612.609 803.891 610.641 803.891 607.734C803.891 604.875 806.187 602.883 809.398 602.883ZM809.398 604.734C807.406 604.734 806.023 605.953 806.023 607.734C806.023 609.539 807.406 610.781 809.398 610.805C811.344 610.781 812.726 609.539 812.726 607.734C812.726 605.953 811.344 604.734 809.398 604.734ZM829.939 603.562C832.787 603.562 834.873 605.977 835.213 609.867H839.549V601.992H841.752V623.039H839.549V611.672H835.236C834.99 615.762 832.857 618.305 829.939 618.305C826.799 618.305 824.596 615.445 824.619 610.922C824.596 606.422 826.799 603.562 829.939 603.562ZM829.939 605.555C828.041 605.555 826.728 607.617 826.728 610.922C826.728 614.25 828.041 616.312 829.939 616.312C831.838 616.312 833.15 614.25 833.15 610.922C833.15 607.617 831.838 605.555 829.939 605.555ZM864.121 618.516V620.367H844.902V618.516H849.496V613.031C847.773 612.082 846.73 610.57 846.73 608.695C846.73 605.391 849.965 603.211 854.465 603.211C858.988 603.211 862.223 605.391 862.223 608.695C862.223 610.547 861.215 612.035 859.527 612.984V618.516H864.121ZM854.465 604.992C851.16 604.992 848.887 606.422 848.887 608.695C848.887 610.945 851.16 612.422 854.465 612.422C857.746 612.422 860.066 610.945 860.066 608.695C860.066 606.422 857.746 604.992 854.465 604.992ZM851.699 618.516H857.277V613.828C856.422 614.051 855.473 614.156 854.465 614.156C853.48 614.156 852.543 614.051 851.699 613.852V618.516ZM530.61 635.992V656.992H528.383V635.992H530.61ZM513.36 651.273C515.082 651.262 517.063 651.25 519.125 651.18V649.094C516.664 648.777 515.07 647.336 515.094 645.273C515.07 642.906 517.133 641.336 520.18 641.336C523.25 641.336 525.36 642.906 525.36 645.273C525.36 647.312 523.766 648.742 521.328 649.07V651.109C523.274 651.027 525.242 650.875 527.094 650.641L527.258 652.305C522.594 653.078 517.508 653.125 513.664 653.125L513.36 651.273ZM526.625 638.5V640.281H513.805V638.5H519.125V636.039H521.352V638.5H526.625ZM520.18 643.07C518.422 643.07 517.18 643.938 517.203 645.273C517.18 646.609 518.422 647.43 520.18 647.43C521.985 647.43 523.227 646.609 523.227 645.273C523.227 643.938 521.985 643.07 520.18 643.07ZM540.744 637.492C544.072 637.469 546.44 639.531 546.463 642.484C546.44 645.438 544.072 647.5 540.744 647.5C537.44 647.5 535.002 645.438 535.026 642.484C535.002 639.531 537.44 637.469 540.744 637.492ZM540.744 639.414C538.705 639.414 537.205 640.633 537.229 642.484C537.205 644.336 538.705 645.555 540.744 645.555C542.783 645.555 544.283 644.336 544.283 642.484C544.283 640.633 542.783 639.414 540.744 639.414ZM551.268 635.992V657.039H549.041V635.992H551.268ZM534.018 650.664C537.838 650.664 543.135 650.617 547.729 649.961L547.893 651.578C543.135 652.492 538.049 652.516 534.299 652.516L534.018 650.664ZM577.045 636.859V644.055H570.998V646.492H579.483V648.297H560.334V646.492H568.795V644.055H562.772V636.859H577.045ZM564.951 638.617V642.273H574.842V638.617H564.951ZM577.139 650.289V656.992H574.889V652.047H562.467V650.289H577.139ZM600.211 652.68V654.508H580.992V652.68H586.149V648.016H582.68V646.211H585.82V639.672H582.633V637.844H598.453V639.672H595.242V646.211H598.383V648.016H594.938V652.68H600.211ZM588.024 646.211H593.063V639.672H588.024V646.211ZM588.375 652.68H592.711V648.016H588.375V652.68ZM614.762 639.766C614.762 642.438 616.613 644.992 619.824 646.07L618.699 647.805C616.32 646.984 614.574 645.344 613.66 643.281C612.746 645.555 610.93 647.336 608.457 648.203L607.262 646.469C610.543 645.344 612.512 642.648 612.535 639.742V639.18H607.918V637.375H619.285V639.18H614.762V639.766ZM623.926 635.992V641.383H626.973V643.258H623.926V648.648H621.699V635.992H623.926ZM623.926 649.68V656.992H621.699V651.484H610.051V649.68H623.926ZM635.537 639.133C635.537 642.086 637.436 644.711 640.623 645.742L639.404 647.477C637.096 646.645 635.397 645.027 634.482 642.93C633.568 645.332 631.74 647.195 629.209 648.109L628.014 646.328C631.365 645.18 633.311 642.391 633.334 639.227V637.164H635.537V639.133ZM645.592 635.992V648.391H643.365V642.086H638.936V640.258H643.365V635.992H645.592ZM638.561 648.977C642.967 648.977 645.662 650.43 645.662 652.984C645.662 655.516 642.967 656.969 638.561 656.945C634.154 656.969 631.436 655.516 631.459 652.984C631.436 650.43 634.154 648.977 638.561 648.977ZM638.561 650.711C635.49 650.711 633.662 651.531 633.662 652.984C633.662 654.391 635.49 655.188 638.561 655.188C641.631 655.188 643.459 654.391 643.459 652.984C643.459 651.531 641.631 650.711 638.561 650.711ZM658.305 636.344C663.039 636.344 665.805 637.609 665.805 639.953C665.805 642.297 663.039 643.586 658.305 643.586C653.57 643.586 650.805 642.297 650.805 639.953C650.805 637.609 653.57 636.344 658.305 636.344ZM658.305 637.984C654.953 637.984 653.102 638.711 653.125 639.953C653.102 641.242 654.953 641.922 658.305 641.922C661.656 641.922 663.508 641.242 663.508 639.953C663.508 638.711 661.656 637.984 658.305 637.984ZM667.891 644.875V646.656H648.742V644.875H667.891ZM665.477 648.273V653.195H653.242V655.07H666.063V656.781H651.063V651.578H663.273V649.938H651.039V648.273H665.477ZM694.324 647.031V648.789H675.129V647.031H683.613V645.203H677.637V636.555H691.98V638.312H679.887V640.023H691.441V641.688H679.887V643.469H692.121V645.203H685.84V647.031H694.324ZM684.738 650.172C689.355 650.148 691.98 651.367 691.98 653.57C691.98 655.797 689.355 656.969 684.738 656.945C680.074 656.969 677.449 655.797 677.449 653.57C677.449 651.367 680.074 650.148 684.738 650.172ZM684.738 651.836C681.434 651.836 679.652 652.445 679.676 653.57C679.652 654.695 681.434 655.281 684.738 655.258C687.996 655.281 689.754 654.695 689.754 653.57C689.754 652.445 687.996 651.836 684.738 651.836ZM706.217 639.461V641.266H695.787V639.461H699.912V636.602H702.115V639.461H706.217ZM701.014 642.531C703.686 642.531 705.561 644.523 705.584 647.359C705.561 650.219 703.686 652.234 701.014 652.234C698.389 652.234 696.443 650.219 696.467 647.359C696.443 644.523 698.389 642.531 701.014 642.531ZM701.014 644.383C699.49 644.383 698.436 645.625 698.436 647.359C698.436 649.141 699.49 650.336 701.014 650.336C702.514 650.336 703.615 649.141 703.615 647.359C703.615 645.625 702.514 644.383 701.014 644.383ZM713.811 635.992V656.992H711.701V646.562H709.287V656.008H707.178V636.461H709.287V644.734H711.701V635.992H713.811ZM739.635 635.992V656.992H737.408V635.992H739.635ZM722.385 651.273C724.107 651.262 726.088 651.25 728.15 651.18V649.094C725.689 648.777 724.096 647.336 724.119 645.273C724.096 642.906 726.158 641.336 729.205 641.336C732.275 641.336 734.385 642.906 734.385 645.273C734.385 647.312 732.791 648.742 730.354 649.07V651.109C732.299 651.027 734.268 650.875 736.119 650.641L736.283 652.305C731.619 653.078 726.533 653.125 722.689 653.125L722.385 651.273ZM735.65 638.5V640.281H722.83V638.5H728.15V636.039H730.377V638.5H735.65ZM729.205 643.07C727.447 643.07 726.205 643.938 726.229 645.273C726.205 646.609 727.447 647.43 729.205 647.43C731.01 647.43 732.252 646.609 732.252 645.273C732.252 643.938 731.01 643.07 729.205 643.07ZM749.77 637.492C753.098 637.469 755.465 639.531 755.488 642.484C755.465 645.438 753.098 647.5 749.77 647.5C746.465 647.5 744.027 645.438 744.051 642.484C744.027 639.531 746.465 637.469 749.77 637.492ZM749.77 639.414C747.73 639.414 746.23 640.633 746.254 642.484C746.23 644.336 747.73 645.555 749.77 645.555C751.809 645.555 753.309 644.336 753.309 642.484C753.309 640.633 751.809 639.414 749.77 639.414ZM760.293 635.992V657.039H758.066V635.992H760.293ZM743.043 650.664C746.863 650.664 752.16 650.617 756.754 649.961L756.918 651.578C752.16 652.492 747.074 652.516 743.324 652.516L743.043 650.664ZM786.07 636.859V644.055H780.023V646.492H788.508V648.297H769.359V646.492H777.82V644.055H771.797V636.859H786.07ZM773.977 638.617V642.273H783.867V638.617H773.977ZM786.164 650.289V656.992H783.914V652.047H771.492V650.289H786.164ZM809.236 652.68V654.508H790.017V652.68H795.174V648.016H791.705V646.211H794.846V639.672H791.658V637.844H807.478V639.672H804.267V646.211H807.408V648.016H803.963V652.68H809.236ZM797.049 646.211H802.088V639.672H797.049V646.211ZM797.4 652.68H801.736V648.016H797.4V652.68ZM829.871 645.625V647.336H810.652V645.625H829.871ZM827.504 648.812V653.43H815.176V655.164H828.16V656.734H812.949V651.953H825.301V650.406H812.926V648.812H827.504ZM827.457 636.531V641.078H815.316V642.672H827.809V644.242H813.113V639.602H825.23V638.102H813.066V636.531H827.457ZM847.75 637.844V647.641H837.93V637.844H847.75ZM840.109 639.648V645.883H845.57V639.648H840.109ZM853.609 635.969V642.25H856.656V644.125H853.609V651.367H851.383V635.969H853.609ZM854.5 654.742V656.547H840.297V649.891H842.523V654.742H854.5ZM876.939 644.594V646.375H857.767V644.594H876.939ZM874.666 641.289V643.07H860.275V636.602H874.455V638.406H862.502V641.289H874.666ZM874.502 648.039V653.125H862.267V655H875.088V656.758H860.088V651.484H872.299V649.75H860.064V648.039H874.502ZM884.121 637.562C886.969 637.562 889.055 639.977 889.394 643.867H893.73V635.992H895.933V657.039H893.73V645.672H889.418C889.172 649.762 887.039 652.305 884.121 652.305C880.98 652.305 878.777 649.445 878.801 644.922C878.777 640.422 880.98 637.562 884.121 637.562ZM884.121 639.555C882.223 639.555 880.91 641.617 880.91 644.922C880.91 648.25 882.223 650.312 884.121 650.312C886.019 650.312 887.332 648.25 887.332 644.922C887.332 641.617 886.019 639.555 884.121 639.555ZM918.303 652.516V654.367H899.084V652.516H903.678V647.031C901.955 646.082 900.912 644.57 900.912 642.695C900.912 639.391 904.146 637.211 908.646 637.211C913.17 637.211 916.404 639.391 916.404 642.695C916.404 644.547 915.396 646.035 913.709 646.984V652.516H918.303ZM908.646 638.992C905.342 638.992 903.068 640.422 903.068 642.695C903.068 644.945 905.342 646.422 908.646 646.422C911.928 646.422 914.248 644.945 914.248 642.695C914.248 640.422 911.928 638.992 908.646 638.992ZM905.881 652.516H911.459V647.828C910.603 648.051 909.654 648.156 908.646 648.156C907.662 648.156 906.724 648.051 905.881 647.852V652.516ZM923.609 638.031L923.398 650.102H921.078L920.867 638.031H923.609ZM922.25 655.164C921.336 655.164 920.562 654.414 920.586 653.5C920.562 652.586 921.336 651.836 922.25 651.836C923.14 651.836 923.914 652.586 923.914 653.5C923.914 654.414 923.14 655.164 922.25 655.164Z" fill="#71717A"/>
<rect x="604" y="791" width="231.552" height="53.7708" rx="9.27083" fill="#3B82F6"/>
<g clip-path="url(#clip1_1004_6356)">
<path d="M637.221 818.658H632.586V823.293H631.041V818.658H626.405V817.113H631.041V812.477H632.586V817.113H637.221V818.658Z" fill="#EFF6FF"/>
</g>
<path d="M647.607 814.456C647.607 816.929 648.62 819.42 650.645 820.499L649.715 821.744C648.312 820.955 647.358 819.544 646.843 817.859C646.287 819.702 645.266 821.279 643.822 822.126L642.826 820.98C644.951 819.735 646.08 817.095 646.08 814.555V811.783H647.607V814.456ZM655.825 810.422V825.297H654.314V817.627H652.521V824.566H651.01V810.704H652.521V816.348H654.314V810.422H655.825ZM671.331 822.192V823.52H657.717V822.192H663.71V819.586H659.377V814.854H668.11V812.762H659.344V811.467H669.67V816.116H660.938V818.291H670.019V819.586H665.271V822.192H671.331ZM686.006 817.876V819.154H680.113V822.043H678.519V819.154H672.393V817.876H686.006ZM684.496 823.686V824.981H674.103V820.615H675.68V823.686H684.496ZM679.183 810.77C682.387 810.77 684.462 811.932 684.462 813.792C684.462 815.651 682.387 816.797 679.183 816.797C675.996 816.797 673.887 815.651 673.887 813.792C673.887 811.932 675.996 810.77 679.183 810.77ZM679.183 812.032C677.008 812.032 675.564 812.696 675.581 813.792C675.564 814.871 677.008 815.518 679.183 815.518C681.375 815.518 682.802 814.871 682.802 813.792C682.802 812.696 681.375 812.032 679.183 812.032ZM703.554 810.422V825.297H701.977V810.422H703.554ZM691.335 821.246C692.556 821.237 693.958 821.229 695.419 821.179V819.702C693.676 819.478 692.547 818.457 692.564 816.996C692.547 815.319 694.008 814.207 696.167 814.207C698.341 814.207 699.835 815.319 699.835 816.996C699.835 818.44 698.707 819.453 696.98 819.685V821.13C698.358 821.071 699.752 820.964 701.064 820.798L701.18 821.976C697.876 822.524 694.274 822.557 691.551 822.557L691.335 821.246ZM700.732 812.198V813.46H691.651V812.198H695.419V810.455H696.997V812.198H700.732ZM696.167 815.435C694.921 815.435 694.042 816.049 694.058 816.996C694.042 817.942 694.921 818.523 696.167 818.523C697.445 818.523 698.325 817.942 698.325 816.996C698.325 816.049 697.445 815.435 696.167 815.435ZM710.792 811.484C713.15 811.467 714.827 812.928 714.843 815.02C714.827 817.112 713.15 818.573 710.792 818.573C708.452 818.573 706.725 817.112 706.742 815.02C706.725 812.928 708.452 811.467 710.792 811.484ZM710.792 812.845C709.348 812.845 708.286 813.709 708.302 815.02C708.286 816.332 709.348 817.195 710.792 817.195C712.237 817.195 713.299 816.332 713.299 815.02C713.299 813.709 712.237 812.845 710.792 812.845ZM718.247 810.422V825.33H716.669V810.422H718.247ZM706.028 820.814C708.734 820.814 712.486 820.781 715.74 820.316L715.856 821.462C712.486 822.109 708.883 822.126 706.227 822.126L706.028 820.814ZM736.625 811.036V816.133H732.341V817.859H738.351V819.137H724.788V817.859H730.781V816.133H726.514V811.036H736.625ZM728.058 812.281V814.871H735.064V812.281H728.058ZM736.691 820.549V825.297H735.097V821.794H726.298V820.549H736.691ZM753.093 822.242V823.537H739.48V822.242H743.132V818.938H740.675V817.66H742.9V813.028H740.642V811.733H751.848V813.028H749.574V817.66H751.798V818.938H749.358V822.242H753.093ZM744.46 817.66H748.03V813.028H744.46V817.66ZM744.709 822.242H747.781V818.938H744.709V822.242ZM763.519 813.094C763.519 814.987 764.831 816.797 767.105 817.56L766.308 818.789C764.623 818.208 763.386 817.046 762.739 815.585C762.091 817.195 760.805 818.457 759.053 819.071L758.207 817.842C760.531 817.046 761.925 815.136 761.942 813.078V812.679H758.671V811.401H766.723V812.679H763.519V813.094ZM770.01 810.422V814.24H772.168V815.568H770.01V819.386H768.433V810.422H770.01ZM770.01 820.117V825.297H768.433V821.395H760.182V820.117H770.01ZM778.294 812.646C778.294 814.738 779.639 816.597 781.897 817.328L781.034 818.556C779.398 817.967 778.195 816.821 777.547 815.336C776.9 817.037 775.605 818.357 773.812 819.005L772.965 817.743C775.339 816.929 776.717 814.954 776.734 812.713V811.252H778.294V812.646ZM785.417 810.422V819.204H783.839V814.738H780.702V813.443H783.839V810.422H785.417ZM780.436 819.619C783.557 819.619 785.466 820.648 785.466 822.458C785.466 824.251 783.557 825.28 780.436 825.263C777.315 825.28 775.389 824.251 775.406 822.458C775.389 820.648 777.315 819.619 780.436 819.619ZM780.436 820.847C778.261 820.847 776.966 821.428 776.966 822.458C776.966 823.454 778.261 824.018 780.436 824.018C782.611 824.018 783.906 823.454 783.906 822.458C783.906 821.428 782.611 820.847 780.436 820.847ZM799.295 810.422V816.448H801.686V817.759H799.295V825.297H797.735V810.422H799.295ZM796.44 812.746V814.041H787.625V812.746H791.293V810.621H792.871V812.746H796.44ZM792.09 815.136C794.215 815.136 795.776 816.564 795.792 818.59C795.776 820.632 794.215 822.043 792.09 822.059C789.949 822.043 788.388 820.632 788.388 818.59C788.388 816.564 789.949 815.136 792.09 815.136ZM792.09 816.431C790.829 816.431 789.882 817.311 789.899 818.59C789.882 819.884 790.829 820.748 792.09 820.731C793.352 820.748 794.282 819.884 794.282 818.59C794.282 817.311 793.352 816.431 792.09 816.431ZM814.768 810.422V825.297H813.174V810.422H814.768ZM810.335 812.015C810.335 816.365 808.476 820.15 803.379 822.591L802.549 821.312C806.509 819.428 808.435 816.747 808.742 813.277H803.263V812.015H810.335Z" fill="#EFF6FF"/>
<rect x="654.833" y="447" width="110.375" height="100.745" rx="5.03491" fill="#71717A"/>
<path d="M782.193 466.971H679.868C677.602 466.971 675.615 468.485 675.014 470.669L655.754 540.632C654.871 543.838 657.283 547.003 660.608 547.003H760.78C762.993 547.003 764.946 545.558 765.594 543.442L787.008 473.479C787.998 470.243 785.578 466.971 782.193 466.971Z" fill="#AFAFC1" stroke="#AFAFC1" stroke-width="1.5586"/>
<mask id="path-12-outside-1_1004_6356" maskUnits="userSpaceOnUse" x="181.343" y="38.1723" width="164" height="22" fill="black">
<rect fill="white" x="181.343" y="38.1723" width="164" height="22"/>
<path d="M193.663 39.466L200.205 58.4492H196.253L194.918 54.4176H187.683L186.321 58.4492H182.343L189.071 39.466H193.663ZM188.51 51.6676H194.037L191.26 42.9102L188.51 51.6676Z"/>
<path d="M212.712 54.7113L213.62 57.4079C213.104 57.8351 212.436 58.1733 211.617 58.4225C210.798 58.6717 209.846 58.7963 208.76 58.7963C206.536 58.7963 204.818 58.2712 203.607 57.221C202.415 56.153 201.819 54.5511 201.819 52.4151V51.2671C201.819 49.9499 202.014 48.873 202.406 48.0365C202.815 47.1999 203.349 46.5413 204.008 46.0607C204.649 45.5801 205.387 45.2508 206.224 45.0728C207.061 44.8948 207.915 44.8058 208.787 44.8058C210.015 44.8058 210.976 44.9393 211.671 45.2063C212.365 45.4733 212.979 45.7848 213.513 46.1408L212.632 48.8641C212.027 48.5615 211.404 48.3301 210.763 48.1699C210.14 48.0098 209.481 47.9297 208.787 47.9297C207.612 47.9297 206.802 48.2945 206.358 49.0243C205.93 49.7363 205.717 50.6797 205.717 51.8544C205.717 53.1894 205.966 54.1684 206.464 54.7914C206.963 55.3965 207.728 55.6991 208.76 55.6991C209.383 55.6991 210.024 55.6368 210.683 55.5122C211.341 55.3698 212.018 55.1029 212.712 54.7113Z"/>
<path d="M224.576 48.1165H221.585V54.8448C221.585 55.183 221.656 55.4144 221.799 55.5389C221.941 55.6635 222.137 55.7258 222.386 55.7258C222.618 55.7258 222.876 55.6813 223.161 55.5923C223.463 55.5033 223.775 55.3699 224.095 55.1919L225.003 57.4613C224.647 57.8173 224.113 58.1288 223.401 58.3958C222.707 58.6628 221.995 58.7963 221.265 58.7963C219.948 58.7963 219.031 58.4848 218.515 57.8618C217.999 57.221 217.741 56.3399 217.741 55.2186V48.1165H215.631V45.0728H217.741V40.7209L221.585 39.9733V45.0728H224.576V48.1165Z"/>
<path d="M233.451 55.7258C233.682 55.7258 233.94 55.6813 234.225 55.5923C234.51 55.5033 234.812 55.3699 235.133 55.1919L236.04 57.4613C235.684 57.8173 235.159 58.1288 234.465 58.3958C233.771 58.6628 233.059 58.7963 232.329 58.7963C231.012 58.7963 230.095 58.4848 229.579 57.8618C229.063 57.221 228.805 56.3399 228.805 55.2186V48.2233H227.417V45.2597H232.703V54.8448C232.703 55.183 232.765 55.4144 232.89 55.5389C233.014 55.6635 233.201 55.7258 233.451 55.7258ZM232.703 42.9903H228.538V39.1723H232.703V42.9903Z"/>
<path d="M244.345 44.8058C246.374 44.8058 247.994 45.3665 249.204 46.4879C250.415 47.6093 251.02 49.3714 251.02 51.7743C251.02 54.0705 250.441 55.8148 249.285 57.0074C248.145 58.2 246.499 58.7963 244.345 58.7963C242.174 58.7963 240.509 58.2 239.352 57.0074C238.213 55.8148 237.644 54.0705 237.644 51.7743C237.644 49.3714 238.249 47.6093 239.459 46.4879C240.687 45.3665 242.316 44.8058 244.345 44.8058ZM241.595 51.7743C241.595 53.0559 241.791 54.0349 242.183 54.7113C242.592 55.3699 243.313 55.6991 244.345 55.6991C245.36 55.6991 246.072 55.3699 246.481 54.7113C246.89 54.0349 247.095 53.0559 247.095 51.7743C247.095 50.4394 246.89 49.4693 246.481 48.8641C246.089 48.2411 245.386 47.9297 244.372 47.9297C243.322 47.9297 242.592 48.2411 242.183 48.8641C241.791 49.4693 241.595 50.4394 241.595 51.7743Z"/>
<path d="M266.388 58.4492H262.49V49.5583C262.49 48.9887 262.383 48.5704 262.169 48.3034C261.973 48.0187 261.644 47.8763 261.181 47.8763C260.612 47.8763 260.007 48.0365 259.366 48.3568C258.725 48.6594 258.218 49.0065 257.844 49.3981V58.4492H253.946V45.2597H257.524L257.737 46.1942C258.218 45.8204 258.769 45.5 259.392 45.233C260.015 44.9482 260.781 44.8058 261.689 44.8058C263.255 44.8058 264.43 45.144 265.213 45.8204C265.996 46.4968 266.388 47.5203 266.388 48.8908V58.4492Z"/>
<path d="M277.053 43.1505C277.053 41.7799 277.356 40.8276 277.961 40.2937C278.584 39.7419 279.581 39.466 280.951 39.466H284.289C286.905 39.466 288.73 39.9911 289.762 41.0412C290.812 42.0736 291.337 43.6044 291.337 45.6335C291.337 47.9475 290.759 49.5583 289.602 50.4661C288.445 51.3739 286.665 51.8277 284.262 51.8277H281.005V58.4492H277.053V43.1505ZM283.942 42.5097H282.286C281.77 42.5097 281.423 42.6165 281.245 42.8301C281.085 43.0259 281.005 43.3285 281.005 43.7379V48.7573H283.888C285.027 48.7573 285.882 48.517 286.451 48.0365C287.021 47.5559 287.306 46.7549 287.306 45.6335C287.306 44.4943 287.021 43.6934 286.451 43.2306C285.9 42.75 285.063 42.5097 283.942 42.5097Z"/>
<path d="M300.429 44.8058C302.458 44.8058 304.078 45.3665 305.289 46.4879C306.499 47.6093 307.104 49.3714 307.104 51.7743C307.104 54.0705 306.526 55.8148 305.369 57.0074C304.229 58.2 302.583 58.7963 300.429 58.7963C298.258 58.7963 296.593 58.2 295.436 57.0074C294.297 55.8148 293.728 54.0705 293.728 51.7743C293.728 49.3714 294.333 47.6093 295.543 46.4879C296.771 45.3665 298.4 44.8058 300.429 44.8058ZM297.679 51.7743C297.679 53.0559 297.875 54.0349 298.267 54.7113C298.676 55.3699 299.397 55.6991 300.429 55.6991C301.444 55.6991 302.156 55.3699 302.565 54.7113C302.975 54.0349 303.179 53.0559 303.179 51.7743C303.179 50.4394 302.975 49.4693 302.565 48.8641C302.174 48.2411 301.471 47.9297 300.456 47.9297C299.406 47.9297 298.676 48.2411 298.267 48.8641C297.875 49.4693 297.679 50.4394 297.679 51.7743Z"/>
<path d="M315.53 55.7258C315.761 55.7258 316.019 55.6813 316.304 55.5923C316.589 55.5033 316.892 55.3699 317.212 55.1919L318.12 57.4613C317.764 57.8173 317.239 58.1288 316.545 58.3958C315.85 58.6628 315.138 58.7963 314.409 58.7963C313.091 58.7963 312.175 58.4848 311.659 57.8618C311.142 57.221 310.884 56.3399 310.884 55.2186V48.2233H309.496V45.2597H314.782V54.8448C314.782 55.183 314.845 55.4144 314.969 55.5389C315.094 55.6635 315.281 55.7258 315.53 55.7258ZM314.782 42.9903H310.617V39.1723H314.782V42.9903Z"/>
<path d="M332.432 58.4492H328.534V49.5583C328.534 48.9887 328.427 48.5704 328.213 48.3034C328.018 48.0187 327.688 47.8763 327.225 47.8763C326.656 47.8763 326.051 48.0365 325.41 48.3568C324.769 48.6594 324.262 49.0065 323.888 49.3981V58.4492H319.99V45.2597H323.568L323.781 46.1942C324.262 45.8204 324.814 45.5 325.437 45.233C326.06 44.9482 326.825 44.8058 327.733 44.8058C329.299 44.8058 330.474 45.144 331.257 45.8204C332.04 46.4968 332.432 47.5203 332.432 48.8908V58.4492Z"/>
<path d="M344.044 48.1165H341.054V54.8448C341.054 55.183 341.125 55.4144 341.268 55.5389C341.41 55.6635 341.606 55.7258 341.855 55.7258C342.086 55.7258 342.345 55.6813 342.629 55.5923C342.932 55.5033 343.243 55.3699 343.564 55.1919L344.472 57.4613C344.116 57.8173 343.582 58.1288 342.87 58.3958C342.175 58.6628 341.463 58.7963 340.734 58.7963C339.416 58.7963 338.5 58.4848 337.984 57.8618C337.467 57.221 337.209 56.3399 337.209 55.2186V48.1165H335.1V45.0728H337.209V40.7209L341.054 39.9733V45.0728H344.044V48.1165Z"/>
</mask>
<path d="M193.663 39.466L200.205 58.4492H196.253L194.918 54.4176H187.683L186.321 58.4492H182.343L189.071 39.466H193.663ZM188.51 51.6676H194.037L191.26 42.9102L188.51 51.6676Z" fill="#18181B"/>
<path d="M212.712 54.7113L213.62 57.4079C213.104 57.8351 212.436 58.1733 211.617 58.4225C210.798 58.6717 209.846 58.7963 208.76 58.7963C206.536 58.7963 204.818 58.2712 203.607 57.221C202.415 56.153 201.819 54.5511 201.819 52.4151V51.2671C201.819 49.9499 202.014 48.873 202.406 48.0365C202.815 47.1999 203.349 46.5413 204.008 46.0607C204.649 45.5801 205.387 45.2508 206.224 45.0728C207.061 44.8948 207.915 44.8058 208.787 44.8058C210.015 44.8058 210.976 44.9393 211.671 45.2063C212.365 45.4733 212.979 45.7848 213.513 46.1408L212.632 48.8641C212.027 48.5615 211.404 48.3301 210.763 48.1699C210.14 48.0098 209.481 47.9297 208.787 47.9297C207.612 47.9297 206.802 48.2945 206.358 49.0243C205.93 49.7363 205.717 50.6797 205.717 51.8544C205.717 53.1894 205.966 54.1684 206.464 54.7914C206.963 55.3965 207.728 55.6991 208.76 55.6991C209.383 55.6991 210.024 55.6368 210.683 55.5122C211.341 55.3698 212.018 55.1029 212.712 54.7113Z" fill="#18181B"/>
<path d="M224.576 48.1165H221.585V54.8448C221.585 55.183 221.656 55.4144 221.799 55.5389C221.941 55.6635 222.137 55.7258 222.386 55.7258C222.618 55.7258 222.876 55.6813 223.161 55.5923C223.463 55.5033 223.775 55.3699 224.095 55.1919L225.003 57.4613C224.647 57.8173 224.113 58.1288 223.401 58.3958C222.707 58.6628 221.995 58.7963 221.265 58.7963C219.948 58.7963 219.031 58.4848 218.515 57.8618C217.999 57.221 217.741 56.3399 217.741 55.2186V48.1165H215.631V45.0728H217.741V40.7209L221.585 39.9733V45.0728H224.576V48.1165Z" fill="#18181B"/>
<path d="M233.451 55.7258C233.682 55.7258 233.94 55.6813 234.225 55.5923C234.51 55.5033 234.812 55.3699 235.133 55.1919L236.04 57.4613C235.684 57.8173 235.159 58.1288 234.465 58.3958C233.771 58.6628 233.059 58.7963 232.329 58.7963C231.012 58.7963 230.095 58.4848 229.579 57.8618C229.063 57.221 228.805 56.3399 228.805 55.2186V48.2233H227.417V45.2597H232.703V54.8448C232.703 55.183 232.765 55.4144 232.89 55.5389C233.014 55.6635 233.201 55.7258 233.451 55.7258ZM232.703 42.9903H228.538V39.1723H232.703V42.9903Z" fill="#18181B"/>
<path d="M244.345 44.8058C246.374 44.8058 247.994 45.3665 249.204 46.4879C250.415 47.6093 251.02 49.3714 251.02 51.7743C251.02 54.0705 250.441 55.8148 249.285 57.0074C248.145 58.2 246.499 58.7963 244.345 58.7963C242.174 58.7963 240.509 58.2 239.352 57.0074C238.213 55.8148 237.644 54.0705 237.644 51.7743C237.644 49.3714 238.249 47.6093 239.459 46.4879C240.687 45.3665 242.316 44.8058 244.345 44.8058ZM241.595 51.7743C241.595 53.0559 241.791 54.0349 242.183 54.7113C242.592 55.3699 243.313 55.6991 244.345 55.6991C245.36 55.6991 246.072 55.3699 246.481 54.7113C246.89 54.0349 247.095 53.0559 247.095 51.7743C247.095 50.4394 246.89 49.4693 246.481 48.8641C246.089 48.2411 245.386 47.9297 244.372 47.9297C243.322 47.9297 242.592 48.2411 242.183 48.8641C241.791 49.4693 241.595 50.4394 241.595 51.7743Z" fill="#18181B"/>
<path d="M266.388 58.4492H262.49V49.5583C262.49 48.9887 262.383 48.5704 262.169 48.3034C261.973 48.0187 261.644 47.8763 261.181 47.8763C260.612 47.8763 260.007 48.0365 259.366 48.3568C258.725 48.6594 258.218 49.0065 257.844 49.3981V58.4492H253.946V45.2597H257.524L257.737 46.1942C258.218 45.8204 258.769 45.5 259.392 45.233C260.015 44.9482 260.781 44.8058 261.689 44.8058C263.255 44.8058 264.43 45.144 265.213 45.8204C265.996 46.4968 266.388 47.5203 266.388 48.8908V58.4492Z" fill="#18181B"/>
<path d="M277.053 43.1505C277.053 41.7799 277.356 40.8276 277.961 40.2937C278.584 39.7419 279.581 39.466 280.951 39.466H284.289C286.905 39.466 288.73 39.9911 289.762 41.0412C290.812 42.0736 291.337 43.6044 291.337 45.6335C291.337 47.9475 290.759 49.5583 289.602 50.4661C288.445 51.3739 286.665 51.8277 284.262 51.8277H281.005V58.4492H277.053V43.1505ZM283.942 42.5097H282.286C281.77 42.5097 281.423 42.6165 281.245 42.8301C281.085 43.0259 281.005 43.3285 281.005 43.7379V48.7573H283.888C285.027 48.7573 285.882 48.517 286.451 48.0365C287.021 47.5559 287.306 46.7549 287.306 45.6335C287.306 44.4943 287.021 43.6934 286.451 43.2306C285.9 42.75 285.063 42.5097 283.942 42.5097Z" fill="#18181B"/>
<path d="M300.429 44.8058C302.458 44.8058 304.078 45.3665 305.289 46.4879C306.499 47.6093 307.104 49.3714 307.104 51.7743C307.104 54.0705 306.526 55.8148 305.369 57.0074C304.229 58.2 302.583 58.7963 300.429 58.7963C298.258 58.7963 296.593 58.2 295.436 57.0074C294.297 55.8148 293.728 54.0705 293.728 51.7743C293.728 49.3714 294.333 47.6093 295.543 46.4879C296.771 45.3665 298.4 44.8058 300.429 44.8058ZM297.679 51.7743C297.679 53.0559 297.875 54.0349 298.267 54.7113C298.676 55.3699 299.397 55.6991 300.429 55.6991C301.444 55.6991 302.156 55.3699 302.565 54.7113C302.975 54.0349 303.179 53.0559 303.179 51.7743C303.179 50.4394 302.975 49.4693 302.565 48.8641C302.174 48.2411 301.471 47.9297 300.456 47.9297C299.406 47.9297 298.676 48.2411 298.267 48.8641C297.875 49.4693 297.679 50.4394 297.679 51.7743Z" fill="#18181B"/>
<path d="M315.53 55.7258C315.761 55.7258 316.019 55.6813 316.304 55.5923C316.589 55.5033 316.892 55.3699 317.212 55.1919L318.12 57.4613C317.764 57.8173 317.239 58.1288 316.545 58.3958C315.85 58.6628 315.138 58.7963 314.409 58.7963C313.091 58.7963 312.175 58.4848 311.659 57.8618C311.142 57.221 310.884 56.3399 310.884 55.2186V48.2233H309.496V45.2597H314.782V54.8448C314.782 55.183 314.845 55.4144 314.969 55.5389C315.094 55.6635 315.281 55.7258 315.53 55.7258ZM314.782 42.9903H310.617V39.1723H314.782V42.9903Z" fill="#18181B"/>
<path d="M332.432 58.4492H328.534V49.5583C328.534 48.9887 328.427 48.5704 328.213 48.3034C328.018 48.0187 327.688 47.8763 327.225 47.8763C326.656 47.8763 326.051 48.0365 325.41 48.3568C324.769 48.6594 324.262 49.0065 323.888 49.3981V58.4492H319.99V45.2597H323.568L323.781 46.1942C324.262 45.8204 324.814 45.5 325.437 45.233C326.06 44.9482 326.825 44.8058 327.733 44.8058C329.299 44.8058 330.474 45.144 331.257 45.8204C332.04 46.4968 332.432 47.5203 332.432 48.8908V58.4492Z" fill="#18181B"/>
<path d="M344.044 48.1165H341.054V54.8448C341.054 55.183 341.125 55.4144 341.268 55.5389C341.41 55.6635 341.606 55.7258 341.855 55.7258C342.086 55.7258 342.345 55.6813 342.629 55.5923C342.932 55.5033 343.243 55.3699 343.564 55.1919L344.472 57.4613C344.116 57.8173 343.582 58.1288 342.87 58.3958C342.175 58.6628 341.463 58.7963 340.734 58.7963C339.416 58.7963 338.5 58.4848 337.984 57.8618C337.467 57.221 337.209 56.3399 337.209 55.2186V48.1165H335.1V45.0728H337.209V40.7209L341.054 39.9733V45.0728H344.044V48.1165Z" fill="#18181B"/>
<path d="M193.663 39.466L200.205 58.4492H196.253L194.918 54.4176H187.683L186.321 58.4492H182.343L189.071 39.466H193.663ZM188.51 51.6676H194.037L191.26 42.9102L188.51 51.6676Z" stroke="#18181B" stroke-width="0.821516" mask="url(#path-12-outside-1_1004_6356)"/>
<path d="M212.712 54.7113L213.62 57.4079C213.104 57.8351 212.436 58.1733 211.617 58.4225C210.798 58.6717 209.846 58.7963 208.76 58.7963C206.536 58.7963 204.818 58.2712 203.607 57.221C202.415 56.153 201.819 54.5511 201.819 52.4151V51.2671C201.819 49.9499 202.014 48.873 202.406 48.0365C202.815 47.1999 203.349 46.5413 204.008 46.0607C204.649 45.5801 205.387 45.2508 206.224 45.0728C207.061 44.8948 207.915 44.8058 208.787 44.8058C210.015 44.8058 210.976 44.9393 211.671 45.2063C212.365 45.4733 212.979 45.7848 213.513 46.1408L212.632 48.8641C212.027 48.5615 211.404 48.3301 210.763 48.1699C210.14 48.0098 209.481 47.9297 208.787 47.9297C207.612 47.9297 206.802 48.2945 206.358 49.0243C205.93 49.7363 205.717 50.6797 205.717 51.8544C205.717 53.1894 205.966 54.1684 206.464 54.7914C206.963 55.3965 207.728 55.6991 208.76 55.6991C209.383 55.6991 210.024 55.6368 210.683 55.5122C211.341 55.3698 212.018 55.1029 212.712 54.7113Z" stroke="#18181B" stroke-width="0.821516" mask="url(#path-12-outside-1_1004_6356)"/>
<path d="M224.576 48.1165H221.585V54.8448C221.585 55.183 221.656 55.4144 221.799 55.5389C221.941 55.6635 222.137 55.7258 222.386 55.7258C222.618 55.7258 222.876 55.6813 223.161 55.5923C223.463 55.5033 223.775 55.3699 224.095 55.1919L225.003 57.4613C224.647 57.8173 224.113 58.1288 223.401 58.3958C222.707 58.6628 221.995 58.7963 221.265 58.7963C219.948 58.7963 219.031 58.4848 218.515 57.8618C217.999 57.221 217.741 56.3399 217.741 55.2186V48.1165H215.631V45.0728H217.741V40.7209L221.585 39.9733V45.0728H224.576V48.1165Z" stroke="#18181B" stroke-width="0.821516" mask="url(#path-12-outside-1_1004_6356)"/>
<path d="M233.451 55.7258C233.682 55.7258 233.94 55.6813 234.225 55.5923C234.51 55.5033 234.812 55.3699 235.133 55.1919L236.04 57.4613C235.684 57.8173 235.159 58.1288 234.465 58.3958C233.771 58.6628 233.059 58.7963 232.329 58.7963C231.012 58.7963 230.095 58.4848 229.579 57.8618C229.063 57.221 228.805 56.3399 228.805 55.2186V48.2233H227.417V45.2597H232.703V54.8448C232.703 55.183 232.765 55.4144 232.89 55.5389C233.014 55.6635 233.201 55.7258 233.451 55.7258ZM232.703 42.9903H228.538V39.1723H232.703V42.9903Z" stroke="#18181B" stroke-width="0.821516" mask="url(#path-12-outside-1_1004_6356)"/>
<path d="M244.345 44.8058C246.374 44.8058 247.994 45.3665 249.204 46.4879C250.415 47.6093 251.02 49.3714 251.02 51.7743C251.02 54.0705 250.441 55.8148 249.285 57.0074C248.145 58.2 246.499 58.7963 244.345 58.7963C242.174 58.7963 240.509 58.2 239.352 57.0074C238.213 55.8148 237.644 54.0705 237.644 51.7743C237.644 49.3714 238.249 47.6093 239.459 46.4879C240.687 45.3665 242.316 44.8058 244.345 44.8058ZM241.595 51.7743C241.595 53.0559 241.791 54.0349 242.183 54.7113C242.592 55.3699 243.313 55.6991 244.345 55.6991C245.36 55.6991 246.072 55.3699 246.481 54.7113C246.89 54.0349 247.095 53.0559 247.095 51.7743C247.095 50.4394 246.89 49.4693 246.481 48.8641C246.089 48.2411 245.386 47.9297 244.372 47.9297C243.322 47.9297 242.592 48.2411 242.183 48.8641C241.791 49.4693 241.595 50.4394 241.595 51.7743Z" stroke="#18181B" stroke-width="0.821516" mask="url(#path-12-outside-1_1004_6356)"/>
<path d="M266.388 58.4492H262.49V49.5583C262.49 48.9887 262.383 48.5704 262.169 48.3034C261.973 48.0187 261.644 47.8763 261.181 47.8763C260.612 47.8763 260.007 48.0365 259.366 48.3568C258.725 48.6594 258.218 49.0065 257.844 49.3981V58.4492H253.946V45.2597H257.524L257.737 46.1942C258.218 45.8204 258.769 45.5 259.392 45.233C260.015 44.9482 260.781 44.8058 261.689 44.8058C263.255 44.8058 264.43 45.144 265.213 45.8204C265.996 46.4968 266.388 47.5203 266.388 48.8908V58.4492Z" stroke="#18181B" stroke-width="0.821516" mask="url(#path-12-outside-1_1004_6356)"/>
<path d="M277.053 43.1505C277.053 41.7799 277.356 40.8276 277.961 40.2937C278.584 39.7419 279.581 39.466 280.951 39.466H284.289C286.905 39.466 288.73 39.9911 289.762 41.0412C290.812 42.0736 291.337 43.6044 291.337 45.6335C291.337 47.9475 290.759 49.5583 289.602 50.4661C288.445 51.3739 286.665 51.8277 284.262 51.8277H281.005V58.4492H277.053V43.1505ZM283.942 42.5097H282.286C281.77 42.5097 281.423 42.6165 281.245 42.8301C281.085 43.0259 281.005 43.3285 281.005 43.7379V48.7573H283.888C285.027 48.7573 285.882 48.517 286.451 48.0365C287.021 47.5559 287.306 46.7549 287.306 45.6335C287.306 44.4943 287.021 43.6934 286.451 43.2306C285.9 42.75 285.063 42.5097 283.942 42.5097Z" stroke="#18181B" stroke-width="0.821516" mask="url(#path-12-outside-1_1004_6356)"/>
<path d="M300.429 44.8058C302.458 44.8058 304.078 45.3665 305.289 46.4879C306.499 47.6093 307.104 49.3714 307.104 51.7743C307.104 54.0705 306.526 55.8148 305.369 57.0074C304.229 58.2 302.583 58.7963 300.429 58.7963C298.258 58.7963 296.593 58.2 295.436 57.0074C294.297 55.8148 293.728 54.0705 293.728 51.7743C293.728 49.3714 294.333 47.6093 295.543 46.4879C296.771 45.3665 298.4 44.8058 300.429 44.8058ZM297.679 51.7743C297.679 53.0559 297.875 54.0349 298.267 54.7113C298.676 55.3699 299.397 55.6991 300.429 55.6991C301.444 55.6991 302.156 55.3699 302.565 54.7113C302.975 54.0349 303.179 53.0559 303.179 51.7743C303.179 50.4394 302.975 49.4693 302.565 48.8641C302.174 48.2411 301.471 47.9297 300.456 47.9297C299.406 47.9297 298.676 48.2411 298.267 48.8641C297.875 49.4693 297.679 50.4394 297.679 51.7743Z" stroke="#18181B" stroke-width="0.821516" mask="url(#path-12-outside-1_1004_6356)"/>
<path d="M315.53 55.7258C315.761 55.7258 316.019 55.6813 316.304 55.5923C316.589 55.5033 316.892 55.3699 317.212 55.1919L318.12 57.4613C317.764 57.8173 317.239 58.1288 316.545 58.3958C315.85 58.6628 315.138 58.7963 314.409 58.7963C313.091 58.7963 312.175 58.4848 311.659 57.8618C311.142 57.221 310.884 56.3399 310.884 55.2186V48.2233H309.496V45.2597H314.782V54.8448C314.782 55.183 314.845 55.4144 314.969 55.5389C315.094 55.6635 315.281 55.7258 315.53 55.7258ZM314.782 42.9903H310.617V39.1723H314.782V42.9903Z" stroke="#18181B" stroke-width="0.821516" mask="url(#path-12-outside-1_1004_6356)"/>
<path d="M332.432 58.4492H328.534V49.5583C328.534 48.9887 328.427 48.5704 328.213 48.3034C328.018 48.0187 327.688 47.8763 327.225 47.8763C326.656 47.8763 326.051 48.0365 325.41 48.3568C324.769 48.6594 324.262 49.0065 323.888 49.3981V58.4492H319.99V45.2597H323.568L323.781 46.1942C324.262 45.8204 324.814 45.5 325.437 45.233C326.06 44.9482 326.825 44.8058 327.733 44.8058C329.299 44.8058 330.474 45.144 331.257 45.8204C332.04 46.4968 332.432 47.5203 332.432 48.8908V58.4492Z" stroke="#18181B" stroke-width="0.821516" mask="url(#path-12-outside-1_1004_6356)"/>
<path d="M344.044 48.1165H341.054V54.8448C341.054 55.183 341.125 55.4144 341.268 55.5389C341.41 55.6635 341.606 55.7258 341.855 55.7258C342.086 55.7258 342.345 55.6813 342.629 55.5923C342.932 55.5033 343.243 55.3699 343.564 55.1919L344.472 57.4613C344.116 57.8173 343.582 58.1288 342.87 58.3958C342.175 58.6628 341.463 58.7963 340.734 58.7963C339.416 58.7963 338.5 58.4848 337.984 57.8618C337.467 57.221 337.209 56.3399 337.209 55.2186V48.1165H335.1V45.0728H337.209V40.7209L341.054 39.9733V45.0728H344.044V48.1165Z" stroke="#18181B" stroke-width="0.821516" mask="url(#path-12-outside-1_1004_6356)"/>
<path d="M146 41.5797C146 40.1672 147.145 39.0221 148.558 39.0221H162.893C164.306 39.0221 165.451 40.1672 165.451 41.5797V49.9887C165.451 51.1867 164.619 52.2242 163.45 52.4851L149.115 55.6829C147.517 56.0393 146 54.8237 146 53.1866V41.5797Z" fill="#18181B"/>
<rect x="162.594" y="43.8631" width="1.27883" height="3.83649" rx="0.639416" fill="white"/>
<rect x="160.034" y="43.8631" width="1.27883" height="3.83649" rx="0.639416" fill="white"/>
<path d="M176.969 52.834C176.969 51.4214 175.824 50.2763 174.411 50.2763H164.17C162.758 50.2763 161.613 51.4214 161.613 52.834V58.5027C161.613 59.7007 162.444 60.7381 163.614 60.999L173.854 63.2833C175.452 63.6398 176.969 62.4241 176.969 60.787V52.834Z" fill="#60A5FA"/>
<rect width="1.02306" height="2.81343" rx="0.511532" transform="matrix(-1 0 0 1 164.428 54.3681)" fill="#CBE2FF"/>
<rect width="1.02306" height="2.81343" rx="0.511532" transform="matrix(-1 0 0 1 166.475 54.3681)" fill="#CBE2FF"/>
<path d="M169.802 47.8722L168.01 46.7053" stroke="#60A5FA" stroke-width="0.532493" stroke-linecap="round"/>
<path d="M168.011 44.3233L169.802 43.1565" stroke="#60A5FA" stroke-width="0.532493" stroke-linecap="round"/>
<path d="M168.011 44.3233L169.802 43.1565" stroke="#60A5FA" stroke-width="0.532493" stroke-linecap="round"/>
<path d="M168.011 45.5214H169.787" stroke="#60A5FA" stroke-width="0.532493" stroke-linecap="round"/>
<path d="M613.219 44.5879C615.346 44.5879 616.91 46.2051 616.928 48.4902C616.91 50.8105 615.346 52.375 613.219 52.375C611.092 52.375 609.545 50.8105 609.545 48.4902C609.545 46.2051 611.092 44.5879 613.219 44.5879ZM613.219 46.4863C612.234 46.4863 611.549 47.2246 611.549 48.4902C611.549 49.7559 612.234 50.5117 613.219 50.5117C614.186 50.5117 614.871 49.7559 614.889 48.4902C614.871 47.2246 614.186 46.4863 613.219 46.4863ZM623.221 43.6387V53.1836H621.094V49.2988H619.775V53.0957H617.701V43.9199H619.775V47.5059H621.094V43.6387H623.221ZM623.221 53.8867V59.6172H620.988V55.6797H612.164V53.8867H623.221ZM631.025 46.3809C631.025 48.5957 632.115 50.793 634.646 51.7246L633.398 53.4648C631.72 52.8057 630.568 51.5488 629.918 49.9668C629.215 51.6543 627.976 52.9727 626.156 53.6582L624.961 51.9004C627.58 50.9688 628.758 48.7188 628.758 46.3809V44.5352H631.025V46.3809ZM638.514 43.6387V55.5039H636.281V50.6172H633.539V48.8066H636.281V47.5234H633.539V45.7129H636.281V43.6387H638.514ZM638.848 57.543V59.3359H627.861V54.3613H630.129V57.543H638.848ZM659.379 55.9609V57.8418H644.736V55.9609H650.889V53.0781H645.949V51.3203H648.094V46.75H645.879V44.957H658.148V46.75H655.898V51.3203H658.078V53.0781H653.121V55.9609H659.379ZM650.344 51.3203H653.684V46.75H650.344V51.3203ZM673.688 43.6387V55.1348H671.438V43.6387H673.688ZM674.109 57.543V59.3359H662.965V53.9746H665.232V57.543H674.109ZM664.916 44.6582C667.377 44.6582 669.293 46.3457 669.293 48.6836C669.293 51.0742 667.377 52.7441 664.916 52.7441C662.455 52.7441 660.539 51.0742 660.539 48.6836C660.539 46.3457 662.455 44.6582 664.916 44.6582ZM664.916 46.6094C663.668 46.5918 662.719 47.3828 662.736 48.6836C662.719 50.0195 663.668 50.793 664.916 50.793C666.129 50.793 667.078 50.0195 667.078 48.6836C667.078 47.3828 666.129 46.5918 664.916 46.6094ZM688.893 51.8828V53.6582H677.572V44.7988H688.77V46.6094H679.857V48.2969H688.4V50.0547H679.857V51.8828H688.893ZM690.492 55.9258V57.7539H675.85V55.9258H690.492Z" fill="#AFAFC1"/>
<path d="M749.117 55.8906V57.7539H734.475V55.8906H749.117ZM747.887 45.0273V46.8203H745.637V51.6719H747.816V53.4297H735.688V51.6719H737.832V46.8203H735.617V45.0273H747.887ZM740.082 51.6719H743.422V46.8203H740.082V51.6719ZM764.674 55.9961V57.8418H750.031V55.9961H756.201V53.5879H751.719V48.209H760.771V46.4512H751.701V44.6582H762.986V49.9668H753.969V51.7598H763.355V53.5879H758.434V55.9961H764.674ZM776.152 43.9375V53.2891H774.025V49.3867H772.25V47.5762H774.025V43.9375H776.152ZM770.633 47.0664C770.633 48.7539 771.477 50.4238 773.533 51.2148L772.408 52.9375C771.046 52.4102 770.123 51.4609 769.578 50.3008C768.989 51.6016 768.005 52.665 766.537 53.2539L765.359 51.4785C767.557 50.6523 768.453 48.8242 768.453 47.0488V46.5742H765.904V44.7812H773.023V46.5742H770.633V47.0664ZM779.334 43.6211V53.377H777.207V43.6211H779.334ZM779.334 53.957V59.6172H777.102V55.7324H768.277V53.957H779.334ZM794.188 51.8828V53.6582H782.867V44.7988H794.064V46.6094H785.152V48.2969H793.695V50.0547H785.152V51.8828H794.188ZM795.787 55.9258V57.7539H781.145V55.9258H795.787ZM809.814 44.7812V45.7832C809.814 46.8906 809.814 48.4902 809.445 50.4766L807.248 50.2656C807.529 48.7275 807.6 47.5674 807.617 46.6094H801.588V44.7812H809.814ZM805.842 48.4727V51.5312C807.433 51.4697 809.067 51.3467 810.57 51.127L810.693 52.7441C807.371 53.3594 803.609 53.4121 800.832 53.4297L800.639 51.6367C801.535 51.6367 802.546 51.6367 803.609 51.6016V48.4727H805.842ZM813.734 43.6211V48.4902H815.668V50.3711H813.734V55.5918H811.432V43.6211H813.734ZM814.227 57.543V59.3359H802.994V54.5195H805.244V57.543H814.227ZM829.818 43.6211V59.6523H827.586V43.6211H829.818ZM824.861 44.957V51.127H819.588V54.0625C822.022 54.0537 824.097 53.9131 826.443 53.5352L826.637 55.3457C824 55.8027 821.627 55.9082 818.709 55.9082H817.268V49.3516H822.576V46.7676H817.25V44.957H824.861Z" fill="#3B82F6"/>
<g clip-path="url(#clip2_1004_6356)">
<circle cx="1219.5" cy="51.5" r="13.5" fill="#FAFAFA"/>
<path d="M1225.06 47.2529C1225.06 46.2359 1224.24 45.4114 1223.22 45.4114H1214.2C1213.18 45.4114 1212.35 46.2359 1212.35 47.2529V53.7894C1212.35 54.6297 1212.92 55.3634 1213.74 55.5727L1222.76 57.8939C1223.93 58.1936 1225.06 57.3137 1225.06 56.1105V47.2529Z" fill="#3B82F6"/>
<rect width="0.841798" height="2.52539" rx="0.420899" transform="matrix(-1 0 0 1 1215.46 49.9037)" fill="white"/>
<rect width="0.841798" height="2.52539" rx="0.420899" transform="matrix(-1 0 0 1 1217.15 49.9037)" fill="white"/>
</g>
<path d="M1245.94 45.125C1245.94 48.7969 1243.45 51.3438 1239.25 52.4219L1238.56 51.0781C1241.85 50.2266 1243.78 48.5625 1244.08 46.5H1239.38V45.125H1245.94ZM1250.23 44.2812V52.1875H1248.48V44.2812H1250.23ZM1250.23 52.7969V58.2031H1240.91V52.7969H1250.23ZM1242.62 54.1719V56.8281H1248.53V54.1719H1242.62ZM1257.34 47.6562C1257.33 50.1719 1258.59 52.7344 1260.78 53.7812L1259.72 55.1719C1258.19 54.3984 1257.09 52.9062 1256.48 51.1094C1255.87 53.0312 1254.71 54.625 1253.09 55.4375L1252.03 54.0469C1254.3 52.9688 1255.59 50.2656 1255.61 47.6562V45.4062H1257.34V47.6562ZM1263.36 44.2656V49.7969H1265.53V51.2812H1263.36V58.3906H1261.62V44.2656H1263.36ZM1277.27 44.2812V47.6562H1279.25V49.0938H1277.27V52.7656H1275.53V44.2812H1277.27ZM1273.11 45.1406V49.2031H1268.41V50.6875C1270.8 50.6719 1272.45 50.5859 1274.38 50.2656L1274.56 51.6562C1272.45 52.0312 1270.62 52.125 1267.83 52.1094H1266.67V47.8906H1271.41V46.5156H1266.66V45.1406H1273.11ZM1272.66 53.0781C1275.56 53.0938 1277.39 54.0781 1277.41 55.75C1277.39 57.4062 1275.56 58.3594 1272.66 58.3594C1269.69 58.3594 1267.88 57.4062 1267.88 55.75C1267.88 54.0781 1269.69 53.0938 1272.66 53.0781ZM1272.66 54.4375C1270.69 54.4375 1269.56 54.9062 1269.58 55.75C1269.56 56.5938 1270.69 57.0469 1272.66 57.0469C1274.61 57.0469 1275.69 56.5938 1275.69 55.75C1275.69 54.9062 1274.61 54.4375 1272.66 54.4375ZM1291.59 44.3281V52.2344H1290.12V44.3281H1291.59ZM1282.34 45.1406V50.0469C1284.6 50.0312 1286.59 49.8672 1288.69 49.4219L1288.89 50.6562C1286.58 51.125 1284.47 51.2969 1282.02 51.2969H1280.86V45.1406H1282.34ZM1291.59 52.875V58.1406H1282.42V52.875H1291.59ZM1283.88 54.0469V56.9531H1290.14V54.0469H1283.88Z" fill="#18181B"/>
<defs>
<clipPath id="clip0_1004_6356">
<rect width="20" height="20" fill="white" transform="matrix(-1 0 0 -1 1254 211.5)"/>
</clipPath>
<clipPath id="clip1_1004_6356">
<rect width="18.5417" height="18.5417" fill="white" transform="translate(622.542 808.615)"/>
</clipPath>
<clipPath id="clip2_1004_6356">
<rect x="1206" y="38" width="27" height="27" rx="13.5" fill="white"/>
</clipPath>
</defs>
</svg>
