<svg width="1440" height="1024" viewBox="0 0 1440 1024" fill="none" xmlns="http://www.w3.org/2000/svg">
<rect width="1440" height="1024" fill="white"/>
<path d="M630.085 584.087C630.085 587.31 627.638 589.624 623.844 590.635L623.463 589.902C626.737 589.031 628.883 587.222 629.118 584.849H624.123V584.087H630.085ZM633.908 583.223V590.562H632.985V583.223H633.908ZM633.908 591.206V595.952H625.573V591.206H633.908ZM626.481 591.953V595.176H633V591.953H626.481ZM640.403 586.87C640.388 589.126 642.073 591.47 643.831 592.349L643.26 593.096C641.839 592.334 640.542 590.737 639.964 588.877C639.392 590.847 638.067 592.554 636.638 593.345L636.038 592.612C637.825 591.689 639.48 589.214 639.495 586.87V584.38H640.403V586.87ZM646.145 583.223V588.54H648.372V589.36H646.145V596.143H645.222V583.223H646.145ZM659.174 583.223V586.548H661.181V587.324H659.174V591.045H658.251V583.223H659.174ZM650.707 589.434C652.992 589.434 654.721 589.346 656.845 588.994L656.933 589.785C654.779 590.137 653.036 590.225 650.707 590.21H649.711V586.665H654.604V584.819H649.682V584.043H655.512V587.412H650.634V589.434H650.707ZM655.058 591.484C657.68 591.484 659.276 592.334 659.276 593.799C659.276 595.264 657.68 596.113 655.058 596.113C652.406 596.113 650.81 595.264 650.81 593.799C650.81 592.334 652.406 591.484 655.058 591.484ZM655.058 592.231C652.992 592.231 651.703 592.832 651.718 593.799C651.703 594.766 652.992 595.366 655.058 595.366C657.094 595.366 658.383 594.766 658.383 593.799C658.383 592.832 657.094 592.231 655.058 592.231ZM672.627 583.223V590.576H671.719V583.223H672.627ZM663.794 583.984V588.672H663.882C666.035 588.672 668.013 588.525 670.152 588.071L670.298 588.848C668.057 589.302 666.079 589.463 663.882 589.463H662.857V583.984H663.794ZM672.627 591.206V595.952H664.307V591.206H672.627ZM665.23 591.953V595.176H671.734V591.953H665.23ZM679.167 584.189C681.203 584.189 682.609 585.405 682.624 587.178C682.609 588.965 681.203 590.166 679.167 590.166C677.145 590.166 675.71 588.965 675.71 587.178C675.71 585.405 677.145 584.189 679.167 584.189ZM679.167 585.01C677.687 585.01 676.603 585.918 676.618 587.178C676.603 588.438 677.687 589.36 679.167 589.346C680.646 589.36 681.715 588.438 681.715 587.178C681.715 585.918 680.646 585.01 679.167 585.01ZM685.451 583.223V596.157H684.528V583.223H685.451ZM675.006 592.422C677.423 592.437 680.734 592.422 683.634 591.982L683.708 592.686C680.719 593.242 677.497 593.242 675.153 593.242L675.006 592.422ZM694.53 584.043C696.23 584.043 697.475 585.273 697.475 587.061C697.475 588.833 696.23 590.049 694.53 590.049C692.802 590.049 691.571 588.833 691.586 587.061C691.571 585.273 692.802 584.043 694.53 584.043ZM694.53 584.849C693.314 584.849 692.406 585.801 692.421 587.061C692.406 588.306 693.314 589.272 694.53 589.258C695.731 589.272 696.625 588.306 696.64 587.061C696.625 585.801 695.731 584.849 694.53 584.849ZM702.338 583.223V590.913H701.459V587.397H699.54V590.811H698.646V583.472H699.54V586.621H701.459V583.223H702.338ZM702.338 591.675V596.143H701.444V592.437H693.695V591.675H702.338ZM708.614 585.669C708.599 587.588 710.034 589.39 711.851 590.107L711.338 590.84C709.903 590.247 708.709 589.001 708.174 587.471C707.632 589.133 706.394 590.444 704.878 591.089L704.38 590.327C706.24 589.595 707.705 587.734 707.705 585.669V583.94H708.614V585.669ZM714.971 583.223V592.905H714.048V588.701H711.236V587.925H714.048V585.991H711.236V585.215H714.048V583.223H714.971ZM715.279 595.059V595.835H706.695V591.865H707.617V595.059H715.279ZM729.069 593.682V594.487H717.233V593.682H722.638V590.503H718.332V589.741H720.441V585.303H718.317V584.526H727.882V585.303H725.758V589.741H727.868V590.503H723.546V593.682H729.069ZM721.364 589.741H724.85V585.303H721.364V589.741ZM740.764 583.223V592.729H739.842V583.223H740.764ZM741.189 595.059V595.835H732.517V591.748H733.44V595.059H741.189ZM733.821 584.16C735.74 584.16 737.161 585.449 737.161 587.295C737.161 589.155 735.74 590.459 733.821 590.444C731.902 590.459 730.467 589.155 730.481 587.295C730.467 585.449 731.902 584.16 733.821 584.16ZM733.821 584.966C732.415 584.966 731.375 585.962 731.375 587.295C731.375 588.643 732.415 589.624 733.821 589.624C735.213 589.624 736.267 588.643 736.267 587.295C736.267 585.962 735.213 584.966 733.821 584.966ZM753.5 590.298V591.074H744.623V584.395H753.339V585.171H745.561V587.28H753.075V588.042H745.561V590.298H753.5ZM754.892 593.608V594.399H743.056V593.608H754.892ZM765.913 583.223V588.569H768.096V589.36H765.913V596.143H764.99V583.223H765.913ZM762.603 584.629C762.588 588.218 760.801 591.543 756.626 593.608L756.113 592.876C759.556 591.177 761.431 588.525 761.665 585.405H756.685V584.629H762.603ZM774.832 590.796V592.524H777.512V590.796H778.362V595.952H773.953V590.796H774.832ZM774.832 595.205H777.512V593.257H774.832V595.205ZM781.995 591.865C781.995 593.242 782.874 594.722 784.456 595.337L783.958 596.055C782.735 595.542 781.929 594.561 781.541 593.433C781.145 594.553 780.325 595.535 779.138 596.055L778.655 595.337C780.208 594.692 781.087 593.213 781.101 591.865V590.723H781.995V591.865ZM775.989 583.823C777.747 583.823 779.05 584.819 779.27 586.343H782.171V583.223H783.093V590.063H782.171V587.134H779.285C779.087 588.687 777.769 589.712 775.989 589.712C774.026 589.712 772.649 588.525 772.664 586.768C772.649 585.01 774.026 583.823 775.989 583.823ZM775.989 584.6C774.553 584.6 773.543 585.522 773.543 586.768C773.543 588.013 774.553 588.936 775.989 588.95C777.395 588.936 778.406 588.013 778.406 586.768C778.406 585.522 777.395 584.6 775.989 584.6ZM788.798 584.248C790.563 584.248 791.823 585.793 791.977 588.247H795.097V583.223H796.005V596.157H795.097V589.009H791.991C791.881 591.565 790.607 593.184 788.798 593.184C786.908 593.184 785.59 591.44 785.604 588.716C785.59 585.991 786.908 584.248 788.798 584.248ZM788.798 585.068C787.421 585.068 786.483 586.562 786.483 588.716C786.483 590.884 787.421 592.363 788.798 592.363C790.16 592.363 791.112 590.884 791.112 588.716C791.112 586.562 790.16 585.068 788.798 585.068ZM810.103 593.638V594.429H798.267V593.638H801.284V590.049C800.149 589.478 799.468 588.547 799.468 587.383C799.468 585.391 801.402 584.102 804.141 584.087C806.895 584.102 808.828 585.391 808.828 587.383C808.828 588.533 808.162 589.456 807.056 590.02V593.638H810.103ZM804.141 584.863C801.944 584.849 800.347 585.874 800.347 587.383C800.347 588.862 801.944 589.902 804.141 589.888C806.338 589.902 807.949 588.862 807.949 587.383C807.949 585.874 806.338 584.849 804.141 584.863ZM802.193 593.638H806.133V590.371C805.54 590.547 804.866 590.635 804.141 590.635C803.43 590.635 802.771 590.547 802.193 590.386V593.638ZM812.453 595.073C812.013 595.073 811.662 594.722 811.662 594.297C811.662 593.857 812.013 593.506 812.453 593.506C812.877 593.506 813.229 593.857 813.229 594.297C813.229 594.722 812.877 595.073 812.453 595.073ZM597.46 627.623V628.429H585.624V627.623H597.46ZM596.274 618.585V619.361H594.15V624.078H596.259V624.84H586.723V624.078H588.832V619.361H586.708V618.585H596.274ZM589.755 624.078H593.241V619.361H589.755V624.078ZM610.371 627.696V628.487H598.536V627.696H603.955V625.089H600.059V621.222H607.925V618.995H600.015V618.219H608.833V621.998H600.967V624.312H609.141V625.089H604.878V627.696H610.371ZM619.884 617.516V625.001H618.991V621.368H616.823V620.592H618.991V617.516H619.884ZM615.197 619.977C615.197 621.397 616.222 622.994 617.848 623.683L617.35 624.4C616.112 623.858 615.219 622.818 614.787 621.646C614.333 622.972 613.388 624.144 612.077 624.737L611.579 624.005C613.234 623.287 614.303 621.559 614.303 619.977V619.098H611.769V618.321H617.585V619.098H615.197V619.977ZM622.375 617.223V625.118H621.496V617.223H622.375ZM622.375 625.733V630.143H621.481V626.51H613.732V625.733H622.375ZM634.803 624.298V625.074H625.926V618.395H634.641V619.171H626.863V621.28H634.378V622.042H626.863V624.298H634.803ZM636.194 627.608V628.399H624.358V627.608H636.194ZM649.076 623.287V624.034H637.255V623.287H649.076ZM647.582 625.206V627.857H639.643V629.249H648.022V629.952H638.734V627.169H646.659V625.924H638.705V625.206H647.582ZM647.538 617.662V620.211H639.716V621.485H647.758V622.188H638.808V619.552H646.615V618.351H638.764V617.662H647.538ZM665.524 624.137V624.898H653.732V624.137H659.167V622.687H655.329V617.604H664.03V618.38H656.266V619.757H663.664V620.475H656.266V621.939H664.088V622.687H660.089V624.137H665.524ZM659.635 625.997C662.462 625.997 664.059 626.715 664.059 628.048C664.059 629.396 662.462 630.099 659.635 630.099C656.779 630.099 655.182 629.396 655.182 628.048C655.182 626.715 656.779 625.997 659.635 625.997ZM659.635 626.715C657.409 626.715 656.105 627.213 656.12 628.048C656.105 628.912 657.409 629.381 659.635 629.366C661.833 629.381 663.136 628.912 663.136 628.048C663.136 627.213 661.833 626.715 659.635 626.715ZM673.191 619.537V620.299H666.629V619.537H669.441V617.618H670.379V619.537H673.191ZM669.91 621.266C671.521 621.28 672.679 622.467 672.679 624.166C672.679 625.88 671.521 627.081 669.91 627.081C668.299 627.081 667.141 625.88 667.141 624.166C667.141 622.467 668.299 621.28 669.91 621.266ZM669.91 622.057C668.782 622.071 667.962 622.979 667.976 624.166C667.962 625.367 668.782 626.275 669.91 626.261C671.023 626.275 671.844 625.367 671.858 624.166C671.844 622.979 671.023 622.071 669.91 622.057ZM677.615 617.223V630.143H676.736V623.507H674.788V629.483H673.924V617.545H674.788V622.73H676.736V617.223H677.615ZM686.255 618.043C687.954 618.043 689.199 619.273 689.199 621.061C689.199 622.833 687.954 624.049 686.255 624.049C684.527 624.049 683.296 622.833 683.311 621.061C683.296 619.273 684.527 618.043 686.255 618.043ZM686.255 618.849C685.039 618.849 684.131 619.801 684.146 621.061C684.131 622.306 685.039 623.272 686.255 623.258C687.456 623.272 688.35 622.306 688.365 621.061C688.35 619.801 687.456 618.849 686.255 618.849ZM694.063 617.223V624.913H693.184V621.397H691.265V624.811H690.371V617.472H691.265V620.621H693.184V617.223H694.063ZM694.063 625.675V630.143H693.169V626.437H685.42V625.675H694.063ZM700.338 619.669C700.324 621.588 701.759 623.39 703.576 624.107L703.063 624.84C701.627 624.247 700.434 623.001 699.899 621.471C699.357 623.133 698.119 624.444 696.603 625.089L696.105 624.327C697.965 623.595 699.43 621.734 699.43 619.669V617.94H700.338V619.669ZM706.696 617.223V626.905H705.773V622.701H702.96V621.925H705.773V619.991H702.96V619.215H705.773V617.223H706.696ZM707.003 629.059V629.835H698.419V625.865H699.342V629.059H707.003ZM724.359 627.682V628.487H712.523V627.682H717.929V624.503H713.622V623.741H715.731V619.303H713.607V618.526H723.173V619.303H721.049V623.741H723.158V624.503H718.837V627.682H724.359ZM716.654 623.741H720.141V619.303H716.654V623.741ZM736.055 617.223V626.729H735.132V617.223H736.055ZM736.48 629.059V629.835H727.808V625.748H728.731V629.059H736.48ZM729.112 618.16C731.031 618.16 732.451 619.449 732.451 621.295C732.451 623.155 731.031 624.459 729.112 624.444C727.193 624.459 725.757 623.155 725.772 621.295C725.757 619.449 727.193 618.16 729.112 618.16ZM729.112 618.966C727.705 618.966 726.665 619.962 726.665 621.295C726.665 622.643 727.705 623.624 729.112 623.624C730.503 623.624 731.558 622.643 731.558 621.295C731.558 619.962 730.503 618.966 729.112 618.966ZM748.791 624.298V625.074H739.914V618.395H748.629V619.171H740.851V621.28H748.366V622.042H740.851V624.298H748.791ZM750.182 627.608V628.399H738.346V627.608H750.182ZM763.064 623.287V624.034H751.243V623.287H763.064ZM761.57 625.206V627.857H753.631V629.249H762.009V629.952H752.722V627.169H760.647V625.924H752.693V625.206H761.57ZM761.526 617.662V620.211H753.704V621.485H761.746V622.188H752.796V619.552H760.603V618.351H752.752V617.662H761.526ZM774.238 618.424V624.298H768.335V618.424H774.238ZM769.229 619.2V623.536H773.345V619.2H769.229ZM777.798 617.208V621.222H779.79V621.998H777.798V626.7H776.875V617.208H777.798ZM778.428 629.059V629.835H769.8V625.807H770.708V629.059H778.428ZM792.423 622.76V623.536H780.646V622.76H792.423ZM791.017 620.826V621.603H782.257V617.721H790.871V618.482H783.18V620.826H791.017ZM790.871 624.811V627.696H783.034V629.205H791.281V629.967H782.14V626.964H789.977V625.558H782.096V624.811H790.871ZM797 618.248C798.765 618.248 800.025 619.793 800.178 622.247H803.299V617.223H804.207V630.157H803.299V623.009H800.193C800.083 625.565 798.809 627.184 797 627.184C795.11 627.184 793.792 625.44 793.806 622.716C793.792 619.991 795.11 618.248 797 618.248ZM797 619.068C795.623 619.068 794.685 620.562 794.685 622.716C794.685 624.884 795.623 626.363 797 626.363C798.362 626.363 799.314 624.884 799.314 622.716C799.314 620.562 798.362 619.068 797 619.068ZM821.87 627.652V628.443H810.034V627.652H815.454V624.737H811.47V618.16H812.407V620.592H819.468V618.16H820.376V624.737H816.377V627.652H821.87ZM812.407 623.961H819.468V621.368H812.407V623.961ZM826.388 618.248C828.278 618.248 829.611 619.991 829.611 622.716C829.611 625.44 828.278 627.184 826.388 627.184C824.498 627.184 823.18 625.44 823.195 622.716C823.18 619.991 824.498 618.248 826.388 618.248ZM826.388 619.068C825.026 619.068 824.059 620.562 824.059 622.716C824.059 624.884 825.026 626.363 826.388 626.363C827.78 626.363 828.717 624.884 828.732 622.716C828.717 620.562 827.78 619.068 826.388 619.068ZM832.892 617.223V622.481H835.119V623.272H832.892V630.143H831.969V617.223H832.892ZM847.693 627.638V628.429H835.857V627.638H838.875V624.049C837.739 623.478 837.058 622.547 837.058 621.383C837.058 619.391 838.992 618.102 841.731 618.087C844.485 618.102 846.419 619.391 846.419 621.383C846.419 622.533 845.752 623.456 844.646 624.02V627.638H847.693ZM841.731 618.863C839.534 618.849 837.937 619.874 837.937 621.383C837.937 622.862 839.534 623.902 841.731 623.888C843.928 623.902 845.54 622.862 845.54 621.383C845.54 619.874 843.928 618.849 841.731 618.863ZM839.783 627.638H843.723V624.371C843.13 624.547 842.456 624.635 841.731 624.635C841.021 624.635 840.361 624.547 839.783 624.386V627.638ZM850.629 618.395L850.556 625.968H849.574L849.501 618.395H850.629ZM850.072 629.073C849.633 629.073 849.281 628.722 849.281 628.297C849.281 627.857 849.633 627.506 850.072 627.506C850.497 627.506 850.849 627.857 850.849 628.297C850.849 628.722 850.497 629.073 850.072 629.073Z" fill="#A1A1AA"/>
<rect x="587" y="668" width="123" height="56" rx="9" fill="#CBE2FF"/>
<rect x="587" y="668" width="123" height="56" rx="9" stroke="#3B82F6" stroke-width="2"/>
<path d="M614.93 700.514V702.148H600.411V700.514H614.93ZM613.665 689.65V691.215H611.344V696.277H613.612V697.824H601.659V696.277H603.891V691.215H601.606V689.65H613.665ZM605.842 696.277H609.411V691.215H605.842V696.277ZM630.424 700.602V702.219H615.904V700.602H622.162V698.018H617.627V692.814H626.768V690.846H617.592V689.264H628.701V694.361H619.578V696.418H629.07V698.018H624.096V700.602H630.424ZM641.857 688.508V697.754H639.994V693.746H638.007V692.164H639.994V688.508H641.857ZM636.302 691.584C636.302 693.289 637.251 695.012 639.273 695.82L638.289 697.314C636.882 696.77 635.933 695.75 635.388 694.52C634.808 695.899 633.797 697.033 632.294 697.648L631.275 696.119C633.402 695.275 634.404 693.395 634.404 691.584V690.951H631.732V689.387H638.816V690.951H636.302V691.584ZM644.986 688.174V697.859H643.123V688.174H644.986ZM644.986 698.492V704.064H643.035V700.057H634.105V698.492H644.986ZM659.812 696.506V698.053H648.667V689.422H659.671V691.004H650.653V692.92H659.302V694.449H650.653V696.506H659.812ZM661.411 700.531V702.131H646.892V700.531H661.411ZM671.551 691.127C671.551 692.85 672.553 694.572 674.645 695.363L673.607 696.857C672.192 696.312 671.208 695.302 670.637 694.062C670.057 695.486 669.02 696.699 667.508 697.332L666.453 695.838C668.633 694.871 669.652 692.885 669.67 691.127V689.158H671.551V691.127ZM680.182 688.191V697.93H678.318V693.799H676.736V697.438H674.908V688.49H676.736V692.199H678.318V688.191H680.182ZM674.82 698.193C678.143 698.193 680.252 699.283 680.27 701.111C680.252 702.939 678.143 704.047 674.82 704.047C671.463 704.047 669.371 702.939 669.371 701.111C669.371 699.283 671.463 698.193 674.82 698.193ZM674.82 699.67C672.623 699.67 671.322 700.18 671.322 701.111C671.322 702.061 672.623 702.553 674.82 702.553C677 702.553 678.301 702.061 678.301 701.111C678.301 700.18 677 699.67 674.82 699.67ZM687.906 690.459C687.888 692.621 689.154 694.59 691.65 695.381L690.595 696.91C688.864 696.304 687.651 695.152 686.974 693.641C686.271 695.372 684.944 696.734 683.019 697.402L681.982 695.82C684.619 694.959 685.937 692.832 685.937 690.547V689.035H687.906V690.459ZM695.394 688.174V697.525H693.443V692.85H690.279V691.25H693.443V688.174H695.394ZM690.015 697.947C693.39 697.947 695.447 699.072 695.447 701.006C695.447 702.939 693.39 704.047 690.015 704.047C686.658 704.047 684.601 702.939 684.619 701.006C684.601 699.072 686.658 697.947 690.015 697.947ZM690.015 699.459C687.8 699.459 686.552 700.004 686.552 701.006C686.552 701.973 687.8 702.518 690.015 702.518C692.23 702.518 693.496 701.973 693.496 701.006C693.496 700.004 692.23 699.459 690.015 699.459Z" fill="#3B82F6"/>
<rect x="736" y="668" width="121" height="56" rx="9" fill="#3B82F6"/>
<rect x="736" y="668" width="121" height="56" rx="9" stroke="#3B82F6" stroke-width="2"/>
<path d="M762.93 700.514V702.148H748.411V700.514H762.93ZM761.665 689.65V691.215H759.344V696.277H761.612V697.824H749.659V696.277H751.891V691.215H749.606V689.65H761.665ZM753.842 696.277H757.411V691.215H753.842V696.277ZM778.424 700.602V702.219H763.904V700.602H770.162V698.018H765.627V692.814H774.768V690.846H765.592V689.264H776.701V694.361H767.578V696.418H777.07V698.018H772.096V700.602H778.424ZM789.857 688.508V697.754H787.994V693.746H786.007V692.164H787.994V688.508H789.857ZM784.302 691.584C784.302 693.289 785.251 695.012 787.273 695.82L786.289 697.314C784.882 696.77 783.933 695.75 783.388 694.52C782.808 695.899 781.797 697.033 780.294 697.648L779.275 696.119C781.402 695.275 782.404 693.395 782.404 691.584V690.951H779.732V689.387H786.816V690.951H784.302V691.584ZM792.986 688.174V697.859H791.123V688.174H792.986ZM792.986 698.492V704.064H791.035V700.057H782.105V698.492H792.986ZM807.812 696.506V698.053H796.667V689.422H807.671V691.004H798.653V692.92H807.302V694.449H798.653V696.506H807.812ZM809.411 700.531V702.131H794.892V700.531H809.411ZM820.307 691.443C820.307 693.166 821.59 694.854 824.086 695.539L823.189 697.051C821.361 696.559 820.061 695.486 819.357 694.115C818.654 695.627 817.327 696.796 815.437 697.332L814.506 695.82C817.02 695.117 818.355 693.342 818.355 691.443V691.408H815.033V689.861H818.355V688.104H820.324V689.861H823.629V691.408H820.307V691.443ZM827.127 688.174V692.006H829.342V693.623H827.127V697.525H825.176V688.174H827.127ZM827.127 698.193V703.871H816.861V698.193H827.127ZM818.795 699.74V702.289H825.193V699.74H818.795ZM834.429 689.334C835.871 689.334 837.057 690.134 837.769 691.531H841.478V688.174H843.412V704.082H841.478V698.07H837.91C837.224 699.652 835.967 700.566 834.429 700.566C832.039 700.566 830.351 698.404 830.351 694.941C830.351 691.514 832.039 689.334 834.429 689.334ZM834.429 691.092C833.111 691.092 832.214 692.516 832.232 694.941C832.214 697.385 833.111 698.809 834.429 698.809C835.748 698.809 836.626 697.385 836.644 694.941C836.626 692.516 835.748 691.092 834.429 691.092ZM838.314 693.131C838.428 693.685 838.49 694.291 838.49 694.941C838.49 695.495 838.446 696.005 838.367 696.488H841.478V693.131H838.314Z" fill="#CBE2FF"/>
<path d="M684.496 490.124C684.496 487.846 686.342 486 688.62 486H742.23C744.508 486 746.354 487.846 746.354 490.124V522.164C746.354 524.11 744.993 525.792 743.089 526.197L689.478 537.609C686.912 538.155 684.496 536.199 684.496 533.575V490.124Z" fill="#A1A1AA"/>
<rect x="738.106" y="499.168" width="4.12391" height="13.1674" fill="white"/>
<rect x="729.858" y="499.168" width="4.12391" height="13.1674" fill="white"/>
<g clip-path="url(#clip0_1004_6115)">
<path d="M26.1754 22.1738L25.0898 23.2594L28.616 26.7932L25.0898 30.327L26.1754 31.4126L30.7948 26.7932L26.1754 22.1738Z" fill="#CBE2FF"/>
</g>
<mask id="path-10-outside-1_1004_6115" maskUnits="userSpaceOnUse" x="181.343" y="38.1719" width="164" height="22" fill="black">
<rect fill="white" x="181.343" y="38.1719" width="164" height="22"/>
<path d="M193.663 39.4656L200.205 58.4487H196.253L194.918 54.4172H187.683L186.321 58.4487H182.343L189.071 39.4656H193.663ZM188.51 51.6671H194.037L191.26 42.9098L188.51 51.6671Z"/>
<path d="M212.712 54.7108L213.62 57.4075C213.104 57.8347 212.436 58.1729 211.617 58.422C210.798 58.6712 209.846 58.7958 208.76 58.7958C206.536 58.7958 204.818 58.2708 203.607 57.2206C202.415 56.1526 201.819 54.5507 201.819 52.4147V51.2666C201.819 49.9495 202.014 48.8726 202.406 48.036C202.815 47.1995 203.349 46.5409 204.008 46.0603C204.649 45.5797 205.387 45.2504 206.224 45.0724C207.061 44.8944 207.915 44.8054 208.787 44.8054C210.015 44.8054 210.976 44.9389 211.671 45.2059C212.365 45.4729 212.979 45.7844 213.513 46.1404L212.632 48.8637C212.027 48.5611 211.404 48.3297 210.763 48.1695C210.14 48.0093 209.481 47.9292 208.787 47.9292C207.612 47.9292 206.802 48.2941 206.358 49.0239C205.93 49.7359 205.717 50.6793 205.717 51.854C205.717 53.189 205.966 54.168 206.464 54.7909C206.963 55.3961 207.728 55.6987 208.76 55.6987C209.383 55.6987 210.024 55.6364 210.683 55.5118C211.341 55.3694 212.018 55.1024 212.712 54.7108Z"/>
<path d="M224.576 48.1161H221.585V54.8443C221.585 55.1825 221.656 55.4139 221.799 55.5385C221.941 55.6631 222.137 55.7254 222.386 55.7254C222.618 55.7254 222.876 55.6809 223.161 55.5919C223.463 55.5029 223.775 55.3694 224.095 55.1914L225.003 57.4609C224.647 57.8169 224.113 58.1284 223.401 58.3953C222.707 58.6623 221.995 58.7958 221.265 58.7958C219.948 58.7958 219.031 58.4843 218.515 57.8614C217.999 57.2206 217.741 56.3395 217.741 55.2181V48.1161H215.631V45.0724H217.741V40.7204L221.585 39.9729V45.0724H224.576V48.1161Z"/>
<path d="M233.451 55.7254C233.682 55.7254 233.94 55.6809 234.225 55.5919C234.51 55.5029 234.812 55.3694 235.133 55.1914L236.04 57.4609C235.684 57.8169 235.159 58.1284 234.465 58.3953C233.771 58.6623 233.059 58.7958 232.329 58.7958C231.012 58.7958 230.095 58.4843 229.579 57.8614C229.063 57.2206 228.805 56.3395 228.805 55.2181V48.2229H227.417V45.2593H232.703V54.8443C232.703 55.1825 232.765 55.4139 232.89 55.5385C233.014 55.6631 233.201 55.7254 233.451 55.7254ZM232.703 42.9899H228.538V39.1719H232.703V42.9899Z"/>
<path d="M244.345 44.8054C246.374 44.8054 247.994 45.3661 249.204 46.4875C250.415 47.6088 251.02 49.371 251.02 51.7739C251.02 54.0701 250.441 55.8144 249.285 57.007C248.145 58.1996 246.499 58.7958 244.345 58.7958C242.174 58.7958 240.509 58.1996 239.352 57.007C238.213 55.8144 237.644 54.0701 237.644 51.7739C237.644 49.371 238.249 47.6088 239.459 46.4875C240.687 45.3661 242.316 44.8054 244.345 44.8054ZM241.595 51.7739C241.595 53.0555 241.791 54.0345 242.183 54.7108C242.592 55.3694 243.313 55.6987 244.345 55.6987C245.36 55.6987 246.072 55.3694 246.481 54.7108C246.89 54.0345 247.095 53.0555 247.095 51.7739C247.095 50.439 246.89 49.4689 246.481 48.8637C246.089 48.2407 245.386 47.9292 244.372 47.9292C243.322 47.9292 242.592 48.2407 242.183 48.8637C241.791 49.4689 241.595 50.439 241.595 51.7739Z"/>
<path d="M266.388 58.4487H262.49V49.5579C262.49 48.9883 262.383 48.57 262.169 48.303C261.973 48.0182 261.644 47.8758 261.181 47.8758C260.612 47.8758 260.007 48.036 259.366 48.3564C258.725 48.659 258.218 49.0061 257.844 49.3977V58.4487H253.946V45.2593H257.524L257.737 46.1938C258.218 45.82 258.769 45.4996 259.392 45.2326C260.015 44.9478 260.781 44.8054 261.689 44.8054C263.255 44.8054 264.43 45.1436 265.213 45.82C265.996 46.4964 266.388 47.5198 266.388 48.8904V58.4487Z"/>
<path d="M277.053 43.1501C277.053 41.7795 277.356 40.8272 277.961 40.2932C278.584 39.7415 279.581 39.4656 280.951 39.4656H284.289C286.905 39.4656 288.73 39.9907 289.762 41.0408C290.812 42.0732 291.337 43.604 291.337 45.6331C291.337 47.947 290.759 49.5579 289.602 50.4657C288.445 51.3734 286.665 51.8273 284.262 51.8273H281.005V58.4487H277.053V43.1501ZM283.942 42.5093H282.286C281.77 42.5093 281.423 42.6161 281.245 42.8297C281.085 43.0255 281.005 43.3281 281.005 43.7375V48.7569H283.888C285.027 48.7569 285.882 48.5166 286.451 48.036C287.021 47.5554 287.306 46.7545 287.306 45.6331C287.306 44.4939 287.021 43.693 286.451 43.2302C285.9 42.7496 285.063 42.5093 283.942 42.5093Z"/>
<path d="M300.429 44.8054C302.458 44.8054 304.078 45.3661 305.289 46.4875C306.499 47.6088 307.104 49.371 307.104 51.7739C307.104 54.0701 306.526 55.8144 305.369 57.007C304.229 58.1996 302.583 58.7958 300.429 58.7958C298.258 58.7958 296.593 58.1996 295.436 57.007C294.297 55.8144 293.728 54.0701 293.728 51.7739C293.728 49.371 294.333 47.6088 295.543 46.4875C296.771 45.3661 298.4 44.8054 300.429 44.8054ZM297.679 51.7739C297.679 53.0555 297.875 54.0345 298.267 54.7108C298.676 55.3694 299.397 55.6987 300.429 55.6987C301.444 55.6987 302.156 55.3694 302.565 54.7108C302.975 54.0345 303.179 53.0555 303.179 51.7739C303.179 50.439 302.975 49.4689 302.565 48.8637C302.174 48.2407 301.471 47.9292 300.456 47.9292C299.406 47.9292 298.676 48.2407 298.267 48.8637C297.875 49.4689 297.679 50.439 297.679 51.7739Z"/>
<path d="M315.53 55.7254C315.761 55.7254 316.019 55.6809 316.304 55.5919C316.589 55.5029 316.892 55.3694 317.212 55.1914L318.12 57.4609C317.764 57.8169 317.239 58.1284 316.545 58.3953C315.85 58.6623 315.138 58.7958 314.409 58.7958C313.091 58.7958 312.175 58.4843 311.659 57.8614C311.142 57.2206 310.884 56.3395 310.884 55.2181V48.2229H309.496V45.2593H314.782V54.8443C314.782 55.1825 314.845 55.4139 314.969 55.5385C315.094 55.6631 315.281 55.7254 315.53 55.7254ZM314.782 42.9899H310.617V39.1719H314.782V42.9899Z"/>
<path d="M332.432 58.4487H328.534V49.5579C328.534 48.9883 328.427 48.57 328.213 48.303C328.018 48.0182 327.688 47.8758 327.225 47.8758C326.656 47.8758 326.051 48.036 325.41 48.3564C324.769 48.659 324.262 49.0061 323.888 49.3977V58.4487H319.99V45.2593H323.568L323.781 46.1938C324.262 45.82 324.814 45.4996 325.437 45.2326C326.06 44.9478 326.825 44.8054 327.733 44.8054C329.299 44.8054 330.474 45.1436 331.257 45.82C332.04 46.4964 332.432 47.5198 332.432 48.8904V58.4487Z"/>
<path d="M344.044 48.1161H341.054V54.8443C341.054 55.1825 341.125 55.4139 341.268 55.5385C341.41 55.6631 341.606 55.7254 341.855 55.7254C342.086 55.7254 342.345 55.6809 342.629 55.5919C342.932 55.5029 343.243 55.3694 343.564 55.1914L344.472 57.4609C344.116 57.8169 343.582 58.1284 342.87 58.3953C342.175 58.6623 341.463 58.7958 340.734 58.7958C339.416 58.7958 338.5 58.4843 337.984 57.8614C337.467 57.2206 337.209 56.3395 337.209 55.2181V48.1161H335.1V45.0724H337.209V40.7204L341.054 39.9729V45.0724H344.044V48.1161Z"/>
</mask>
<path d="M193.663 39.4656L200.205 58.4487H196.253L194.918 54.4172H187.683L186.321 58.4487H182.343L189.071 39.4656H193.663ZM188.51 51.6671H194.037L191.26 42.9098L188.51 51.6671Z" fill="#18181B"/>
<path d="M212.712 54.7108L213.62 57.4075C213.104 57.8347 212.436 58.1729 211.617 58.422C210.798 58.6712 209.846 58.7958 208.76 58.7958C206.536 58.7958 204.818 58.2708 203.607 57.2206C202.415 56.1526 201.819 54.5507 201.819 52.4147V51.2666C201.819 49.9495 202.014 48.8726 202.406 48.036C202.815 47.1995 203.349 46.5409 204.008 46.0603C204.649 45.5797 205.387 45.2504 206.224 45.0724C207.061 44.8944 207.915 44.8054 208.787 44.8054C210.015 44.8054 210.976 44.9389 211.671 45.2059C212.365 45.4729 212.979 45.7844 213.513 46.1404L212.632 48.8637C212.027 48.5611 211.404 48.3297 210.763 48.1695C210.14 48.0093 209.481 47.9292 208.787 47.9292C207.612 47.9292 206.802 48.2941 206.358 49.0239C205.93 49.7359 205.717 50.6793 205.717 51.854C205.717 53.189 205.966 54.168 206.464 54.7909C206.963 55.3961 207.728 55.6987 208.76 55.6987C209.383 55.6987 210.024 55.6364 210.683 55.5118C211.341 55.3694 212.018 55.1024 212.712 54.7108Z" fill="#18181B"/>
<path d="M224.576 48.1161H221.585V54.8443C221.585 55.1825 221.656 55.4139 221.799 55.5385C221.941 55.6631 222.137 55.7254 222.386 55.7254C222.618 55.7254 222.876 55.6809 223.161 55.5919C223.463 55.5029 223.775 55.3694 224.095 55.1914L225.003 57.4609C224.647 57.8169 224.113 58.1284 223.401 58.3953C222.707 58.6623 221.995 58.7958 221.265 58.7958C219.948 58.7958 219.031 58.4843 218.515 57.8614C217.999 57.2206 217.741 56.3395 217.741 55.2181V48.1161H215.631V45.0724H217.741V40.7204L221.585 39.9729V45.0724H224.576V48.1161Z" fill="#18181B"/>
<path d="M233.451 55.7254C233.682 55.7254 233.94 55.6809 234.225 55.5919C234.51 55.5029 234.812 55.3694 235.133 55.1914L236.04 57.4609C235.684 57.8169 235.159 58.1284 234.465 58.3953C233.771 58.6623 233.059 58.7958 232.329 58.7958C231.012 58.7958 230.095 58.4843 229.579 57.8614C229.063 57.2206 228.805 56.3395 228.805 55.2181V48.2229H227.417V45.2593H232.703V54.8443C232.703 55.1825 232.765 55.4139 232.89 55.5385C233.014 55.6631 233.201 55.7254 233.451 55.7254ZM232.703 42.9899H228.538V39.1719H232.703V42.9899Z" fill="#18181B"/>
<path d="M244.345 44.8054C246.374 44.8054 247.994 45.3661 249.204 46.4875C250.415 47.6088 251.02 49.371 251.02 51.7739C251.02 54.0701 250.441 55.8144 249.285 57.007C248.145 58.1996 246.499 58.7958 244.345 58.7958C242.174 58.7958 240.509 58.1996 239.352 57.007C238.213 55.8144 237.644 54.0701 237.644 51.7739C237.644 49.371 238.249 47.6088 239.459 46.4875C240.687 45.3661 242.316 44.8054 244.345 44.8054ZM241.595 51.7739C241.595 53.0555 241.791 54.0345 242.183 54.7108C242.592 55.3694 243.313 55.6987 244.345 55.6987C245.36 55.6987 246.072 55.3694 246.481 54.7108C246.89 54.0345 247.095 53.0555 247.095 51.7739C247.095 50.439 246.89 49.4689 246.481 48.8637C246.089 48.2407 245.386 47.9292 244.372 47.9292C243.322 47.9292 242.592 48.2407 242.183 48.8637C241.791 49.4689 241.595 50.439 241.595 51.7739Z" fill="#18181B"/>
<path d="M266.388 58.4487H262.49V49.5579C262.49 48.9883 262.383 48.57 262.169 48.303C261.973 48.0182 261.644 47.8758 261.181 47.8758C260.612 47.8758 260.007 48.036 259.366 48.3564C258.725 48.659 258.218 49.0061 257.844 49.3977V58.4487H253.946V45.2593H257.524L257.737 46.1938C258.218 45.82 258.769 45.4996 259.392 45.2326C260.015 44.9478 260.781 44.8054 261.689 44.8054C263.255 44.8054 264.43 45.1436 265.213 45.82C265.996 46.4964 266.388 47.5198 266.388 48.8904V58.4487Z" fill="#18181B"/>
<path d="M277.053 43.1501C277.053 41.7795 277.356 40.8272 277.961 40.2932C278.584 39.7415 279.581 39.4656 280.951 39.4656H284.289C286.905 39.4656 288.73 39.9907 289.762 41.0408C290.812 42.0732 291.337 43.604 291.337 45.6331C291.337 47.947 290.759 49.5579 289.602 50.4657C288.445 51.3734 286.665 51.8273 284.262 51.8273H281.005V58.4487H277.053V43.1501ZM283.942 42.5093H282.286C281.77 42.5093 281.423 42.6161 281.245 42.8297C281.085 43.0255 281.005 43.3281 281.005 43.7375V48.7569H283.888C285.027 48.7569 285.882 48.5166 286.451 48.036C287.021 47.5554 287.306 46.7545 287.306 45.6331C287.306 44.4939 287.021 43.693 286.451 43.2302C285.9 42.7496 285.063 42.5093 283.942 42.5093Z" fill="#18181B"/>
<path d="M300.429 44.8054C302.458 44.8054 304.078 45.3661 305.289 46.4875C306.499 47.6088 307.104 49.371 307.104 51.7739C307.104 54.0701 306.526 55.8144 305.369 57.007C304.229 58.1996 302.583 58.7958 300.429 58.7958C298.258 58.7958 296.593 58.1996 295.436 57.007C294.297 55.8144 293.728 54.0701 293.728 51.7739C293.728 49.371 294.333 47.6088 295.543 46.4875C296.771 45.3661 298.4 44.8054 300.429 44.8054ZM297.679 51.7739C297.679 53.0555 297.875 54.0345 298.267 54.7108C298.676 55.3694 299.397 55.6987 300.429 55.6987C301.444 55.6987 302.156 55.3694 302.565 54.7108C302.975 54.0345 303.179 53.0555 303.179 51.7739C303.179 50.439 302.975 49.4689 302.565 48.8637C302.174 48.2407 301.471 47.9292 300.456 47.9292C299.406 47.9292 298.676 48.2407 298.267 48.8637C297.875 49.4689 297.679 50.439 297.679 51.7739Z" fill="#18181B"/>
<path d="M315.53 55.7254C315.761 55.7254 316.019 55.6809 316.304 55.5919C316.589 55.5029 316.892 55.3694 317.212 55.1914L318.12 57.4609C317.764 57.8169 317.239 58.1284 316.545 58.3953C315.85 58.6623 315.138 58.7958 314.409 58.7958C313.091 58.7958 312.175 58.4843 311.659 57.8614C311.142 57.2206 310.884 56.3395 310.884 55.2181V48.2229H309.496V45.2593H314.782V54.8443C314.782 55.1825 314.845 55.4139 314.969 55.5385C315.094 55.6631 315.281 55.7254 315.53 55.7254ZM314.782 42.9899H310.617V39.1719H314.782V42.9899Z" fill="#18181B"/>
<path d="M332.432 58.4487H328.534V49.5579C328.534 48.9883 328.427 48.57 328.213 48.303C328.018 48.0182 327.688 47.8758 327.225 47.8758C326.656 47.8758 326.051 48.036 325.41 48.3564C324.769 48.659 324.262 49.0061 323.888 49.3977V58.4487H319.99V45.2593H323.568L323.781 46.1938C324.262 45.82 324.814 45.4996 325.437 45.2326C326.06 44.9478 326.825 44.8054 327.733 44.8054C329.299 44.8054 330.474 45.1436 331.257 45.82C332.04 46.4964 332.432 47.5198 332.432 48.8904V58.4487Z" fill="#18181B"/>
<path d="M344.044 48.1161H341.054V54.8443C341.054 55.1825 341.125 55.4139 341.268 55.5385C341.41 55.6631 341.606 55.7254 341.855 55.7254C342.086 55.7254 342.345 55.6809 342.629 55.5919C342.932 55.5029 343.243 55.3694 343.564 55.1914L344.472 57.4609C344.116 57.8169 343.582 58.1284 342.87 58.3953C342.175 58.6623 341.463 58.7958 340.734 58.7958C339.416 58.7958 338.5 58.4843 337.984 57.8614C337.467 57.2206 337.209 56.3395 337.209 55.2181V48.1161H335.1V45.0724H337.209V40.7204L341.054 39.9729V45.0724H344.044V48.1161Z" fill="#18181B"/>
<path d="M193.663 39.4656L200.205 58.4487H196.253L194.918 54.4172H187.683L186.321 58.4487H182.343L189.071 39.4656H193.663ZM188.51 51.6671H194.037L191.26 42.9098L188.51 51.6671Z" stroke="#18181B" stroke-width="0.821516" mask="url(#path-10-outside-1_1004_6115)"/>
<path d="M212.712 54.7108L213.62 57.4075C213.104 57.8347 212.436 58.1729 211.617 58.422C210.798 58.6712 209.846 58.7958 208.76 58.7958C206.536 58.7958 204.818 58.2708 203.607 57.2206C202.415 56.1526 201.819 54.5507 201.819 52.4147V51.2666C201.819 49.9495 202.014 48.8726 202.406 48.036C202.815 47.1995 203.349 46.5409 204.008 46.0603C204.649 45.5797 205.387 45.2504 206.224 45.0724C207.061 44.8944 207.915 44.8054 208.787 44.8054C210.015 44.8054 210.976 44.9389 211.671 45.2059C212.365 45.4729 212.979 45.7844 213.513 46.1404L212.632 48.8637C212.027 48.5611 211.404 48.3297 210.763 48.1695C210.14 48.0093 209.481 47.9292 208.787 47.9292C207.612 47.9292 206.802 48.2941 206.358 49.0239C205.93 49.7359 205.717 50.6793 205.717 51.854C205.717 53.189 205.966 54.168 206.464 54.7909C206.963 55.3961 207.728 55.6987 208.76 55.6987C209.383 55.6987 210.024 55.6364 210.683 55.5118C211.341 55.3694 212.018 55.1024 212.712 54.7108Z" stroke="#18181B" stroke-width="0.821516" mask="url(#path-10-outside-1_1004_6115)"/>
<path d="M224.576 48.1161H221.585V54.8443C221.585 55.1825 221.656 55.4139 221.799 55.5385C221.941 55.6631 222.137 55.7254 222.386 55.7254C222.618 55.7254 222.876 55.6809 223.161 55.5919C223.463 55.5029 223.775 55.3694 224.095 55.1914L225.003 57.4609C224.647 57.8169 224.113 58.1284 223.401 58.3953C222.707 58.6623 221.995 58.7958 221.265 58.7958C219.948 58.7958 219.031 58.4843 218.515 57.8614C217.999 57.2206 217.741 56.3395 217.741 55.2181V48.1161H215.631V45.0724H217.741V40.7204L221.585 39.9729V45.0724H224.576V48.1161Z" stroke="#18181B" stroke-width="0.821516" mask="url(#path-10-outside-1_1004_6115)"/>
<path d="M233.451 55.7254C233.682 55.7254 233.94 55.6809 234.225 55.5919C234.51 55.5029 234.812 55.3694 235.133 55.1914L236.04 57.4609C235.684 57.8169 235.159 58.1284 234.465 58.3953C233.771 58.6623 233.059 58.7958 232.329 58.7958C231.012 58.7958 230.095 58.4843 229.579 57.8614C229.063 57.2206 228.805 56.3395 228.805 55.2181V48.2229H227.417V45.2593H232.703V54.8443C232.703 55.1825 232.765 55.4139 232.89 55.5385C233.014 55.6631 233.201 55.7254 233.451 55.7254ZM232.703 42.9899H228.538V39.1719H232.703V42.9899Z" stroke="#18181B" stroke-width="0.821516" mask="url(#path-10-outside-1_1004_6115)"/>
<path d="M244.345 44.8054C246.374 44.8054 247.994 45.3661 249.204 46.4875C250.415 47.6088 251.02 49.371 251.02 51.7739C251.02 54.0701 250.441 55.8144 249.285 57.007C248.145 58.1996 246.499 58.7958 244.345 58.7958C242.174 58.7958 240.509 58.1996 239.352 57.007C238.213 55.8144 237.644 54.0701 237.644 51.7739C237.644 49.371 238.249 47.6088 239.459 46.4875C240.687 45.3661 242.316 44.8054 244.345 44.8054ZM241.595 51.7739C241.595 53.0555 241.791 54.0345 242.183 54.7108C242.592 55.3694 243.313 55.6987 244.345 55.6987C245.36 55.6987 246.072 55.3694 246.481 54.7108C246.89 54.0345 247.095 53.0555 247.095 51.7739C247.095 50.439 246.89 49.4689 246.481 48.8637C246.089 48.2407 245.386 47.9292 244.372 47.9292C243.322 47.9292 242.592 48.2407 242.183 48.8637C241.791 49.4689 241.595 50.439 241.595 51.7739Z" stroke="#18181B" stroke-width="0.821516" mask="url(#path-10-outside-1_1004_6115)"/>
<path d="M266.388 58.4487H262.49V49.5579C262.49 48.9883 262.383 48.57 262.169 48.303C261.973 48.0182 261.644 47.8758 261.181 47.8758C260.612 47.8758 260.007 48.036 259.366 48.3564C258.725 48.659 258.218 49.0061 257.844 49.3977V58.4487H253.946V45.2593H257.524L257.737 46.1938C258.218 45.82 258.769 45.4996 259.392 45.2326C260.015 44.9478 260.781 44.8054 261.689 44.8054C263.255 44.8054 264.43 45.1436 265.213 45.82C265.996 46.4964 266.388 47.5198 266.388 48.8904V58.4487Z" stroke="#18181B" stroke-width="0.821516" mask="url(#path-10-outside-1_1004_6115)"/>
<path d="M277.053 43.1501C277.053 41.7795 277.356 40.8272 277.961 40.2932C278.584 39.7415 279.581 39.4656 280.951 39.4656H284.289C286.905 39.4656 288.73 39.9907 289.762 41.0408C290.812 42.0732 291.337 43.604 291.337 45.6331C291.337 47.947 290.759 49.5579 289.602 50.4657C288.445 51.3734 286.665 51.8273 284.262 51.8273H281.005V58.4487H277.053V43.1501ZM283.942 42.5093H282.286C281.77 42.5093 281.423 42.6161 281.245 42.8297C281.085 43.0255 281.005 43.3281 281.005 43.7375V48.7569H283.888C285.027 48.7569 285.882 48.5166 286.451 48.036C287.021 47.5554 287.306 46.7545 287.306 45.6331C287.306 44.4939 287.021 43.693 286.451 43.2302C285.9 42.7496 285.063 42.5093 283.942 42.5093Z" stroke="#18181B" stroke-width="0.821516" mask="url(#path-10-outside-1_1004_6115)"/>
<path d="M300.429 44.8054C302.458 44.8054 304.078 45.3661 305.289 46.4875C306.499 47.6088 307.104 49.371 307.104 51.7739C307.104 54.0701 306.526 55.8144 305.369 57.007C304.229 58.1996 302.583 58.7958 300.429 58.7958C298.258 58.7958 296.593 58.1996 295.436 57.007C294.297 55.8144 293.728 54.0701 293.728 51.7739C293.728 49.371 294.333 47.6088 295.543 46.4875C296.771 45.3661 298.4 44.8054 300.429 44.8054ZM297.679 51.7739C297.679 53.0555 297.875 54.0345 298.267 54.7108C298.676 55.3694 299.397 55.6987 300.429 55.6987C301.444 55.6987 302.156 55.3694 302.565 54.7108C302.975 54.0345 303.179 53.0555 303.179 51.7739C303.179 50.439 302.975 49.4689 302.565 48.8637C302.174 48.2407 301.471 47.9292 300.456 47.9292C299.406 47.9292 298.676 48.2407 298.267 48.8637C297.875 49.4689 297.679 50.439 297.679 51.7739Z" stroke="#18181B" stroke-width="0.821516" mask="url(#path-10-outside-1_1004_6115)"/>
<path d="M315.53 55.7254C315.761 55.7254 316.019 55.6809 316.304 55.5919C316.589 55.5029 316.892 55.3694 317.212 55.1914L318.12 57.4609C317.764 57.8169 317.239 58.1284 316.545 58.3953C315.85 58.6623 315.138 58.7958 314.409 58.7958C313.091 58.7958 312.175 58.4843 311.659 57.8614C311.142 57.2206 310.884 56.3395 310.884 55.2181V48.2229H309.496V45.2593H314.782V54.8443C314.782 55.1825 314.845 55.4139 314.969 55.5385C315.094 55.6631 315.281 55.7254 315.53 55.7254ZM314.782 42.9899H310.617V39.1719H314.782V42.9899Z" stroke="#18181B" stroke-width="0.821516" mask="url(#path-10-outside-1_1004_6115)"/>
<path d="M332.432 58.4487H328.534V49.5579C328.534 48.9883 328.427 48.57 328.213 48.303C328.018 48.0182 327.688 47.8758 327.225 47.8758C326.656 47.8758 326.051 48.036 325.41 48.3564C324.769 48.659 324.262 49.0061 323.888 49.3977V58.4487H319.99V45.2593H323.568L323.781 46.1938C324.262 45.82 324.814 45.4996 325.437 45.2326C326.06 44.9478 326.825 44.8054 327.733 44.8054C329.299 44.8054 330.474 45.1436 331.257 45.82C332.04 46.4964 332.432 47.5198 332.432 48.8904V58.4487Z" stroke="#18181B" stroke-width="0.821516" mask="url(#path-10-outside-1_1004_6115)"/>
<path d="M344.044 48.1161H341.054V54.8443C341.054 55.1825 341.125 55.4139 341.268 55.5385C341.41 55.6631 341.606 55.7254 341.855 55.7254C342.086 55.7254 342.345 55.6809 342.629 55.5919C342.932 55.5029 343.243 55.3694 343.564 55.1914L344.472 57.4609C344.116 57.8169 343.582 58.1284 342.87 58.3953C342.175 58.6623 341.463 58.7958 340.734 58.7958C339.416 58.7958 338.5 58.4843 337.984 57.8614C337.467 57.2206 337.209 56.3395 337.209 55.2181V48.1161H335.1V45.0724H337.209V40.7204L341.054 39.9729V45.0724H344.044V48.1161Z" stroke="#18181B" stroke-width="0.821516" mask="url(#path-10-outside-1_1004_6115)"/>
<path d="M146 41.5801C146 40.1676 147.145 39.0225 148.558 39.0225H162.893C164.306 39.0225 165.451 40.1676 165.451 41.5801V49.9891C165.451 51.1871 164.619 52.2246 163.45 52.4855L149.115 55.6833C147.517 56.0397 146 54.8241 146 53.187V41.5801Z" fill="#18181B"/>
<rect x="162.594" y="43.8633" width="1.27883" height="3.83649" rx="0.639416" fill="white"/>
<rect x="160.034" y="43.8633" width="1.27883" height="3.83649" rx="0.639416" fill="white"/>
<path d="M176.969 52.834C176.969 51.4215 175.824 50.2764 174.411 50.2764H164.17C162.758 50.2764 161.613 51.4215 161.613 52.834V58.5027C161.613 59.7007 162.444 60.7382 163.614 60.999L173.854 63.2834C175.452 63.6398 176.969 62.4242 176.969 60.7871V52.834Z" fill="#60A5FA"/>
<rect width="1.02306" height="2.81343" rx="0.511532" transform="matrix(-1 0 0 1 164.428 54.3682)" fill="#CBE2FF"/>
<rect width="1.02306" height="2.81343" rx="0.511532" transform="matrix(-1 0 0 1 166.475 54.3682)" fill="#CBE2FF"/>
<path d="M169.802 47.8722L168.01 46.7054" stroke="#60A5FA" stroke-width="0.532493" stroke-linecap="round"/>
<path d="M168.011 44.3234L169.802 43.1566" stroke="#60A5FA" stroke-width="0.532493" stroke-linecap="round"/>
<path d="M168.011 44.3234L169.802 43.1566" stroke="#60A5FA" stroke-width="0.532493" stroke-linecap="round"/>
<path d="M168.011 45.5215H169.787" stroke="#60A5FA" stroke-width="0.532493" stroke-linecap="round"/>
<path d="M613.219 44.5879C615.346 44.5879 616.91 46.2051 616.928 48.4902C616.91 50.8105 615.346 52.375 613.219 52.375C611.092 52.375 609.545 50.8105 609.545 48.4902C609.545 46.2051 611.092 44.5879 613.219 44.5879ZM613.219 46.4863C612.234 46.4863 611.549 47.2246 611.549 48.4902C611.549 49.7559 612.234 50.5117 613.219 50.5117C614.186 50.5117 614.871 49.7559 614.889 48.4902C614.871 47.2246 614.186 46.4863 613.219 46.4863ZM623.221 43.6387V53.1836H621.094V49.2988H619.775V53.0957H617.701V43.9199H619.775V47.5059H621.094V43.6387H623.221ZM623.221 53.8867V59.6172H620.988V55.6797H612.164V53.8867H623.221ZM631.025 46.3809C631.025 48.5957 632.115 50.793 634.646 51.7246L633.398 53.4648C631.72 52.8057 630.568 51.5488 629.918 49.9668C629.215 51.6543 627.976 52.9727 626.156 53.6582L624.961 51.9004C627.58 50.9688 628.758 48.7188 628.758 46.3809V44.5352H631.025V46.3809ZM638.514 43.6387V55.5039H636.281V50.6172H633.539V48.8066H636.281V47.5234H633.539V45.7129H636.281V43.6387H638.514ZM638.848 57.543V59.3359H627.861V54.3613H630.129V57.543H638.848ZM659.379 55.9609V57.8418H644.736V55.9609H650.889V53.0781H645.949V51.3203H648.094V46.75H645.879V44.957H658.148V46.75H655.898V51.3203H658.078V53.0781H653.121V55.9609H659.379ZM650.344 51.3203H653.684V46.75H650.344V51.3203ZM673.688 43.6387V55.1348H671.438V43.6387H673.688ZM674.109 57.543V59.3359H662.965V53.9746H665.232V57.543H674.109ZM664.916 44.6582C667.377 44.6582 669.293 46.3457 669.293 48.6836C669.293 51.0742 667.377 52.7441 664.916 52.7441C662.455 52.7441 660.539 51.0742 660.539 48.6836C660.539 46.3457 662.455 44.6582 664.916 44.6582ZM664.916 46.6094C663.668 46.5918 662.719 47.3828 662.736 48.6836C662.719 50.0195 663.668 50.793 664.916 50.793C666.129 50.793 667.078 50.0195 667.078 48.6836C667.078 47.3828 666.129 46.5918 664.916 46.6094ZM688.893 51.8828V53.6582H677.572V44.7988H688.77V46.6094H679.857V48.2969H688.4V50.0547H679.857V51.8828H688.893ZM690.492 55.9258V57.7539H675.85V55.9258H690.492Z" fill="#3B82F6"/>
<path d="M749.117 55.8906V57.7539H734.475V55.8906H749.117ZM747.887 45.0273V46.8203H745.637V51.6719H747.816V53.4297H735.688V51.6719H737.832V46.8203H735.617V45.0273H747.887ZM740.082 51.6719H743.422V46.8203H740.082V51.6719ZM764.674 55.9961V57.8418H750.031V55.9961H756.201V53.5879H751.719V48.209H760.771V46.4512H751.701V44.6582H762.986V49.9668H753.969V51.7598H763.355V53.5879H758.434V55.9961H764.674ZM776.152 43.9375V53.2891H774.025V49.3867H772.25V47.5762H774.025V43.9375H776.152ZM770.633 47.0664C770.633 48.7539 771.477 50.4238 773.533 51.2148L772.408 52.9375C771.046 52.4102 770.123 51.4609 769.578 50.3008C768.989 51.6016 768.005 52.665 766.537 53.2539L765.359 51.4785C767.557 50.6523 768.453 48.8242 768.453 47.0488V46.5742H765.904V44.7812H773.023V46.5742H770.633V47.0664ZM779.334 43.6211V53.377H777.207V43.6211H779.334ZM779.334 53.957V59.6172H777.102V55.7324H768.277V53.957H779.334ZM794.188 51.8828V53.6582H782.867V44.7988H794.064V46.6094H785.152V48.2969H793.695V50.0547H785.152V51.8828H794.188ZM795.787 55.9258V57.7539H781.145V55.9258H795.787ZM809.814 44.7812V45.7832C809.814 46.8906 809.814 48.4902 809.445 50.4766L807.248 50.2656C807.529 48.7275 807.6 47.5674 807.617 46.6094H801.588V44.7812H809.814ZM805.842 48.4727V51.5312C807.433 51.4697 809.067 51.3467 810.57 51.127L810.693 52.7441C807.371 53.3594 803.609 53.4121 800.832 53.4297L800.639 51.6367C801.535 51.6367 802.546 51.6367 803.609 51.6016V48.4727H805.842ZM813.734 43.6211V48.4902H815.668V50.3711H813.734V55.5918H811.432V43.6211H813.734ZM814.227 57.543V59.3359H802.994V54.5195H805.244V57.543H814.227ZM829.818 43.6211V59.6523H827.586V43.6211H829.818ZM824.861 44.957V51.127H819.588V54.0625C822.022 54.0537 824.097 53.9131 826.443 53.5352L826.637 55.3457C824 55.8027 821.627 55.9082 818.709 55.9082H817.268V49.3516H822.576V46.7676H817.25V44.957H824.861Z" fill="#71717A"/>
<g clip-path="url(#clip1_1004_6115)">
<circle cx="1219.5" cy="51.5" r="13.5" fill="#FAFAFA"/>
<path d="M1225.06 47.2526C1225.06 46.2356 1224.24 45.4111 1223.22 45.4111H1214.2C1213.18 45.4111 1212.35 46.2356 1212.35 47.2526V53.7891C1212.35 54.6294 1212.92 55.3631 1213.74 55.5724L1222.76 57.8936C1223.93 58.1933 1225.06 57.3134 1225.06 56.1102V47.2526Z" fill="#3B82F6"/>
<rect width="0.841798" height="2.52539" rx="0.420899" transform="matrix(-1 0 0 1 1215.46 49.9033)" fill="white"/>
<rect width="0.841798" height="2.52539" rx="0.420899" transform="matrix(-1 0 0 1 1217.15 49.9033)" fill="white"/>
</g>
<path d="M1245.94 45.125C1245.94 48.7969 1243.45 51.3438 1239.25 52.4219L1238.56 51.0781C1241.85 50.2266 1243.78 48.5625 1244.08 46.5H1239.38V45.125H1245.94ZM1250.23 44.2812V52.1875H1248.48V44.2812H1250.23ZM1250.23 52.7969V58.2031H1240.91V52.7969H1250.23ZM1242.62 54.1719V56.8281H1248.53V54.1719H1242.62ZM1257.34 47.6562C1257.33 50.1719 1258.59 52.7344 1260.78 53.7812L1259.72 55.1719C1258.19 54.3984 1257.09 52.9062 1256.48 51.1094C1255.87 53.0312 1254.71 54.625 1253.09 55.4375L1252.03 54.0469C1254.3 52.9688 1255.59 50.2656 1255.61 47.6562V45.4062H1257.34V47.6562ZM1263.36 44.2656V49.7969H1265.53V51.2812H1263.36V58.3906H1261.62V44.2656H1263.36ZM1277.27 44.2812V47.6562H1279.25V49.0938H1277.27V52.7656H1275.53V44.2812H1277.27ZM1273.11 45.1406V49.2031H1268.41V50.6875C1270.8 50.6719 1272.45 50.5859 1274.38 50.2656L1274.56 51.6562C1272.45 52.0312 1270.62 52.125 1267.83 52.1094H1266.67V47.8906H1271.41V46.5156H1266.66V45.1406H1273.11ZM1272.66 53.0781C1275.56 53.0938 1277.39 54.0781 1277.41 55.75C1277.39 57.4062 1275.56 58.3594 1272.66 58.3594C1269.69 58.3594 1267.88 57.4062 1267.88 55.75C1267.88 54.0781 1269.69 53.0938 1272.66 53.0781ZM1272.66 54.4375C1270.69 54.4375 1269.56 54.9062 1269.58 55.75C1269.56 56.5938 1270.69 57.0469 1272.66 57.0469C1274.61 57.0469 1275.69 56.5938 1275.69 55.75C1275.69 54.9062 1274.61 54.4375 1272.66 54.4375ZM1291.59 44.3281V52.2344H1290.12V44.3281H1291.59ZM1282.34 45.1406V50.0469C1284.6 50.0312 1286.59 49.8672 1288.69 49.4219L1288.89 50.6562C1286.58 51.125 1284.47 51.2969 1282.02 51.2969H1280.86V45.1406H1282.34ZM1291.59 52.875V58.1406H1282.42V52.875H1291.59ZM1283.88 54.0469V56.9531H1290.14V54.0469H1283.88Z" fill="#18181B"/>
<defs>
<clipPath id="clip0_1004_6115">
<rect width="18.4775" height="18.4775" fill="white" transform="translate(18.4766 17.5537)"/>
</clipPath>
<clipPath id="clip1_1004_6115">
<rect x="1206" y="38" width="27" height="27" rx="13.5" fill="white"/>
</clipPath>
</defs>
</svg>
