<svg width="307" height="251" viewBox="0 0 307 251" fill="none" xmlns="http://www.w3.org/2000/svg">
<rect x="1.88916" y="21.8994" width="251" height="229.101" rx="8.22951" fill="#1E40AF"/>
<rect x="14.8768" y="6.17285" width="238.053" height="228.369" rx="4.11475" fill="#DBEAFE"/>
<rect x="26.8994" width="226.03" height="228.369" rx="4.11475" fill="#EFF6FF"/>
<path d="M54.5521 29.832H210.85" stroke="#93C5FD" stroke-width="2.05738"/>
<path d="M54.5521 53.4912H181.995" stroke="#93C5FD" stroke-width="2.05738"/>
<path d="M54.5521 77.1514H206.041" stroke="#93C5FD" stroke-width="2.05738"/>
<path d="M54.5521 92.582H206.041" stroke="#93C5FD" stroke-width="2.05738"/>
<path d="M54.5521 108.013H206.041" stroke="#93C5FD" stroke-width="2.05738"/>
<path d="M295.875 67.3154H56.3723C52.6685 67.3154 49.421 69.7897 48.4379 73.3607L2.86676 238.902C1.42438 244.141 5.36667 249.315 10.8011 249.315H245.207C248.824 249.315 252.017 246.953 253.076 243.494L303.744 77.9535C305.363 72.6639 301.407 67.3154 295.875 67.3154Z" fill="#3B82F6" stroke="#3B82F6" stroke-width="2.54752"/>
</svg>
