<svg width="367" height="247" viewBox="0 0 367 247" fill="none" xmlns="http://www.w3.org/2000/svg">
<rect y="18" width="365.509" height="228.482" rx="10" fill="#60A5FA"/>
<g filter="url(#filter0_d_620_2790)">
<rect x="23" y="29" width="321" height="64" fill="white"/>
</g>
<g filter="url(#filter1_d_620_2790)">
<rect x="31.9668" width="321" height="64" transform="rotate(6.24946 31.9668 0)" fill="white"/>
</g>
<path d="M43.1077 26.8721L237.943 48.2081" stroke="#BFDBFE" stroke-width="5" stroke-linecap="round"/>
<path d="M41.2026 44.2686L256.913 67.8906" stroke="#BFDBFE" stroke-width="5" stroke-linecap="round"/>
<path d="M179.845 32C183.69 32 231 69.0411 234 69.333C237 69.6246 366 69.333 366 69.333V181.156H366.284V237C366.284 242.523 361.807 247 356.284 247H10C4.47715 247 9.89065e-08 242.523 0 237V32H179.845Z" fill="#BFDBFE"/>
<defs>
<filter id="filter0_d_620_2790" x="19" y="29" width="329" height="72" filterUnits="userSpaceOnUse" color-interpolation-filters="sRGB">
<feFlood flood-opacity="0" result="BackgroundImageFix"/>
<feColorMatrix in="SourceAlpha" type="matrix" values="0 0 0 0 0 0 0 0 0 0 0 0 0 0 0 0 0 0 127 0" result="hardAlpha"/>
<feOffset dy="4"/>
<feGaussianBlur stdDeviation="2"/>
<feComposite in2="hardAlpha" operator="out"/>
<feColorMatrix type="matrix" values="0 0 0 0 0 0 0 0 0 0 0 0 0 0 0 0 0 0 0.25 0"/>
<feBlend mode="normal" in2="BackgroundImageFix" result="effect1_dropShadow_620_2790"/>
<feBlend mode="normal" in="SourceGraphic" in2="effect1_dropShadow_620_2790" result="shape"/>
</filter>
<filter id="filter1_d_620_2790" x="21" y="0" width="334.059" height="106.562" filterUnits="userSpaceOnUse" color-interpolation-filters="sRGB">
<feFlood flood-opacity="0" result="BackgroundImageFix"/>
<feColorMatrix in="SourceAlpha" type="matrix" values="0 0 0 0 0 0 0 0 0 0 0 0 0 0 0 0 0 0 127 0" result="hardAlpha"/>
<feOffset dy="4"/>
<feGaussianBlur stdDeviation="2"/>
<feComposite in2="hardAlpha" operator="out"/>
<feColorMatrix type="matrix" values="0 0 0 0 0 0 0 0 0 0 0 0 0 0 0 0 0 0 0.25 0"/>
<feBlend mode="normal" in2="BackgroundImageFix" result="effect1_dropShadow_620_2790"/>
<feBlend mode="normal" in="SourceGraphic" in2="effect1_dropShadow_620_2790" result="shape"/>
</filter>
</defs>
</svg>
