<svg width="46" height="46" viewBox="0 0 46 46" fill="none" xmlns="http://www.w3.org/2000/svg">
<circle cx="23" cy="23" r="23" fill="#BFDBFE"/>
<rect x="10.168" y="13.9482" width="22.3304" height="20.3821" rx="1.01864" fill="#1E40AF"/>
<rect x="11.3242" y="12.5493" width="21.1786" height="20.317" rx="0.509318" fill="#DBEAFE"/>
<rect x="12.3936" y="12" width="20.109" height="20.317" rx="0.509318" fill="white"/>
<path opacity="0.3" d="M14.8525 14.6543H28.7577" stroke="#93C5FD" stroke-width="0.5" stroke-linecap="round"/>
<path opacity="0.3" d="M14.8525 16.7588H26.1906" stroke="#93C5FD" stroke-width="0.5" stroke-linecap="round"/>
<path d="M14.8525 18.8638H28.3298" stroke="#93C5FD" stroke-width="0.254659"/>
<path d="M14.8525 20.2368H28.3298" stroke="#93C5FD" stroke-width="0.254659"/>
<path d="M14.8525 21.6094H28.3298" stroke="#93C5FD" stroke-width="0.254659"/>
<path d="M35.9354 17.9888H15.2335C14.775 17.9888 14.3731 18.295 14.2514 18.737L10.3548 32.8915C10.1763 33.5401 10.6643 34.1805 11.3369 34.1805H31.6031C32.0508 34.1805 32.4461 33.8882 32.5771 33.46L36.9095 19.3055C37.1099 18.6508 36.6202 17.9888 35.9354 17.9888Z" fill="#3B82F6" stroke="#3B82F6" stroke-width="0.315328"/>
</svg>
