<svg width="19" height="20" viewBox="0 0 19 20" fill="none" xmlns="http://www.w3.org/2000/svg">
<g clip-path="url(#clip0_956_2898)">
<path d="M16.4139 3.05859H2.53172C1.68337 3.05859 0.989258 3.7527 0.989258 4.60105V15.3983C0.989258 16.2466 1.68337 16.9407 2.53172 16.9407H16.4139C17.2622 16.9407 17.9563 16.2466 17.9563 15.3983V4.60105C17.9563 3.7527 17.2622 3.05859 16.4139 3.05859ZM16.4139 15.3983H2.53172V4.60105H16.4139V15.3983ZM7.47531 13.046L9.47279 11.0485L11.4703 13.046L12.5577 11.9586L10.5602 9.96111L12.5577 7.96362L11.4703 6.87618L9.47279 8.87367L7.47531 6.87618L6.38787 7.96362L8.38536 9.96111L6.38787 11.9586L7.47531 13.046Z" fill="#3F3F46"/>
</g>
<defs>
<clipPath id="clip0_956_2898">
<rect width="18.5095" height="18.5095" fill="white" transform="translate(0.21875 0.745117)"/>
</clipPath>
</defs>
</svg>
