<svg width="46" height="46" viewBox="0 0 46 46" fill="none" xmlns="http://www.w3.org/2000/svg">
<circle cx="23" cy="23" r="23" fill="#E4E4E7"/>
<rect x="10.1685" y="13.9482" width="22.3304" height="20.3821" rx="1.01864" fill="#71717A"/>
<rect x="11.3237" y="12.5488" width="21.1786" height="20.317" rx="0.509318" fill="#FAFAFA"/>
<rect x="12.3936" y="12" width="20.109" height="20.317" rx="0.509318" fill="white"/>
<path opacity="0.3" d="M14.853 14.6543H28.7582" stroke="#D4D4D8" stroke-width="0.5" stroke-linecap="round"/>
<path opacity="0.3" d="M14.853 16.7588H26.1911" stroke="#D4D4D8" stroke-width="0.5" stroke-linecap="round"/>
<path d="M14.853 18.8633H28.3303" stroke="#D4D4D8" stroke-width="0.254659"/>
<path d="M14.853 20.2363H28.3303" stroke="#D4D4D8" stroke-width="0.254659"/>
<path d="M14.853 21.6094H28.3303" stroke="#D4D4D8" stroke-width="0.254659"/>
<path d="M35.9354 17.9893H15.2335C14.775 17.9893 14.3731 18.2955 14.2514 18.7375L10.3548 32.892C10.1763 33.5406 10.6643 34.181 11.3369 34.181H31.6031C32.0508 34.181 32.4461 33.8887 32.5771 33.4605L36.9095 19.306C37.1099 18.6513 36.6202 17.9893 35.9354 17.9893Z" fill="#D4D4D8" stroke="#E4E4E7" stroke-width="0.315328"/>
</svg>
