<svg width="307" height="231" viewBox="0 0 307 231" fill="none" xmlns="http://www.w3.org/2000/svg">
<rect x="1.68457" y="1.89941" width="251" height="229.101" rx="8.22951" fill="#27272A"/>
<rect x="15.0266" y="11" width="238" height="207" rx="4.11475" fill="#DBEAFE"/>
<rect x="27.0266" y="5" width="226" height="207" rx="4.11475" fill="#EFF6FF"/>
<path d="M54.3474 9.83203H210.645" stroke="#D4D4D8" stroke-width="2.05738"/>
<path d="M54.3474 33.4912H181.79" stroke="#D4D4D8" stroke-width="2.05738"/>
<path d="M54.3474 57.1514H205.836" stroke="#D4D4D8" stroke-width="2.05738"/>
<path d="M54.3474 72.582H205.836" stroke="#D4D4D8" stroke-width="2.05738"/>
<path d="M54.3474 88.0127H205.836" stroke="#D4D4D8" stroke-width="2.05738"/>
<path d="M296.105 1.89941H56.651C52.7874 1.89941 49.444 4.58719 48.6137 8.36058L2.19969 219.318C1.06993 224.453 4.97925 229.316 10.237 229.316H244.5C248.292 229.316 251.593 226.725 252.494 223.042L304.099 12.0844C305.367 6.90056 301.442 1.89941 296.105 1.89941Z" fill="#71717A" stroke="#71717A" stroke-width="2.54752"/>
</svg>
