<svg width="182" height="149" viewBox="0 0 182 149" fill="none" xmlns="http://www.w3.org/2000/svg">
<rect x="1" y="13" width="149" height="136" rx="4.88525" fill="#1E40AF"/>
<rect x="8.71094" y="3.66406" width="141.315" height="135.566" rx="2.44262" fill="#DBEAFE"/>
<rect x="15.8477" width="134.177" height="135.566" rx="2.44262" fill="#EFF6FF"/>
<path d="M32.2617 17.709H125.044" stroke="#93C5FD" stroke-width="1.22131"/>
<path d="M32.2617 31.7544H107.915" stroke="#93C5FD" stroke-width="1.22131"/>
<path d="M32.2617 45.7993H122.189" stroke="#93C5FD" stroke-width="1.22131"/>
<path d="M32.2617 54.959H122.189" stroke="#93C5FD" stroke-width="1.22131"/>
<path d="M32.2617 64.1187H122.189" stroke="#93C5FD" stroke-width="1.22131"/>
<path d="M174.977 59H33.222C31.1199 59 29.2535 60.3447 28.588 62.3387L2.14649 141.568C1.09067 144.732 3.4453 148 6.7805 148H145.578C147.62 148 149.447 146.729 150.158 144.814L179.557 65.5847C180.741 62.3936 178.38 59 174.977 59Z" fill="#3B82F6" stroke="#3B82F6" stroke-width="1.51227"/>
</svg>
