<svg width="199" height="26" viewBox="0 0 199 26" fill="none" xmlns="http://www.w3.org/2000/svg">
<mask id="path-1-outside-1_1004_6580" maskUnits="userSpaceOnUse" x="35.3428" y="0.171875" width="164" height="22" fill="black">
<rect fill="white" x="35.3428" y="0.171875" width="164" height="22"/>
<path d="M47.6633 1.46557L54.2046 20.4487H50.2531L48.9181 16.4172H41.6826L40.321 20.4487H36.3428L43.071 1.46557H47.6633ZM42.5103 13.6671H48.0371L45.2603 4.90977L42.5103 13.6671Z"/>
<path d="M66.7119 16.7108L67.6197 19.4075C67.1035 19.8347 66.436 20.1729 65.6173 20.422C64.7985 20.6712 63.8462 20.7958 62.7604 20.7958C60.5355 20.7958 58.8179 20.2708 57.6075 19.2206C56.4149 18.1526 55.8186 16.5507 55.8186 14.4147V13.2666C55.8186 11.9495 56.0144 10.8726 56.406 10.036C56.8154 9.19946 57.3494 8.54087 58.008 8.06029C58.6488 7.5797 59.3874 7.25041 60.224 7.07241C61.0606 6.89442 61.915 6.80542 62.7871 6.80542C64.0153 6.80542 64.9765 6.93892 65.6707 7.20591C66.3648 7.4729 66.9789 7.78439 67.5129 8.14038L66.6318 10.8637C66.0267 10.5611 65.4037 10.3297 64.7629 10.1695C64.1399 10.0093 63.4813 9.92923 62.7871 9.92923C61.6124 9.92923 60.8025 10.2941 60.3575 11.0239C59.9303 11.7359 59.7167 12.6793 59.7167 13.854C59.7167 15.189 59.9659 16.168 60.4643 16.7909C60.9627 17.3961 61.7281 17.6987 62.7604 17.6987C63.3834 17.6987 64.0242 17.6364 64.6828 17.5118C65.3414 17.3694 66.0178 17.1024 66.7119 16.7108Z"/>
<path d="M78.5756 10.1161H75.5853V16.8443C75.5853 17.1825 75.6565 17.4139 75.7989 17.5385C75.9413 17.6631 76.1371 17.7254 76.3862 17.7254C76.6176 17.7254 76.8757 17.6809 77.1605 17.5919C77.4631 17.5029 77.7746 17.3694 78.095 17.1914L79.0028 19.4609C78.6468 19.8169 78.1128 20.1284 77.4008 20.3953C76.7066 20.6623 75.9947 20.7958 75.2649 20.7958C73.9477 20.7958 73.031 20.4843 72.5149 19.8614C71.9987 19.2206 71.7406 18.3395 71.7406 17.2181V10.1161H69.6313V7.07241H71.7406V2.72043L75.5853 1.97285V7.07241H78.5756V10.1161Z"/>
<path d="M87.4506 17.7254C87.682 17.7254 87.9401 17.6809 88.2249 17.5919C88.5097 17.5029 88.8123 17.3694 89.1326 17.1914L90.0404 19.4609C89.6844 19.8169 89.1593 20.1284 88.4652 20.3953C87.771 20.6623 87.059 20.7958 86.3292 20.7958C85.0121 20.7958 84.0954 20.4843 83.5792 19.8614C83.063 19.2206 82.8049 18.3395 82.8049 17.2181V10.2229H81.4166V7.25931H86.703V16.8443C86.703 17.1825 86.7653 17.4139 86.8899 17.5385C87.0145 17.6631 87.2014 17.7254 87.4506 17.7254ZM86.703 4.98987H82.5379V1.17188H86.703V4.98987Z"/>
<path d="M98.3451 6.80542C100.374 6.80542 101.994 7.36611 103.204 8.48747C104.415 9.60884 105.02 11.371 105.02 13.7739C105.02 16.0701 104.441 17.8144 103.285 19.007C102.145 20.1996 100.499 20.7958 98.3451 20.7958C96.1736 20.7958 94.5093 20.1996 93.3524 19.007C92.2132 17.8144 91.6436 16.0701 91.6436 13.7739C91.6436 11.371 92.2488 9.60884 93.4592 8.48747C94.6873 7.36611 96.316 6.80542 98.3451 6.80542ZM95.5951 13.7739C95.5951 15.0555 95.7909 16.0345 96.1825 16.7108C96.5919 17.3694 97.3128 17.6987 98.3451 17.6987C99.3597 17.6987 100.072 17.3694 100.481 16.7108C100.89 16.0345 101.095 15.0555 101.095 13.7739C101.095 12.439 100.89 11.4689 100.481 10.8637C100.089 10.2407 99.3864 9.92923 98.3718 9.92923C97.3217 9.92923 96.5919 10.2407 96.1825 10.8637C95.7909 11.4689 95.5951 12.439 95.5951 13.7739Z"/>
<path d="M120.388 20.4487H116.49V11.5579C116.49 10.9883 116.383 10.57 116.169 10.303C115.973 10.0182 115.644 9.87584 115.181 9.87584C114.612 9.87584 114.007 10.036 113.366 10.3564C112.725 10.659 112.218 11.0061 111.844 11.3977V20.4487H107.946V7.25931H111.524L111.737 8.19378C112.218 7.81999 112.769 7.4996 113.392 7.23261C114.015 6.94782 114.781 6.80542 115.689 6.80542C117.255 6.80542 118.43 7.14361 119.213 7.81999C119.996 8.49637 120.388 9.51985 120.388 10.8904V20.4487Z"/>
<path d="M131.053 5.15007C131.053 3.7795 131.356 2.82723 131.961 2.29325C132.584 1.74146 133.581 1.46557 134.951 1.46557H138.289C140.905 1.46557 142.73 1.99065 143.762 3.04082C144.812 4.0732 145.337 5.60395 145.337 7.6331C145.337 9.94703 144.759 11.5579 143.602 12.4657C142.445 13.3734 140.665 13.8273 138.262 13.8273H135.005V20.4487H131.053V5.15007ZM137.942 4.50928H136.286C135.77 4.50928 135.423 4.61608 135.245 4.82967C135.085 5.02547 135.005 5.32806 135.005 5.73745V10.7569H137.888C139.027 10.7569 139.882 10.5166 140.451 10.036C141.021 9.55544 141.306 8.75447 141.306 7.6331C141.306 6.49393 141.021 5.69295 140.451 5.23016C139.9 4.74958 139.063 4.50928 137.942 4.50928Z"/>
<path d="M154.429 6.80542C156.458 6.80542 158.078 7.36611 159.289 8.48747C160.499 9.60884 161.104 11.371 161.104 13.7739C161.104 16.0701 160.526 17.8144 159.369 19.007C158.229 20.1996 156.583 20.7958 154.429 20.7958C152.258 20.7958 150.593 20.1996 149.436 19.007C148.297 17.8144 147.728 16.0701 147.728 13.7739C147.728 11.371 148.333 9.60884 149.543 8.48747C150.771 7.36611 152.4 6.80542 154.429 6.80542ZM151.679 13.7739C151.679 15.0555 151.875 16.0345 152.267 16.7108C152.676 17.3694 153.397 17.6987 154.429 17.6987C155.444 17.6987 156.156 17.3694 156.565 16.7108C156.975 16.0345 157.179 15.0555 157.179 13.7739C157.179 12.439 156.975 11.4689 156.565 10.8637C156.174 10.2407 155.471 9.92923 154.456 9.92923C153.406 9.92923 152.676 10.2407 152.267 10.8637C151.875 11.4689 151.679 12.439 151.679 13.7739Z"/>
<path d="M169.53 17.7254C169.761 17.7254 170.019 17.6809 170.304 17.5919C170.589 17.5029 170.892 17.3694 171.212 17.1914L172.12 19.4609C171.764 19.8169 171.239 20.1284 170.545 20.3953C169.85 20.6623 169.138 20.7958 168.409 20.7958C167.091 20.7958 166.175 20.4843 165.659 19.8614C165.142 19.2206 164.884 18.3395 164.884 17.2181V10.2229H163.496V7.25931H168.782V16.8443C168.782 17.1825 168.845 17.4139 168.969 17.5385C169.094 17.6631 169.281 17.7254 169.53 17.7254ZM168.782 4.98987H164.617V1.17188H168.782V4.98987Z"/>
<path d="M186.432 20.4487H182.534V11.5579C182.534 10.9883 182.427 10.57 182.213 10.303C182.018 10.0182 181.688 9.87584 181.225 9.87584C180.656 9.87584 180.051 10.036 179.41 10.3564C178.769 10.659 178.262 11.0061 177.888 11.3977V20.4487H173.99V7.25931H177.568L177.781 8.19378C178.262 7.81999 178.814 7.4996 179.437 7.23261C180.06 6.94782 180.825 6.80542 181.733 6.80542C183.299 6.80542 184.474 7.14361 185.257 7.81999C186.04 8.49637 186.432 9.51985 186.432 10.8904V20.4487Z"/>
<path d="M198.044 10.1161H195.054V16.8443C195.054 17.1825 195.125 17.4139 195.268 17.5385C195.41 17.6631 195.606 17.7254 195.855 17.7254C196.086 17.7254 196.345 17.6809 196.629 17.5919C196.932 17.5029 197.243 17.3694 197.564 17.1914L198.472 19.4609C198.116 19.8169 197.582 20.1284 196.87 20.3953C196.175 20.6623 195.463 20.7958 194.734 20.7958C193.416 20.7958 192.5 20.4843 191.984 19.8614C191.467 19.2206 191.209 18.3395 191.209 17.2181V10.1161H189.1V7.07241H191.209V2.72043L195.054 1.97285V7.07241H198.044V10.1161Z"/>
</mask>
<path d="M47.6633 1.46557L54.2046 20.4487H50.2531L48.9181 16.4172H41.6826L40.321 20.4487H36.3428L43.071 1.46557H47.6633ZM42.5103 13.6671H48.0371L45.2603 4.90977L42.5103 13.6671Z" fill="#18181B"/>
<path d="M66.7119 16.7108L67.6197 19.4075C67.1035 19.8347 66.436 20.1729 65.6173 20.422C64.7985 20.6712 63.8462 20.7958 62.7604 20.7958C60.5355 20.7958 58.8179 20.2708 57.6075 19.2206C56.4149 18.1526 55.8186 16.5507 55.8186 14.4147V13.2666C55.8186 11.9495 56.0144 10.8726 56.406 10.036C56.8154 9.19946 57.3494 8.54087 58.008 8.06029C58.6488 7.5797 59.3874 7.25041 60.224 7.07241C61.0606 6.89442 61.915 6.80542 62.7871 6.80542C64.0153 6.80542 64.9765 6.93892 65.6707 7.20591C66.3648 7.4729 66.9789 7.78439 67.5129 8.14038L66.6318 10.8637C66.0267 10.5611 65.4037 10.3297 64.7629 10.1695C64.1399 10.0093 63.4813 9.92923 62.7871 9.92923C61.6124 9.92923 60.8025 10.2941 60.3575 11.0239C59.9303 11.7359 59.7167 12.6793 59.7167 13.854C59.7167 15.189 59.9659 16.168 60.4643 16.7909C60.9627 17.3961 61.7281 17.6987 62.7604 17.6987C63.3834 17.6987 64.0242 17.6364 64.6828 17.5118C65.3414 17.3694 66.0178 17.1024 66.7119 16.7108Z" fill="#18181B"/>
<path d="M78.5756 10.1161H75.5853V16.8443C75.5853 17.1825 75.6565 17.4139 75.7989 17.5385C75.9413 17.6631 76.1371 17.7254 76.3862 17.7254C76.6176 17.7254 76.8757 17.6809 77.1605 17.5919C77.4631 17.5029 77.7746 17.3694 78.095 17.1914L79.0028 19.4609C78.6468 19.8169 78.1128 20.1284 77.4008 20.3953C76.7066 20.6623 75.9947 20.7958 75.2649 20.7958C73.9477 20.7958 73.031 20.4843 72.5149 19.8614C71.9987 19.2206 71.7406 18.3395 71.7406 17.2181V10.1161H69.6313V7.07241H71.7406V2.72043L75.5853 1.97285V7.07241H78.5756V10.1161Z" fill="#18181B"/>
<path d="M87.4506 17.7254C87.682 17.7254 87.9401 17.6809 88.2249 17.5919C88.5097 17.5029 88.8123 17.3694 89.1326 17.1914L90.0404 19.4609C89.6844 19.8169 89.1593 20.1284 88.4652 20.3953C87.771 20.6623 87.059 20.7958 86.3292 20.7958C85.0121 20.7958 84.0954 20.4843 83.5792 19.8614C83.063 19.2206 82.8049 18.3395 82.8049 17.2181V10.2229H81.4166V7.25931H86.703V16.8443C86.703 17.1825 86.7653 17.4139 86.8899 17.5385C87.0145 17.6631 87.2014 17.7254 87.4506 17.7254ZM86.703 4.98987H82.5379V1.17188H86.703V4.98987Z" fill="#18181B"/>
<path d="M98.3451 6.80542C100.374 6.80542 101.994 7.36611 103.204 8.48747C104.415 9.60884 105.02 11.371 105.02 13.7739C105.02 16.0701 104.441 17.8144 103.285 19.007C102.145 20.1996 100.499 20.7958 98.3451 20.7958C96.1736 20.7958 94.5093 20.1996 93.3524 19.007C92.2132 17.8144 91.6436 16.0701 91.6436 13.7739C91.6436 11.371 92.2488 9.60884 93.4592 8.48747C94.6873 7.36611 96.316 6.80542 98.3451 6.80542ZM95.5951 13.7739C95.5951 15.0555 95.7909 16.0345 96.1825 16.7108C96.5919 17.3694 97.3128 17.6987 98.3451 17.6987C99.3597 17.6987 100.072 17.3694 100.481 16.7108C100.89 16.0345 101.095 15.0555 101.095 13.7739C101.095 12.439 100.89 11.4689 100.481 10.8637C100.089 10.2407 99.3864 9.92923 98.3718 9.92923C97.3217 9.92923 96.5919 10.2407 96.1825 10.8637C95.7909 11.4689 95.5951 12.439 95.5951 13.7739Z" fill="#18181B"/>
<path d="M120.388 20.4487H116.49V11.5579C116.49 10.9883 116.383 10.57 116.169 10.303C115.973 10.0182 115.644 9.87584 115.181 9.87584C114.612 9.87584 114.007 10.036 113.366 10.3564C112.725 10.659 112.218 11.0061 111.844 11.3977V20.4487H107.946V7.25931H111.524L111.737 8.19378C112.218 7.81999 112.769 7.4996 113.392 7.23261C114.015 6.94782 114.781 6.80542 115.689 6.80542C117.255 6.80542 118.43 7.14361 119.213 7.81999C119.996 8.49637 120.388 9.51985 120.388 10.8904V20.4487Z" fill="#18181B"/>
<path d="M131.053 5.15007C131.053 3.7795 131.356 2.82723 131.961 2.29325C132.584 1.74146 133.581 1.46557 134.951 1.46557H138.289C140.905 1.46557 142.73 1.99065 143.762 3.04082C144.812 4.0732 145.337 5.60395 145.337 7.6331C145.337 9.94703 144.759 11.5579 143.602 12.4657C142.445 13.3734 140.665 13.8273 138.262 13.8273H135.005V20.4487H131.053V5.15007ZM137.942 4.50928H136.286C135.77 4.50928 135.423 4.61608 135.245 4.82967C135.085 5.02547 135.005 5.32806 135.005 5.73745V10.7569H137.888C139.027 10.7569 139.882 10.5166 140.451 10.036C141.021 9.55544 141.306 8.75447 141.306 7.6331C141.306 6.49393 141.021 5.69295 140.451 5.23016C139.9 4.74958 139.063 4.50928 137.942 4.50928Z" fill="#18181B"/>
<path d="M154.429 6.80542C156.458 6.80542 158.078 7.36611 159.289 8.48747C160.499 9.60884 161.104 11.371 161.104 13.7739C161.104 16.0701 160.526 17.8144 159.369 19.007C158.229 20.1996 156.583 20.7958 154.429 20.7958C152.258 20.7958 150.593 20.1996 149.436 19.007C148.297 17.8144 147.728 16.0701 147.728 13.7739C147.728 11.371 148.333 9.60884 149.543 8.48747C150.771 7.36611 152.4 6.80542 154.429 6.80542ZM151.679 13.7739C151.679 15.0555 151.875 16.0345 152.267 16.7108C152.676 17.3694 153.397 17.6987 154.429 17.6987C155.444 17.6987 156.156 17.3694 156.565 16.7108C156.975 16.0345 157.179 15.0555 157.179 13.7739C157.179 12.439 156.975 11.4689 156.565 10.8637C156.174 10.2407 155.471 9.92923 154.456 9.92923C153.406 9.92923 152.676 10.2407 152.267 10.8637C151.875 11.4689 151.679 12.439 151.679 13.7739Z" fill="#18181B"/>
<path d="M169.53 17.7254C169.761 17.7254 170.019 17.6809 170.304 17.5919C170.589 17.5029 170.892 17.3694 171.212 17.1914L172.12 19.4609C171.764 19.8169 171.239 20.1284 170.545 20.3953C169.85 20.6623 169.138 20.7958 168.409 20.7958C167.091 20.7958 166.175 20.4843 165.659 19.8614C165.142 19.2206 164.884 18.3395 164.884 17.2181V10.2229H163.496V7.25931H168.782V16.8443C168.782 17.1825 168.845 17.4139 168.969 17.5385C169.094 17.6631 169.281 17.7254 169.53 17.7254ZM168.782 4.98987H164.617V1.17188H168.782V4.98987Z" fill="#18181B"/>
<path d="M186.432 20.4487H182.534V11.5579C182.534 10.9883 182.427 10.57 182.213 10.303C182.018 10.0182 181.688 9.87584 181.225 9.87584C180.656 9.87584 180.051 10.036 179.41 10.3564C178.769 10.659 178.262 11.0061 177.888 11.3977V20.4487H173.99V7.25931H177.568L177.781 8.19378C178.262 7.81999 178.814 7.4996 179.437 7.23261C180.06 6.94782 180.825 6.80542 181.733 6.80542C183.299 6.80542 184.474 7.14361 185.257 7.81999C186.04 8.49637 186.432 9.51985 186.432 10.8904V20.4487Z" fill="#18181B"/>
<path d="M198.044 10.1161H195.054V16.8443C195.054 17.1825 195.125 17.4139 195.268 17.5385C195.41 17.6631 195.606 17.7254 195.855 17.7254C196.086 17.7254 196.345 17.6809 196.629 17.5919C196.932 17.5029 197.243 17.3694 197.564 17.1914L198.472 19.4609C198.116 19.8169 197.582 20.1284 196.87 20.3953C196.175 20.6623 195.463 20.7958 194.734 20.7958C193.416 20.7958 192.5 20.4843 191.984 19.8614C191.467 19.2206 191.209 18.3395 191.209 17.2181V10.1161H189.1V7.07241H191.209V2.72043L195.054 1.97285V7.07241H198.044V10.1161Z" fill="#18181B"/>
<path d="M47.6633 1.46557L54.2046 20.4487H50.2531L48.9181 16.4172H41.6826L40.321 20.4487H36.3428L43.071 1.46557H47.6633ZM42.5103 13.6671H48.0371L45.2603 4.90977L42.5103 13.6671Z" stroke="#18181B" stroke-width="0.821516" mask="url(#path-1-outside-1_1004_6580)"/>
<path d="M66.7119 16.7108L67.6197 19.4075C67.1035 19.8347 66.436 20.1729 65.6173 20.422C64.7985 20.6712 63.8462 20.7958 62.7604 20.7958C60.5355 20.7958 58.8179 20.2708 57.6075 19.2206C56.4149 18.1526 55.8186 16.5507 55.8186 14.4147V13.2666C55.8186 11.9495 56.0144 10.8726 56.406 10.036C56.8154 9.19946 57.3494 8.54087 58.008 8.06029C58.6488 7.5797 59.3874 7.25041 60.224 7.07241C61.0606 6.89442 61.915 6.80542 62.7871 6.80542C64.0153 6.80542 64.9765 6.93892 65.6707 7.20591C66.3648 7.4729 66.9789 7.78439 67.5129 8.14038L66.6318 10.8637C66.0267 10.5611 65.4037 10.3297 64.7629 10.1695C64.1399 10.0093 63.4813 9.92923 62.7871 9.92923C61.6124 9.92923 60.8025 10.2941 60.3575 11.0239C59.9303 11.7359 59.7167 12.6793 59.7167 13.854C59.7167 15.189 59.9659 16.168 60.4643 16.7909C60.9627 17.3961 61.7281 17.6987 62.7604 17.6987C63.3834 17.6987 64.0242 17.6364 64.6828 17.5118C65.3414 17.3694 66.0178 17.1024 66.7119 16.7108Z" stroke="#18181B" stroke-width="0.821516" mask="url(#path-1-outside-1_1004_6580)"/>
<path d="M78.5756 10.1161H75.5853V16.8443C75.5853 17.1825 75.6565 17.4139 75.7989 17.5385C75.9413 17.6631 76.1371 17.7254 76.3862 17.7254C76.6176 17.7254 76.8757 17.6809 77.1605 17.5919C77.4631 17.5029 77.7746 17.3694 78.095 17.1914L79.0028 19.4609C78.6468 19.8169 78.1128 20.1284 77.4008 20.3953C76.7066 20.6623 75.9947 20.7958 75.2649 20.7958C73.9477 20.7958 73.031 20.4843 72.5149 19.8614C71.9987 19.2206 71.7406 18.3395 71.7406 17.2181V10.1161H69.6313V7.07241H71.7406V2.72043L75.5853 1.97285V7.07241H78.5756V10.1161Z" stroke="#18181B" stroke-width="0.821516" mask="url(#path-1-outside-1_1004_6580)"/>
<path d="M87.4506 17.7254C87.682 17.7254 87.9401 17.6809 88.2249 17.5919C88.5097 17.5029 88.8123 17.3694 89.1326 17.1914L90.0404 19.4609C89.6844 19.8169 89.1593 20.1284 88.4652 20.3953C87.771 20.6623 87.059 20.7958 86.3292 20.7958C85.0121 20.7958 84.0954 20.4843 83.5792 19.8614C83.063 19.2206 82.8049 18.3395 82.8049 17.2181V10.2229H81.4166V7.25931H86.703V16.8443C86.703 17.1825 86.7653 17.4139 86.8899 17.5385C87.0145 17.6631 87.2014 17.7254 87.4506 17.7254ZM86.703 4.98987H82.5379V1.17188H86.703V4.98987Z" stroke="#18181B" stroke-width="0.821516" mask="url(#path-1-outside-1_1004_6580)"/>
<path d="M98.3451 6.80542C100.374 6.80542 101.994 7.36611 103.204 8.48747C104.415 9.60884 105.02 11.371 105.02 13.7739C105.02 16.0701 104.441 17.8144 103.285 19.007C102.145 20.1996 100.499 20.7958 98.3451 20.7958C96.1736 20.7958 94.5093 20.1996 93.3524 19.007C92.2132 17.8144 91.6436 16.0701 91.6436 13.7739C91.6436 11.371 92.2488 9.60884 93.4592 8.48747C94.6873 7.36611 96.316 6.80542 98.3451 6.80542ZM95.5951 13.7739C95.5951 15.0555 95.7909 16.0345 96.1825 16.7108C96.5919 17.3694 97.3128 17.6987 98.3451 17.6987C99.3597 17.6987 100.072 17.3694 100.481 16.7108C100.89 16.0345 101.095 15.0555 101.095 13.7739C101.095 12.439 100.89 11.4689 100.481 10.8637C100.089 10.2407 99.3864 9.92923 98.3718 9.92923C97.3217 9.92923 96.5919 10.2407 96.1825 10.8637C95.7909 11.4689 95.5951 12.439 95.5951 13.7739Z" stroke="#18181B" stroke-width="0.821516" mask="url(#path-1-outside-1_1004_6580)"/>
<path d="M120.388 20.4487H116.49V11.5579C116.49 10.9883 116.383 10.57 116.169 10.303C115.973 10.0182 115.644 9.87584 115.181 9.87584C114.612 9.87584 114.007 10.036 113.366 10.3564C112.725 10.659 112.218 11.0061 111.844 11.3977V20.4487H107.946V7.25931H111.524L111.737 8.19378C112.218 7.81999 112.769 7.4996 113.392 7.23261C114.015 6.94782 114.781 6.80542 115.689 6.80542C117.255 6.80542 118.43 7.14361 119.213 7.81999C119.996 8.49637 120.388 9.51985 120.388 10.8904V20.4487Z" stroke="#18181B" stroke-width="0.821516" mask="url(#path-1-outside-1_1004_6580)"/>
<path d="M131.053 5.15007C131.053 3.7795 131.356 2.82723 131.961 2.29325C132.584 1.74146 133.581 1.46557 134.951 1.46557H138.289C140.905 1.46557 142.73 1.99065 143.762 3.04082C144.812 4.0732 145.337 5.60395 145.337 7.6331C145.337 9.94703 144.759 11.5579 143.602 12.4657C142.445 13.3734 140.665 13.8273 138.262 13.8273H135.005V20.4487H131.053V5.15007ZM137.942 4.50928H136.286C135.77 4.50928 135.423 4.61608 135.245 4.82967C135.085 5.02547 135.005 5.32806 135.005 5.73745V10.7569H137.888C139.027 10.7569 139.882 10.5166 140.451 10.036C141.021 9.55544 141.306 8.75447 141.306 7.6331C141.306 6.49393 141.021 5.69295 140.451 5.23016C139.9 4.74958 139.063 4.50928 137.942 4.50928Z" stroke="#18181B" stroke-width="0.821516" mask="url(#path-1-outside-1_1004_6580)"/>
<path d="M154.429 6.80542C156.458 6.80542 158.078 7.36611 159.289 8.48747C160.499 9.60884 161.104 11.371 161.104 13.7739C161.104 16.0701 160.526 17.8144 159.369 19.007C158.229 20.1996 156.583 20.7958 154.429 20.7958C152.258 20.7958 150.593 20.1996 149.436 19.007C148.297 17.8144 147.728 16.0701 147.728 13.7739C147.728 11.371 148.333 9.60884 149.543 8.48747C150.771 7.36611 152.4 6.80542 154.429 6.80542ZM151.679 13.7739C151.679 15.0555 151.875 16.0345 152.267 16.7108C152.676 17.3694 153.397 17.6987 154.429 17.6987C155.444 17.6987 156.156 17.3694 156.565 16.7108C156.975 16.0345 157.179 15.0555 157.179 13.7739C157.179 12.439 156.975 11.4689 156.565 10.8637C156.174 10.2407 155.471 9.92923 154.456 9.92923C153.406 9.92923 152.676 10.2407 152.267 10.8637C151.875 11.4689 151.679 12.439 151.679 13.7739Z" stroke="#18181B" stroke-width="0.821516" mask="url(#path-1-outside-1_1004_6580)"/>
<path d="M169.53 17.7254C169.761 17.7254 170.019 17.6809 170.304 17.5919C170.589 17.5029 170.892 17.3694 171.212 17.1914L172.12 19.4609C171.764 19.8169 171.239 20.1284 170.545 20.3953C169.85 20.6623 169.138 20.7958 168.409 20.7958C167.091 20.7958 166.175 20.4843 165.659 19.8614C165.142 19.2206 164.884 18.3395 164.884 17.2181V10.2229H163.496V7.25931H168.782V16.8443C168.782 17.1825 168.845 17.4139 168.969 17.5385C169.094 17.6631 169.281 17.7254 169.53 17.7254ZM168.782 4.98987H164.617V1.17188H168.782V4.98987Z" stroke="#18181B" stroke-width="0.821516" mask="url(#path-1-outside-1_1004_6580)"/>
<path d="M186.432 20.4487H182.534V11.5579C182.534 10.9883 182.427 10.57 182.213 10.303C182.018 10.0182 181.688 9.87584 181.225 9.87584C180.656 9.87584 180.051 10.036 179.41 10.3564C178.769 10.659 178.262 11.0061 177.888 11.3977V20.4487H173.99V7.25931H177.568L177.781 8.19378C178.262 7.81999 178.814 7.4996 179.437 7.23261C180.06 6.94782 180.825 6.80542 181.733 6.80542C183.299 6.80542 184.474 7.14361 185.257 7.81999C186.04 8.49637 186.432 9.51985 186.432 10.8904V20.4487Z" stroke="#18181B" stroke-width="0.821516" mask="url(#path-1-outside-1_1004_6580)"/>
<path d="M198.044 10.1161H195.054V16.8443C195.054 17.1825 195.125 17.4139 195.268 17.5385C195.41 17.6631 195.606 17.7254 195.855 17.7254C196.086 17.7254 196.345 17.6809 196.629 17.5919C196.932 17.5029 197.243 17.3694 197.564 17.1914L198.472 19.4609C198.116 19.8169 197.582 20.1284 196.87 20.3953C196.175 20.6623 195.463 20.7958 194.734 20.7958C193.416 20.7958 192.5 20.4843 191.984 19.8614C191.467 19.2206 191.209 18.3395 191.209 17.2181V10.1161H189.1V7.07241H191.209V2.72043L195.054 1.97285V7.07241H198.044V10.1161Z" stroke="#18181B" stroke-width="0.821516" mask="url(#path-1-outside-1_1004_6580)"/>
<path d="M0 3.58012C0 2.16756 1.1451 1.02246 2.55766 1.02246H16.8932C18.3058 1.02246 19.4509 2.16757 19.4509 3.58012V11.9891C19.4509 13.1871 18.6193 14.2246 17.4501 14.4855L3.11451 17.6833C1.51667 18.0397 0 16.8241 0 15.187V3.58012Z" fill="#18181B"/>
<rect x="16.5938" y="5.86328" width="1.27883" height="3.83649" rx="0.639416" fill="white"/>
<rect x="14.0342" y="5.86328" width="1.27883" height="3.83649" rx="0.639416" fill="white"/>
<path d="M30.9688 14.834C30.9688 13.4215 29.8236 12.2764 28.4111 12.2764H18.1705C16.7579 12.2764 15.6128 13.4215 15.6128 14.834V20.5027C15.6128 21.7007 16.4444 22.7382 17.6136 22.999L27.8542 25.2834C29.4521 25.6398 30.9688 24.4242 30.9688 22.7871V14.834Z" fill="#60A5FA"/>
<rect width="1.02306" height="2.81343" rx="0.511532" transform="matrix(-1 0 0 1 18.4277 16.3682)" fill="#CBE2FF"/>
<rect width="1.02306" height="2.81343" rx="0.511532" transform="matrix(-1 0 0 1 20.4746 16.3682)" fill="#CBE2FF"/>
<path d="M23.8018 9.87222L22.0104 8.70539" stroke="#60A5FA" stroke-width="0.532493" stroke-linecap="round"/>
<path d="M22.0107 6.32339L23.8021 5.15656" stroke="#60A5FA" stroke-width="0.532493" stroke-linecap="round"/>
<path d="M22.0107 6.32339L23.8021 5.15656" stroke="#60A5FA" stroke-width="0.532493" stroke-linecap="round"/>
<path d="M22.0107 7.52148H23.7869" stroke="#60A5FA" stroke-width="0.532493" stroke-linecap="round"/>
</svg>
