<svg width="73" height="99" viewBox="0 0 73 99" fill="none" xmlns="http://www.w3.org/2000/svg">
<path d="M72.3162 10.1728C72.3162 4.65 67.839 0.172852 62.3162 0.172852H10.3162C4.79331 0.172852 0.316162 4.65 0.316162 10.1729V24.2384C0.316162 29.1838 3.93103 33.3865 8.82081 34.126L60.8208 41.9902C66.8706 42.9052 72.3162 38.2212 72.3162 32.1027V10.1728Z" fill="#18181B"/>
<rect width="4.8" height="10.889" rx="2.4" transform="matrix(-1 0 0 1 9.91602 11.062)" fill="#FAFAFA"/>
<rect width="4.8" height="10.889" rx="2.4" transform="matrix(-1 0 0 1 19.5161 11.062)" fill="#FAFAFA"/>
<path d="M72.3162 53.728C72.3162 48.2052 67.839 43.728 62.3162 43.728H10.3162C4.79331 43.728 0.316162 48.2052 0.316162 53.728V88.1729C0.316162 93.6957 4.79331 98.1729 10.3162 98.1729H62.3162C67.839 98.1729 72.3162 93.6957 72.3162 88.1729V53.728Z" fill="#18181B"/>
</svg>
