<svg width="63" height="119" viewBox="0 0 63 119" fill="none" xmlns="http://www.w3.org/2000/svg">
<path d="M62.6016 4.29091C62.6016 2.01333 60.7552 0.166992 58.4777 0.166992H4.86679C2.58921 0.166992 0.74287 2.01333 0.74287 4.2909V36.3307C0.74287 38.2774 2.10416 39.959 4.00819 40.3643L57.6191 51.776C60.1848 52.3221 62.6016 50.3656 62.6016 47.7425V4.29091Z" fill="#18181B"/>
<rect width="4.12391" height="13.1674" transform="matrix(-1 0 0 1 8.99219 13.335)" fill="white"/>
<rect width="4.12391" height="13.1674" transform="matrix(-1 0 0 1 17.2383 13.335)" fill="white"/>
<path d="M62.6016 56.9603C62.6016 54.6828 60.7552 52.8364 58.4777 52.8364H4.86679C2.58921 52.8364 0.74287 54.6828 0.74287 56.9603V114.55C0.74287 116.827 2.58921 118.673 4.86678 118.673H58.4776C60.7552 118.673 62.6016 116.827 62.6016 114.55V56.9603Z" fill="#18181B"/>
</svg>
