<svg width="1440" height="1745" viewBox="0 0 1440 1745" fill="none" xmlns="http://www.w3.org/2000/svg">
<rect width="1440" height="1745" fill="white"/>
<path d="M199.061 513.674V518.332H201.275V519.949H199.061V525.293H197.109V513.674H199.061ZM199.693 527.666V529.248H188.883V524.08H190.834V527.666H199.693ZM190.992 514.729C193.4 514.729 195.264 516.398 195.281 518.736C195.264 521.039 193.4 522.727 190.992 522.727C188.584 522.727 186.686 521.039 186.703 518.736C186.686 516.398 188.584 514.729 190.992 514.729ZM190.992 516.434C189.656 516.434 188.602 517.33 188.619 518.736C188.602 520.107 189.656 521.004 190.992 521.004C192.328 521.004 193.365 520.107 193.365 518.736C193.365 517.33 192.328 516.434 190.992 516.434ZM215.328 513.691V525.346H213.376V520.002H210.318V518.385H213.376V513.691H215.328ZM210.423 514.887C210.423 519.07 207.646 522.217 203.058 523.676L202.232 522.111C205.66 521.021 207.918 519 208.296 516.486H203.058V514.887H210.423ZM215.732 527.666V529.248H204.974V524.168H206.96V527.666H215.732ZM223.21 515.273V528H220.907V517.506H220.837L217.866 519.404V517.312L221.013 515.273H223.21ZM230.442 523.148C230.442 526.471 229.457 529.213 227.805 531.586H225.696C226.909 529.828 228.122 526.295 228.122 523.148C228.122 520.002 226.909 516.469 225.696 514.729H227.805C229.457 517.084 230.442 519.844 230.442 523.148Z" fill="#3B82F6"/>
<path d="M240.335 514.658C242.445 514.658 243.992 516.24 243.992 518.49C243.992 520.758 242.445 522.305 240.335 522.305C238.226 522.305 236.697 520.758 236.697 518.49C236.697 516.24 238.226 514.658 240.335 514.658ZM240.335 516.328C239.228 516.328 238.437 517.154 238.455 518.49C238.437 519.809 239.228 520.67 240.335 520.652C241.425 520.67 242.216 519.809 242.216 518.49C242.216 517.154 241.425 516.328 240.335 516.328ZM250.179 513.691V523.166H248.316V519.193H246.751V523.061H244.941V513.99H246.751V517.629H248.316V513.691H250.179ZM250.179 523.922V529.564H248.228V525.486H239.298V523.922H250.179ZM257.868 516.486C257.868 518.719 259.116 520.916 261.56 521.83L260.47 523.342C258.773 522.674 257.56 521.347 256.901 519.703C256.216 521.461 254.933 522.858 253.104 523.57L252.05 522.023C254.581 521.109 255.882 518.859 255.899 516.486V514.588H257.868V516.486ZM265.392 513.691V525.486H263.44V520.564H260.54V519H263.44V517.436H260.54V515.854H263.44V513.691H265.392ZM265.743 527.666V529.248H254.915V524.326H256.901V527.666H265.743ZM282.098 526.084V527.719H267.579V526.084H273.819V522.955H268.827V521.408H271.059V516.662H268.774V515.08H280.832V516.662H278.512V521.408H280.78V522.955H275.752V526.084H282.098ZM273.01 521.408H276.579V516.662H273.01V521.408ZM296.309 513.691V525.17H294.34V513.691H296.309ZM296.748 527.666V529.248H285.797V524.01H287.766V527.666H296.748ZM287.642 514.729C290.051 514.729 291.914 516.398 291.914 518.701C291.914 521.057 290.051 522.691 287.642 522.691C285.217 522.691 283.353 521.057 283.353 518.701C283.353 516.398 285.217 514.729 287.642 514.729ZM287.642 516.434C286.289 516.434 285.252 517.33 285.269 518.701C285.252 520.107 286.289 520.986 287.642 520.986C288.961 520.986 289.998 520.107 289.998 518.701C289.998 517.33 288.961 516.434 287.642 516.434ZM311.486 522.006V523.553H300.341V514.922H311.345V516.504H302.328V518.42H310.976V519.949H302.328V522.006H311.486ZM313.085 526.031V527.631H298.566V526.031H313.085ZM319.21 514.781C321.724 514.764 323.569 516.363 323.587 518.613C323.569 520.881 321.724 522.463 319.21 522.463C316.714 522.463 314.85 520.881 314.85 518.613C314.85 516.363 316.714 514.764 319.21 514.781ZM319.21 516.469C317.821 516.469 316.784 517.295 316.784 518.613C316.784 519.949 317.821 520.758 319.21 520.758C320.616 520.758 321.671 519.949 321.671 518.613C321.671 517.295 320.616 516.469 319.21 516.469ZM327.296 513.674V529.582H325.345V513.674H327.296ZM314.13 524.66C316.995 524.66 320.968 524.625 324.395 524.133L324.554 525.557C320.985 526.242 317.171 526.26 314.376 526.26L314.13 524.66ZM347.068 513.674V523.113H345.117V519.229H342.41V517.629H345.117V513.674H347.068ZM341.689 523.518C345.064 523.518 347.121 524.625 347.121 526.541C347.121 528.457 345.064 529.564 341.689 529.564C338.332 529.564 336.275 528.457 336.293 526.541C336.275 524.625 338.332 523.518 341.689 523.518ZM341.689 525.012C339.474 525.012 338.226 525.539 338.226 526.541C338.226 527.525 339.474 528.053 341.689 528.053C343.904 528.053 345.17 527.525 345.17 526.541C345.17 525.539 343.904 525.012 341.689 525.012ZM339.598 516.398C339.598 518.332 340.881 520.283 343.342 521.109L342.357 522.656C340.591 522.059 339.334 520.846 338.648 519.352C337.945 521.048 336.618 522.401 334.728 523.078L333.709 521.531C336.258 520.652 337.611 518.508 337.611 516.416V516.293H334.307V514.711H342.885V516.293H339.598V516.398ZM354.406 514.781C356.919 514.764 358.765 516.363 358.783 518.613C358.765 520.881 356.919 522.463 354.406 522.463C351.91 522.463 350.046 520.881 350.046 518.613C350.046 516.363 351.91 514.764 354.406 514.781ZM354.406 516.469C353.017 516.469 351.98 517.295 351.98 518.613C351.98 519.949 353.017 520.758 354.406 520.758C355.812 520.758 356.867 519.949 356.867 518.613C356.867 517.295 355.812 516.469 354.406 516.469ZM362.492 513.674V529.582H360.54V513.674H362.492ZM349.326 524.66C352.191 524.66 356.163 524.625 359.591 524.133L359.749 525.557C356.181 526.242 352.367 526.26 349.572 526.26L349.326 524.66ZM379.251 520.881V522.357H364.731V520.881H379.251ZM377.493 523.307V526.928H368.388V528.035H377.968V529.389H366.436V525.662H375.559V524.678H366.419V523.307H377.493ZM377.458 514.025V517.611H368.511V518.648H377.739V519.984H366.577V516.346H375.507V515.379H366.524V514.025H377.458ZM388.793 514.834C390.946 514.834 392.537 516.627 392.818 519.527H395.842V513.674H397.775V529.582H395.842V521.109H392.836C392.625 524.177 391.008 526.066 388.793 526.066C386.402 526.066 384.715 523.904 384.715 520.441C384.715 517.014 386.402 514.834 388.793 514.834ZM388.793 516.592C387.474 516.592 386.578 518.016 386.596 520.441C386.578 522.885 387.474 524.309 388.793 524.309C390.111 524.309 390.99 522.885 391.008 520.441C390.99 518.016 390.111 516.592 388.793 516.592ZM413.163 513.674V529.582H411.195V513.674H413.163ZM408.593 515.115V516.715H402.898V524.098C405.825 524.089 407.661 524.001 409.771 523.623L409.964 525.24C407.697 525.662 405.64 525.75 402.283 525.75H400.929V515.115H408.593ZM428.112 513.674V520.02H430.309V521.637H428.112V529.564H426.143V513.674H428.112ZM420.202 515.344C420.184 519.51 419.604 523.025 416.739 526.119L415.21 525.012C417.451 522.639 418.18 520.125 418.339 516.943H415.843V515.344H420.202ZM424.596 515.344C424.579 519.615 424.139 523.693 421.274 527.139L419.71 526.066C421.977 523.368 422.61 520.389 422.751 516.943H420.729V515.344H424.596ZM436.926 518.191C436.926 520.793 438.455 523.535 441.022 524.607L439.949 526.154C438.069 525.346 436.698 523.676 435.977 521.654C435.239 523.834 433.85 525.662 431.987 526.541L430.862 525.012C433.375 523.852 434.94 520.898 434.94 518.191V516.855H431.442V515.238H440.407V516.855H436.926V518.191ZM444.151 513.674V529.564H442.182V513.674H444.151ZM464.275 513.674V529.564H462.394V521.531H460.636V528.756H458.808V513.973H460.636V519.932H462.394V513.674H464.275ZM453.288 515.502V523.887C454.659 523.86 456.162 523.746 457.823 523.412L458.017 525.117C455.872 525.504 454.062 525.609 452.374 525.609H451.32V515.502H453.288ZM479.434 513.674V529.582H477.483V523.061H474.583V521.461H477.483V518.736H474.635V517.137H477.483V513.674H479.434ZM473.739 515.045V520.986H468.641V524.361C470.742 524.344 472.57 524.256 474.706 523.939L474.864 525.539C472.421 525.926 470.399 525.979 467.938 525.979H466.708V519.457H471.823V516.609H466.655V515.045H473.739ZM485.893 514.834C488.283 514.834 490.006 517.014 490.024 520.441C490.006 523.904 488.283 526.066 485.893 526.066C483.485 526.066 481.744 523.904 481.762 520.441C481.744 517.014 483.485 514.834 485.893 514.834ZM485.893 516.592C484.557 516.592 483.643 518.016 483.643 520.441C483.643 522.885 484.557 524.309 485.893 524.309C487.246 524.309 488.143 522.885 488.143 520.441C488.143 518.016 487.246 516.592 485.893 516.592ZM496.422 517.471V519.105H494.067V522.164H496.422V523.764H494.067V529.564H492.115V513.674H494.067V517.471H496.422ZM513.857 513.691V518.684H516.071V520.301H513.857V525.557H511.905V513.691H513.857ZM510.763 515.449V517.014H501.341V515.449H505.085V513.674H507.036V515.449H510.763ZM506.052 517.664C508.337 517.664 509.919 518.877 509.937 520.705C509.919 522.516 508.337 523.711 506.052 523.711C503.749 523.711 502.15 522.516 502.15 520.705C502.15 518.877 503.749 517.664 506.052 517.664ZM506.052 519.176C504.839 519.176 504.048 519.738 504.048 520.705C504.048 521.654 504.839 522.217 506.052 522.199C507.265 522.217 508.073 521.654 508.073 520.705C508.073 519.738 507.265 519.176 506.052 519.176ZM514.489 527.666V529.248H503.679V524.625H505.63V527.666H514.489ZM529.262 513.674V519.703H531.706V521.303H529.262V529.582H527.311V513.674H529.262ZM524.903 515.186V516.768H519.419V524.062C521.888 524.062 523.84 523.939 526.028 523.553L526.257 525.205C523.796 525.627 521.651 525.697 518.786 525.697H517.467V515.186H524.903ZM541.476 516.627C541.476 518.35 542.478 520.072 544.57 520.863L543.533 522.357C542.118 521.812 541.133 520.802 540.562 519.562C539.982 520.986 538.945 522.199 537.433 522.832L536.379 521.338C538.558 520.371 539.578 518.385 539.595 516.627V514.658H541.476V516.627ZM550.107 513.691V523.43H548.244V519.299H546.662V522.938H544.834V513.99H546.662V517.699H548.244V513.691H550.107ZM544.746 523.693C548.068 523.693 550.177 524.783 550.195 526.611C550.177 528.439 548.068 529.547 544.746 529.547C541.388 529.547 539.297 528.439 539.297 526.611C539.297 524.783 541.388 523.693 544.746 523.693ZM544.746 525.17C542.548 525.17 541.248 525.68 541.248 526.611C541.248 527.561 542.548 528.053 544.746 528.053C546.925 528.053 548.226 527.561 548.226 526.611C548.226 525.68 546.925 525.17 544.746 525.17ZM564.546 513.674V517.506H566.761V519.141H564.546V522.938H562.595V513.674H564.546ZM560.116 514.605C560.116 518.771 557.409 521.637 552.663 522.85L551.855 521.355C555.572 520.397 557.682 518.499 558.025 516.188H552.646V514.605H560.116ZM564.546 523.605V529.564H562.595V525.17H553.964V523.605H564.546ZM575.258 516.205V517.77H567.471V516.205H570.424V514.131H572.358V516.205H575.258ZM571.391 518.613C573.413 518.613 574.854 520.143 574.854 522.305C574.854 524.502 573.413 526.049 571.391 526.049C569.387 526.049 567.911 524.502 567.928 522.305C567.911 520.143 569.387 518.613 571.391 518.613ZM571.391 520.23C570.354 520.23 569.633 521.057 569.651 522.305C569.633 523.588 570.354 524.396 571.391 524.379C572.411 524.396 573.131 523.588 573.131 522.305C573.131 521.057 572.411 520.23 571.391 520.23ZM581.165 513.674V529.564H579.301V521.795H577.755V528.844H575.926V514.008H577.755V520.213H579.301V513.674H581.165ZM585.69 524.098C585.707 521.865 586.34 521.18 587.447 520.494C588.203 520.02 588.766 519.422 588.766 518.543C588.766 517.559 588.01 516.926 587.043 516.926C586.164 516.926 585.32 517.488 585.268 518.666H583.07C583.123 516.311 584.899 515.098 587.061 515.098C589.434 515.098 591.068 516.416 591.068 518.508C591.068 519.932 590.348 520.863 589.205 521.549C588.186 522.164 587.764 522.779 587.746 524.098V524.256H585.69V524.098ZM586.779 528.141C586.024 528.141 585.408 527.525 585.408 526.77C585.408 526.031 586.024 525.416 586.779 525.416C587.5 525.416 588.133 526.031 588.133 526.77C588.133 527.525 587.5 528.141 586.779 528.141Z" fill="#18181B"/>
<path d="M199.061 923.674V928.332H201.275V929.949H199.061V935.293H197.109V923.674H199.061ZM199.693 937.666V939.248H188.883V934.08H190.834V937.666H199.693ZM190.992 924.729C193.4 924.729 195.264 926.398 195.281 928.736C195.264 931.039 193.4 932.727 190.992 932.727C188.584 932.727 186.686 931.039 186.703 928.736C186.686 926.398 188.584 924.729 190.992 924.729ZM190.992 926.434C189.656 926.434 188.602 927.33 188.619 928.736C188.602 930.107 189.656 931.004 190.992 931.004C192.328 931.004 193.365 930.107 193.365 928.736C193.365 927.33 192.328 926.434 190.992 926.434ZM215.328 923.691V935.346H213.376V930.002H210.318V928.385H213.376V923.691H215.328ZM210.423 924.887C210.423 929.07 207.646 932.217 203.058 933.676L202.232 932.111C205.66 931.021 207.918 929 208.296 926.486H203.058V924.887H210.423ZM215.732 937.666V939.248H204.974V934.168H206.96V937.666H215.732ZM218.042 938V936.348L222.542 932.006C223.825 930.723 224.493 929.967 224.493 928.895C224.493 927.717 223.562 926.961 222.313 926.961C220.995 926.961 220.151 927.787 220.169 929.07H217.989C217.972 926.662 219.782 925.098 222.331 925.098C224.933 925.098 226.69 926.645 226.69 928.789C226.69 930.23 225.987 931.391 223.491 933.746L221.224 935.996V936.084H226.884V938H218.042ZM233.026 933.148C233.026 936.471 232.041 939.213 230.389 941.586H228.28C229.493 939.828 230.706 936.295 230.706 933.148C230.706 930.002 229.493 926.469 228.28 924.729H230.389C232.041 927.084 233.026 929.844 233.026 933.148Z" fill="#3B82F6"/>
<path d="M242.919 924.658C245.029 924.658 246.576 926.24 246.576 928.49C246.576 930.758 245.029 932.305 242.919 932.305C240.81 932.305 239.281 930.758 239.281 928.49C239.281 926.24 240.81 924.658 242.919 924.658ZM242.919 926.328C241.812 926.328 241.021 927.154 241.039 928.49C241.021 929.809 241.812 930.67 242.919 930.652C244.009 930.67 244.8 929.809 244.8 928.49C244.8 927.154 244.009 926.328 242.919 926.328ZM252.763 923.691V933.166H250.9V929.193H249.335V933.061H247.525V923.99H249.335V927.629H250.9V923.691H252.763ZM252.763 933.922V939.564H250.812V935.486H241.882V933.922H252.763ZM260.452 926.486C260.452 928.719 261.7 930.916 264.143 931.83L263.054 933.342C261.357 932.674 260.144 931.347 259.485 929.703C258.8 931.461 257.517 932.858 255.688 933.57L254.634 932.023C257.165 931.109 258.466 928.859 258.483 926.486V924.588H260.452V926.486ZM267.976 923.691V935.486H266.024V930.564H263.124V929H266.024V927.436H263.124V925.854H266.024V923.691H267.976ZM268.327 937.666V939.248H257.499V934.326H259.485V937.666H268.327ZM284.682 936.084V937.719H270.163V936.084H276.403V932.955H271.411V931.408H273.643V926.662H271.358V925.08H283.416V926.662H281.096V931.408H283.364V932.955H278.336V936.084H284.682ZM275.594 931.408H279.163V926.662H275.594V931.408ZM298.892 923.691V935.17H296.924V923.691H298.892ZM299.332 937.666V939.248H288.381V934.01H290.35V937.666H299.332ZM290.226 924.729C292.635 924.729 294.498 926.398 294.498 928.701C294.498 931.057 292.635 932.691 290.226 932.691C287.801 932.691 285.937 931.057 285.937 928.701C285.937 926.398 287.801 924.729 290.226 924.729ZM290.226 926.434C288.873 926.434 287.836 927.33 287.853 928.701C287.836 930.107 288.873 930.986 290.226 930.986C291.545 930.986 292.582 930.107 292.582 928.701C292.582 927.33 291.545 926.434 290.226 926.434ZM314.07 932.006V933.553H302.925V924.922H313.929V926.504H304.912V928.42H313.56V929.949H304.912V932.006H314.07ZM315.669 936.031V937.631H301.15V936.031H315.669ZM321.794 924.781C324.307 924.764 326.153 926.363 326.171 928.613C326.153 930.881 324.307 932.463 321.794 932.463C319.298 932.463 317.434 930.881 317.434 928.613C317.434 926.363 319.298 924.764 321.794 924.781ZM321.794 926.469C320.405 926.469 319.368 927.295 319.368 928.613C319.368 929.949 320.405 930.758 321.794 930.758C323.2 930.758 324.255 929.949 324.255 928.613C324.255 927.295 323.2 926.469 321.794 926.469ZM329.88 923.674V939.582H327.929V923.674H329.88ZM316.714 934.66C319.579 934.66 323.552 934.625 326.979 934.133L327.138 935.557C323.569 936.242 319.755 936.26 316.96 936.26L316.714 934.66ZM349.652 923.674V933.113H347.701V929.229H344.994V927.629H347.701V923.674H349.652ZM344.273 933.518C347.648 933.518 349.705 934.625 349.705 936.541C349.705 938.457 347.648 939.564 344.273 939.564C340.916 939.564 338.859 938.457 338.877 936.541C338.859 934.625 340.916 933.518 344.273 933.518ZM344.273 935.012C342.058 935.012 340.81 935.539 340.81 936.541C340.81 937.525 342.058 938.053 344.273 938.053C346.488 938.053 347.754 937.525 347.754 936.541C347.754 935.539 346.488 935.012 344.273 935.012ZM342.182 926.398C342.182 928.332 343.465 930.283 345.926 931.109L344.941 932.656C343.175 932.059 341.918 930.846 341.232 929.352C340.529 931.048 339.202 932.401 337.312 933.078L336.293 931.531C338.842 930.652 340.195 928.508 340.195 926.416V926.293H336.89V924.711H345.469V926.293H342.182V926.398ZM356.99 924.781C359.503 924.764 361.349 926.363 361.367 928.613C361.349 930.881 359.503 932.463 356.99 932.463C354.493 932.463 352.63 930.881 352.63 928.613C352.63 926.363 354.493 924.764 356.99 924.781ZM356.99 926.469C355.601 926.469 354.564 927.295 354.564 928.613C354.564 929.949 355.601 930.758 356.99 930.758C358.396 930.758 359.451 929.949 359.451 928.613C359.451 927.295 358.396 926.469 356.99 926.469ZM365.076 923.674V939.582H363.124V923.674H365.076ZM351.91 934.66C354.775 934.66 358.747 934.625 362.175 934.133L362.333 935.557C358.765 936.242 354.951 936.26 352.156 936.26L351.91 934.66ZM381.835 930.881V932.357H367.315V930.881H381.835ZM380.077 933.307V936.928H370.972V938.035H380.552V939.389H369.02V935.662H378.143V934.678H369.003V933.307H380.077ZM380.042 924.025V927.611H371.095V928.648H380.323V929.984H369.161V926.346H378.091V925.379H369.108V924.025H380.042ZM391.377 924.834C393.53 924.834 395.121 926.627 395.402 929.527H398.426V923.674H400.359V939.582H398.426V931.109H395.42C395.209 934.177 393.592 936.066 391.377 936.066C388.986 936.066 387.299 933.904 387.299 930.441C387.299 927.014 388.986 924.834 391.377 924.834ZM391.377 926.592C390.058 926.592 389.162 928.016 389.18 930.441C389.162 932.885 390.058 934.309 391.377 934.309C392.695 934.309 393.574 932.885 393.592 930.441C393.574 928.016 392.695 926.592 391.377 926.592ZM415.747 923.674V939.582H413.779V923.674H415.747ZM411.177 925.115V926.715H405.482V934.098C408.408 934.089 410.245 934.001 412.355 933.623L412.548 935.24C410.281 935.662 408.224 935.75 404.867 935.75H403.513V925.115H411.177ZM430.696 923.674V930.02H432.893V931.637H430.696V939.564H428.727V923.674H430.696ZM422.786 925.344C422.768 929.51 422.188 933.025 419.323 936.119L417.794 935.012C420.035 932.639 420.764 930.125 420.923 926.943H418.427V925.344H422.786ZM427.18 925.344C427.163 929.615 426.723 933.693 423.858 937.139L422.294 936.066C424.561 933.368 425.194 930.389 425.335 926.943H423.313V925.344H427.18ZM439.51 928.191C439.51 930.793 441.039 933.535 443.606 934.607L442.533 936.154C440.653 935.346 439.282 933.676 438.561 931.654C437.823 933.834 436.434 935.662 434.571 936.541L433.446 935.012C435.959 933.852 437.524 930.898 437.524 928.191V926.855H434.026V925.238H442.99V926.855H439.51V928.191ZM446.735 923.674V939.564H444.766V923.674H446.735ZM466.859 923.674V939.564H464.978V931.531H463.22V938.756H461.392V923.973H463.22V929.932H464.978V923.674H466.859ZM455.872 925.502V933.887C457.243 933.86 458.746 933.746 460.407 933.412L460.601 935.117C458.456 935.504 456.646 935.609 454.958 935.609H453.904V925.502H455.872ZM482.018 923.674V939.582H480.067V933.061H477.167V931.461H480.067V928.736H477.219V927.137H480.067V923.674H482.018ZM476.323 925.045V930.986H471.225V934.361C473.326 934.344 475.154 934.256 477.29 933.939L477.448 935.539C475.005 935.926 472.983 935.979 470.522 935.979H469.292V929.457H474.407V926.609H469.239V925.045H476.323ZM488.477 924.834C490.867 924.834 492.59 927.014 492.608 930.441C492.59 933.904 490.867 936.066 488.477 936.066C486.069 936.066 484.328 933.904 484.346 930.441C484.328 927.014 486.069 924.834 488.477 924.834ZM488.477 926.592C487.141 926.592 486.227 928.016 486.227 930.441C486.227 932.885 487.141 934.309 488.477 934.309C489.83 934.309 490.727 932.885 490.727 930.441C490.727 928.016 489.83 926.592 488.477 926.592ZM499.006 927.471V929.105H496.651V932.164H499.006V933.764H496.651V939.564H494.699V923.674H496.651V927.471H499.006ZM516.441 923.691V928.684H518.655V930.301H516.441V935.557H514.489V923.691H516.441ZM513.347 925.449V927.014H503.925V925.449H507.669V923.674H509.62V925.449H513.347ZM508.636 927.664C510.921 927.664 512.503 928.877 512.521 930.705C512.503 932.516 510.921 933.711 508.636 933.711C506.333 933.711 504.734 932.516 504.734 930.705C504.734 928.877 506.333 927.664 508.636 927.664ZM508.636 929.176C507.423 929.176 506.632 929.738 506.632 930.705C506.632 931.654 507.423 932.217 508.636 932.199C509.849 932.217 510.657 931.654 510.657 930.705C510.657 929.738 509.849 929.176 508.636 929.176ZM517.073 937.666V939.248H506.263V934.625H508.214V937.666H517.073ZM531.846 923.674V929.703H534.29V931.303H531.846V939.582H529.895V923.674H531.846ZM527.487 925.186V926.768H522.003V934.062C524.472 934.062 526.424 933.939 528.612 933.553L528.841 935.205C526.38 935.627 524.235 935.697 521.37 935.697H520.051V925.186H527.487ZM544.06 926.627C544.06 928.35 545.062 930.072 547.154 930.863L546.117 932.357C544.702 931.812 543.717 930.802 543.146 929.562C542.566 930.986 541.529 932.199 540.017 932.832L538.963 931.338C541.142 930.371 542.162 928.385 542.179 926.627V924.658H544.06V926.627ZM552.691 923.691V933.43H550.828V929.299H549.246V932.938H547.418V923.99H549.246V927.699H550.828V923.691H552.691ZM547.33 933.693C550.652 933.693 552.761 934.783 552.779 936.611C552.761 938.439 550.652 939.547 547.33 939.547C543.972 939.547 541.881 938.439 541.881 936.611C541.881 934.783 543.972 933.693 547.33 933.693ZM547.33 935.17C545.132 935.17 543.832 935.68 543.832 936.611C543.832 937.561 545.132 938.053 547.33 938.053C549.509 938.053 550.81 937.561 550.81 936.611C550.81 935.68 549.509 935.17 547.33 935.17ZM567.13 923.674V927.506H569.345V929.141H567.13V932.938H565.179V923.674H567.13ZM562.7 924.605C562.7 928.771 559.993 931.637 555.247 932.85L554.439 931.355C558.156 930.397 560.266 928.499 560.609 926.188H555.23V924.605H562.7ZM567.13 933.605V939.564H565.179V935.17H556.548V933.605H567.13ZM577.842 926.205V927.77H570.055V926.205H573.008V924.131H574.942V926.205H577.842ZM573.975 928.613C575.997 928.613 577.438 930.143 577.438 932.305C577.438 934.502 575.997 936.049 573.975 936.049C571.971 936.049 570.495 934.502 570.512 932.305C570.495 930.143 571.971 928.613 573.975 928.613ZM573.975 930.23C572.938 930.23 572.217 931.057 572.235 932.305C572.217 933.588 572.938 934.396 573.975 934.379C574.995 934.396 575.715 933.588 575.715 932.305C575.715 931.057 574.995 930.23 573.975 930.23ZM583.749 923.674V939.564H581.885V931.795H580.339V938.844H578.51V924.008H580.339V930.213H581.885V923.674H583.749ZM588.274 934.098C588.291 931.865 588.924 931.18 590.031 930.494C590.787 930.02 591.35 929.422 591.35 928.543C591.35 927.559 590.594 926.926 589.627 926.926C588.748 926.926 587.904 927.488 587.852 928.666H585.654C585.707 926.311 587.483 925.098 589.645 925.098C592.018 925.098 593.652 926.416 593.652 928.508C593.652 929.932 592.932 930.863 591.789 931.549C590.77 932.164 590.348 932.779 590.33 934.098V934.256H588.274V934.098ZM589.363 938.141C588.608 938.141 587.992 937.525 587.992 936.77C587.992 936.031 588.608 935.416 589.363 935.416C590.084 935.416 590.717 936.031 590.717 936.77C590.717 937.525 590.084 938.141 589.363 938.141Z" fill="#18181B"/>
<path d="M594.41 511.285H593.52L593.59 509.539L592.113 510.477L591.668 509.703L593.227 508.906L591.668 508.098L592.113 507.324L593.59 508.262L593.52 506.516H594.41L594.328 508.262L595.805 507.324L596.262 508.098L594.703 508.906L596.262 509.703L595.805 510.477L594.328 509.539L594.41 511.285Z" fill="#F63B3B"/>
<path d="M596.41 921.285H595.52L595.59 919.539L594.113 920.477L593.668 919.703L595.227 918.906L593.668 918.098L594.113 917.324L595.59 918.262L595.52 916.516H596.41L596.328 918.262L597.805 917.324L598.262 918.098L596.703 918.906L598.262 919.703L597.805 920.477L596.328 919.539L596.41 921.285Z" fill="#F63B3B"/>
<mask id="path-5-outside-1_1004_7141" maskUnits="userSpaceOnUse" x="181.343" y="38.1719" width="164" height="22" fill="black">
<rect fill="white" x="181.343" y="38.1719" width="164" height="22"/>
<path d="M193.663 39.4656L200.205 58.4487H196.253L194.918 54.4172H187.683L186.321 58.4487H182.343L189.071 39.4656H193.663ZM188.51 51.6671H194.037L191.26 42.9098L188.51 51.6671Z"/>
<path d="M212.712 54.7108L213.62 57.4075C213.104 57.8347 212.436 58.1729 211.617 58.422C210.798 58.6712 209.846 58.7958 208.76 58.7958C206.536 58.7958 204.818 58.2708 203.607 57.2206C202.415 56.1526 201.819 54.5507 201.819 52.4147V51.2666C201.819 49.9495 202.014 48.8726 202.406 48.036C202.815 47.1995 203.349 46.5409 204.008 46.0603C204.649 45.5797 205.387 45.2504 206.224 45.0724C207.061 44.8944 207.915 44.8054 208.787 44.8054C210.015 44.8054 210.976 44.9389 211.671 45.2059C212.365 45.4729 212.979 45.7844 213.513 46.1404L212.632 48.8637C212.027 48.5611 211.404 48.3297 210.763 48.1695C210.14 48.0093 209.481 47.9292 208.787 47.9292C207.612 47.9292 206.802 48.2941 206.358 49.0239C205.93 49.7359 205.717 50.6793 205.717 51.854C205.717 53.189 205.966 54.168 206.464 54.7909C206.963 55.3961 207.728 55.6987 208.76 55.6987C209.383 55.6987 210.024 55.6364 210.683 55.5118C211.341 55.3694 212.018 55.1024 212.712 54.7108Z"/>
<path d="M224.576 48.1161H221.585V54.8443C221.585 55.1825 221.656 55.4139 221.799 55.5385C221.941 55.6631 222.137 55.7254 222.386 55.7254C222.618 55.7254 222.876 55.6809 223.161 55.5919C223.463 55.5029 223.775 55.3694 224.095 55.1914L225.003 57.4609C224.647 57.8169 224.113 58.1284 223.401 58.3953C222.707 58.6623 221.995 58.7958 221.265 58.7958C219.948 58.7958 219.031 58.4843 218.515 57.8614C217.999 57.2206 217.741 56.3395 217.741 55.2181V48.1161H215.631V45.0724H217.741V40.7204L221.585 39.9729V45.0724H224.576V48.1161Z"/>
<path d="M233.451 55.7254C233.682 55.7254 233.94 55.6809 234.225 55.5919C234.51 55.5029 234.812 55.3694 235.133 55.1914L236.04 57.4609C235.684 57.8169 235.159 58.1284 234.465 58.3953C233.771 58.6623 233.059 58.7958 232.329 58.7958C231.012 58.7958 230.095 58.4843 229.579 57.8614C229.063 57.2206 228.805 56.3395 228.805 55.2181V48.2229H227.417V45.2593H232.703V54.8443C232.703 55.1825 232.765 55.4139 232.89 55.5385C233.014 55.6631 233.201 55.7254 233.451 55.7254ZM232.703 42.9899H228.538V39.1719H232.703V42.9899Z"/>
<path d="M244.345 44.8054C246.374 44.8054 247.994 45.3661 249.204 46.4875C250.415 47.6088 251.02 49.371 251.02 51.7739C251.02 54.0701 250.441 55.8144 249.285 57.007C248.145 58.1996 246.499 58.7958 244.345 58.7958C242.174 58.7958 240.509 58.1996 239.352 57.007C238.213 55.8144 237.644 54.0701 237.644 51.7739C237.644 49.371 238.249 47.6088 239.459 46.4875C240.687 45.3661 242.316 44.8054 244.345 44.8054ZM241.595 51.7739C241.595 53.0555 241.791 54.0345 242.183 54.7108C242.592 55.3694 243.313 55.6987 244.345 55.6987C245.36 55.6987 246.072 55.3694 246.481 54.7108C246.89 54.0345 247.095 53.0555 247.095 51.7739C247.095 50.439 246.89 49.4689 246.481 48.8637C246.089 48.2407 245.386 47.9292 244.372 47.9292C243.322 47.9292 242.592 48.2407 242.183 48.8637C241.791 49.4689 241.595 50.439 241.595 51.7739Z"/>
<path d="M266.388 58.4487H262.49V49.5579C262.49 48.9883 262.383 48.57 262.169 48.303C261.973 48.0182 261.644 47.8758 261.181 47.8758C260.612 47.8758 260.007 48.036 259.366 48.3564C258.725 48.659 258.218 49.0061 257.844 49.3977V58.4487H253.946V45.2593H257.524L257.737 46.1938C258.218 45.82 258.769 45.4996 259.392 45.2326C260.015 44.9478 260.781 44.8054 261.689 44.8054C263.255 44.8054 264.43 45.1436 265.213 45.82C265.996 46.4964 266.388 47.5198 266.388 48.8904V58.4487Z"/>
<path d="M277.053 43.1501C277.053 41.7795 277.356 40.8272 277.961 40.2932C278.584 39.7415 279.581 39.4656 280.951 39.4656H284.289C286.905 39.4656 288.73 39.9907 289.762 41.0408C290.812 42.0732 291.337 43.604 291.337 45.6331C291.337 47.947 290.759 49.5579 289.602 50.4657C288.445 51.3734 286.665 51.8273 284.262 51.8273H281.005V58.4487H277.053V43.1501ZM283.942 42.5093H282.286C281.77 42.5093 281.423 42.6161 281.245 42.8297C281.085 43.0255 281.005 43.3281 281.005 43.7375V48.7569H283.888C285.027 48.7569 285.882 48.5166 286.451 48.036C287.021 47.5554 287.306 46.7545 287.306 45.6331C287.306 44.4939 287.021 43.693 286.451 43.2302C285.9 42.7496 285.063 42.5093 283.942 42.5093Z"/>
<path d="M300.429 44.8054C302.458 44.8054 304.078 45.3661 305.289 46.4875C306.499 47.6088 307.104 49.371 307.104 51.7739C307.104 54.0701 306.526 55.8144 305.369 57.007C304.229 58.1996 302.583 58.7958 300.429 58.7958C298.258 58.7958 296.593 58.1996 295.436 57.007C294.297 55.8144 293.728 54.0701 293.728 51.7739C293.728 49.371 294.333 47.6088 295.543 46.4875C296.771 45.3661 298.4 44.8054 300.429 44.8054ZM297.679 51.7739C297.679 53.0555 297.875 54.0345 298.267 54.7108C298.676 55.3694 299.397 55.6987 300.429 55.6987C301.444 55.6987 302.156 55.3694 302.565 54.7108C302.975 54.0345 303.179 53.0555 303.179 51.7739C303.179 50.439 302.975 49.4689 302.565 48.8637C302.174 48.2407 301.471 47.9292 300.456 47.9292C299.406 47.9292 298.676 48.2407 298.267 48.8637C297.875 49.4689 297.679 50.439 297.679 51.7739Z"/>
<path d="M315.53 55.7254C315.761 55.7254 316.019 55.6809 316.304 55.5919C316.589 55.5029 316.892 55.3694 317.212 55.1914L318.12 57.4609C317.764 57.8169 317.239 58.1284 316.545 58.3953C315.85 58.6623 315.138 58.7958 314.409 58.7958C313.091 58.7958 312.175 58.4843 311.659 57.8614C311.142 57.2206 310.884 56.3395 310.884 55.2181V48.2229H309.496V45.2593H314.782V54.8443C314.782 55.1825 314.845 55.4139 314.969 55.5385C315.094 55.6631 315.281 55.7254 315.53 55.7254ZM314.782 42.9899H310.617V39.1719H314.782V42.9899Z"/>
<path d="M332.432 58.4487H328.534V49.5579C328.534 48.9883 328.427 48.57 328.213 48.303C328.018 48.0182 327.688 47.8758 327.225 47.8758C326.656 47.8758 326.051 48.036 325.41 48.3564C324.769 48.659 324.262 49.0061 323.888 49.3977V58.4487H319.99V45.2593H323.568L323.781 46.1938C324.262 45.82 324.814 45.4996 325.437 45.2326C326.06 44.9478 326.825 44.8054 327.733 44.8054C329.299 44.8054 330.474 45.1436 331.257 45.82C332.04 46.4964 332.432 47.5198 332.432 48.8904V58.4487Z"/>
<path d="M344.044 48.1161H341.054V54.8443C341.054 55.1825 341.125 55.4139 341.268 55.5385C341.41 55.6631 341.606 55.7254 341.855 55.7254C342.086 55.7254 342.345 55.6809 342.629 55.5919C342.932 55.5029 343.243 55.3694 343.564 55.1914L344.472 57.4609C344.116 57.8169 343.582 58.1284 342.87 58.3953C342.175 58.6623 341.463 58.7958 340.734 58.7958C339.416 58.7958 338.5 58.4843 337.984 57.8614C337.467 57.2206 337.209 56.3395 337.209 55.2181V48.1161H335.1V45.0724H337.209V40.7204L341.054 39.9729V45.0724H344.044V48.1161Z"/>
</mask>
<path d="M193.663 39.4656L200.205 58.4487H196.253L194.918 54.4172H187.683L186.321 58.4487H182.343L189.071 39.4656H193.663ZM188.51 51.6671H194.037L191.26 42.9098L188.51 51.6671Z" fill="#18181B"/>
<path d="M212.712 54.7108L213.62 57.4075C213.104 57.8347 212.436 58.1729 211.617 58.422C210.798 58.6712 209.846 58.7958 208.76 58.7958C206.536 58.7958 204.818 58.2708 203.607 57.2206C202.415 56.1526 201.819 54.5507 201.819 52.4147V51.2666C201.819 49.9495 202.014 48.8726 202.406 48.036C202.815 47.1995 203.349 46.5409 204.008 46.0603C204.649 45.5797 205.387 45.2504 206.224 45.0724C207.061 44.8944 207.915 44.8054 208.787 44.8054C210.015 44.8054 210.976 44.9389 211.671 45.2059C212.365 45.4729 212.979 45.7844 213.513 46.1404L212.632 48.8637C212.027 48.5611 211.404 48.3297 210.763 48.1695C210.14 48.0093 209.481 47.9292 208.787 47.9292C207.612 47.9292 206.802 48.2941 206.358 49.0239C205.93 49.7359 205.717 50.6793 205.717 51.854C205.717 53.189 205.966 54.168 206.464 54.7909C206.963 55.3961 207.728 55.6987 208.76 55.6987C209.383 55.6987 210.024 55.6364 210.683 55.5118C211.341 55.3694 212.018 55.1024 212.712 54.7108Z" fill="#18181B"/>
<path d="M224.576 48.1161H221.585V54.8443C221.585 55.1825 221.656 55.4139 221.799 55.5385C221.941 55.6631 222.137 55.7254 222.386 55.7254C222.618 55.7254 222.876 55.6809 223.161 55.5919C223.463 55.5029 223.775 55.3694 224.095 55.1914L225.003 57.4609C224.647 57.8169 224.113 58.1284 223.401 58.3953C222.707 58.6623 221.995 58.7958 221.265 58.7958C219.948 58.7958 219.031 58.4843 218.515 57.8614C217.999 57.2206 217.741 56.3395 217.741 55.2181V48.1161H215.631V45.0724H217.741V40.7204L221.585 39.9729V45.0724H224.576V48.1161Z" fill="#18181B"/>
<path d="M233.451 55.7254C233.682 55.7254 233.94 55.6809 234.225 55.5919C234.51 55.5029 234.812 55.3694 235.133 55.1914L236.04 57.4609C235.684 57.8169 235.159 58.1284 234.465 58.3953C233.771 58.6623 233.059 58.7958 232.329 58.7958C231.012 58.7958 230.095 58.4843 229.579 57.8614C229.063 57.2206 228.805 56.3395 228.805 55.2181V48.2229H227.417V45.2593H232.703V54.8443C232.703 55.1825 232.765 55.4139 232.89 55.5385C233.014 55.6631 233.201 55.7254 233.451 55.7254ZM232.703 42.9899H228.538V39.1719H232.703V42.9899Z" fill="#18181B"/>
<path d="M244.345 44.8054C246.374 44.8054 247.994 45.3661 249.204 46.4875C250.415 47.6088 251.02 49.371 251.02 51.7739C251.02 54.0701 250.441 55.8144 249.285 57.007C248.145 58.1996 246.499 58.7958 244.345 58.7958C242.174 58.7958 240.509 58.1996 239.352 57.007C238.213 55.8144 237.644 54.0701 237.644 51.7739C237.644 49.371 238.249 47.6088 239.459 46.4875C240.687 45.3661 242.316 44.8054 244.345 44.8054ZM241.595 51.7739C241.595 53.0555 241.791 54.0345 242.183 54.7108C242.592 55.3694 243.313 55.6987 244.345 55.6987C245.36 55.6987 246.072 55.3694 246.481 54.7108C246.89 54.0345 247.095 53.0555 247.095 51.7739C247.095 50.439 246.89 49.4689 246.481 48.8637C246.089 48.2407 245.386 47.9292 244.372 47.9292C243.322 47.9292 242.592 48.2407 242.183 48.8637C241.791 49.4689 241.595 50.439 241.595 51.7739Z" fill="#18181B"/>
<path d="M266.388 58.4487H262.49V49.5579C262.49 48.9883 262.383 48.57 262.169 48.303C261.973 48.0182 261.644 47.8758 261.181 47.8758C260.612 47.8758 260.007 48.036 259.366 48.3564C258.725 48.659 258.218 49.0061 257.844 49.3977V58.4487H253.946V45.2593H257.524L257.737 46.1938C258.218 45.82 258.769 45.4996 259.392 45.2326C260.015 44.9478 260.781 44.8054 261.689 44.8054C263.255 44.8054 264.43 45.1436 265.213 45.82C265.996 46.4964 266.388 47.5198 266.388 48.8904V58.4487Z" fill="#18181B"/>
<path d="M277.053 43.1501C277.053 41.7795 277.356 40.8272 277.961 40.2932C278.584 39.7415 279.581 39.4656 280.951 39.4656H284.289C286.905 39.4656 288.73 39.9907 289.762 41.0408C290.812 42.0732 291.337 43.604 291.337 45.6331C291.337 47.947 290.759 49.5579 289.602 50.4657C288.445 51.3734 286.665 51.8273 284.262 51.8273H281.005V58.4487H277.053V43.1501ZM283.942 42.5093H282.286C281.77 42.5093 281.423 42.6161 281.245 42.8297C281.085 43.0255 281.005 43.3281 281.005 43.7375V48.7569H283.888C285.027 48.7569 285.882 48.5166 286.451 48.036C287.021 47.5554 287.306 46.7545 287.306 45.6331C287.306 44.4939 287.021 43.693 286.451 43.2302C285.9 42.7496 285.063 42.5093 283.942 42.5093Z" fill="#18181B"/>
<path d="M300.429 44.8054C302.458 44.8054 304.078 45.3661 305.289 46.4875C306.499 47.6088 307.104 49.371 307.104 51.7739C307.104 54.0701 306.526 55.8144 305.369 57.007C304.229 58.1996 302.583 58.7958 300.429 58.7958C298.258 58.7958 296.593 58.1996 295.436 57.007C294.297 55.8144 293.728 54.0701 293.728 51.7739C293.728 49.371 294.333 47.6088 295.543 46.4875C296.771 45.3661 298.4 44.8054 300.429 44.8054ZM297.679 51.7739C297.679 53.0555 297.875 54.0345 298.267 54.7108C298.676 55.3694 299.397 55.6987 300.429 55.6987C301.444 55.6987 302.156 55.3694 302.565 54.7108C302.975 54.0345 303.179 53.0555 303.179 51.7739C303.179 50.439 302.975 49.4689 302.565 48.8637C302.174 48.2407 301.471 47.9292 300.456 47.9292C299.406 47.9292 298.676 48.2407 298.267 48.8637C297.875 49.4689 297.679 50.439 297.679 51.7739Z" fill="#18181B"/>
<path d="M315.53 55.7254C315.761 55.7254 316.019 55.6809 316.304 55.5919C316.589 55.5029 316.892 55.3694 317.212 55.1914L318.12 57.4609C317.764 57.8169 317.239 58.1284 316.545 58.3953C315.85 58.6623 315.138 58.7958 314.409 58.7958C313.091 58.7958 312.175 58.4843 311.659 57.8614C311.142 57.2206 310.884 56.3395 310.884 55.2181V48.2229H309.496V45.2593H314.782V54.8443C314.782 55.1825 314.845 55.4139 314.969 55.5385C315.094 55.6631 315.281 55.7254 315.53 55.7254ZM314.782 42.9899H310.617V39.1719H314.782V42.9899Z" fill="#18181B"/>
<path d="M332.432 58.4487H328.534V49.5579C328.534 48.9883 328.427 48.57 328.213 48.303C328.018 48.0182 327.688 47.8758 327.225 47.8758C326.656 47.8758 326.051 48.036 325.41 48.3564C324.769 48.659 324.262 49.0061 323.888 49.3977V58.4487H319.99V45.2593H323.568L323.781 46.1938C324.262 45.82 324.814 45.4996 325.437 45.2326C326.06 44.9478 326.825 44.8054 327.733 44.8054C329.299 44.8054 330.474 45.1436 331.257 45.82C332.04 46.4964 332.432 47.5198 332.432 48.8904V58.4487Z" fill="#18181B"/>
<path d="M344.044 48.1161H341.054V54.8443C341.054 55.1825 341.125 55.4139 341.268 55.5385C341.41 55.6631 341.606 55.7254 341.855 55.7254C342.086 55.7254 342.345 55.6809 342.629 55.5919C342.932 55.5029 343.243 55.3694 343.564 55.1914L344.472 57.4609C344.116 57.8169 343.582 58.1284 342.87 58.3953C342.175 58.6623 341.463 58.7958 340.734 58.7958C339.416 58.7958 338.5 58.4843 337.984 57.8614C337.467 57.2206 337.209 56.3395 337.209 55.2181V48.1161H335.1V45.0724H337.209V40.7204L341.054 39.9729V45.0724H344.044V48.1161Z" fill="#18181B"/>
<path d="M193.663 39.4656L200.205 58.4487H196.253L194.918 54.4172H187.683L186.321 58.4487H182.343L189.071 39.4656H193.663ZM188.51 51.6671H194.037L191.26 42.9098L188.51 51.6671Z" stroke="#18181B" stroke-width="0.821516" mask="url(#path-5-outside-1_1004_7141)"/>
<path d="M212.712 54.7108L213.62 57.4075C213.104 57.8347 212.436 58.1729 211.617 58.422C210.798 58.6712 209.846 58.7958 208.76 58.7958C206.536 58.7958 204.818 58.2708 203.607 57.2206C202.415 56.1526 201.819 54.5507 201.819 52.4147V51.2666C201.819 49.9495 202.014 48.8726 202.406 48.036C202.815 47.1995 203.349 46.5409 204.008 46.0603C204.649 45.5797 205.387 45.2504 206.224 45.0724C207.061 44.8944 207.915 44.8054 208.787 44.8054C210.015 44.8054 210.976 44.9389 211.671 45.2059C212.365 45.4729 212.979 45.7844 213.513 46.1404L212.632 48.8637C212.027 48.5611 211.404 48.3297 210.763 48.1695C210.14 48.0093 209.481 47.9292 208.787 47.9292C207.612 47.9292 206.802 48.2941 206.358 49.0239C205.93 49.7359 205.717 50.6793 205.717 51.854C205.717 53.189 205.966 54.168 206.464 54.7909C206.963 55.3961 207.728 55.6987 208.76 55.6987C209.383 55.6987 210.024 55.6364 210.683 55.5118C211.341 55.3694 212.018 55.1024 212.712 54.7108Z" stroke="#18181B" stroke-width="0.821516" mask="url(#path-5-outside-1_1004_7141)"/>
<path d="M224.576 48.1161H221.585V54.8443C221.585 55.1825 221.656 55.4139 221.799 55.5385C221.941 55.6631 222.137 55.7254 222.386 55.7254C222.618 55.7254 222.876 55.6809 223.161 55.5919C223.463 55.5029 223.775 55.3694 224.095 55.1914L225.003 57.4609C224.647 57.8169 224.113 58.1284 223.401 58.3953C222.707 58.6623 221.995 58.7958 221.265 58.7958C219.948 58.7958 219.031 58.4843 218.515 57.8614C217.999 57.2206 217.741 56.3395 217.741 55.2181V48.1161H215.631V45.0724H217.741V40.7204L221.585 39.9729V45.0724H224.576V48.1161Z" stroke="#18181B" stroke-width="0.821516" mask="url(#path-5-outside-1_1004_7141)"/>
<path d="M233.451 55.7254C233.682 55.7254 233.94 55.6809 234.225 55.5919C234.51 55.5029 234.812 55.3694 235.133 55.1914L236.04 57.4609C235.684 57.8169 235.159 58.1284 234.465 58.3953C233.771 58.6623 233.059 58.7958 232.329 58.7958C231.012 58.7958 230.095 58.4843 229.579 57.8614C229.063 57.2206 228.805 56.3395 228.805 55.2181V48.2229H227.417V45.2593H232.703V54.8443C232.703 55.1825 232.765 55.4139 232.89 55.5385C233.014 55.6631 233.201 55.7254 233.451 55.7254ZM232.703 42.9899H228.538V39.1719H232.703V42.9899Z" stroke="#18181B" stroke-width="0.821516" mask="url(#path-5-outside-1_1004_7141)"/>
<path d="M244.345 44.8054C246.374 44.8054 247.994 45.3661 249.204 46.4875C250.415 47.6088 251.02 49.371 251.02 51.7739C251.02 54.0701 250.441 55.8144 249.285 57.007C248.145 58.1996 246.499 58.7958 244.345 58.7958C242.174 58.7958 240.509 58.1996 239.352 57.007C238.213 55.8144 237.644 54.0701 237.644 51.7739C237.644 49.371 238.249 47.6088 239.459 46.4875C240.687 45.3661 242.316 44.8054 244.345 44.8054ZM241.595 51.7739C241.595 53.0555 241.791 54.0345 242.183 54.7108C242.592 55.3694 243.313 55.6987 244.345 55.6987C245.36 55.6987 246.072 55.3694 246.481 54.7108C246.89 54.0345 247.095 53.0555 247.095 51.7739C247.095 50.439 246.89 49.4689 246.481 48.8637C246.089 48.2407 245.386 47.9292 244.372 47.9292C243.322 47.9292 242.592 48.2407 242.183 48.8637C241.791 49.4689 241.595 50.439 241.595 51.7739Z" stroke="#18181B" stroke-width="0.821516" mask="url(#path-5-outside-1_1004_7141)"/>
<path d="M266.388 58.4487H262.49V49.5579C262.49 48.9883 262.383 48.57 262.169 48.303C261.973 48.0182 261.644 47.8758 261.181 47.8758C260.612 47.8758 260.007 48.036 259.366 48.3564C258.725 48.659 258.218 49.0061 257.844 49.3977V58.4487H253.946V45.2593H257.524L257.737 46.1938C258.218 45.82 258.769 45.4996 259.392 45.2326C260.015 44.9478 260.781 44.8054 261.689 44.8054C263.255 44.8054 264.43 45.1436 265.213 45.82C265.996 46.4964 266.388 47.5198 266.388 48.8904V58.4487Z" stroke="#18181B" stroke-width="0.821516" mask="url(#path-5-outside-1_1004_7141)"/>
<path d="M277.053 43.1501C277.053 41.7795 277.356 40.8272 277.961 40.2932C278.584 39.7415 279.581 39.4656 280.951 39.4656H284.289C286.905 39.4656 288.73 39.9907 289.762 41.0408C290.812 42.0732 291.337 43.604 291.337 45.6331C291.337 47.947 290.759 49.5579 289.602 50.4657C288.445 51.3734 286.665 51.8273 284.262 51.8273H281.005V58.4487H277.053V43.1501ZM283.942 42.5093H282.286C281.77 42.5093 281.423 42.6161 281.245 42.8297C281.085 43.0255 281.005 43.3281 281.005 43.7375V48.7569H283.888C285.027 48.7569 285.882 48.5166 286.451 48.036C287.021 47.5554 287.306 46.7545 287.306 45.6331C287.306 44.4939 287.021 43.693 286.451 43.2302C285.9 42.7496 285.063 42.5093 283.942 42.5093Z" stroke="#18181B" stroke-width="0.821516" mask="url(#path-5-outside-1_1004_7141)"/>
<path d="M300.429 44.8054C302.458 44.8054 304.078 45.3661 305.289 46.4875C306.499 47.6088 307.104 49.371 307.104 51.7739C307.104 54.0701 306.526 55.8144 305.369 57.007C304.229 58.1996 302.583 58.7958 300.429 58.7958C298.258 58.7958 296.593 58.1996 295.436 57.007C294.297 55.8144 293.728 54.0701 293.728 51.7739C293.728 49.371 294.333 47.6088 295.543 46.4875C296.771 45.3661 298.4 44.8054 300.429 44.8054ZM297.679 51.7739C297.679 53.0555 297.875 54.0345 298.267 54.7108C298.676 55.3694 299.397 55.6987 300.429 55.6987C301.444 55.6987 302.156 55.3694 302.565 54.7108C302.975 54.0345 303.179 53.0555 303.179 51.7739C303.179 50.439 302.975 49.4689 302.565 48.8637C302.174 48.2407 301.471 47.9292 300.456 47.9292C299.406 47.9292 298.676 48.2407 298.267 48.8637C297.875 49.4689 297.679 50.439 297.679 51.7739Z" stroke="#18181B" stroke-width="0.821516" mask="url(#path-5-outside-1_1004_7141)"/>
<path d="M315.53 55.7254C315.761 55.7254 316.019 55.6809 316.304 55.5919C316.589 55.5029 316.892 55.3694 317.212 55.1914L318.12 57.4609C317.764 57.8169 317.239 58.1284 316.545 58.3953C315.85 58.6623 315.138 58.7958 314.409 58.7958C313.091 58.7958 312.175 58.4843 311.659 57.8614C311.142 57.2206 310.884 56.3395 310.884 55.2181V48.2229H309.496V45.2593H314.782V54.8443C314.782 55.1825 314.845 55.4139 314.969 55.5385C315.094 55.6631 315.281 55.7254 315.53 55.7254ZM314.782 42.9899H310.617V39.1719H314.782V42.9899Z" stroke="#18181B" stroke-width="0.821516" mask="url(#path-5-outside-1_1004_7141)"/>
<path d="M332.432 58.4487H328.534V49.5579C328.534 48.9883 328.427 48.57 328.213 48.303C328.018 48.0182 327.688 47.8758 327.225 47.8758C326.656 47.8758 326.051 48.036 325.41 48.3564C324.769 48.659 324.262 49.0061 323.888 49.3977V58.4487H319.99V45.2593H323.568L323.781 46.1938C324.262 45.82 324.814 45.4996 325.437 45.2326C326.06 44.9478 326.825 44.8054 327.733 44.8054C329.299 44.8054 330.474 45.1436 331.257 45.82C332.04 46.4964 332.432 47.5198 332.432 48.8904V58.4487Z" stroke="#18181B" stroke-width="0.821516" mask="url(#path-5-outside-1_1004_7141)"/>
<path d="M344.044 48.1161H341.054V54.8443C341.054 55.1825 341.125 55.4139 341.268 55.5385C341.41 55.6631 341.606 55.7254 341.855 55.7254C342.086 55.7254 342.345 55.6809 342.629 55.5919C342.932 55.5029 343.243 55.3694 343.564 55.1914L344.472 57.4609C344.116 57.8169 343.582 58.1284 342.87 58.3953C342.175 58.6623 341.463 58.7958 340.734 58.7958C339.416 58.7958 338.5 58.4843 337.984 57.8614C337.467 57.2206 337.209 56.3395 337.209 55.2181V48.1161H335.1V45.0724H337.209V40.7204L341.054 39.9729V45.0724H344.044V48.1161Z" stroke="#18181B" stroke-width="0.821516" mask="url(#path-5-outside-1_1004_7141)"/>
<path d="M146 41.5801C146 40.1676 147.145 39.0225 148.558 39.0225H162.893C164.306 39.0225 165.451 40.1676 165.451 41.5801V49.9891C165.451 51.1871 164.619 52.2246 163.45 52.4855L149.115 55.6833C147.517 56.0397 146 54.8241 146 53.187V41.5801Z" fill="#18181B"/>
<rect x="162.594" y="43.8633" width="1.27883" height="3.83649" rx="0.639416" fill="white"/>
<rect x="160.035" y="43.8633" width="1.27883" height="3.83649" rx="0.639416" fill="white"/>
<path d="M176.969 52.834C176.969 51.4215 175.824 50.2764 174.411 50.2764H164.17C162.758 50.2764 161.613 51.4215 161.613 52.834V58.5027C161.613 59.7007 162.444 60.7382 163.614 60.999L173.854 63.2834C175.452 63.6398 176.969 62.4242 176.969 60.7871V52.834Z" fill="#60A5FA"/>
<rect width="1.02306" height="2.81343" rx="0.511532" transform="matrix(-1 0 0 1 164.428 54.3682)" fill="#CBE2FF"/>
<rect width="1.02306" height="2.81343" rx="0.511532" transform="matrix(-1 0 0 1 166.475 54.3682)" fill="#CBE2FF"/>
<path d="M169.801 47.8722L168.01 46.7054" stroke="#60A5FA" stroke-width="0.532493" stroke-linecap="round"/>
<path d="M168.011 44.3234L169.802 43.1566" stroke="#60A5FA" stroke-width="0.532493" stroke-linecap="round"/>
<path d="M168.011 44.3234L169.802 43.1566" stroke="#60A5FA" stroke-width="0.532493" stroke-linecap="round"/>
<path d="M168.01 45.5215H169.786" stroke="#60A5FA" stroke-width="0.532493" stroke-linecap="round"/>
<path d="M613.219 44.5879C615.346 44.5879 616.91 46.2051 616.928 48.4902C616.91 50.8105 615.346 52.375 613.219 52.375C611.092 52.375 609.545 50.8105 609.545 48.4902C609.545 46.2051 611.092 44.5879 613.219 44.5879ZM613.219 46.4863C612.234 46.4863 611.549 47.2246 611.549 48.4902C611.549 49.7559 612.234 50.5117 613.219 50.5117C614.186 50.5117 614.871 49.7559 614.889 48.4902C614.871 47.2246 614.186 46.4863 613.219 46.4863ZM623.221 43.6387V53.1836H621.094V49.2988H619.775V53.0957H617.701V43.9199H619.775V47.5059H621.094V43.6387H623.221ZM623.221 53.8867V59.6172H620.988V55.6797H612.164V53.8867H623.221ZM631.025 46.3809C631.025 48.5957 632.115 50.793 634.646 51.7246L633.398 53.4648C631.72 52.8057 630.568 51.5488 629.918 49.9668C629.215 51.6543 627.976 52.9727 626.156 53.6582L624.961 51.9004C627.58 50.9688 628.758 48.7188 628.758 46.3809V44.5352H631.025V46.3809ZM638.514 43.6387V55.5039H636.281V50.6172H633.539V48.8066H636.281V47.5234H633.539V45.7129H636.281V43.6387H638.514ZM638.848 57.543V59.3359H627.861V54.3613H630.129V57.543H638.848ZM659.379 55.9609V57.8418H644.736V55.9609H650.889V53.0781H645.949V51.3203H648.094V46.75H645.879V44.957H658.148V46.75H655.898V51.3203H658.078V53.0781H653.121V55.9609H659.379ZM650.344 51.3203H653.684V46.75H650.344V51.3203ZM673.688 43.6387V55.1348H671.438V43.6387H673.688ZM674.109 57.543V59.3359H662.965V53.9746H665.232V57.543H674.109ZM664.916 44.6582C667.377 44.6582 669.293 46.3457 669.293 48.6836C669.293 51.0742 667.377 52.7441 664.916 52.7441C662.455 52.7441 660.539 51.0742 660.539 48.6836C660.539 46.3457 662.455 44.6582 664.916 44.6582ZM664.916 46.6094C663.668 46.5918 662.719 47.3828 662.736 48.6836C662.719 50.0195 663.668 50.793 664.916 50.793C666.129 50.793 667.078 50.0195 667.078 48.6836C667.078 47.3828 666.129 46.5918 664.916 46.6094ZM688.893 51.8828V53.6582H677.572V44.7988H688.77V46.6094H679.857V48.2969H688.4V50.0547H679.857V51.8828H688.893ZM690.492 55.9258V57.7539H675.85V55.9258H690.492Z" fill="#AFAFC1"/>
<path d="M749.117 55.8906V57.7539H734.475V55.8906H749.117ZM747.887 45.0273V46.8203H745.637V51.6719H747.816V53.4297H735.688V51.6719H737.832V46.8203H735.617V45.0273H747.887ZM740.082 51.6719H743.422V46.8203H740.082V51.6719ZM764.674 55.9961V57.8418H750.031V55.9961H756.201V53.5879H751.719V48.209H760.771V46.4512H751.701V44.6582H762.986V49.9668H753.969V51.7598H763.355V53.5879H758.434V55.9961H764.674ZM776.152 43.9375V53.2891H774.025V49.3867H772.25V47.5762H774.025V43.9375H776.152ZM770.633 47.0664C770.633 48.7539 771.477 50.4238 773.533 51.2148L772.408 52.9375C771.046 52.4102 770.123 51.4609 769.578 50.3008C768.989 51.6016 768.005 52.665 766.537 53.2539L765.359 51.4785C767.557 50.6523 768.453 48.8242 768.453 47.0488V46.5742H765.904V44.7812H773.023V46.5742H770.633V47.0664ZM779.334 43.6211V53.377H777.207V43.6211H779.334ZM779.334 53.957V59.6172H777.102V55.7324H768.277V53.957H779.334ZM794.188 51.8828V53.6582H782.867V44.7988H794.064V46.6094H785.152V48.2969H793.695V50.0547H785.152V51.8828H794.188ZM795.787 55.9258V57.7539H781.145V55.9258H795.787ZM809.814 44.7812V45.7832C809.814 46.8906 809.814 48.4902 809.445 50.4766L807.248 50.2656C807.529 48.7275 807.6 47.5674 807.617 46.6094H801.588V44.7812H809.814ZM805.842 48.4727V51.5312C807.433 51.4697 809.067 51.3467 810.57 51.127L810.693 52.7441C807.371 53.3594 803.609 53.4121 800.832 53.4297L800.639 51.6367C801.535 51.6367 802.546 51.6367 803.609 51.6016V48.4727H805.842ZM813.734 43.6211V48.4902H815.668V50.3711H813.734V55.5918H811.432V43.6211H813.734ZM814.227 57.543V59.3359H802.994V54.5195H805.244V57.543H814.227ZM829.818 43.6211V59.6523H827.586V43.6211H829.818ZM824.861 44.957V51.127H819.588V54.0625C822.022 54.0537 824.097 53.9131 826.443 53.5352L826.637 55.3457C824 55.8027 821.627 55.9082 818.709 55.9082H817.268V49.3516H822.576V46.7676H817.25V44.957H824.861Z" fill="#3B82F6"/>
<g clip-path="url(#clip0_1004_7141)">
<circle cx="1219.5" cy="51.5" r="13.5" fill="#FAFAFA"/>
<path d="M1225.06 47.2535C1225.06 46.2365 1224.24 45.4121 1223.22 45.4121H1214.2C1213.18 45.4121 1212.35 46.2365 1212.35 47.2535V53.7901C1212.35 54.6304 1212.92 55.3641 1213.74 55.5734L1222.76 57.8946C1223.93 58.1943 1225.06 57.3144 1225.06 56.1112V47.2535Z" fill="#3B82F6"/>
<rect width="0.841798" height="2.52539" rx="0.420899" transform="matrix(-1 0 0 1 1215.46 49.9043)" fill="white"/>
<rect width="0.841798" height="2.52539" rx="0.420899" transform="matrix(-1 0 0 1 1217.15 49.9043)" fill="white"/>
</g>
<path d="M1245.94 45.125C1245.94 48.7969 1243.45 51.3438 1239.25 52.4219L1238.56 51.0781C1241.85 50.2266 1243.78 48.5625 1244.08 46.5H1239.38V45.125H1245.94ZM1250.23 44.2812V52.1875H1248.48V44.2812H1250.23ZM1250.23 52.7969V58.2031H1240.91V52.7969H1250.23ZM1242.62 54.1719V56.8281H1248.53V54.1719H1242.62ZM1257.34 47.6562C1257.33 50.1719 1258.59 52.7344 1260.78 53.7812L1259.72 55.1719C1258.19 54.3984 1257.09 52.9062 1256.48 51.1094C1255.87 53.0312 1254.71 54.625 1253.09 55.4375L1252.03 54.0469C1254.3 52.9688 1255.59 50.2656 1255.61 47.6562V45.4062H1257.34V47.6562ZM1263.36 44.2656V49.7969H1265.53V51.2812H1263.36V58.3906H1261.62V44.2656H1263.36ZM1277.27 44.2812V47.6562H1279.25V49.0938H1277.27V52.7656H1275.53V44.2812H1277.27ZM1273.11 45.1406V49.2031H1268.41V50.6875C1270.8 50.6719 1272.45 50.5859 1274.38 50.2656L1274.56 51.6562C1272.45 52.0312 1270.62 52.125 1267.83 52.1094H1266.67V47.8906H1271.41V46.5156H1266.66V45.1406H1273.11ZM1272.66 53.0781C1275.56 53.0938 1277.39 54.0781 1277.41 55.75C1277.39 57.4062 1275.56 58.3594 1272.66 58.3594C1269.69 58.3594 1267.88 57.4062 1267.88 55.75C1267.88 54.0781 1269.69 53.0938 1272.66 53.0781ZM1272.66 54.4375C1270.69 54.4375 1269.56 54.9062 1269.58 55.75C1269.56 56.5938 1270.69 57.0469 1272.66 57.0469C1274.61 57.0469 1275.69 56.5938 1275.69 55.75C1275.69 54.9062 1274.61 54.4375 1272.66 54.4375ZM1291.59 44.3281V52.2344H1290.12V44.3281H1291.59ZM1282.34 45.1406V50.0469C1284.6 50.0312 1286.59 49.8672 1288.69 49.4219L1288.89 50.6562C1286.58 51.125 1284.47 51.2969 1282.02 51.2969H1280.86V45.1406H1282.34ZM1291.59 52.875V58.1406H1282.42V52.875H1291.59ZM1283.88 54.0469V56.9531H1290.14V54.0469H1283.88Z" fill="#18181B"/>
<path d="M192.1 366.496C192.1 368.324 193.523 370.012 195.932 370.697L195.158 371.998C193.339 371.462 191.994 370.354 191.291 368.922C190.605 370.504 189.226 371.726 187.354 372.297L186.545 370.996C188.953 370.293 190.447 368.482 190.447 366.496V366.338H187.02V365.002H190.447V363.174H192.117V365.002H195.527V366.338H192.1V366.496ZM198.955 363.244V367.146H201.24V368.535H198.955V372.543H197.285V363.244H198.955ZM198.955 373.246V378.801H188.9V373.246H198.955ZM190.535 374.564V377.447H197.303V374.564H190.535ZM214.881 364.756V366.303C214.881 368.254 214.881 370.434 214.283 373.65L212.596 373.475C213.211 370.434 213.211 368.201 213.211 366.303V366.109H203.648V364.756H214.881ZM216.498 375.479V376.867H202.137V375.479H207.604V369.924H209.256V375.479H216.498ZM227.572 367.885C227.572 370.381 229.207 373.158 231.598 374.283L230.648 375.584C228.882 374.731 227.484 372.956 226.781 370.891C226.052 373.149 224.575 375.092 222.773 375.988L221.789 374.67C224.18 373.527 225.92 370.557 225.92 367.885V366.215H222.369V364.826H231V366.215H227.572V367.885ZM234.357 363.244V369.484H236.889V370.891H234.357V378.994H232.688V363.244H234.357ZM252.059 375.707V377.113H237.645V375.707H241.582V372.93H239.402V367.92H248.648V365.723H239.367V364.352H250.301V369.273H241.055V371.559H250.67V372.93H248.279V375.707H252.059ZM243.199 375.707H246.645V372.93H243.199V375.707Z" fill="#18181B"/>
<rect x="274" y="342" width="980" height="124" rx="10" fill="#FAFAFA"/>
<path d="M307.719 364.12V377.245H306.386V370.521H304.701V376.571H303.397V364.384H304.701V369.379H306.386V364.12H307.719ZM298.49 365.673V372.675C299.706 372.667 301.032 372.572 302.519 372.279L302.665 373.495C300.863 373.817 299.354 373.905 297.948 373.905H297.099V365.673H298.49ZM313.71 376V365.395H317.489C319.95 365.395 321.166 366.874 321.166 368.837C321.166 370.785 319.95 372.279 317.489 372.279H315.321V376H313.71ZM315.321 370.902H317.328C318.896 370.902 319.54 370.023 319.54 368.837C319.54 367.636 318.896 366.771 317.328 366.771H315.321V370.902ZM330.043 368.852C329.779 367.489 328.651 366.728 327.304 366.728C325.473 366.728 324.11 368.134 324.11 370.697C324.11 373.275 325.487 374.667 327.304 374.667C328.637 374.667 329.765 373.92 330.043 372.572L331.669 372.587C331.332 374.682 329.618 376.146 327.289 376.146C324.521 376.146 322.514 374.081 322.514 370.697C322.514 367.299 324.535 365.248 327.289 365.248C329.53 365.248 331.303 366.566 331.669 368.852H330.043ZM344.105 364.12V377.245H342.772V364.12H344.105ZM341.439 364.369V376.601H340.106V370.272H338.627C338.51 372.836 337.411 374.433 335.785 374.418C334.071 374.433 332.958 372.631 332.958 369.789C332.958 366.947 334.071 365.16 335.785 365.175C337.382 365.16 338.466 366.676 338.627 369.145H340.106V364.369H341.439ZM335.785 366.479C334.833 366.479 334.247 367.694 334.247 369.789C334.247 371.884 334.833 373.1 335.785 373.1C336.752 373.1 337.353 371.884 337.353 369.789C337.353 367.694 336.752 366.479 335.785 366.479ZM350.507 367.46C350.507 369.862 351.854 372.25 353.861 373.158L353.012 374.271C351.518 373.524 350.397 372.038 349.818 370.243C349.24 372.133 348.09 373.729 346.581 374.521L345.702 373.393C347.738 372.426 349.101 369.892 349.101 367.46V365.219H350.507V367.46ZM356.718 364.12V377.274H355.341V369.613H352.411V368.485H355.341V364.12H356.718ZM369.916 365.468V366.61H368.568V372.719C369.22 372.682 369.857 372.616 370.473 372.543L370.546 373.554C367.792 374.008 364.701 374.052 362.401 374.066L362.24 372.909L363.91 372.895V366.61H362.562V365.468H369.916ZM372.626 364.12V369.291H374.735V370.434H372.626V377.245H371.234V364.12H372.626ZM365.258 372.865C365.902 372.858 366.562 372.836 367.221 372.807V366.61H365.258V372.865ZM379.086 364.56C381.063 364.574 382.514 365.79 382.528 367.504C382.514 369.232 381.063 370.434 379.086 370.434C377.094 370.434 375.629 369.232 375.629 367.504C375.629 365.79 377.094 364.574 379.086 364.56ZM379.086 365.731C377.87 365.717 376.977 366.435 376.991 367.504C376.977 368.588 377.87 369.306 379.086 369.306C380.287 369.306 381.181 368.588 381.181 367.504C381.181 366.435 380.287 365.717 379.086 365.731ZM386.249 364.12V370.8H384.857V364.12H386.249ZM386.249 371.4V374.711H379.013V375.971H386.688V377.084H377.665V373.671H384.872V372.514H377.621V371.4H386.249ZM394.306 364.34C397.265 364.34 398.993 365.131 398.993 366.596C398.993 368.061 397.265 368.866 394.306 368.866C391.347 368.866 389.618 368.061 389.618 366.596C389.618 365.131 391.347 364.34 394.306 364.34ZM394.306 365.365C392.211 365.365 391.054 365.819 391.068 366.596C391.054 367.401 392.211 367.826 394.306 367.826C396.4 367.826 397.558 367.401 397.558 366.596C397.558 365.819 396.4 365.365 394.306 365.365ZM400.297 369.672V370.785H388.329V369.672H400.297ZM398.788 371.796V374.872H391.142V376.044H399.154V377.113H389.779V373.861H397.411V372.836H389.765V371.796H398.788ZM408.588 364.721C410.316 364.706 411.649 365.709 411.942 367.182H414.506V364.12H415.897V371.166H414.506V368.324H411.957C411.671 369.833 410.331 370.844 408.588 370.844C406.581 370.844 405.146 369.584 405.146 367.768C405.146 365.98 406.581 364.706 408.588 364.721ZM408.588 365.878C407.343 365.878 406.479 366.64 406.479 367.768C406.479 368.896 407.343 369.672 408.588 369.672C409.804 369.672 410.668 368.896 410.668 367.768C410.668 366.64 409.804 365.878 408.588 365.878ZM408.72 371.796V373.319H414.506V371.796H415.897V377.084H407.343V371.796H408.72ZM408.72 375.941H414.506V374.418H408.72V375.941ZM429.931 374.506V375.678H417.919V374.506H423.207V372.206H419.384V368.031H427.089V366.186H419.354V365.043H428.466V369.145H420.761V371.063H428.773V372.206H424.584V374.506H429.931ZM441.518 370.346V371.488H432.377V365.292H441.4V366.435H433.754V370.346H441.518ZM442.895 374.359V375.517H430.883V374.359H442.895ZM453.998 366.288V367.416H447.479V366.288H450.058V364.501H451.435V366.288H453.998ZM450.746 368.207C452.416 368.207 453.588 369.452 453.603 371.225C453.588 373.012 452.416 374.271 450.746 374.271C449.105 374.271 447.89 373.012 447.904 371.225C447.89 369.452 449.105 368.207 450.746 368.207ZM450.746 369.364C449.794 369.364 449.135 370.141 449.135 371.225C449.135 372.338 449.794 373.085 450.746 373.085C451.684 373.085 452.372 372.338 452.372 371.225C452.372 370.141 451.684 369.364 450.746 369.364ZM458.744 364.12V377.245H457.426V370.727H455.917V376.63H454.599V364.413H455.917V369.584H457.426V364.12H458.744ZM472.44 371.518V372.646H467.108V377.23H465.746V372.646H460.473V371.518H472.44ZM471.312 364.896V366.01H467.255C467.277 367.636 469.298 369.086 471.781 369.423L471.269 370.521C469.115 370.185 467.255 369.123 466.464 367.621C465.651 369.123 463.798 370.185 461.674 370.521L461.146 369.423C463.6 369.086 465.622 367.636 465.673 366.01H461.586V364.896H471.312ZM477.436 367.709C477.436 369.804 478.314 372.045 480.072 373.114L479.296 374.184C478.065 373.444 477.23 372.133 476.791 370.609C476.3 372.279 475.399 373.7 474.125 374.477L473.261 373.437C475.121 372.323 476.088 370.009 476.088 367.768V365.321H477.436V367.709ZM484.73 364.12V377.245H483.397V364.12H484.73ZM482.006 364.369V376.601H480.688V369.892H478.651V368.734H480.688V364.369H482.006ZM498.412 374.447V375.604H486.4V374.447H489.271V371.02C488.195 370.426 487.543 369.481 487.543 368.31C487.543 366.244 489.564 364.882 492.377 364.882C495.204 364.882 497.226 366.244 497.226 368.31C497.226 369.467 496.596 370.397 495.541 370.99V374.447H498.412ZM492.377 365.995C490.312 365.995 488.891 366.889 488.891 368.31C488.891 369.716 490.312 370.639 492.377 370.639C494.428 370.639 495.878 369.716 495.878 368.31C495.878 366.889 494.428 365.995 492.377 365.995ZM490.648 374.447H494.135V371.518C493.6 371.657 493.007 371.723 492.377 371.723C491.762 371.723 491.176 371.657 490.648 371.532V374.447Z" fill="#71717A"/>
<rect x="187.5" y="543.5" width="1065" height="331" rx="8.5" stroke="#FAFAFA" stroke-width="3"/>
<path d="M219.719 564.12V577.245H218.386V570.521H216.701V576.571H215.397V564.384H216.701V569.379H218.386V564.12H219.719ZM210.49 565.673V572.675C211.706 572.667 213.032 572.572 214.519 572.279L214.665 573.495C212.863 573.817 211.354 573.905 209.948 573.905H209.099V565.673H210.49ZM225.71 576V565.395H229.489C231.95 565.395 233.166 566.874 233.166 568.837C233.166 570.785 231.95 572.279 229.489 572.279H227.321V576H225.71ZM227.321 570.902H229.328C230.896 570.902 231.54 570.023 231.54 568.837C231.54 567.636 230.896 566.771 229.328 566.771H227.321V570.902ZM242.043 568.852C241.779 567.489 240.651 566.728 239.304 566.728C237.473 566.728 236.11 568.134 236.11 570.697C236.11 573.275 237.487 574.667 239.304 574.667C240.637 574.667 241.765 573.92 242.043 572.572L243.669 572.587C243.332 574.682 241.618 576.146 239.289 576.146C236.521 576.146 234.514 574.081 234.514 570.697C234.514 567.299 236.535 565.248 239.289 565.248C241.53 565.248 243.303 566.566 243.669 568.852H242.043ZM256.105 564.12V577.245H254.772V564.12H256.105ZM253.439 564.369V576.601H252.106V570.272H250.627C250.51 572.836 249.411 574.433 247.785 574.418C246.071 574.433 244.958 572.631 244.958 569.789C244.958 566.947 246.071 565.16 247.785 565.175C249.382 565.16 250.466 566.676 250.627 569.145H252.106V564.369H253.439ZM247.785 566.479C246.833 566.479 246.247 567.694 246.247 569.789C246.247 571.884 246.833 573.1 247.785 573.1C248.752 573.1 249.353 571.884 249.353 569.789C249.353 567.694 248.752 566.479 247.785 566.479ZM262.507 567.46C262.507 569.862 263.854 572.25 265.861 573.158L265.012 574.271C263.518 573.524 262.397 572.038 261.818 570.243C261.24 572.133 260.09 573.729 258.581 574.521L257.702 573.393C259.738 572.426 261.101 569.892 261.101 567.46V565.219H262.507V567.46ZM268.718 564.12V577.274H267.341V569.613H264.411V568.485H267.341V564.12H268.718ZM281.916 565.468V566.61H280.568V572.719C281.22 572.682 281.857 572.616 282.473 572.543L282.546 573.554C279.792 574.008 276.701 574.052 274.401 574.066L274.24 572.909L275.91 572.895V566.61H274.562V565.468H281.916ZM284.626 564.12V569.291H286.735V570.434H284.626V577.245H283.234V564.12H284.626ZM277.258 572.865C277.902 572.858 278.562 572.836 279.221 572.807V566.61H277.258V572.865ZM291.086 564.56C293.063 564.574 294.514 565.79 294.528 567.504C294.514 569.232 293.063 570.434 291.086 570.434C289.094 570.434 287.629 569.232 287.629 567.504C287.629 565.79 289.094 564.574 291.086 564.56ZM291.086 565.731C289.87 565.717 288.977 566.435 288.991 567.504C288.977 568.588 289.87 569.306 291.086 569.306C292.287 569.306 293.181 568.588 293.181 567.504C293.181 566.435 292.287 565.717 291.086 565.731ZM298.249 564.12V570.8H296.857V564.12H298.249ZM298.249 571.4V574.711H291.013V575.971H298.688V577.084H289.665V573.671H296.872V572.514H289.621V571.4H298.249ZM306.306 564.34C309.265 564.34 310.993 565.131 310.993 566.596C310.993 568.061 309.265 568.866 306.306 568.866C303.347 568.866 301.618 568.061 301.618 566.596C301.618 565.131 303.347 564.34 306.306 564.34ZM306.306 565.365C304.211 565.365 303.054 565.819 303.068 566.596C303.054 567.401 304.211 567.826 306.306 567.826C308.4 567.826 309.558 567.401 309.558 566.596C309.558 565.819 308.4 565.365 306.306 565.365ZM312.297 569.672V570.785H300.329V569.672H312.297ZM310.788 571.796V574.872H303.142V576.044H311.154V577.113H301.779V573.861H309.411V572.836H301.765V571.796H310.788ZM320.588 564.721C322.316 564.706 323.649 565.709 323.942 567.182H326.506V564.12H327.897V571.166H326.506V568.324H323.957C323.671 569.833 322.331 570.844 320.588 570.844C318.581 570.844 317.146 569.584 317.146 567.768C317.146 565.98 318.581 564.706 320.588 564.721ZM320.588 565.878C319.343 565.878 318.479 566.64 318.479 567.768C318.479 568.896 319.343 569.672 320.588 569.672C321.804 569.672 322.668 568.896 322.668 567.768C322.668 566.64 321.804 565.878 320.588 565.878ZM320.72 571.796V573.319H326.506V571.796H327.897V577.084H319.343V571.796H320.72ZM320.72 575.941H326.506V574.418H320.72V575.941ZM341.931 574.506V575.678H329.919V574.506H335.207V572.206H331.384V568.031H339.089V566.186H331.354V565.043H340.466V569.145H332.761V571.063H340.773V572.206H336.584V574.506H341.931ZM353.518 570.346V571.488H344.377V565.292H353.4V566.435H345.754V570.346H353.518ZM354.895 574.359V575.517H342.883V574.359H354.895ZM365.998 566.288V567.416H359.479V566.288H362.058V564.501H363.435V566.288H365.998ZM362.746 568.207C364.416 568.207 365.588 569.452 365.603 571.225C365.588 573.012 364.416 574.271 362.746 574.271C361.105 574.271 359.89 573.012 359.904 571.225C359.89 569.452 361.105 568.207 362.746 568.207ZM362.746 569.364C361.794 569.364 361.135 570.141 361.135 571.225C361.135 572.338 361.794 573.085 362.746 573.085C363.684 573.085 364.372 572.338 364.372 571.225C364.372 570.141 363.684 569.364 362.746 569.364ZM370.744 564.12V577.245H369.426V570.727H367.917V576.63H366.599V564.413H367.917V569.584H369.426V564.12H370.744ZM384.44 571.518V572.646H379.108V577.23H377.746V572.646H372.473V571.518H384.44ZM383.312 564.896V566.01H379.255C379.277 567.636 381.298 569.086 383.781 569.423L383.269 570.521C381.115 570.185 379.255 569.123 378.464 567.621C377.651 569.123 375.798 570.185 373.674 570.521L373.146 569.423C375.6 569.086 377.622 567.636 377.673 566.01H373.586V564.896H383.312ZM389.436 567.709C389.436 569.804 390.314 572.045 392.072 573.114L391.296 574.184C390.065 573.444 389.23 572.133 388.791 570.609C388.3 572.279 387.399 573.7 386.125 574.477L385.261 573.437C387.121 572.323 388.088 570.009 388.088 567.768V565.321H389.436V567.709ZM396.73 564.12V577.245H395.397V564.12H396.73ZM394.006 564.369V576.601H392.688V569.892H390.651V568.734H392.688V564.369H394.006ZM410.412 574.447V575.604H398.4V574.447H401.271V571.02C400.195 570.426 399.543 569.481 399.543 568.31C399.543 566.244 401.564 564.882 404.377 564.882C407.204 564.882 409.226 566.244 409.226 568.31C409.226 569.467 408.596 570.397 407.541 570.99V574.447H410.412ZM404.377 565.995C402.312 565.995 400.891 566.889 400.891 568.31C400.891 569.716 402.312 570.639 404.377 570.639C406.428 570.639 407.878 569.716 407.878 568.31C407.878 566.889 406.428 565.995 404.377 565.995ZM402.648 574.447H406.135V571.518C405.6 571.657 405.007 571.723 404.377 571.723C403.762 571.723 403.176 571.657 402.648 571.532V574.447Z" fill="#18181B"/>
<rect x="187.5" y="953.5" width="1065" height="331" rx="8.5" stroke="#FAFAFA" stroke-width="3"/>
<path d="M219.719 974.12V987.245H218.386V980.521H216.701V986.571H215.397V974.384H216.701V979.379H218.386V974.12H219.719ZM210.49 975.673V982.675C211.706 982.667 213.032 982.572 214.519 982.279L214.665 983.495C212.863 983.817 211.354 983.905 209.948 983.905H209.099V975.673H210.49ZM225.71 986V975.395H229.489C231.95 975.395 233.166 976.874 233.166 978.837C233.166 980.785 231.95 982.279 229.489 982.279H227.321V986H225.71ZM227.321 980.902H229.328C230.896 980.902 231.54 980.023 231.54 978.837C231.54 977.636 230.896 976.771 229.328 976.771H227.321V980.902ZM242.043 978.852C241.779 977.489 240.651 976.728 239.304 976.728C237.473 976.728 236.11 978.134 236.11 980.697C236.11 983.275 237.487 984.667 239.304 984.667C240.637 984.667 241.765 983.92 242.043 982.572L243.669 982.587C243.332 984.682 241.618 986.146 239.289 986.146C236.521 986.146 234.514 984.081 234.514 980.697C234.514 977.299 236.535 975.248 239.289 975.248C241.53 975.248 243.303 976.566 243.669 978.852H242.043ZM256.105 974.12V987.245H254.772V974.12H256.105ZM253.439 974.369V986.601H252.106V980.272H250.627C250.51 982.836 249.411 984.433 247.785 984.418C246.071 984.433 244.958 982.631 244.958 979.789C244.958 976.947 246.071 975.16 247.785 975.175C249.382 975.16 250.466 976.676 250.627 979.145H252.106V974.369H253.439ZM247.785 976.479C246.833 976.479 246.247 977.694 246.247 979.789C246.247 981.884 246.833 983.1 247.785 983.1C248.752 983.1 249.353 981.884 249.353 979.789C249.353 977.694 248.752 976.479 247.785 976.479ZM262.507 977.46C262.507 979.862 263.854 982.25 265.861 983.158L265.012 984.271C263.518 983.524 262.397 982.038 261.818 980.243C261.24 982.133 260.09 983.729 258.581 984.521L257.702 983.393C259.738 982.426 261.101 979.892 261.101 977.46V975.219H262.507V977.46ZM268.718 974.12V987.274H267.341V979.613H264.411V978.485H267.341V974.12H268.718ZM281.916 975.468V976.61H280.568V982.719C281.22 982.682 281.857 982.616 282.473 982.543L282.546 983.554C279.792 984.008 276.701 984.052 274.401 984.066L274.24 982.909L275.91 982.895V976.61H274.562V975.468H281.916ZM284.626 974.12V979.291H286.735V980.434H284.626V987.245H283.234V974.12H284.626ZM277.258 982.865C277.902 982.858 278.562 982.836 279.221 982.807V976.61H277.258V982.865ZM291.086 974.56C293.063 974.574 294.514 975.79 294.528 977.504C294.514 979.232 293.063 980.434 291.086 980.434C289.094 980.434 287.629 979.232 287.629 977.504C287.629 975.79 289.094 974.574 291.086 974.56ZM291.086 975.731C289.87 975.717 288.977 976.435 288.991 977.504C288.977 978.588 289.87 979.306 291.086 979.306C292.287 979.306 293.181 978.588 293.181 977.504C293.181 976.435 292.287 975.717 291.086 975.731ZM298.249 974.12V980.8H296.857V974.12H298.249ZM298.249 981.4V984.711H291.013V985.971H298.688V987.084H289.665V983.671H296.872V982.514H289.621V981.4H298.249ZM306.306 974.34C309.265 974.34 310.993 975.131 310.993 976.596C310.993 978.061 309.265 978.866 306.306 978.866C303.347 978.866 301.618 978.061 301.618 976.596C301.618 975.131 303.347 974.34 306.306 974.34ZM306.306 975.365C304.211 975.365 303.054 975.819 303.068 976.596C303.054 977.401 304.211 977.826 306.306 977.826C308.4 977.826 309.558 977.401 309.558 976.596C309.558 975.819 308.4 975.365 306.306 975.365ZM312.297 979.672V980.785H300.329V979.672H312.297ZM310.788 981.796V984.872H303.142V986.044H311.154V987.113H301.779V983.861H309.411V982.836H301.765V981.796H310.788ZM320.588 974.721C322.316 974.706 323.649 975.709 323.942 977.182H326.506V974.12H327.897V981.166H326.506V978.324H323.957C323.671 979.833 322.331 980.844 320.588 980.844C318.581 980.844 317.146 979.584 317.146 977.768C317.146 975.98 318.581 974.706 320.588 974.721ZM320.588 975.878C319.343 975.878 318.479 976.64 318.479 977.768C318.479 978.896 319.343 979.672 320.588 979.672C321.804 979.672 322.668 978.896 322.668 977.768C322.668 976.64 321.804 975.878 320.588 975.878ZM320.72 981.796V983.319H326.506V981.796H327.897V987.084H319.343V981.796H320.72ZM320.72 985.941H326.506V984.418H320.72V985.941ZM341.931 984.506V985.678H329.919V984.506H335.207V982.206H331.384V978.031H339.089V976.186H331.354V975.043H340.466V979.145H332.761V981.063H340.773V982.206H336.584V984.506H341.931ZM353.518 980.346V981.488H344.377V975.292H353.4V976.435H345.754V980.346H353.518ZM354.895 984.359V985.517H342.883V984.359H354.895ZM365.998 976.288V977.416H359.479V976.288H362.058V974.501H363.435V976.288H365.998ZM362.746 978.207C364.416 978.207 365.588 979.452 365.603 981.225C365.588 983.012 364.416 984.271 362.746 984.271C361.105 984.271 359.89 983.012 359.904 981.225C359.89 979.452 361.105 978.207 362.746 978.207ZM362.746 979.364C361.794 979.364 361.135 980.141 361.135 981.225C361.135 982.338 361.794 983.085 362.746 983.085C363.684 983.085 364.372 982.338 364.372 981.225C364.372 980.141 363.684 979.364 362.746 979.364ZM370.744 974.12V987.245H369.426V980.727H367.917V986.63H366.599V974.413H367.917V979.584H369.426V974.12H370.744ZM384.44 981.518V982.646H379.108V987.23H377.746V982.646H372.473V981.518H384.44ZM383.312 974.896V976.01H379.255C379.277 977.636 381.298 979.086 383.781 979.423L383.269 980.521C381.115 980.185 379.255 979.123 378.464 977.621C377.651 979.123 375.798 980.185 373.674 980.521L373.146 979.423C375.6 979.086 377.622 977.636 377.673 976.01H373.586V974.896H383.312ZM389.436 977.709C389.436 979.804 390.314 982.045 392.072 983.114L391.296 984.184C390.065 983.444 389.23 982.133 388.791 980.609C388.3 982.279 387.399 983.7 386.125 984.477L385.261 983.437C387.121 982.323 388.088 980.009 388.088 977.768V975.321H389.436V977.709ZM396.73 974.12V987.245H395.397V974.12H396.73ZM394.006 974.369V986.601H392.688V979.892H390.651V978.734H392.688V974.369H394.006ZM410.412 984.447V985.604H398.4V984.447H401.271V981.02C400.195 980.426 399.543 979.481 399.543 978.31C399.543 976.244 401.564 974.882 404.377 974.882C407.204 974.882 409.226 976.244 409.226 978.31C409.226 979.467 408.596 980.397 407.541 980.99V984.447H410.412ZM404.377 975.995C402.312 975.995 400.891 976.889 400.891 978.31C400.891 979.716 402.312 980.639 404.377 980.639C406.428 980.639 407.878 979.716 407.878 978.31C407.878 976.889 406.428 975.995 404.377 975.995ZM402.648 984.447H406.135V981.518C405.6 981.657 405.007 981.723 404.377 981.723C403.762 981.723 403.176 981.657 402.648 981.532V984.447Z" fill="#18181B"/>
<path d="M201.469 202.023V219.797H198.988V202.023H201.469ZM186.605 214.777C187.963 214.768 189.516 214.768 191.137 214.719V213.215C189.184 212.873 187.914 211.662 187.934 209.992C187.914 208 189.73 206.652 192.348 206.652C194.984 206.652 196.82 208 196.82 209.992C196.82 211.652 195.551 212.863 193.598 213.215V214.641C195.082 214.572 196.586 214.455 198.012 214.27L198.188 216.105C194.301 216.77 190.102 216.809 186.938 216.809L186.605 214.777ZM197.758 203.996V205.949H186.957V203.996H191.137V202.102H193.617V203.996H197.758ZM192.348 208.547C191.137 208.547 190.277 209.074 190.297 209.992C190.277 210.93 191.137 211.438 192.348 211.438C193.598 211.438 194.438 210.93 194.438 209.992C194.438 209.074 193.598 208.547 192.348 208.547ZM209.504 203.215C212.317 203.195 214.426 205.031 214.426 207.57C214.426 210.129 212.317 211.945 209.504 211.945C206.692 211.945 204.563 210.129 204.563 207.57C204.563 205.031 206.692 203.195 209.504 203.215ZM209.504 205.363C208.098 205.363 207.024 206.184 207.043 207.57C207.024 208.977 208.098 209.777 209.504 209.777C210.91 209.777 211.985 208.977 212.004 207.57C211.985 206.184 210.93 205.363 209.504 205.363ZM218.684 202.023V219.836H216.203V202.023H218.684ZM203.821 214.172C206.985 214.191 211.379 214.133 215.188 213.605L215.383 215.402C211.438 216.164 207.219 216.203 204.114 216.203L203.821 214.172ZM237.208 211.555V213.547H220.938V211.555H227.833V210.266H222.969V205.383H232.735V204.289H222.93V202.355H235.235V207.18H225.45V208.352H235.567V210.266H230.313V211.555H237.208ZM235.333 214.562V219.719H232.813V216.516H222.755V214.562H235.333Z" fill="#18181B"/>
<path d="M237 230.5H238.5V227.5H237V230.5ZM186 229V230.5H237V229V227.5H186V229Z" fill="#3B82F6"/>
<path d="M199.605 279.744V295.494H197.936V279.744H199.605ZM186.668 291.205C187.96 291.196 189.445 291.188 190.992 291.135V289.57C189.146 289.333 187.951 288.252 187.969 286.705C187.951 284.93 189.498 283.752 191.783 283.752C194.086 283.752 195.668 284.93 195.668 286.705C195.668 288.234 194.473 289.307 192.645 289.553V291.082C194.104 291.021 195.58 290.906 196.969 290.73L197.092 291.979C193.594 292.559 189.779 292.594 186.896 292.594L186.668 291.205ZM196.617 281.625V282.961H187.002V281.625H190.992V279.779H192.662V281.625H196.617ZM191.783 285.053C190.465 285.053 189.533 285.703 189.551 286.705C189.533 287.707 190.465 288.322 191.783 288.322C193.137 288.322 194.068 287.707 194.068 286.705C194.068 285.703 193.137 285.053 191.783 285.053ZM207.27 280.869C209.766 280.852 211.541 282.398 211.559 284.613C211.541 286.828 209.766 288.375 207.27 288.375C204.791 288.375 202.963 286.828 202.98 284.613C202.963 282.398 204.791 280.852 207.27 280.869ZM207.27 282.311C205.74 282.311 204.615 283.225 204.633 284.613C204.615 286.002 205.74 286.916 207.27 286.916C208.799 286.916 209.924 286.002 209.924 284.613C209.924 283.225 208.799 282.311 207.27 282.311ZM215.162 279.744V295.529H213.492V279.744H215.162ZM202.225 290.748C205.09 290.748 209.062 290.713 212.508 290.221L212.631 291.434C209.062 292.119 205.248 292.137 202.436 292.137L202.225 290.748ZM234.621 280.395V285.791H230.086V287.619H236.449V288.973H222.088V287.619H228.434V285.791H223.916V280.395H234.621ZM225.551 281.713V284.455H232.969V281.713H225.551ZM234.691 290.467V295.494H233.004V291.785H223.688V290.467H234.691ZM252.059 292.26V293.631H237.645V292.26H241.512V288.762H238.91V287.408H241.266V282.504H238.875V281.133H250.74V282.504H248.332V287.408H250.688V288.762H248.104V292.26H252.059ZM242.918 287.408H246.697V282.504H242.918V287.408ZM243.182 292.26H246.434V288.762H243.182V292.26Z" fill="#18181B"/>
<rect x="273" y="259" width="981" height="58" rx="10" fill="#FAFAFA"/>
<path d="M306.338 281.12V294.245H304.946V281.12H306.338ZM295.557 290.671C296.633 290.664 297.871 290.656 299.16 290.612V289.309C297.622 289.111 296.626 288.21 296.641 286.921C296.626 285.441 297.915 284.46 299.819 284.46C301.738 284.46 303.057 285.441 303.057 286.921C303.057 288.195 302.061 289.089 300.537 289.294V290.568C301.753 290.517 302.983 290.422 304.141 290.275L304.243 291.315C301.328 291.799 298.149 291.828 295.747 291.828L295.557 290.671ZM303.848 282.688V283.801H295.835V282.688H299.16V281.149H300.552V282.688H303.848ZM299.819 285.544C298.721 285.544 297.944 286.086 297.959 286.921C297.944 287.756 298.721 288.269 299.819 288.269C300.947 288.269 301.724 287.756 301.724 286.921C301.724 286.086 300.947 285.544 299.819 285.544ZM312.725 282.058C314.805 282.043 316.284 283.332 316.299 285.178C316.284 287.023 314.805 288.312 312.725 288.312C310.659 288.312 309.136 287.023 309.15 285.178C309.136 283.332 310.659 282.043 312.725 282.058ZM312.725 283.259C311.45 283.259 310.513 284.021 310.527 285.178C310.513 286.335 311.45 287.097 312.725 287.097C313.999 287.097 314.937 286.335 314.937 285.178C314.937 284.021 313.999 283.259 312.725 283.259ZM319.302 281.12V294.274H317.91V281.12H319.302ZM308.521 290.29C310.908 290.29 314.219 290.261 317.09 289.851L317.192 290.861C314.219 291.433 311.04 291.447 308.696 291.447L308.521 290.29ZM335.518 281.662V286.159H331.738V287.683H337.041V288.811H325.073V287.683H330.361V286.159H326.597V281.662H335.518ZM327.959 282.761V285.046H334.141V282.761H327.959ZM335.576 290.056V294.245H334.17V291.154H326.406V290.056H335.576ZM350.049 291.55V292.692H338.037V291.55H341.26V288.635H339.092V287.507H341.055V283.42H339.062V282.277H348.95V283.42H346.943V287.507H348.906V288.635H346.753V291.55H350.049ZM342.432 287.507H345.581V283.42H342.432V287.507ZM342.651 291.55H345.361V288.635H342.651V291.55ZM362.998 287.141V288.21H350.986V287.141H362.998ZM361.519 289.133V292.019H353.813V293.103H361.929V294.084H352.422V291.096H360.142V290.129H352.407V289.133H361.519ZM361.489 281.457V284.299H353.901V285.295H361.709V286.276H352.524V283.376H360.098V282.438H352.495V281.457H361.489ZM372.212 283.479C372.212 285.148 373.369 286.745 375.376 287.419L374.673 288.503C373.186 287.99 372.095 286.965 371.523 285.676C370.952 287.097 369.817 288.21 368.271 288.752L367.524 287.668C369.575 286.965 370.806 285.28 370.82 283.464V283.112H367.935V281.984H375.039V283.112H372.212V283.479ZM377.939 281.12V284.489H379.844V285.661H377.939V289.03H376.548V281.12H377.939ZM377.939 289.675V294.245H376.548V290.803H369.268V289.675H377.939ZM385.249 283.083C385.249 284.929 386.436 286.569 388.428 287.214L387.666 288.298C386.223 287.778 385.161 286.767 384.59 285.456C384.019 286.958 382.876 288.122 381.294 288.693L380.547 287.58C382.642 286.862 383.857 285.119 383.872 283.142V281.853H385.249V283.083ZM391.533 281.12V288.869H390.142V284.929H387.373V283.786H390.142V281.12H391.533ZM387.139 289.235C389.893 289.235 391.577 290.144 391.577 291.74C391.577 293.322 389.893 294.23 387.139 294.216C384.385 294.23 382.686 293.322 382.7 291.74C382.686 290.144 384.385 289.235 387.139 289.235ZM387.139 290.319C385.22 290.319 384.077 290.832 384.077 291.74C384.077 292.619 385.22 293.117 387.139 293.117C389.058 293.117 390.2 292.619 390.2 291.74C390.2 290.832 389.058 290.319 387.139 290.319ZM400.044 283.288V284.416H393.525V283.288H396.104V281.501H397.48V283.288H400.044ZM396.792 285.207C398.462 285.207 399.634 286.452 399.648 288.225C399.634 290.012 398.462 291.271 396.792 291.271C395.151 291.271 393.936 290.012 393.95 288.225C393.936 286.452 395.151 285.207 396.792 285.207ZM396.792 286.364C395.84 286.364 395.181 287.141 395.181 288.225C395.181 289.338 395.84 290.085 396.792 290.085C397.729 290.085 398.418 289.338 398.418 288.225C398.418 287.141 397.729 286.364 396.792 286.364ZM404.79 281.12V294.245H403.472V287.727H401.963V293.63H400.645V281.413H401.963V286.584H403.472V281.12H404.79ZM418.486 288.518V289.646H413.154V294.23H411.792V289.646H406.519V288.518H418.486ZM417.358 281.896V283.01H413.301C413.323 284.636 415.344 286.086 417.827 286.423L417.314 287.521C415.161 287.185 413.301 286.123 412.51 284.621C411.697 286.123 409.844 287.185 407.72 287.521L407.192 286.423C409.646 286.086 411.667 284.636 411.719 283.01H407.632V281.896H417.358ZM423.481 284.709C423.481 286.804 424.36 289.045 426.118 290.114L425.342 291.184C424.111 290.444 423.276 289.133 422.837 287.609C422.346 289.279 421.445 290.7 420.171 291.477L419.307 290.437C421.167 289.323 422.134 287.009 422.134 284.768V282.321H423.481V284.709ZM430.776 281.12V294.245H429.443V281.12H430.776ZM428.052 281.369V293.601H426.733V286.892H424.697V285.734H426.733V281.369H428.052ZM444.458 291.447V292.604H432.446V291.447H435.317V288.02C434.241 287.426 433.589 286.481 433.589 285.31C433.589 283.244 435.61 281.882 438.423 281.882C441.25 281.882 443.271 283.244 443.271 285.31C443.271 286.467 442.642 287.397 441.587 287.99V291.447H444.458ZM438.423 282.995C436.357 282.995 434.937 283.889 434.937 285.31C434.937 286.716 436.357 287.639 438.423 287.639C440.474 287.639 441.924 286.716 441.924 285.31C441.924 283.889 440.474 282.995 438.423 282.995ZM436.694 291.447H440.181V288.518C439.646 288.657 439.053 288.723 438.423 288.723C437.808 288.723 437.222 288.657 436.694 288.532V291.447ZM446.904 293.103C446.333 293.103 445.85 292.634 445.864 292.062C445.85 291.491 446.333 291.022 446.904 291.022C447.461 291.022 447.944 291.491 447.944 292.062C447.944 292.634 447.461 293.103 446.904 293.103Z" fill="#71717A"/>
<rect x="1131" y="1431" width="123" height="58" rx="10" fill="#3B82F6"/>
<path d="M1168.27 1452.77V1466.89H1166.53V1452.77H1168.27ZM1156.56 1462.97C1157.69 1462.96 1158.96 1462.96 1160.3 1462.92V1461.62C1158.7 1461.38 1157.67 1460.4 1157.67 1459.06C1157.67 1457.47 1159.08 1456.41 1161.14 1456.41C1163.22 1456.41 1164.66 1457.47 1164.66 1459.06C1164.66 1460.39 1163.62 1461.36 1162.03 1461.61V1462.86C1163.27 1462.8 1164.52 1462.7 1165.7 1462.55L1165.83 1463.84C1162.72 1464.38 1159.36 1464.41 1156.81 1464.41L1156.56 1462.97ZM1165.45 1454.39V1455.77H1156.86V1454.39H1160.3V1452.81H1162.03V1454.39H1165.45ZM1161.14 1457.73C1160.08 1457.75 1159.31 1458.23 1159.33 1459.06C1159.31 1459.88 1160.08 1460.36 1161.14 1460.34C1162.25 1460.36 1162.98 1459.88 1162.98 1459.06C1162.98 1458.23 1162.25 1457.75 1161.14 1457.73ZM1174.91 1453.75C1177.14 1453.73 1178.78 1455.16 1178.8 1457.16C1178.78 1459.17 1177.14 1460.58 1174.91 1460.58C1172.69 1460.58 1171.03 1459.17 1171.03 1457.16C1171.03 1455.16 1172.69 1453.73 1174.91 1453.75ZM1174.91 1455.25C1173.67 1455.25 1172.75 1455.98 1172.75 1457.16C1172.75 1458.34 1173.67 1459.06 1174.91 1459.06C1176.16 1459.06 1177.09 1458.34 1177.09 1457.16C1177.09 1455.98 1176.16 1455.25 1174.91 1455.25ZM1182.09 1452.77V1466.91H1180.36V1452.77H1182.09ZM1170.39 1462.53C1172.94 1462.53 1176.47 1462.5 1179.52 1462.06L1179.66 1463.33C1176.48 1463.94 1173.09 1463.95 1170.61 1463.95L1170.39 1462.53ZM1197.05 1460.41V1461.81H1184.14V1460.41H1189.73V1459.23H1185.78V1455.48H1193.72V1454.44H1185.73V1453.08H1195.45V1456.75H1187.5V1457.88H1195.73V1459.23H1191.45V1460.41H1197.05ZM1195.53 1462.7V1466.8H1193.78V1464.08H1185.58V1462.7H1195.53ZM1213.62 1452.77V1466.91H1211.89V1459.19H1209.17V1457.77H1211.89V1452.77H1213.62ZM1206.97 1456.52C1206.97 1458.95 1208.28 1461.55 1210.56 1462.53L1209.53 1463.92C1207.89 1463.14 1206.72 1461.57 1206.11 1459.7C1205.48 1461.7 1204.28 1463.38 1202.64 1464.2L1201.59 1462.84C1203.86 1461.78 1205.19 1459.09 1205.2 1456.52V1455.58H1202.17V1454.16H1210V1455.58H1206.97V1456.52ZM1220.67 1455.31C1220.67 1457.05 1221.8 1458.67 1224 1459.34L1223.17 1460.7C1221.59 1460.21 1220.46 1459.2 1219.84 1457.92C1219.22 1459.41 1218.02 1460.59 1216.33 1461.16L1215.45 1459.78C1217.73 1459.03 1218.92 1457.2 1218.92 1455.33V1455.16H1215.94V1453.75H1223.61V1455.16H1220.67V1455.31ZM1226.75 1452.77V1456.16H1228.72V1457.58H1226.75V1461.19H1225.02V1452.77H1226.75ZM1222.16 1461.5C1225.08 1461.5 1226.88 1462.48 1226.89 1464.17C1226.88 1465.88 1225.08 1466.88 1222.16 1466.88C1219.2 1466.88 1217.38 1465.88 1217.38 1464.17C1217.38 1462.48 1219.2 1461.5 1222.16 1461.5ZM1222.16 1462.86C1220.22 1462.86 1219.11 1463.31 1219.11 1464.17C1219.11 1465.05 1220.22 1465.52 1222.16 1465.52C1224.09 1465.52 1225.17 1465.05 1225.17 1464.17C1225.17 1463.31 1224.09 1462.86 1222.16 1462.86Z" fill="#CBE2FF"/>
<path d="M152.706 128.629C153.095 128.239 153.095 127.608 152.705 127.219C152.316 126.829 151.684 126.829 151.295 127.219L146 132.514L151.295 137.808C151.684 138.198 152.316 138.198 152.705 137.808C153.095 137.419 153.095 136.788 152.706 136.398L148.83 132.514L152.706 128.629Z" fill="#71717A"/>
<path d="M173.616 125.678V138.7H172.474V125.678H173.616ZM163.011 135.229C164.124 135.221 165.398 135.214 166.717 135.17V133.749C165.157 133.581 164.139 132.694 164.153 131.391C164.139 129.926 165.398 128.974 167.273 128.974C169.148 128.974 170.423 129.926 170.423 131.391C170.423 132.68 169.412 133.566 167.874 133.734V135.126C169.134 135.075 170.408 134.979 171.609 134.818L171.697 135.697C168.797 136.166 165.604 136.21 163.187 136.21L163.011 135.229ZM171.272 127.289V128.227H163.289V127.289H166.717V125.692H167.874V127.289H171.272ZM167.273 129.867C166.072 129.867 165.223 130.482 165.223 131.391C165.223 132.299 166.072 132.885 167.273 132.87C168.489 132.885 169.324 132.299 169.324 131.391C169.324 130.482 168.489 129.867 167.273 129.867ZM180.164 126.63C182.215 126.63 183.665 127.875 183.665 129.691C183.665 131.508 182.215 132.753 180.164 132.753C178.113 132.753 176.634 131.508 176.648 129.691C176.634 127.875 178.113 126.63 180.164 126.63ZM180.164 127.641C178.772 127.641 177.762 128.476 177.776 129.691C177.762 130.907 178.772 131.742 180.164 131.742C181.541 131.742 182.537 130.907 182.537 129.691C182.537 128.476 181.541 127.641 180.164 127.641ZM186.58 125.678V138.729H185.438V125.678H186.58ZM175.975 134.877C178.377 134.877 181.688 134.862 184.573 134.438L184.661 135.287C181.688 135.844 178.479 135.858 176.136 135.858L175.975 134.877ZM200.774 132.855V133.808H188.851V132.855H194.241V131.479H190.403V128.3H198.079V126.952H190.359V126.015H199.236V129.164H191.546V130.556H199.515V131.479H195.369V132.855H200.774ZM199.31 134.804V138.583H198.152V135.741H190.184V134.804H199.31ZM216.053 129.179V130.102H212.098V131.361H217.459V132.299H205.594V131.361H210.955V130.102H207.176V126.19H215.921V127.143H208.333V129.179H216.053ZM215.936 133.412V136.312H208.201V137.631H216.331V138.554H207.059V135.463H214.808V134.291H207.029V133.412H215.936ZM222.044 126.688C223.963 126.703 225.325 128.461 225.34 131.229C225.325 133.998 223.963 135.756 222.044 135.756C220.11 135.756 218.763 133.998 218.763 131.229C218.763 128.461 220.11 126.703 222.044 126.688ZM222.044 127.714C220.755 127.729 219.847 129.105 219.847 131.229C219.847 133.354 220.755 134.73 222.044 134.73C223.348 134.73 224.227 133.354 224.227 131.229C224.227 129.105 223.348 127.729 222.044 127.714ZM228.636 125.678V130.878H230.818V131.874H228.636V138.7H227.493V125.678H228.636ZM241.6 125.678V130.98H243.709V131.947H241.6V138.7H240.457V125.678H241.6ZM238.23 127.084C238.23 130.775 236.502 134.13 232.254 136.225L231.609 135.316C234.979 133.639 236.81 131.134 237.073 128.051H232.21V127.084H238.23ZM255.252 125.678V138.7H254.095V125.678H255.252ZM251.399 127.099C251.385 130.849 249.642 134.159 245.276 136.254L244.646 135.316C248.169 133.646 249.964 131.149 250.228 128.036H245.247V127.099H251.399Z" fill="#71717A"/>
<defs>
<clipPath id="clip0_1004_7141">
<rect x="1206" y="38" width="27" height="27" rx="13.5" fill="white"/>
</clipPath>
</defs>
</svg>
