<svg width="1440" height="1344" viewBox="0 0 1440 1344" fill="none" xmlns="http://www.w3.org/2000/svg">
<rect width="1440" height="1344" fill="white"/>
<path d="M256.41 276.285H255.52L255.59 274.539L254.113 275.477L253.668 274.703L255.227 273.906L253.668 273.098L254.113 272.324L255.59 273.262L255.52 271.516H256.41L256.328 273.262L257.805 272.324L258.262 273.098L256.703 273.906L258.262 274.703L257.805 275.477L256.328 274.539L256.41 276.285Z" fill="#F63B3B"/>
<path d="M256.41 445.285H255.52L255.59 443.539L254.113 444.477L253.668 443.703L255.227 442.906L253.668 442.098L254.113 441.324L255.59 442.262L255.52 440.516H256.41L256.328 442.262L257.805 441.324L258.262 442.098L256.703 442.906L258.262 443.703L257.805 444.477L256.328 443.539L256.41 445.285Z" fill="#F63B3B"/>
<path d="M817.41 444.285H816.52L816.59 442.539L815.113 443.477L814.668 442.703L816.227 441.906L814.668 441.098L815.113 440.324L816.59 441.262L816.52 439.516H817.41L817.328 441.262L818.805 440.324L819.262 441.098L817.703 441.906L819.262 442.703L818.805 443.477L817.328 442.539L817.41 444.285Z" fill="#F63B3B"/>
<path d="M266.41 792.285H265.52L265.59 790.539L264.113 791.477L263.668 790.703L265.227 789.906L263.668 789.098L264.113 788.324L265.59 789.262L265.52 787.516H266.41L266.328 789.262L267.805 788.324L268.262 789.098L266.703 789.906L268.262 790.703L267.805 791.477L266.328 790.539L266.41 792.285Z" fill="#F63B3B"/>
<path d="M152.706 128.629C153.095 128.239 153.095 127.608 152.705 127.219C152.316 126.829 151.684 126.829 151.295 127.219L146 132.514L151.295 137.808C151.684 138.198 152.316 138.198 152.705 137.808C153.095 137.419 153.095 136.788 152.706 136.398L148.83 132.514L152.706 128.629Z" fill="#AFAFC1"/>
<path d="M174.861 136.049V137.03H162.938V136.049H174.861ZM173.719 126.996V127.948H171.653V132.504H173.689V133.441H164.021V132.504H166.058V127.948H163.992V126.996H173.719ZM167.2 132.504H170.525V127.948H167.2V132.504ZM187.825 136.122V137.089H175.901V136.122H181.263V133.661H177.396V129.647H185.188V127.597H177.366V126.645H186.316V130.585H178.538V132.709H186.624V133.661H182.391V136.122H187.825ZM197.391 125.971V133.529H196.277V129.999H194.285V129.047H196.277V125.971H197.391ZM192.718 128.476C192.718 129.896 193.67 131.435 195.325 132.123L194.725 133.002C193.501 132.489 192.645 131.515 192.205 130.395C191.744 131.662 190.835 132.753 189.539 133.324L188.924 132.416C190.623 131.698 191.604 130.028 191.604 128.476V127.699H189.173V126.747H195.018V127.699H192.718V128.476ZM199.925 125.678V133.646H198.826V125.678H199.925ZM199.925 134.218V138.7H198.797V135.155H191.15V134.218H199.925ZM212.376 132.724V133.661H203.367V126.806H212.229V127.772H204.539V129.706H211.951V130.629H204.539V132.724H212.376ZM213.753 136.049V137.001H201.829V136.049H213.753ZM226.717 136.122V137.089H214.793V136.122H220.154V133.661H216.287V129.647H224.08V127.597H216.258V126.645H225.208V130.585H217.43V132.709H225.516V133.661H221.282V136.122H226.717ZM241.98 129.179V130.102H238.025V131.361H243.387V132.299H231.521V131.361H236.883V130.102H233.104V126.19H241.849V127.143H234.261V129.179H241.98ZM241.863 133.412V136.312H234.129V137.631H242.259V138.554H232.986V135.463H240.735V134.291H232.957V133.412H241.863ZM247.972 126.688C249.891 126.703 251.253 128.461 251.268 131.229C251.253 133.998 249.891 135.756 247.972 135.756C246.038 135.756 244.69 133.998 244.69 131.229C244.69 128.461 246.038 126.703 247.972 126.688ZM247.972 127.714C246.683 127.729 245.774 129.105 245.774 131.229C245.774 133.354 246.683 134.73 247.972 134.73C249.275 134.73 250.154 133.354 250.154 131.229C250.154 129.105 249.275 127.729 247.972 127.714ZM254.563 125.678V130.878H256.746V131.874H254.563V138.7H253.421V125.678H254.563ZM267.527 125.678V130.98H269.637V131.947H267.527V138.7H266.385V125.678H267.527ZM264.158 127.084C264.158 130.775 262.43 134.13 258.182 136.225L257.537 135.316C260.906 133.639 262.737 131.134 263.001 128.051H258.138V127.084H264.158ZM281.18 125.678V138.7H280.022V125.678H281.18ZM277.327 127.099C277.312 130.849 275.569 134.159 271.204 136.254L270.574 135.316C274.097 133.646 275.892 131.149 276.155 128.036H271.175V127.099H277.327Z" fill="#71717A"/>
<rect x="962" y="1066" width="123" height="58" rx="10" fill="#CBE2FF"/>
<path d="M999.266 1087.77V1101.89H997.531V1087.77H999.266ZM987.562 1097.97C988.688 1097.96 989.961 1097.96 991.297 1097.92V1096.62C989.703 1096.38 988.672 1095.4 988.672 1094.06C988.672 1092.47 990.078 1091.41 992.141 1091.41C994.219 1091.41 995.656 1092.47 995.656 1094.06C995.656 1095.39 994.617 1096.36 993.031 1096.61V1097.86C994.273 1097.8 995.523 1097.7 996.703 1097.55L996.828 1098.84C993.719 1099.38 990.359 1099.41 987.812 1099.41L987.562 1097.97ZM996.453 1089.39V1090.77H987.859V1089.39H991.297V1087.81H993.031V1089.39H996.453ZM992.141 1092.73C991.078 1092.75 990.312 1093.23 990.328 1094.06C990.312 1094.88 991.078 1095.36 992.141 1095.34C993.25 1095.36 993.984 1094.88 993.984 1094.06C993.984 1093.23 993.25 1092.75 992.141 1092.73ZM1005.91 1088.75C1008.14 1088.73 1009.78 1090.16 1009.8 1092.16C1009.78 1094.17 1008.14 1095.58 1005.91 1095.58C1003.69 1095.58 1002.03 1094.17 1002.03 1092.16C1002.03 1090.16 1003.69 1088.73 1005.91 1088.75ZM1005.91 1090.25C1004.67 1090.25 1003.75 1090.98 1003.75 1092.16C1003.75 1093.34 1004.67 1094.06 1005.91 1094.06C1007.16 1094.06 1008.09 1093.34 1008.09 1092.16C1008.09 1090.98 1007.16 1090.25 1005.91 1090.25ZM1013.09 1087.77V1101.91H1011.36V1087.77H1013.09ZM1001.39 1097.53C1003.94 1097.53 1007.47 1097.5 1010.52 1097.06L1010.66 1098.33C1007.48 1098.94 1004.09 1098.95 1001.61 1098.95L1001.39 1097.53ZM1028.05 1095.41V1096.81H1015.14V1095.41H1020.73V1094.23H1016.78V1090.48H1024.72V1089.44H1016.73V1088.08H1026.45V1091.75H1018.5V1092.88H1026.73V1094.23H1022.45V1095.41H1028.05ZM1026.53 1097.7V1101.8H1024.78V1099.08H1016.58V1097.7H1026.53ZM1037.84 1090.22C1037.84 1091.95 1038.97 1093.67 1041.19 1094.41L1040.31 1095.75C1038.73 1095.23 1037.61 1094.16 1037 1092.84C1036.37 1094.29 1035.2 1095.44 1033.55 1096L1032.62 1094.66C1034.91 1093.91 1036.09 1092.08 1036.09 1090.22V1090.05H1033.11V1088.66H1040.78V1090.05H1037.84V1090.22ZM1043.92 1087.77V1091.3H1045.89V1092.75H1043.92V1096.28H1042.19V1087.77H1043.92ZM1043.92 1096.94V1101.89H1042.19V1098.33H1034.52V1096.94H1043.92ZM1051.78 1089.8C1051.77 1091.72 1052.89 1093.47 1055.11 1094.17L1054.17 1095.53C1052.63 1094.99 1051.55 1093.97 1050.95 1092.62C1050.33 1094.16 1049.15 1095.38 1047.44 1095.97L1046.52 1094.56C1048.86 1093.8 1050.03 1091.91 1050.03 1089.88V1088.53H1051.78V1089.8ZM1058.44 1087.77V1096.08H1056.7V1091.92H1053.89V1090.5H1056.7V1087.77H1058.44ZM1053.66 1096.45C1056.66 1096.45 1058.48 1097.45 1058.48 1099.17C1058.48 1100.89 1056.66 1101.88 1053.66 1101.88C1050.67 1101.88 1048.84 1100.89 1048.86 1099.17C1048.84 1097.45 1050.67 1096.45 1053.66 1096.45ZM1053.66 1097.8C1051.69 1097.8 1050.58 1098.28 1050.58 1099.17C1050.58 1100.03 1051.69 1100.52 1053.66 1100.52C1055.62 1100.52 1056.75 1100.03 1056.75 1099.17C1056.75 1098.28 1055.62 1097.8 1053.66 1097.8Z" fill="#3B82F6"/>
<rect x="1106" y="1067" width="147" height="56" rx="9" fill="#3B82F6"/>
<rect x="1106" y="1067" width="147" height="56" rx="9" stroke="#3B82F6" stroke-width="2"/>
<path d="M1146.45 1087.77V1101.89H1144.72V1087.77H1146.45ZM1134.75 1097.97C1135.88 1097.96 1137.15 1097.96 1138.48 1097.92V1096.62C1136.89 1096.38 1135.86 1095.4 1135.86 1094.06C1135.86 1092.47 1137.27 1091.41 1139.33 1091.41C1141.41 1091.41 1142.84 1092.47 1142.84 1094.06C1142.84 1095.39 1141.8 1096.36 1140.22 1096.61V1097.86C1141.46 1097.8 1142.71 1097.7 1143.89 1097.55L1144.02 1098.84C1140.91 1099.38 1137.55 1099.41 1135 1099.41L1134.75 1097.97ZM1143.64 1089.39V1090.77H1135.05V1089.39H1138.48V1087.81H1140.22V1089.39H1143.64ZM1139.33 1092.73C1138.27 1092.75 1137.5 1093.23 1137.52 1094.06C1137.5 1094.88 1138.27 1095.36 1139.33 1095.34C1140.44 1095.36 1141.17 1094.88 1141.17 1094.06C1141.17 1093.23 1140.44 1092.75 1139.33 1092.73ZM1153.09 1088.75C1155.33 1088.73 1156.97 1090.16 1156.98 1092.16C1156.97 1094.17 1155.33 1095.58 1153.09 1095.58C1150.88 1095.58 1149.22 1094.17 1149.22 1092.16C1149.22 1090.16 1150.88 1088.73 1153.09 1088.75ZM1153.09 1090.25C1151.86 1090.25 1150.94 1090.98 1150.94 1092.16C1150.94 1093.34 1151.86 1094.06 1153.09 1094.06C1154.34 1094.06 1155.28 1093.34 1155.28 1092.16C1155.28 1090.98 1154.34 1090.25 1153.09 1090.25ZM1160.28 1087.77V1101.91H1158.55V1087.77H1160.28ZM1148.58 1097.53C1151.12 1097.53 1154.66 1097.5 1157.7 1097.06L1157.84 1098.33C1154.67 1098.94 1151.28 1098.95 1148.8 1098.95L1148.58 1097.53ZM1177.38 1088.34V1093.25H1173.44V1094.73H1179.02V1096.14H1166.14V1094.73H1171.69V1093.25H1167.77V1088.34H1177.38ZM1169.45 1089.7V1091.88H1175.66V1089.7H1169.45ZM1177.44 1097.33V1101.89H1175.7V1098.7H1167.56V1097.33H1177.44ZM1192.88 1098.86V1100.27H1179.97V1098.86H1183.31V1095.95H1181.08V1094.55H1183.06V1090.36H1181.03V1088.97H1191.75V1090.36H1189.69V1094.55H1191.7V1095.95H1189.47V1098.86H1192.88ZM1184.8 1094.55H1187.97V1090.36H1184.8V1094.55ZM1185.05 1098.86H1187.73V1095.95H1185.05V1098.86ZM1209.44 1087.77V1101.91H1207.7V1094.19H1204.98V1092.77H1207.7V1087.77H1209.44ZM1202.78 1091.52C1202.78 1093.95 1204.09 1096.55 1206.38 1097.53L1205.34 1098.92C1203.7 1098.14 1202.53 1096.57 1201.92 1094.7C1201.29 1096.7 1200.09 1098.38 1198.45 1099.2L1197.41 1097.84C1199.67 1096.78 1201 1094.09 1201.02 1091.52V1090.58H1197.98V1089.16H1205.81V1090.58H1202.78V1091.52ZM1216.48 1090.31C1216.48 1092.05 1217.61 1093.67 1219.81 1094.34L1218.98 1095.7C1217.4 1095.21 1216.27 1094.2 1215.66 1092.92C1215.03 1094.41 1213.84 1095.59 1212.14 1096.16L1211.27 1094.78C1213.55 1094.03 1214.73 1092.2 1214.73 1090.33V1090.16H1211.75V1088.75H1219.42V1090.16H1216.48V1090.31ZM1222.56 1087.77V1091.16H1224.53V1092.58H1222.56V1096.19H1220.83V1087.77H1222.56ZM1217.97 1096.5C1220.89 1096.5 1222.69 1097.48 1222.7 1099.17C1222.69 1100.88 1220.89 1101.88 1217.97 1101.88C1215.02 1101.88 1213.19 1100.88 1213.19 1099.17C1213.19 1097.48 1215.02 1096.5 1217.97 1096.5ZM1217.97 1097.86C1216.03 1097.86 1214.92 1098.31 1214.92 1099.17C1214.92 1100.05 1216.03 1100.52 1217.97 1100.52C1219.91 1100.52 1220.98 1100.05 1220.98 1099.17C1220.98 1098.31 1219.91 1097.86 1217.97 1097.86Z" fill="#CBE2FF"/>
<path d="M199.605 279.744V295.494H197.936V279.744H199.605ZM186.668 291.205C187.96 291.196 189.445 291.188 190.992 291.135V289.57C189.146 289.333 187.951 288.252 187.969 286.705C187.951 284.93 189.498 283.752 191.783 283.752C194.086 283.752 195.668 284.93 195.668 286.705C195.668 288.234 194.473 289.307 192.645 289.553V291.082C194.104 291.021 195.58 290.906 196.969 290.73L197.092 291.979C193.594 292.559 189.779 292.594 186.896 292.594L186.668 291.205ZM196.617 281.625V282.961H187.002V281.625H190.992V279.779H192.662V281.625H196.617ZM191.783 285.053C190.465 285.053 189.533 285.703 189.551 286.705C189.533 287.707 190.465 288.322 191.783 288.322C193.137 288.322 194.068 287.707 194.068 286.705C194.068 285.703 193.137 285.053 191.783 285.053ZM207.27 280.869C209.766 280.852 211.541 282.398 211.559 284.613C211.541 286.828 209.766 288.375 207.27 288.375C204.791 288.375 202.963 286.828 202.98 284.613C202.963 282.398 204.791 280.852 207.27 280.869ZM207.27 282.311C205.74 282.311 204.615 283.225 204.633 284.613C204.615 286.002 205.74 286.916 207.27 286.916C208.799 286.916 209.924 286.002 209.924 284.613C209.924 283.225 208.799 282.311 207.27 282.311ZM215.162 279.744V295.529H213.492V279.744H215.162ZM202.225 290.748C205.09 290.748 209.062 290.713 212.508 290.221L212.631 291.434C209.062 292.119 205.248 292.137 202.436 292.137L202.225 290.748ZM234.621 280.395V285.791H230.086V287.619H236.449V288.973H222.088V287.619H228.434V285.791H223.916V280.395H234.621ZM225.551 281.713V284.455H232.969V281.713H225.551ZM234.691 290.467V295.494H233.004V291.785H223.688V290.467H234.691ZM252.059 292.26V293.631H237.645V292.26H241.512V288.762H238.91V287.408H241.266V282.504H238.875V281.133H250.74V282.504H248.332V287.408H250.688V288.762H248.104V292.26H252.059ZM242.918 287.408H246.697V282.504H242.918V287.408ZM243.182 292.26H246.434V288.762H243.182V292.26Z" fill="#18181B"/>
<rect x="273" y="259" width="981" height="58" rx="10" fill="#FAFAFA"/>
<path d="M306.338 281.12V294.245H304.946V281.12H306.338ZM295.557 290.671C296.633 290.664 297.871 290.656 299.16 290.612V289.309C297.622 289.111 296.626 288.21 296.641 286.921C296.626 285.441 297.915 284.46 299.819 284.46C301.738 284.46 303.057 285.441 303.057 286.921C303.057 288.195 302.061 289.089 300.537 289.294V290.568C301.753 290.517 302.983 290.422 304.141 290.275L304.243 291.315C301.328 291.799 298.149 291.828 295.747 291.828L295.557 290.671ZM303.848 282.688V283.801H295.835V282.688H299.16V281.149H300.552V282.688H303.848ZM299.819 285.544C298.721 285.544 297.944 286.086 297.959 286.921C297.944 287.756 298.721 288.269 299.819 288.269C300.947 288.269 301.724 287.756 301.724 286.921C301.724 286.086 300.947 285.544 299.819 285.544ZM312.725 282.058C314.805 282.043 316.284 283.332 316.299 285.178C316.284 287.023 314.805 288.312 312.725 288.312C310.659 288.312 309.136 287.023 309.15 285.178C309.136 283.332 310.659 282.043 312.725 282.058ZM312.725 283.259C311.45 283.259 310.513 284.021 310.527 285.178C310.513 286.335 311.45 287.097 312.725 287.097C313.999 287.097 314.937 286.335 314.937 285.178C314.937 284.021 313.999 283.259 312.725 283.259ZM319.302 281.12V294.274H317.91V281.12H319.302ZM308.521 290.29C310.908 290.29 314.219 290.261 317.09 289.851L317.192 290.861C314.219 291.433 311.04 291.447 308.696 291.447L308.521 290.29ZM335.518 281.662V286.159H331.738V287.683H337.041V288.811H325.073V287.683H330.361V286.159H326.597V281.662H335.518ZM327.959 282.761V285.046H334.141V282.761H327.959ZM335.576 290.056V294.245H334.17V291.154H326.406V290.056H335.576ZM350.049 291.55V292.692H338.037V291.55H341.26V288.635H339.092V287.507H341.055V283.42H339.062V282.277H348.95V283.42H346.943V287.507H348.906V288.635H346.753V291.55H350.049ZM342.432 287.507H345.581V283.42H342.432V287.507ZM342.651 291.55H345.361V288.635H342.651V291.55ZM362.998 287.141V288.21H350.986V287.141H362.998ZM361.519 289.133V292.019H353.813V293.103H361.929V294.084H352.422V291.096H360.142V290.129H352.407V289.133H361.519ZM361.489 281.457V284.299H353.901V285.295H361.709V286.276H352.524V283.376H360.098V282.438H352.495V281.457H361.489ZM372.212 283.479C372.212 285.148 373.369 286.745 375.376 287.419L374.673 288.503C373.186 287.99 372.095 286.965 371.523 285.676C370.952 287.097 369.817 288.21 368.271 288.752L367.524 287.668C369.575 286.965 370.806 285.28 370.82 283.464V283.112H367.935V281.984H375.039V283.112H372.212V283.479ZM377.939 281.12V284.489H379.844V285.661H377.939V289.03H376.548V281.12H377.939ZM377.939 289.675V294.245H376.548V290.803H369.268V289.675H377.939ZM385.249 283.083C385.249 284.929 386.436 286.569 388.428 287.214L387.666 288.298C386.223 287.778 385.161 286.767 384.59 285.456C384.019 286.958 382.876 288.122 381.294 288.693L380.547 287.58C382.642 286.862 383.857 285.119 383.872 283.142V281.853H385.249V283.083ZM391.533 281.12V288.869H390.142V284.929H387.373V283.786H390.142V281.12H391.533ZM387.139 289.235C389.893 289.235 391.577 290.144 391.577 291.74C391.577 293.322 389.893 294.23 387.139 294.216C384.385 294.23 382.686 293.322 382.7 291.74C382.686 290.144 384.385 289.235 387.139 289.235ZM387.139 290.319C385.22 290.319 384.077 290.832 384.077 291.74C384.077 292.619 385.22 293.117 387.139 293.117C389.058 293.117 390.2 292.619 390.2 291.74C390.2 290.832 389.058 290.319 387.139 290.319ZM400.044 283.288V284.416H393.525V283.288H396.104V281.501H397.48V283.288H400.044ZM396.792 285.207C398.462 285.207 399.634 286.452 399.648 288.225C399.634 290.012 398.462 291.271 396.792 291.271C395.151 291.271 393.936 290.012 393.95 288.225C393.936 286.452 395.151 285.207 396.792 285.207ZM396.792 286.364C395.84 286.364 395.181 287.141 395.181 288.225C395.181 289.338 395.84 290.085 396.792 290.085C397.729 290.085 398.418 289.338 398.418 288.225C398.418 287.141 397.729 286.364 396.792 286.364ZM404.79 281.12V294.245H403.472V287.727H401.963V293.63H400.645V281.413H401.963V286.584H403.472V281.12H404.79ZM418.486 288.518V289.646H413.154V294.23H411.792V289.646H406.519V288.518H418.486ZM417.358 281.896V283.01H413.301C413.323 284.636 415.344 286.086 417.827 286.423L417.314 287.521C415.161 287.185 413.301 286.123 412.51 284.621C411.697 286.123 409.844 287.185 407.72 287.521L407.192 286.423C409.646 286.086 411.667 284.636 411.719 283.01H407.632V281.896H417.358ZM423.481 284.709C423.481 286.804 424.36 289.045 426.118 290.114L425.342 291.184C424.111 290.444 423.276 289.133 422.837 287.609C422.346 289.279 421.445 290.7 420.171 291.477L419.307 290.437C421.167 289.323 422.134 287.009 422.134 284.768V282.321H423.481V284.709ZM430.776 281.12V294.245H429.443V281.12H430.776ZM428.052 281.369V293.601H426.733V286.892H424.697V285.734H426.733V281.369H428.052ZM444.458 291.447V292.604H432.446V291.447H435.317V288.02C434.241 287.426 433.589 286.481 433.589 285.31C433.589 283.244 435.61 281.882 438.423 281.882C441.25 281.882 443.271 283.244 443.271 285.31C443.271 286.467 442.642 287.397 441.587 287.99V291.447H444.458ZM438.423 282.995C436.357 282.995 434.937 283.889 434.937 285.31C434.937 286.716 436.357 287.639 438.423 287.639C440.474 287.639 441.924 286.716 441.924 285.31C441.924 283.889 440.474 282.995 438.423 282.995ZM436.694 291.447H440.181V288.518C439.646 288.657 439.053 288.723 438.423 288.723C437.808 288.723 437.222 288.657 436.694 288.532V291.447ZM446.904 293.103C446.333 293.103 445.85 292.634 445.864 292.062C445.85 291.491 446.333 291.022 446.904 291.022C447.461 291.022 447.944 291.491 447.944 292.062C447.944 292.634 447.461 293.103 446.904 293.103Z" fill="#71717A"/>
<path d="M199.605 801.244V816.994H197.936V801.244H199.605ZM186.668 812.705C187.96 812.696 189.445 812.688 190.992 812.635V811.07C189.146 810.833 187.951 809.752 187.969 808.205C187.951 806.43 189.498 805.252 191.783 805.252C194.086 805.252 195.668 806.43 195.668 808.205C195.668 809.734 194.473 810.807 192.645 811.053V812.582C194.104 812.521 195.58 812.406 196.969 812.23L197.092 813.479C193.594 814.059 189.779 814.094 186.896 814.094L186.668 812.705ZM196.617 803.125V804.461H187.002V803.125H190.992V801.279H192.662V803.125H196.617ZM191.783 806.553C190.465 806.553 189.533 807.203 189.551 808.205C189.533 809.207 190.465 809.822 191.783 809.822C193.137 809.822 194.068 809.207 194.068 808.205C194.068 807.203 193.137 806.553 191.783 806.553ZM207.27 802.369C209.766 802.352 211.541 803.898 211.559 806.113C211.541 808.328 209.766 809.875 207.27 809.875C204.791 809.875 202.963 808.328 202.98 806.113C202.963 803.898 204.791 802.352 207.27 802.369ZM207.27 803.811C205.74 803.811 204.615 804.725 204.633 806.113C204.615 807.502 205.74 808.416 207.27 808.416C208.799 808.416 209.924 807.502 209.924 806.113C209.924 804.725 208.799 803.811 207.27 803.811ZM215.162 801.244V817.029H213.492V801.244H215.162ZM202.225 812.248C205.09 812.248 209.062 812.213 212.508 811.721L212.631 812.934C209.062 813.619 205.248 813.637 202.436 813.637L202.225 812.248ZM234.463 801.227V805.938H236.748V807.344H234.463V812.811H232.793V801.227H234.463ZM235.131 815.307V816.66H224.479V811.598H226.148V815.307H235.131ZM226.518 802.316C228.891 802.316 230.701 803.934 230.719 806.236C230.701 808.521 228.891 810.156 226.518 810.156C224.145 810.156 222.316 808.521 222.334 806.236C222.316 803.934 224.145 802.316 226.518 802.316ZM226.518 803.775C225.076 803.775 223.951 804.777 223.969 806.236C223.951 807.695 225.076 808.697 226.518 808.697C227.977 808.697 229.084 807.695 229.084 806.236C229.084 804.777 227.977 803.775 226.518 803.775ZM250.775 801.262V812.863H249.105V807.396H245.836V806.008H249.105V801.262H250.775ZM245.941 802.439C245.924 806.553 243.094 809.646 238.576 811.105L237.873 809.77C241.38 808.636 243.762 806.491 244.113 803.828H238.682V802.439H245.941ZM251.18 815.307V816.66H240.633V811.668H242.32V815.307H251.18ZM258.58 802.773V815.5H256.629V804.707H256.559L253.518 806.693V804.848L256.682 802.773H258.58Z" fill="#18181B"/>
<rect x="273" y="780" width="980" height="58" rx="10" fill="#FAFAFA"/>
<path d="M306.338 802.12V815.245H304.946V802.12H306.338ZM295.557 811.671C296.633 811.664 297.871 811.656 299.16 811.612V810.309C297.622 810.111 296.626 809.21 296.641 807.921C296.626 806.441 297.915 805.46 299.819 805.46C301.738 805.46 303.057 806.441 303.057 807.921C303.057 809.195 302.061 810.089 300.537 810.294V811.568C301.753 811.517 302.983 811.422 304.141 811.275L304.243 812.315C301.328 812.799 298.149 812.828 295.747 812.828L295.557 811.671ZM303.848 803.688V804.801H295.835V803.688H299.16V802.149H300.552V803.688H303.848ZM299.819 806.544C298.721 806.544 297.944 807.086 297.959 807.921C297.944 808.756 298.721 809.269 299.819 809.269C300.947 809.269 301.724 808.756 301.724 807.921C301.724 807.086 300.947 806.544 299.819 806.544ZM312.725 803.058C314.805 803.043 316.284 804.332 316.299 806.178C316.284 808.023 314.805 809.312 312.725 809.312C310.659 809.312 309.136 808.023 309.15 806.178C309.136 804.332 310.659 803.043 312.725 803.058ZM312.725 804.259C311.45 804.259 310.513 805.021 310.527 806.178C310.513 807.335 311.45 808.097 312.725 808.097C313.999 808.097 314.937 807.335 314.937 806.178C314.937 805.021 313.999 804.259 312.725 804.259ZM319.302 802.12V815.274H317.91V802.12H319.302ZM308.521 811.29C310.908 811.29 314.219 811.261 317.09 810.851L317.192 811.861C314.219 812.433 311.04 812.447 308.696 812.447L308.521 811.29ZM335.386 802.105V806.031H337.29V807.203H335.386V811.759H333.994V802.105H335.386ZM335.942 813.839V814.967H327.065V810.748H328.457V813.839H335.942ZM328.765 803.014C330.742 803.014 332.251 804.361 332.266 806.28C332.251 808.185 330.742 809.547 328.765 809.547C326.787 809.547 325.264 808.185 325.278 806.28C325.264 804.361 326.787 803.014 328.765 803.014ZM328.765 804.229C327.563 804.229 326.626 805.064 326.641 806.28C326.626 807.496 327.563 808.331 328.765 808.331C329.98 808.331 330.903 807.496 330.903 806.28C330.903 805.064 329.98 804.229 328.765 804.229ZM348.979 802.135V811.803H347.588V807.247H344.863V806.09H347.588V802.135H348.979ZM344.951 803.116C344.937 806.544 342.578 809.122 338.813 810.338L338.228 809.225C341.15 808.28 343.135 806.493 343.428 804.273H338.901V803.116H344.951ZM349.316 813.839V814.967H340.527V810.807H341.934V813.839H349.316ZM356.978 802.34C359.937 802.34 361.665 803.131 361.665 804.596C361.665 806.061 359.937 806.866 356.978 806.866C354.019 806.866 352.29 806.061 352.29 804.596C352.29 803.131 354.019 802.34 356.978 802.34ZM356.978 803.365C354.883 803.365 353.726 803.819 353.74 804.596C353.726 805.401 354.883 805.826 356.978 805.826C359.072 805.826 360.229 805.401 360.229 804.596C360.229 803.819 359.072 803.365 356.978 803.365ZM362.969 807.672V808.785H351.001V807.672H362.969ZM361.46 809.796V812.872H353.813V814.044H361.826V815.113H352.451V811.861H360.083V810.836H352.437V809.796H361.46ZM372.212 804.479C372.212 806.148 373.369 807.745 375.376 808.419L374.673 809.503C373.186 808.99 372.095 807.965 371.523 806.676C370.952 808.097 369.817 809.21 368.271 809.752L367.524 808.668C369.575 807.965 370.806 806.28 370.82 804.464V804.112H367.935V802.984H375.039V804.112H372.212V804.479ZM377.939 802.12V805.489H379.844V806.661H377.939V810.03H376.548V802.12H377.939ZM377.939 810.675V815.245H376.548V811.803H369.268V810.675H377.939ZM385.249 804.083C385.249 805.929 386.436 807.569 388.428 808.214L387.666 809.298C386.223 808.778 385.161 807.767 384.59 806.456C384.019 807.958 382.876 809.122 381.294 809.693L380.547 808.58C382.642 807.862 383.857 806.119 383.872 804.142V802.853H385.249V804.083ZM391.533 802.12V809.869H390.142V805.929H387.373V804.786H390.142V802.12H391.533ZM387.139 810.235C389.893 810.235 391.577 811.144 391.577 812.74C391.577 814.322 389.893 815.23 387.139 815.216C384.385 815.23 382.686 814.322 382.7 812.74C382.686 811.144 384.385 810.235 387.139 810.235ZM387.139 811.319C385.22 811.319 384.077 811.832 384.077 812.74C384.077 813.619 385.22 814.117 387.139 814.117C389.058 814.117 390.2 813.619 390.2 812.74C390.2 811.832 389.058 811.319 387.139 811.319ZM400.044 804.288V805.416H393.525V804.288H396.104V802.501H397.48V804.288H400.044ZM396.792 806.207C398.462 806.207 399.634 807.452 399.648 809.225C399.634 811.012 398.462 812.271 396.792 812.271C395.151 812.271 393.936 811.012 393.95 809.225C393.936 807.452 395.151 806.207 396.792 806.207ZM396.792 807.364C395.84 807.364 395.181 808.141 395.181 809.225C395.181 810.338 395.84 811.085 396.792 811.085C397.729 811.085 398.418 810.338 398.418 809.225C398.418 808.141 397.729 807.364 396.792 807.364ZM404.79 802.12V815.245H403.472V808.727H401.963V814.63H400.645V802.413H401.963V807.584H403.472V802.12H404.79ZM418.486 809.518V810.646H413.154V815.23H411.792V810.646H406.519V809.518H418.486ZM417.358 802.896V804.01H413.301C413.323 805.636 415.344 807.086 417.827 807.423L417.314 808.521C415.161 808.185 413.301 807.123 412.51 805.621C411.697 807.123 409.844 808.185 407.72 808.521L407.192 807.423C409.646 807.086 411.667 805.636 411.719 804.01H407.632V802.896H417.358ZM423.481 805.709C423.481 807.804 424.36 810.045 426.118 811.114L425.342 812.184C424.111 811.444 423.276 810.133 422.837 808.609C422.346 810.279 421.445 811.7 420.171 812.477L419.307 811.437C421.167 810.323 422.134 808.009 422.134 805.768V803.321H423.481V805.709ZM430.776 802.12V815.245H429.443V802.12H430.776ZM428.052 802.369V814.601H426.733V807.892H424.697V806.734H426.733V802.369H428.052ZM444.458 812.447V813.604H432.446V812.447H435.317V809.02C434.241 808.426 433.589 807.481 433.589 806.31C433.589 804.244 435.61 802.882 438.423 802.882C441.25 802.882 443.271 804.244 443.271 806.31C443.271 807.467 442.642 808.397 441.587 808.99V812.447H444.458ZM438.423 803.995C436.357 803.995 434.937 804.889 434.937 806.31C434.937 807.716 436.357 808.639 438.423 808.639C440.474 808.639 441.924 807.716 441.924 806.31C441.924 804.889 440.474 803.995 438.423 803.995ZM436.694 812.447H440.181V809.518C439.646 809.657 439.053 809.723 438.423 809.723C437.808 809.723 437.222 809.657 436.694 809.532V812.447Z" fill="#71717A"/>
<path d="M198.605 884.244V899.994H196.936V884.244H198.605ZM185.668 895.705C186.96 895.696 188.445 895.688 189.992 895.635V894.07C188.146 893.833 186.951 892.752 186.969 891.205C186.951 889.43 188.498 888.252 190.783 888.252C193.086 888.252 194.668 889.43 194.668 891.205C194.668 892.734 193.473 893.807 191.645 894.053V895.582C193.104 895.521 194.58 895.406 195.969 895.23L196.092 896.479C192.594 897.059 188.779 897.094 185.896 897.094L185.668 895.705ZM195.617 886.125V887.461H186.002V886.125H189.992V884.279H191.662V886.125H195.617ZM190.783 889.553C189.465 889.553 188.533 890.203 188.551 891.205C188.533 892.207 189.465 892.822 190.783 892.822C192.137 892.822 193.068 892.207 193.068 891.205C193.068 890.203 192.137 889.553 190.783 889.553ZM206.27 885.369C208.766 885.352 210.541 886.898 210.559 889.113C210.541 891.328 208.766 892.875 206.27 892.875C203.791 892.875 201.963 891.328 201.98 889.113C201.963 886.898 203.791 885.352 206.27 885.369ZM206.27 886.811C204.74 886.811 203.615 887.725 203.633 889.113C203.615 890.502 204.74 891.416 206.27 891.416C207.799 891.416 208.924 890.502 208.924 889.113C208.924 887.725 207.799 886.811 206.27 886.811ZM214.162 884.244V900.029H212.492V884.244H214.162ZM201.225 895.248C204.09 895.248 208.062 895.213 211.508 894.721L211.631 895.934C208.062 896.619 204.248 896.637 201.436 896.637L201.225 895.248ZM233.463 884.227V888.938H235.748V890.344H233.463V895.811H231.793V884.227H233.463ZM234.131 898.307V899.66H223.479V894.598H225.148V898.307H234.131ZM225.518 885.316C227.891 885.316 229.701 886.934 229.719 889.236C229.701 891.521 227.891 893.156 225.518 893.156C223.145 893.156 221.316 891.521 221.334 889.236C221.316 886.934 223.145 885.316 225.518 885.316ZM225.518 886.775C224.076 886.775 222.951 887.777 222.969 889.236C222.951 890.695 224.076 891.697 225.518 891.697C226.977 891.697 228.084 890.695 228.084 889.236C228.084 887.777 226.977 886.775 225.518 886.775ZM249.775 884.262V895.863H248.105V890.396H244.836V889.008H248.105V884.262H249.775ZM244.941 885.439C244.924 889.553 242.094 892.646 237.576 894.105L236.873 892.77C240.38 891.636 242.762 889.491 243.113 886.828H237.682V885.439H244.941ZM250.18 898.307V899.66H239.633V894.668H241.32V898.307H250.18ZM252.746 898.5V897.094L257.158 892.646C258.547 891.188 259.25 890.379 259.25 889.271C259.25 888.023 258.23 887.215 256.895 887.215C255.488 887.215 254.574 888.111 254.574 889.465H252.746C252.729 887.145 254.504 885.598 256.93 885.598C259.391 885.598 261.078 887.145 261.096 889.219C261.078 890.643 260.41 891.768 258.02 894.123L255.436 896.742V896.848H261.307V898.5H252.746Z" fill="#18181B"/>
<rect x="274" y="863" width="980" height="58" rx="10" fill="#FAFAFA"/>
<path d="M307.338 885.12V898.245H305.946V885.12H307.338ZM296.557 894.671C297.633 894.664 298.871 894.656 300.16 894.612V893.309C298.622 893.111 297.626 892.21 297.641 890.921C297.626 889.441 298.915 888.46 300.819 888.46C302.738 888.46 304.057 889.441 304.057 890.921C304.057 892.195 303.061 893.089 301.537 893.294V894.568C302.753 894.517 303.983 894.422 305.141 894.275L305.243 895.315C302.328 895.799 299.149 895.828 296.747 895.828L296.557 894.671ZM304.848 886.688V887.801H296.835V886.688H300.16V885.149H301.552V886.688H304.848ZM300.819 889.544C299.721 889.544 298.944 890.086 298.959 890.921C298.944 891.756 299.721 892.269 300.819 892.269C301.947 892.269 302.724 891.756 302.724 890.921C302.724 890.086 301.947 889.544 300.819 889.544ZM313.725 886.058C315.805 886.043 317.284 887.332 317.299 889.178C317.284 891.023 315.805 892.312 313.725 892.312C311.659 892.312 310.136 891.023 310.15 889.178C310.136 887.332 311.659 886.043 313.725 886.058ZM313.725 887.259C312.45 887.259 311.513 888.021 311.527 889.178C311.513 890.335 312.45 891.097 313.725 891.097C314.999 891.097 315.937 890.335 315.937 889.178C315.937 888.021 314.999 887.259 313.725 887.259ZM320.302 885.12V898.274H318.91V885.12H320.302ZM309.521 894.29C311.908 894.29 315.219 894.261 318.09 893.851L318.192 894.861C315.219 895.433 312.04 895.447 309.696 895.447L309.521 894.29ZM336.386 885.105V889.031H338.29V890.203H336.386V894.759H334.994V885.105H336.386ZM336.942 896.839V897.967H328.065V893.748H329.457V896.839H336.942ZM329.765 886.014C331.742 886.014 333.251 887.361 333.266 889.28C333.251 891.185 331.742 892.547 329.765 892.547C327.787 892.547 326.264 891.185 326.278 889.28C326.264 887.361 327.787 886.014 329.765 886.014ZM329.765 887.229C328.563 887.229 327.626 888.064 327.641 889.28C327.626 890.496 328.563 891.331 329.765 891.331C330.98 891.331 331.903 890.496 331.903 889.28C331.903 888.064 330.98 887.229 329.765 887.229ZM349.979 885.135V894.803H348.588V890.247H345.863V889.09H348.588V885.135H349.979ZM345.951 886.116C345.937 889.544 343.578 892.122 339.813 893.338L339.228 892.225C342.15 891.28 344.135 889.493 344.428 887.273H339.901V886.116H345.951ZM350.316 896.839V897.967H341.527V893.807H342.934V896.839H350.316ZM357.978 885.34C360.937 885.34 362.665 886.131 362.665 887.596C362.665 889.061 360.937 889.866 357.978 889.866C355.019 889.866 353.29 889.061 353.29 887.596C353.29 886.131 355.019 885.34 357.978 885.34ZM357.978 886.365C355.883 886.365 354.726 886.819 354.74 887.596C354.726 888.401 355.883 888.826 357.978 888.826C360.072 888.826 361.229 888.401 361.229 887.596C361.229 886.819 360.072 886.365 357.978 886.365ZM363.969 890.672V891.785H352.001V890.672H363.969ZM362.46 892.796V895.872H354.813V897.044H362.826V898.113H353.451V894.861H361.083V893.836H353.437V892.796H362.46ZM373.212 887.479C373.212 889.148 374.369 890.745 376.376 891.419L375.673 892.503C374.186 891.99 373.095 890.965 372.523 889.676C371.952 891.097 370.817 892.21 369.271 892.752L368.524 891.668C370.575 890.965 371.806 889.28 371.82 887.464V887.112H368.935V885.984H376.039V887.112H373.212V887.479ZM378.939 885.12V888.489H380.844V889.661H378.939V893.03H377.548V885.12H378.939ZM378.939 893.675V898.245H377.548V894.803H370.268V893.675H378.939ZM386.249 887.083C386.249 888.929 387.436 890.569 389.428 891.214L388.666 892.298C387.223 891.778 386.161 890.767 385.59 889.456C385.019 890.958 383.876 892.122 382.294 892.693L381.547 891.58C383.642 890.862 384.857 889.119 384.872 887.142V885.853H386.249V887.083ZM392.533 885.12V892.869H391.142V888.929H388.373V887.786H391.142V885.12H392.533ZM388.139 893.235C390.893 893.235 392.577 894.144 392.577 895.74C392.577 897.322 390.893 898.23 388.139 898.216C385.385 898.23 383.686 897.322 383.7 895.74C383.686 894.144 385.385 893.235 388.139 893.235ZM388.139 894.319C386.22 894.319 385.077 894.832 385.077 895.74C385.077 896.619 386.22 897.117 388.139 897.117C390.058 897.117 391.2 896.619 391.2 895.74C391.2 894.832 390.058 894.319 388.139 894.319ZM401.044 887.288V888.416H394.525V887.288H397.104V885.501H398.48V887.288H401.044ZM397.792 889.207C399.462 889.207 400.634 890.452 400.648 892.225C400.634 894.012 399.462 895.271 397.792 895.271C396.151 895.271 394.936 894.012 394.95 892.225C394.936 890.452 396.151 889.207 397.792 889.207ZM397.792 890.364C396.84 890.364 396.181 891.141 396.181 892.225C396.181 893.338 396.84 894.085 397.792 894.085C398.729 894.085 399.418 893.338 399.418 892.225C399.418 891.141 398.729 890.364 397.792 890.364ZM405.79 885.12V898.245H404.472V891.727H402.963V897.63H401.645V885.413H402.963V890.584H404.472V885.12H405.79ZM419.486 892.518V893.646H414.154V898.23H412.792V893.646H407.519V892.518H419.486ZM418.358 885.896V887.01H414.301C414.323 888.636 416.344 890.086 418.827 890.423L418.314 891.521C416.161 891.185 414.301 890.123 413.51 888.621C412.697 890.123 410.844 891.185 408.72 891.521L408.192 890.423C410.646 890.086 412.667 888.636 412.719 887.01H408.632V885.896H418.358ZM424.481 888.709C424.481 890.804 425.36 893.045 427.118 894.114L426.342 895.184C425.111 894.444 424.276 893.133 423.837 891.609C423.346 893.279 422.445 894.7 421.171 895.477L420.307 894.437C422.167 893.323 423.134 891.009 423.134 888.768V886.321H424.481V888.709ZM431.776 885.12V898.245H430.443V885.12H431.776ZM429.052 885.369V897.601H427.733V890.892H425.697V889.734H427.733V885.369H429.052ZM445.458 895.447V896.604H433.446V895.447H436.317V892.02C435.241 891.426 434.589 890.481 434.589 889.31C434.589 887.244 436.61 885.882 439.423 885.882C442.25 885.882 444.271 887.244 444.271 889.31C444.271 890.467 443.642 891.397 442.587 891.99V895.447H445.458ZM439.423 886.995C437.357 886.995 435.937 887.889 435.937 889.31C435.937 890.716 437.357 891.639 439.423 891.639C441.474 891.639 442.924 890.716 442.924 889.31C442.924 887.889 441.474 886.995 439.423 886.995ZM437.694 895.447H441.181V892.518C440.646 892.657 440.053 892.723 439.423 892.723C438.808 892.723 438.222 892.657 437.694 892.532V895.447Z" fill="#71717A"/>
<path d="M192.1 530.996C192.1 532.824 193.523 534.512 195.932 535.197L195.158 536.498C193.339 535.962 191.994 534.854 191.291 533.422C190.605 535.004 189.226 536.226 187.354 536.797L186.545 535.496C188.953 534.793 190.447 532.982 190.447 530.996V530.838H187.02V529.502H190.447V527.674H192.117V529.502H195.527V530.838H192.1V530.996ZM198.955 527.744V531.646H201.24V533.035H198.955V537.043H197.285V527.744H198.955ZM198.955 537.746V543.301H188.9V537.746H198.955ZM190.535 539.064V541.947H197.303V539.064H190.535ZM214.881 529.256V530.803C214.881 532.754 214.881 534.934 214.283 538.15L212.596 537.975C213.211 534.934 213.211 532.701 213.211 530.803V530.609H203.648V529.256H214.881ZM216.498 539.979V541.367H202.137V539.979H207.604V534.424H209.256V539.979H216.498ZM227.572 532.385C227.572 534.881 229.207 537.658 231.598 538.783L230.648 540.084C228.882 539.231 227.484 537.456 226.781 535.391C226.052 537.649 224.575 539.592 222.773 540.488L221.789 539.17C224.18 538.027 225.92 535.057 225.92 532.385V530.715H222.369V529.326H231V530.715H227.572V532.385ZM234.357 527.744V533.984H236.889V535.391H234.357V543.494H232.688V527.744H234.357ZM252.059 540.207V541.613H237.645V540.207H241.582V537.43H239.402V532.42H248.648V530.223H239.367V528.852H250.301V533.773H241.055V536.059H250.67V537.43H248.279V540.207H252.059ZM243.199 540.207H246.645V537.43H243.199V540.207Z" fill="#18181B"/>
<rect x="273" y="508" width="858" height="86" rx="10" fill="#FAFAFA"/>
<path d="M330.48 537.649V538.777H325.119V543.23H323.757V538.777H318.469V537.649H330.48ZM328.972 530.823V535.979H319.978V530.823H328.972ZM321.34 531.937V534.896H327.58V531.937H321.34ZM342.712 530.12V543.245H341.379V530.12H342.712ZM340.046 530.398V542.586H338.728V535.906H336.691V534.764H338.728V530.398H340.046ZM335.402 533.782C335.402 536.023 336.311 538.265 338.156 539.334L337.321 540.359C336.069 539.612 335.205 538.287 334.758 536.697C334.282 538.411 333.388 539.869 332.106 540.667L331.257 539.627C333.117 538.499 334.069 536.111 334.069 533.782V532.728H331.652V531.6H337.658V532.728H335.402V533.782ZM348.894 531.395V542H347.268V533.006H347.209L344.675 534.661V533.123L347.312 531.395H348.894ZM352.028 542.103C351.457 542.103 350.974 541.634 350.988 541.062C350.974 540.491 351.457 540.022 352.028 540.022C352.585 540.022 353.068 540.491 353.068 541.062C353.068 541.634 352.585 542.103 352.028 542.103ZM354.958 544.988V534.046H356.481V535.335H356.613C356.892 534.837 357.434 533.943 358.898 533.943C360.817 533.943 362.238 535.452 362.238 538.045C362.238 540.608 360.847 542.161 358.913 542.161C357.463 542.161 356.892 541.282 356.613 540.755H356.525V544.988H354.958ZM356.496 538.016C356.496 539.686 357.229 540.828 358.562 540.828C359.938 540.828 360.656 539.612 360.656 538.016C360.656 536.448 359.953 535.276 358.562 535.276C357.214 535.276 356.496 536.36 356.496 538.016ZM366.765 542.161C364.846 542.161 363.439 540.608 363.439 538.045C363.439 535.452 364.86 533.943 366.779 533.943C368.259 533.943 368.801 534.837 369.079 535.335H369.152V531.395H370.72V542H369.196V540.755H369.079C368.786 541.282 368.215 542.161 366.765 542.161ZM367.116 540.828C368.449 540.828 369.196 539.686 369.196 538.016C369.196 536.36 368.464 535.276 367.116 535.276C365.725 535.276 365.036 536.448 365.036 538.016C365.036 539.612 365.754 540.828 367.116 540.828ZM376.55 534.046V535.291H374.836V542H373.269V535.291H372.038V534.046H373.269V533.123C373.269 531.702 374.177 530.896 375.642 530.896C376.022 530.896 376.403 530.94 376.711 530.999V532.303C376.418 532.259 376.198 532.244 376.052 532.244C375.217 532.244 374.836 532.581 374.836 533.357V534.046H376.55Z" fill="#18181B"/>
<path d="M318 544.351H377.019V545.486H318V544.351Z" fill="#18181B"/>
<path d="M324.401 566.367C327.243 566.367 329.03 567.261 329.045 568.799C329.03 570.322 327.243 571.23 324.401 571.216C321.589 571.23 319.787 570.322 319.787 568.799C319.787 567.261 321.589 566.367 324.401 566.367ZM324.401 567.422C322.409 567.422 321.164 567.935 321.179 568.799C321.164 569.648 322.409 570.146 324.401 570.146C326.408 570.146 327.653 569.648 327.668 568.799C327.653 567.935 326.408 567.422 324.401 567.422ZM328.942 558.765V559.863C328.942 560.918 328.942 562.002 328.576 563.35L327.214 563.203C327.565 561.863 327.565 560.896 327.565 559.878H319.89V558.765H328.942ZM330.437 564.155V565.283H318.498V564.155H323.288V561.694H324.65V564.155H330.437ZM343.444 565.532V566.675H340.397V571.245H338.991V566.675H335.856V571.245H334.421V566.675H331.433V565.532H343.444ZM337.409 558.618C340.178 558.618 342.082 559.746 342.082 561.519C342.082 563.262 340.178 564.375 337.409 564.36C334.626 564.375 332.736 563.262 332.736 561.519C332.736 559.746 334.626 558.618 337.409 558.618ZM337.409 559.731C335.461 559.746 334.157 560.42 334.172 561.519C334.157 562.588 335.461 563.262 337.409 563.262C339.357 563.262 340.661 562.588 340.661 561.519C340.661 560.42 339.357 559.746 337.409 559.731ZM348.981 561.987C348.981 564.067 350.344 566.382 352.336 567.319L351.545 568.403C350.073 567.693 348.908 566.213 348.322 564.492C347.714 566.375 346.484 567.993 344.982 568.74L344.162 567.642C346.154 566.689 347.604 564.214 347.604 561.987V560.596H344.646V559.438H351.838V560.596H348.981V561.987ZM354.636 558.12V563.32H356.745V564.492H354.636V571.245H353.244V558.12H354.636ZM369.387 568.506V569.678H357.375V568.506H360.656V566.191H358.84V562.017H366.545V560.186H358.811V559.043H367.922V563.145H360.217V565.049H368.229V566.191H366.237V568.506H369.387ZM362.004 568.506H364.875V566.191H362.004V568.506ZM374.821 559.395V570H373.195V561.006H373.137L370.603 562.661V561.123L373.239 559.395H374.821ZM377.956 570.103C377.385 570.103 376.901 569.634 376.916 569.062C376.901 568.491 377.385 568.022 377.956 568.022C378.513 568.022 378.996 568.491 378.996 569.062C378.996 569.634 378.513 570.103 377.956 570.103ZM380.886 572.988V562.046H382.409V563.335H382.541C382.819 562.837 383.361 561.943 384.826 561.943C386.745 561.943 388.166 563.452 388.166 566.045C388.166 568.608 386.774 570.161 384.841 570.161C383.391 570.161 382.819 569.282 382.541 568.755H382.453V572.988H380.886ZM382.424 566.016C382.424 567.686 383.156 568.828 384.489 568.828C385.866 568.828 386.584 567.612 386.584 566.016C386.584 564.448 385.881 563.276 384.489 563.276C383.142 563.276 382.424 564.36 382.424 566.016ZM392.692 570.161C390.773 570.161 389.367 568.608 389.367 566.045C389.367 563.452 390.788 561.943 392.707 561.943C394.187 561.943 394.729 562.837 395.007 563.335H395.08V559.395H396.647V570H395.124V568.755H395.007C394.714 569.282 394.143 570.161 392.692 570.161ZM393.044 568.828C394.377 568.828 395.124 567.686 395.124 566.016C395.124 564.36 394.392 563.276 393.044 563.276C391.652 563.276 390.964 564.448 390.964 566.016C390.964 567.612 391.682 568.828 393.044 568.828ZM402.478 562.046V563.291H400.764V570H399.196V563.291H397.966V562.046H399.196V561.123C399.196 559.702 400.104 558.896 401.569 558.896C401.95 558.896 402.331 558.94 402.639 558.999V560.303C402.346 560.259 402.126 560.244 401.979 560.244C401.145 560.244 400.764 560.581 400.764 561.357V562.046H402.478Z" fill="#18181B"/>
<path d="M318 572.351H402.946V573.486H318V572.351Z" fill="#18181B"/>
<g clip-path="url(#clip0_1004_6922)">
<path d="M309.25 532.807L308.193 531.75L304 535.943L299.807 531.75L298.75 532.807L302.943 537L298.75 541.193L299.807 542.25L304 538.057L308.193 542.25L309.25 541.193L305.057 537L309.25 532.807Z" fill="#18181B"/>
</g>
<g clip-path="url(#clip1_1004_6922)">
<path d="M309.25 560.807L308.193 559.75L304 563.943L299.807 559.75L298.75 560.807L302.943 565L298.75 569.193L299.807 570.25L304 566.057L308.193 570.25L309.25 569.193L305.057 565L309.25 560.807Z" fill="#18181B"/>
</g>
<rect x="1151" y="508" width="103" height="58" rx="10" fill="#D5D9DE"/>
<path d="M1187.17 531.147C1188.88 531.133 1190.23 532.122 1190.57 533.579H1192.96V530.562H1194.58V537.666H1192.96V534.897H1190.58C1190.25 536.384 1188.89 537.388 1187.17 537.388C1185.13 537.388 1183.67 536.084 1183.67 534.253C1183.67 532.451 1185.13 531.133 1187.17 531.147ZM1187.17 532.51C1186.03 532.51 1185.22 533.184 1185.22 534.253C1185.22 535.308 1186.03 536.011 1187.17 536.011C1188.28 536.011 1189.07 535.308 1189.09 534.253C1189.07 533.184 1188.28 532.51 1187.17 532.51ZM1187.46 538.281V539.688H1192.96V538.281H1194.58V543.643H1185.85V538.281H1187.46ZM1187.46 542.324H1192.96V540.947H1187.46V542.324ZM1208.56 540.918V542.266H1196.46V540.918H1201.67V538.765H1197.89V534.429H1205.51V532.788H1197.86V531.47H1207.12V535.718H1199.52V537.432H1207.43V538.765H1203.28V540.918H1208.56ZM1220.17 536.772V538.076H1210.89V531.719H1220.07V533.037H1212.5V536.772H1220.17ZM1221.52 540.771V542.119H1209.42V540.771H1221.52Z" fill="#696969"/>
<path d="M192.1 448.996C192.1 450.824 193.523 452.512 195.932 453.197L195.158 454.498C193.339 453.962 191.994 452.854 191.291 451.422C190.605 453.004 189.226 454.226 187.354 454.797L186.545 453.496C188.953 452.793 190.447 450.982 190.447 448.996V448.838H187.02V447.502H190.447V445.674H192.117V447.502H195.527V448.838H192.1V448.996ZM198.955 445.744V449.646H201.24V451.035H198.955V455.043H197.285V445.744H198.955ZM198.955 455.746V461.301H188.9V455.746H198.955ZM190.535 457.064V459.947H197.303V457.064H190.535ZM206.408 446.922C207.841 446.922 209.027 447.748 209.73 449.172H213.615V445.744H215.268V461.529H213.615V455.482H209.836C209.159 457.064 207.92 457.979 206.408 457.979C204.053 457.979 202.4 455.834 202.418 452.441C202.4 449.066 204.053 446.922 206.408 446.922ZM206.408 448.416C204.984 448.416 204 449.963 204 452.441C204 454.938 204.984 456.484 206.408 456.484C207.832 456.484 208.816 454.938 208.816 452.441C208.816 449.963 207.832 448.416 206.408 448.416ZM210.205 450.543C210.319 451.123 210.398 451.756 210.398 452.441C210.398 453.039 210.346 453.593 210.24 454.111H213.615V450.543H210.205ZM223.178 450.385C223.178 452.881 224.812 455.658 227.203 456.783L226.254 458.084C224.487 457.231 223.09 455.456 222.387 453.391C221.657 455.649 220.181 457.592 218.379 458.488L217.395 457.17C219.785 456.027 221.525 453.057 221.525 450.385V448.715H217.975V447.326H226.605V448.715H223.178V450.385ZM229.963 445.744V451.984H232.494V453.391H229.963V461.494H228.293V445.744H229.963Z" fill="#18181B"/>
<rect x="273" y="425" width="415" height="58" rx="10" fill="#FAFAFA"/>
<path d="M300.083 449.83C300.083 451.354 301.27 452.76 303.276 453.331L302.632 454.415C301.116 453.968 299.995 453.045 299.409 451.852C298.838 453.17 297.688 454.188 296.128 454.664L295.454 453.58C297.461 452.994 298.706 451.485 298.706 449.83V449.698H295.85V448.585H298.706V447.062H300.098V448.585H302.939V449.698H300.083V449.83ZM305.796 447.12V450.372H307.7V451.529H305.796V454.869H304.404V447.12H305.796ZM305.796 455.455V460.084H297.417V455.455H305.796ZM298.779 456.554V458.956H304.419V456.554H298.779ZM312.007 448.102C313.201 448.102 314.189 448.79 314.775 449.977H318.013V447.12H319.39V460.274H318.013V455.235H314.863C314.299 456.554 313.267 457.315 312.007 457.315C310.044 457.315 308.667 455.528 308.682 452.701C308.667 449.889 310.044 448.102 312.007 448.102ZM312.007 449.347C310.82 449.347 310 450.636 310 452.701C310 454.781 310.82 456.07 312.007 456.07C313.193 456.07 314.014 454.781 314.014 452.701C314.014 450.636 313.193 449.347 312.007 449.347ZM315.171 451.119C315.266 451.603 315.332 452.13 315.332 452.701C315.332 453.199 315.288 453.661 315.2 454.093H318.013V451.119H315.171ZM325.981 450.987C325.981 453.067 327.344 455.382 329.336 456.319L328.545 457.403C327.073 456.693 325.908 455.213 325.322 453.492C324.714 455.375 323.484 456.993 321.982 457.74L321.162 456.642C323.154 455.689 324.604 453.214 324.604 450.987V449.596H321.646V448.438H328.838V449.596H325.981V450.987ZM331.636 447.12V452.32H333.745V453.492H331.636V460.245H330.244V447.12H331.636ZM346.372 453.141V454.21H334.36V453.141H346.372ZM344.893 455.133V458.019H337.188V459.103H345.303V460.084H335.796V457.096H343.516V456.129H335.781V455.133H344.893ZM344.863 447.457V450.299H337.275V451.295H345.083V452.276H335.898V449.376H343.472V448.438H335.869V447.457H344.863ZM361.885 447.12V454.166H360.493V447.12H361.885ZM354.663 454.796V456.275H360.508V454.796H361.885V460.084H353.301V454.796H354.663ZM354.663 458.941H360.508V457.374H354.663V458.941ZM354.766 447.721C356.772 447.721 358.252 448.966 358.252 450.768C358.252 452.569 356.772 453.814 354.766 453.8C352.759 453.814 351.265 452.569 351.265 450.768C351.265 448.966 352.759 447.721 354.766 447.721ZM354.766 448.893C353.521 448.878 352.627 449.654 352.627 450.768C352.627 451.896 353.521 452.657 354.766 452.657C355.996 452.657 356.89 451.896 356.89 450.768C356.89 449.654 355.996 448.878 354.766 448.893ZM370.22 447.911V451.734H365.884V453.551C368.169 453.558 369.414 453.507 370.894 453.229L371.025 454.356C369.429 454.635 368.081 454.679 365.459 454.679H364.507V450.68H368.828V449.024H364.492V447.911H370.22ZM374.907 447.135V455.206H373.516V452.892H371.055V451.778H373.516V450.152H371.055V449.039H373.516V447.135H374.907ZM374.907 455.865V460.26H373.516V456.993H366.001V455.865H374.907ZM383.418 449.288V450.416H376.899V449.288H379.478V447.501H380.854V449.288H383.418ZM380.166 451.207C381.836 451.207 383.008 452.452 383.022 454.225C383.008 456.012 381.836 457.271 380.166 457.271C378.525 457.271 377.31 456.012 377.324 454.225C377.31 452.452 378.525 451.207 380.166 451.207ZM380.166 452.364C379.214 452.364 378.555 453.141 378.555 454.225C378.555 455.338 379.214 456.085 380.166 456.085C381.104 456.085 381.792 455.338 381.792 454.225C381.792 453.141 381.104 452.364 380.166 452.364ZM388.164 447.12V460.245H386.846V453.727H385.337V459.63H384.019V447.413H385.337V452.584H386.846V447.12H388.164ZM401.86 454.518V455.646H396.528V460.23H395.166V455.646H389.893V454.518H401.86ZM400.732 447.896V449.01H396.675C396.697 450.636 398.718 452.086 401.201 452.423L400.688 453.521C398.535 453.185 396.675 452.123 395.884 450.621C395.071 452.123 393.218 453.185 391.094 453.521L390.566 452.423C393.02 452.086 395.042 450.636 395.093 449.01H391.006V447.896H400.732ZM406.855 450.709C406.855 452.804 407.734 455.045 409.492 456.114L408.716 457.184C407.485 456.444 406.65 455.133 406.211 453.609C405.72 455.279 404.819 456.7 403.545 457.477L402.681 456.437C404.541 455.323 405.508 453.009 405.508 450.768V448.321H406.855V450.709ZM414.15 447.12V460.245H412.817V447.12H414.15ZM411.426 447.369V459.601H410.107V452.892H408.071V451.734H410.107V447.369H411.426ZM427.832 457.447V458.604H415.82V457.447H418.691V454.02C417.615 453.426 416.963 452.481 416.963 451.31C416.963 449.244 418.984 447.882 421.797 447.882C424.624 447.882 426.646 449.244 426.646 451.31C426.646 452.467 426.016 453.397 424.961 453.99V457.447H427.832ZM421.797 448.995C419.731 448.995 418.311 449.889 418.311 451.31C418.311 452.716 419.731 453.639 421.797 453.639C423.848 453.639 425.298 452.716 425.298 451.31C425.298 449.889 423.848 448.995 421.797 448.995ZM420.068 457.447H423.555V454.518C423.02 454.657 422.427 454.723 421.797 454.723C421.182 454.723 420.596 454.657 420.068 454.532V457.447Z" fill="#71717A"/>
<path d="M777.676 445.744V461.494H775.988V445.744H777.676ZM772.982 447.432C772.982 452.037 771.014 456.045 765.617 458.629L764.738 457.275C768.931 455.28 770.97 452.441 771.295 448.768H765.494V447.432H772.982ZM794.533 454.34V455.693H780.119V454.34H786.5V452.846H781.965V448.838H791.053V447.432H781.93V446.113H792.723V450.068H783.617V451.545H793.039V452.846H788.152V454.34H794.533ZM792.811 456.801V461.371H791.123V458.137H781.736V456.801H792.811ZM801.178 450.385C801.178 452.881 802.812 455.658 805.203 456.783L804.254 458.084C802.487 457.231 801.09 455.456 800.387 453.391C799.657 455.649 798.181 457.592 796.379 458.488L795.395 457.17C797.785 456.027 799.525 453.057 799.525 450.385V448.715H795.975V447.326H804.605V448.715H801.178V450.385ZM807.963 445.744V451.984H810.494V453.391H807.963V461.494H806.293V445.744H807.963Z" fill="#18181B"/>
<rect x="834" y="425" width="419" height="58" rx="10" fill="#FAFAFA"/>
<path d="M867.396 447.12V460.245H865.99V447.12H867.396ZM863.485 448.526C863.485 452.364 861.845 455.704 857.348 457.857L856.615 456.729C860.109 455.067 861.808 452.701 862.079 449.64H857.245V448.526H863.485ZM881.444 454.283V455.411H869.433V454.283H874.75V453.038H870.971V449.698H878.544V448.526H870.941V447.428H879.936V450.724H872.348V451.954H880.199V453.038H876.127V454.283H881.444ZM880.009 456.334V460.143H878.603V457.447H870.78V456.334H880.009ZM886.981 450.987C886.981 453.067 888.344 455.382 890.336 456.319L889.545 457.403C888.073 456.693 886.908 455.213 886.322 453.492C885.714 455.375 884.484 456.993 882.982 457.74L882.162 456.642C884.154 455.689 885.604 453.214 885.604 450.987V449.596H882.646V448.438H889.838V449.596H886.981V450.987ZM892.636 447.12V452.32H894.745V453.492H892.636V460.245H891.244V447.12H892.636ZM907.372 453.141V454.21H895.36V453.141H907.372ZM905.893 455.133V458.019H898.188V459.103H906.303V460.084H896.796V457.096H904.516V456.129H896.781V455.133H905.893ZM905.863 447.457V450.299H898.275V451.295H906.083V452.276H896.898V449.376H904.472V448.438H896.869V447.457H905.863ZM922.885 447.12V454.166H921.493V447.12H922.885ZM915.663 454.796V456.275H921.508V454.796H922.885V460.084H914.301V454.796H915.663ZM915.663 458.941H921.508V457.374H915.663V458.941ZM915.766 447.721C917.772 447.721 919.252 448.966 919.252 450.768C919.252 452.569 917.772 453.814 915.766 453.8C913.759 453.814 912.265 452.569 912.265 450.768C912.265 448.966 913.759 447.721 915.766 447.721ZM915.766 448.893C914.521 448.878 913.627 449.654 913.627 450.768C913.627 451.896 914.521 452.657 915.766 452.657C916.996 452.657 917.89 451.896 917.89 450.768C917.89 449.654 916.996 448.878 915.766 448.893ZM931.22 447.911V451.734H926.884V453.551C929.169 453.558 930.414 453.507 931.894 453.229L932.025 454.356C930.429 454.635 929.081 454.679 926.459 454.679H925.507V450.68H929.828V449.024H925.492V447.911H931.22ZM935.907 447.135V455.206H934.516V452.892H932.055V451.778H934.516V450.152H932.055V449.039H934.516V447.135H935.907ZM935.907 455.865V460.26H934.516V456.993H927.001V455.865H935.907ZM944.418 449.288V450.416H937.899V449.288H940.478V447.501H941.854V449.288H944.418ZM941.166 451.207C942.836 451.207 944.008 452.452 944.022 454.225C944.008 456.012 942.836 457.271 941.166 457.271C939.525 457.271 938.31 456.012 938.324 454.225C938.31 452.452 939.525 451.207 941.166 451.207ZM941.166 452.364C940.214 452.364 939.555 453.141 939.555 454.225C939.555 455.338 940.214 456.085 941.166 456.085C942.104 456.085 942.792 455.338 942.792 454.225C942.792 453.141 942.104 452.364 941.166 452.364ZM949.164 447.12V460.245H947.846V453.727H946.337V459.63H945.019V447.413H946.337V452.584H947.846V447.12H949.164ZM962.86 454.518V455.646H957.528V460.23H956.166V455.646H950.893V454.518H962.86ZM961.732 447.896V449.01H957.675C957.697 450.636 959.718 452.086 962.201 452.423L961.688 453.521C959.535 453.185 957.675 452.123 956.884 450.621C956.071 452.123 954.218 453.185 952.094 453.521L951.566 452.423C954.02 452.086 956.042 450.636 956.093 449.01H952.006V447.896H961.732ZM967.855 450.709C967.855 452.804 968.734 455.045 970.492 456.114L969.716 457.184C968.485 456.444 967.65 455.133 967.211 453.609C966.72 455.279 965.819 456.7 964.545 457.477L963.681 456.437C965.541 455.323 966.508 453.009 966.508 450.768V448.321H967.855V450.709ZM975.15 447.12V460.245H973.817V447.12H975.15ZM972.426 447.369V459.601H971.107V452.892H969.071V451.734H971.107V447.369H972.426ZM988.832 457.447V458.604H976.82V457.447H979.691V454.02C978.615 453.426 977.963 452.481 977.963 451.31C977.963 449.244 979.984 447.882 982.797 447.882C985.624 447.882 987.646 449.244 987.646 451.31C987.646 452.467 987.016 453.397 985.961 453.99V457.447H988.832ZM982.797 448.995C980.731 448.995 979.311 449.889 979.311 451.31C979.311 452.716 980.731 453.639 982.797 453.639C984.848 453.639 986.298 452.716 986.298 451.31C986.298 449.889 984.848 448.995 982.797 448.995ZM981.068 457.447H984.555V454.518C984.02 454.657 983.427 454.723 982.797 454.723C982.182 454.723 981.596 454.657 981.068 454.532V457.447Z" fill="#71717A"/>
<path d="M199.605 362.744V378.494H197.936V362.744H199.605ZM186.668 374.205C187.96 374.196 189.445 374.188 190.992 374.135V372.57C189.146 372.333 187.951 371.252 187.969 369.705C187.951 367.93 189.498 366.752 191.783 366.752C194.086 366.752 195.668 367.93 195.668 369.705C195.668 371.234 194.473 372.307 192.645 372.553V374.082C194.104 374.021 195.58 373.906 196.969 373.73L197.092 374.979C193.594 375.559 189.779 375.594 186.896 375.594L186.668 374.205ZM196.617 364.625V365.961H187.002V364.625H190.992V362.779H192.662V364.625H196.617ZM191.783 368.053C190.465 368.053 189.533 368.703 189.551 369.705C189.533 370.707 190.465 371.322 191.783 371.322C193.137 371.322 194.068 370.707 194.068 369.705C194.068 368.703 193.137 368.053 191.783 368.053ZM207.27 363.869C209.766 363.852 211.541 365.398 211.559 367.613C211.541 369.828 209.766 371.375 207.27 371.375C204.791 371.375 202.963 369.828 202.98 367.613C202.963 365.398 204.791 363.852 207.27 363.869ZM207.27 365.311C205.74 365.311 204.615 366.225 204.633 367.613C204.615 369.002 205.74 369.916 207.27 369.916C208.799 369.916 209.924 369.002 209.924 367.613C209.924 366.225 208.799 365.311 207.27 365.311ZM215.162 362.744V378.529H213.492V362.744H215.162ZM202.225 373.748C205.09 373.748 209.062 373.713 212.508 373.221L212.631 374.434C209.062 375.119 205.248 375.137 202.436 375.137L202.225 373.748ZM234.463 362.744V365.908H236.748V367.314H234.463V370.637H232.793V362.744H234.463ZM224.479 363.447V368.58C226.597 368.562 228.829 368.396 231.246 367.912L231.457 369.301C228.803 369.828 226.412 369.986 224.092 369.986H222.809V363.447H224.479ZM234.463 371.357V375.365H225.973V376.947H235.008V378.301H224.32V374.082H232.793V372.676H224.285V371.357H234.463ZM250.336 362.744V368.896H252.41V370.303H250.336V378.494H248.666V362.744H250.336ZM241.371 367.209C241.371 368.976 241.582 371.393 242.812 373.098C243.981 371.428 244.219 369.037 244.236 367.209V365.627H243.111V364.273H247.506V365.627H245.818V367.209C245.818 369.635 246.275 372.518 248.244 373.959L247.172 375.172C246.047 374.302 245.388 372.922 245.01 371.357C244.649 372.957 243.981 374.416 242.795 375.312C241.626 374.425 240.958 372.957 240.598 371.375C240.202 372.922 239.543 374.311 238.436 375.172L237.363 373.959C239.314 372.5 239.789 369.564 239.789 367.209V365.627H237.908V364.273H242.479V365.627H241.371V367.209Z" fill="#18181B"/>
<rect x="273" y="342" width="415" height="58" rx="10" fill="#FAFAFA"/>
<path d="M295.938 376V374.828L299.614 371.122C300.771 369.906 301.357 369.232 301.357 368.31C301.357 367.27 300.508 366.596 299.395 366.596C298.223 366.596 297.461 367.343 297.461 368.471H295.938C295.923 366.537 297.402 365.248 299.424 365.248C301.475 365.248 302.881 366.537 302.896 368.266C302.881 369.452 302.324 370.39 300.332 372.353L298.179 374.535V374.623H303.071V376H295.938ZM308.55 376.146C306.089 376.146 304.653 374.169 304.653 370.697C304.653 367.255 306.118 365.248 308.55 365.248C310.981 365.248 312.446 367.255 312.446 370.697C312.446 374.169 310.996 376.146 308.55 376.146ZM308.55 374.755C309.985 374.755 310.835 373.349 310.835 370.697C310.835 368.061 309.971 366.61 308.55 366.61C307.129 366.61 306.265 368.061 306.265 370.697C306.265 373.349 307.114 374.755 308.55 374.755ZM314.116 376V374.828L317.793 371.122C318.95 369.906 319.536 369.232 319.536 368.31C319.536 367.27 318.687 366.596 317.573 366.596C316.401 366.596 315.64 367.343 315.64 368.471H314.116C314.102 366.537 315.581 365.248 317.603 365.248C319.653 365.248 321.06 366.537 321.074 368.266C321.06 369.452 320.503 370.39 318.511 372.353L316.357 374.535V374.623H321.25V376H314.116ZM326.641 376.146C324.634 376.146 323.125 374.916 323.052 373.231H324.619C324.707 374.14 325.571 374.799 326.641 374.799C327.93 374.799 328.853 373.861 328.853 372.602C328.853 371.312 327.9 370.375 326.567 370.36C325.718 370.36 325.073 370.639 324.707 371.298H323.184L323.872 365.395H329.878V366.771H325.205L324.854 369.745H324.956C325.396 369.32 326.143 369.027 326.948 369.027C328.94 369.027 330.42 370.507 330.42 372.558C330.42 374.652 328.853 376.146 326.641 376.146ZM332.793 376.103C332.222 376.103 331.738 375.634 331.753 375.062C331.738 374.491 332.222 374.022 332.793 374.022C333.35 374.022 333.833 374.491 333.833 375.062C333.833 375.634 333.35 376.103 332.793 376.103ZM339.004 376.146C336.543 376.146 335.107 374.169 335.107 370.697C335.107 367.255 336.572 365.248 339.004 365.248C341.436 365.248 342.9 367.255 342.9 370.697C342.9 374.169 341.45 376.146 339.004 376.146ZM339.004 374.755C340.439 374.755 341.289 373.349 341.289 370.697C341.289 368.061 340.425 366.61 339.004 366.61C337.583 366.61 336.719 368.061 336.719 370.697C336.719 373.349 337.568 374.755 339.004 374.755ZM344.644 376L349.375 366.859V366.771H343.911V365.395H351.045V366.83L346.328 376H344.644ZM351.88 376.103C351.309 376.103 350.825 375.634 350.84 375.062C350.825 374.491 351.309 374.022 351.88 374.022C352.437 374.022 352.92 374.491 352.92 375.062C352.92 375.634 352.437 376.103 351.88 376.103ZM358.091 376.146C355.63 376.146 354.194 374.169 354.194 370.697C354.194 367.255 355.659 365.248 358.091 365.248C360.522 365.248 361.987 367.255 361.987 370.697C361.987 374.169 360.537 376.146 358.091 376.146ZM358.091 374.755C359.526 374.755 360.376 373.349 360.376 370.697C360.376 368.061 359.512 366.61 358.091 366.61C356.67 366.61 355.806 368.061 355.806 370.697C355.806 373.349 356.655 374.755 358.091 374.755ZM363.73 376L368.462 366.859V366.771H362.998V365.395H370.132V366.83L365.415 376H363.73Z" fill="#71717A"/>
<g clip-path="url(#clip2_1004_6922)">
<path d="M663 364.25H662.25V362.75H660.75V364.25H653.25V362.75H651.75V364.25H651C650.175 364.25 649.5 364.925 649.5 365.75V377.75C649.5 378.575 650.175 379.25 651 379.25H663C663.825 379.25 664.5 378.575 664.5 377.75V365.75C664.5 364.925 663.825 364.25 663 364.25ZM663 377.75H651V369.5H663V377.75ZM663 368H651V365.75H663V368Z" fill="#71717A"/>
</g>
<path d="M770.363 366.752C770.346 369.635 772.086 372.518 774.529 373.607L773.527 374.926C771.717 374.064 770.284 372.298 769.555 370.145C768.816 372.447 767.366 374.354 765.477 375.277L764.457 373.871C766.936 372.764 768.676 369.758 768.676 366.752V364.062H770.363V366.752ZM777.623 362.744V378.529H775.953V362.744H777.623ZM792.512 362.744V367.402H794.797V368.791H792.512V374.188H790.824V362.744H792.512ZM788.24 363.939C788.24 368.07 785.428 371.076 780.822 372.465L780.119 371.129C783.802 370.021 786.096 367.93 786.43 365.328H780.787V363.939H788.24ZM793.162 376.807V378.16H782.51V373.01H784.197V376.807H793.162Z" fill="#18181B"/>
<rect x="833" y="342" width="421" height="58" rx="10" fill="#FAFAFA"/>
<path d="M856.084 376V365.395H859.863C862.324 365.395 863.54 366.874 863.54 368.837C863.54 370.785 862.324 372.279 859.863 372.279H857.695V376H856.084ZM857.695 370.902H859.702C861.27 370.902 861.914 370.023 861.914 368.837C861.914 367.636 861.27 366.771 859.702 366.771H857.695V370.902ZM865.239 365.395H867.202L870.557 373.612H870.688L874.043 365.395H876.006V376H874.468V368.339H874.365L871.26 375.985H869.985L866.865 368.324H866.777V376H865.239V365.395ZM885.718 365.395V376H884.092V367.006H884.033L881.499 368.661V367.123L884.136 365.395H885.718ZM888.413 376V374.828L892.09 371.122C893.247 369.906 893.833 369.232 893.833 368.31C893.833 367.27 892.983 366.596 891.87 366.596C890.698 366.596 889.937 367.343 889.937 368.471H888.413C888.398 366.537 889.878 365.248 891.899 365.248C893.95 365.248 895.356 366.537 895.371 368.266C895.356 369.452 894.8 370.39 892.808 372.353L890.654 374.535V374.623H895.547V376H888.413ZM898.374 374.638C897.803 374.638 897.319 374.169 897.334 373.598C897.319 373.026 897.803 372.558 898.374 372.558C898.931 372.558 899.414 373.026 899.414 373.598C899.414 374.169 898.931 374.638 898.374 374.638ZM898.374 368.852C897.803 368.852 897.319 368.383 897.334 367.812C897.319 367.24 897.803 366.771 898.374 366.771C898.931 366.771 899.414 367.24 899.414 367.812C899.414 368.383 898.931 368.852 898.374 368.852ZM905.054 376.146C902.856 376.146 901.289 374.96 901.23 373.231H902.871C902.93 374.169 903.853 374.755 905.039 374.755C906.313 374.755 907.251 374.052 907.251 373.026C907.251 371.986 906.372 371.225 904.863 371.225H903.955V369.906H904.863C906.064 369.906 906.914 369.232 906.914 368.222C906.914 367.255 906.196 366.596 905.068 366.596C903.999 366.596 903.062 367.182 903.018 368.148H901.465C901.509 366.42 903.105 365.248 905.083 365.248C907.163 365.248 908.481 366.566 908.467 368.134C908.481 369.335 907.734 370.214 906.592 370.492V370.565C908.042 370.771 908.877 371.737 908.877 373.085C908.877 374.857 907.251 376.146 905.054 376.146ZM914.341 376.146C911.88 376.146 910.444 374.169 910.444 370.697C910.444 367.255 911.909 365.248 914.341 365.248C916.772 365.248 918.237 367.255 918.237 370.697C918.237 374.169 916.787 376.146 914.341 376.146ZM914.341 374.755C915.776 374.755 916.626 373.349 916.626 370.697C916.626 368.061 915.762 366.61 914.341 366.61C912.92 366.61 912.056 368.061 912.056 370.697C912.056 373.349 912.905 374.755 914.341 374.755ZM924.038 370.419C924.521 369.877 925.122 369.599 925.781 369.599C926.924 369.599 927.935 370.434 929.048 370.434C929.722 370.434 930.308 370.141 930.762 369.555V370.961C930.264 371.503 929.678 371.781 929.019 371.781C927.876 371.781 926.851 370.946 925.737 370.946C925.078 370.946 924.507 371.239 924.038 371.825V370.419ZM940.796 365.395V376H939.17V367.006H939.111L936.577 368.661V367.123L939.214 365.395H940.796ZM947.095 376.146C945.088 376.146 943.579 374.916 943.506 373.231H945.073C945.161 374.14 946.025 374.799 947.095 374.799C948.384 374.799 949.307 373.861 949.307 372.602C949.307 371.312 948.354 370.375 947.021 370.36C946.172 370.36 945.527 370.639 945.161 371.298H943.638L944.326 365.395H950.332V366.771H945.659L945.308 369.745H945.41C945.85 369.32 946.597 369.027 947.402 369.027C949.395 369.027 950.874 370.507 950.874 372.558C950.874 374.652 949.307 376.146 947.095 376.146ZM953.628 374.638C953.057 374.638 952.573 374.169 952.588 373.598C952.573 373.026 953.057 372.558 953.628 372.558C954.185 372.558 954.668 373.026 954.668 373.598C954.668 374.169 954.185 374.638 953.628 374.638ZM953.628 368.852C953.057 368.852 952.573 368.383 952.588 367.812C952.573 367.24 953.057 366.771 953.628 366.771C954.185 366.771 954.668 367.24 954.668 367.812C954.668 368.383 954.185 368.852 953.628 368.852ZM960.146 376.146C958.14 376.146 956.631 374.916 956.558 373.231H958.125C958.213 374.14 959.077 374.799 960.146 374.799C961.436 374.799 962.358 373.861 962.358 372.602C962.358 371.312 961.406 370.375 960.073 370.36C959.224 370.36 958.579 370.639 958.213 371.298H956.689L957.378 365.395H963.384V366.771H958.711L958.359 369.745H958.462C958.901 369.32 959.648 369.027 960.454 369.027C962.446 369.027 963.926 370.507 963.926 372.558C963.926 374.652 962.358 376.146 960.146 376.146ZM969.331 376.146C966.87 376.146 965.435 374.169 965.435 370.697C965.435 367.255 966.899 365.248 969.331 365.248C971.763 365.248 973.228 367.255 973.228 370.697C973.228 374.169 971.777 376.146 969.331 376.146ZM969.331 374.755C970.767 374.755 971.616 373.349 971.616 370.697C971.616 368.061 970.752 366.61 969.331 366.61C967.91 366.61 967.046 368.061 967.046 370.697C967.046 373.349 967.896 374.755 969.331 374.755Z" fill="#71717A"/>
<g clip-path="url(#clip3_1004_6922)">
<path d="M1217.99 362.667C1213.39 362.667 1209.67 366.4 1209.67 371C1209.67 375.6 1213.39 379.334 1217.99 379.334C1222.6 379.334 1226.33 375.6 1226.33 371C1226.33 366.4 1222.6 362.667 1217.99 362.667ZM1218 377.667C1214.32 377.667 1211.33 374.684 1211.33 371C1211.33 367.317 1214.32 364.334 1218 364.334C1221.68 364.334 1224.67 367.317 1224.67 371C1224.67 374.684 1221.68 377.667 1218 377.667ZM1218.42 366.834H1217.17V371.834L1221.54 374.459L1222.17 373.434L1218.42 371.209V366.834Z" fill="#71717A"/>
</g>
<path d="M201.469 202.023V219.797H198.988V202.023H201.469ZM186.605 214.777C187.963 214.768 189.516 214.768 191.137 214.719V213.215C189.184 212.873 187.914 211.662 187.934 209.992C187.914 208 189.73 206.652 192.348 206.652C194.984 206.652 196.82 208 196.82 209.992C196.82 211.652 195.551 212.863 193.598 213.215V214.641C195.082 214.572 196.586 214.455 198.012 214.27L198.188 216.105C194.301 216.77 190.102 216.809 186.938 216.809L186.605 214.777ZM197.758 203.996V205.949H186.957V203.996H191.137V202.102H193.617V203.996H197.758ZM192.348 208.547C191.137 208.547 190.277 209.074 190.297 209.992C190.277 210.93 191.137 211.438 192.348 211.438C193.598 211.438 194.438 210.93 194.438 209.992C194.438 209.074 193.598 208.547 192.348 208.547ZM209.504 203.215C212.317 203.195 214.426 205.031 214.426 207.57C214.426 210.129 212.317 211.945 209.504 211.945C206.692 211.945 204.563 210.129 204.563 207.57C204.563 205.031 206.692 203.195 209.504 203.215ZM209.504 205.363C208.098 205.363 207.024 206.184 207.043 207.57C207.024 208.977 208.098 209.777 209.504 209.777C210.91 209.777 211.985 208.977 212.004 207.57C211.985 206.184 210.93 205.363 209.504 205.363ZM218.684 202.023V219.836H216.203V202.023H218.684ZM203.821 214.172C206.985 214.191 211.379 214.133 215.188 213.605L215.383 215.402C211.438 216.164 207.219 216.203 204.114 216.203L203.821 214.172ZM239.657 202.727V208.977H234.833V210.676H241.708V212.688H225.497V210.676H232.333V208.977H227.509V202.727H239.657ZM229.95 204.66V207.023H237.216V204.66H229.95ZM239.735 213.996V219.797H237.255V215.949H227.294V213.996H239.735ZM258.982 215.832V217.824H242.712V215.832H246.755V212.453H244.06V210.441H246.443V205.441H243.982V203.449H257.615V205.441H255.115V210.441H257.536V212.453H254.861V215.832H258.982ZM248.943 210.441H252.654V205.441H248.943V210.441ZM249.255 215.832H252.361V212.453H249.255V215.832Z" fill="#18181B"/>
<path d="M261 230.5H262.5V227.5H261V230.5ZM186 229V230.5H261V229V227.5H186V229Z" fill="#3B82F6"/>
<path d="M203.016 721.426V740.977H200.287V721.426H203.016ZM186.666 735.455C188.159 735.444 189.867 735.444 191.65 735.391V733.736C189.502 733.36 188.105 732.028 188.127 730.191C188.105 728 190.104 726.518 192.982 726.518C195.883 726.518 197.902 728 197.902 730.191C197.902 732.018 196.506 733.35 194.357 733.736V735.305C195.99 735.229 197.645 735.101 199.213 734.896L199.406 736.916C195.131 737.646 190.512 737.689 187.031 737.689L186.666 735.455ZM198.934 723.596V725.744H187.053V723.596H191.65V721.512H194.379V723.596H198.934ZM192.982 728.602C191.65 728.602 190.705 729.182 190.727 730.191C190.705 731.223 191.65 731.781 192.982 731.781C194.357 731.781 195.281 731.223 195.281 730.191C195.281 729.182 194.357 728.602 192.982 728.602ZM211.855 722.736C214.948 722.715 217.269 724.734 217.269 727.527C217.269 730.342 214.948 732.34 211.855 732.34C208.761 732.34 206.419 730.342 206.419 727.527C206.419 724.734 208.761 722.715 211.855 722.736ZM211.855 725.1C210.308 725.1 209.126 726.002 209.148 727.527C209.126 729.074 210.308 729.955 211.855 729.955C213.402 729.955 214.583 729.074 214.605 727.527C214.583 726.002 213.423 725.1 211.855 725.1ZM221.952 721.426V741.02H219.224V721.426H221.952ZM205.603 734.789C209.083 734.811 213.917 734.746 218.107 734.166L218.321 736.143C213.982 736.98 209.341 737.023 205.925 737.023L205.603 734.789ZM244.958 721.426V727.033H247.601V729.311H244.958V735.67H242.208V721.426H244.958ZM245.667 738.441V740.633H232.283V734.166H235.011V738.441H245.667ZM234.947 722.693C237.933 722.693 240.275 724.756 240.275 727.656C240.275 730.514 237.933 732.619 234.947 732.619C231.939 732.619 229.576 730.514 229.576 727.656C229.576 724.756 231.939 722.693 234.947 722.693ZM234.947 725.078C233.464 725.057 232.261 726.023 232.283 727.656C232.261 729.246 233.464 730.234 234.947 730.234C236.451 730.234 237.589 729.246 237.611 727.656C237.589 726.023 236.451 725.057 234.947 725.078ZM264.862 721.447V735.734H262.133V729.354H258.631V727.098H262.133V721.447H264.862ZM258.803 722.887C258.803 728.129 255.473 731.996 249.758 733.779L248.641 731.609C252.691 730.342 255.301 728.011 255.817 725.121H249.651V722.887H258.803ZM265.356 738.441V740.633H251.971V734.295H254.764V738.441H265.356Z" fill="#18181B"/>
<line x1="186" y1="748.5" x2="269" y2="748.5" stroke="#3B82F6" stroke-width="3"/>
<circle cx="719.5" cy="964.014" r="22.5" fill="#CBE2FF"/>
<path d="M720.078 957.668L720.078 971.514" stroke="#3B82F6" stroke-width="1.73077" stroke-linecap="round"/>
<path d="M727 964.59L713.154 964.59" stroke="#3B82F6" stroke-width="1.73077" stroke-linecap="round"/>
<mask id="path-49-outside-1_1004_6922" maskUnits="userSpaceOnUse" x="181.343" y="38.1719" width="164" height="22" fill="black">
<rect fill="white" x="181.343" y="38.1719" width="164" height="22"/>
<path d="M193.663 39.4656L200.205 58.4487H196.253L194.918 54.4172H187.683L186.321 58.4487H182.343L189.071 39.4656H193.663ZM188.51 51.6671H194.037L191.26 42.9098L188.51 51.6671Z"/>
<path d="M212.712 54.7108L213.62 57.4075C213.104 57.8347 212.436 58.1729 211.617 58.422C210.798 58.6712 209.846 58.7958 208.76 58.7958C206.536 58.7958 204.818 58.2708 203.607 57.2206C202.415 56.1526 201.819 54.5507 201.819 52.4147V51.2666C201.819 49.9495 202.014 48.8726 202.406 48.036C202.815 47.1995 203.349 46.5409 204.008 46.0603C204.649 45.5797 205.387 45.2504 206.224 45.0724C207.061 44.8944 207.915 44.8054 208.787 44.8054C210.015 44.8054 210.976 44.9389 211.671 45.2059C212.365 45.4729 212.979 45.7844 213.513 46.1404L212.632 48.8637C212.027 48.5611 211.404 48.3297 210.763 48.1695C210.14 48.0093 209.481 47.9292 208.787 47.9292C207.612 47.9292 206.802 48.2941 206.358 49.0239C205.93 49.7359 205.717 50.6793 205.717 51.854C205.717 53.189 205.966 54.168 206.464 54.7909C206.963 55.3961 207.728 55.6987 208.76 55.6987C209.383 55.6987 210.024 55.6364 210.683 55.5118C211.341 55.3694 212.018 55.1024 212.712 54.7108Z"/>
<path d="M224.576 48.1161H221.585V54.8443C221.585 55.1825 221.656 55.4139 221.799 55.5385C221.941 55.6631 222.137 55.7254 222.386 55.7254C222.618 55.7254 222.876 55.6809 223.161 55.5919C223.463 55.5029 223.775 55.3694 224.095 55.1914L225.003 57.4609C224.647 57.8169 224.113 58.1284 223.401 58.3953C222.707 58.6623 221.995 58.7958 221.265 58.7958C219.948 58.7958 219.031 58.4843 218.515 57.8614C217.999 57.2206 217.741 56.3395 217.741 55.2181V48.1161H215.631V45.0724H217.741V40.7204L221.585 39.9729V45.0724H224.576V48.1161Z"/>
<path d="M233.451 55.7254C233.682 55.7254 233.94 55.6809 234.225 55.5919C234.51 55.5029 234.812 55.3694 235.133 55.1914L236.04 57.4609C235.684 57.8169 235.159 58.1284 234.465 58.3953C233.771 58.6623 233.059 58.7958 232.329 58.7958C231.012 58.7958 230.095 58.4843 229.579 57.8614C229.063 57.2206 228.805 56.3395 228.805 55.2181V48.2229H227.417V45.2593H232.703V54.8443C232.703 55.1825 232.765 55.4139 232.89 55.5385C233.014 55.6631 233.201 55.7254 233.451 55.7254ZM232.703 42.9899H228.538V39.1719H232.703V42.9899Z"/>
<path d="M244.345 44.8054C246.374 44.8054 247.994 45.3661 249.204 46.4875C250.415 47.6088 251.02 49.371 251.02 51.7739C251.02 54.0701 250.441 55.8144 249.285 57.007C248.145 58.1996 246.499 58.7958 244.345 58.7958C242.174 58.7958 240.509 58.1996 239.352 57.007C238.213 55.8144 237.644 54.0701 237.644 51.7739C237.644 49.371 238.249 47.6088 239.459 46.4875C240.687 45.3661 242.316 44.8054 244.345 44.8054ZM241.595 51.7739C241.595 53.0555 241.791 54.0345 242.183 54.7108C242.592 55.3694 243.313 55.6987 244.345 55.6987C245.36 55.6987 246.072 55.3694 246.481 54.7108C246.89 54.0345 247.095 53.0555 247.095 51.7739C247.095 50.439 246.89 49.4689 246.481 48.8637C246.089 48.2407 245.386 47.9292 244.372 47.9292C243.322 47.9292 242.592 48.2407 242.183 48.8637C241.791 49.4689 241.595 50.439 241.595 51.7739Z"/>
<path d="M266.388 58.4487H262.49V49.5579C262.49 48.9883 262.383 48.57 262.169 48.303C261.973 48.0182 261.644 47.8758 261.181 47.8758C260.612 47.8758 260.007 48.036 259.366 48.3564C258.725 48.659 258.218 49.0061 257.844 49.3977V58.4487H253.946V45.2593H257.524L257.737 46.1938C258.218 45.82 258.769 45.4996 259.392 45.2326C260.015 44.9478 260.781 44.8054 261.689 44.8054C263.255 44.8054 264.43 45.1436 265.213 45.82C265.996 46.4964 266.388 47.5198 266.388 48.8904V58.4487Z"/>
<path d="M277.053 43.1501C277.053 41.7795 277.356 40.8272 277.961 40.2932C278.584 39.7415 279.581 39.4656 280.951 39.4656H284.289C286.905 39.4656 288.73 39.9907 289.762 41.0408C290.812 42.0732 291.337 43.604 291.337 45.6331C291.337 47.947 290.759 49.5579 289.602 50.4657C288.445 51.3734 286.665 51.8273 284.262 51.8273H281.005V58.4487H277.053V43.1501ZM283.942 42.5093H282.286C281.77 42.5093 281.423 42.6161 281.245 42.8297C281.085 43.0255 281.005 43.3281 281.005 43.7375V48.7569H283.888C285.027 48.7569 285.882 48.5166 286.451 48.036C287.021 47.5554 287.306 46.7545 287.306 45.6331C287.306 44.4939 287.021 43.693 286.451 43.2302C285.9 42.7496 285.063 42.5093 283.942 42.5093Z"/>
<path d="M300.429 44.8054C302.458 44.8054 304.078 45.3661 305.289 46.4875C306.499 47.6088 307.104 49.371 307.104 51.7739C307.104 54.0701 306.526 55.8144 305.369 57.007C304.229 58.1996 302.583 58.7958 300.429 58.7958C298.258 58.7958 296.593 58.1996 295.436 57.007C294.297 55.8144 293.728 54.0701 293.728 51.7739C293.728 49.371 294.333 47.6088 295.543 46.4875C296.771 45.3661 298.4 44.8054 300.429 44.8054ZM297.679 51.7739C297.679 53.0555 297.875 54.0345 298.267 54.7108C298.676 55.3694 299.397 55.6987 300.429 55.6987C301.444 55.6987 302.156 55.3694 302.565 54.7108C302.975 54.0345 303.179 53.0555 303.179 51.7739C303.179 50.439 302.975 49.4689 302.565 48.8637C302.174 48.2407 301.471 47.9292 300.456 47.9292C299.406 47.9292 298.676 48.2407 298.267 48.8637C297.875 49.4689 297.679 50.439 297.679 51.7739Z"/>
<path d="M315.53 55.7254C315.761 55.7254 316.019 55.6809 316.304 55.5919C316.589 55.5029 316.892 55.3694 317.212 55.1914L318.12 57.4609C317.764 57.8169 317.239 58.1284 316.545 58.3953C315.85 58.6623 315.138 58.7958 314.409 58.7958C313.091 58.7958 312.175 58.4843 311.659 57.8614C311.142 57.2206 310.884 56.3395 310.884 55.2181V48.2229H309.496V45.2593H314.782V54.8443C314.782 55.1825 314.845 55.4139 314.969 55.5385C315.094 55.6631 315.281 55.7254 315.53 55.7254ZM314.782 42.9899H310.617V39.1719H314.782V42.9899Z"/>
<path d="M332.432 58.4487H328.534V49.5579C328.534 48.9883 328.427 48.57 328.213 48.303C328.018 48.0182 327.688 47.8758 327.225 47.8758C326.656 47.8758 326.051 48.036 325.41 48.3564C324.769 48.659 324.262 49.0061 323.888 49.3977V58.4487H319.99V45.2593H323.568L323.781 46.1938C324.262 45.82 324.814 45.4996 325.437 45.2326C326.06 44.9478 326.825 44.8054 327.733 44.8054C329.299 44.8054 330.474 45.1436 331.257 45.82C332.04 46.4964 332.432 47.5198 332.432 48.8904V58.4487Z"/>
<path d="M344.044 48.1161H341.054V54.8443C341.054 55.1825 341.125 55.4139 341.268 55.5385C341.41 55.6631 341.606 55.7254 341.855 55.7254C342.086 55.7254 342.345 55.6809 342.629 55.5919C342.932 55.5029 343.243 55.3694 343.564 55.1914L344.472 57.4609C344.116 57.8169 343.582 58.1284 342.87 58.3953C342.175 58.6623 341.463 58.7958 340.734 58.7958C339.416 58.7958 338.5 58.4843 337.984 57.8614C337.467 57.2206 337.209 56.3395 337.209 55.2181V48.1161H335.1V45.0724H337.209V40.7204L341.054 39.9729V45.0724H344.044V48.1161Z"/>
</mask>
<path d="M193.663 39.4656L200.205 58.4487H196.253L194.918 54.4172H187.683L186.321 58.4487H182.343L189.071 39.4656H193.663ZM188.51 51.6671H194.037L191.26 42.9098L188.51 51.6671Z" fill="#18181B"/>
<path d="M212.712 54.7108L213.62 57.4075C213.104 57.8347 212.436 58.1729 211.617 58.422C210.798 58.6712 209.846 58.7958 208.76 58.7958C206.536 58.7958 204.818 58.2708 203.607 57.2206C202.415 56.1526 201.819 54.5507 201.819 52.4147V51.2666C201.819 49.9495 202.014 48.8726 202.406 48.036C202.815 47.1995 203.349 46.5409 204.008 46.0603C204.649 45.5797 205.387 45.2504 206.224 45.0724C207.061 44.8944 207.915 44.8054 208.787 44.8054C210.015 44.8054 210.976 44.9389 211.671 45.2059C212.365 45.4729 212.979 45.7844 213.513 46.1404L212.632 48.8637C212.027 48.5611 211.404 48.3297 210.763 48.1695C210.14 48.0093 209.481 47.9292 208.787 47.9292C207.612 47.9292 206.802 48.2941 206.358 49.0239C205.93 49.7359 205.717 50.6793 205.717 51.854C205.717 53.189 205.966 54.168 206.464 54.7909C206.963 55.3961 207.728 55.6987 208.76 55.6987C209.383 55.6987 210.024 55.6364 210.683 55.5118C211.341 55.3694 212.018 55.1024 212.712 54.7108Z" fill="#18181B"/>
<path d="M224.576 48.1161H221.585V54.8443C221.585 55.1825 221.656 55.4139 221.799 55.5385C221.941 55.6631 222.137 55.7254 222.386 55.7254C222.618 55.7254 222.876 55.6809 223.161 55.5919C223.463 55.5029 223.775 55.3694 224.095 55.1914L225.003 57.4609C224.647 57.8169 224.113 58.1284 223.401 58.3953C222.707 58.6623 221.995 58.7958 221.265 58.7958C219.948 58.7958 219.031 58.4843 218.515 57.8614C217.999 57.2206 217.741 56.3395 217.741 55.2181V48.1161H215.631V45.0724H217.741V40.7204L221.585 39.9729V45.0724H224.576V48.1161Z" fill="#18181B"/>
<path d="M233.451 55.7254C233.682 55.7254 233.94 55.6809 234.225 55.5919C234.51 55.5029 234.812 55.3694 235.133 55.1914L236.04 57.4609C235.684 57.8169 235.159 58.1284 234.465 58.3953C233.771 58.6623 233.059 58.7958 232.329 58.7958C231.012 58.7958 230.095 58.4843 229.579 57.8614C229.063 57.2206 228.805 56.3395 228.805 55.2181V48.2229H227.417V45.2593H232.703V54.8443C232.703 55.1825 232.765 55.4139 232.89 55.5385C233.014 55.6631 233.201 55.7254 233.451 55.7254ZM232.703 42.9899H228.538V39.1719H232.703V42.9899Z" fill="#18181B"/>
<path d="M244.345 44.8054C246.374 44.8054 247.994 45.3661 249.204 46.4875C250.415 47.6088 251.02 49.371 251.02 51.7739C251.02 54.0701 250.441 55.8144 249.285 57.007C248.145 58.1996 246.499 58.7958 244.345 58.7958C242.174 58.7958 240.509 58.1996 239.352 57.007C238.213 55.8144 237.644 54.0701 237.644 51.7739C237.644 49.371 238.249 47.6088 239.459 46.4875C240.687 45.3661 242.316 44.8054 244.345 44.8054ZM241.595 51.7739C241.595 53.0555 241.791 54.0345 242.183 54.7108C242.592 55.3694 243.313 55.6987 244.345 55.6987C245.36 55.6987 246.072 55.3694 246.481 54.7108C246.89 54.0345 247.095 53.0555 247.095 51.7739C247.095 50.439 246.89 49.4689 246.481 48.8637C246.089 48.2407 245.386 47.9292 244.372 47.9292C243.322 47.9292 242.592 48.2407 242.183 48.8637C241.791 49.4689 241.595 50.439 241.595 51.7739Z" fill="#18181B"/>
<path d="M266.388 58.4487H262.49V49.5579C262.49 48.9883 262.383 48.57 262.169 48.303C261.973 48.0182 261.644 47.8758 261.181 47.8758C260.612 47.8758 260.007 48.036 259.366 48.3564C258.725 48.659 258.218 49.0061 257.844 49.3977V58.4487H253.946V45.2593H257.524L257.737 46.1938C258.218 45.82 258.769 45.4996 259.392 45.2326C260.015 44.9478 260.781 44.8054 261.689 44.8054C263.255 44.8054 264.43 45.1436 265.213 45.82C265.996 46.4964 266.388 47.5198 266.388 48.8904V58.4487Z" fill="#18181B"/>
<path d="M277.053 43.1501C277.053 41.7795 277.356 40.8272 277.961 40.2932C278.584 39.7415 279.581 39.4656 280.951 39.4656H284.289C286.905 39.4656 288.73 39.9907 289.762 41.0408C290.812 42.0732 291.337 43.604 291.337 45.6331C291.337 47.947 290.759 49.5579 289.602 50.4657C288.445 51.3734 286.665 51.8273 284.262 51.8273H281.005V58.4487H277.053V43.1501ZM283.942 42.5093H282.286C281.77 42.5093 281.423 42.6161 281.245 42.8297C281.085 43.0255 281.005 43.3281 281.005 43.7375V48.7569H283.888C285.027 48.7569 285.882 48.5166 286.451 48.036C287.021 47.5554 287.306 46.7545 287.306 45.6331C287.306 44.4939 287.021 43.693 286.451 43.2302C285.9 42.7496 285.063 42.5093 283.942 42.5093Z" fill="#18181B"/>
<path d="M300.429 44.8054C302.458 44.8054 304.078 45.3661 305.289 46.4875C306.499 47.6088 307.104 49.371 307.104 51.7739C307.104 54.0701 306.526 55.8144 305.369 57.007C304.229 58.1996 302.583 58.7958 300.429 58.7958C298.258 58.7958 296.593 58.1996 295.436 57.007C294.297 55.8144 293.728 54.0701 293.728 51.7739C293.728 49.371 294.333 47.6088 295.543 46.4875C296.771 45.3661 298.4 44.8054 300.429 44.8054ZM297.679 51.7739C297.679 53.0555 297.875 54.0345 298.267 54.7108C298.676 55.3694 299.397 55.6987 300.429 55.6987C301.444 55.6987 302.156 55.3694 302.565 54.7108C302.975 54.0345 303.179 53.0555 303.179 51.7739C303.179 50.439 302.975 49.4689 302.565 48.8637C302.174 48.2407 301.471 47.9292 300.456 47.9292C299.406 47.9292 298.676 48.2407 298.267 48.8637C297.875 49.4689 297.679 50.439 297.679 51.7739Z" fill="#18181B"/>
<path d="M315.53 55.7254C315.761 55.7254 316.019 55.6809 316.304 55.5919C316.589 55.5029 316.892 55.3694 317.212 55.1914L318.12 57.4609C317.764 57.8169 317.239 58.1284 316.545 58.3953C315.85 58.6623 315.138 58.7958 314.409 58.7958C313.091 58.7958 312.175 58.4843 311.659 57.8614C311.142 57.2206 310.884 56.3395 310.884 55.2181V48.2229H309.496V45.2593H314.782V54.8443C314.782 55.1825 314.845 55.4139 314.969 55.5385C315.094 55.6631 315.281 55.7254 315.53 55.7254ZM314.782 42.9899H310.617V39.1719H314.782V42.9899Z" fill="#18181B"/>
<path d="M332.432 58.4487H328.534V49.5579C328.534 48.9883 328.427 48.57 328.213 48.303C328.018 48.0182 327.688 47.8758 327.225 47.8758C326.656 47.8758 326.051 48.036 325.41 48.3564C324.769 48.659 324.262 49.0061 323.888 49.3977V58.4487H319.99V45.2593H323.568L323.781 46.1938C324.262 45.82 324.814 45.4996 325.437 45.2326C326.06 44.9478 326.825 44.8054 327.733 44.8054C329.299 44.8054 330.474 45.1436 331.257 45.82C332.04 46.4964 332.432 47.5198 332.432 48.8904V58.4487Z" fill="#18181B"/>
<path d="M344.044 48.1161H341.054V54.8443C341.054 55.1825 341.125 55.4139 341.268 55.5385C341.41 55.6631 341.606 55.7254 341.855 55.7254C342.086 55.7254 342.345 55.6809 342.629 55.5919C342.932 55.5029 343.243 55.3694 343.564 55.1914L344.472 57.4609C344.116 57.8169 343.582 58.1284 342.87 58.3953C342.175 58.6623 341.463 58.7958 340.734 58.7958C339.416 58.7958 338.5 58.4843 337.984 57.8614C337.467 57.2206 337.209 56.3395 337.209 55.2181V48.1161H335.1V45.0724H337.209V40.7204L341.054 39.9729V45.0724H344.044V48.1161Z" fill="#18181B"/>
<path d="M193.663 39.4656L200.205 58.4487H196.253L194.918 54.4172H187.683L186.321 58.4487H182.343L189.071 39.4656H193.663ZM188.51 51.6671H194.037L191.26 42.9098L188.51 51.6671Z" stroke="#18181B" stroke-width="0.821516" mask="url(#path-49-outside-1_1004_6922)"/>
<path d="M212.712 54.7108L213.62 57.4075C213.104 57.8347 212.436 58.1729 211.617 58.422C210.798 58.6712 209.846 58.7958 208.76 58.7958C206.536 58.7958 204.818 58.2708 203.607 57.2206C202.415 56.1526 201.819 54.5507 201.819 52.4147V51.2666C201.819 49.9495 202.014 48.8726 202.406 48.036C202.815 47.1995 203.349 46.5409 204.008 46.0603C204.649 45.5797 205.387 45.2504 206.224 45.0724C207.061 44.8944 207.915 44.8054 208.787 44.8054C210.015 44.8054 210.976 44.9389 211.671 45.2059C212.365 45.4729 212.979 45.7844 213.513 46.1404L212.632 48.8637C212.027 48.5611 211.404 48.3297 210.763 48.1695C210.14 48.0093 209.481 47.9292 208.787 47.9292C207.612 47.9292 206.802 48.2941 206.358 49.0239C205.93 49.7359 205.717 50.6793 205.717 51.854C205.717 53.189 205.966 54.168 206.464 54.7909C206.963 55.3961 207.728 55.6987 208.76 55.6987C209.383 55.6987 210.024 55.6364 210.683 55.5118C211.341 55.3694 212.018 55.1024 212.712 54.7108Z" stroke="#18181B" stroke-width="0.821516" mask="url(#path-49-outside-1_1004_6922)"/>
<path d="M224.576 48.1161H221.585V54.8443C221.585 55.1825 221.656 55.4139 221.799 55.5385C221.941 55.6631 222.137 55.7254 222.386 55.7254C222.618 55.7254 222.876 55.6809 223.161 55.5919C223.463 55.5029 223.775 55.3694 224.095 55.1914L225.003 57.4609C224.647 57.8169 224.113 58.1284 223.401 58.3953C222.707 58.6623 221.995 58.7958 221.265 58.7958C219.948 58.7958 219.031 58.4843 218.515 57.8614C217.999 57.2206 217.741 56.3395 217.741 55.2181V48.1161H215.631V45.0724H217.741V40.7204L221.585 39.9729V45.0724H224.576V48.1161Z" stroke="#18181B" stroke-width="0.821516" mask="url(#path-49-outside-1_1004_6922)"/>
<path d="M233.451 55.7254C233.682 55.7254 233.94 55.6809 234.225 55.5919C234.51 55.5029 234.812 55.3694 235.133 55.1914L236.04 57.4609C235.684 57.8169 235.159 58.1284 234.465 58.3953C233.771 58.6623 233.059 58.7958 232.329 58.7958C231.012 58.7958 230.095 58.4843 229.579 57.8614C229.063 57.2206 228.805 56.3395 228.805 55.2181V48.2229H227.417V45.2593H232.703V54.8443C232.703 55.1825 232.765 55.4139 232.89 55.5385C233.014 55.6631 233.201 55.7254 233.451 55.7254ZM232.703 42.9899H228.538V39.1719H232.703V42.9899Z" stroke="#18181B" stroke-width="0.821516" mask="url(#path-49-outside-1_1004_6922)"/>
<path d="M244.345 44.8054C246.374 44.8054 247.994 45.3661 249.204 46.4875C250.415 47.6088 251.02 49.371 251.02 51.7739C251.02 54.0701 250.441 55.8144 249.285 57.007C248.145 58.1996 246.499 58.7958 244.345 58.7958C242.174 58.7958 240.509 58.1996 239.352 57.007C238.213 55.8144 237.644 54.0701 237.644 51.7739C237.644 49.371 238.249 47.6088 239.459 46.4875C240.687 45.3661 242.316 44.8054 244.345 44.8054ZM241.595 51.7739C241.595 53.0555 241.791 54.0345 242.183 54.7108C242.592 55.3694 243.313 55.6987 244.345 55.6987C245.36 55.6987 246.072 55.3694 246.481 54.7108C246.89 54.0345 247.095 53.0555 247.095 51.7739C247.095 50.439 246.89 49.4689 246.481 48.8637C246.089 48.2407 245.386 47.9292 244.372 47.9292C243.322 47.9292 242.592 48.2407 242.183 48.8637C241.791 49.4689 241.595 50.439 241.595 51.7739Z" stroke="#18181B" stroke-width="0.821516" mask="url(#path-49-outside-1_1004_6922)"/>
<path d="M266.388 58.4487H262.49V49.5579C262.49 48.9883 262.383 48.57 262.169 48.303C261.973 48.0182 261.644 47.8758 261.181 47.8758C260.612 47.8758 260.007 48.036 259.366 48.3564C258.725 48.659 258.218 49.0061 257.844 49.3977V58.4487H253.946V45.2593H257.524L257.737 46.1938C258.218 45.82 258.769 45.4996 259.392 45.2326C260.015 44.9478 260.781 44.8054 261.689 44.8054C263.255 44.8054 264.43 45.1436 265.213 45.82C265.996 46.4964 266.388 47.5198 266.388 48.8904V58.4487Z" stroke="#18181B" stroke-width="0.821516" mask="url(#path-49-outside-1_1004_6922)"/>
<path d="M277.053 43.1501C277.053 41.7795 277.356 40.8272 277.961 40.2932C278.584 39.7415 279.581 39.4656 280.951 39.4656H284.289C286.905 39.4656 288.73 39.9907 289.762 41.0408C290.812 42.0732 291.337 43.604 291.337 45.6331C291.337 47.947 290.759 49.5579 289.602 50.4657C288.445 51.3734 286.665 51.8273 284.262 51.8273H281.005V58.4487H277.053V43.1501ZM283.942 42.5093H282.286C281.77 42.5093 281.423 42.6161 281.245 42.8297C281.085 43.0255 281.005 43.3281 281.005 43.7375V48.7569H283.888C285.027 48.7569 285.882 48.5166 286.451 48.036C287.021 47.5554 287.306 46.7545 287.306 45.6331C287.306 44.4939 287.021 43.693 286.451 43.2302C285.9 42.7496 285.063 42.5093 283.942 42.5093Z" stroke="#18181B" stroke-width="0.821516" mask="url(#path-49-outside-1_1004_6922)"/>
<path d="M300.429 44.8054C302.458 44.8054 304.078 45.3661 305.289 46.4875C306.499 47.6088 307.104 49.371 307.104 51.7739C307.104 54.0701 306.526 55.8144 305.369 57.007C304.229 58.1996 302.583 58.7958 300.429 58.7958C298.258 58.7958 296.593 58.1996 295.436 57.007C294.297 55.8144 293.728 54.0701 293.728 51.7739C293.728 49.371 294.333 47.6088 295.543 46.4875C296.771 45.3661 298.4 44.8054 300.429 44.8054ZM297.679 51.7739C297.679 53.0555 297.875 54.0345 298.267 54.7108C298.676 55.3694 299.397 55.6987 300.429 55.6987C301.444 55.6987 302.156 55.3694 302.565 54.7108C302.975 54.0345 303.179 53.0555 303.179 51.7739C303.179 50.439 302.975 49.4689 302.565 48.8637C302.174 48.2407 301.471 47.9292 300.456 47.9292C299.406 47.9292 298.676 48.2407 298.267 48.8637C297.875 49.4689 297.679 50.439 297.679 51.7739Z" stroke="#18181B" stroke-width="0.821516" mask="url(#path-49-outside-1_1004_6922)"/>
<path d="M315.53 55.7254C315.761 55.7254 316.019 55.6809 316.304 55.5919C316.589 55.5029 316.892 55.3694 317.212 55.1914L318.12 57.4609C317.764 57.8169 317.239 58.1284 316.545 58.3953C315.85 58.6623 315.138 58.7958 314.409 58.7958C313.091 58.7958 312.175 58.4843 311.659 57.8614C311.142 57.2206 310.884 56.3395 310.884 55.2181V48.2229H309.496V45.2593H314.782V54.8443C314.782 55.1825 314.845 55.4139 314.969 55.5385C315.094 55.6631 315.281 55.7254 315.53 55.7254ZM314.782 42.9899H310.617V39.1719H314.782V42.9899Z" stroke="#18181B" stroke-width="0.821516" mask="url(#path-49-outside-1_1004_6922)"/>
<path d="M332.432 58.4487H328.534V49.5579C328.534 48.9883 328.427 48.57 328.213 48.303C328.018 48.0182 327.688 47.8758 327.225 47.8758C326.656 47.8758 326.051 48.036 325.41 48.3564C324.769 48.659 324.262 49.0061 323.888 49.3977V58.4487H319.99V45.2593H323.568L323.781 46.1938C324.262 45.82 324.814 45.4996 325.437 45.2326C326.06 44.9478 326.825 44.8054 327.733 44.8054C329.299 44.8054 330.474 45.1436 331.257 45.82C332.04 46.4964 332.432 47.5198 332.432 48.8904V58.4487Z" stroke="#18181B" stroke-width="0.821516" mask="url(#path-49-outside-1_1004_6922)"/>
<path d="M344.044 48.1161H341.054V54.8443C341.054 55.1825 341.125 55.4139 341.268 55.5385C341.41 55.6631 341.606 55.7254 341.855 55.7254C342.086 55.7254 342.345 55.6809 342.629 55.5919C342.932 55.5029 343.243 55.3694 343.564 55.1914L344.472 57.4609C344.116 57.8169 343.582 58.1284 342.87 58.3953C342.175 58.6623 341.463 58.7958 340.734 58.7958C339.416 58.7958 338.5 58.4843 337.984 57.8614C337.467 57.2206 337.209 56.3395 337.209 55.2181V48.1161H335.1V45.0724H337.209V40.7204L341.054 39.9729V45.0724H344.044V48.1161Z" stroke="#18181B" stroke-width="0.821516" mask="url(#path-49-outside-1_1004_6922)"/>
<path d="M146 41.5801C146 40.1676 147.145 39.0225 148.558 39.0225H162.893C164.306 39.0225 165.451 40.1676 165.451 41.5801V49.9891C165.451 51.1871 164.619 52.2246 163.45 52.4855L149.115 55.6833C147.517 56.0397 146 54.8241 146 53.187V41.5801Z" fill="#18181B"/>
<rect x="162.594" y="43.8633" width="1.27883" height="3.83649" rx="0.639416" fill="white"/>
<rect x="160.034" y="43.8633" width="1.27883" height="3.83649" rx="0.639416" fill="white"/>
<path d="M176.969 52.834C176.969 51.4215 175.824 50.2764 174.411 50.2764H164.17C162.758 50.2764 161.613 51.4215 161.613 52.834V58.5027C161.613 59.7007 162.444 60.7382 163.614 60.999L173.854 63.2834C175.452 63.6398 176.969 62.4242 176.969 60.7871V52.834Z" fill="#60A5FA"/>
<rect width="1.02306" height="2.81343" rx="0.511532" transform="matrix(-1 0 0 1 164.428 54.3682)" fill="#CBE2FF"/>
<rect width="1.02306" height="2.81343" rx="0.511532" transform="matrix(-1 0 0 1 166.475 54.3682)" fill="#CBE2FF"/>
<path d="M169.802 47.8722L168.01 46.7054" stroke="#60A5FA" stroke-width="0.532493" stroke-linecap="round"/>
<path d="M168.011 44.3234L169.802 43.1566" stroke="#60A5FA" stroke-width="0.532493" stroke-linecap="round"/>
<path d="M168.011 44.3234L169.802 43.1566" stroke="#60A5FA" stroke-width="0.532493" stroke-linecap="round"/>
<path d="M168.011 45.5215H169.787" stroke="#60A5FA" stroke-width="0.532493" stroke-linecap="round"/>
<path d="M613.219 44.5879C615.346 44.5879 616.91 46.2051 616.928 48.4902C616.91 50.8105 615.346 52.375 613.219 52.375C611.092 52.375 609.545 50.8105 609.545 48.4902C609.545 46.2051 611.092 44.5879 613.219 44.5879ZM613.219 46.4863C612.234 46.4863 611.549 47.2246 611.549 48.4902C611.549 49.7559 612.234 50.5117 613.219 50.5117C614.186 50.5117 614.871 49.7559 614.889 48.4902C614.871 47.2246 614.186 46.4863 613.219 46.4863ZM623.221 43.6387V53.1836H621.094V49.2988H619.775V53.0957H617.701V43.9199H619.775V47.5059H621.094V43.6387H623.221ZM623.221 53.8867V59.6172H620.988V55.6797H612.164V53.8867H623.221ZM631.025 46.3809C631.025 48.5957 632.115 50.793 634.646 51.7246L633.398 53.4648C631.72 52.8057 630.568 51.5488 629.918 49.9668C629.215 51.6543 627.976 52.9727 626.156 53.6582L624.961 51.9004C627.58 50.9688 628.758 48.7188 628.758 46.3809V44.5352H631.025V46.3809ZM638.514 43.6387V55.5039H636.281V50.6172H633.539V48.8066H636.281V47.5234H633.539V45.7129H636.281V43.6387H638.514ZM638.848 57.543V59.3359H627.861V54.3613H630.129V57.543H638.848ZM659.379 55.9609V57.8418H644.736V55.9609H650.889V53.0781H645.949V51.3203H648.094V46.75H645.879V44.957H658.148V46.75H655.898V51.3203H658.078V53.0781H653.121V55.9609H659.379ZM650.344 51.3203H653.684V46.75H650.344V51.3203ZM673.688 43.6387V55.1348H671.438V43.6387H673.688ZM674.109 57.543V59.3359H662.965V53.9746H665.232V57.543H674.109ZM664.916 44.6582C667.377 44.6582 669.293 46.3457 669.293 48.6836C669.293 51.0742 667.377 52.7441 664.916 52.7441C662.455 52.7441 660.539 51.0742 660.539 48.6836C660.539 46.3457 662.455 44.6582 664.916 44.6582ZM664.916 46.6094C663.668 46.5918 662.719 47.3828 662.736 48.6836C662.719 50.0195 663.668 50.793 664.916 50.793C666.129 50.793 667.078 50.0195 667.078 48.6836C667.078 47.3828 666.129 46.5918 664.916 46.6094ZM688.893 51.8828V53.6582H677.572V44.7988H688.77V46.6094H679.857V48.2969H688.4V50.0547H679.857V51.8828H688.893ZM690.492 55.9258V57.7539H675.85V55.9258H690.492Z" fill="#AFAFC1"/>
<path d="M749.117 55.8906V57.7539H734.475V55.8906H749.117ZM747.887 45.0273V46.8203H745.637V51.6719H747.816V53.4297H735.688V51.6719H737.832V46.8203H735.617V45.0273H747.887ZM740.082 51.6719H743.422V46.8203H740.082V51.6719ZM764.674 55.9961V57.8418H750.031V55.9961H756.201V53.5879H751.719V48.209H760.771V46.4512H751.701V44.6582H762.986V49.9668H753.969V51.7598H763.355V53.5879H758.434V55.9961H764.674ZM776.152 43.9375V53.2891H774.025V49.3867H772.25V47.5762H774.025V43.9375H776.152ZM770.633 47.0664C770.633 48.7539 771.477 50.4238 773.533 51.2148L772.408 52.9375C771.046 52.4102 770.123 51.4609 769.578 50.3008C768.989 51.6016 768.005 52.665 766.537 53.2539L765.359 51.4785C767.557 50.6523 768.453 48.8242 768.453 47.0488V46.5742H765.904V44.7812H773.023V46.5742H770.633V47.0664ZM779.334 43.6211V53.377H777.207V43.6211H779.334ZM779.334 53.957V59.6172H777.102V55.7324H768.277V53.957H779.334ZM794.188 51.8828V53.6582H782.867V44.7988H794.064V46.6094H785.152V48.2969H793.695V50.0547H785.152V51.8828H794.188ZM795.787 55.9258V57.7539H781.145V55.9258H795.787ZM809.814 44.7812V45.7832C809.814 46.8906 809.814 48.4902 809.445 50.4766L807.248 50.2656C807.529 48.7275 807.6 47.5674 807.617 46.6094H801.588V44.7812H809.814ZM805.842 48.4727V51.5312C807.433 51.4697 809.067 51.3467 810.57 51.127L810.693 52.7441C807.371 53.3594 803.609 53.4121 800.832 53.4297L800.639 51.6367C801.535 51.6367 802.546 51.6367 803.609 51.6016V48.4727H805.842ZM813.734 43.6211V48.4902H815.668V50.3711H813.734V55.5918H811.432V43.6211H813.734ZM814.227 57.543V59.3359H802.994V54.5195H805.244V57.543H814.227ZM829.818 43.6211V59.6523H827.586V43.6211H829.818ZM824.861 44.957V51.127H819.588V54.0625C822.022 54.0537 824.097 53.9131 826.443 53.5352L826.637 55.3457C824 55.8027 821.627 55.9082 818.709 55.9082H817.268V49.3516H822.576V46.7676H817.25V44.957H824.861Z" fill="#3B82F6"/>
<g clip-path="url(#clip4_1004_6922)">
<circle cx="1219.5" cy="51.5" r="13.5" fill="#FAFAFA"/>
<path d="M1225.06 47.2535C1225.06 46.2365 1224.24 45.4121 1223.22 45.4121H1214.2C1213.18 45.4121 1212.35 46.2365 1212.35 47.2535V53.7901C1212.35 54.6304 1212.92 55.3641 1213.74 55.5734L1222.76 57.8946C1223.93 58.1943 1225.06 57.3144 1225.06 56.1112V47.2535Z" fill="#3B82F6"/>
<rect width="0.841798" height="2.52539" rx="0.420899" transform="matrix(-1 0 0 1 1215.46 49.9043)" fill="white"/>
<rect width="0.841798" height="2.52539" rx="0.420899" transform="matrix(-1 0 0 1 1217.15 49.9043)" fill="white"/>
</g>
<path d="M1245.94 45.125C1245.94 48.7969 1243.45 51.3438 1239.25 52.4219L1238.56 51.0781C1241.85 50.2266 1243.78 48.5625 1244.08 46.5H1239.38V45.125H1245.94ZM1250.23 44.2812V52.1875H1248.48V44.2812H1250.23ZM1250.23 52.7969V58.2031H1240.91V52.7969H1250.23ZM1242.62 54.1719V56.8281H1248.53V54.1719H1242.62ZM1257.34 47.6562C1257.33 50.1719 1258.59 52.7344 1260.78 53.7812L1259.72 55.1719C1258.19 54.3984 1257.09 52.9062 1256.48 51.1094C1255.87 53.0312 1254.71 54.625 1253.09 55.4375L1252.03 54.0469C1254.3 52.9688 1255.59 50.2656 1255.61 47.6562V45.4062H1257.34V47.6562ZM1263.36 44.2656V49.7969H1265.53V51.2812H1263.36V58.3906H1261.62V44.2656H1263.36ZM1277.27 44.2812V47.6562H1279.25V49.0938H1277.27V52.7656H1275.53V44.2812H1277.27ZM1273.11 45.1406V49.2031H1268.41V50.6875C1270.8 50.6719 1272.45 50.5859 1274.38 50.2656L1274.56 51.6562C1272.45 52.0312 1270.62 52.125 1267.83 52.1094H1266.67V47.8906H1271.41V46.5156H1266.66V45.1406H1273.11ZM1272.66 53.0781C1275.56 53.0938 1277.39 54.0781 1277.41 55.75C1277.39 57.4062 1275.56 58.3594 1272.66 58.3594C1269.69 58.3594 1267.88 57.4062 1267.88 55.75C1267.88 54.0781 1269.69 53.0938 1272.66 53.0781ZM1272.66 54.4375C1270.69 54.4375 1269.56 54.9062 1269.58 55.75C1269.56 56.5938 1270.69 57.0469 1272.66 57.0469C1274.61 57.0469 1275.69 56.5938 1275.69 55.75C1275.69 54.9062 1274.61 54.4375 1272.66 54.4375ZM1291.59 44.3281V52.2344H1290.12V44.3281H1291.59ZM1282.34 45.1406V50.0469C1284.6 50.0312 1286.59 49.8672 1288.69 49.4219L1288.89 50.6562C1286.58 51.125 1284.47 51.2969 1282.02 51.2969H1280.86V45.1406H1282.34ZM1291.59 52.875V58.1406H1282.42V52.875H1291.59ZM1283.88 54.0469V56.9531H1290.14V54.0469H1283.88Z" fill="#18181B"/>
<defs>
<clipPath id="clip0_1004_6922">
<rect width="18" height="18" fill="white" transform="translate(295 528)"/>
</clipPath>
<clipPath id="clip1_1004_6922">
<rect width="18" height="18" fill="white" transform="translate(295 556)"/>
</clipPath>
<clipPath id="clip2_1004_6922">
<rect width="18" height="18" fill="white" transform="translate(648 362)"/>
</clipPath>
<clipPath id="clip3_1004_6922">
<rect width="20" height="20" fill="white" transform="translate(1208 361)"/>
</clipPath>
<clipPath id="clip4_1004_6922">
<rect x="1206" y="38" width="27" height="27" rx="13.5" fill="white"/>
</clipPath>
</defs>
</svg>
