<svg width="1440" height="1050" viewBox="0 0 1440 1050" fill="none" xmlns="http://www.w3.org/2000/svg">
<rect width="1440" height="1050" fill="white"/>
<path d="M256.41 276.285H255.52L255.59 274.539L254.113 275.477L253.668 274.703L255.227 273.906L253.668 273.098L254.113 272.324L255.59 273.262L255.52 271.516H256.41L256.328 273.262L257.805 272.324L258.262 273.098L256.703 273.906L258.262 274.703L257.805 275.477L256.328 274.539L256.41 276.285Z" fill="#F63B3B"/>
<path d="M256.41 445.285H255.52L255.59 443.539L254.113 444.477L253.668 443.703L255.227 442.906L253.668 442.098L254.113 441.324L255.59 442.262L255.52 440.516H256.41L256.328 442.262L257.805 441.324L258.262 442.098L256.703 442.906L258.262 443.703L257.805 444.477L256.328 443.539L256.41 445.285Z" fill="#F63B3B"/>
<path d="M817.41 444.285H816.52L816.59 442.539L815.113 443.477L814.668 442.703L816.227 441.906L814.668 441.098L815.113 440.324L816.59 441.262L816.52 439.516H817.41L817.328 441.262L818.805 440.324L819.262 441.098L817.703 441.906L819.262 442.703L818.805 443.477L817.328 442.539L817.41 444.285Z" fill="#F63B3B"/>
<path d="M266.41 727.285H265.52L265.59 725.539L264.113 726.477L263.668 725.703L265.227 724.906L263.668 724.098L264.113 723.324L265.59 724.262L265.52 722.516H266.41L266.328 724.262L267.805 723.324L268.262 724.098L266.703 724.906L268.262 725.703L267.805 726.477L266.328 725.539L266.41 727.285Z" fill="#F63B3B"/>
<path d="M152.706 128.115C153.095 127.726 153.095 127.095 152.705 126.705C152.316 126.316 151.684 126.316 151.295 126.705L146 132L151.295 137.295C151.684 137.684 152.316 137.684 152.705 137.295C153.095 136.905 153.095 136.274 152.706 135.885L148.83 132L152.706 128.115Z" fill="#9696A2"/>
<path d="M174.861 135.535V136.517H162.938V135.535H174.861ZM173.719 126.482V127.435H171.653V131.99H173.689V132.928H164.021V131.99H166.058V127.435H163.992V126.482H173.719ZM167.2 131.99H170.525V127.435H167.2V131.99ZM187.825 135.608V136.575H175.901V135.608H181.263V133.147H177.396V129.134H185.188V127.083H177.366V126.131H186.316V130.071H178.538V132.195H186.624V133.147H182.391V135.608H187.825ZM197.391 125.457V133.016H196.277V129.485H194.285V128.533H196.277V125.457H197.391ZM192.718 127.962C192.718 129.383 193.67 130.921 195.325 131.609L194.725 132.488C193.501 131.976 192.645 131.001 192.205 129.881C191.744 131.148 190.835 132.239 189.539 132.811L188.924 131.902C190.623 131.185 191.604 129.515 191.604 127.962V127.186H189.173V126.233H195.018V127.186H192.718V127.962ZM199.925 125.164V133.133H198.826V125.164H199.925ZM199.925 133.704V138.187H198.797V134.642H191.15V133.704H199.925ZM212.376 132.21V133.147H203.367V126.292H212.229V127.259H204.539V129.192H211.951V130.115H204.539V132.21H212.376ZM213.753 135.535V136.487H201.829V135.535H213.753ZM226.717 135.608V136.575H214.793V135.608H220.154V133.147H216.287V129.134H224.08V127.083H216.258V126.131H225.208V130.071H217.43V132.195H225.516V133.147H221.282V135.608H226.717ZM241.98 128.665V129.588H238.025V130.848H243.387V131.785H231.521V130.848H236.883V129.588H233.104V125.677H241.849V126.629H234.261V128.665H241.98ZM241.863 132.898V135.799H234.129V137.117H242.259V138.04H232.986V134.949H240.735V133.777H232.957V132.898H241.863ZM247.972 126.175C249.891 126.189 251.253 127.947 251.268 130.716C251.253 133.484 249.891 135.242 247.972 135.242C246.038 135.242 244.69 133.484 244.69 130.716C244.69 127.947 246.038 126.189 247.972 126.175ZM247.972 127.2C246.683 127.215 245.774 128.592 245.774 130.716C245.774 132.84 246.683 134.217 247.972 134.217C249.275 134.217 250.154 132.84 250.154 130.716C250.154 128.592 249.275 127.215 247.972 127.2ZM254.563 125.164V130.364H256.746V131.36H254.563V138.187H253.421V125.164H254.563ZM267.527 125.164V130.467H269.637V131.434H267.527V138.187H266.385V125.164H267.527ZM264.158 126.57C264.158 130.262 262.43 133.616 258.182 135.711L257.537 134.803C260.906 133.125 262.737 130.621 263.001 127.537H258.138V126.57H264.158ZM281.18 125.164V138.187H280.022V125.164H281.18ZM277.327 126.585C277.312 130.335 275.569 133.646 271.204 135.74L270.574 134.803C274.097 133.133 275.892 130.635 276.155 127.522H271.175V126.585H277.327Z" fill="#71717A"/>
<rect x="962" y="916" width="123" height="58" rx="10" fill="#CBE2FF"/>
<path d="M999.266 937.766V951.891H997.531V937.766H999.266ZM987.562 947.969C988.688 947.961 989.961 947.961 991.297 947.922V946.625C989.703 946.375 988.672 945.398 988.672 944.062C988.672 942.469 990.078 941.406 992.141 941.406C994.219 941.406 995.656 942.469 995.656 944.062C995.656 945.391 994.617 946.359 993.031 946.609V947.859C994.273 947.805 995.523 947.703 996.703 947.547L996.828 948.844C993.719 949.375 990.359 949.406 987.812 949.406L987.562 947.969ZM996.453 939.391V940.766H987.859V939.391H991.297V937.812H993.031V939.391H996.453ZM992.141 942.734C991.078 942.75 990.312 943.234 990.328 944.062C990.312 944.875 991.078 945.359 992.141 945.344C993.25 945.359 993.984 944.875 993.984 944.062C993.984 943.234 993.25 942.75 992.141 942.734ZM1005.91 938.75C1008.14 938.734 1009.78 940.156 1009.8 942.156C1009.78 944.172 1008.14 945.578 1005.91 945.578C1003.69 945.578 1002.03 944.172 1002.03 942.156C1002.03 940.156 1003.69 938.734 1005.91 938.75ZM1005.91 940.25C1004.67 940.25 1003.75 940.984 1003.75 942.156C1003.75 943.344 1004.67 944.062 1005.91 944.062C1007.16 944.062 1008.09 943.344 1008.09 942.156C1008.09 940.984 1007.16 940.25 1005.91 940.25ZM1013.09 937.766V951.906H1011.36V937.766H1013.09ZM1001.39 947.531C1003.94 947.531 1007.47 947.5 1010.52 947.062L1010.66 948.328C1007.48 948.938 1004.09 948.953 1001.61 948.953L1001.39 947.531ZM1028.05 945.406V946.812H1015.14V945.406H1020.73V944.234H1016.78V940.484H1024.72V939.438H1016.73V938.078H1026.45V941.75H1018.5V942.875H1026.73V944.234H1022.45V945.406H1028.05ZM1026.53 947.703V951.797H1024.78V949.078H1016.58V947.703H1026.53ZM1037.84 940.219C1037.84 941.953 1038.97 943.672 1041.19 944.406L1040.31 945.75C1038.73 945.227 1037.61 944.164 1037 942.844C1036.37 944.289 1035.2 945.438 1033.55 946L1032.62 944.656C1034.91 943.906 1036.09 942.078 1036.09 940.219V940.047H1033.11V938.656H1040.78V940.047H1037.84V940.219ZM1043.92 937.766V941.297H1045.89V942.75H1043.92V946.281H1042.19V937.766H1043.92ZM1043.92 946.938V951.891H1042.19V948.328H1034.52V946.938H1043.92ZM1051.78 939.797C1051.77 941.719 1052.89 943.469 1055.11 944.172L1054.17 945.531C1052.63 944.992 1051.55 943.969 1050.95 942.625C1050.33 944.164 1049.15 945.375 1047.44 945.969L1046.52 944.562C1048.86 943.797 1050.03 941.906 1050.03 939.875V938.531H1051.78V939.797ZM1058.44 937.766V946.078H1056.7V941.922H1053.89V940.5H1056.7V937.766H1058.44ZM1053.66 946.453C1056.66 946.453 1058.48 947.453 1058.48 949.172C1058.48 950.891 1056.66 951.875 1053.66 951.875C1050.67 951.875 1048.84 950.891 1048.86 949.172C1048.84 947.453 1050.67 946.453 1053.66 946.453ZM1053.66 947.797C1051.69 947.797 1050.58 948.281 1050.58 949.172C1050.58 950.031 1051.69 950.516 1053.66 950.516C1055.62 950.516 1056.75 950.031 1056.75 949.172C1056.75 948.281 1055.62 947.797 1053.66 947.797Z" fill="#3B82F6"/>
<rect x="1106" y="917" width="147" height="56" rx="9" fill="#3B82F6"/>
<rect x="1106" y="917" width="147" height="56" rx="9" stroke="#3B82F6" stroke-width="2"/>
<path d="M1146.52 937.781V948.203H1144.78V944.656H1141.94V945.906H1135.33V938.703H1137.06V940.984H1140.22V938.703H1141.94V940.219H1144.78V937.781H1146.52ZM1146.83 950.203V951.609H1137.2V947.172H1138.97V950.203H1146.83ZM1137.06 944.531H1140.22V942.328H1137.06V944.531ZM1141.94 943.25H1144.78V941.625H1141.94V943.25ZM1160.34 937.781V946.031H1158.61V944.469H1155.25V943.062H1158.61V941.547H1155.39C1154.49 943.797 1152.44 945.367 1149.36 946.219L1148.66 944.844C1151.96 943.945 1153.72 942.273 1154 940.172H1149.41V938.766H1155.89C1155.89 939.258 1155.85 939.727 1155.77 940.172H1158.61V937.781H1160.34ZM1155.67 946.188C1158.53 946.188 1160.44 947.266 1160.44 949C1160.44 950.734 1158.53 951.812 1155.67 951.812C1152.78 951.812 1150.88 950.734 1150.88 949C1150.88 947.266 1152.78 946.188 1155.67 946.188ZM1155.67 947.547C1153.77 947.547 1152.61 948.062 1152.61 949C1152.61 949.922 1153.77 950.438 1155.67 950.438C1157.53 950.438 1158.7 949.922 1158.7 949C1158.7 948.062 1157.53 947.547 1155.67 947.547ZM1171.19 941.156C1171.17 943.672 1172.44 946.234 1174.62 947.281L1173.56 948.672C1172.03 947.898 1170.93 946.406 1170.33 944.609C1169.71 946.531 1168.55 948.125 1166.94 948.938L1165.88 947.547C1168.14 946.469 1169.44 943.766 1169.45 941.156V938.906H1171.19V941.156ZM1177.2 937.766V943.297H1179.38V944.781H1177.2V951.891H1175.47V937.766H1177.2ZM1191.11 937.766V941.484H1193.08V942.938H1191.11V946.781H1189.38V937.766H1191.11ZM1186.55 946.906C1189.44 946.906 1191.27 947.828 1191.27 949.391C1191.27 950.938 1189.44 951.875 1186.55 951.875C1183.61 951.875 1181.81 950.938 1181.83 949.391C1181.81 947.828 1183.61 946.906 1186.55 946.906ZM1186.55 948.234C1184.61 948.234 1183.53 948.609 1183.55 949.391C1183.53 950.141 1184.61 950.562 1186.55 950.562C1188.45 950.562 1189.53 950.141 1189.53 949.391C1189.53 948.609 1188.45 948.234 1186.55 948.234ZM1188.36 939.203V940.562H1179.98V939.203H1183.31V937.672H1185.05V939.203H1188.36ZM1184.17 941.125C1186.22 941.125 1187.61 942.141 1187.62 943.656C1187.61 945.172 1186.22 946.172 1184.17 946.172C1182.11 946.172 1180.7 945.172 1180.7 943.656C1180.7 942.141 1182.11 941.125 1184.17 941.125ZM1184.17 942.406C1183.09 942.406 1182.39 942.875 1182.39 943.656C1182.39 944.422 1183.09 944.859 1184.17 944.859C1185.25 944.859 1185.97 944.422 1185.97 943.656C1185.97 942.875 1185.25 942.406 1184.17 942.406ZM1209.44 937.766V951.906H1207.7V944.188H1204.98V942.766H1207.7V937.766H1209.44ZM1202.78 941.516C1202.78 943.953 1204.09 946.547 1206.38 947.531L1205.34 948.922C1203.7 948.141 1202.53 946.57 1201.92 944.703C1201.29 946.695 1200.09 948.375 1198.45 949.203L1197.41 947.844C1199.67 946.781 1201 944.094 1201.02 941.516V940.578H1197.98V939.156H1205.81V940.578H1202.78V941.516ZM1216.48 940.312C1216.48 942.047 1217.61 943.672 1219.81 944.344L1218.98 945.703C1217.4 945.211 1216.27 944.203 1215.66 942.922C1215.03 944.406 1213.84 945.586 1212.14 946.156L1211.27 944.781C1213.55 944.031 1214.73 942.203 1214.73 940.328V940.156H1211.75V938.75H1219.42V940.156H1216.48V940.312ZM1222.56 937.766V941.156H1224.53V942.578H1222.56V946.188H1220.83V937.766H1222.56ZM1217.97 946.5C1220.89 946.5 1222.69 947.484 1222.7 949.172C1222.69 950.875 1220.89 951.875 1217.97 951.875C1215.02 951.875 1213.19 950.875 1213.19 949.172C1213.19 947.484 1215.02 946.5 1217.97 946.5ZM1217.97 947.859C1216.03 947.859 1214.92 948.312 1214.92 949.172C1214.92 950.047 1216.03 950.516 1217.97 950.516C1219.91 950.516 1220.98 950.047 1220.98 949.172C1220.98 948.312 1219.91 947.859 1217.97 947.859Z" fill="#CBE2FF"/>
<path d="M199.605 281.244V296.994H197.936V281.244H199.605ZM186.668 292.705C187.96 292.696 189.445 292.688 190.992 292.635V291.07C189.146 290.833 187.951 289.752 187.969 288.205C187.951 286.43 189.498 285.252 191.783 285.252C194.086 285.252 195.668 286.43 195.668 288.205C195.668 289.734 194.473 290.807 192.645 291.053V292.582C194.104 292.521 195.58 292.406 196.969 292.23L197.092 293.479C193.594 294.059 189.779 294.094 186.896 294.094L186.668 292.705ZM196.617 283.125V284.461H187.002V283.125H190.992V281.279H192.662V283.125H196.617ZM191.783 286.553C190.465 286.553 189.533 287.203 189.551 288.205C189.533 289.207 190.465 289.822 191.783 289.822C193.137 289.822 194.068 289.207 194.068 288.205C194.068 287.203 193.137 286.553 191.783 286.553ZM207.27 282.369C209.766 282.352 211.541 283.898 211.559 286.113C211.541 288.328 209.766 289.875 207.27 289.875C204.791 289.875 202.963 288.328 202.98 286.113C202.963 283.898 204.791 282.352 207.27 282.369ZM207.27 283.811C205.74 283.811 204.615 284.725 204.633 286.113C204.615 287.502 205.74 288.416 207.27 288.416C208.799 288.416 209.924 287.502 209.924 286.113C209.924 284.725 208.799 283.811 207.27 283.811ZM215.162 281.244V297.029H213.492V281.244H215.162ZM202.225 292.248C205.09 292.248 209.062 292.213 212.508 291.721L212.631 292.934C209.062 293.619 205.248 293.637 202.436 293.637L202.225 292.248ZM234.621 281.895V287.291H230.086V289.119H236.449V290.473H222.088V289.119H228.434V287.291H223.916V281.895H234.621ZM225.551 283.213V285.955H232.969V283.213H225.551ZM234.691 291.967V296.994H233.004V293.285H223.688V291.967H234.691ZM252.059 293.76V295.131H237.645V293.76H241.512V290.262H238.91V288.908H241.266V284.004H238.875V282.633H250.74V284.004H248.332V288.908H250.688V290.262H248.104V293.76H252.059ZM242.918 288.908H246.697V284.004H242.918V288.908ZM243.182 293.76H246.434V290.262H243.182V293.76Z" fill="#18181B"/>
<rect x="274.5" y="261.5" width="978" height="55" rx="8.5" stroke="#FAFAFA" stroke-width="3"/>
<path d="M296.084 294V283.395H297.695V287.994H302.969V283.395H304.58V294H302.969V289.371H297.695V294H296.084ZM313.926 286.852C313.662 285.489 312.534 284.728 311.187 284.728C309.355 284.728 307.993 286.134 307.993 288.697C307.993 291.275 309.37 292.667 311.187 292.667C312.52 292.667 313.647 291.92 313.926 290.572L315.552 290.587C315.215 292.682 313.501 294.146 311.172 294.146C308.403 294.146 306.396 292.081 306.396 288.697C306.396 285.299 308.418 283.248 311.172 283.248C313.413 283.248 315.186 284.566 315.552 286.852H313.926ZM320.737 294H317.295V283.395H320.84C323.96 283.395 325.835 285.387 325.835 288.683C325.835 291.993 323.96 294 320.737 294ZM318.906 292.594H320.649C323.052 292.594 324.238 291.188 324.238 288.683C324.238 286.192 323.052 284.801 320.737 284.801H318.906V292.594ZM346.387 292.433V293.604H334.375V292.433H346.387ZM345.288 283.38V284.522H343.281V288.902H345.244V290.016H335.43V288.902H337.393V284.522H335.4V283.38H345.288ZM338.77 288.902H341.919V284.522H338.77V288.902ZM352.422 283.526V288.199H349.097V290.895C350.525 290.887 351.887 290.836 353.506 290.543L353.623 291.686C351.807 292.008 350.312 292.052 348.657 292.066H347.749V287.086H351.089V284.654H347.734V283.526H352.422ZM358.604 282.12V295.245H357.271V282.12H358.604ZM355.908 282.413V294.571H354.59V287.892H353.037V286.764H354.59V282.413H355.908ZM371.187 282.135V289.605H369.795V282.135H371.187ZM371.187 290.265V295.084H362.559V290.265H371.187ZM363.936 291.378V293.956H369.824V291.378H363.936ZM364.067 282.794C366.074 282.794 367.554 284.054 367.554 285.899C367.554 287.701 366.074 288.976 364.067 288.976C362.061 288.976 360.566 287.701 360.566 285.899C360.566 284.054 362.061 282.794 364.067 282.794ZM364.067 283.966C362.822 283.966 361.929 284.728 361.929 285.899C361.929 287.027 362.822 287.804 364.067 287.804C365.298 287.804 366.191 287.027 366.191 285.899C366.191 284.728 365.298 283.966 364.067 283.966ZM387.9 282.135V295.245H386.494V292.11H383.594V291.056H386.494V282.135H387.9ZM376.87 288.961C379.36 288.946 382.671 288.932 385.542 288.536L385.615 289.562C384.37 289.781 383.074 289.913 381.807 289.986V294.835H380.415V290.06C379.214 290.111 378.071 290.118 377.061 290.118L376.87 288.961ZM381.191 282.735C383.125 282.735 384.517 283.805 384.517 285.357C384.517 286.939 383.125 287.965 381.191 287.965C379.214 287.965 377.837 286.939 377.837 285.357C377.837 283.805 379.214 282.735 381.191 282.735ZM381.191 283.805C379.976 283.805 379.141 284.435 379.155 285.357C379.141 286.295 379.976 286.896 381.191 286.896C382.363 286.896 383.198 286.295 383.198 285.357C383.198 284.435 382.363 283.805 381.191 283.805ZM400.454 283.395V284.991C400.454 286.91 400.454 288.712 399.883 291.437L398.506 291.305C398.784 290.104 398.931 289.049 399.004 288.067L391.123 288.492L390.947 287.35L399.077 287.042C399.099 286.339 399.099 285.665 399.106 284.991V284.537H391.313V283.395H400.454ZM401.86 292.345V293.487H389.893V292.345H401.86ZM411.001 283.395V294H409.375V285.006H409.316L406.782 286.661V285.123L409.419 283.395H411.001ZM417.739 286.339C417.739 288.36 418.97 290.499 420.933 291.437L420.142 292.491C418.713 291.817 417.637 290.448 417.08 288.844C416.501 290.58 415.359 292.03 413.857 292.726L413.081 291.656C415.073 290.748 416.377 288.507 416.377 286.339V285.475H413.477V284.361H416.362V282.384H417.769V284.361H420.625V285.475H417.739V286.339ZM423.467 282.12V287.408H425.576V288.58H423.467V295.245H422.075V282.12H423.467ZM441.133 282.12V295.245H439.8V282.12H441.133ZM438.467 282.398V294.586H437.148V287.906H435.112V286.764H437.148V282.398H438.467ZM433.823 285.782C433.823 288.023 434.731 290.265 436.577 291.334L435.742 292.359C434.49 291.612 433.625 290.287 433.179 288.697C432.703 290.411 431.809 291.869 430.527 292.667L429.678 291.627C431.538 290.499 432.49 288.111 432.49 285.782V284.728H430.073V283.6H436.079V284.728H433.823V285.782ZM447.417 284.479C447.417 286.148 448.574 287.745 450.581 288.419L449.878 289.503C448.391 288.99 447.3 287.965 446.729 286.676C446.157 288.097 445.022 289.21 443.477 289.752L442.729 288.668C444.78 287.965 446.011 286.28 446.025 284.464V284.112H443.14V282.984H450.244V284.112H447.417V284.479ZM453.145 282.12V285.489H455.049V286.661H453.145V290.03H451.753V282.12H453.145ZM453.145 290.675V295.245H451.753V291.803H444.473V290.675H453.145Z" fill="#18181B"/>
<path d="M200.605 736.244V751.994H198.936V736.244H200.605ZM187.668 747.705C188.96 747.696 190.445 747.688 191.992 747.635V746.07C190.146 745.833 188.951 744.752 188.969 743.205C188.951 741.43 190.498 740.252 192.783 740.252C195.086 740.252 196.668 741.43 196.668 743.205C196.668 744.734 195.473 745.807 193.645 746.053V747.582C195.104 747.521 196.58 747.406 197.969 747.23L198.092 748.479C194.594 749.059 190.779 749.094 187.896 749.094L187.668 747.705ZM197.617 738.125V739.461H188.002V738.125H191.992V736.279H193.662V738.125H197.617ZM192.783 741.553C191.465 741.553 190.533 742.203 190.551 743.205C190.533 744.207 191.465 744.822 192.783 744.822C194.137 744.822 195.068 744.207 195.068 743.205C195.068 742.203 194.137 741.553 192.783 741.553ZM208.27 737.369C210.766 737.352 212.541 738.898 212.559 741.113C212.541 743.328 210.766 744.875 208.27 744.875C205.791 744.875 203.963 743.328 203.98 741.113C203.963 738.898 205.791 737.352 208.27 737.369ZM208.27 738.811C206.74 738.811 205.615 739.725 205.633 741.113C205.615 742.502 206.74 743.416 208.27 743.416C209.799 743.416 210.924 742.502 210.924 741.113C210.924 739.725 209.799 738.811 208.27 738.811ZM216.162 736.244V752.029H214.492V736.244H216.162ZM203.225 747.248C206.09 747.248 210.062 747.213 213.508 746.721L213.631 747.934C210.062 748.619 206.248 748.637 203.436 748.637L203.225 747.248ZM235.463 736.227V740.938H237.748V742.344H235.463V747.811H233.793V736.227H235.463ZM236.131 750.307V751.66H225.479V746.598H227.148V750.307H236.131ZM227.518 737.316C229.891 737.316 231.701 738.934 231.719 741.236C231.701 743.521 229.891 745.156 227.518 745.156C225.145 745.156 223.316 743.521 223.334 741.236C223.316 738.934 225.145 737.316 227.518 737.316ZM227.518 738.775C226.076 738.775 224.951 739.777 224.969 741.236C224.951 742.695 226.076 743.697 227.518 743.697C228.977 743.697 230.084 742.695 230.084 741.236C230.084 739.777 228.977 738.775 227.518 738.775ZM251.775 736.262V747.863H250.105V742.396H246.836V741.008H250.105V736.262H251.775ZM246.941 737.439C246.924 741.553 244.094 744.646 239.576 746.105L238.873 744.77C242.38 743.636 244.762 741.491 245.113 738.828H239.682V737.439H246.941ZM252.18 750.307V751.66H241.633V746.668H243.32V750.307H252.18ZM259.58 737.773V750.5H257.629V739.707H257.559L254.518 741.693V739.848L257.682 737.773H259.58Z" fill="#18181B"/>
<rect x="275.5" y="716.5" width="977" height="55" rx="8.5" stroke="#FAFAFA" stroke-width="3"/>
<path d="M307.353 737.12V750.274H305.961V737.12H307.353ZM303.603 738.336V739.493H298.725V745.865C301.215 745.858 302.804 745.792 304.657 745.455L304.804 746.612C302.841 746.964 301.127 747.052 298.402 747.052H297.318V738.336H303.603ZM320.639 737.12V746.935H319.32V737.12H320.639ZM318.075 737.354V746.539H316.757V741.896H315.131V744.444H310.004V738.38H315.131V740.753H316.757V737.354H318.075ZM321.02 748.839V749.967H311.938V745.719H313.314V748.839H321.02ZM311.308 739.479V743.36H313.842V739.479H311.308ZM333.354 737.135V746.744H331.962V741.808H329.457V740.68H331.962V737.135H333.354ZM333.705 748.839V749.967H324.828V745.88H326.22V748.839H333.705ZM327.113 739.786C327.113 741.427 328.3 743.067 330.277 743.727L329.56 744.84C328.087 744.32 326.996 743.265 326.425 741.969C325.854 743.412 324.704 744.576 323.144 745.133L322.426 744.005C324.447 743.316 325.692 741.588 325.692 739.786V739.273H322.851V738.131H329.926V739.273H327.113V739.786ZM349.599 738.395V739.991C349.599 741.91 349.599 743.712 349.027 746.437L347.65 746.305C347.929 745.104 348.075 744.049 348.148 743.067L340.268 743.492L340.092 742.35L348.222 742.042C348.244 741.339 348.244 740.665 348.251 739.991V739.537H340.458V738.395H349.599ZM351.005 747.345V748.487H339.037V747.345H351.005ZM362.914 737.12V750.245H361.508V737.12H362.914ZM359.003 738.526C359.003 742.364 357.362 745.704 352.865 747.857L352.133 746.729C355.626 745.067 357.326 742.701 357.597 739.64H352.763V738.526H359.003ZM378.939 737.12V739.859H380.844V741.017H378.939V743.756H377.548V737.12H378.939ZM378.939 744.356V747.682H371.85V748.971H379.394V750.084H370.487V746.642H377.562V745.44H370.458V744.356H378.939ZM372.274 737.574C374.267 737.574 375.717 738.775 375.717 740.504C375.717 742.232 374.267 743.434 372.274 743.434C370.282 743.434 368.817 742.232 368.832 740.504C368.817 738.775 370.282 737.574 372.274 737.574ZM372.274 738.717C371.059 738.717 370.18 739.435 370.18 740.504C370.18 741.573 371.059 742.32 372.274 742.32C373.476 742.32 374.369 741.573 374.369 740.504C374.369 739.435 373.476 738.717 372.274 738.717ZM385.106 738.102C387.069 738.102 388.461 739.889 388.476 742.701C388.461 745.528 387.069 747.315 385.106 747.315C383.144 747.315 381.737 745.528 381.752 742.701C381.737 739.889 383.144 738.102 385.106 738.102ZM385.106 739.347C383.905 739.347 383.085 740.636 383.085 742.701C383.085 744.781 383.905 746.07 385.106 746.07C386.322 746.07 387.143 744.781 387.143 742.701C387.143 740.636 386.322 739.347 385.106 739.347ZM391.815 737.12V742.262H393.925V743.434H391.815V750.245H390.424V737.12H391.815ZM406.566 747.462V748.619H394.555V747.462H399.843V744.767H395.932V738.014H397.323V740.27H403.769V738.014H405.146V744.767H401.22V747.462H406.566ZM397.323 743.639H403.769V741.397H397.323V743.639ZM418.432 737.12V750.245H417.025V737.12H418.432ZM414.521 738.526C414.521 742.364 412.88 745.704 408.383 747.857L407.65 746.729C411.144 745.067 412.843 742.701 413.114 739.64H408.28V738.526H414.521Z" fill="#18181B"/>
<path d="M192.1 533.496C192.1 535.324 193.523 537.012 195.932 537.697L195.158 538.998C193.339 538.462 191.994 537.354 191.291 535.922C190.605 537.504 189.226 538.726 187.354 539.297L186.545 537.996C188.953 537.293 190.447 535.482 190.447 533.496V533.338H187.02V532.002H190.447V530.174H192.117V532.002H195.527V533.338H192.1V533.496ZM198.955 530.244V534.146H201.24V535.535H198.955V539.543H197.285V530.244H198.955ZM198.955 540.246V545.801H188.9V540.246H198.955ZM190.535 541.564V544.447H197.303V541.564H190.535ZM214.881 531.756V533.303C214.881 535.254 214.881 537.434 214.283 540.65L212.596 540.475C213.211 537.434 213.211 535.201 213.211 533.303V533.109H203.648V531.756H214.881ZM216.498 542.479V543.867H202.137V542.479H207.604V536.924H209.256V542.479H216.498ZM227.572 534.885C227.572 537.381 229.207 540.158 231.598 541.283L230.648 542.584C228.882 541.731 227.484 539.956 226.781 537.891C226.052 540.149 224.575 542.092 222.773 542.988L221.789 541.67C224.18 540.527 225.92 537.557 225.92 534.885V533.215H222.369V531.826H231V533.215H227.572V534.885ZM234.357 530.244V536.484H236.889V537.891H234.357V545.994H232.688V530.244H234.357ZM252.059 542.707V544.113H237.645V542.707H241.582V539.93H239.402V534.92H248.648V532.723H239.367V531.352H250.301V536.273H241.055V538.559H250.67V539.93H248.279V542.707H252.059ZM243.199 542.707H246.645V539.93H243.199V542.707Z" fill="#18181B"/>
<rect x="274.5" y="510.5" width="855" height="55" rx="8.5" stroke="#FAFAFA" stroke-width="3"/>
<path d="M325.427 531.94C325.427 535.31 323.039 537.668 319.157 538.693L318.601 537.595C321.765 536.774 323.684 535.134 323.933 533.054H319.333V531.94H325.427ZM329.367 531.135V538.518H327.976V531.135H329.367ZM329.367 539.104V544.069H320.769V539.104H329.367ZM322.146 540.217V542.956H328.005V540.217H322.146ZM336.003 534.46C335.988 536.789 337.336 539.162 339.299 540.114L338.435 541.228C337.006 540.488 335.9 539.016 335.329 537.258C334.736 539.133 333.586 540.7 332.092 541.477L331.228 540.349C333.249 539.382 334.611 536.862 334.611 534.46V532.219H336.003V534.46ZM341.672 531.12V536.35H343.781V537.536H341.672V544.245H340.28V531.12H341.672ZM354.724 531.135V534.343H356.643V535.5H354.724V539.03H353.332V531.135H354.724ZM350.915 531.926V535.603H346.345V537.199C348.623 537.192 350.234 537.111 352.146 536.789L352.292 537.917C350.256 538.283 348.527 538.356 346.008 538.342H344.953V534.533H349.553V533.054H344.938V531.926H350.915ZM350.476 539.382C353.171 539.382 354.841 540.29 354.841 541.813C354.841 543.337 353.171 544.216 350.476 544.216C347.736 544.216 346.066 543.337 346.066 541.813C346.066 540.29 347.736 539.382 350.476 539.382ZM350.476 540.48C348.557 540.48 347.429 540.964 347.429 541.813C347.429 542.663 348.557 543.161 350.476 543.146C352.38 543.161 353.479 542.663 353.479 541.813C353.479 540.964 352.38 540.48 350.476 540.48ZM373.049 541.433V542.604H361.037V541.433H373.049ZM371.95 532.38V533.522H369.943V537.902H371.906V539.016H362.092V537.902H364.055V533.522H362.062V532.38H371.95ZM365.432 537.902H368.581V533.522H365.432V537.902ZM379.084 532.526V537.199H375.759V539.895C377.187 539.887 378.549 539.836 380.168 539.543L380.285 540.686C378.469 541.008 376.975 541.052 375.319 541.066H374.411V536.086H377.751V533.654H374.396V532.526H379.084ZM385.266 531.12V544.245H383.933V531.12H385.266ZM382.57 531.413V543.571H381.252V536.892H379.699V535.764H381.252V531.413H382.57ZM397.849 531.135V538.605H396.457V531.135H397.849ZM397.849 539.265V544.084H389.221V539.265H397.849ZM390.598 540.378V542.956H396.486V540.378H390.598ZM390.729 531.794C392.736 531.794 394.216 533.054 394.216 534.899C394.216 536.701 392.736 537.976 390.729 537.976C388.723 537.976 387.229 536.701 387.229 534.899C387.229 533.054 388.723 531.794 390.729 531.794ZM390.729 532.966C389.484 532.966 388.591 533.728 388.591 534.899C388.591 536.027 389.484 536.804 390.729 536.804C391.96 536.804 392.854 536.027 392.854 534.899C392.854 533.728 391.96 532.966 390.729 532.966ZM410.9 531.135V544.245H409.494V541.11H406.594V540.056H409.494V531.135H410.9ZM399.87 537.961C402.36 537.946 405.671 537.932 408.542 537.536L408.615 538.562C407.37 538.781 406.074 538.913 404.807 538.986V543.835H403.415V539.06C402.214 539.111 401.071 539.118 400.061 539.118L399.87 537.961ZM404.191 531.735C406.125 531.735 407.517 532.805 407.517 534.357C407.517 535.939 406.125 536.965 404.191 536.965C402.214 536.965 400.837 535.939 400.837 534.357C400.837 532.805 402.214 531.735 404.191 531.735ZM404.191 532.805C402.976 532.805 402.141 533.435 402.155 534.357C402.141 535.295 402.976 535.896 404.191 535.896C405.363 535.896 406.198 535.295 406.198 534.357C406.198 533.435 405.363 532.805 404.191 532.805ZM423.454 532.395V533.991C423.454 535.91 423.454 537.712 422.883 540.437L421.506 540.305C421.784 539.104 421.931 538.049 422.004 537.067L414.123 537.492L413.947 536.35L422.077 536.042C422.099 535.339 422.099 534.665 422.106 533.991V533.537H414.313V532.395H423.454ZM424.86 541.345V542.487H412.893V541.345H424.86ZM441.53 541.491V542.634H429.519V541.491H434.821V538.635H436.198V541.491H441.53ZM440.417 533.112V534.24H436.213C436.271 536.079 438.22 537.602 440.915 538.005L440.388 539.089C438.198 538.745 436.367 537.705 435.51 536.174C434.653 537.705 432.829 538.745 430.632 539.089L430.104 538.005C432.8 537.602 434.733 536.079 434.807 534.24H430.603V533.112H434.821V531.354H436.198V533.112H440.417ZM452.795 531.105V535.031H454.699V536.203H452.795V540.759H451.403V531.105H452.795ZM453.352 542.839V543.967H444.475V539.748H445.866V542.839H453.352ZM446.174 532.014C448.151 532.014 449.66 533.361 449.675 535.28C449.66 537.185 448.151 538.547 446.174 538.547C444.196 538.547 442.673 537.185 442.688 535.28C442.673 533.361 444.196 532.014 446.174 532.014ZM446.174 533.229C444.973 533.229 444.035 534.064 444.05 535.28C444.035 536.496 444.973 537.331 446.174 537.331C447.39 537.331 448.312 536.496 448.312 535.28C448.312 534.064 447.39 533.229 446.174 533.229ZM456.94 543.103C456.369 543.103 455.886 542.634 455.9 542.062C455.886 541.491 456.369 541.022 456.94 541.022C457.497 541.022 457.98 541.491 457.98 542.062C457.98 542.634 457.497 543.103 456.94 543.103ZM459.87 545.988V535.046H461.394V536.335H461.525C461.804 535.837 462.346 534.943 463.811 534.943C465.729 534.943 467.15 536.452 467.15 539.045C467.15 541.608 465.759 543.161 463.825 543.161C462.375 543.161 461.804 542.282 461.525 541.755H461.438V545.988H459.87ZM461.408 539.016C461.408 540.686 462.141 541.828 463.474 541.828C464.851 541.828 465.568 540.612 465.568 539.016C465.568 537.448 464.865 536.276 463.474 536.276C462.126 536.276 461.408 537.36 461.408 539.016ZM471.677 543.161C469.758 543.161 468.352 541.608 468.352 539.045C468.352 536.452 469.772 534.943 471.691 534.943C473.171 534.943 473.713 535.837 473.991 536.335H474.064V532.395H475.632V543H474.108V541.755H473.991C473.698 542.282 473.127 543.161 471.677 543.161ZM472.028 541.828C473.361 541.828 474.108 540.686 474.108 539.016C474.108 537.36 473.376 536.276 472.028 536.276C470.637 536.276 469.948 537.448 469.948 539.016C469.948 540.612 470.666 541.828 472.028 541.828ZM481.462 535.046V536.291H479.748V543H478.181V536.291H476.95V535.046H478.181V534.123C478.181 532.702 479.089 531.896 480.554 531.896C480.935 531.896 481.315 531.94 481.623 531.999V533.303C481.33 533.259 481.11 533.244 480.964 533.244C480.129 533.244 479.748 533.581 479.748 534.357V535.046H481.462Z" fill="#18181B"/>
<path d="M318 545.351H481.931V546.486H318V545.351Z" fill="#18181B"/>
<g clip-path="url(#clip0_1004_7449)">
<path d="M309.25 533.807L308.193 532.75L304 536.943L299.807 532.75L298.75 533.807L302.943 538L298.75 542.193L299.807 543.25L304 539.057L308.193 543.25L309.25 542.193L305.057 538L309.25 533.807Z" fill="#18181B"/>
</g>
<rect x="1151" y="509" width="103" height="58" rx="10" fill="#D5D9DE"/>
<path d="M1187.17 532.147C1188.88 532.133 1190.23 533.122 1190.57 534.579H1192.96V531.562H1194.58V538.666H1192.96V535.897H1190.58C1190.25 537.384 1188.89 538.388 1187.17 538.388C1185.13 538.388 1183.67 537.084 1183.67 535.253C1183.67 533.451 1185.13 532.133 1187.17 532.147ZM1187.17 533.51C1186.03 533.51 1185.22 534.184 1185.22 535.253C1185.22 536.308 1186.03 537.011 1187.17 537.011C1188.28 537.011 1189.07 536.308 1189.09 535.253C1189.07 534.184 1188.28 533.51 1187.17 533.51ZM1187.46 539.281V540.688H1192.96V539.281H1194.58V544.643H1185.85V539.281H1187.46ZM1187.46 543.324H1192.96V541.947H1187.46V543.324ZM1208.56 541.918V543.266H1196.46V541.918H1201.67V539.765H1197.89V535.429H1205.51V533.788H1197.86V532.47H1207.12V536.718H1199.52V538.432H1207.43V539.765H1203.28V541.918H1208.56ZM1220.17 537.772V539.076H1210.89V532.719H1220.07V534.037H1212.5V537.772H1220.17ZM1221.52 541.771V543.119H1209.42V541.771H1221.52Z" fill="#696969"/>
<path d="M192.1 450.496C192.1 452.324 193.523 454.012 195.932 454.697L195.158 455.998C193.339 455.462 191.994 454.354 191.291 452.922C190.605 454.504 189.226 455.726 187.354 456.297L186.545 454.996C188.953 454.293 190.447 452.482 190.447 450.496V450.338H187.02V449.002H190.447V447.174H192.117V449.002H195.527V450.338H192.1V450.496ZM198.955 447.244V451.146H201.24V452.535H198.955V456.543H197.285V447.244H198.955ZM198.955 457.246V462.801H188.9V457.246H198.955ZM190.535 458.564V461.447H197.303V458.564H190.535ZM206.408 448.422C207.841 448.422 209.027 449.248 209.73 450.672H213.615V447.244H215.268V463.029H213.615V456.982H209.836C209.159 458.564 207.92 459.479 206.408 459.479C204.053 459.479 202.4 457.334 202.418 453.941C202.4 450.566 204.053 448.422 206.408 448.422ZM206.408 449.916C204.984 449.916 204 451.463 204 453.941C204 456.438 204.984 457.984 206.408 457.984C207.832 457.984 208.816 456.438 208.816 453.941C208.816 451.463 207.832 449.916 206.408 449.916ZM210.205 452.043C210.319 452.623 210.398 453.256 210.398 453.941C210.398 454.539 210.346 455.093 210.24 455.611H213.615V452.043H210.205ZM223.178 451.885C223.178 454.381 224.812 457.158 227.203 458.283L226.254 459.584C224.487 458.731 223.09 456.956 222.387 454.891C221.657 457.149 220.181 459.092 218.379 459.988L217.395 458.67C219.785 457.527 221.525 454.557 221.525 451.885V450.215H217.975V448.826H226.605V450.215H223.178V451.885ZM229.963 447.244V453.484H232.494V454.891H229.963V462.994H228.293V447.244H229.963Z" fill="#18181B"/>
<rect x="274.5" y="427.5" width="412" height="55" rx="8.5" stroke="#FAFAFA" stroke-width="3"/>
<path d="M302.427 448.94C302.427 452.31 300.039 454.668 296.157 455.693L295.601 454.595C298.765 453.774 300.684 452.134 300.933 450.054H296.333V448.94H302.427ZM306.367 448.135V455.518H304.976V448.135H306.367ZM306.367 456.104V461.069H297.769V456.104H306.367ZM299.146 457.217V459.956H305.005V457.217H299.146ZM313.003 451.46C312.988 453.789 314.336 456.162 316.299 457.114L315.435 458.228C314.006 457.488 312.9 456.016 312.329 454.258C311.736 456.133 310.586 457.7 309.092 458.477L308.228 457.349C310.249 456.382 311.611 453.862 311.611 451.46V449.219H313.003V451.46ZM318.672 448.12V453.35H320.781V454.536H318.672V461.245H317.28V448.12H318.672ZM331.724 448.135V451.343H333.643V452.5H331.724V456.03H330.332V448.135H331.724ZM327.915 448.926V452.603H323.345V454.199C325.623 454.192 327.234 454.111 329.146 453.789L329.292 454.917C327.256 455.283 325.527 455.356 323.008 455.342H321.953V451.533H326.553V450.054H321.938V448.926H327.915ZM327.476 456.382C330.171 456.382 331.841 457.29 331.841 458.813C331.841 460.337 330.171 461.216 327.476 461.216C324.736 461.216 323.066 460.337 323.066 458.813C323.066 457.29 324.736 456.382 327.476 456.382ZM327.476 457.48C325.557 457.48 324.429 457.964 324.429 458.813C324.429 459.663 325.557 460.161 327.476 460.146C329.38 460.161 330.479 459.663 330.479 458.813C330.479 457.964 329.38 457.48 327.476 457.48ZM336.733 458.989L335.562 463.032H334.316L335.093 458.989H336.733ZM348.818 448.94C348.818 452.31 346.431 454.668 342.549 455.693L341.992 454.595C345.156 453.774 347.075 452.134 347.324 450.054H342.725V448.94H348.818ZM352.759 448.135V455.518H351.367V448.135H352.759ZM352.759 456.104V461.069H344.16V456.104H352.759ZM345.537 457.217V459.956H351.396V457.217H345.537ZM366.104 448.12V461.245H364.771V448.12H366.104ZM363.438 448.398V460.586H362.119V453.906H360.083V452.764H362.119V448.398H363.438ZM358.794 451.782C358.794 454.023 359.702 456.265 361.548 457.334L360.713 458.359C359.46 457.612 358.596 456.287 358.149 454.697C357.673 456.411 356.78 457.869 355.498 458.667L354.648 457.627C356.509 456.499 357.461 454.111 357.461 451.782V450.728H355.044V449.6H361.05V450.728H358.794V451.782ZM378.115 448.135V451.401H380.034V452.573H378.115V455.942H376.724V448.135H378.115ZM378.115 456.558V461.084H369.707V456.558H378.115ZM371.069 457.642V459.956H376.768V457.642H371.069ZM374.307 448.823V452.529H369.736V454.17C372.014 454.163 373.625 454.097 375.537 453.774L375.684 454.888C373.647 455.254 371.919 455.327 369.399 455.327H368.345V451.475H372.944V449.937H368.33V448.823H374.307Z" fill="#18181B"/>
<path d="M777.676 447.244V462.994H775.988V447.244H777.676ZM772.982 448.932C772.982 453.537 771.014 457.545 765.617 460.129L764.738 458.775C768.931 456.78 770.97 453.941 771.295 450.268H765.494V448.932H772.982ZM794.533 455.84V457.193H780.119V455.84H786.5V454.346H781.965V450.338H791.053V448.932H781.93V447.613H792.723V451.568H783.617V453.045H793.039V454.346H788.152V455.84H794.533ZM792.811 458.301V462.871H791.123V459.637H781.736V458.301H792.811ZM801.178 451.885C801.178 454.381 802.812 457.158 805.203 458.283L804.254 459.584C802.487 458.731 801.09 456.956 800.387 454.891C799.657 457.149 798.181 459.092 796.379 459.988L795.395 458.67C797.785 457.527 799.525 454.557 799.525 451.885V450.215H795.975V448.826H804.605V450.215H801.178V451.885ZM807.963 447.244V453.484H810.494V454.891H807.963V462.994H806.293V447.244H807.963Z" fill="#18181B"/>
<rect x="835.5" y="427.5" width="416" height="55" rx="8.5" stroke="#FAFAFA" stroke-width="3"/>
<path d="M863.427 448.94C863.427 452.31 861.039 454.668 857.157 455.693L856.601 454.595C859.765 453.774 861.684 452.134 861.933 450.054H857.333V448.94H863.427ZM867.367 448.135V455.518H865.976V448.135H867.367ZM867.367 456.104V461.069H858.769V456.104H867.367ZM860.146 457.217V459.956H866.005V457.217H860.146ZM880.712 448.12V461.245H879.379V448.12H880.712ZM878.046 448.398V460.586H876.728V453.906H874.691V452.764H876.728V448.398H878.046ZM873.402 451.782C873.402 454.023 874.311 456.265 876.156 457.334L875.321 458.359C874.069 457.612 873.205 456.287 872.758 454.697C872.282 456.411 871.388 457.869 870.106 458.667L869.257 457.627C871.117 456.499 872.069 454.111 872.069 451.782V450.728H869.652V449.6H875.658V450.728H873.402V451.782ZM892.724 448.135V451.401H894.643V452.573H892.724V455.942H891.332V448.135H892.724ZM892.724 456.558V461.084H884.315V456.558H892.724ZM885.678 457.642V459.956H891.376V457.642H885.678ZM888.915 448.823V452.529H884.345V454.17C886.623 454.163 888.234 454.097 890.146 453.774L890.292 454.888C888.256 455.254 886.527 455.327 884.008 455.327H882.953V451.475H887.553V449.937H882.938V448.823H888.915Z" fill="#18181B"/>
<path d="M199.605 363.758V379.508H197.936V363.758H199.605ZM186.668 375.219C187.96 375.21 189.445 375.201 190.992 375.148V373.584C189.146 373.347 187.951 372.266 187.969 370.719C187.951 368.943 189.498 367.766 191.783 367.766C194.086 367.766 195.668 368.943 195.668 370.719C195.668 372.248 194.473 373.32 192.645 373.566V375.096C194.104 375.034 195.58 374.92 196.969 374.744L197.092 375.992C193.594 376.572 189.779 376.607 186.896 376.607L186.668 375.219ZM196.617 365.639V366.975H187.002V365.639H190.992V363.793H192.662V365.639H196.617ZM191.783 369.066C190.465 369.066 189.533 369.717 189.551 370.719C189.533 371.721 190.465 372.336 191.783 372.336C193.137 372.336 194.068 371.721 194.068 370.719C194.068 369.717 193.137 369.066 191.783 369.066ZM207.27 364.883C209.766 364.865 211.541 366.412 211.559 368.627C211.541 370.842 209.766 372.389 207.27 372.389C204.791 372.389 202.963 370.842 202.98 368.627C202.963 366.412 204.791 364.865 207.27 364.883ZM207.27 366.324C205.74 366.324 204.615 367.238 204.633 368.627C204.615 370.016 205.74 370.93 207.27 370.93C208.799 370.93 209.924 370.016 209.924 368.627C209.924 367.238 208.799 366.324 207.27 366.324ZM215.162 363.758V379.543H213.492V363.758H215.162ZM202.225 374.762C205.09 374.762 209.062 374.727 212.508 374.234L212.631 375.447C209.062 376.133 205.248 376.15 202.436 376.15L202.225 374.762ZM234.463 363.758V366.922H236.748V368.328H234.463V371.65H232.793V363.758H234.463ZM224.479 364.461V369.594C226.597 369.576 228.829 369.409 231.246 368.926L231.457 370.314C228.803 370.842 226.412 371 224.092 371H222.809V364.461H224.479ZM234.463 372.371V376.379H225.973V377.961H235.008V379.314H224.32V375.096H232.793V373.689H224.285V372.371H234.463ZM250.336 363.758V369.91H252.41V371.316H250.336V379.508H248.666V363.758H250.336ZM241.371 368.223C241.371 369.989 241.582 372.406 242.812 374.111C243.981 372.441 244.219 370.051 244.236 368.223V366.641H243.111V365.287H247.506V366.641H245.818V368.223C245.818 370.648 246.275 373.531 248.244 374.973L247.172 376.186C246.047 375.315 245.388 373.936 245.01 372.371C244.649 373.971 243.981 375.43 242.795 376.326C241.626 375.438 240.958 373.971 240.598 372.389C240.202 373.936 239.543 375.324 238.436 376.186L237.363 374.973C239.314 373.514 239.789 370.578 239.789 368.223V366.641H237.908V365.287H242.479V366.641H241.371V368.223Z" fill="#18181B"/>
<rect x="274.5" y="344.014" width="412" height="55" rx="8.5" stroke="#FAFAFA" stroke-width="3"/>
<path d="M295.938 376.514V375.342L299.614 371.636C300.771 370.42 301.357 369.746 301.357 368.823C301.357 367.783 300.508 367.109 299.395 367.109C298.223 367.109 297.461 367.856 297.461 368.984H295.938C295.923 367.051 297.402 365.762 299.424 365.762C301.475 365.762 302.881 367.051 302.896 368.779C302.881 369.966 302.324 370.903 300.332 372.866L298.179 375.049V375.137H303.071V376.514H295.938ZM308.55 376.66C306.089 376.66 304.653 374.683 304.653 371.211C304.653 367.769 306.118 365.762 308.55 365.762C310.981 365.762 312.446 367.769 312.446 371.211C312.446 374.683 310.996 376.66 308.55 376.66ZM308.55 375.269C309.985 375.269 310.835 373.862 310.835 371.211C310.835 368.574 309.971 367.124 308.55 367.124C307.129 367.124 306.265 368.574 306.265 371.211C306.265 373.862 307.114 375.269 308.55 375.269ZM314.116 376.514V375.342L317.793 371.636C318.95 370.42 319.536 369.746 319.536 368.823C319.536 367.783 318.687 367.109 317.573 367.109C316.401 367.109 315.64 367.856 315.64 368.984H314.116C314.102 367.051 315.581 365.762 317.603 365.762C319.653 365.762 321.06 367.051 321.074 368.779C321.06 369.966 320.503 370.903 318.511 372.866L316.357 375.049V375.137H321.25V376.514H314.116ZM326.641 376.66C324.634 376.66 323.125 375.43 323.052 373.745H324.619C324.707 374.653 325.571 375.312 326.641 375.312C327.93 375.312 328.853 374.375 328.853 373.115C328.853 371.826 327.9 370.889 326.567 370.874C325.718 370.874 325.073 371.152 324.707 371.812H323.184L323.872 365.908H329.878V367.285H325.205L324.854 370.259H324.956C325.396 369.834 326.143 369.541 326.948 369.541C328.94 369.541 330.42 371.021 330.42 373.071C330.42 375.166 328.853 376.66 326.641 376.66ZM332.793 376.616C332.222 376.616 331.738 376.147 331.753 375.576C331.738 375.005 332.222 374.536 332.793 374.536C333.35 374.536 333.833 375.005 333.833 375.576C333.833 376.147 333.35 376.616 332.793 376.616ZM339.004 376.66C336.543 376.66 335.107 374.683 335.107 371.211C335.107 367.769 336.572 365.762 339.004 365.762C341.436 365.762 342.9 367.769 342.9 371.211C342.9 374.683 341.45 376.66 339.004 376.66ZM339.004 375.269C340.439 375.269 341.289 373.862 341.289 371.211C341.289 368.574 340.425 367.124 339.004 367.124C337.583 367.124 336.719 368.574 336.719 371.211C336.719 373.862 337.568 375.269 339.004 375.269ZM344.644 376.514L349.375 367.373V367.285H343.911V365.908H351.045V367.344L346.328 376.514H344.644ZM351.88 376.616C351.309 376.616 350.825 376.147 350.84 375.576C350.825 375.005 351.309 374.536 351.88 374.536C352.437 374.536 352.92 375.005 352.92 375.576C352.92 376.147 352.437 376.616 351.88 376.616ZM358.091 376.66C355.63 376.66 354.194 374.683 354.194 371.211C354.194 367.769 355.659 365.762 358.091 365.762C360.522 365.762 361.987 367.769 361.987 371.211C361.987 374.683 360.537 376.66 358.091 376.66ZM358.091 375.269C359.526 375.269 360.376 373.862 360.376 371.211C360.376 368.574 359.512 367.124 358.091 367.124C356.67 367.124 355.806 368.574 355.806 371.211C355.806 373.862 356.655 375.269 358.091 375.269ZM363.73 376.514L368.462 367.373V367.285H362.998V365.908H370.132V367.344L365.415 376.514H363.73Z" fill="#18181B"/>
<g clip-path="url(#clip1_1004_7449)">
<path d="M663 364.764H662.25V363.264H660.75V364.764H653.25V363.264H651.75V364.764H651C650.175 364.764 649.5 365.439 649.5 366.264V378.264C649.5 379.089 650.175 379.764 651 379.764H663C663.825 379.764 664.5 379.089 664.5 378.264V366.264C664.5 365.439 663.825 364.764 663 364.764ZM663 378.264H651V370.014H663V378.264ZM663 368.514H651V366.264H663V368.514Z" fill="#71717A"/>
</g>
<path d="M770.363 367.766C770.346 370.648 772.086 373.531 774.529 374.621L773.527 375.939C771.717 375.078 770.284 373.312 769.555 371.158C768.816 373.461 767.366 375.368 765.477 376.291L764.457 374.885C766.936 373.777 768.676 370.771 768.676 367.766V365.076H770.363V367.766ZM777.623 363.758V379.543H775.953V363.758H777.623ZM792.512 363.758V368.416H794.797V369.805H792.512V375.201H790.824V363.758H792.512ZM788.24 364.953C788.24 369.084 785.428 372.09 780.822 373.479L780.119 372.143C783.802 371.035 786.096 368.943 786.43 366.342H780.787V364.953H788.24ZM793.162 377.82V379.174H782.51V374.023H784.197V377.82H793.162Z" fill="#18181B"/>
<rect x="834.5" y="344.014" width="418" height="55" stroke="#FAFAFA" stroke-width="3"/>
<rect x="833" y="342.514" width="421" height="58" rx="10" fill="#FAFAFA"/>
<path d="M856.084 376.514V365.908H859.863C862.324 365.908 863.54 367.388 863.54 369.351C863.54 371.299 862.324 372.793 859.863 372.793H857.695V376.514H856.084ZM857.695 371.416H859.702C861.27 371.416 861.914 370.537 861.914 369.351C861.914 368.149 861.27 367.285 859.702 367.285H857.695V371.416ZM865.239 365.908H867.202L870.557 374.126H870.688L874.043 365.908H876.006V376.514H874.468V368.853H874.365L871.26 376.499H869.985L866.865 368.838H866.777V376.514H865.239V365.908ZM885.718 365.908V376.514H884.092V367.52H884.033L881.499 369.175V367.637L884.136 365.908H885.718ZM888.779 376.514L893.511 367.373V367.285H888.047V365.908H895.181V367.344L890.464 376.514H888.779ZM897.349 375.151C896.777 375.151 896.294 374.683 896.309 374.111C896.294 373.54 896.777 373.071 897.349 373.071C897.905 373.071 898.389 373.54 898.389 374.111C898.389 374.683 897.905 375.151 897.349 375.151ZM897.349 369.365C896.777 369.365 896.294 368.896 896.309 368.325C896.294 367.754 896.777 367.285 897.349 367.285C897.905 367.285 898.389 367.754 898.389 368.325C898.389 368.896 897.905 369.365 897.349 369.365ZM903.955 376.66C901.494 376.66 900.059 374.683 900.059 371.211C900.059 367.769 901.523 365.762 903.955 365.762C906.387 365.762 907.852 367.769 907.852 371.211C907.852 374.683 906.401 376.66 903.955 376.66ZM903.955 375.269C905.391 375.269 906.24 373.862 906.24 371.211C906.24 368.574 905.376 367.124 903.955 367.124C902.534 367.124 901.67 368.574 901.67 371.211C901.67 373.862 902.52 375.269 903.955 375.269ZM913.213 376.66C910.752 376.66 909.316 374.683 909.316 371.211C909.316 367.769 910.781 365.762 913.213 365.762C915.645 365.762 917.109 367.769 917.109 371.211C917.109 374.683 915.659 376.66 913.213 376.66ZM913.213 375.269C914.648 375.269 915.498 373.862 915.498 371.211C915.498 368.574 914.634 367.124 913.213 367.124C911.792 367.124 910.928 368.574 910.928 371.211C910.928 373.862 911.777 375.269 913.213 375.269ZM922.91 370.933C923.394 370.391 923.994 370.112 924.653 370.112C925.796 370.112 926.807 370.947 927.92 370.947C928.594 370.947 929.18 370.654 929.634 370.068V371.475C929.136 372.017 928.55 372.295 927.891 372.295C926.748 372.295 925.723 371.46 924.609 371.46C923.95 371.46 923.379 371.753 922.91 372.339V370.933ZM935.64 376.514V375.342L939.316 371.636C940.474 370.42 941.06 369.746 941.06 368.823C941.06 367.783 940.21 367.109 939.097 367.109C937.925 367.109 937.163 367.856 937.163 368.984H935.64C935.625 367.051 937.104 365.762 939.126 365.762C941.177 365.762 942.583 367.051 942.598 368.779C942.583 369.966 942.026 370.903 940.034 372.866L937.881 375.049V375.137H942.773V376.514H935.64ZM948.252 376.66C945.791 376.66 944.355 374.683 944.355 371.211C944.355 367.769 945.82 365.762 948.252 365.762C950.684 365.762 952.148 367.769 952.148 371.211C952.148 374.683 950.698 376.66 948.252 376.66ZM948.252 375.269C949.688 375.269 950.537 373.862 950.537 371.211C950.537 368.574 949.673 367.124 948.252 367.124C946.831 367.124 945.967 368.574 945.967 371.211C945.967 373.862 946.816 375.269 948.252 375.269ZM954.858 375.151C954.287 375.151 953.804 374.683 953.818 374.111C953.804 373.54 954.287 373.071 954.858 373.071C955.415 373.071 955.898 373.54 955.898 374.111C955.898 374.683 955.415 375.151 954.858 375.151ZM954.858 369.365C954.287 369.365 953.804 368.896 953.818 368.325C953.804 367.754 954.287 367.285 954.858 367.285C955.415 367.285 955.898 367.754 955.898 368.325C955.898 368.896 955.415 369.365 954.858 369.365ZM961.465 376.66C959.004 376.66 957.568 374.683 957.568 371.211C957.568 367.769 959.033 365.762 961.465 365.762C963.896 365.762 965.361 367.769 965.361 371.211C965.361 374.683 963.911 376.66 961.465 376.66ZM961.465 375.269C962.9 375.269 963.75 373.862 963.75 371.211C963.75 368.574 962.886 367.124 961.465 367.124C960.044 367.124 959.18 368.574 959.18 371.211C959.18 373.862 960.029 375.269 961.465 375.269ZM970.723 376.66C968.262 376.66 966.826 374.683 966.826 371.211C966.826 367.769 968.291 365.762 970.723 365.762C973.154 365.762 974.619 367.769 974.619 371.211C974.619 374.683 973.169 376.66 970.723 376.66ZM970.723 375.269C972.158 375.269 973.008 373.862 973.008 371.211C973.008 368.574 972.144 367.124 970.723 367.124C969.302 367.124 968.438 368.574 968.438 371.211C968.438 373.862 969.287 375.269 970.723 375.269Z" fill="#18181B"/>
<g clip-path="url(#clip2_1004_7449)">
<path d="M1217.99 363.18C1213.39 363.18 1209.67 366.913 1209.67 371.513C1209.67 376.113 1213.39 379.846 1217.99 379.846C1222.6 379.846 1226.33 376.113 1226.33 371.513C1226.33 366.913 1222.6 363.18 1217.99 363.18ZM1218 378.18C1214.32 378.18 1211.33 375.196 1211.33 371.513C1211.33 367.83 1214.32 364.846 1218 364.846C1221.68 364.846 1224.67 367.83 1224.67 371.513C1224.67 375.196 1221.68 378.18 1218 378.18ZM1218.42 367.346H1217.17V372.346L1221.54 374.971L1222.17 373.946L1218.42 371.721V367.346Z" fill="#71717A"/>
</g>
<path d="M201.469 202.023V219.797H198.988V202.023H201.469ZM186.605 214.777C187.963 214.768 189.516 214.768 191.137 214.719V213.215C189.184 212.873 187.914 211.662 187.934 209.992C187.914 208 189.73 206.652 192.348 206.652C194.984 206.652 196.82 208 196.82 209.992C196.82 211.652 195.551 212.863 193.598 213.215V214.641C195.082 214.572 196.586 214.455 198.012 214.27L198.188 216.105C194.301 216.77 190.102 216.809 186.938 216.809L186.605 214.777ZM197.758 203.996V205.949H186.957V203.996H191.137V202.102H193.617V203.996H197.758ZM192.348 208.547C191.137 208.547 190.277 209.074 190.297 209.992C190.277 210.93 191.137 211.438 192.348 211.438C193.598 211.438 194.438 210.93 194.438 209.992C194.438 209.074 193.598 208.547 192.348 208.547ZM209.504 203.215C212.317 203.195 214.426 205.031 214.426 207.57C214.426 210.129 212.317 211.945 209.504 211.945C206.692 211.945 204.563 210.129 204.563 207.57C204.563 205.031 206.692 203.195 209.504 203.215ZM209.504 205.363C208.098 205.363 207.024 206.184 207.043 207.57C207.024 208.977 208.098 209.777 209.504 209.777C210.91 209.777 211.985 208.977 212.004 207.57C211.985 206.184 210.93 205.363 209.504 205.363ZM218.684 202.023V219.836H216.203V202.023H218.684ZM203.821 214.172C206.985 214.191 211.379 214.133 215.188 213.605L215.383 215.402C211.438 216.164 207.219 216.203 204.114 216.203L203.821 214.172ZM239.657 202.727V208.977H234.833V210.676H241.708V212.688H225.497V210.676H232.333V208.977H227.509V202.727H239.657ZM229.95 204.66V207.023H237.216V204.66H229.95ZM239.735 213.996V219.797H237.255V215.949H227.294V213.996H239.735ZM258.982 215.832V217.824H242.712V215.832H246.755V212.453H244.06V210.441H246.443V205.441H243.982V203.449H257.615V205.441H255.115V210.441H257.536V212.453H254.861V215.832H258.982ZM248.943 210.441H252.654V205.441H248.943V210.441ZM249.255 215.832H252.361V212.453H249.255V215.832Z" fill="black"/>
<path d="M261 230.5H262.5V227.5H261V230.5ZM186 229V230.5H261V229V227.5H186V229Z" fill="#3B82F6"/>
<path d="M203.016 655.426V674.977H200.287V655.426H203.016ZM186.666 669.455C188.159 669.444 189.867 669.444 191.65 669.391V667.736C189.502 667.36 188.105 666.028 188.127 664.191C188.105 662 190.104 660.518 192.982 660.518C195.883 660.518 197.902 662 197.902 664.191C197.902 666.018 196.506 667.35 194.357 667.736V669.305C195.99 669.229 197.645 669.101 199.213 668.896L199.406 670.916C195.131 671.646 190.512 671.689 187.031 671.689L186.666 669.455ZM198.934 657.596V659.744H187.053V657.596H191.65V655.512H194.379V657.596H198.934ZM192.982 662.602C191.65 662.602 190.705 663.182 190.727 664.191C190.705 665.223 191.65 665.781 192.982 665.781C194.357 665.781 195.281 665.223 195.281 664.191C195.281 663.182 194.357 662.602 192.982 662.602ZM211.855 656.736C214.948 656.715 217.269 658.734 217.269 661.527C217.269 664.342 214.948 666.34 211.855 666.34C208.761 666.34 206.419 664.342 206.419 661.527C206.419 658.734 208.761 656.715 211.855 656.736ZM211.855 659.1C210.308 659.1 209.126 660.002 209.148 661.527C209.126 663.074 210.308 663.955 211.855 663.955C213.402 663.955 214.583 663.074 214.605 661.527C214.583 660.002 213.423 659.1 211.855 659.1ZM221.952 655.426V675.02H219.224V655.426H221.952ZM205.603 668.789C209.083 668.811 213.917 668.746 218.107 668.166L218.321 670.143C213.982 670.98 209.341 671.023 205.925 671.023L205.603 668.789ZM244.958 655.426V661.033H247.601V663.311H244.958V669.67H242.208V655.426H244.958ZM245.667 672.441V674.633H232.283V668.166H235.011V672.441H245.667ZM234.947 656.693C237.933 656.693 240.275 658.756 240.275 661.656C240.275 664.514 237.933 666.619 234.947 666.619C231.939 666.619 229.576 664.514 229.576 661.656C229.576 658.756 231.939 656.693 234.947 656.693ZM234.947 659.078C233.464 659.057 232.261 660.023 232.283 661.656C232.261 663.246 233.464 664.234 234.947 664.234C236.451 664.234 237.589 663.246 237.611 661.656C237.589 660.023 236.451 659.057 234.947 659.078ZM264.862 655.447V669.734H262.133V663.354H258.631V661.098H262.133V655.447H264.862ZM258.803 656.887C258.803 662.129 255.473 665.996 249.758 667.779L248.641 665.609C252.691 664.342 255.301 662.011 255.817 659.121H249.651V656.887H258.803ZM265.356 672.441V674.633H251.971V668.295H254.764V672.441H265.356Z" fill="#3F3F46"/>
<line x1="186" y1="682.5" x2="269" y2="682.5" stroke="#3B82F6" stroke-width="3"/>
<circle cx="719.5" cy="815.014" r="22.5" fill="#EFF6FF"/>
<path d="M720.078 808.668L720.078 822.514" stroke="#3B82F6" stroke-width="1.73077" stroke-linecap="round"/>
<path d="M727 815.59L713.154 815.59" stroke="#3B82F6" stroke-width="1.73077" stroke-linecap="round"/>
<mask id="path-45-outside-1_1004_7449" maskUnits="userSpaceOnUse" x="181.343" y="38.1719" width="164" height="22" fill="black">
<rect fill="white" x="181.343" y="38.1719" width="164" height="22"/>
<path d="M193.663 39.4656L200.205 58.4487H196.253L194.918 54.4172H187.683L186.321 58.4487H182.343L189.071 39.4656H193.663ZM188.51 51.6671H194.037L191.26 42.9098L188.51 51.6671Z"/>
<path d="M212.712 54.7108L213.62 57.4075C213.104 57.8347 212.436 58.1729 211.617 58.422C210.798 58.6712 209.846 58.7958 208.76 58.7958C206.536 58.7958 204.818 58.2708 203.607 57.2206C202.415 56.1526 201.819 54.5507 201.819 52.4147V51.2666C201.819 49.9495 202.014 48.8726 202.406 48.036C202.815 47.1995 203.349 46.5409 204.008 46.0603C204.649 45.5797 205.387 45.2504 206.224 45.0724C207.061 44.8944 207.915 44.8054 208.787 44.8054C210.015 44.8054 210.976 44.9389 211.671 45.2059C212.365 45.4729 212.979 45.7844 213.513 46.1404L212.632 48.8637C212.027 48.5611 211.404 48.3297 210.763 48.1695C210.14 48.0093 209.481 47.9292 208.787 47.9292C207.612 47.9292 206.802 48.2941 206.358 49.0239C205.93 49.7359 205.717 50.6793 205.717 51.854C205.717 53.189 205.966 54.168 206.464 54.7909C206.963 55.3961 207.728 55.6987 208.76 55.6987C209.383 55.6987 210.024 55.6364 210.683 55.5118C211.341 55.3694 212.018 55.1024 212.712 54.7108Z"/>
<path d="M224.576 48.1161H221.585V54.8443C221.585 55.1825 221.656 55.4139 221.799 55.5385C221.941 55.6631 222.137 55.7254 222.386 55.7254C222.618 55.7254 222.876 55.6809 223.161 55.5919C223.463 55.5029 223.775 55.3694 224.095 55.1914L225.003 57.4609C224.647 57.8169 224.113 58.1284 223.401 58.3953C222.707 58.6623 221.995 58.7958 221.265 58.7958C219.948 58.7958 219.031 58.4843 218.515 57.8614C217.999 57.2206 217.741 56.3395 217.741 55.2181V48.1161H215.631V45.0724H217.741V40.7204L221.585 39.9729V45.0724H224.576V48.1161Z"/>
<path d="M233.451 55.7254C233.682 55.7254 233.94 55.6809 234.225 55.5919C234.51 55.5029 234.812 55.3694 235.133 55.1914L236.04 57.4609C235.684 57.8169 235.159 58.1284 234.465 58.3953C233.771 58.6623 233.059 58.7958 232.329 58.7958C231.012 58.7958 230.095 58.4843 229.579 57.8614C229.063 57.2206 228.805 56.3395 228.805 55.2181V48.2229H227.417V45.2593H232.703V54.8443C232.703 55.1825 232.765 55.4139 232.89 55.5385C233.014 55.6631 233.201 55.7254 233.451 55.7254ZM232.703 42.9899H228.538V39.1719H232.703V42.9899Z"/>
<path d="M244.345 44.8054C246.374 44.8054 247.994 45.3661 249.204 46.4875C250.415 47.6088 251.02 49.371 251.02 51.7739C251.02 54.0701 250.441 55.8144 249.285 57.007C248.145 58.1996 246.499 58.7958 244.345 58.7958C242.174 58.7958 240.509 58.1996 239.352 57.007C238.213 55.8144 237.644 54.0701 237.644 51.7739C237.644 49.371 238.249 47.6088 239.459 46.4875C240.687 45.3661 242.316 44.8054 244.345 44.8054ZM241.595 51.7739C241.595 53.0555 241.791 54.0345 242.183 54.7108C242.592 55.3694 243.313 55.6987 244.345 55.6987C245.36 55.6987 246.072 55.3694 246.481 54.7108C246.89 54.0345 247.095 53.0555 247.095 51.7739C247.095 50.439 246.89 49.4689 246.481 48.8637C246.089 48.2407 245.386 47.9292 244.372 47.9292C243.322 47.9292 242.592 48.2407 242.183 48.8637C241.791 49.4689 241.595 50.439 241.595 51.7739Z"/>
<path d="M266.388 58.4487H262.49V49.5579C262.49 48.9883 262.383 48.57 262.169 48.303C261.973 48.0182 261.644 47.8758 261.181 47.8758C260.612 47.8758 260.007 48.036 259.366 48.3564C258.725 48.659 258.218 49.0061 257.844 49.3977V58.4487H253.946V45.2593H257.524L257.737 46.1938C258.218 45.82 258.769 45.4996 259.392 45.2326C260.015 44.9478 260.781 44.8054 261.689 44.8054C263.255 44.8054 264.43 45.1436 265.213 45.82C265.996 46.4964 266.388 47.5198 266.388 48.8904V58.4487Z"/>
<path d="M277.053 43.1501C277.053 41.7795 277.356 40.8272 277.961 40.2932C278.584 39.7415 279.581 39.4656 280.951 39.4656H284.289C286.905 39.4656 288.73 39.9907 289.762 41.0408C290.812 42.0732 291.337 43.604 291.337 45.6331C291.337 47.947 290.759 49.5579 289.602 50.4657C288.445 51.3734 286.665 51.8273 284.262 51.8273H281.005V58.4487H277.053V43.1501ZM283.942 42.5093H282.286C281.77 42.5093 281.423 42.6161 281.245 42.8297C281.085 43.0255 281.005 43.3281 281.005 43.7375V48.7569H283.888C285.027 48.7569 285.882 48.5166 286.451 48.036C287.021 47.5554 287.306 46.7545 287.306 45.6331C287.306 44.4939 287.021 43.693 286.451 43.2302C285.9 42.7496 285.063 42.5093 283.942 42.5093Z"/>
<path d="M300.429 44.8054C302.458 44.8054 304.078 45.3661 305.289 46.4875C306.499 47.6088 307.104 49.371 307.104 51.7739C307.104 54.0701 306.526 55.8144 305.369 57.007C304.229 58.1996 302.583 58.7958 300.429 58.7958C298.258 58.7958 296.593 58.1996 295.436 57.007C294.297 55.8144 293.728 54.0701 293.728 51.7739C293.728 49.371 294.333 47.6088 295.543 46.4875C296.771 45.3661 298.4 44.8054 300.429 44.8054ZM297.679 51.7739C297.679 53.0555 297.875 54.0345 298.267 54.7108C298.676 55.3694 299.397 55.6987 300.429 55.6987C301.444 55.6987 302.156 55.3694 302.565 54.7108C302.975 54.0345 303.179 53.0555 303.179 51.7739C303.179 50.439 302.975 49.4689 302.565 48.8637C302.174 48.2407 301.471 47.9292 300.456 47.9292C299.406 47.9292 298.676 48.2407 298.267 48.8637C297.875 49.4689 297.679 50.439 297.679 51.7739Z"/>
<path d="M315.53 55.7254C315.761 55.7254 316.019 55.6809 316.304 55.5919C316.589 55.5029 316.892 55.3694 317.212 55.1914L318.12 57.4609C317.764 57.8169 317.239 58.1284 316.545 58.3953C315.85 58.6623 315.138 58.7958 314.409 58.7958C313.091 58.7958 312.175 58.4843 311.659 57.8614C311.142 57.2206 310.884 56.3395 310.884 55.2181V48.2229H309.496V45.2593H314.782V54.8443C314.782 55.1825 314.845 55.4139 314.969 55.5385C315.094 55.6631 315.281 55.7254 315.53 55.7254ZM314.782 42.9899H310.617V39.1719H314.782V42.9899Z"/>
<path d="M332.432 58.4487H328.534V49.5579C328.534 48.9883 328.427 48.57 328.213 48.303C328.018 48.0182 327.688 47.8758 327.225 47.8758C326.656 47.8758 326.051 48.036 325.41 48.3564C324.769 48.659 324.262 49.0061 323.888 49.3977V58.4487H319.99V45.2593H323.568L323.781 46.1938C324.262 45.82 324.814 45.4996 325.437 45.2326C326.06 44.9478 326.825 44.8054 327.733 44.8054C329.299 44.8054 330.474 45.1436 331.257 45.82C332.04 46.4964 332.432 47.5198 332.432 48.8904V58.4487Z"/>
<path d="M344.044 48.1161H341.054V54.8443C341.054 55.1825 341.125 55.4139 341.268 55.5385C341.41 55.6631 341.606 55.7254 341.855 55.7254C342.086 55.7254 342.345 55.6809 342.629 55.5919C342.932 55.5029 343.243 55.3694 343.564 55.1914L344.472 57.4609C344.116 57.8169 343.582 58.1284 342.87 58.3953C342.175 58.6623 341.463 58.7958 340.734 58.7958C339.416 58.7958 338.5 58.4843 337.984 57.8614C337.467 57.2206 337.209 56.3395 337.209 55.2181V48.1161H335.1V45.0724H337.209V40.7204L341.054 39.9729V45.0724H344.044V48.1161Z"/>
</mask>
<path d="M193.663 39.4656L200.205 58.4487H196.253L194.918 54.4172H187.683L186.321 58.4487H182.343L189.071 39.4656H193.663ZM188.51 51.6671H194.037L191.26 42.9098L188.51 51.6671Z" fill="#18181B"/>
<path d="M212.712 54.7108L213.62 57.4075C213.104 57.8347 212.436 58.1729 211.617 58.422C210.798 58.6712 209.846 58.7958 208.76 58.7958C206.536 58.7958 204.818 58.2708 203.607 57.2206C202.415 56.1526 201.819 54.5507 201.819 52.4147V51.2666C201.819 49.9495 202.014 48.8726 202.406 48.036C202.815 47.1995 203.349 46.5409 204.008 46.0603C204.649 45.5797 205.387 45.2504 206.224 45.0724C207.061 44.8944 207.915 44.8054 208.787 44.8054C210.015 44.8054 210.976 44.9389 211.671 45.2059C212.365 45.4729 212.979 45.7844 213.513 46.1404L212.632 48.8637C212.027 48.5611 211.404 48.3297 210.763 48.1695C210.14 48.0093 209.481 47.9292 208.787 47.9292C207.612 47.9292 206.802 48.2941 206.358 49.0239C205.93 49.7359 205.717 50.6793 205.717 51.854C205.717 53.189 205.966 54.168 206.464 54.7909C206.963 55.3961 207.728 55.6987 208.76 55.6987C209.383 55.6987 210.024 55.6364 210.683 55.5118C211.341 55.3694 212.018 55.1024 212.712 54.7108Z" fill="#18181B"/>
<path d="M224.576 48.1161H221.585V54.8443C221.585 55.1825 221.656 55.4139 221.799 55.5385C221.941 55.6631 222.137 55.7254 222.386 55.7254C222.618 55.7254 222.876 55.6809 223.161 55.5919C223.463 55.5029 223.775 55.3694 224.095 55.1914L225.003 57.4609C224.647 57.8169 224.113 58.1284 223.401 58.3953C222.707 58.6623 221.995 58.7958 221.265 58.7958C219.948 58.7958 219.031 58.4843 218.515 57.8614C217.999 57.2206 217.741 56.3395 217.741 55.2181V48.1161H215.631V45.0724H217.741V40.7204L221.585 39.9729V45.0724H224.576V48.1161Z" fill="#18181B"/>
<path d="M233.451 55.7254C233.682 55.7254 233.94 55.6809 234.225 55.5919C234.51 55.5029 234.812 55.3694 235.133 55.1914L236.04 57.4609C235.684 57.8169 235.159 58.1284 234.465 58.3953C233.771 58.6623 233.059 58.7958 232.329 58.7958C231.012 58.7958 230.095 58.4843 229.579 57.8614C229.063 57.2206 228.805 56.3395 228.805 55.2181V48.2229H227.417V45.2593H232.703V54.8443C232.703 55.1825 232.765 55.4139 232.89 55.5385C233.014 55.6631 233.201 55.7254 233.451 55.7254ZM232.703 42.9899H228.538V39.1719H232.703V42.9899Z" fill="#18181B"/>
<path d="M244.345 44.8054C246.374 44.8054 247.994 45.3661 249.204 46.4875C250.415 47.6088 251.02 49.371 251.02 51.7739C251.02 54.0701 250.441 55.8144 249.285 57.007C248.145 58.1996 246.499 58.7958 244.345 58.7958C242.174 58.7958 240.509 58.1996 239.352 57.007C238.213 55.8144 237.644 54.0701 237.644 51.7739C237.644 49.371 238.249 47.6088 239.459 46.4875C240.687 45.3661 242.316 44.8054 244.345 44.8054ZM241.595 51.7739C241.595 53.0555 241.791 54.0345 242.183 54.7108C242.592 55.3694 243.313 55.6987 244.345 55.6987C245.36 55.6987 246.072 55.3694 246.481 54.7108C246.89 54.0345 247.095 53.0555 247.095 51.7739C247.095 50.439 246.89 49.4689 246.481 48.8637C246.089 48.2407 245.386 47.9292 244.372 47.9292C243.322 47.9292 242.592 48.2407 242.183 48.8637C241.791 49.4689 241.595 50.439 241.595 51.7739Z" fill="#18181B"/>
<path d="M266.388 58.4487H262.49V49.5579C262.49 48.9883 262.383 48.57 262.169 48.303C261.973 48.0182 261.644 47.8758 261.181 47.8758C260.612 47.8758 260.007 48.036 259.366 48.3564C258.725 48.659 258.218 49.0061 257.844 49.3977V58.4487H253.946V45.2593H257.524L257.737 46.1938C258.218 45.82 258.769 45.4996 259.392 45.2326C260.015 44.9478 260.781 44.8054 261.689 44.8054C263.255 44.8054 264.43 45.1436 265.213 45.82C265.996 46.4964 266.388 47.5198 266.388 48.8904V58.4487Z" fill="#18181B"/>
<path d="M277.053 43.1501C277.053 41.7795 277.356 40.8272 277.961 40.2932C278.584 39.7415 279.581 39.4656 280.951 39.4656H284.289C286.905 39.4656 288.73 39.9907 289.762 41.0408C290.812 42.0732 291.337 43.604 291.337 45.6331C291.337 47.947 290.759 49.5579 289.602 50.4657C288.445 51.3734 286.665 51.8273 284.262 51.8273H281.005V58.4487H277.053V43.1501ZM283.942 42.5093H282.286C281.77 42.5093 281.423 42.6161 281.245 42.8297C281.085 43.0255 281.005 43.3281 281.005 43.7375V48.7569H283.888C285.027 48.7569 285.882 48.5166 286.451 48.036C287.021 47.5554 287.306 46.7545 287.306 45.6331C287.306 44.4939 287.021 43.693 286.451 43.2302C285.9 42.7496 285.063 42.5093 283.942 42.5093Z" fill="#18181B"/>
<path d="M300.429 44.8054C302.458 44.8054 304.078 45.3661 305.289 46.4875C306.499 47.6088 307.104 49.371 307.104 51.7739C307.104 54.0701 306.526 55.8144 305.369 57.007C304.229 58.1996 302.583 58.7958 300.429 58.7958C298.258 58.7958 296.593 58.1996 295.436 57.007C294.297 55.8144 293.728 54.0701 293.728 51.7739C293.728 49.371 294.333 47.6088 295.543 46.4875C296.771 45.3661 298.4 44.8054 300.429 44.8054ZM297.679 51.7739C297.679 53.0555 297.875 54.0345 298.267 54.7108C298.676 55.3694 299.397 55.6987 300.429 55.6987C301.444 55.6987 302.156 55.3694 302.565 54.7108C302.975 54.0345 303.179 53.0555 303.179 51.7739C303.179 50.439 302.975 49.4689 302.565 48.8637C302.174 48.2407 301.471 47.9292 300.456 47.9292C299.406 47.9292 298.676 48.2407 298.267 48.8637C297.875 49.4689 297.679 50.439 297.679 51.7739Z" fill="#18181B"/>
<path d="M315.53 55.7254C315.761 55.7254 316.019 55.6809 316.304 55.5919C316.589 55.5029 316.892 55.3694 317.212 55.1914L318.12 57.4609C317.764 57.8169 317.239 58.1284 316.545 58.3953C315.85 58.6623 315.138 58.7958 314.409 58.7958C313.091 58.7958 312.175 58.4843 311.659 57.8614C311.142 57.2206 310.884 56.3395 310.884 55.2181V48.2229H309.496V45.2593H314.782V54.8443C314.782 55.1825 314.845 55.4139 314.969 55.5385C315.094 55.6631 315.281 55.7254 315.53 55.7254ZM314.782 42.9899H310.617V39.1719H314.782V42.9899Z" fill="#18181B"/>
<path d="M332.432 58.4487H328.534V49.5579C328.534 48.9883 328.427 48.57 328.213 48.303C328.018 48.0182 327.688 47.8758 327.225 47.8758C326.656 47.8758 326.051 48.036 325.41 48.3564C324.769 48.659 324.262 49.0061 323.888 49.3977V58.4487H319.99V45.2593H323.568L323.781 46.1938C324.262 45.82 324.814 45.4996 325.437 45.2326C326.06 44.9478 326.825 44.8054 327.733 44.8054C329.299 44.8054 330.474 45.1436 331.257 45.82C332.04 46.4964 332.432 47.5198 332.432 48.8904V58.4487Z" fill="#18181B"/>
<path d="M344.044 48.1161H341.054V54.8443C341.054 55.1825 341.125 55.4139 341.268 55.5385C341.41 55.6631 341.606 55.7254 341.855 55.7254C342.086 55.7254 342.345 55.6809 342.629 55.5919C342.932 55.5029 343.243 55.3694 343.564 55.1914L344.472 57.4609C344.116 57.8169 343.582 58.1284 342.87 58.3953C342.175 58.6623 341.463 58.7958 340.734 58.7958C339.416 58.7958 338.5 58.4843 337.984 57.8614C337.467 57.2206 337.209 56.3395 337.209 55.2181V48.1161H335.1V45.0724H337.209V40.7204L341.054 39.9729V45.0724H344.044V48.1161Z" fill="#18181B"/>
<path d="M193.663 39.4656L200.205 58.4487H196.253L194.918 54.4172H187.683L186.321 58.4487H182.343L189.071 39.4656H193.663ZM188.51 51.6671H194.037L191.26 42.9098L188.51 51.6671Z" stroke="#18181B" stroke-width="0.821516" mask="url(#path-45-outside-1_1004_7449)"/>
<path d="M212.712 54.7108L213.62 57.4075C213.104 57.8347 212.436 58.1729 211.617 58.422C210.798 58.6712 209.846 58.7958 208.76 58.7958C206.536 58.7958 204.818 58.2708 203.607 57.2206C202.415 56.1526 201.819 54.5507 201.819 52.4147V51.2666C201.819 49.9495 202.014 48.8726 202.406 48.036C202.815 47.1995 203.349 46.5409 204.008 46.0603C204.649 45.5797 205.387 45.2504 206.224 45.0724C207.061 44.8944 207.915 44.8054 208.787 44.8054C210.015 44.8054 210.976 44.9389 211.671 45.2059C212.365 45.4729 212.979 45.7844 213.513 46.1404L212.632 48.8637C212.027 48.5611 211.404 48.3297 210.763 48.1695C210.14 48.0093 209.481 47.9292 208.787 47.9292C207.612 47.9292 206.802 48.2941 206.358 49.0239C205.93 49.7359 205.717 50.6793 205.717 51.854C205.717 53.189 205.966 54.168 206.464 54.7909C206.963 55.3961 207.728 55.6987 208.76 55.6987C209.383 55.6987 210.024 55.6364 210.683 55.5118C211.341 55.3694 212.018 55.1024 212.712 54.7108Z" stroke="#18181B" stroke-width="0.821516" mask="url(#path-45-outside-1_1004_7449)"/>
<path d="M224.576 48.1161H221.585V54.8443C221.585 55.1825 221.656 55.4139 221.799 55.5385C221.941 55.6631 222.137 55.7254 222.386 55.7254C222.618 55.7254 222.876 55.6809 223.161 55.5919C223.463 55.5029 223.775 55.3694 224.095 55.1914L225.003 57.4609C224.647 57.8169 224.113 58.1284 223.401 58.3953C222.707 58.6623 221.995 58.7958 221.265 58.7958C219.948 58.7958 219.031 58.4843 218.515 57.8614C217.999 57.2206 217.741 56.3395 217.741 55.2181V48.1161H215.631V45.0724H217.741V40.7204L221.585 39.9729V45.0724H224.576V48.1161Z" stroke="#18181B" stroke-width="0.821516" mask="url(#path-45-outside-1_1004_7449)"/>
<path d="M233.451 55.7254C233.682 55.7254 233.94 55.6809 234.225 55.5919C234.51 55.5029 234.812 55.3694 235.133 55.1914L236.04 57.4609C235.684 57.8169 235.159 58.1284 234.465 58.3953C233.771 58.6623 233.059 58.7958 232.329 58.7958C231.012 58.7958 230.095 58.4843 229.579 57.8614C229.063 57.2206 228.805 56.3395 228.805 55.2181V48.2229H227.417V45.2593H232.703V54.8443C232.703 55.1825 232.765 55.4139 232.89 55.5385C233.014 55.6631 233.201 55.7254 233.451 55.7254ZM232.703 42.9899H228.538V39.1719H232.703V42.9899Z" stroke="#18181B" stroke-width="0.821516" mask="url(#path-45-outside-1_1004_7449)"/>
<path d="M244.345 44.8054C246.374 44.8054 247.994 45.3661 249.204 46.4875C250.415 47.6088 251.02 49.371 251.02 51.7739C251.02 54.0701 250.441 55.8144 249.285 57.007C248.145 58.1996 246.499 58.7958 244.345 58.7958C242.174 58.7958 240.509 58.1996 239.352 57.007C238.213 55.8144 237.644 54.0701 237.644 51.7739C237.644 49.371 238.249 47.6088 239.459 46.4875C240.687 45.3661 242.316 44.8054 244.345 44.8054ZM241.595 51.7739C241.595 53.0555 241.791 54.0345 242.183 54.7108C242.592 55.3694 243.313 55.6987 244.345 55.6987C245.36 55.6987 246.072 55.3694 246.481 54.7108C246.89 54.0345 247.095 53.0555 247.095 51.7739C247.095 50.439 246.89 49.4689 246.481 48.8637C246.089 48.2407 245.386 47.9292 244.372 47.9292C243.322 47.9292 242.592 48.2407 242.183 48.8637C241.791 49.4689 241.595 50.439 241.595 51.7739Z" stroke="#18181B" stroke-width="0.821516" mask="url(#path-45-outside-1_1004_7449)"/>
<path d="M266.388 58.4487H262.49V49.5579C262.49 48.9883 262.383 48.57 262.169 48.303C261.973 48.0182 261.644 47.8758 261.181 47.8758C260.612 47.8758 260.007 48.036 259.366 48.3564C258.725 48.659 258.218 49.0061 257.844 49.3977V58.4487H253.946V45.2593H257.524L257.737 46.1938C258.218 45.82 258.769 45.4996 259.392 45.2326C260.015 44.9478 260.781 44.8054 261.689 44.8054C263.255 44.8054 264.43 45.1436 265.213 45.82C265.996 46.4964 266.388 47.5198 266.388 48.8904V58.4487Z" stroke="#18181B" stroke-width="0.821516" mask="url(#path-45-outside-1_1004_7449)"/>
<path d="M277.053 43.1501C277.053 41.7795 277.356 40.8272 277.961 40.2932C278.584 39.7415 279.581 39.4656 280.951 39.4656H284.289C286.905 39.4656 288.73 39.9907 289.762 41.0408C290.812 42.0732 291.337 43.604 291.337 45.6331C291.337 47.947 290.759 49.5579 289.602 50.4657C288.445 51.3734 286.665 51.8273 284.262 51.8273H281.005V58.4487H277.053V43.1501ZM283.942 42.5093H282.286C281.77 42.5093 281.423 42.6161 281.245 42.8297C281.085 43.0255 281.005 43.3281 281.005 43.7375V48.7569H283.888C285.027 48.7569 285.882 48.5166 286.451 48.036C287.021 47.5554 287.306 46.7545 287.306 45.6331C287.306 44.4939 287.021 43.693 286.451 43.2302C285.9 42.7496 285.063 42.5093 283.942 42.5093Z" stroke="#18181B" stroke-width="0.821516" mask="url(#path-45-outside-1_1004_7449)"/>
<path d="M300.429 44.8054C302.458 44.8054 304.078 45.3661 305.289 46.4875C306.499 47.6088 307.104 49.371 307.104 51.7739C307.104 54.0701 306.526 55.8144 305.369 57.007C304.229 58.1996 302.583 58.7958 300.429 58.7958C298.258 58.7958 296.593 58.1996 295.436 57.007C294.297 55.8144 293.728 54.0701 293.728 51.7739C293.728 49.371 294.333 47.6088 295.543 46.4875C296.771 45.3661 298.4 44.8054 300.429 44.8054ZM297.679 51.7739C297.679 53.0555 297.875 54.0345 298.267 54.7108C298.676 55.3694 299.397 55.6987 300.429 55.6987C301.444 55.6987 302.156 55.3694 302.565 54.7108C302.975 54.0345 303.179 53.0555 303.179 51.7739C303.179 50.439 302.975 49.4689 302.565 48.8637C302.174 48.2407 301.471 47.9292 300.456 47.9292C299.406 47.9292 298.676 48.2407 298.267 48.8637C297.875 49.4689 297.679 50.439 297.679 51.7739Z" stroke="#18181B" stroke-width="0.821516" mask="url(#path-45-outside-1_1004_7449)"/>
<path d="M315.53 55.7254C315.761 55.7254 316.019 55.6809 316.304 55.5919C316.589 55.5029 316.892 55.3694 317.212 55.1914L318.12 57.4609C317.764 57.8169 317.239 58.1284 316.545 58.3953C315.85 58.6623 315.138 58.7958 314.409 58.7958C313.091 58.7958 312.175 58.4843 311.659 57.8614C311.142 57.2206 310.884 56.3395 310.884 55.2181V48.2229H309.496V45.2593H314.782V54.8443C314.782 55.1825 314.845 55.4139 314.969 55.5385C315.094 55.6631 315.281 55.7254 315.53 55.7254ZM314.782 42.9899H310.617V39.1719H314.782V42.9899Z" stroke="#18181B" stroke-width="0.821516" mask="url(#path-45-outside-1_1004_7449)"/>
<path d="M332.432 58.4487H328.534V49.5579C328.534 48.9883 328.427 48.57 328.213 48.303C328.018 48.0182 327.688 47.8758 327.225 47.8758C326.656 47.8758 326.051 48.036 325.41 48.3564C324.769 48.659 324.262 49.0061 323.888 49.3977V58.4487H319.99V45.2593H323.568L323.781 46.1938C324.262 45.82 324.814 45.4996 325.437 45.2326C326.06 44.9478 326.825 44.8054 327.733 44.8054C329.299 44.8054 330.474 45.1436 331.257 45.82C332.04 46.4964 332.432 47.5198 332.432 48.8904V58.4487Z" stroke="#18181B" stroke-width="0.821516" mask="url(#path-45-outside-1_1004_7449)"/>
<path d="M344.044 48.1161H341.054V54.8443C341.054 55.1825 341.125 55.4139 341.268 55.5385C341.41 55.6631 341.606 55.7254 341.855 55.7254C342.086 55.7254 342.345 55.6809 342.629 55.5919C342.932 55.5029 343.243 55.3694 343.564 55.1914L344.472 57.4609C344.116 57.8169 343.582 58.1284 342.87 58.3953C342.175 58.6623 341.463 58.7958 340.734 58.7958C339.416 58.7958 338.5 58.4843 337.984 57.8614C337.467 57.2206 337.209 56.3395 337.209 55.2181V48.1161H335.1V45.0724H337.209V40.7204L341.054 39.9729V45.0724H344.044V48.1161Z" stroke="#18181B" stroke-width="0.821516" mask="url(#path-45-outside-1_1004_7449)"/>
<path d="M146 41.5791C146 40.1666 147.145 39.0215 148.558 39.0215H162.893C164.306 39.0215 165.451 40.1666 165.451 41.5791V49.9882C165.451 51.1862 164.619 52.2237 163.45 52.4845L149.115 55.6823C147.517 56.0387 146 54.8231 146 53.186V41.5791Z" fill="#18181B"/>
<rect x="162.594" y="43.8633" width="1.27883" height="3.83649" rx="0.639416" fill="white"/>
<rect x="160.034" y="43.8633" width="1.27883" height="3.83649" rx="0.639416" fill="white"/>
<path d="M176.969 52.8331C176.969 51.4205 175.824 50.2754 174.411 50.2754H164.17C162.758 50.2754 161.613 51.4205 161.613 52.8331V58.5017C161.613 59.6997 162.444 60.7372 163.614 60.998L173.854 63.2824C175.452 63.6388 176.969 62.4232 176.969 60.7861V52.8331Z" fill="#60A5FA"/>
<rect width="1.02306" height="2.81343" rx="0.511532" transform="matrix(-1 0 0 1 164.428 54.3672)" fill="#CBE2FF"/>
<rect width="1.02306" height="2.81343" rx="0.511532" transform="matrix(-1 0 0 1 166.475 54.3672)" fill="#CBE2FF"/>
<path d="M169.802 47.8703L168.01 46.7034" stroke="#60A5FA" stroke-width="0.532493" stroke-linecap="round"/>
<path d="M168.011 44.3234L169.802 43.1566" stroke="#60A5FA" stroke-width="0.532493" stroke-linecap="round"/>
<path d="M168.011 44.3234L169.802 43.1566" stroke="#60A5FA" stroke-width="0.532493" stroke-linecap="round"/>
<path d="M168.011 45.5195H169.787" stroke="#60A5FA" stroke-width="0.532493" stroke-linecap="round"/>
<path d="M613.219 44.5879C615.346 44.5879 616.91 46.2051 616.928 48.4902C616.91 50.8105 615.346 52.375 613.219 52.375C611.092 52.375 609.545 50.8105 609.545 48.4902C609.545 46.2051 611.092 44.5879 613.219 44.5879ZM613.219 46.4863C612.234 46.4863 611.549 47.2246 611.549 48.4902C611.549 49.7559 612.234 50.5117 613.219 50.5117C614.186 50.5117 614.871 49.7559 614.889 48.4902C614.871 47.2246 614.186 46.4863 613.219 46.4863ZM623.221 43.6387V53.1836H621.094V49.2988H619.775V53.0957H617.701V43.9199H619.775V47.5059H621.094V43.6387H623.221ZM623.221 53.8867V59.6172H620.988V55.6797H612.164V53.8867H623.221ZM631.025 46.3809C631.025 48.5957 632.115 50.793 634.646 51.7246L633.398 53.4648C631.72 52.8057 630.568 51.5488 629.918 49.9668C629.215 51.6543 627.976 52.9727 626.156 53.6582L624.961 51.9004C627.58 50.9688 628.758 48.7188 628.758 46.3809V44.5352H631.025V46.3809ZM638.514 43.6387V55.5039H636.281V50.6172H633.539V48.8066H636.281V47.5234H633.539V45.7129H636.281V43.6387H638.514ZM638.848 57.543V59.3359H627.861V54.3613H630.129V57.543H638.848ZM659.379 55.9609V57.8418H644.736V55.9609H650.889V53.0781H645.949V51.3203H648.094V46.75H645.879V44.957H658.148V46.75H655.898V51.3203H658.078V53.0781H653.121V55.9609H659.379ZM650.344 51.3203H653.684V46.75H650.344V51.3203ZM673.688 43.6387V55.1348H671.438V43.6387H673.688ZM674.109 57.543V59.3359H662.965V53.9746H665.232V57.543H674.109ZM664.916 44.6582C667.377 44.6582 669.293 46.3457 669.293 48.6836C669.293 51.0742 667.377 52.7441 664.916 52.7441C662.455 52.7441 660.539 51.0742 660.539 48.6836C660.539 46.3457 662.455 44.6582 664.916 44.6582ZM664.916 46.6094C663.668 46.5918 662.719 47.3828 662.736 48.6836C662.719 50.0195 663.668 50.793 664.916 50.793C666.129 50.793 667.078 50.0195 667.078 48.6836C667.078 47.3828 666.129 46.5918 664.916 46.6094ZM688.893 51.8828V53.6582H677.572V44.7988H688.77V46.6094H679.857V48.2969H688.4V50.0547H679.857V51.8828H688.893ZM690.492 55.9258V57.7539H675.85V55.9258H690.492Z" fill="#AFAFC1"/>
<path d="M749.117 55.8906V57.7539H734.475V55.8906H749.117ZM747.887 45.0273V46.8203H745.637V51.6719H747.816V53.4297H735.688V51.6719H737.832V46.8203H735.617V45.0273H747.887ZM740.082 51.6719H743.422V46.8203H740.082V51.6719ZM764.674 55.9961V57.8418H750.031V55.9961H756.201V53.5879H751.719V48.209H760.771V46.4512H751.701V44.6582H762.986V49.9668H753.969V51.7598H763.355V53.5879H758.434V55.9961H764.674ZM776.152 43.9375V53.2891H774.025V49.3867H772.25V47.5762H774.025V43.9375H776.152ZM770.633 47.0664C770.633 48.7539 771.477 50.4238 773.533 51.2148L772.408 52.9375C771.046 52.4102 770.123 51.4609 769.578 50.3008C768.989 51.6016 768.005 52.665 766.537 53.2539L765.359 51.4785C767.557 50.6523 768.453 48.8242 768.453 47.0488V46.5742H765.904V44.7812H773.023V46.5742H770.633V47.0664ZM779.334 43.6211V53.377H777.207V43.6211H779.334ZM779.334 53.957V59.6172H777.102V55.7324H768.277V53.957H779.334ZM794.188 51.8828V53.6582H782.867V44.7988H794.064V46.6094H785.152V48.2969H793.695V50.0547H785.152V51.8828H794.188ZM795.787 55.9258V57.7539H781.145V55.9258H795.787ZM809.814 44.7812V45.7832C809.814 46.8906 809.814 48.4902 809.445 50.4766L807.248 50.2656C807.529 48.7275 807.6 47.5674 807.617 46.6094H801.588V44.7812H809.814ZM805.842 48.4727V51.5312C807.433 51.4697 809.067 51.3467 810.57 51.127L810.693 52.7441C807.371 53.3594 803.609 53.4121 800.832 53.4297L800.639 51.6367C801.535 51.6367 802.546 51.6367 803.609 51.6016V48.4727H805.842ZM813.734 43.6211V48.4902H815.668V50.3711H813.734V55.5918H811.432V43.6211H813.734ZM814.227 57.543V59.3359H802.994V54.5195H805.244V57.543H814.227ZM829.818 43.6211V59.6523H827.586V43.6211H829.818ZM824.861 44.957V51.127H819.588V54.0625C822.022 54.0537 824.097 53.9131 826.443 53.5352L826.637 55.3457C824 55.8027 821.627 55.9082 818.709 55.9082H817.268V49.3516H822.576V46.7676H817.25V44.957H824.861Z" fill="#3B82F6"/>
<g clip-path="url(#clip3_1004_7449)">
<circle cx="1219.5" cy="51.5" r="13.5" fill="#FAFAFA"/>
<path d="M1225.06 47.2535C1225.06 46.2365 1224.24 45.4121 1223.22 45.4121H1214.2C1213.18 45.4121 1212.35 46.2365 1212.35 47.2535V53.7901C1212.35 54.6304 1212.92 55.3641 1213.74 55.5734L1222.76 57.8946C1223.93 58.1943 1225.06 57.3144 1225.06 56.1112V47.2535Z" fill="#3B82F6"/>
<rect width="0.841798" height="2.52539" rx="0.420899" transform="matrix(-1 0 0 1 1215.46 49.9043)" fill="white"/>
<rect width="0.841798" height="2.52539" rx="0.420899" transform="matrix(-1 0 0 1 1217.15 49.9043)" fill="white"/>
</g>
<path d="M1245.94 45.125C1245.94 48.7969 1243.45 51.3438 1239.25 52.4219L1238.56 51.0781C1241.85 50.2266 1243.78 48.5625 1244.08 46.5H1239.38V45.125H1245.94ZM1250.23 44.2812V52.1875H1248.48V44.2812H1250.23ZM1250.23 52.7969V58.2031H1240.91V52.7969H1250.23ZM1242.62 54.1719V56.8281H1248.53V54.1719H1242.62ZM1257.34 47.6562C1257.33 50.1719 1258.59 52.7344 1260.78 53.7812L1259.72 55.1719C1258.19 54.3984 1257.09 52.9062 1256.48 51.1094C1255.87 53.0312 1254.71 54.625 1253.09 55.4375L1252.03 54.0469C1254.3 52.9688 1255.59 50.2656 1255.61 47.6562V45.4062H1257.34V47.6562ZM1263.36 44.2656V49.7969H1265.53V51.2812H1263.36V58.3906H1261.62V44.2656H1263.36ZM1277.27 44.2812V47.6562H1279.25V49.0938H1277.27V52.7656H1275.53V44.2812H1277.27ZM1273.11 45.1406V49.2031H1268.41V50.6875C1270.8 50.6719 1272.45 50.5859 1274.38 50.2656L1274.56 51.6562C1272.45 52.0312 1270.62 52.125 1267.83 52.1094H1266.67V47.8906H1271.41V46.5156H1266.66V45.1406H1273.11ZM1272.66 53.0781C1275.56 53.0938 1277.39 54.0781 1277.41 55.75C1277.39 57.4062 1275.56 58.3594 1272.66 58.3594C1269.69 58.3594 1267.88 57.4062 1267.88 55.75C1267.88 54.0781 1269.69 53.0938 1272.66 53.0781ZM1272.66 54.4375C1270.69 54.4375 1269.56 54.9062 1269.58 55.75C1269.56 56.5938 1270.69 57.0469 1272.66 57.0469C1274.61 57.0469 1275.69 56.5938 1275.69 55.75C1275.69 54.9062 1274.61 54.4375 1272.66 54.4375ZM1291.59 44.3281V52.2344H1290.12V44.3281H1291.59ZM1282.34 45.1406V50.0469C1284.6 50.0312 1286.59 49.8672 1288.69 49.4219L1288.89 50.6562C1286.58 51.125 1284.47 51.2969 1282.02 51.2969H1280.86V45.1406H1282.34ZM1291.59 52.875V58.1406H1282.42V52.875H1291.59ZM1283.88 54.0469V56.9531H1290.14V54.0469H1283.88Z" fill="#18181B"/>
<defs>
<clipPath id="clip0_1004_7449">
<rect width="18" height="18" fill="white" transform="translate(295 529)"/>
</clipPath>
<clipPath id="clip1_1004_7449">
<rect width="18" height="18" fill="white" transform="translate(648 362.514)"/>
</clipPath>
<clipPath id="clip2_1004_7449">
<rect width="20" height="20" fill="white" transform="translate(1208 361.514)"/>
</clipPath>
<clipPath id="clip3_1004_7449">
<rect x="1206" y="38" width="27" height="27" rx="13.5" fill="white"/>
</clipPath>
</defs>
</svg>
