<svg width="1440" height="1344" viewBox="0 0 1440 1344" fill="none" xmlns="http://www.w3.org/2000/svg">
<rect width="1440" height="1344" fill="white"/>
<path d="M256.41 276.285H255.52L255.59 274.539L254.113 275.477L253.668 274.703L255.227 273.906L253.668 273.098L254.113 272.324L255.59 273.262L255.52 271.516H256.41L256.328 273.262L257.805 272.324L258.262 273.098L256.703 273.906L258.262 274.703L257.805 275.477L256.328 274.539L256.41 276.285Z" fill="#F63B3B"/>
<path d="M256.41 445.285H255.52L255.59 443.539L254.113 444.477L253.668 443.703L255.227 442.906L253.668 442.098L254.113 441.324L255.59 442.262L255.52 440.516H256.41L256.328 442.262L257.805 441.324L258.262 442.098L256.703 442.906L258.262 443.703L257.805 444.477L256.328 443.539L256.41 445.285Z" fill="#F63B3B"/>
<path d="M817.41 444.285H816.52L816.59 442.539L815.113 443.477L814.668 442.703L816.227 441.906L814.668 441.098L815.113 440.324L816.59 441.262L816.52 439.516H817.41L817.328 441.262L818.805 440.324L819.262 441.098L817.703 441.906L819.262 442.703L818.805 443.477L817.328 442.539L817.41 444.285Z" fill="#F63B3B"/>
<path d="M266.41 727.285H265.52L265.59 725.539L264.113 726.477L263.668 725.703L265.227 724.906L263.668 724.098L264.113 723.324L265.59 724.262L265.52 722.516H266.41L266.328 724.262L267.805 723.324L268.262 724.098L266.703 724.906L268.262 725.703L267.805 726.477L266.328 725.539L266.41 727.285Z" fill="#F63B3B"/>
<path d="M152.706 128.629C153.095 128.239 153.095 127.608 152.705 127.219C152.316 126.829 151.684 126.829 151.295 127.219L146 132.514L151.295 137.808C151.684 138.198 152.316 138.198 152.705 137.808C153.095 137.419 153.095 136.788 152.706 136.398L148.83 132.514L152.706 128.629Z" fill="#AFAFC1"/>
<path d="M174.861 136.049V137.03H162.938V136.049H174.861ZM173.719 126.996V127.948H171.653V132.504H173.689V133.441H164.021V132.504H166.058V127.948H163.992V126.996H173.719ZM167.2 132.504H170.525V127.948H167.2V132.504ZM187.825 136.122V137.089H175.901V136.122H181.263V133.661H177.396V129.647H185.188V127.597H177.366V126.645H186.316V130.585H178.538V132.709H186.624V133.661H182.391V136.122H187.825ZM197.391 125.971V133.529H196.277V129.999H194.285V129.047H196.277V125.971H197.391ZM192.718 128.476C192.718 129.896 193.67 131.435 195.325 132.123L194.725 133.002C193.501 132.489 192.645 131.515 192.205 130.395C191.744 131.662 190.835 132.753 189.539 133.324L188.924 132.416C190.623 131.698 191.604 130.028 191.604 128.476V127.699H189.173V126.747H195.018V127.699H192.718V128.476ZM199.925 125.678V133.646H198.826V125.678H199.925ZM199.925 134.218V138.7H198.797V135.155H191.15V134.218H199.925ZM212.376 132.724V133.661H203.367V126.806H212.229V127.772H204.539V129.706H211.951V130.629H204.539V132.724H212.376ZM213.753 136.049V137.001H201.829V136.049H213.753ZM226.717 136.122V137.089H214.793V136.122H220.154V133.661H216.287V129.647H224.08V127.597H216.258V126.645H225.208V130.585H217.43V132.709H225.516V133.661H221.282V136.122H226.717ZM241.98 129.179V130.102H238.025V131.361H243.387V132.299H231.521V131.361H236.883V130.102H233.104V126.19H241.849V127.143H234.261V129.179H241.98ZM241.863 133.412V136.312H234.129V137.631H242.259V138.554H232.986V135.463H240.735V134.291H232.957V133.412H241.863ZM247.972 126.688C249.891 126.703 251.253 128.461 251.268 131.229C251.253 133.998 249.891 135.756 247.972 135.756C246.038 135.756 244.69 133.998 244.69 131.229C244.69 128.461 246.038 126.703 247.972 126.688ZM247.972 127.714C246.683 127.729 245.774 129.105 245.774 131.229C245.774 133.354 246.683 134.73 247.972 134.73C249.275 134.73 250.154 133.354 250.154 131.229C250.154 129.105 249.275 127.729 247.972 127.714ZM254.563 125.678V130.878H256.746V131.874H254.563V138.7H253.421V125.678H254.563ZM267.527 125.678V130.98H269.637V131.947H267.527V138.7H266.385V125.678H267.527ZM264.158 127.084C264.158 130.775 262.43 134.13 258.182 136.225L257.537 135.316C260.906 133.639 262.737 131.134 263.001 128.051H258.138V127.084H264.158ZM281.18 125.678V138.7H280.022V125.678H281.18ZM277.327 127.099C277.312 130.849 275.569 134.159 271.204 136.254L270.574 135.316C274.097 133.646 275.892 131.149 276.155 128.036H271.175V127.099H277.327Z" fill="#71717A"/>
<rect x="962" y="1001" width="123" height="58" rx="10" fill="#CBE2FF"/>
<path d="M999.266 1022.77V1036.89H997.531V1022.77H999.266ZM987.562 1032.97C988.688 1032.96 989.961 1032.96 991.297 1032.92V1031.62C989.703 1031.38 988.672 1030.4 988.672 1029.06C988.672 1027.47 990.078 1026.41 992.141 1026.41C994.219 1026.41 995.656 1027.47 995.656 1029.06C995.656 1030.39 994.617 1031.36 993.031 1031.61V1032.86C994.273 1032.8 995.523 1032.7 996.703 1032.55L996.828 1033.84C993.719 1034.38 990.359 1034.41 987.812 1034.41L987.562 1032.97ZM996.453 1024.39V1025.77H987.859V1024.39H991.297V1022.81H993.031V1024.39H996.453ZM992.141 1027.73C991.078 1027.75 990.312 1028.23 990.328 1029.06C990.312 1029.88 991.078 1030.36 992.141 1030.34C993.25 1030.36 993.984 1029.88 993.984 1029.06C993.984 1028.23 993.25 1027.75 992.141 1027.73ZM1005.91 1023.75C1008.14 1023.73 1009.78 1025.16 1009.8 1027.16C1009.78 1029.17 1008.14 1030.58 1005.91 1030.58C1003.69 1030.58 1002.03 1029.17 1002.03 1027.16C1002.03 1025.16 1003.69 1023.73 1005.91 1023.75ZM1005.91 1025.25C1004.67 1025.25 1003.75 1025.98 1003.75 1027.16C1003.75 1028.34 1004.67 1029.06 1005.91 1029.06C1007.16 1029.06 1008.09 1028.34 1008.09 1027.16C1008.09 1025.98 1007.16 1025.25 1005.91 1025.25ZM1013.09 1022.77V1036.91H1011.36V1022.77H1013.09ZM1001.39 1032.53C1003.94 1032.53 1007.47 1032.5 1010.52 1032.06L1010.66 1033.33C1007.48 1033.94 1004.09 1033.95 1001.61 1033.95L1001.39 1032.53ZM1028.05 1030.41V1031.81H1015.14V1030.41H1020.73V1029.23H1016.78V1025.48H1024.72V1024.44H1016.73V1023.08H1026.45V1026.75H1018.5V1027.88H1026.73V1029.23H1022.45V1030.41H1028.05ZM1026.53 1032.7V1036.8H1024.78V1034.08H1016.58V1032.7H1026.53ZM1037.84 1025.22C1037.84 1026.95 1038.97 1028.67 1041.19 1029.41L1040.31 1030.75C1038.73 1030.23 1037.61 1029.16 1037 1027.84C1036.37 1029.29 1035.2 1030.44 1033.55 1031L1032.62 1029.66C1034.91 1028.91 1036.09 1027.08 1036.09 1025.22V1025.05H1033.11V1023.66H1040.78V1025.05H1037.84V1025.22ZM1043.92 1022.77V1026.3H1045.89V1027.75H1043.92V1031.28H1042.19V1022.77H1043.92ZM1043.92 1031.94V1036.89H1042.19V1033.33H1034.52V1031.94H1043.92ZM1051.78 1024.8C1051.77 1026.72 1052.89 1028.47 1055.11 1029.17L1054.17 1030.53C1052.63 1029.99 1051.55 1028.97 1050.95 1027.62C1050.33 1029.16 1049.15 1030.38 1047.44 1030.97L1046.52 1029.56C1048.86 1028.8 1050.03 1026.91 1050.03 1024.88V1023.53H1051.78V1024.8ZM1058.44 1022.77V1031.08H1056.7V1026.92H1053.89V1025.5H1056.7V1022.77H1058.44ZM1053.66 1031.45C1056.66 1031.45 1058.48 1032.45 1058.48 1034.17C1058.48 1035.89 1056.66 1036.88 1053.66 1036.88C1050.67 1036.88 1048.84 1035.89 1048.86 1034.17C1048.84 1032.45 1050.67 1031.45 1053.66 1031.45ZM1053.66 1032.8C1051.69 1032.8 1050.58 1033.28 1050.58 1034.17C1050.58 1035.03 1051.69 1035.52 1053.66 1035.52C1055.62 1035.52 1056.75 1035.03 1056.75 1034.17C1056.75 1033.28 1055.62 1032.8 1053.66 1032.8Z" fill="#3B82F6"/>
<rect x="1106" y="1002" width="147" height="56" rx="9" fill="#3B82F6"/>
<rect x="1106" y="1002" width="147" height="56" rx="9" stroke="#3B82F6" stroke-width="2"/>
<path d="M1146.45 1022.77V1036.89H1144.72V1022.77H1146.45ZM1134.75 1032.97C1135.88 1032.96 1137.15 1032.96 1138.48 1032.92V1031.62C1136.89 1031.38 1135.86 1030.4 1135.86 1029.06C1135.86 1027.47 1137.27 1026.41 1139.33 1026.41C1141.41 1026.41 1142.84 1027.47 1142.84 1029.06C1142.84 1030.39 1141.8 1031.36 1140.22 1031.61V1032.86C1141.46 1032.8 1142.71 1032.7 1143.89 1032.55L1144.02 1033.84C1140.91 1034.38 1137.55 1034.41 1135 1034.41L1134.75 1032.97ZM1143.64 1024.39V1025.77H1135.05V1024.39H1138.48V1022.81H1140.22V1024.39H1143.64ZM1139.33 1027.73C1138.27 1027.75 1137.5 1028.23 1137.52 1029.06C1137.5 1029.88 1138.27 1030.36 1139.33 1030.34C1140.44 1030.36 1141.17 1029.88 1141.17 1029.06C1141.17 1028.23 1140.44 1027.75 1139.33 1027.73ZM1153.09 1023.75C1155.33 1023.73 1156.97 1025.16 1156.98 1027.16C1156.97 1029.17 1155.33 1030.58 1153.09 1030.58C1150.88 1030.58 1149.22 1029.17 1149.22 1027.16C1149.22 1025.16 1150.88 1023.73 1153.09 1023.75ZM1153.09 1025.25C1151.86 1025.25 1150.94 1025.98 1150.94 1027.16C1150.94 1028.34 1151.86 1029.06 1153.09 1029.06C1154.34 1029.06 1155.28 1028.34 1155.28 1027.16C1155.28 1025.98 1154.34 1025.25 1153.09 1025.25ZM1160.28 1022.77V1036.91H1158.55V1022.77H1160.28ZM1148.58 1032.53C1151.12 1032.53 1154.66 1032.5 1157.7 1032.06L1157.84 1033.33C1154.67 1033.94 1151.28 1033.95 1148.8 1033.95L1148.58 1032.53ZM1177.38 1023.34V1028.25H1173.44V1029.73H1179.02V1031.14H1166.14V1029.73H1171.69V1028.25H1167.77V1023.34H1177.38ZM1169.45 1024.7V1026.88H1175.66V1024.7H1169.45ZM1177.44 1032.33V1036.89H1175.7V1033.7H1167.56V1032.33H1177.44ZM1192.88 1033.86V1035.27H1179.97V1033.86H1183.31V1030.95H1181.08V1029.55H1183.06V1025.36H1181.03V1023.97H1191.75V1025.36H1189.69V1029.55H1191.7V1030.95H1189.47V1033.86H1192.88ZM1184.8 1029.55H1187.97V1025.36H1184.8V1029.55ZM1185.05 1033.86H1187.73V1030.95H1185.05V1033.86ZM1209.44 1022.77V1036.91H1207.7V1029.19H1204.98V1027.77H1207.7V1022.77H1209.44ZM1202.78 1026.52C1202.78 1028.95 1204.09 1031.55 1206.38 1032.53L1205.34 1033.92C1203.7 1033.14 1202.53 1031.57 1201.92 1029.7C1201.29 1031.7 1200.09 1033.38 1198.45 1034.2L1197.41 1032.84C1199.67 1031.78 1201 1029.09 1201.02 1026.52V1025.58H1197.98V1024.16H1205.81V1025.58H1202.78V1026.52ZM1216.48 1025.31C1216.48 1027.05 1217.61 1028.67 1219.81 1029.34L1218.98 1030.7C1217.4 1030.21 1216.27 1029.2 1215.66 1027.92C1215.03 1029.41 1213.84 1030.59 1212.14 1031.16L1211.27 1029.78C1213.55 1029.03 1214.73 1027.2 1214.73 1025.33V1025.16H1211.75V1023.75H1219.42V1025.16H1216.48V1025.31ZM1222.56 1022.77V1026.16H1224.53V1027.58H1222.56V1031.19H1220.83V1022.77H1222.56ZM1217.97 1031.5C1220.89 1031.5 1222.69 1032.48 1222.7 1034.17C1222.69 1035.88 1220.89 1036.88 1217.97 1036.88C1215.02 1036.88 1213.19 1035.88 1213.19 1034.17C1213.19 1032.48 1215.02 1031.5 1217.97 1031.5ZM1217.97 1032.86C1216.03 1032.86 1214.92 1033.31 1214.92 1034.17C1214.92 1035.05 1216.03 1035.52 1217.97 1035.52C1219.91 1035.52 1220.98 1035.05 1220.98 1034.17C1220.98 1033.31 1219.91 1032.86 1217.97 1032.86Z" fill="#CBE2FF"/>
<path d="M199.605 281.244V296.994H197.936V281.244H199.605ZM186.668 292.705C187.96 292.696 189.445 292.688 190.992 292.635V291.07C189.146 290.833 187.951 289.752 187.969 288.205C187.951 286.43 189.498 285.252 191.783 285.252C194.086 285.252 195.668 286.43 195.668 288.205C195.668 289.734 194.473 290.807 192.645 291.053V292.582C194.104 292.521 195.58 292.406 196.969 292.23L197.092 293.479C193.594 294.059 189.779 294.094 186.896 294.094L186.668 292.705ZM196.617 283.125V284.461H187.002V283.125H190.992V281.279H192.662V283.125H196.617ZM191.783 286.553C190.465 286.553 189.533 287.203 189.551 288.205C189.533 289.207 190.465 289.822 191.783 289.822C193.137 289.822 194.068 289.207 194.068 288.205C194.068 287.203 193.137 286.553 191.783 286.553ZM207.27 282.369C209.766 282.352 211.541 283.898 211.559 286.113C211.541 288.328 209.766 289.875 207.27 289.875C204.791 289.875 202.963 288.328 202.98 286.113C202.963 283.898 204.791 282.352 207.27 282.369ZM207.27 283.811C205.74 283.811 204.615 284.725 204.633 286.113C204.615 287.502 205.74 288.416 207.27 288.416C208.799 288.416 209.924 287.502 209.924 286.113C209.924 284.725 208.799 283.811 207.27 283.811ZM215.162 281.244V297.029H213.492V281.244H215.162ZM202.225 292.248C205.09 292.248 209.062 292.213 212.508 291.721L212.631 292.934C209.062 293.619 205.248 293.637 202.436 293.637L202.225 292.248ZM234.621 281.895V287.291H230.086V289.119H236.449V290.473H222.088V289.119H228.434V287.291H223.916V281.895H234.621ZM225.551 283.213V285.955H232.969V283.213H225.551ZM234.691 291.967V296.994H233.004V293.285H223.688V291.967H234.691ZM252.059 293.76V295.131H237.645V293.76H241.512V290.262H238.91V288.908H241.266V284.004H238.875V282.633H250.74V284.004H248.332V288.908H250.688V290.262H248.104V293.76H252.059ZM242.918 288.908H246.697V284.004H242.918V288.908ZM243.182 293.76H246.434V290.262H243.182V293.76Z" fill="#18181B"/>
<rect x="274.5" y="261.5" width="978" height="55" rx="8.5" stroke="#FAFAFA" stroke-width="3"/>
<path d="M307.451 288.199V289.327H302.148V290.587C304.558 290.719 305.986 291.532 305.986 292.901C305.986 294.396 304.287 295.23 301.46 295.216C298.604 295.23 296.904 294.396 296.904 292.901C296.904 291.532 298.333 290.719 300.771 290.587V289.327H295.483V288.199H307.451ZM301.46 291.642C299.453 291.642 298.311 292.096 298.311 292.901C298.311 293.692 299.453 294.161 301.46 294.146C303.438 294.161 304.595 293.692 304.595 292.901C304.595 292.096 303.438 291.642 301.46 291.642ZM306.382 282.721V283.834H302.397C302.595 285.101 304.441 286.178 306.836 286.412L306.338 287.511C304.067 287.247 302.185 286.288 301.475 284.889C300.742 286.288 298.867 287.247 296.597 287.511L296.113 286.412C298.472 286.178 300.325 285.101 300.522 283.834H296.582V282.721H306.382ZM318.76 282.12V286.002H320.664V287.159H318.76V291.656H317.354V282.12H318.76ZM315.2 283.116C315.2 286.559 312.856 289.063 309.019 290.221L308.433 289.107C311.501 288.185 313.413 286.441 313.691 284.273H308.989V283.116H315.2ZM319.302 293.839V294.967H310.425V290.675H311.831V293.839H319.302ZM329.629 284.522C329.629 286.28 330.859 287.936 332.852 288.609L332.134 289.708C330.662 289.188 329.57 288.141 328.984 286.822C328.413 288.294 327.285 289.444 325.747 290.016L324.971 288.917C327.051 288.199 328.252 286.441 328.252 284.479V282.926H329.629V284.522ZM335.386 282.105V286.061H337.29V287.247H335.386V291.788H333.994V282.105H335.386ZM335.957 293.839V294.967H327.08V290.851H328.501V293.839H335.957ZM349.99 287.877V288.917H344.702V290.016H348.496V292.975H340.85V294.059H348.862V295.113H339.487V292.008H347.119V291.026H339.473V290.016H343.325V288.917H338.052V287.877H349.99ZM344.702 282.062V283.219H348.804V284.288H344.819C345.083 285.401 346.863 286.178 349.404 286.31L348.979 287.364C346.694 287.203 344.834 286.529 344.014 285.372C343.193 286.529 341.333 287.203 339.033 287.364L338.638 286.31C341.157 286.178 342.93 285.401 343.223 284.288H339.238V283.219H343.325V282.062H344.702ZM362.969 287.555V288.668H357.666V289.811H361.46V292.887H353.813V294.044H361.826V295.113H352.451V291.876H360.083V290.88H352.437V289.811H356.274V288.668H351.001V287.555H362.969ZM361.431 282.545V286.588H352.539V282.545H361.431ZM353.901 283.644V285.489H360.039V283.644H353.901ZM378.892 282.12V295.245H377.559V282.12H378.892ZM376.226 282.398V294.586H374.907V287.906H372.871V286.764H374.907V282.398H376.226ZM371.582 285.782C371.582 288.023 372.49 290.265 374.336 291.334L373.501 292.359C372.249 291.612 371.384 290.287 370.938 288.697C370.461 290.411 369.568 291.869 368.286 292.667L367.437 291.627C369.297 290.499 370.249 288.111 370.249 285.782V284.728H367.832V283.6H373.838V284.728H371.582V285.782ZM392.544 287.877V288.917H387.256V290.016H391.05V292.975H383.403V294.059H391.416V295.113H382.041V292.008H389.673V291.026H382.026V290.016H385.879V288.917H380.605V287.877H392.544ZM387.256 282.062V283.219H391.357V284.288H387.373C387.637 285.401 389.417 286.178 391.958 286.31L391.533 287.364C389.248 287.203 387.388 286.529 386.567 285.372C385.747 286.529 383.887 287.203 381.587 287.364L381.191 286.31C383.711 286.178 385.483 285.401 385.776 284.288H381.792V283.219H385.879V282.062H387.256ZM403.779 282.12V287.438H405.889V288.595H403.779V295.245H402.402V282.12H403.779ZM401.26 284.171V285.313H393.481V284.171H396.719V282.296H398.11V284.171H401.26ZM397.422 286.28C399.297 286.28 400.674 287.54 400.688 289.327C400.674 291.129 399.297 292.374 397.422 292.389C395.532 292.374 394.155 291.129 394.155 289.327C394.155 287.54 395.532 286.28 397.422 286.28ZM397.422 287.423C396.309 287.423 395.474 288.199 395.488 289.327C395.474 290.47 396.309 291.231 397.422 291.217C398.535 291.231 399.355 290.47 399.355 289.327C399.355 288.199 398.535 287.423 397.422 287.423ZM417.432 282.12V295.245H416.025V282.12H417.432ZM413.521 283.526C413.521 287.364 411.88 290.704 407.383 292.857L406.65 291.729C410.144 290.067 411.843 287.701 412.114 284.64H407.28V283.526H413.521Z" fill="#18181B"/>
<path d="M199.605 736.244V751.994H197.936V736.244H199.605ZM186.668 747.705C187.96 747.696 189.445 747.688 190.992 747.635V746.07C189.146 745.833 187.951 744.752 187.969 743.205C187.951 741.43 189.498 740.252 191.783 740.252C194.086 740.252 195.668 741.43 195.668 743.205C195.668 744.734 194.473 745.807 192.645 746.053V747.582C194.104 747.521 195.58 747.406 196.969 747.23L197.092 748.479C193.594 749.059 189.779 749.094 186.896 749.094L186.668 747.705ZM196.617 738.125V739.461H187.002V738.125H190.992V736.279H192.662V738.125H196.617ZM191.783 741.553C190.465 741.553 189.533 742.203 189.551 743.205C189.533 744.207 190.465 744.822 191.783 744.822C193.137 744.822 194.068 744.207 194.068 743.205C194.068 742.203 193.137 741.553 191.783 741.553ZM207.27 737.369C209.766 737.352 211.541 738.898 211.559 741.113C211.541 743.328 209.766 744.875 207.27 744.875C204.791 744.875 202.963 743.328 202.98 741.113C202.963 738.898 204.791 737.352 207.27 737.369ZM207.27 738.811C205.74 738.811 204.615 739.725 204.633 741.113C204.615 742.502 205.74 743.416 207.27 743.416C208.799 743.416 209.924 742.502 209.924 741.113C209.924 739.725 208.799 738.811 207.27 738.811ZM215.162 736.244V752.029H213.492V736.244H215.162ZM202.225 747.248C205.09 747.248 209.062 747.213 212.508 746.721L212.631 747.934C209.062 748.619 205.248 748.637 202.436 748.637L202.225 747.248ZM234.463 736.227V740.938H236.748V742.344H234.463V747.811H232.793V736.227H234.463ZM235.131 750.307V751.66H224.479V746.598H226.148V750.307H235.131ZM226.518 737.316C228.891 737.316 230.701 738.934 230.719 741.236C230.701 743.521 228.891 745.156 226.518 745.156C224.145 745.156 222.316 743.521 222.334 741.236C222.316 738.934 224.145 737.316 226.518 737.316ZM226.518 738.775C225.076 738.775 223.951 739.777 223.969 741.236C223.951 742.695 225.076 743.697 226.518 743.697C227.977 743.697 229.084 742.695 229.084 741.236C229.084 739.777 227.977 738.775 226.518 738.775ZM250.775 736.262V747.863H249.105V742.396H245.836V741.008H249.105V736.262H250.775ZM245.941 737.439C245.924 741.553 243.094 744.646 238.576 746.105L237.873 744.77C241.38 743.636 243.762 741.491 244.113 738.828H238.682V737.439H245.941ZM251.18 750.307V751.66H240.633V746.668H242.32V750.307H251.18ZM258.58 737.773V750.5H256.629V739.707H256.559L253.518 741.693V739.848L256.682 737.773H258.58Z" fill="#18181B"/>
<rect x="273" y="715" width="981" height="58" rx="10" fill="#FAFAFA"/>
<path d="M306.338 737.12V750.245H304.946V737.12H306.338ZM295.557 746.671C296.633 746.664 297.871 746.656 299.16 746.612V745.309C297.622 745.111 296.626 744.21 296.641 742.921C296.626 741.441 297.915 740.46 299.819 740.46C301.738 740.46 303.057 741.441 303.057 742.921C303.057 744.195 302.061 745.089 300.537 745.294V746.568C301.753 746.517 302.983 746.422 304.141 746.275L304.243 747.315C301.328 747.799 298.149 747.828 295.747 747.828L295.557 746.671ZM303.848 738.688V739.801H295.835V738.688H299.16V737.149H300.552V738.688H303.848ZM299.819 741.544C298.721 741.544 297.944 742.086 297.959 742.921C297.944 743.756 298.721 744.269 299.819 744.269C300.947 744.269 301.724 743.756 301.724 742.921C301.724 742.086 300.947 741.544 299.819 741.544ZM312.725 738.058C314.805 738.043 316.284 739.332 316.299 741.178C316.284 743.023 314.805 744.312 312.725 744.312C310.659 744.312 309.136 743.023 309.15 741.178C309.136 739.332 310.659 738.043 312.725 738.058ZM312.725 739.259C311.45 739.259 310.513 740.021 310.527 741.178C310.513 742.335 311.45 743.097 312.725 743.097C313.999 743.097 314.937 742.335 314.937 741.178C314.937 740.021 313.999 739.259 312.725 739.259ZM319.302 737.12V750.274H317.91V737.12H319.302ZM308.521 746.29C310.908 746.29 314.219 746.261 317.09 745.851L317.192 746.861C314.219 747.433 311.04 747.447 308.696 747.447L308.521 746.29ZM335.386 737.105V741.031H337.29V742.203H335.386V746.759H333.994V737.105H335.386ZM335.942 748.839V749.967H327.065V745.748H328.457V748.839H335.942ZM328.765 738.014C330.742 738.014 332.251 739.361 332.266 741.28C332.251 743.185 330.742 744.547 328.765 744.547C326.787 744.547 325.264 743.185 325.278 741.28C325.264 739.361 326.787 738.014 328.765 738.014ZM328.765 739.229C327.563 739.229 326.626 740.064 326.641 741.28C326.626 742.496 327.563 743.331 328.765 743.331C329.98 743.331 330.903 742.496 330.903 741.28C330.903 740.064 329.98 739.229 328.765 739.229ZM348.979 737.135V746.803H347.588V742.247H344.863V741.09H347.588V737.135H348.979ZM344.951 738.116C344.937 741.544 342.578 744.122 338.813 745.338L338.228 744.225C341.15 743.28 343.135 741.493 343.428 739.273H338.901V738.116H344.951ZM349.316 748.839V749.967H340.527V745.807H341.934V748.839H349.316ZM356.978 737.34C359.937 737.34 361.665 738.131 361.665 739.596C361.665 741.061 359.937 741.866 356.978 741.866C354.019 741.866 352.29 741.061 352.29 739.596C352.29 738.131 354.019 737.34 356.978 737.34ZM356.978 738.365C354.883 738.365 353.726 738.819 353.74 739.596C353.726 740.401 354.883 740.826 356.978 740.826C359.072 740.826 360.229 740.401 360.229 739.596C360.229 738.819 359.072 738.365 356.978 738.365ZM362.969 742.672V743.785H351.001V742.672H362.969ZM361.46 744.796V747.872H353.813V749.044H361.826V750.113H352.451V746.861H360.083V745.836H352.437V744.796H361.46ZM372.212 739.479C372.212 741.148 373.369 742.745 375.376 743.419L374.673 744.503C373.186 743.99 372.095 742.965 371.523 741.676C370.952 743.097 369.817 744.21 368.271 744.752L367.524 743.668C369.575 742.965 370.806 741.28 370.82 739.464V739.112H367.935V737.984H375.039V739.112H372.212V739.479ZM377.939 737.12V740.489H379.844V741.661H377.939V745.03H376.548V737.12H377.939ZM377.939 745.675V750.245H376.548V746.803H369.268V745.675H377.939ZM385.249 739.083C385.249 740.929 386.436 742.569 388.428 743.214L387.666 744.298C386.223 743.778 385.161 742.767 384.59 741.456C384.019 742.958 382.876 744.122 381.294 744.693L380.547 743.58C382.642 742.862 383.857 741.119 383.872 739.142V737.853H385.249V739.083ZM391.533 737.12V744.869H390.142V740.929H387.373V739.786H390.142V737.12H391.533ZM387.139 745.235C389.893 745.235 391.577 746.144 391.577 747.74C391.577 749.322 389.893 750.23 387.139 750.216C384.385 750.23 382.686 749.322 382.7 747.74C382.686 746.144 384.385 745.235 387.139 745.235ZM387.139 746.319C385.22 746.319 384.077 746.832 384.077 747.74C384.077 748.619 385.22 749.117 387.139 749.117C389.058 749.117 390.2 748.619 390.2 747.74C390.2 746.832 389.058 746.319 387.139 746.319ZM400.044 739.288V740.416H393.525V739.288H396.104V737.501H397.48V739.288H400.044ZM396.792 741.207C398.462 741.207 399.634 742.452 399.648 744.225C399.634 746.012 398.462 747.271 396.792 747.271C395.151 747.271 393.936 746.012 393.95 744.225C393.936 742.452 395.151 741.207 396.792 741.207ZM396.792 742.364C395.84 742.364 395.181 743.141 395.181 744.225C395.181 745.338 395.84 746.085 396.792 746.085C397.729 746.085 398.418 745.338 398.418 744.225C398.418 743.141 397.729 742.364 396.792 742.364ZM404.79 737.12V750.245H403.472V743.727H401.963V749.63H400.645V737.413H401.963V742.584H403.472V737.12H404.79ZM418.486 744.518V745.646H413.154V750.23H411.792V745.646H406.519V744.518H418.486ZM417.358 737.896V739.01H413.301C413.323 740.636 415.344 742.086 417.827 742.423L417.314 743.521C415.161 743.185 413.301 742.123 412.51 740.621C411.697 742.123 409.844 743.185 407.72 743.521L407.192 742.423C409.646 742.086 411.667 740.636 411.719 739.01H407.632V737.896H417.358ZM423.481 740.709C423.481 742.804 424.36 745.045 426.118 746.114L425.342 747.184C424.111 746.444 423.276 745.133 422.837 743.609C422.346 745.279 421.445 746.7 420.171 747.477L419.307 746.437C421.167 745.323 422.134 743.009 422.134 740.768V738.321H423.481V740.709ZM430.776 737.12V750.245H429.443V737.12H430.776ZM428.052 737.369V749.601H426.733V742.892H424.697V741.734H426.733V737.369H428.052ZM444.458 747.447V748.604H432.446V747.447H435.317V744.02C434.241 743.426 433.589 742.481 433.589 741.31C433.589 739.244 435.61 737.882 438.423 737.882C441.25 737.882 443.271 739.244 443.271 741.31C443.271 742.467 442.642 743.397 441.587 743.99V747.447H444.458ZM438.423 738.995C436.357 738.995 434.937 739.889 434.937 741.31C434.937 742.716 436.357 743.639 438.423 743.639C440.474 743.639 441.924 742.716 441.924 741.31C441.924 739.889 440.474 738.995 438.423 738.995ZM436.694 747.447H440.181V744.518C439.646 744.657 439.053 744.723 438.423 744.723C437.808 744.723 437.222 744.657 436.694 744.532V747.447Z" fill="#71717A"/>
<path d="M199.605 819.244V834.994H197.936V819.244H199.605ZM186.668 830.705C187.96 830.696 189.445 830.688 190.992 830.635V829.07C189.146 828.833 187.951 827.752 187.969 826.205C187.951 824.43 189.498 823.252 191.783 823.252C194.086 823.252 195.668 824.43 195.668 826.205C195.668 827.734 194.473 828.807 192.645 829.053V830.582C194.104 830.521 195.58 830.406 196.969 830.23L197.092 831.479C193.594 832.059 189.779 832.094 186.896 832.094L186.668 830.705ZM196.617 821.125V822.461H187.002V821.125H190.992V819.279H192.662V821.125H196.617ZM191.783 824.553C190.465 824.553 189.533 825.203 189.551 826.205C189.533 827.207 190.465 827.822 191.783 827.822C193.137 827.822 194.068 827.207 194.068 826.205C194.068 825.203 193.137 824.553 191.783 824.553ZM207.27 820.369C209.766 820.352 211.541 821.898 211.559 824.113C211.541 826.328 209.766 827.875 207.27 827.875C204.791 827.875 202.963 826.328 202.98 824.113C202.963 821.898 204.791 820.352 207.27 820.369ZM207.27 821.811C205.74 821.811 204.615 822.725 204.633 824.113C204.615 825.502 205.74 826.416 207.27 826.416C208.799 826.416 209.924 825.502 209.924 824.113C209.924 822.725 208.799 821.811 207.27 821.811ZM215.162 819.244V835.029H213.492V819.244H215.162ZM202.225 830.248C205.09 830.248 209.062 830.213 212.508 829.721L212.631 830.934C209.062 831.619 205.248 831.637 202.436 831.637L202.225 830.248ZM234.463 819.227V823.938H236.748V825.344H234.463V830.811H232.793V819.227H234.463ZM235.131 833.307V834.66H224.479V829.598H226.148V833.307H235.131ZM226.518 820.316C228.891 820.316 230.701 821.934 230.719 824.236C230.701 826.521 228.891 828.156 226.518 828.156C224.145 828.156 222.316 826.521 222.334 824.236C222.316 821.934 224.145 820.316 226.518 820.316ZM226.518 821.775C225.076 821.775 223.951 822.777 223.969 824.236C223.951 825.695 225.076 826.697 226.518 826.697C227.977 826.697 229.084 825.695 229.084 824.236C229.084 822.777 227.977 821.775 226.518 821.775ZM250.775 819.262V830.863H249.105V825.396H245.836V824.008H249.105V819.262H250.775ZM245.941 820.439C245.924 824.553 243.094 827.646 238.576 829.105L237.873 827.77C241.38 826.636 243.762 824.491 244.113 821.828H238.682V820.439H245.941ZM251.18 833.307V834.66H240.633V829.668H242.32V833.307H251.18ZM258.58 820.773V833.5H256.629V822.707H256.559L253.518 824.693V822.848L256.682 820.773H258.58Z" fill="#18181B"/>
<rect x="273" y="798" width="981" height="58" rx="10" fill="#FAFAFA"/>
<path d="M306.338 819.12V832.245H304.946V819.12H306.338ZM295.557 828.671C296.633 828.664 297.871 828.656 299.16 828.612V827.309C297.622 827.111 296.626 826.21 296.641 824.921C296.626 823.441 297.915 822.46 299.819 822.46C301.738 822.46 303.057 823.441 303.057 824.921C303.057 826.195 302.061 827.089 300.537 827.294V828.568C301.753 828.517 302.983 828.422 304.141 828.275L304.243 829.315C301.328 829.799 298.149 829.828 295.747 829.828L295.557 828.671ZM303.848 820.688V821.801H295.835V820.688H299.16V819.149H300.552V820.688H303.848ZM299.819 823.544C298.721 823.544 297.944 824.086 297.959 824.921C297.944 825.756 298.721 826.269 299.819 826.269C300.947 826.269 301.724 825.756 301.724 824.921C301.724 824.086 300.947 823.544 299.819 823.544ZM312.725 820.058C314.805 820.043 316.284 821.332 316.299 823.178C316.284 825.023 314.805 826.312 312.725 826.312C310.659 826.312 309.136 825.023 309.15 823.178C309.136 821.332 310.659 820.043 312.725 820.058ZM312.725 821.259C311.45 821.259 310.513 822.021 310.527 823.178C310.513 824.335 311.45 825.097 312.725 825.097C313.999 825.097 314.937 824.335 314.937 823.178C314.937 822.021 313.999 821.259 312.725 821.259ZM319.302 819.12V832.274H317.91V819.12H319.302ZM308.521 828.29C310.908 828.29 314.219 828.261 317.09 827.851L317.192 828.861C314.219 829.433 311.04 829.447 308.696 829.447L308.521 828.29ZM335.386 819.105V823.031H337.29V824.203H335.386V828.759H333.994V819.105H335.386ZM335.942 830.839V831.967H327.065V827.748H328.457V830.839H335.942ZM328.765 820.014C330.742 820.014 332.251 821.361 332.266 823.28C332.251 825.185 330.742 826.547 328.765 826.547C326.787 826.547 325.264 825.185 325.278 823.28C325.264 821.361 326.787 820.014 328.765 820.014ZM328.765 821.229C327.563 821.229 326.626 822.064 326.641 823.28C326.626 824.496 327.563 825.331 328.765 825.331C329.98 825.331 330.903 824.496 330.903 823.28C330.903 822.064 329.98 821.229 328.765 821.229ZM348.979 819.135V828.803H347.588V824.247H344.863V823.09H347.588V819.135H348.979ZM344.951 820.116C344.937 823.544 342.578 826.122 338.813 827.338L338.228 826.225C341.15 825.28 343.135 823.493 343.428 821.273H338.901V820.116H344.951ZM349.316 830.839V831.967H340.527V827.807H341.934V830.839H349.316ZM356.978 819.34C359.937 819.34 361.665 820.131 361.665 821.596C361.665 823.061 359.937 823.866 356.978 823.866C354.019 823.866 352.29 823.061 352.29 821.596C352.29 820.131 354.019 819.34 356.978 819.34ZM356.978 820.365C354.883 820.365 353.726 820.819 353.74 821.596C353.726 822.401 354.883 822.826 356.978 822.826C359.072 822.826 360.229 822.401 360.229 821.596C360.229 820.819 359.072 820.365 356.978 820.365ZM362.969 824.672V825.785H351.001V824.672H362.969ZM361.46 826.796V829.872H353.813V831.044H361.826V832.113H352.451V828.861H360.083V827.836H352.437V826.796H361.46ZM372.212 821.479C372.212 823.148 373.369 824.745 375.376 825.419L374.673 826.503C373.186 825.99 372.095 824.965 371.523 823.676C370.952 825.097 369.817 826.21 368.271 826.752L367.524 825.668C369.575 824.965 370.806 823.28 370.82 821.464V821.112H367.935V819.984H375.039V821.112H372.212V821.479ZM377.939 819.12V822.489H379.844V823.661H377.939V827.03H376.548V819.12H377.939ZM377.939 827.675V832.245H376.548V828.803H369.268V827.675H377.939ZM385.249 821.083C385.249 822.929 386.436 824.569 388.428 825.214L387.666 826.298C386.223 825.778 385.161 824.767 384.59 823.456C384.019 824.958 382.876 826.122 381.294 826.693L380.547 825.58C382.642 824.862 383.857 823.119 383.872 821.142V819.853H385.249V821.083ZM391.533 819.12V826.869H390.142V822.929H387.373V821.786H390.142V819.12H391.533ZM387.139 827.235C389.893 827.235 391.577 828.144 391.577 829.74C391.577 831.322 389.893 832.23 387.139 832.216C384.385 832.23 382.686 831.322 382.7 829.74C382.686 828.144 384.385 827.235 387.139 827.235ZM387.139 828.319C385.22 828.319 384.077 828.832 384.077 829.74C384.077 830.619 385.22 831.117 387.139 831.117C389.058 831.117 390.2 830.619 390.2 829.74C390.2 828.832 389.058 828.319 387.139 828.319ZM400.044 821.288V822.416H393.525V821.288H396.104V819.501H397.48V821.288H400.044ZM396.792 823.207C398.462 823.207 399.634 824.452 399.648 826.225C399.634 828.012 398.462 829.271 396.792 829.271C395.151 829.271 393.936 828.012 393.95 826.225C393.936 824.452 395.151 823.207 396.792 823.207ZM396.792 824.364C395.84 824.364 395.181 825.141 395.181 826.225C395.181 827.338 395.84 828.085 396.792 828.085C397.729 828.085 398.418 827.338 398.418 826.225C398.418 825.141 397.729 824.364 396.792 824.364ZM404.79 819.12V832.245H403.472V825.727H401.963V831.63H400.645V819.413H401.963V824.584H403.472V819.12H404.79ZM418.486 826.518V827.646H413.154V832.23H411.792V827.646H406.519V826.518H418.486ZM417.358 819.896V821.01H413.301C413.323 822.636 415.344 824.086 417.827 824.423L417.314 825.521C415.161 825.185 413.301 824.123 412.51 822.621C411.697 824.123 409.844 825.185 407.72 825.521L407.192 824.423C409.646 824.086 411.667 822.636 411.719 821.01H407.632V819.896H417.358ZM423.481 822.709C423.481 824.804 424.36 827.045 426.118 828.114L425.342 829.184C424.111 828.444 423.276 827.133 422.837 825.609C422.346 827.279 421.445 828.7 420.171 829.477L419.307 828.437C421.167 827.323 422.134 825.009 422.134 822.768V820.321H423.481V822.709ZM430.776 819.12V832.245H429.443V819.12H430.776ZM428.052 819.369V831.601H426.733V824.892H424.697V823.734H426.733V819.369H428.052ZM444.458 829.447V830.604H432.446V829.447H435.317V826.02C434.241 825.426 433.589 824.481 433.589 823.31C433.589 821.244 435.61 819.882 438.423 819.882C441.25 819.882 443.271 821.244 443.271 823.31C443.271 824.467 442.642 825.397 441.587 825.99V829.447H444.458ZM438.423 820.995C436.357 820.995 434.937 821.889 434.937 823.31C434.937 824.716 436.357 825.639 438.423 825.639C440.474 825.639 441.924 824.716 441.924 823.31C441.924 821.889 440.474 820.995 438.423 820.995ZM436.694 829.447H440.181V826.518C439.646 826.657 439.053 826.723 438.423 826.723C437.808 826.723 437.222 826.657 436.694 826.532V829.447Z" fill="#71717A"/>
<g clip-path="url(#clip0_1004_6828)">
<path d="M1213.83 821.343L1212.66 820.168L1208 824.826L1203.34 820.168L1202.17 821.343L1206.82 826.001L1202.17 830.66L1203.34 831.835L1208 827.176L1212.66 831.835L1213.83 830.66L1209.17 826.001L1213.83 821.343Z" fill="#18181B"/>
</g>
<path d="M192.1 533.496C192.1 535.324 193.523 537.012 195.932 537.697L195.158 538.998C193.339 538.462 191.994 537.354 191.291 535.922C190.605 537.504 189.226 538.726 187.354 539.297L186.545 537.996C188.953 537.293 190.447 535.482 190.447 533.496V533.338H187.02V532.002H190.447V530.174H192.117V532.002H195.527V533.338H192.1V533.496ZM198.955 530.244V534.146H201.24V535.535H198.955V539.543H197.285V530.244H198.955ZM198.955 540.246V545.801H188.9V540.246H198.955ZM190.535 541.564V544.447H197.303V541.564H190.535ZM214.881 531.756V533.303C214.881 535.254 214.881 537.434 214.283 540.65L212.596 540.475C213.211 537.434 213.211 535.201 213.211 533.303V533.109H203.648V531.756H214.881ZM216.498 542.479V543.867H202.137V542.479H207.604V536.924H209.256V542.479H216.498ZM227.572 534.885C227.572 537.381 229.207 540.158 231.598 541.283L230.648 542.584C228.882 541.731 227.484 539.956 226.781 537.891C226.052 540.149 224.575 542.092 222.773 542.988L221.789 541.67C224.18 540.527 225.92 537.557 225.92 534.885V533.215H222.369V531.826H231V533.215H227.572V534.885ZM234.357 530.244V536.484H236.889V537.891H234.357V545.994H232.688V530.244H234.357ZM252.059 542.707V544.113H237.645V542.707H241.582V539.93H239.402V534.92H248.648V532.723H239.367V531.352H250.301V536.273H241.055V538.559H250.67V539.93H248.279V542.707H252.059ZM243.199 542.707H246.645V539.93H243.199V542.707Z" fill="#18181B"/>
<rect x="273" y="509" width="858" height="58" rx="10" fill="#FAFAFA"/>
<path d="M306.719 531.12V544.245H305.386V537.521H303.701V543.571H302.397V531.384H303.701V536.379H305.386V531.12H306.719ZM297.49 532.673V539.675C298.706 539.667 300.032 539.572 301.519 539.279L301.665 540.495C299.863 540.817 298.354 540.905 296.948 540.905H296.099V532.673H297.49ZM312.71 543V532.395H316.489C318.95 532.395 320.166 533.874 320.166 535.837C320.166 537.785 318.95 539.279 316.489 539.279H314.321V543H312.71ZM314.321 537.902H316.328C317.896 537.902 318.54 537.023 318.54 535.837C318.54 534.636 317.896 533.771 316.328 533.771H314.321V537.902ZM329.043 535.852C328.779 534.489 327.651 533.728 326.304 533.728C324.473 533.728 323.11 535.134 323.11 537.697C323.11 540.275 324.487 541.667 326.304 541.667C327.637 541.667 328.765 540.92 329.043 539.572L330.669 539.587C330.332 541.682 328.618 543.146 326.289 543.146C323.521 543.146 321.514 541.081 321.514 537.697C321.514 534.299 323.535 532.248 326.289 532.248C328.53 532.248 330.303 533.566 330.669 535.852H329.043ZM343.105 531.12V544.245H341.772V531.12H343.105ZM340.439 531.369V543.601H339.106V537.272H337.627C337.51 539.836 336.411 541.433 334.785 541.418C333.071 541.433 331.958 539.631 331.958 536.789C331.958 533.947 333.071 532.16 334.785 532.175C336.382 532.16 337.466 533.676 337.627 536.145H339.106V531.369H340.439ZM334.785 533.479C333.833 533.479 333.247 534.694 333.247 536.789C333.247 538.884 333.833 540.1 334.785 540.1C335.752 540.1 336.353 538.884 336.353 536.789C336.353 534.694 335.752 533.479 334.785 533.479ZM349.507 534.46C349.507 536.862 350.854 539.25 352.861 540.158L352.012 541.271C350.518 540.524 349.397 539.038 348.818 537.243C348.24 539.133 347.09 540.729 345.581 541.521L344.702 540.393C346.738 539.426 348.101 536.892 348.101 534.46V532.219H349.507V534.46ZM355.718 531.12V544.274H354.341V536.613H351.411V535.485H354.341V531.12H355.718ZM368.916 532.468V533.61H367.568V539.719C368.22 539.682 368.857 539.616 369.473 539.543L369.546 540.554C366.792 541.008 363.701 541.052 361.401 541.066L361.24 539.909L362.91 539.895V533.61H361.562V532.468H368.916ZM371.626 531.12V536.291H373.735V537.434H371.626V544.245H370.234V531.12H371.626ZM364.258 539.865C364.902 539.858 365.562 539.836 366.221 539.807V533.61H364.258V539.865ZM378.086 531.56C380.063 531.574 381.514 532.79 381.528 534.504C381.514 536.232 380.063 537.434 378.086 537.434C376.094 537.434 374.629 536.232 374.629 534.504C374.629 532.79 376.094 531.574 378.086 531.56ZM378.086 532.731C376.87 532.717 375.977 533.435 375.991 534.504C375.977 535.588 376.87 536.306 378.086 536.306C379.287 536.306 380.181 535.588 380.181 534.504C380.181 533.435 379.287 532.717 378.086 532.731ZM385.249 531.12V537.8H383.857V531.12H385.249ZM385.249 538.4V541.711H378.013V542.971H385.688V544.084H376.665V540.671H383.872V539.514H376.621V538.4H385.249ZM393.306 531.34C396.265 531.34 397.993 532.131 397.993 533.596C397.993 535.061 396.265 535.866 393.306 535.866C390.347 535.866 388.618 535.061 388.618 533.596C388.618 532.131 390.347 531.34 393.306 531.34ZM393.306 532.365C391.211 532.365 390.054 532.819 390.068 533.596C390.054 534.401 391.211 534.826 393.306 534.826C395.4 534.826 396.558 534.401 396.558 533.596C396.558 532.819 395.4 532.365 393.306 532.365ZM399.297 536.672V537.785H387.329V536.672H399.297ZM397.788 538.796V541.872H390.142V543.044H398.154V544.113H388.779V540.861H396.411V539.836H388.765V538.796H397.788ZM407.588 531.721C409.316 531.706 410.649 532.709 410.942 534.182H413.506V531.12H414.897V538.166H413.506V535.324H410.957C410.671 536.833 409.331 537.844 407.588 537.844C405.581 537.844 404.146 536.584 404.146 534.768C404.146 532.98 405.581 531.706 407.588 531.721ZM407.588 532.878C406.343 532.878 405.479 533.64 405.479 534.768C405.479 535.896 406.343 536.672 407.588 536.672C408.804 536.672 409.668 535.896 409.668 534.768C409.668 533.64 408.804 532.878 407.588 532.878ZM407.72 538.796V540.319H413.506V538.796H414.897V544.084H406.343V538.796H407.72ZM407.72 542.941H413.506V541.418H407.72V542.941ZM428.931 541.506V542.678H416.919V541.506H422.207V539.206H418.384V535.031H426.089V533.186H418.354V532.043H427.466V536.145H419.761V538.063H427.773V539.206H423.584V541.506H428.931ZM440.518 537.346V538.488H431.377V532.292H440.4V533.435H432.754V537.346H440.518ZM441.895 541.359V542.517H429.883V541.359H441.895ZM452.998 533.288V534.416H446.479V533.288H449.058V531.501H450.435V533.288H452.998ZM449.746 535.207C451.416 535.207 452.588 536.452 452.603 538.225C452.588 540.012 451.416 541.271 449.746 541.271C448.105 541.271 446.89 540.012 446.904 538.225C446.89 536.452 448.105 535.207 449.746 535.207ZM449.746 536.364C448.794 536.364 448.135 537.141 448.135 538.225C448.135 539.338 448.794 540.085 449.746 540.085C450.684 540.085 451.372 539.338 451.372 538.225C451.372 537.141 450.684 536.364 449.746 536.364ZM457.744 531.12V544.245H456.426V537.727H454.917V543.63H453.599V531.413H454.917V536.584H456.426V531.12H457.744ZM471.44 538.518V539.646H466.108V544.23H464.746V539.646H459.473V538.518H471.44ZM470.312 531.896V533.01H466.255C466.277 534.636 468.298 536.086 470.781 536.423L470.269 537.521C468.115 537.185 466.255 536.123 465.464 534.621C464.651 536.123 462.798 537.185 460.674 537.521L460.146 536.423C462.6 536.086 464.622 534.636 464.673 533.01H460.586V531.896H470.312ZM476.436 534.709C476.436 536.804 477.314 539.045 479.072 540.114L478.296 541.184C477.065 540.444 476.23 539.133 475.791 537.609C475.3 539.279 474.399 540.7 473.125 541.477L472.261 540.437C474.121 539.323 475.088 537.009 475.088 534.768V532.321H476.436V534.709ZM483.73 531.12V544.245H482.397V531.12H483.73ZM481.006 531.369V543.601H479.688V536.892H477.651V535.734H479.688V531.369H481.006ZM497.412 541.447V542.604H485.4V541.447H488.271V538.02C487.195 537.426 486.543 536.481 486.543 535.31C486.543 533.244 488.564 531.882 491.377 531.882C494.204 531.882 496.226 533.244 496.226 535.31C496.226 536.467 495.596 537.397 494.541 537.99V541.447H497.412ZM491.377 532.995C489.312 532.995 487.891 533.889 487.891 535.31C487.891 536.716 489.312 537.639 491.377 537.639C493.428 537.639 494.878 536.716 494.878 535.31C494.878 533.889 493.428 532.995 491.377 532.995ZM489.648 541.447H493.135V538.518C492.6 538.657 492.007 538.723 491.377 538.723C490.762 538.723 490.176 538.657 489.648 538.532V541.447Z" fill="#71717A"/>
<rect x="1151" y="509" width="103" height="58" rx="10" fill="#D5D9DE"/>
<path d="M1187.17 532.147C1188.88 532.133 1190.23 533.122 1190.57 534.579H1192.96V531.562H1194.58V538.666H1192.96V535.897H1190.58C1190.25 537.384 1188.89 538.388 1187.17 538.388C1185.13 538.388 1183.67 537.084 1183.67 535.253C1183.67 533.451 1185.13 532.133 1187.17 532.147ZM1187.17 533.51C1186.03 533.51 1185.22 534.184 1185.22 535.253C1185.22 536.308 1186.03 537.011 1187.17 537.011C1188.28 537.011 1189.07 536.308 1189.09 535.253C1189.07 534.184 1188.28 533.51 1187.17 533.51ZM1187.46 539.281V540.688H1192.96V539.281H1194.58V544.643H1185.85V539.281H1187.46ZM1187.46 543.324H1192.96V541.947H1187.46V543.324ZM1208.56 541.918V543.266H1196.46V541.918H1201.67V539.765H1197.89V535.429H1205.51V533.788H1197.86V532.47H1207.12V536.718H1199.52V538.432H1207.43V539.765H1203.28V541.918H1208.56ZM1220.17 537.772V539.076H1210.89V532.719H1220.07V534.037H1212.5V537.772H1220.17ZM1221.52 541.771V543.119H1209.42V541.771H1221.52Z" fill="#696969"/>
<path d="M192.1 450.496C192.1 452.324 193.523 454.012 195.932 454.697L195.158 455.998C193.339 455.462 191.994 454.354 191.291 452.922C190.605 454.504 189.226 455.726 187.354 456.297L186.545 454.996C188.953 454.293 190.447 452.482 190.447 450.496V450.338H187.02V449.002H190.447V447.174H192.117V449.002H195.527V450.338H192.1V450.496ZM198.955 447.244V451.146H201.24V452.535H198.955V456.543H197.285V447.244H198.955ZM198.955 457.246V462.801H188.9V457.246H198.955ZM190.535 458.564V461.447H197.303V458.564H190.535ZM206.408 448.422C207.841 448.422 209.027 449.248 209.73 450.672H213.615V447.244H215.268V463.029H213.615V456.982H209.836C209.159 458.564 207.92 459.479 206.408 459.479C204.053 459.479 202.4 457.334 202.418 453.941C202.4 450.566 204.053 448.422 206.408 448.422ZM206.408 449.916C204.984 449.916 204 451.463 204 453.941C204 456.438 204.984 457.984 206.408 457.984C207.832 457.984 208.816 456.438 208.816 453.941C208.816 451.463 207.832 449.916 206.408 449.916ZM210.205 452.043C210.319 452.623 210.398 453.256 210.398 453.941C210.398 454.539 210.346 455.093 210.24 455.611H213.615V452.043H210.205ZM223.178 451.885C223.178 454.381 224.812 457.158 227.203 458.283L226.254 459.584C224.487 458.731 223.09 456.956 222.387 454.891C221.657 457.149 220.181 459.092 218.379 459.988L217.395 458.67C219.785 457.527 221.525 454.557 221.525 451.885V450.215H217.975V448.826H226.605V450.215H223.178V451.885ZM229.963 447.244V453.484H232.494V454.891H229.963V462.994H228.293V447.244H229.963Z" fill="#18181B"/>
<rect x="273" y="426" width="415" height="58" rx="10" fill="#FAFAFA"/>
<path d="M300.083 450.83C300.083 452.354 301.27 453.76 303.276 454.331L302.632 455.415C301.116 454.968 299.995 454.045 299.409 452.852C298.838 454.17 297.688 455.188 296.128 455.664L295.454 454.58C297.461 453.994 298.706 452.485 298.706 450.83V450.698H295.85V449.585H298.706V448.062H300.098V449.585H302.939V450.698H300.083V450.83ZM305.796 448.12V451.372H307.7V452.529H305.796V455.869H304.404V448.12H305.796ZM305.796 456.455V461.084H297.417V456.455H305.796ZM298.779 457.554V459.956H304.419V457.554H298.779ZM312.007 449.102C313.201 449.102 314.189 449.79 314.775 450.977H318.013V448.12H319.39V461.274H318.013V456.235H314.863C314.299 457.554 313.267 458.315 312.007 458.315C310.044 458.315 308.667 456.528 308.682 453.701C308.667 450.889 310.044 449.102 312.007 449.102ZM312.007 450.347C310.82 450.347 310 451.636 310 453.701C310 455.781 310.82 457.07 312.007 457.07C313.193 457.07 314.014 455.781 314.014 453.701C314.014 451.636 313.193 450.347 312.007 450.347ZM315.171 452.119C315.266 452.603 315.332 453.13 315.332 453.701C315.332 454.199 315.288 454.661 315.2 455.093H318.013V452.119H315.171ZM325.981 451.987C325.981 454.067 327.344 456.382 329.336 457.319L328.545 458.403C327.073 457.693 325.908 456.213 325.322 454.492C324.714 456.375 323.484 457.993 321.982 458.74L321.162 457.642C323.154 456.689 324.604 454.214 324.604 451.987V450.596H321.646V449.438H328.838V450.596H325.981V451.987ZM331.636 448.12V453.32H333.745V454.492H331.636V461.245H330.244V448.12H331.636ZM346.372 454.141V455.21H334.36V454.141H346.372ZM344.893 456.133V459.019H337.188V460.103H345.303V461.084H335.796V458.096H343.516V457.129H335.781V456.133H344.893ZM344.863 448.457V451.299H337.275V452.295H345.083V453.276H335.898V450.376H343.472V449.438H335.869V448.457H344.863ZM361.885 448.12V455.166H360.493V448.12H361.885ZM354.663 455.796V457.275H360.508V455.796H361.885V461.084H353.301V455.796H354.663ZM354.663 459.941H360.508V458.374H354.663V459.941ZM354.766 448.721C356.772 448.721 358.252 449.966 358.252 451.768C358.252 453.569 356.772 454.814 354.766 454.8C352.759 454.814 351.265 453.569 351.265 451.768C351.265 449.966 352.759 448.721 354.766 448.721ZM354.766 449.893C353.521 449.878 352.627 450.654 352.627 451.768C352.627 452.896 353.521 453.657 354.766 453.657C355.996 453.657 356.89 452.896 356.89 451.768C356.89 450.654 355.996 449.878 354.766 449.893ZM370.22 448.911V452.734H365.884V454.551C368.169 454.558 369.414 454.507 370.894 454.229L371.025 455.356C369.429 455.635 368.081 455.679 365.459 455.679H364.507V451.68H368.828V450.024H364.492V448.911H370.22ZM374.907 448.135V456.206H373.516V453.892H371.055V452.778H373.516V451.152H371.055V450.039H373.516V448.135H374.907ZM374.907 456.865V461.26H373.516V457.993H366.001V456.865H374.907ZM383.418 450.288V451.416H376.899V450.288H379.478V448.501H380.854V450.288H383.418ZM380.166 452.207C381.836 452.207 383.008 453.452 383.022 455.225C383.008 457.012 381.836 458.271 380.166 458.271C378.525 458.271 377.31 457.012 377.324 455.225C377.31 453.452 378.525 452.207 380.166 452.207ZM380.166 453.364C379.214 453.364 378.555 454.141 378.555 455.225C378.555 456.338 379.214 457.085 380.166 457.085C381.104 457.085 381.792 456.338 381.792 455.225C381.792 454.141 381.104 453.364 380.166 453.364ZM388.164 448.12V461.245H386.846V454.727H385.337V460.63H384.019V448.413H385.337V453.584H386.846V448.12H388.164ZM401.86 455.518V456.646H396.528V461.23H395.166V456.646H389.893V455.518H401.86ZM400.732 448.896V450.01H396.675C396.697 451.636 398.718 453.086 401.201 453.423L400.688 454.521C398.535 454.185 396.675 453.123 395.884 451.621C395.071 453.123 393.218 454.185 391.094 454.521L390.566 453.423C393.02 453.086 395.042 451.636 395.093 450.01H391.006V448.896H400.732ZM406.855 451.709C406.855 453.804 407.734 456.045 409.492 457.114L408.716 458.184C407.485 457.444 406.65 456.133 406.211 454.609C405.72 456.279 404.819 457.7 403.545 458.477L402.681 457.437C404.541 456.323 405.508 454.009 405.508 451.768V449.321H406.855V451.709ZM414.15 448.12V461.245H412.817V448.12H414.15ZM411.426 448.369V460.601H410.107V453.892H408.071V452.734H410.107V448.369H411.426ZM427.832 458.447V459.604H415.82V458.447H418.691V455.02C417.615 454.426 416.963 453.481 416.963 452.31C416.963 450.244 418.984 448.882 421.797 448.882C424.624 448.882 426.646 450.244 426.646 452.31C426.646 453.467 426.016 454.397 424.961 454.99V458.447H427.832ZM421.797 449.995C419.731 449.995 418.311 450.889 418.311 452.31C418.311 453.716 419.731 454.639 421.797 454.639C423.848 454.639 425.298 453.716 425.298 452.31C425.298 450.889 423.848 449.995 421.797 449.995ZM420.068 458.447H423.555V455.518C423.02 455.657 422.427 455.723 421.797 455.723C421.182 455.723 420.596 455.657 420.068 455.532V458.447Z" fill="#71717A"/>
<path d="M777.676 447.244V462.994H775.988V447.244H777.676ZM772.982 448.932C772.982 453.537 771.014 457.545 765.617 460.129L764.738 458.775C768.931 456.78 770.97 453.941 771.295 450.268H765.494V448.932H772.982ZM794.533 455.84V457.193H780.119V455.84H786.5V454.346H781.965V450.338H791.053V448.932H781.93V447.613H792.723V451.568H783.617V453.045H793.039V454.346H788.152V455.84H794.533ZM792.811 458.301V462.871H791.123V459.637H781.736V458.301H792.811ZM801.178 451.885C801.178 454.381 802.812 457.158 805.203 458.283L804.254 459.584C802.487 458.731 801.09 456.956 800.387 454.891C799.657 457.149 798.181 459.092 796.379 459.988L795.395 458.67C797.785 457.527 799.525 454.557 799.525 451.885V450.215H795.975V448.826H804.605V450.215H801.178V451.885ZM807.963 447.244V453.484H810.494V454.891H807.963V462.994H806.293V447.244H807.963Z" fill="#18181B"/>
<rect x="834" y="426" width="419" height="58" rx="10" fill="#FAFAFA"/>
<path d="M867.396 448.12V461.245H865.99V448.12H867.396ZM863.485 449.526C863.485 453.364 861.845 456.704 857.348 458.857L856.615 457.729C860.109 456.067 861.808 453.701 862.079 450.64H857.245V449.526H863.485ZM881.444 455.283V456.411H869.433V455.283H874.75V454.038H870.971V450.698H878.544V449.526H870.941V448.428H879.936V451.724H872.348V452.954H880.199V454.038H876.127V455.283H881.444ZM880.009 457.334V461.143H878.603V458.447H870.78V457.334H880.009ZM886.981 451.987C886.981 454.067 888.344 456.382 890.336 457.319L889.545 458.403C888.073 457.693 886.908 456.213 886.322 454.492C885.714 456.375 884.484 457.993 882.982 458.74L882.162 457.642C884.154 456.689 885.604 454.214 885.604 451.987V450.596H882.646V449.438H889.838V450.596H886.981V451.987ZM892.636 448.12V453.32H894.745V454.492H892.636V461.245H891.244V448.12H892.636ZM907.372 454.141V455.21H895.36V454.141H907.372ZM905.893 456.133V459.019H898.188V460.103H906.303V461.084H896.796V458.096H904.516V457.129H896.781V456.133H905.893ZM905.863 448.457V451.299H898.275V452.295H906.083V453.276H896.898V450.376H904.472V449.438H896.869V448.457H905.863ZM922.885 448.12V455.166H921.493V448.12H922.885ZM915.663 455.796V457.275H921.508V455.796H922.885V461.084H914.301V455.796H915.663ZM915.663 459.941H921.508V458.374H915.663V459.941ZM915.766 448.721C917.772 448.721 919.252 449.966 919.252 451.768C919.252 453.569 917.772 454.814 915.766 454.8C913.759 454.814 912.265 453.569 912.265 451.768C912.265 449.966 913.759 448.721 915.766 448.721ZM915.766 449.893C914.521 449.878 913.627 450.654 913.627 451.768C913.627 452.896 914.521 453.657 915.766 453.657C916.996 453.657 917.89 452.896 917.89 451.768C917.89 450.654 916.996 449.878 915.766 449.893ZM931.22 448.911V452.734H926.884V454.551C929.169 454.558 930.414 454.507 931.894 454.229L932.025 455.356C930.429 455.635 929.081 455.679 926.459 455.679H925.507V451.68H929.828V450.024H925.492V448.911H931.22ZM935.907 448.135V456.206H934.516V453.892H932.055V452.778H934.516V451.152H932.055V450.039H934.516V448.135H935.907ZM935.907 456.865V461.26H934.516V457.993H927.001V456.865H935.907ZM944.418 450.288V451.416H937.899V450.288H940.478V448.501H941.854V450.288H944.418ZM941.166 452.207C942.836 452.207 944.008 453.452 944.022 455.225C944.008 457.012 942.836 458.271 941.166 458.271C939.525 458.271 938.31 457.012 938.324 455.225C938.31 453.452 939.525 452.207 941.166 452.207ZM941.166 453.364C940.214 453.364 939.555 454.141 939.555 455.225C939.555 456.338 940.214 457.085 941.166 457.085C942.104 457.085 942.792 456.338 942.792 455.225C942.792 454.141 942.104 453.364 941.166 453.364ZM949.164 448.12V461.245H947.846V454.727H946.337V460.63H945.019V448.413H946.337V453.584H947.846V448.12H949.164ZM962.86 455.518V456.646H957.528V461.23H956.166V456.646H950.893V455.518H962.86ZM961.732 448.896V450.01H957.675C957.697 451.636 959.718 453.086 962.201 453.423L961.688 454.521C959.535 454.185 957.675 453.123 956.884 451.621C956.071 453.123 954.218 454.185 952.094 454.521L951.566 453.423C954.02 453.086 956.042 451.636 956.093 450.01H952.006V448.896H961.732ZM967.855 451.709C967.855 453.804 968.734 456.045 970.492 457.114L969.716 458.184C968.485 457.444 967.65 456.133 967.211 454.609C966.72 456.279 965.819 457.7 964.545 458.477L963.681 457.437C965.541 456.323 966.508 454.009 966.508 451.768V449.321H967.855V451.709ZM975.15 448.12V461.245H973.817V448.12H975.15ZM972.426 448.369V460.601H971.107V453.892H969.071V452.734H971.107V448.369H972.426ZM988.832 458.447V459.604H976.82V458.447H979.691V455.02C978.615 454.426 977.963 453.481 977.963 452.31C977.963 450.244 979.984 448.882 982.797 448.882C985.624 448.882 987.646 450.244 987.646 452.31C987.646 453.467 987.016 454.397 985.961 454.99V458.447H988.832ZM982.797 449.995C980.731 449.995 979.311 450.889 979.311 452.31C979.311 453.716 980.731 454.639 982.797 454.639C984.848 454.639 986.298 453.716 986.298 452.31C986.298 450.889 984.848 449.995 982.797 449.995ZM981.068 458.447H984.555V455.518C984.02 455.657 983.427 455.723 982.797 455.723C982.182 455.723 981.596 455.657 981.068 455.532V458.447Z" fill="#71717A"/>
<path d="M199.605 363.758V379.508H197.936V363.758H199.605ZM186.668 375.219C187.96 375.21 189.445 375.201 190.992 375.148V373.584C189.146 373.347 187.951 372.266 187.969 370.719C187.951 368.943 189.498 367.766 191.783 367.766C194.086 367.766 195.668 368.943 195.668 370.719C195.668 372.248 194.473 373.32 192.645 373.566V375.096C194.104 375.034 195.58 374.92 196.969 374.744L197.092 375.992C193.594 376.572 189.779 376.607 186.896 376.607L186.668 375.219ZM196.617 365.639V366.975H187.002V365.639H190.992V363.793H192.662V365.639H196.617ZM191.783 369.066C190.465 369.066 189.533 369.717 189.551 370.719C189.533 371.721 190.465 372.336 191.783 372.336C193.137 372.336 194.068 371.721 194.068 370.719C194.068 369.717 193.137 369.066 191.783 369.066ZM207.27 364.883C209.766 364.865 211.541 366.412 211.559 368.627C211.541 370.842 209.766 372.389 207.27 372.389C204.791 372.389 202.963 370.842 202.98 368.627C202.963 366.412 204.791 364.865 207.27 364.883ZM207.27 366.324C205.74 366.324 204.615 367.238 204.633 368.627C204.615 370.016 205.74 370.93 207.27 370.93C208.799 370.93 209.924 370.016 209.924 368.627C209.924 367.238 208.799 366.324 207.27 366.324ZM215.162 363.758V379.543H213.492V363.758H215.162ZM202.225 374.762C205.09 374.762 209.062 374.727 212.508 374.234L212.631 375.447C209.062 376.133 205.248 376.15 202.436 376.15L202.225 374.762ZM234.463 363.758V366.922H236.748V368.328H234.463V371.65H232.793V363.758H234.463ZM224.479 364.461V369.594C226.597 369.576 228.829 369.409 231.246 368.926L231.457 370.314C228.803 370.842 226.412 371 224.092 371H222.809V364.461H224.479ZM234.463 372.371V376.379H225.973V377.961H235.008V379.314H224.32V375.096H232.793V373.689H224.285V372.371H234.463ZM250.336 363.758V369.91H252.41V371.316H250.336V379.508H248.666V363.758H250.336ZM241.371 368.223C241.371 369.989 241.582 372.406 242.812 374.111C243.981 372.441 244.219 370.051 244.236 368.223V366.641H243.111V365.287H247.506V366.641H245.818V368.223C245.818 370.648 246.275 373.531 248.244 374.973L247.172 376.186C246.047 375.315 245.388 373.936 245.01 372.371C244.649 373.971 243.981 375.43 242.795 376.326C241.626 375.438 240.958 373.971 240.598 372.389C240.202 373.936 239.543 375.324 238.436 376.186L237.363 374.973C239.314 373.514 239.789 370.578 239.789 368.223V366.641H237.908V365.287H242.479V366.641H241.371V368.223Z" fill="#18181B"/>
<rect x="273" y="342.514" width="415" height="58" rx="10" fill="#FAFAFA"/>
<path d="M295.938 376.514V375.342L299.614 371.636C300.771 370.42 301.357 369.746 301.357 368.823C301.357 367.783 300.508 367.109 299.395 367.109C298.223 367.109 297.461 367.856 297.461 368.984H295.938C295.923 367.051 297.402 365.762 299.424 365.762C301.475 365.762 302.881 367.051 302.896 368.779C302.881 369.966 302.324 370.903 300.332 372.866L298.179 375.049V375.137H303.071V376.514H295.938ZM308.55 376.66C306.089 376.66 304.653 374.683 304.653 371.211C304.653 367.769 306.118 365.762 308.55 365.762C310.981 365.762 312.446 367.769 312.446 371.211C312.446 374.683 310.996 376.66 308.55 376.66ZM308.55 375.269C309.985 375.269 310.835 373.862 310.835 371.211C310.835 368.574 309.971 367.124 308.55 367.124C307.129 367.124 306.265 368.574 306.265 371.211C306.265 373.862 307.114 375.269 308.55 375.269ZM314.116 376.514V375.342L317.793 371.636C318.95 370.42 319.536 369.746 319.536 368.823C319.536 367.783 318.687 367.109 317.573 367.109C316.401 367.109 315.64 367.856 315.64 368.984H314.116C314.102 367.051 315.581 365.762 317.603 365.762C319.653 365.762 321.06 367.051 321.074 368.779C321.06 369.966 320.503 370.903 318.511 372.866L316.357 375.049V375.137H321.25V376.514H314.116ZM326.641 376.66C324.634 376.66 323.125 375.43 323.052 373.745H324.619C324.707 374.653 325.571 375.312 326.641 375.312C327.93 375.312 328.853 374.375 328.853 373.115C328.853 371.826 327.9 370.889 326.567 370.874C325.718 370.874 325.073 371.152 324.707 371.812H323.184L323.872 365.908H329.878V367.285H325.205L324.854 370.259H324.956C325.396 369.834 326.143 369.541 326.948 369.541C328.94 369.541 330.42 371.021 330.42 373.071C330.42 375.166 328.853 376.66 326.641 376.66ZM332.793 376.616C332.222 376.616 331.738 376.147 331.753 375.576C331.738 375.005 332.222 374.536 332.793 374.536C333.35 374.536 333.833 375.005 333.833 375.576C333.833 376.147 333.35 376.616 332.793 376.616ZM339.004 376.66C336.543 376.66 335.107 374.683 335.107 371.211C335.107 367.769 336.572 365.762 339.004 365.762C341.436 365.762 342.9 367.769 342.9 371.211C342.9 374.683 341.45 376.66 339.004 376.66ZM339.004 375.269C340.439 375.269 341.289 373.862 341.289 371.211C341.289 368.574 340.425 367.124 339.004 367.124C337.583 367.124 336.719 368.574 336.719 371.211C336.719 373.862 337.568 375.269 339.004 375.269ZM344.644 376.514L349.375 367.373V367.285H343.911V365.908H351.045V367.344L346.328 376.514H344.644ZM351.88 376.616C351.309 376.616 350.825 376.147 350.84 375.576C350.825 375.005 351.309 374.536 351.88 374.536C352.437 374.536 352.92 375.005 352.92 375.576C352.92 376.147 352.437 376.616 351.88 376.616ZM358.091 376.66C355.63 376.66 354.194 374.683 354.194 371.211C354.194 367.769 355.659 365.762 358.091 365.762C360.522 365.762 361.987 367.769 361.987 371.211C361.987 374.683 360.537 376.66 358.091 376.66ZM358.091 375.269C359.526 375.269 360.376 373.862 360.376 371.211C360.376 368.574 359.512 367.124 358.091 367.124C356.67 367.124 355.806 368.574 355.806 371.211C355.806 373.862 356.655 375.269 358.091 375.269ZM363.73 376.514L368.462 367.373V367.285H362.998V365.908H370.132V367.344L365.415 376.514H363.73Z" fill="#71717A"/>
<g clip-path="url(#clip1_1004_6828)">
<path d="M663 364.764H662.25V363.264H660.75V364.764H653.25V363.264H651.75V364.764H651C650.175 364.764 649.5 365.439 649.5 366.264V378.264C649.5 379.089 650.175 379.764 651 379.764H663C663.825 379.764 664.5 379.089 664.5 378.264V366.264C664.5 365.439 663.825 364.764 663 364.764ZM663 378.264H651V370.014H663V378.264ZM663 368.514H651V366.264H663V368.514Z" fill="#71717A"/>
</g>
<path d="M770.363 367.766C770.346 370.648 772.086 373.531 774.529 374.621L773.527 375.939C771.717 375.078 770.284 373.312 769.555 371.158C768.816 373.461 767.366 375.368 765.477 376.291L764.457 374.885C766.936 373.777 768.676 370.771 768.676 367.766V365.076H770.363V367.766ZM777.623 363.758V379.543H775.953V363.758H777.623ZM792.512 363.758V368.416H794.797V369.805H792.512V375.201H790.824V363.758H792.512ZM788.24 364.953C788.24 369.084 785.428 372.09 780.822 373.479L780.119 372.143C783.802 371.035 786.096 368.943 786.43 366.342H780.787V364.953H788.24ZM793.162 377.82V379.174H782.51V374.023H784.197V377.82H793.162Z" fill="#18181B"/>
<rect x="833" y="342.514" width="421" height="58" rx="10" fill="#FAFAFA"/>
<path d="M856.084 376.514V365.908H859.863C862.324 365.908 863.54 367.388 863.54 369.351C863.54 371.299 862.324 372.793 859.863 372.793H857.695V376.514H856.084ZM857.695 371.416H859.702C861.27 371.416 861.914 370.537 861.914 369.351C861.914 368.149 861.27 367.285 859.702 367.285H857.695V371.416ZM865.239 365.908H867.202L870.557 374.126H870.688L874.043 365.908H876.006V376.514H874.468V368.853H874.365L871.26 376.499H869.985L866.865 368.838H866.777V376.514H865.239V365.908ZM885.718 365.908V376.514H884.092V367.52H884.033L881.499 369.175V367.637L884.136 365.908H885.718ZM888.413 376.514V375.342L892.09 371.636C893.247 370.42 893.833 369.746 893.833 368.823C893.833 367.783 892.983 367.109 891.87 367.109C890.698 367.109 889.937 367.856 889.937 368.984H888.413C888.398 367.051 889.878 365.762 891.899 365.762C893.95 365.762 895.356 367.051 895.371 368.779C895.356 369.966 894.8 370.903 892.808 372.866L890.654 375.049V375.137H895.547V376.514H888.413ZM898.374 375.151C897.803 375.151 897.319 374.683 897.334 374.111C897.319 373.54 897.803 373.071 898.374 373.071C898.931 373.071 899.414 373.54 899.414 374.111C899.414 374.683 898.931 375.151 898.374 375.151ZM898.374 369.365C897.803 369.365 897.319 368.896 897.334 368.325C897.319 367.754 897.803 367.285 898.374 367.285C898.931 367.285 899.414 367.754 899.414 368.325C899.414 368.896 898.931 369.365 898.374 369.365ZM905.054 376.66C902.856 376.66 901.289 375.474 901.23 373.745H902.871C902.93 374.683 903.853 375.269 905.039 375.269C906.313 375.269 907.251 374.565 907.251 373.54C907.251 372.5 906.372 371.738 904.863 371.738H903.955V370.42H904.863C906.064 370.42 906.914 369.746 906.914 368.735C906.914 367.769 906.196 367.109 905.068 367.109C903.999 367.109 903.062 367.695 903.018 368.662H901.465C901.509 366.934 903.105 365.762 905.083 365.762C907.163 365.762 908.481 367.08 908.467 368.647C908.481 369.849 907.734 370.728 906.592 371.006V371.079C908.042 371.284 908.877 372.251 908.877 373.599C908.877 375.371 907.251 376.66 905.054 376.66ZM914.341 376.66C911.88 376.66 910.444 374.683 910.444 371.211C910.444 367.769 911.909 365.762 914.341 365.762C916.772 365.762 918.237 367.769 918.237 371.211C918.237 374.683 916.787 376.66 914.341 376.66ZM914.341 375.269C915.776 375.269 916.626 373.862 916.626 371.211C916.626 368.574 915.762 367.124 914.341 367.124C912.92 367.124 912.056 368.574 912.056 371.211C912.056 373.862 912.905 375.269 914.341 375.269ZM924.038 370.933C924.521 370.391 925.122 370.112 925.781 370.112C926.924 370.112 927.935 370.947 929.048 370.947C929.722 370.947 930.308 370.654 930.762 370.068V371.475C930.264 372.017 929.678 372.295 929.019 372.295C927.876 372.295 926.851 371.46 925.737 371.46C925.078 371.46 924.507 371.753 924.038 372.339V370.933ZM940.796 365.908V376.514H939.17V367.52H939.111L936.577 369.175V367.637L939.214 365.908H940.796ZM947.095 376.66C945.088 376.66 943.579 375.43 943.506 373.745H945.073C945.161 374.653 946.025 375.312 947.095 375.312C948.384 375.312 949.307 374.375 949.307 373.115C949.307 371.826 948.354 370.889 947.021 370.874C946.172 370.874 945.527 371.152 945.161 371.812H943.638L944.326 365.908H950.332V367.285H945.659L945.308 370.259H945.41C945.85 369.834 946.597 369.541 947.402 369.541C949.395 369.541 950.874 371.021 950.874 373.071C950.874 375.166 949.307 376.66 947.095 376.66ZM953.628 375.151C953.057 375.151 952.573 374.683 952.588 374.111C952.573 373.54 953.057 373.071 953.628 373.071C954.185 373.071 954.668 373.54 954.668 374.111C954.668 374.683 954.185 375.151 953.628 375.151ZM953.628 369.365C953.057 369.365 952.573 368.896 952.588 368.325C952.573 367.754 953.057 367.285 953.628 367.285C954.185 367.285 954.668 367.754 954.668 368.325C954.668 368.896 954.185 369.365 953.628 369.365ZM960.146 376.66C958.14 376.66 956.631 375.43 956.558 373.745H958.125C958.213 374.653 959.077 375.312 960.146 375.312C961.436 375.312 962.358 374.375 962.358 373.115C962.358 371.826 961.406 370.889 960.073 370.874C959.224 370.874 958.579 371.152 958.213 371.812H956.689L957.378 365.908H963.384V367.285H958.711L958.359 370.259H958.462C958.901 369.834 959.648 369.541 960.454 369.541C962.446 369.541 963.926 371.021 963.926 373.071C963.926 375.166 962.358 376.66 960.146 376.66ZM969.331 376.66C966.87 376.66 965.435 374.683 965.435 371.211C965.435 367.769 966.899 365.762 969.331 365.762C971.763 365.762 973.228 367.769 973.228 371.211C973.228 374.683 971.777 376.66 969.331 376.66ZM969.331 375.269C970.767 375.269 971.616 373.862 971.616 371.211C971.616 368.574 970.752 367.124 969.331 367.124C967.91 367.124 967.046 368.574 967.046 371.211C967.046 373.862 967.896 375.269 969.331 375.269Z" fill="#71717A"/>
<g clip-path="url(#clip2_1004_6828)">
<path d="M1217.99 363.181C1213.39 363.181 1209.67 366.914 1209.67 371.514C1209.67 376.114 1213.39 379.847 1217.99 379.847C1222.6 379.847 1226.33 376.114 1226.33 371.514C1226.33 366.914 1222.6 363.181 1217.99 363.181ZM1218 378.181C1214.32 378.181 1211.33 375.197 1211.33 371.514C1211.33 367.831 1214.32 364.847 1218 364.847C1221.68 364.847 1224.67 367.831 1224.67 371.514C1224.67 375.197 1221.68 378.181 1218 378.181ZM1218.42 367.347H1217.17V372.347L1221.54 374.972L1222.17 373.947L1218.42 371.722V367.347Z" fill="#71717A"/>
</g>
<path d="M201.469 202.537V220.311H198.988V202.537H201.469ZM186.605 215.291C187.963 215.281 189.516 215.281 191.137 215.232V213.729C189.184 213.387 187.914 212.176 187.934 210.506C187.914 208.514 189.73 207.166 192.348 207.166C194.984 207.166 196.82 208.514 196.82 210.506C196.82 212.166 195.551 213.377 193.598 213.729V215.154C195.082 215.086 196.586 214.969 198.012 214.783L198.188 216.619C194.301 217.283 190.102 217.322 186.938 217.322L186.605 215.291ZM197.758 204.51V206.463H186.957V204.51H191.137V202.615H193.617V204.51H197.758ZM192.348 209.061C191.137 209.061 190.277 209.588 190.297 210.506C190.277 211.443 191.137 211.951 192.348 211.951C193.598 211.951 194.438 211.443 194.438 210.506C194.438 209.588 193.598 209.061 192.348 209.061ZM209.504 203.729C212.317 203.709 214.426 205.545 214.426 208.084C214.426 210.643 212.317 212.459 209.504 212.459C206.692 212.459 204.563 210.643 204.563 208.084C204.563 205.545 206.692 203.709 209.504 203.729ZM209.504 205.877C208.098 205.877 207.024 206.697 207.043 208.084C207.024 209.49 208.098 210.291 209.504 210.291C210.91 210.291 211.985 209.49 212.004 208.084C211.985 206.697 210.93 205.877 209.504 205.877ZM218.684 202.537V220.35H216.203V202.537H218.684ZM203.821 214.686C206.985 214.705 211.379 214.646 215.188 214.119L215.383 215.916C211.438 216.678 207.219 216.717 204.114 216.717L203.821 214.686ZM239.657 203.24V209.49H234.833V211.189H241.708V213.201H225.497V211.189H232.333V209.49H227.509V203.24H239.657ZM229.95 205.174V207.537H237.216V205.174H229.95ZM239.735 214.51V220.311H237.255V216.463H227.294V214.51H239.735ZM258.982 216.346V218.338H242.712V216.346H246.755V212.967H244.06V210.955H246.443V205.955H243.982V203.963H257.615V205.955H255.115V210.955H257.536V212.967H254.861V216.346H258.982ZM248.943 210.955H252.654V205.955H248.943V210.955ZM249.255 216.346H252.361V212.967H249.255V216.346Z" fill="#18181B"/>
<path d="M261 231.014H262.5V228.014H261V231.014ZM186 229.514V231.014H261V229.514V228.014H186V229.514Z" fill="#3B82F6"/>
<path d="M203.016 656.426V675.977H200.287V656.426H203.016ZM186.666 670.455C188.159 670.444 189.867 670.444 191.65 670.391V668.736C189.502 668.36 188.105 667.028 188.127 665.191C188.105 663 190.104 661.518 192.982 661.518C195.883 661.518 197.902 663 197.902 665.191C197.902 667.018 196.506 668.35 194.357 668.736V670.305C195.99 670.229 197.645 670.101 199.213 669.896L199.406 671.916C195.131 672.646 190.512 672.689 187.031 672.689L186.666 670.455ZM198.934 658.596V660.744H187.053V658.596H191.65V656.512H194.379V658.596H198.934ZM192.982 663.602C191.65 663.602 190.705 664.182 190.727 665.191C190.705 666.223 191.65 666.781 192.982 666.781C194.357 666.781 195.281 666.223 195.281 665.191C195.281 664.182 194.357 663.602 192.982 663.602ZM211.855 657.736C214.948 657.715 217.269 659.734 217.269 662.527C217.269 665.342 214.948 667.34 211.855 667.34C208.761 667.34 206.419 665.342 206.419 662.527C206.419 659.734 208.761 657.715 211.855 657.736ZM211.855 660.1C210.308 660.1 209.126 661.002 209.148 662.527C209.126 664.074 210.308 664.955 211.855 664.955C213.402 664.955 214.583 664.074 214.605 662.527C214.583 661.002 213.423 660.1 211.855 660.1ZM221.952 656.426V676.02H219.224V656.426H221.952ZM205.603 669.789C209.083 669.811 213.917 669.746 218.107 669.166L218.321 671.143C213.982 671.98 209.341 672.023 205.925 672.023L205.603 669.789ZM244.958 656.426V662.033H247.601V664.311H244.958V670.67H242.208V656.426H244.958ZM245.667 673.441V675.633H232.283V669.166H235.011V673.441H245.667ZM234.947 657.693C237.933 657.693 240.275 659.756 240.275 662.656C240.275 665.514 237.933 667.619 234.947 667.619C231.939 667.619 229.576 665.514 229.576 662.656C229.576 659.756 231.939 657.693 234.947 657.693ZM234.947 660.078C233.464 660.057 232.261 661.023 232.283 662.656C232.261 664.246 233.464 665.234 234.947 665.234C236.451 665.234 237.589 664.246 237.611 662.656C237.589 661.023 236.451 660.057 234.947 660.078ZM264.862 656.447V670.734H262.133V664.354H258.631V662.098H262.133V656.447H264.862ZM258.803 657.887C258.803 663.129 255.473 666.996 249.758 668.779L248.641 666.609C252.691 665.342 255.301 663.011 255.817 660.121H249.651V657.887H258.803ZM265.356 673.441V675.633H251.971V669.295H254.764V673.441H265.356Z" fill="#18181B"/>
<line x1="186" y1="683.5" x2="269" y2="683.5" stroke="#3B82F6" stroke-width="3"/>
<circle cx="719.5" cy="898.014" r="22.5" fill="#CBE2FF"/>
<path d="M720.078 891.668L720.078 905.514" stroke="#3B82F6" stroke-width="1.73077" stroke-linecap="round"/>
<path d="M727 898.59L713.154 898.59" stroke="#3B82F6" stroke-width="1.73077" stroke-linecap="round"/>
<mask id="path-47-outside-1_1004_6828" maskUnits="userSpaceOnUse" x="181.343" y="38.1719" width="164" height="22" fill="black">
<rect fill="white" x="181.343" y="38.1719" width="164" height="22"/>
<path d="M193.663 39.4656L200.205 58.4487H196.253L194.918 54.4172H187.683L186.321 58.4487H182.343L189.071 39.4656H193.663ZM188.51 51.6671H194.037L191.26 42.9098L188.51 51.6671Z"/>
<path d="M212.712 54.7108L213.62 57.4075C213.104 57.8347 212.436 58.1729 211.617 58.422C210.798 58.6712 209.846 58.7958 208.76 58.7958C206.536 58.7958 204.818 58.2708 203.607 57.2206C202.415 56.1526 201.819 54.5507 201.819 52.4147V51.2666C201.819 49.9495 202.014 48.8726 202.406 48.036C202.815 47.1995 203.349 46.5409 204.008 46.0603C204.649 45.5797 205.387 45.2504 206.224 45.0724C207.061 44.8944 207.915 44.8054 208.787 44.8054C210.015 44.8054 210.976 44.9389 211.671 45.2059C212.365 45.4729 212.979 45.7844 213.513 46.1404L212.632 48.8637C212.027 48.5611 211.404 48.3297 210.763 48.1695C210.14 48.0093 209.481 47.9292 208.787 47.9292C207.612 47.9292 206.802 48.2941 206.358 49.0239C205.93 49.7359 205.717 50.6793 205.717 51.854C205.717 53.189 205.966 54.168 206.464 54.7909C206.963 55.3961 207.728 55.6987 208.76 55.6987C209.383 55.6987 210.024 55.6364 210.683 55.5118C211.341 55.3694 212.018 55.1024 212.712 54.7108Z"/>
<path d="M224.576 48.1161H221.585V54.8443C221.585 55.1825 221.656 55.4139 221.799 55.5385C221.941 55.6631 222.137 55.7254 222.386 55.7254C222.618 55.7254 222.876 55.6809 223.161 55.5919C223.463 55.5029 223.775 55.3694 224.095 55.1914L225.003 57.4609C224.647 57.8169 224.113 58.1284 223.401 58.3953C222.707 58.6623 221.995 58.7958 221.265 58.7958C219.948 58.7958 219.031 58.4843 218.515 57.8614C217.999 57.2206 217.741 56.3395 217.741 55.2181V48.1161H215.631V45.0724H217.741V40.7204L221.585 39.9729V45.0724H224.576V48.1161Z"/>
<path d="M233.451 55.7254C233.682 55.7254 233.94 55.6809 234.225 55.5919C234.51 55.5029 234.812 55.3694 235.133 55.1914L236.04 57.4609C235.684 57.8169 235.159 58.1284 234.465 58.3953C233.771 58.6623 233.059 58.7958 232.329 58.7958C231.012 58.7958 230.095 58.4843 229.579 57.8614C229.063 57.2206 228.805 56.3395 228.805 55.2181V48.2229H227.417V45.2593H232.703V54.8443C232.703 55.1825 232.765 55.4139 232.89 55.5385C233.014 55.6631 233.201 55.7254 233.451 55.7254ZM232.703 42.9899H228.538V39.1719H232.703V42.9899Z"/>
<path d="M244.345 44.8054C246.374 44.8054 247.994 45.3661 249.204 46.4875C250.415 47.6088 251.02 49.371 251.02 51.7739C251.02 54.0701 250.441 55.8144 249.285 57.007C248.145 58.1996 246.499 58.7958 244.345 58.7958C242.174 58.7958 240.509 58.1996 239.352 57.007C238.213 55.8144 237.644 54.0701 237.644 51.7739C237.644 49.371 238.249 47.6088 239.459 46.4875C240.687 45.3661 242.316 44.8054 244.345 44.8054ZM241.595 51.7739C241.595 53.0555 241.791 54.0345 242.183 54.7108C242.592 55.3694 243.313 55.6987 244.345 55.6987C245.36 55.6987 246.072 55.3694 246.481 54.7108C246.89 54.0345 247.095 53.0555 247.095 51.7739C247.095 50.439 246.89 49.4689 246.481 48.8637C246.089 48.2407 245.386 47.9292 244.372 47.9292C243.322 47.9292 242.592 48.2407 242.183 48.8637C241.791 49.4689 241.595 50.439 241.595 51.7739Z"/>
<path d="M266.388 58.4487H262.49V49.5579C262.49 48.9883 262.383 48.57 262.169 48.303C261.973 48.0182 261.644 47.8758 261.181 47.8758C260.612 47.8758 260.007 48.036 259.366 48.3564C258.725 48.659 258.218 49.0061 257.844 49.3977V58.4487H253.946V45.2593H257.524L257.737 46.1938C258.218 45.82 258.769 45.4996 259.392 45.2326C260.015 44.9478 260.781 44.8054 261.689 44.8054C263.255 44.8054 264.43 45.1436 265.213 45.82C265.996 46.4964 266.388 47.5198 266.388 48.8904V58.4487Z"/>
<path d="M277.053 43.1501C277.053 41.7795 277.356 40.8272 277.961 40.2932C278.584 39.7415 279.581 39.4656 280.951 39.4656H284.289C286.905 39.4656 288.73 39.9907 289.762 41.0408C290.812 42.0732 291.337 43.604 291.337 45.6331C291.337 47.947 290.759 49.5579 289.602 50.4657C288.445 51.3734 286.665 51.8273 284.262 51.8273H281.005V58.4487H277.053V43.1501ZM283.942 42.5093H282.286C281.77 42.5093 281.423 42.6161 281.245 42.8297C281.085 43.0255 281.005 43.3281 281.005 43.7375V48.7569H283.888C285.027 48.7569 285.882 48.5166 286.451 48.036C287.021 47.5554 287.306 46.7545 287.306 45.6331C287.306 44.4939 287.021 43.693 286.451 43.2302C285.9 42.7496 285.063 42.5093 283.942 42.5093Z"/>
<path d="M300.429 44.8054C302.458 44.8054 304.078 45.3661 305.289 46.4875C306.499 47.6088 307.104 49.371 307.104 51.7739C307.104 54.0701 306.526 55.8144 305.369 57.007C304.229 58.1996 302.583 58.7958 300.429 58.7958C298.258 58.7958 296.593 58.1996 295.436 57.007C294.297 55.8144 293.728 54.0701 293.728 51.7739C293.728 49.371 294.333 47.6088 295.543 46.4875C296.771 45.3661 298.4 44.8054 300.429 44.8054ZM297.679 51.7739C297.679 53.0555 297.875 54.0345 298.267 54.7108C298.676 55.3694 299.397 55.6987 300.429 55.6987C301.444 55.6987 302.156 55.3694 302.565 54.7108C302.975 54.0345 303.179 53.0555 303.179 51.7739C303.179 50.439 302.975 49.4689 302.565 48.8637C302.174 48.2407 301.471 47.9292 300.456 47.9292C299.406 47.9292 298.676 48.2407 298.267 48.8637C297.875 49.4689 297.679 50.439 297.679 51.7739Z"/>
<path d="M315.53 55.7254C315.761 55.7254 316.019 55.6809 316.304 55.5919C316.589 55.5029 316.892 55.3694 317.212 55.1914L318.12 57.4609C317.764 57.8169 317.239 58.1284 316.545 58.3953C315.85 58.6623 315.138 58.7958 314.409 58.7958C313.091 58.7958 312.175 58.4843 311.659 57.8614C311.142 57.2206 310.884 56.3395 310.884 55.2181V48.2229H309.496V45.2593H314.782V54.8443C314.782 55.1825 314.845 55.4139 314.969 55.5385C315.094 55.6631 315.281 55.7254 315.53 55.7254ZM314.782 42.9899H310.617V39.1719H314.782V42.9899Z"/>
<path d="M332.432 58.4487H328.534V49.5579C328.534 48.9883 328.427 48.57 328.213 48.303C328.018 48.0182 327.688 47.8758 327.225 47.8758C326.656 47.8758 326.051 48.036 325.41 48.3564C324.769 48.659 324.262 49.0061 323.888 49.3977V58.4487H319.99V45.2593H323.568L323.781 46.1938C324.262 45.82 324.814 45.4996 325.437 45.2326C326.06 44.9478 326.825 44.8054 327.733 44.8054C329.299 44.8054 330.474 45.1436 331.257 45.82C332.04 46.4964 332.432 47.5198 332.432 48.8904V58.4487Z"/>
<path d="M344.044 48.1161H341.054V54.8443C341.054 55.1825 341.125 55.4139 341.268 55.5385C341.41 55.6631 341.606 55.7254 341.855 55.7254C342.086 55.7254 342.345 55.6809 342.629 55.5919C342.932 55.5029 343.243 55.3694 343.564 55.1914L344.472 57.4609C344.116 57.8169 343.582 58.1284 342.87 58.3953C342.175 58.6623 341.463 58.7958 340.734 58.7958C339.416 58.7958 338.5 58.4843 337.984 57.8614C337.467 57.2206 337.209 56.3395 337.209 55.2181V48.1161H335.1V45.0724H337.209V40.7204L341.054 39.9729V45.0724H344.044V48.1161Z"/>
</mask>
<path d="M193.663 39.4656L200.205 58.4487H196.253L194.918 54.4172H187.683L186.321 58.4487H182.343L189.071 39.4656H193.663ZM188.51 51.6671H194.037L191.26 42.9098L188.51 51.6671Z" fill="#18181B"/>
<path d="M212.712 54.7108L213.62 57.4075C213.104 57.8347 212.436 58.1729 211.617 58.422C210.798 58.6712 209.846 58.7958 208.76 58.7958C206.536 58.7958 204.818 58.2708 203.607 57.2206C202.415 56.1526 201.819 54.5507 201.819 52.4147V51.2666C201.819 49.9495 202.014 48.8726 202.406 48.036C202.815 47.1995 203.349 46.5409 204.008 46.0603C204.649 45.5797 205.387 45.2504 206.224 45.0724C207.061 44.8944 207.915 44.8054 208.787 44.8054C210.015 44.8054 210.976 44.9389 211.671 45.2059C212.365 45.4729 212.979 45.7844 213.513 46.1404L212.632 48.8637C212.027 48.5611 211.404 48.3297 210.763 48.1695C210.14 48.0093 209.481 47.9292 208.787 47.9292C207.612 47.9292 206.802 48.2941 206.358 49.0239C205.93 49.7359 205.717 50.6793 205.717 51.854C205.717 53.189 205.966 54.168 206.464 54.7909C206.963 55.3961 207.728 55.6987 208.76 55.6987C209.383 55.6987 210.024 55.6364 210.683 55.5118C211.341 55.3694 212.018 55.1024 212.712 54.7108Z" fill="#18181B"/>
<path d="M224.576 48.1161H221.585V54.8443C221.585 55.1825 221.656 55.4139 221.799 55.5385C221.941 55.6631 222.137 55.7254 222.386 55.7254C222.618 55.7254 222.876 55.6809 223.161 55.5919C223.463 55.5029 223.775 55.3694 224.095 55.1914L225.003 57.4609C224.647 57.8169 224.113 58.1284 223.401 58.3953C222.707 58.6623 221.995 58.7958 221.265 58.7958C219.948 58.7958 219.031 58.4843 218.515 57.8614C217.999 57.2206 217.741 56.3395 217.741 55.2181V48.1161H215.631V45.0724H217.741V40.7204L221.585 39.9729V45.0724H224.576V48.1161Z" fill="#18181B"/>
<path d="M233.451 55.7254C233.682 55.7254 233.94 55.6809 234.225 55.5919C234.51 55.5029 234.812 55.3694 235.133 55.1914L236.04 57.4609C235.684 57.8169 235.159 58.1284 234.465 58.3953C233.771 58.6623 233.059 58.7958 232.329 58.7958C231.012 58.7958 230.095 58.4843 229.579 57.8614C229.063 57.2206 228.805 56.3395 228.805 55.2181V48.2229H227.417V45.2593H232.703V54.8443C232.703 55.1825 232.765 55.4139 232.89 55.5385C233.014 55.6631 233.201 55.7254 233.451 55.7254ZM232.703 42.9899H228.538V39.1719H232.703V42.9899Z" fill="#18181B"/>
<path d="M244.345 44.8054C246.374 44.8054 247.994 45.3661 249.204 46.4875C250.415 47.6088 251.02 49.371 251.02 51.7739C251.02 54.0701 250.441 55.8144 249.285 57.007C248.145 58.1996 246.499 58.7958 244.345 58.7958C242.174 58.7958 240.509 58.1996 239.352 57.007C238.213 55.8144 237.644 54.0701 237.644 51.7739C237.644 49.371 238.249 47.6088 239.459 46.4875C240.687 45.3661 242.316 44.8054 244.345 44.8054ZM241.595 51.7739C241.595 53.0555 241.791 54.0345 242.183 54.7108C242.592 55.3694 243.313 55.6987 244.345 55.6987C245.36 55.6987 246.072 55.3694 246.481 54.7108C246.89 54.0345 247.095 53.0555 247.095 51.7739C247.095 50.439 246.89 49.4689 246.481 48.8637C246.089 48.2407 245.386 47.9292 244.372 47.9292C243.322 47.9292 242.592 48.2407 242.183 48.8637C241.791 49.4689 241.595 50.439 241.595 51.7739Z" fill="#18181B"/>
<path d="M266.388 58.4487H262.49V49.5579C262.49 48.9883 262.383 48.57 262.169 48.303C261.973 48.0182 261.644 47.8758 261.181 47.8758C260.612 47.8758 260.007 48.036 259.366 48.3564C258.725 48.659 258.218 49.0061 257.844 49.3977V58.4487H253.946V45.2593H257.524L257.737 46.1938C258.218 45.82 258.769 45.4996 259.392 45.2326C260.015 44.9478 260.781 44.8054 261.689 44.8054C263.255 44.8054 264.43 45.1436 265.213 45.82C265.996 46.4964 266.388 47.5198 266.388 48.8904V58.4487Z" fill="#18181B"/>
<path d="M277.053 43.1501C277.053 41.7795 277.356 40.8272 277.961 40.2932C278.584 39.7415 279.581 39.4656 280.951 39.4656H284.289C286.905 39.4656 288.73 39.9907 289.762 41.0408C290.812 42.0732 291.337 43.604 291.337 45.6331C291.337 47.947 290.759 49.5579 289.602 50.4657C288.445 51.3734 286.665 51.8273 284.262 51.8273H281.005V58.4487H277.053V43.1501ZM283.942 42.5093H282.286C281.77 42.5093 281.423 42.6161 281.245 42.8297C281.085 43.0255 281.005 43.3281 281.005 43.7375V48.7569H283.888C285.027 48.7569 285.882 48.5166 286.451 48.036C287.021 47.5554 287.306 46.7545 287.306 45.6331C287.306 44.4939 287.021 43.693 286.451 43.2302C285.9 42.7496 285.063 42.5093 283.942 42.5093Z" fill="#18181B"/>
<path d="M300.429 44.8054C302.458 44.8054 304.078 45.3661 305.289 46.4875C306.499 47.6088 307.104 49.371 307.104 51.7739C307.104 54.0701 306.526 55.8144 305.369 57.007C304.229 58.1996 302.583 58.7958 300.429 58.7958C298.258 58.7958 296.593 58.1996 295.436 57.007C294.297 55.8144 293.728 54.0701 293.728 51.7739C293.728 49.371 294.333 47.6088 295.543 46.4875C296.771 45.3661 298.4 44.8054 300.429 44.8054ZM297.679 51.7739C297.679 53.0555 297.875 54.0345 298.267 54.7108C298.676 55.3694 299.397 55.6987 300.429 55.6987C301.444 55.6987 302.156 55.3694 302.565 54.7108C302.975 54.0345 303.179 53.0555 303.179 51.7739C303.179 50.439 302.975 49.4689 302.565 48.8637C302.174 48.2407 301.471 47.9292 300.456 47.9292C299.406 47.9292 298.676 48.2407 298.267 48.8637C297.875 49.4689 297.679 50.439 297.679 51.7739Z" fill="#18181B"/>
<path d="M315.53 55.7254C315.761 55.7254 316.019 55.6809 316.304 55.5919C316.589 55.5029 316.892 55.3694 317.212 55.1914L318.12 57.4609C317.764 57.8169 317.239 58.1284 316.545 58.3953C315.85 58.6623 315.138 58.7958 314.409 58.7958C313.091 58.7958 312.175 58.4843 311.659 57.8614C311.142 57.2206 310.884 56.3395 310.884 55.2181V48.2229H309.496V45.2593H314.782V54.8443C314.782 55.1825 314.845 55.4139 314.969 55.5385C315.094 55.6631 315.281 55.7254 315.53 55.7254ZM314.782 42.9899H310.617V39.1719H314.782V42.9899Z" fill="#18181B"/>
<path d="M332.432 58.4487H328.534V49.5579C328.534 48.9883 328.427 48.57 328.213 48.303C328.018 48.0182 327.688 47.8758 327.225 47.8758C326.656 47.8758 326.051 48.036 325.41 48.3564C324.769 48.659 324.262 49.0061 323.888 49.3977V58.4487H319.99V45.2593H323.568L323.781 46.1938C324.262 45.82 324.814 45.4996 325.437 45.2326C326.06 44.9478 326.825 44.8054 327.733 44.8054C329.299 44.8054 330.474 45.1436 331.257 45.82C332.04 46.4964 332.432 47.5198 332.432 48.8904V58.4487Z" fill="#18181B"/>
<path d="M344.044 48.1161H341.054V54.8443C341.054 55.1825 341.125 55.4139 341.268 55.5385C341.41 55.6631 341.606 55.7254 341.855 55.7254C342.086 55.7254 342.345 55.6809 342.629 55.5919C342.932 55.5029 343.243 55.3694 343.564 55.1914L344.472 57.4609C344.116 57.8169 343.582 58.1284 342.87 58.3953C342.175 58.6623 341.463 58.7958 340.734 58.7958C339.416 58.7958 338.5 58.4843 337.984 57.8614C337.467 57.2206 337.209 56.3395 337.209 55.2181V48.1161H335.1V45.0724H337.209V40.7204L341.054 39.9729V45.0724H344.044V48.1161Z" fill="#18181B"/>
<path d="M193.663 39.4656L200.205 58.4487H196.253L194.918 54.4172H187.683L186.321 58.4487H182.343L189.071 39.4656H193.663ZM188.51 51.6671H194.037L191.26 42.9098L188.51 51.6671Z" stroke="#18181B" stroke-width="0.821516" mask="url(#path-47-outside-1_1004_6828)"/>
<path d="M212.712 54.7108L213.62 57.4075C213.104 57.8347 212.436 58.1729 211.617 58.422C210.798 58.6712 209.846 58.7958 208.76 58.7958C206.536 58.7958 204.818 58.2708 203.607 57.2206C202.415 56.1526 201.819 54.5507 201.819 52.4147V51.2666C201.819 49.9495 202.014 48.8726 202.406 48.036C202.815 47.1995 203.349 46.5409 204.008 46.0603C204.649 45.5797 205.387 45.2504 206.224 45.0724C207.061 44.8944 207.915 44.8054 208.787 44.8054C210.015 44.8054 210.976 44.9389 211.671 45.2059C212.365 45.4729 212.979 45.7844 213.513 46.1404L212.632 48.8637C212.027 48.5611 211.404 48.3297 210.763 48.1695C210.14 48.0093 209.481 47.9292 208.787 47.9292C207.612 47.9292 206.802 48.2941 206.358 49.0239C205.93 49.7359 205.717 50.6793 205.717 51.854C205.717 53.189 205.966 54.168 206.464 54.7909C206.963 55.3961 207.728 55.6987 208.76 55.6987C209.383 55.6987 210.024 55.6364 210.683 55.5118C211.341 55.3694 212.018 55.1024 212.712 54.7108Z" stroke="#18181B" stroke-width="0.821516" mask="url(#path-47-outside-1_1004_6828)"/>
<path d="M224.576 48.1161H221.585V54.8443C221.585 55.1825 221.656 55.4139 221.799 55.5385C221.941 55.6631 222.137 55.7254 222.386 55.7254C222.618 55.7254 222.876 55.6809 223.161 55.5919C223.463 55.5029 223.775 55.3694 224.095 55.1914L225.003 57.4609C224.647 57.8169 224.113 58.1284 223.401 58.3953C222.707 58.6623 221.995 58.7958 221.265 58.7958C219.948 58.7958 219.031 58.4843 218.515 57.8614C217.999 57.2206 217.741 56.3395 217.741 55.2181V48.1161H215.631V45.0724H217.741V40.7204L221.585 39.9729V45.0724H224.576V48.1161Z" stroke="#18181B" stroke-width="0.821516" mask="url(#path-47-outside-1_1004_6828)"/>
<path d="M233.451 55.7254C233.682 55.7254 233.94 55.6809 234.225 55.5919C234.51 55.5029 234.812 55.3694 235.133 55.1914L236.04 57.4609C235.684 57.8169 235.159 58.1284 234.465 58.3953C233.771 58.6623 233.059 58.7958 232.329 58.7958C231.012 58.7958 230.095 58.4843 229.579 57.8614C229.063 57.2206 228.805 56.3395 228.805 55.2181V48.2229H227.417V45.2593H232.703V54.8443C232.703 55.1825 232.765 55.4139 232.89 55.5385C233.014 55.6631 233.201 55.7254 233.451 55.7254ZM232.703 42.9899H228.538V39.1719H232.703V42.9899Z" stroke="#18181B" stroke-width="0.821516" mask="url(#path-47-outside-1_1004_6828)"/>
<path d="M244.345 44.8054C246.374 44.8054 247.994 45.3661 249.204 46.4875C250.415 47.6088 251.02 49.371 251.02 51.7739C251.02 54.0701 250.441 55.8144 249.285 57.007C248.145 58.1996 246.499 58.7958 244.345 58.7958C242.174 58.7958 240.509 58.1996 239.352 57.007C238.213 55.8144 237.644 54.0701 237.644 51.7739C237.644 49.371 238.249 47.6088 239.459 46.4875C240.687 45.3661 242.316 44.8054 244.345 44.8054ZM241.595 51.7739C241.595 53.0555 241.791 54.0345 242.183 54.7108C242.592 55.3694 243.313 55.6987 244.345 55.6987C245.36 55.6987 246.072 55.3694 246.481 54.7108C246.89 54.0345 247.095 53.0555 247.095 51.7739C247.095 50.439 246.89 49.4689 246.481 48.8637C246.089 48.2407 245.386 47.9292 244.372 47.9292C243.322 47.9292 242.592 48.2407 242.183 48.8637C241.791 49.4689 241.595 50.439 241.595 51.7739Z" stroke="#18181B" stroke-width="0.821516" mask="url(#path-47-outside-1_1004_6828)"/>
<path d="M266.388 58.4487H262.49V49.5579C262.49 48.9883 262.383 48.57 262.169 48.303C261.973 48.0182 261.644 47.8758 261.181 47.8758C260.612 47.8758 260.007 48.036 259.366 48.3564C258.725 48.659 258.218 49.0061 257.844 49.3977V58.4487H253.946V45.2593H257.524L257.737 46.1938C258.218 45.82 258.769 45.4996 259.392 45.2326C260.015 44.9478 260.781 44.8054 261.689 44.8054C263.255 44.8054 264.43 45.1436 265.213 45.82C265.996 46.4964 266.388 47.5198 266.388 48.8904V58.4487Z" stroke="#18181B" stroke-width="0.821516" mask="url(#path-47-outside-1_1004_6828)"/>
<path d="M277.053 43.1501C277.053 41.7795 277.356 40.8272 277.961 40.2932C278.584 39.7415 279.581 39.4656 280.951 39.4656H284.289C286.905 39.4656 288.73 39.9907 289.762 41.0408C290.812 42.0732 291.337 43.604 291.337 45.6331C291.337 47.947 290.759 49.5579 289.602 50.4657C288.445 51.3734 286.665 51.8273 284.262 51.8273H281.005V58.4487H277.053V43.1501ZM283.942 42.5093H282.286C281.77 42.5093 281.423 42.6161 281.245 42.8297C281.085 43.0255 281.005 43.3281 281.005 43.7375V48.7569H283.888C285.027 48.7569 285.882 48.5166 286.451 48.036C287.021 47.5554 287.306 46.7545 287.306 45.6331C287.306 44.4939 287.021 43.693 286.451 43.2302C285.9 42.7496 285.063 42.5093 283.942 42.5093Z" stroke="#18181B" stroke-width="0.821516" mask="url(#path-47-outside-1_1004_6828)"/>
<path d="M300.429 44.8054C302.458 44.8054 304.078 45.3661 305.289 46.4875C306.499 47.6088 307.104 49.371 307.104 51.7739C307.104 54.0701 306.526 55.8144 305.369 57.007C304.229 58.1996 302.583 58.7958 300.429 58.7958C298.258 58.7958 296.593 58.1996 295.436 57.007C294.297 55.8144 293.728 54.0701 293.728 51.7739C293.728 49.371 294.333 47.6088 295.543 46.4875C296.771 45.3661 298.4 44.8054 300.429 44.8054ZM297.679 51.7739C297.679 53.0555 297.875 54.0345 298.267 54.7108C298.676 55.3694 299.397 55.6987 300.429 55.6987C301.444 55.6987 302.156 55.3694 302.565 54.7108C302.975 54.0345 303.179 53.0555 303.179 51.7739C303.179 50.439 302.975 49.4689 302.565 48.8637C302.174 48.2407 301.471 47.9292 300.456 47.9292C299.406 47.9292 298.676 48.2407 298.267 48.8637C297.875 49.4689 297.679 50.439 297.679 51.7739Z" stroke="#18181B" stroke-width="0.821516" mask="url(#path-47-outside-1_1004_6828)"/>
<path d="M315.53 55.7254C315.761 55.7254 316.019 55.6809 316.304 55.5919C316.589 55.5029 316.892 55.3694 317.212 55.1914L318.12 57.4609C317.764 57.8169 317.239 58.1284 316.545 58.3953C315.85 58.6623 315.138 58.7958 314.409 58.7958C313.091 58.7958 312.175 58.4843 311.659 57.8614C311.142 57.2206 310.884 56.3395 310.884 55.2181V48.2229H309.496V45.2593H314.782V54.8443C314.782 55.1825 314.845 55.4139 314.969 55.5385C315.094 55.6631 315.281 55.7254 315.53 55.7254ZM314.782 42.9899H310.617V39.1719H314.782V42.9899Z" stroke="#18181B" stroke-width="0.821516" mask="url(#path-47-outside-1_1004_6828)"/>
<path d="M332.432 58.4487H328.534V49.5579C328.534 48.9883 328.427 48.57 328.213 48.303C328.018 48.0182 327.688 47.8758 327.225 47.8758C326.656 47.8758 326.051 48.036 325.41 48.3564C324.769 48.659 324.262 49.0061 323.888 49.3977V58.4487H319.99V45.2593H323.568L323.781 46.1938C324.262 45.82 324.814 45.4996 325.437 45.2326C326.06 44.9478 326.825 44.8054 327.733 44.8054C329.299 44.8054 330.474 45.1436 331.257 45.82C332.04 46.4964 332.432 47.5198 332.432 48.8904V58.4487Z" stroke="#18181B" stroke-width="0.821516" mask="url(#path-47-outside-1_1004_6828)"/>
<path d="M344.044 48.1161H341.054V54.8443C341.054 55.1825 341.125 55.4139 341.268 55.5385C341.41 55.6631 341.606 55.7254 341.855 55.7254C342.086 55.7254 342.345 55.6809 342.629 55.5919C342.932 55.5029 343.243 55.3694 343.564 55.1914L344.472 57.4609C344.116 57.8169 343.582 58.1284 342.87 58.3953C342.175 58.6623 341.463 58.7958 340.734 58.7958C339.416 58.7958 338.5 58.4843 337.984 57.8614C337.467 57.2206 337.209 56.3395 337.209 55.2181V48.1161H335.1V45.0724H337.209V40.7204L341.054 39.9729V45.0724H344.044V48.1161Z" stroke="#18181B" stroke-width="0.821516" mask="url(#path-47-outside-1_1004_6828)"/>
<path d="M146 41.5801C146 40.1676 147.145 39.0225 148.558 39.0225H162.893C164.306 39.0225 165.451 40.1676 165.451 41.5801V49.9891C165.451 51.1871 164.619 52.2246 163.45 52.4855L149.115 55.6833C147.517 56.0397 146 54.8241 146 53.187V41.5801Z" fill="#18181B"/>
<rect x="162.594" y="43.8633" width="1.27883" height="3.83649" rx="0.639416" fill="white"/>
<rect x="160.034" y="43.8633" width="1.27883" height="3.83649" rx="0.639416" fill="white"/>
<path d="M176.969 52.834C176.969 51.4215 175.824 50.2764 174.411 50.2764H164.17C162.758 50.2764 161.613 51.4215 161.613 52.834V58.5027C161.613 59.7007 162.444 60.7382 163.614 60.999L173.854 63.2834C175.452 63.6398 176.969 62.4242 176.969 60.7871V52.834Z" fill="#60A5FA"/>
<rect width="1.02306" height="2.81343" rx="0.511532" transform="matrix(-1 0 0 1 164.428 54.3682)" fill="#CBE2FF"/>
<rect width="1.02306" height="2.81343" rx="0.511532" transform="matrix(-1 0 0 1 166.475 54.3682)" fill="#CBE2FF"/>
<path d="M169.802 47.8722L168.01 46.7054" stroke="#60A5FA" stroke-width="0.532493" stroke-linecap="round"/>
<path d="M168.011 44.3234L169.802 43.1566" stroke="#60A5FA" stroke-width="0.532493" stroke-linecap="round"/>
<path d="M168.011 44.3234L169.802 43.1566" stroke="#60A5FA" stroke-width="0.532493" stroke-linecap="round"/>
<path d="M168.011 45.5215H169.787" stroke="#60A5FA" stroke-width="0.532493" stroke-linecap="round"/>
<path d="M613.219 44.5879C615.346 44.5879 616.91 46.2051 616.928 48.4902C616.91 50.8105 615.346 52.375 613.219 52.375C611.092 52.375 609.545 50.8105 609.545 48.4902C609.545 46.2051 611.092 44.5879 613.219 44.5879ZM613.219 46.4863C612.234 46.4863 611.549 47.2246 611.549 48.4902C611.549 49.7559 612.234 50.5117 613.219 50.5117C614.186 50.5117 614.871 49.7559 614.889 48.4902C614.871 47.2246 614.186 46.4863 613.219 46.4863ZM623.221 43.6387V53.1836H621.094V49.2988H619.775V53.0957H617.701V43.9199H619.775V47.5059H621.094V43.6387H623.221ZM623.221 53.8867V59.6172H620.988V55.6797H612.164V53.8867H623.221ZM631.025 46.3809C631.025 48.5957 632.115 50.793 634.646 51.7246L633.398 53.4648C631.72 52.8057 630.568 51.5488 629.918 49.9668C629.215 51.6543 627.976 52.9727 626.156 53.6582L624.961 51.9004C627.58 50.9688 628.758 48.7188 628.758 46.3809V44.5352H631.025V46.3809ZM638.514 43.6387V55.5039H636.281V50.6172H633.539V48.8066H636.281V47.5234H633.539V45.7129H636.281V43.6387H638.514ZM638.848 57.543V59.3359H627.861V54.3613H630.129V57.543H638.848ZM659.379 55.9609V57.8418H644.736V55.9609H650.889V53.0781H645.949V51.3203H648.094V46.75H645.879V44.957H658.148V46.75H655.898V51.3203H658.078V53.0781H653.121V55.9609H659.379ZM650.344 51.3203H653.684V46.75H650.344V51.3203ZM673.688 43.6387V55.1348H671.438V43.6387H673.688ZM674.109 57.543V59.3359H662.965V53.9746H665.232V57.543H674.109ZM664.916 44.6582C667.377 44.6582 669.293 46.3457 669.293 48.6836C669.293 51.0742 667.377 52.7441 664.916 52.7441C662.455 52.7441 660.539 51.0742 660.539 48.6836C660.539 46.3457 662.455 44.6582 664.916 44.6582ZM664.916 46.6094C663.668 46.5918 662.719 47.3828 662.736 48.6836C662.719 50.0195 663.668 50.793 664.916 50.793C666.129 50.793 667.078 50.0195 667.078 48.6836C667.078 47.3828 666.129 46.5918 664.916 46.6094ZM688.893 51.8828V53.6582H677.572V44.7988H688.77V46.6094H679.857V48.2969H688.4V50.0547H679.857V51.8828H688.893ZM690.492 55.9258V57.7539H675.85V55.9258H690.492Z" fill="#AFAFC1"/>
<path d="M749.117 55.8906V57.7539H734.475V55.8906H749.117ZM747.887 45.0273V46.8203H745.637V51.6719H747.816V53.4297H735.688V51.6719H737.832V46.8203H735.617V45.0273H747.887ZM740.082 51.6719H743.422V46.8203H740.082V51.6719ZM764.674 55.9961V57.8418H750.031V55.9961H756.201V53.5879H751.719V48.209H760.771V46.4512H751.701V44.6582H762.986V49.9668H753.969V51.7598H763.355V53.5879H758.434V55.9961H764.674ZM776.152 43.9375V53.2891H774.025V49.3867H772.25V47.5762H774.025V43.9375H776.152ZM770.633 47.0664C770.633 48.7539 771.477 50.4238 773.533 51.2148L772.408 52.9375C771.046 52.4102 770.123 51.4609 769.578 50.3008C768.989 51.6016 768.005 52.665 766.537 53.2539L765.359 51.4785C767.557 50.6523 768.453 48.8242 768.453 47.0488V46.5742H765.904V44.7812H773.023V46.5742H770.633V47.0664ZM779.334 43.6211V53.377H777.207V43.6211H779.334ZM779.334 53.957V59.6172H777.102V55.7324H768.277V53.957H779.334ZM794.188 51.8828V53.6582H782.867V44.7988H794.064V46.6094H785.152V48.2969H793.695V50.0547H785.152V51.8828H794.188ZM795.787 55.9258V57.7539H781.145V55.9258H795.787ZM809.814 44.7812V45.7832C809.814 46.8906 809.814 48.4902 809.445 50.4766L807.248 50.2656C807.529 48.7275 807.6 47.5674 807.617 46.6094H801.588V44.7812H809.814ZM805.842 48.4727V51.5312C807.433 51.4697 809.067 51.3467 810.57 51.127L810.693 52.7441C807.371 53.3594 803.609 53.4121 800.832 53.4297L800.639 51.6367C801.535 51.6367 802.546 51.6367 803.609 51.6016V48.4727H805.842ZM813.734 43.6211V48.4902H815.668V50.3711H813.734V55.5918H811.432V43.6211H813.734ZM814.227 57.543V59.3359H802.994V54.5195H805.244V57.543H814.227ZM829.818 43.6211V59.6523H827.586V43.6211H829.818ZM824.861 44.957V51.127H819.588V54.0625C822.022 54.0537 824.097 53.9131 826.443 53.5352L826.637 55.3457C824 55.8027 821.627 55.9082 818.709 55.9082H817.268V49.3516H822.576V46.7676H817.25V44.957H824.861Z" fill="#3B82F6"/>
<g clip-path="url(#clip3_1004_6828)">
<circle cx="1219.5" cy="51.5" r="13.5" fill="#FAFAFA"/>
<path d="M1225.06 47.2535C1225.06 46.2365 1224.24 45.4121 1223.22 45.4121H1214.2C1213.18 45.4121 1212.35 46.2365 1212.35 47.2535V53.7901C1212.35 54.6304 1212.92 55.3641 1213.74 55.5734L1222.76 57.8946C1223.93 58.1943 1225.06 57.3144 1225.06 56.1112V47.2535Z" fill="#3B82F6"/>
<rect width="0.841798" height="2.52539" rx="0.420899" transform="matrix(-1 0 0 1 1215.46 49.9043)" fill="white"/>
<rect width="0.841798" height="2.52539" rx="0.420899" transform="matrix(-1 0 0 1 1217.15 49.9043)" fill="white"/>
</g>
<path d="M1245.94 45.125C1245.94 48.7969 1243.45 51.3438 1239.25 52.4219L1238.56 51.0781C1241.85 50.2266 1243.78 48.5625 1244.08 46.5H1239.38V45.125H1245.94ZM1250.23 44.2812V52.1875H1248.48V44.2812H1250.23ZM1250.23 52.7969V58.2031H1240.91V52.7969H1250.23ZM1242.62 54.1719V56.8281H1248.53V54.1719H1242.62ZM1257.34 47.6562C1257.33 50.1719 1258.59 52.7344 1260.78 53.7812L1259.72 55.1719C1258.19 54.3984 1257.09 52.9062 1256.48 51.1094C1255.87 53.0312 1254.71 54.625 1253.09 55.4375L1252.03 54.0469C1254.3 52.9688 1255.59 50.2656 1255.61 47.6562V45.4062H1257.34V47.6562ZM1263.36 44.2656V49.7969H1265.53V51.2812H1263.36V58.3906H1261.62V44.2656H1263.36ZM1277.27 44.2812V47.6562H1279.25V49.0938H1277.27V52.7656H1275.53V44.2812H1277.27ZM1273.11 45.1406V49.2031H1268.41V50.6875C1270.8 50.6719 1272.45 50.5859 1274.38 50.2656L1274.56 51.6562C1272.45 52.0312 1270.62 52.125 1267.83 52.1094H1266.67V47.8906H1271.41V46.5156H1266.66V45.1406H1273.11ZM1272.66 53.0781C1275.56 53.0938 1277.39 54.0781 1277.41 55.75C1277.39 57.4062 1275.56 58.3594 1272.66 58.3594C1269.69 58.3594 1267.88 57.4062 1267.88 55.75C1267.88 54.0781 1269.69 53.0938 1272.66 53.0781ZM1272.66 54.4375C1270.69 54.4375 1269.56 54.9062 1269.58 55.75C1269.56 56.5938 1270.69 57.0469 1272.66 57.0469C1274.61 57.0469 1275.69 56.5938 1275.69 55.75C1275.69 54.9062 1274.61 54.4375 1272.66 54.4375ZM1291.59 44.3281V52.2344H1290.12V44.3281H1291.59ZM1282.34 45.1406V50.0469C1284.6 50.0312 1286.59 49.8672 1288.69 49.4219L1288.89 50.6562C1286.58 51.125 1284.47 51.2969 1282.02 51.2969H1280.86V45.1406H1282.34ZM1291.59 52.875V58.1406H1282.42V52.875H1291.59ZM1283.88 54.0469V56.9531H1290.14V54.0469H1283.88Z" fill="#18181B"/>
<defs>
<clipPath id="clip0_1004_6828">
<rect width="20" height="20" fill="white" transform="translate(1198 816)"/>
</clipPath>
<clipPath id="clip1_1004_6828">
<rect width="18" height="18" fill="white" transform="translate(648 362.514)"/>
</clipPath>
<clipPath id="clip2_1004_6828">
<rect width="20" height="20" fill="white" transform="translate(1208 361.514)"/>
</clipPath>
<clipPath id="clip3_1004_6828">
<rect x="1206" y="38" width="27" height="27" rx="13.5" fill="white"/>
</clipPath>
</defs>
</svg>
