<svg width="1440" height="1050" viewBox="0 0 1440 1050" fill="none" xmlns="http://www.w3.org/2000/svg">
<rect width="1440" height="1050" fill="white"/>
<path d="M256.41 276.285H255.52L255.59 274.539L254.113 275.477L253.668 274.703L255.227 273.906L253.668 273.098L254.113 272.324L255.59 273.262L255.52 271.516H256.41L256.328 273.262L257.805 272.324L258.262 273.098L256.703 273.906L258.262 274.703L257.805 275.477L256.328 274.539L256.41 276.285Z" fill="#F63B3B"/>
<path d="M256.41 445.285H255.52L255.59 443.539L254.113 444.477L253.668 443.703L255.227 442.906L253.668 442.098L254.113 441.324L255.59 442.262L255.52 440.516H256.41L256.328 442.262L257.805 441.324L258.262 442.098L256.703 442.906L258.262 443.703L257.805 444.477L256.328 443.539L256.41 445.285Z" fill="#F63B3B"/>
<path d="M817.41 444.285H816.52L816.59 442.539L815.113 443.477L814.668 442.703L816.227 441.906L814.668 441.098L815.113 440.324L816.59 441.262L816.52 439.516H817.41L817.328 441.262L818.805 440.324L819.262 441.098L817.703 441.906L819.262 442.703L818.805 443.477L817.328 442.539L817.41 444.285Z" fill="#F63B3B"/>
<path d="M266.41 727.285H265.52L265.59 725.539L264.113 726.477L263.668 725.703L265.227 724.906L263.668 724.098L264.113 723.324L265.59 724.262L265.52 722.516H266.41L266.328 724.262L267.805 723.324L268.262 724.098L266.703 724.906L268.262 725.703L267.805 726.477L266.328 725.539L266.41 727.285Z" fill="#F63B3B"/>
<path d="M152.706 128.115C153.095 127.726 153.095 127.095 152.705 126.705C152.316 126.316 151.684 126.316 151.295 126.705L146 132L151.295 137.295C151.684 137.684 152.316 137.684 152.705 137.295C153.095 136.905 153.095 136.274 152.706 135.885L148.83 132L152.706 128.115Z" fill="#9696A2"/>
<path d="M174.861 135.535V136.517H162.938V135.535H174.861ZM173.719 126.482V127.435H171.653V131.99H173.689V132.928H164.021V131.99H166.058V127.435H163.992V126.482H173.719ZM167.2 131.99H170.525V127.435H167.2V131.99ZM187.825 135.608V136.575H175.901V135.608H181.263V133.147H177.396V129.134H185.188V127.083H177.366V126.131H186.316V130.071H178.538V132.195H186.624V133.147H182.391V135.608H187.825ZM197.391 125.457V133.016H196.277V129.485H194.285V128.533H196.277V125.457H197.391ZM192.718 127.962C192.718 129.383 193.67 130.921 195.325 131.609L194.725 132.488C193.501 131.976 192.645 131.001 192.205 129.881C191.744 131.148 190.835 132.239 189.539 132.811L188.924 131.902C190.623 131.185 191.604 129.515 191.604 127.962V127.186H189.173V126.233H195.018V127.186H192.718V127.962ZM199.925 125.164V133.133H198.826V125.164H199.925ZM199.925 133.704V138.187H198.797V134.642H191.15V133.704H199.925ZM212.376 132.21V133.147H203.367V126.292H212.229V127.259H204.539V129.192H211.951V130.115H204.539V132.21H212.376ZM213.753 135.535V136.487H201.829V135.535H213.753ZM226.717 135.608V136.575H214.793V135.608H220.154V133.147H216.287V129.134H224.08V127.083H216.258V126.131H225.208V130.071H217.43V132.195H225.516V133.147H221.282V135.608H226.717ZM241.98 128.665V129.588H238.025V130.848H243.387V131.785H231.521V130.848H236.883V129.588H233.104V125.677H241.849V126.629H234.261V128.665H241.98ZM241.863 132.898V135.799H234.129V137.117H242.259V138.04H232.986V134.949H240.735V133.777H232.957V132.898H241.863ZM247.972 126.175C249.891 126.189 251.253 127.947 251.268 130.716C251.253 133.484 249.891 135.242 247.972 135.242C246.038 135.242 244.69 133.484 244.69 130.716C244.69 127.947 246.038 126.189 247.972 126.175ZM247.972 127.2C246.683 127.215 245.774 128.592 245.774 130.716C245.774 132.84 246.683 134.217 247.972 134.217C249.275 134.217 250.154 132.84 250.154 130.716C250.154 128.592 249.275 127.215 247.972 127.2ZM254.563 125.164V130.364H256.746V131.36H254.563V138.187H253.421V125.164H254.563ZM267.527 125.164V130.467H269.637V131.434H267.527V138.187H266.385V125.164H267.527ZM264.158 126.57C264.158 130.262 262.43 133.616 258.182 135.711L257.537 134.803C260.906 133.125 262.737 130.621 263.001 127.537H258.138V126.57H264.158ZM281.18 125.164V138.187H280.022V125.164H281.18ZM277.327 126.585C277.312 130.335 275.569 133.646 271.204 135.74L270.574 134.803C274.097 133.133 275.892 130.635 276.155 127.522H271.175V126.585H277.327Z" fill="#71717A"/>
<rect x="962" y="916" width="123" height="58" rx="10" fill="#CBE2FF"/>
<path d="M999.266 937.766V951.891H997.531V937.766H999.266ZM987.562 947.969C988.688 947.961 989.961 947.961 991.297 947.922V946.625C989.703 946.375 988.672 945.398 988.672 944.062C988.672 942.469 990.078 941.406 992.141 941.406C994.219 941.406 995.656 942.469 995.656 944.062C995.656 945.391 994.617 946.359 993.031 946.609V947.859C994.273 947.805 995.523 947.703 996.703 947.547L996.828 948.844C993.719 949.375 990.359 949.406 987.812 949.406L987.562 947.969ZM996.453 939.391V940.766H987.859V939.391H991.297V937.812H993.031V939.391H996.453ZM992.141 942.734C991.078 942.75 990.312 943.234 990.328 944.062C990.312 944.875 991.078 945.359 992.141 945.344C993.25 945.359 993.984 944.875 993.984 944.062C993.984 943.234 993.25 942.75 992.141 942.734ZM1005.91 938.75C1008.14 938.734 1009.78 940.156 1009.8 942.156C1009.78 944.172 1008.14 945.578 1005.91 945.578C1003.69 945.578 1002.03 944.172 1002.03 942.156C1002.03 940.156 1003.69 938.734 1005.91 938.75ZM1005.91 940.25C1004.67 940.25 1003.75 940.984 1003.75 942.156C1003.75 943.344 1004.67 944.062 1005.91 944.062C1007.16 944.062 1008.09 943.344 1008.09 942.156C1008.09 940.984 1007.16 940.25 1005.91 940.25ZM1013.09 937.766V951.906H1011.36V937.766H1013.09ZM1001.39 947.531C1003.94 947.531 1007.47 947.5 1010.52 947.062L1010.66 948.328C1007.48 948.938 1004.09 948.953 1001.61 948.953L1001.39 947.531ZM1028.05 945.406V946.812H1015.14V945.406H1020.73V944.234H1016.78V940.484H1024.72V939.438H1016.73V938.078H1026.45V941.75H1018.5V942.875H1026.73V944.234H1022.45V945.406H1028.05ZM1026.53 947.703V951.797H1024.78V949.078H1016.58V947.703H1026.53ZM1037.84 940.219C1037.84 941.953 1038.97 943.672 1041.19 944.406L1040.31 945.75C1038.73 945.227 1037.61 944.164 1037 942.844C1036.37 944.289 1035.2 945.438 1033.55 946L1032.62 944.656C1034.91 943.906 1036.09 942.078 1036.09 940.219V940.047H1033.11V938.656H1040.78V940.047H1037.84V940.219ZM1043.92 937.766V941.297H1045.89V942.75H1043.92V946.281H1042.19V937.766H1043.92ZM1043.92 946.938V951.891H1042.19V948.328H1034.52V946.938H1043.92ZM1051.78 939.797C1051.77 941.719 1052.89 943.469 1055.11 944.172L1054.17 945.531C1052.63 944.992 1051.55 943.969 1050.95 942.625C1050.33 944.164 1049.15 945.375 1047.44 945.969L1046.52 944.562C1048.86 943.797 1050.03 941.906 1050.03 939.875V938.531H1051.78V939.797ZM1058.44 937.766V946.078H1056.7V941.922H1053.89V940.5H1056.7V937.766H1058.44ZM1053.66 946.453C1056.66 946.453 1058.48 947.453 1058.48 949.172C1058.48 950.891 1056.66 951.875 1053.66 951.875C1050.67 951.875 1048.84 950.891 1048.86 949.172C1048.84 947.453 1050.67 946.453 1053.66 946.453ZM1053.66 947.797C1051.69 947.797 1050.58 948.281 1050.58 949.172C1050.58 950.031 1051.69 950.516 1053.66 950.516C1055.62 950.516 1056.75 950.031 1056.75 949.172C1056.75 948.281 1055.62 947.797 1053.66 947.797Z" fill="#3B82F6"/>
<rect x="1106" y="917" width="147" height="56" rx="9" fill="#3B82F6"/>
<rect x="1106" y="917" width="147" height="56" rx="9" stroke="#3B82F6" stroke-width="2"/>
<path d="M1146.45 937.766V951.891H1144.72V937.766H1146.45ZM1134.75 947.969C1135.88 947.961 1137.15 947.961 1138.48 947.922V946.625C1136.89 946.375 1135.86 945.398 1135.86 944.062C1135.86 942.469 1137.27 941.406 1139.33 941.406C1141.41 941.406 1142.84 942.469 1142.84 944.062C1142.84 945.391 1141.8 946.359 1140.22 946.609V947.859C1141.46 947.805 1142.71 947.703 1143.89 947.547L1144.02 948.844C1140.91 949.375 1137.55 949.406 1135 949.406L1134.75 947.969ZM1143.64 939.391V940.766H1135.05V939.391H1138.48V937.812H1140.22V939.391H1143.64ZM1139.33 942.734C1138.27 942.75 1137.5 943.234 1137.52 944.062C1137.5 944.875 1138.27 945.359 1139.33 945.344C1140.44 945.359 1141.17 944.875 1141.17 944.062C1141.17 943.234 1140.44 942.75 1139.33 942.734ZM1153.09 938.75C1155.33 938.734 1156.97 940.156 1156.98 942.156C1156.97 944.172 1155.33 945.578 1153.09 945.578C1150.88 945.578 1149.22 944.172 1149.22 942.156C1149.22 940.156 1150.88 938.734 1153.09 938.75ZM1153.09 940.25C1151.86 940.25 1150.94 940.984 1150.94 942.156C1150.94 943.344 1151.86 944.062 1153.09 944.062C1154.34 944.062 1155.28 943.344 1155.28 942.156C1155.28 940.984 1154.34 940.25 1153.09 940.25ZM1160.28 937.766V951.906H1158.55V937.766H1160.28ZM1148.58 947.531C1151.12 947.531 1154.66 947.5 1157.7 947.062L1157.84 948.328C1154.67 948.938 1151.28 948.953 1148.8 948.953L1148.58 947.531ZM1177.38 938.344V943.25H1173.44V944.734H1179.02V946.141H1166.14V944.734H1171.69V943.25H1167.77V938.344H1177.38ZM1169.45 939.703V941.875H1175.66V939.703H1169.45ZM1177.44 947.328V951.891H1175.7V948.703H1167.56V947.328H1177.44ZM1192.88 948.859V950.266H1179.97V948.859H1183.31V945.953H1181.08V944.547H1183.06V940.359H1181.03V938.969H1191.75V940.359H1189.69V944.547H1191.7V945.953H1189.47V948.859H1192.88ZM1184.8 944.547H1187.97V940.359H1184.8V944.547ZM1185.05 948.859H1187.73V945.953H1185.05V948.859ZM1209.44 937.766V951.906H1207.7V944.188H1204.98V942.766H1207.7V937.766H1209.44ZM1202.78 941.516C1202.78 943.953 1204.09 946.547 1206.38 947.531L1205.34 948.922C1203.7 948.141 1202.53 946.57 1201.92 944.703C1201.29 946.695 1200.09 948.375 1198.45 949.203L1197.41 947.844C1199.67 946.781 1201 944.094 1201.02 941.516V940.578H1197.98V939.156H1205.81V940.578H1202.78V941.516ZM1216.48 940.312C1216.48 942.047 1217.61 943.672 1219.81 944.344L1218.98 945.703C1217.4 945.211 1216.27 944.203 1215.66 942.922C1215.03 944.406 1213.84 945.586 1212.14 946.156L1211.27 944.781C1213.55 944.031 1214.73 942.203 1214.73 940.328V940.156H1211.75V938.75H1219.42V940.156H1216.48V940.312ZM1222.56 937.766V941.156H1224.53V942.578H1222.56V946.188H1220.83V937.766H1222.56ZM1217.97 946.5C1220.89 946.5 1222.69 947.484 1222.7 949.172C1222.69 950.875 1220.89 951.875 1217.97 951.875C1215.02 951.875 1213.19 950.875 1213.19 949.172C1213.19 947.484 1215.02 946.5 1217.97 946.5ZM1217.97 947.859C1216.03 947.859 1214.92 948.312 1214.92 949.172C1214.92 950.047 1216.03 950.516 1217.97 950.516C1219.91 950.516 1220.98 950.047 1220.98 949.172C1220.98 948.312 1219.91 947.859 1217.97 947.859Z" fill="#CBE2FF"/>
<path d="M199.605 281.244V296.994H197.936V281.244H199.605ZM186.668 292.705C187.96 292.696 189.445 292.688 190.992 292.635V291.07C189.146 290.833 187.951 289.752 187.969 288.205C187.951 286.43 189.498 285.252 191.783 285.252C194.086 285.252 195.668 286.43 195.668 288.205C195.668 289.734 194.473 290.807 192.645 291.053V292.582C194.104 292.521 195.58 292.406 196.969 292.23L197.092 293.479C193.594 294.059 189.779 294.094 186.896 294.094L186.668 292.705ZM196.617 283.125V284.461H187.002V283.125H190.992V281.279H192.662V283.125H196.617ZM191.783 286.553C190.465 286.553 189.533 287.203 189.551 288.205C189.533 289.207 190.465 289.822 191.783 289.822C193.137 289.822 194.068 289.207 194.068 288.205C194.068 287.203 193.137 286.553 191.783 286.553ZM207.27 282.369C209.766 282.352 211.541 283.898 211.559 286.113C211.541 288.328 209.766 289.875 207.27 289.875C204.791 289.875 202.963 288.328 202.98 286.113C202.963 283.898 204.791 282.352 207.27 282.369ZM207.27 283.811C205.74 283.811 204.615 284.725 204.633 286.113C204.615 287.502 205.74 288.416 207.27 288.416C208.799 288.416 209.924 287.502 209.924 286.113C209.924 284.725 208.799 283.811 207.27 283.811ZM215.162 281.244V297.029H213.492V281.244H215.162ZM202.225 292.248C205.09 292.248 209.062 292.213 212.508 291.721L212.631 292.934C209.062 293.619 205.248 293.637 202.436 293.637L202.225 292.248ZM234.621 281.895V287.291H230.086V289.119H236.449V290.473H222.088V289.119H228.434V287.291H223.916V281.895H234.621ZM225.551 283.213V285.955H232.969V283.213H225.551ZM234.691 291.967V296.994H233.004V293.285H223.688V291.967H234.691ZM252.059 293.76V295.131H237.645V293.76H241.512V290.262H238.91V288.908H241.266V284.004H238.875V282.633H250.74V284.004H248.332V288.908H250.688V290.262H248.104V293.76H252.059ZM242.918 288.908H246.697V284.004H242.918V288.908ZM243.182 293.76H246.434V290.262H243.182V293.76Z" fill="#18181B"/>
<rect x="273" y="260" width="981" height="58" rx="10" fill="#FAFAFA"/>
<path d="M306.338 282.12V295.245H304.946V282.12H306.338ZM295.557 291.671C296.633 291.664 297.871 291.656 299.16 291.612V290.309C297.622 290.111 296.626 289.21 296.641 287.921C296.626 286.441 297.915 285.46 299.819 285.46C301.738 285.46 303.057 286.441 303.057 287.921C303.057 289.195 302.061 290.089 300.537 290.294V291.568C301.753 291.517 302.983 291.422 304.141 291.275L304.243 292.315C301.328 292.799 298.149 292.828 295.747 292.828L295.557 291.671ZM303.848 283.688V284.801H295.835V283.688H299.16V282.149H300.552V283.688H303.848ZM299.819 286.544C298.721 286.544 297.944 287.086 297.959 287.921C297.944 288.756 298.721 289.269 299.819 289.269C300.947 289.269 301.724 288.756 301.724 287.921C301.724 287.086 300.947 286.544 299.819 286.544ZM312.725 283.058C314.805 283.043 316.284 284.332 316.299 286.178C316.284 288.023 314.805 289.312 312.725 289.312C310.659 289.312 309.136 288.023 309.15 286.178C309.136 284.332 310.659 283.043 312.725 283.058ZM312.725 284.259C311.45 284.259 310.513 285.021 310.527 286.178C310.513 287.335 311.45 288.097 312.725 288.097C313.999 288.097 314.937 287.335 314.937 286.178C314.937 285.021 313.999 284.259 312.725 284.259ZM319.302 282.12V295.274H317.91V282.12H319.302ZM308.521 291.29C310.908 291.29 314.219 291.261 317.09 290.851L317.192 291.861C314.219 292.433 311.04 292.447 308.696 292.447L308.521 291.29ZM335.518 282.662V287.159H331.738V288.683H337.041V289.811H325.073V288.683H330.361V287.159H326.597V282.662H335.518ZM327.959 283.761V286.046H334.141V283.761H327.959ZM335.576 291.056V295.245H334.17V292.154H326.406V291.056H335.576ZM350.049 292.55V293.692H338.037V292.55H341.26V289.635H339.092V288.507H341.055V284.42H339.062V283.277H348.95V284.42H346.943V288.507H348.906V289.635H346.753V292.55H350.049ZM342.432 288.507H345.581V284.42H342.432V288.507ZM342.651 292.55H345.361V289.635H342.651V292.55ZM362.998 288.141V289.21H350.986V288.141H362.998ZM361.519 290.133V293.019H353.813V294.103H361.929V295.084H352.422V292.096H360.142V291.129H352.407V290.133H361.519ZM361.489 282.457V285.299H353.901V286.295H361.709V287.276H352.524V284.376H360.098V283.438H352.495V282.457H361.489ZM372.212 284.479C372.212 286.148 373.369 287.745 375.376 288.419L374.673 289.503C373.186 288.99 372.095 287.965 371.523 286.676C370.952 288.097 369.817 289.21 368.271 289.752L367.524 288.668C369.575 287.965 370.806 286.28 370.82 284.464V284.112H367.935V282.984H375.039V284.112H372.212V284.479ZM377.939 282.12V285.489H379.844V286.661H377.939V290.03H376.548V282.12H377.939ZM377.939 290.675V295.245H376.548V291.803H369.268V290.675H377.939ZM385.249 284.083C385.249 285.929 386.436 287.569 388.428 288.214L387.666 289.298C386.223 288.778 385.161 287.767 384.59 286.456C384.019 287.958 382.876 289.122 381.294 289.693L380.547 288.58C382.642 287.862 383.857 286.119 383.872 284.142V282.853H385.249V284.083ZM391.533 282.12V289.869H390.142V285.929H387.373V284.786H390.142V282.12H391.533ZM387.139 290.235C389.893 290.235 391.577 291.144 391.577 292.74C391.577 294.322 389.893 295.23 387.139 295.216C384.385 295.23 382.686 294.322 382.7 292.74C382.686 291.144 384.385 290.235 387.139 290.235ZM387.139 291.319C385.22 291.319 384.077 291.832 384.077 292.74C384.077 293.619 385.22 294.117 387.139 294.117C389.058 294.117 390.2 293.619 390.2 292.74C390.2 291.832 389.058 291.319 387.139 291.319ZM400.044 284.288V285.416H393.525V284.288H396.104V282.501H397.48V284.288H400.044ZM396.792 286.207C398.462 286.207 399.634 287.452 399.648 289.225C399.634 291.012 398.462 292.271 396.792 292.271C395.151 292.271 393.936 291.012 393.95 289.225C393.936 287.452 395.151 286.207 396.792 286.207ZM396.792 287.364C395.84 287.364 395.181 288.141 395.181 289.225C395.181 290.338 395.84 291.085 396.792 291.085C397.729 291.085 398.418 290.338 398.418 289.225C398.418 288.141 397.729 287.364 396.792 287.364ZM404.79 282.12V295.245H403.472V288.727H401.963V294.63H400.645V282.413H401.963V287.584H403.472V282.12H404.79ZM418.486 289.518V290.646H413.154V295.23H411.792V290.646H406.519V289.518H418.486ZM417.358 282.896V284.01H413.301C413.323 285.636 415.344 287.086 417.827 287.423L417.314 288.521C415.161 288.185 413.301 287.123 412.51 285.621C411.697 287.123 409.844 288.185 407.72 288.521L407.192 287.423C409.646 287.086 411.667 285.636 411.719 284.01H407.632V282.896H417.358ZM423.481 285.709C423.481 287.804 424.36 290.045 426.118 291.114L425.342 292.184C424.111 291.444 423.276 290.133 422.837 288.609C422.346 290.279 421.445 291.7 420.171 292.477L419.307 291.437C421.167 290.323 422.134 288.009 422.134 285.768V283.321H423.481V285.709ZM430.776 282.12V295.245H429.443V282.12H430.776ZM428.052 282.369V294.601H426.733V287.892H424.697V286.734H426.733V282.369H428.052ZM444.458 292.447V293.604H432.446V292.447H435.317V289.02C434.241 288.426 433.589 287.481 433.589 286.31C433.589 284.244 435.61 282.882 438.423 282.882C441.25 282.882 443.271 284.244 443.271 286.31C443.271 287.467 442.642 288.397 441.587 288.99V292.447H444.458ZM438.423 283.995C436.357 283.995 434.937 284.889 434.937 286.31C434.937 287.716 436.357 288.639 438.423 288.639C440.474 288.639 441.924 287.716 441.924 286.31C441.924 284.889 440.474 283.995 438.423 283.995ZM436.694 292.447H440.181V289.518C439.646 289.657 439.053 289.723 438.423 289.723C437.808 289.723 437.222 289.657 436.694 289.532V292.447ZM446.904 294.103C446.333 294.103 445.85 293.634 445.864 293.062C445.85 292.491 446.333 292.022 446.904 292.022C447.461 292.022 447.944 292.491 447.944 293.062C447.944 293.634 447.461 294.103 446.904 294.103Z" fill="#71717A"/>
<path d="M200.605 736.244V751.994H198.936V736.244H200.605ZM187.668 747.705C188.96 747.696 190.445 747.688 191.992 747.635V746.07C190.146 745.833 188.951 744.752 188.969 743.205C188.951 741.43 190.498 740.252 192.783 740.252C195.086 740.252 196.668 741.43 196.668 743.205C196.668 744.734 195.473 745.807 193.645 746.053V747.582C195.104 747.521 196.58 747.406 197.969 747.23L198.092 748.479C194.594 749.059 190.779 749.094 187.896 749.094L187.668 747.705ZM197.617 738.125V739.461H188.002V738.125H191.992V736.279H193.662V738.125H197.617ZM192.783 741.553C191.465 741.553 190.533 742.203 190.551 743.205C190.533 744.207 191.465 744.822 192.783 744.822C194.137 744.822 195.068 744.207 195.068 743.205C195.068 742.203 194.137 741.553 192.783 741.553ZM208.27 737.369C210.766 737.352 212.541 738.898 212.559 741.113C212.541 743.328 210.766 744.875 208.27 744.875C205.791 744.875 203.963 743.328 203.98 741.113C203.963 738.898 205.791 737.352 208.27 737.369ZM208.27 738.811C206.74 738.811 205.615 739.725 205.633 741.113C205.615 742.502 206.74 743.416 208.27 743.416C209.799 743.416 210.924 742.502 210.924 741.113C210.924 739.725 209.799 738.811 208.27 738.811ZM216.162 736.244V752.029H214.492V736.244H216.162ZM203.225 747.248C206.09 747.248 210.062 747.213 213.508 746.721L213.631 747.934C210.062 748.619 206.248 748.637 203.436 748.637L203.225 747.248ZM235.463 736.227V740.938H237.748V742.344H235.463V747.811H233.793V736.227H235.463ZM236.131 750.307V751.66H225.479V746.598H227.148V750.307H236.131ZM227.518 737.316C229.891 737.316 231.701 738.934 231.719 741.236C231.701 743.521 229.891 745.156 227.518 745.156C225.145 745.156 223.316 743.521 223.334 741.236C223.316 738.934 225.145 737.316 227.518 737.316ZM227.518 738.775C226.076 738.775 224.951 739.777 224.969 741.236C224.951 742.695 226.076 743.697 227.518 743.697C228.977 743.697 230.084 742.695 230.084 741.236C230.084 739.777 228.977 738.775 227.518 738.775ZM251.775 736.262V747.863H250.105V742.396H246.836V741.008H250.105V736.262H251.775ZM246.941 737.439C246.924 741.553 244.094 744.646 239.576 746.105L238.873 744.77C242.38 743.636 244.762 741.491 245.113 738.828H239.682V737.439H246.941ZM252.18 750.307V751.66H241.633V746.668H243.32V750.307H252.18ZM259.58 737.773V750.5H257.629V739.707H257.559L254.518 741.693V739.848L257.682 737.773H259.58Z" fill="#18181B"/>
<rect x="274" y="715" width="980" height="58" rx="10" fill="#FAFAFA"/>
<path d="M307.338 737.12V750.245H305.946V737.12H307.338ZM296.557 746.671C297.633 746.664 298.871 746.656 300.16 746.612V745.309C298.622 745.111 297.626 744.21 297.641 742.921C297.626 741.441 298.915 740.46 300.819 740.46C302.738 740.46 304.057 741.441 304.057 742.921C304.057 744.195 303.061 745.089 301.537 745.294V746.568C302.753 746.517 303.983 746.422 305.141 746.275L305.243 747.315C302.328 747.799 299.149 747.828 296.747 747.828L296.557 746.671ZM304.848 738.688V739.801H296.835V738.688H300.16V737.149H301.552V738.688H304.848ZM300.819 741.544C299.721 741.544 298.944 742.086 298.959 742.921C298.944 743.756 299.721 744.269 300.819 744.269C301.947 744.269 302.724 743.756 302.724 742.921C302.724 742.086 301.947 741.544 300.819 741.544ZM313.725 738.058C315.805 738.043 317.284 739.332 317.299 741.178C317.284 743.023 315.805 744.312 313.725 744.312C311.659 744.312 310.136 743.023 310.15 741.178C310.136 739.332 311.659 738.043 313.725 738.058ZM313.725 739.259C312.45 739.259 311.513 740.021 311.527 741.178C311.513 742.335 312.45 743.097 313.725 743.097C314.999 743.097 315.937 742.335 315.937 741.178C315.937 740.021 314.999 739.259 313.725 739.259ZM320.302 737.12V750.274H318.91V737.12H320.302ZM309.521 746.29C311.908 746.29 315.219 746.261 318.09 745.851L318.192 746.861C315.219 747.433 312.04 747.447 309.696 747.447L309.521 746.29ZM336.386 737.105V741.031H338.29V742.203H336.386V746.759H334.994V737.105H336.386ZM336.942 748.839V749.967H328.065V745.748H329.457V748.839H336.942ZM329.765 738.014C331.742 738.014 333.251 739.361 333.266 741.28C333.251 743.185 331.742 744.547 329.765 744.547C327.787 744.547 326.264 743.185 326.278 741.28C326.264 739.361 327.787 738.014 329.765 738.014ZM329.765 739.229C328.563 739.229 327.626 740.064 327.641 741.28C327.626 742.496 328.563 743.331 329.765 743.331C330.98 743.331 331.903 742.496 331.903 741.28C331.903 740.064 330.98 739.229 329.765 739.229ZM349.979 737.135V746.803H348.588V742.247H345.863V741.09H348.588V737.135H349.979ZM345.951 738.116C345.937 741.544 343.578 744.122 339.813 745.338L339.228 744.225C342.15 743.28 344.135 741.493 344.428 739.273H339.901V738.116H345.951ZM350.316 748.839V749.967H341.527V745.807H342.934V748.839H350.316ZM357.978 737.34C360.937 737.34 362.665 738.131 362.665 739.596C362.665 741.061 360.937 741.866 357.978 741.866C355.019 741.866 353.29 741.061 353.29 739.596C353.29 738.131 355.019 737.34 357.978 737.34ZM357.978 738.365C355.883 738.365 354.726 738.819 354.74 739.596C354.726 740.401 355.883 740.826 357.978 740.826C360.072 740.826 361.229 740.401 361.229 739.596C361.229 738.819 360.072 738.365 357.978 738.365ZM363.969 742.672V743.785H352.001V742.672H363.969ZM362.46 744.796V747.872H354.813V749.044H362.826V750.113H353.451V746.861H361.083V745.836H353.437V744.796H362.46ZM373.212 739.479C373.212 741.148 374.369 742.745 376.376 743.419L375.673 744.503C374.186 743.99 373.095 742.965 372.523 741.676C371.952 743.097 370.817 744.21 369.271 744.752L368.524 743.668C370.575 742.965 371.806 741.28 371.82 739.464V739.112H368.935V737.984H376.039V739.112H373.212V739.479ZM378.939 737.12V740.489H380.844V741.661H378.939V745.03H377.548V737.12H378.939ZM378.939 745.675V750.245H377.548V746.803H370.268V745.675H378.939ZM386.249 739.083C386.249 740.929 387.436 742.569 389.428 743.214L388.666 744.298C387.223 743.778 386.161 742.767 385.59 741.456C385.019 742.958 383.876 744.122 382.294 744.693L381.547 743.58C383.642 742.862 384.857 741.119 384.872 739.142V737.853H386.249V739.083ZM392.533 737.12V744.869H391.142V740.929H388.373V739.786H391.142V737.12H392.533ZM388.139 745.235C390.893 745.235 392.577 746.144 392.577 747.74C392.577 749.322 390.893 750.23 388.139 750.216C385.385 750.23 383.686 749.322 383.7 747.74C383.686 746.144 385.385 745.235 388.139 745.235ZM388.139 746.319C386.22 746.319 385.077 746.832 385.077 747.74C385.077 748.619 386.22 749.117 388.139 749.117C390.058 749.117 391.2 748.619 391.2 747.74C391.2 746.832 390.058 746.319 388.139 746.319ZM401.044 739.288V740.416H394.525V739.288H397.104V737.501H398.48V739.288H401.044ZM397.792 741.207C399.462 741.207 400.634 742.452 400.648 744.225C400.634 746.012 399.462 747.271 397.792 747.271C396.151 747.271 394.936 746.012 394.95 744.225C394.936 742.452 396.151 741.207 397.792 741.207ZM397.792 742.364C396.84 742.364 396.181 743.141 396.181 744.225C396.181 745.338 396.84 746.085 397.792 746.085C398.729 746.085 399.418 745.338 399.418 744.225C399.418 743.141 398.729 742.364 397.792 742.364ZM405.79 737.12V750.245H404.472V743.727H402.963V749.63H401.645V737.413H402.963V742.584H404.472V737.12H405.79ZM419.486 744.518V745.646H414.154V750.23H412.792V745.646H407.519V744.518H419.486ZM418.358 737.896V739.01H414.301C414.323 740.636 416.344 742.086 418.827 742.423L418.314 743.521C416.161 743.185 414.301 742.123 413.51 740.621C412.697 742.123 410.844 743.185 408.72 743.521L408.192 742.423C410.646 742.086 412.667 740.636 412.719 739.01H408.632V737.896H418.358ZM424.481 740.709C424.481 742.804 425.36 745.045 427.118 746.114L426.342 747.184C425.111 746.444 424.276 745.133 423.837 743.609C423.346 745.279 422.445 746.7 421.171 747.477L420.307 746.437C422.167 745.323 423.134 743.009 423.134 740.768V738.321H424.481V740.709ZM431.776 737.12V750.245H430.443V737.12H431.776ZM429.052 737.369V749.601H427.733V742.892H425.697V741.734H427.733V737.369H429.052ZM445.458 747.447V748.604H433.446V747.447H436.317V744.02C435.241 743.426 434.589 742.481 434.589 741.31C434.589 739.244 436.61 737.882 439.423 737.882C442.25 737.882 444.271 739.244 444.271 741.31C444.271 742.467 443.642 743.397 442.587 743.99V747.447H445.458ZM439.423 738.995C437.357 738.995 435.937 739.889 435.937 741.31C435.937 742.716 437.357 743.639 439.423 743.639C441.474 743.639 442.924 742.716 442.924 741.31C442.924 739.889 441.474 738.995 439.423 738.995ZM437.694 747.447H441.181V744.518C440.646 744.657 440.053 744.723 439.423 744.723C438.808 744.723 438.222 744.657 437.694 744.532V747.447Z" fill="#71717A"/>
<path d="M192.1 533.496C192.1 535.324 193.523 537.012 195.932 537.697L195.158 538.998C193.339 538.462 191.994 537.354 191.291 535.922C190.605 537.504 189.226 538.726 187.354 539.297L186.545 537.996C188.953 537.293 190.447 535.482 190.447 533.496V533.338H187.02V532.002H190.447V530.174H192.117V532.002H195.527V533.338H192.1V533.496ZM198.955 530.244V534.146H201.24V535.535H198.955V539.543H197.285V530.244H198.955ZM198.955 540.246V545.801H188.9V540.246H198.955ZM190.535 541.564V544.447H197.303V541.564H190.535ZM214.881 531.756V533.303C214.881 535.254 214.881 537.434 214.283 540.65L212.596 540.475C213.211 537.434 213.211 535.201 213.211 533.303V533.109H203.648V531.756H214.881ZM216.498 542.479V543.867H202.137V542.479H207.604V536.924H209.256V542.479H216.498ZM227.572 534.885C227.572 537.381 229.207 540.158 231.598 541.283L230.648 542.584C228.882 541.731 227.484 539.956 226.781 537.891C226.052 540.149 224.575 542.092 222.773 542.988L221.789 541.67C224.18 540.527 225.92 537.557 225.92 534.885V533.215H222.369V531.826H231V533.215H227.572V534.885ZM234.357 530.244V536.484H236.889V537.891H234.357V545.994H232.688V530.244H234.357ZM252.059 542.707V544.113H237.645V542.707H241.582V539.93H239.402V534.92H248.648V532.723H239.367V531.352H250.301V536.273H241.055V538.559H250.67V539.93H248.279V542.707H252.059ZM243.199 542.707H246.645V539.93H243.199V542.707Z" fill="#18181B"/>
<rect x="273" y="509" width="858" height="58" rx="10" fill="#FAFAFA"/>
<path d="M306.719 531.12V544.245H305.386V537.521H303.701V543.571H302.397V531.384H303.701V536.379H305.386V531.12H306.719ZM297.49 532.673V539.675C298.706 539.667 300.032 539.572 301.519 539.279L301.665 540.495C299.863 540.817 298.354 540.905 296.948 540.905H296.099V532.673H297.49ZM312.71 543V532.395H316.489C318.95 532.395 320.166 533.874 320.166 535.837C320.166 537.785 318.95 539.279 316.489 539.279H314.321V543H312.71ZM314.321 537.902H316.328C317.896 537.902 318.54 537.023 318.54 535.837C318.54 534.636 317.896 533.771 316.328 533.771H314.321V537.902ZM329.043 535.852C328.779 534.489 327.651 533.728 326.304 533.728C324.473 533.728 323.11 535.134 323.11 537.697C323.11 540.275 324.487 541.667 326.304 541.667C327.637 541.667 328.765 540.92 329.043 539.572L330.669 539.587C330.332 541.682 328.618 543.146 326.289 543.146C323.521 543.146 321.514 541.081 321.514 537.697C321.514 534.299 323.535 532.248 326.289 532.248C328.53 532.248 330.303 533.566 330.669 535.852H329.043ZM343.105 531.12V544.245H341.772V531.12H343.105ZM340.439 531.369V543.601H339.106V537.272H337.627C337.51 539.836 336.411 541.433 334.785 541.418C333.071 541.433 331.958 539.631 331.958 536.789C331.958 533.947 333.071 532.16 334.785 532.175C336.382 532.16 337.466 533.676 337.627 536.145H339.106V531.369H340.439ZM334.785 533.479C333.833 533.479 333.247 534.694 333.247 536.789C333.247 538.884 333.833 540.1 334.785 540.1C335.752 540.1 336.353 538.884 336.353 536.789C336.353 534.694 335.752 533.479 334.785 533.479ZM349.507 534.46C349.507 536.862 350.854 539.25 352.861 540.158L352.012 541.271C350.518 540.524 349.397 539.038 348.818 537.243C348.24 539.133 347.09 540.729 345.581 541.521L344.702 540.393C346.738 539.426 348.101 536.892 348.101 534.46V532.219H349.507V534.46ZM355.718 531.12V544.274H354.341V536.613H351.411V535.485H354.341V531.12H355.718ZM368.916 532.468V533.61H367.568V539.719C368.22 539.682 368.857 539.616 369.473 539.543L369.546 540.554C366.792 541.008 363.701 541.052 361.401 541.066L361.24 539.909L362.91 539.895V533.61H361.562V532.468H368.916ZM371.626 531.12V536.291H373.735V537.434H371.626V544.245H370.234V531.12H371.626ZM364.258 539.865C364.902 539.858 365.562 539.836 366.221 539.807V533.61H364.258V539.865ZM378.086 531.56C380.063 531.574 381.514 532.79 381.528 534.504C381.514 536.232 380.063 537.434 378.086 537.434C376.094 537.434 374.629 536.232 374.629 534.504C374.629 532.79 376.094 531.574 378.086 531.56ZM378.086 532.731C376.87 532.717 375.977 533.435 375.991 534.504C375.977 535.588 376.87 536.306 378.086 536.306C379.287 536.306 380.181 535.588 380.181 534.504C380.181 533.435 379.287 532.717 378.086 532.731ZM385.249 531.12V537.8H383.857V531.12H385.249ZM385.249 538.4V541.711H378.013V542.971H385.688V544.084H376.665V540.671H383.872V539.514H376.621V538.4H385.249ZM393.306 531.34C396.265 531.34 397.993 532.131 397.993 533.596C397.993 535.061 396.265 535.866 393.306 535.866C390.347 535.866 388.618 535.061 388.618 533.596C388.618 532.131 390.347 531.34 393.306 531.34ZM393.306 532.365C391.211 532.365 390.054 532.819 390.068 533.596C390.054 534.401 391.211 534.826 393.306 534.826C395.4 534.826 396.558 534.401 396.558 533.596C396.558 532.819 395.4 532.365 393.306 532.365ZM399.297 536.672V537.785H387.329V536.672H399.297ZM397.788 538.796V541.872H390.142V543.044H398.154V544.113H388.779V540.861H396.411V539.836H388.765V538.796H397.788ZM407.588 531.721C409.316 531.706 410.649 532.709 410.942 534.182H413.506V531.12H414.897V538.166H413.506V535.324H410.957C410.671 536.833 409.331 537.844 407.588 537.844C405.581 537.844 404.146 536.584 404.146 534.768C404.146 532.98 405.581 531.706 407.588 531.721ZM407.588 532.878C406.343 532.878 405.479 533.64 405.479 534.768C405.479 535.896 406.343 536.672 407.588 536.672C408.804 536.672 409.668 535.896 409.668 534.768C409.668 533.64 408.804 532.878 407.588 532.878ZM407.72 538.796V540.319H413.506V538.796H414.897V544.084H406.343V538.796H407.72ZM407.72 542.941H413.506V541.418H407.72V542.941ZM428.931 541.506V542.678H416.919V541.506H422.207V539.206H418.384V535.031H426.089V533.186H418.354V532.043H427.466V536.145H419.761V538.063H427.773V539.206H423.584V541.506H428.931ZM440.518 537.346V538.488H431.377V532.292H440.4V533.435H432.754V537.346H440.518ZM441.895 541.359V542.517H429.883V541.359H441.895ZM452.998 533.288V534.416H446.479V533.288H449.058V531.501H450.435V533.288H452.998ZM449.746 535.207C451.416 535.207 452.588 536.452 452.603 538.225C452.588 540.012 451.416 541.271 449.746 541.271C448.105 541.271 446.89 540.012 446.904 538.225C446.89 536.452 448.105 535.207 449.746 535.207ZM449.746 536.364C448.794 536.364 448.135 537.141 448.135 538.225C448.135 539.338 448.794 540.085 449.746 540.085C450.684 540.085 451.372 539.338 451.372 538.225C451.372 537.141 450.684 536.364 449.746 536.364ZM457.744 531.12V544.245H456.426V537.727H454.917V543.63H453.599V531.413H454.917V536.584H456.426V531.12H457.744ZM471.44 538.518V539.646H466.108V544.23H464.746V539.646H459.473V538.518H471.44ZM470.312 531.896V533.01H466.255C466.277 534.636 468.298 536.086 470.781 536.423L470.269 537.521C468.115 537.185 466.255 536.123 465.464 534.621C464.651 536.123 462.798 537.185 460.674 537.521L460.146 536.423C462.6 536.086 464.622 534.636 464.673 533.01H460.586V531.896H470.312ZM476.436 534.709C476.436 536.804 477.314 539.045 479.072 540.114L478.296 541.184C477.065 540.444 476.23 539.133 475.791 537.609C475.3 539.279 474.399 540.7 473.125 541.477L472.261 540.437C474.121 539.323 475.088 537.009 475.088 534.768V532.321H476.436V534.709ZM483.73 531.12V544.245H482.397V531.12H483.73ZM481.006 531.369V543.601H479.688V536.892H477.651V535.734H479.688V531.369H481.006ZM497.412 541.447V542.604H485.4V541.447H488.271V538.02C487.195 537.426 486.543 536.481 486.543 535.31C486.543 533.244 488.564 531.882 491.377 531.882C494.204 531.882 496.226 533.244 496.226 535.31C496.226 536.467 495.596 537.397 494.541 537.99V541.447H497.412ZM491.377 532.995C489.312 532.995 487.891 533.889 487.891 535.31C487.891 536.716 489.312 537.639 491.377 537.639C493.428 537.639 494.878 536.716 494.878 535.31C494.878 533.889 493.428 532.995 491.377 532.995ZM489.648 541.447H493.135V538.518C492.6 538.657 492.007 538.723 491.377 538.723C490.762 538.723 490.176 538.657 489.648 538.532V541.447Z" fill="#71717A"/>
<rect x="1151" y="509" width="103" height="58" rx="10" fill="#D5D9DE"/>
<path d="M1187.17 532.147C1188.88 532.133 1190.23 533.122 1190.57 534.579H1192.96V531.562H1194.58V538.666H1192.96V535.897H1190.58C1190.25 537.384 1188.89 538.388 1187.17 538.388C1185.13 538.388 1183.67 537.084 1183.67 535.253C1183.67 533.451 1185.13 532.133 1187.17 532.147ZM1187.17 533.51C1186.03 533.51 1185.22 534.184 1185.22 535.253C1185.22 536.308 1186.03 537.011 1187.17 537.011C1188.28 537.011 1189.07 536.308 1189.09 535.253C1189.07 534.184 1188.28 533.51 1187.17 533.51ZM1187.46 539.281V540.688H1192.96V539.281H1194.58V544.643H1185.85V539.281H1187.46ZM1187.46 543.324H1192.96V541.947H1187.46V543.324ZM1208.56 541.918V543.266H1196.46V541.918H1201.67V539.765H1197.89V535.429H1205.51V533.788H1197.86V532.47H1207.12V536.718H1199.52V538.432H1207.43V539.765H1203.28V541.918H1208.56ZM1220.17 537.772V539.076H1210.89V532.719H1220.07V534.037H1212.5V537.772H1220.17ZM1221.52 541.771V543.119H1209.42V541.771H1221.52Z" fill="#696969"/>
<path d="M192.1 450.496C192.1 452.324 193.523 454.012 195.932 454.697L195.158 455.998C193.339 455.462 191.994 454.354 191.291 452.922C190.605 454.504 189.226 455.726 187.354 456.297L186.545 454.996C188.953 454.293 190.447 452.482 190.447 450.496V450.338H187.02V449.002H190.447V447.174H192.117V449.002H195.527V450.338H192.1V450.496ZM198.955 447.244V451.146H201.24V452.535H198.955V456.543H197.285V447.244H198.955ZM198.955 457.246V462.801H188.9V457.246H198.955ZM190.535 458.564V461.447H197.303V458.564H190.535ZM206.408 448.422C207.841 448.422 209.027 449.248 209.73 450.672H213.615V447.244H215.268V463.029H213.615V456.982H209.836C209.159 458.564 207.92 459.479 206.408 459.479C204.053 459.479 202.4 457.334 202.418 453.941C202.4 450.566 204.053 448.422 206.408 448.422ZM206.408 449.916C204.984 449.916 204 451.463 204 453.941C204 456.438 204.984 457.984 206.408 457.984C207.832 457.984 208.816 456.438 208.816 453.941C208.816 451.463 207.832 449.916 206.408 449.916ZM210.205 452.043C210.319 452.623 210.398 453.256 210.398 453.941C210.398 454.539 210.346 455.093 210.24 455.611H213.615V452.043H210.205ZM223.178 451.885C223.178 454.381 224.812 457.158 227.203 458.283L226.254 459.584C224.487 458.731 223.09 456.956 222.387 454.891C221.657 457.149 220.181 459.092 218.379 459.988L217.395 458.67C219.785 457.527 221.525 454.557 221.525 451.885V450.215H217.975V448.826H226.605V450.215H223.178V451.885ZM229.963 447.244V453.484H232.494V454.891H229.963V462.994H228.293V447.244H229.963Z" fill="#18181B"/>
<rect x="273" y="426" width="415" height="58" rx="10" fill="#FAFAFA"/>
<path d="M300.083 450.83C300.083 452.354 301.27 453.76 303.276 454.331L302.632 455.415C301.116 454.968 299.995 454.045 299.409 452.852C298.838 454.17 297.688 455.188 296.128 455.664L295.454 454.58C297.461 453.994 298.706 452.485 298.706 450.83V450.698H295.85V449.585H298.706V448.062H300.098V449.585H302.939V450.698H300.083V450.83ZM305.796 448.12V451.372H307.7V452.529H305.796V455.869H304.404V448.12H305.796ZM305.796 456.455V461.084H297.417V456.455H305.796ZM298.779 457.554V459.956H304.419V457.554H298.779ZM312.007 449.102C313.201 449.102 314.189 449.79 314.775 450.977H318.013V448.12H319.39V461.274H318.013V456.235H314.863C314.299 457.554 313.267 458.315 312.007 458.315C310.044 458.315 308.667 456.528 308.682 453.701C308.667 450.889 310.044 449.102 312.007 449.102ZM312.007 450.347C310.82 450.347 310 451.636 310 453.701C310 455.781 310.82 457.07 312.007 457.07C313.193 457.07 314.014 455.781 314.014 453.701C314.014 451.636 313.193 450.347 312.007 450.347ZM315.171 452.119C315.266 452.603 315.332 453.13 315.332 453.701C315.332 454.199 315.288 454.661 315.2 455.093H318.013V452.119H315.171ZM325.981 451.987C325.981 454.067 327.344 456.382 329.336 457.319L328.545 458.403C327.073 457.693 325.908 456.213 325.322 454.492C324.714 456.375 323.484 457.993 321.982 458.74L321.162 457.642C323.154 456.689 324.604 454.214 324.604 451.987V450.596H321.646V449.438H328.838V450.596H325.981V451.987ZM331.636 448.12V453.32H333.745V454.492H331.636V461.245H330.244V448.12H331.636ZM346.372 454.141V455.21H334.36V454.141H346.372ZM344.893 456.133V459.019H337.188V460.103H345.303V461.084H335.796V458.096H343.516V457.129H335.781V456.133H344.893ZM344.863 448.457V451.299H337.275V452.295H345.083V453.276H335.898V450.376H343.472V449.438H335.869V448.457H344.863ZM361.885 448.12V455.166H360.493V448.12H361.885ZM354.663 455.796V457.275H360.508V455.796H361.885V461.084H353.301V455.796H354.663ZM354.663 459.941H360.508V458.374H354.663V459.941ZM354.766 448.721C356.772 448.721 358.252 449.966 358.252 451.768C358.252 453.569 356.772 454.814 354.766 454.8C352.759 454.814 351.265 453.569 351.265 451.768C351.265 449.966 352.759 448.721 354.766 448.721ZM354.766 449.893C353.521 449.878 352.627 450.654 352.627 451.768C352.627 452.896 353.521 453.657 354.766 453.657C355.996 453.657 356.89 452.896 356.89 451.768C356.89 450.654 355.996 449.878 354.766 449.893ZM370.22 448.911V452.734H365.884V454.551C368.169 454.558 369.414 454.507 370.894 454.229L371.025 455.356C369.429 455.635 368.081 455.679 365.459 455.679H364.507V451.68H368.828V450.024H364.492V448.911H370.22ZM374.907 448.135V456.206H373.516V453.892H371.055V452.778H373.516V451.152H371.055V450.039H373.516V448.135H374.907ZM374.907 456.865V461.26H373.516V457.993H366.001V456.865H374.907ZM383.418 450.288V451.416H376.899V450.288H379.478V448.501H380.854V450.288H383.418ZM380.166 452.207C381.836 452.207 383.008 453.452 383.022 455.225C383.008 457.012 381.836 458.271 380.166 458.271C378.525 458.271 377.31 457.012 377.324 455.225C377.31 453.452 378.525 452.207 380.166 452.207ZM380.166 453.364C379.214 453.364 378.555 454.141 378.555 455.225C378.555 456.338 379.214 457.085 380.166 457.085C381.104 457.085 381.792 456.338 381.792 455.225C381.792 454.141 381.104 453.364 380.166 453.364ZM388.164 448.12V461.245H386.846V454.727H385.337V460.63H384.019V448.413H385.337V453.584H386.846V448.12H388.164ZM401.86 455.518V456.646H396.528V461.23H395.166V456.646H389.893V455.518H401.86ZM400.732 448.896V450.01H396.675C396.697 451.636 398.718 453.086 401.201 453.423L400.688 454.521C398.535 454.185 396.675 453.123 395.884 451.621C395.071 453.123 393.218 454.185 391.094 454.521L390.566 453.423C393.02 453.086 395.042 451.636 395.093 450.01H391.006V448.896H400.732ZM406.855 451.709C406.855 453.804 407.734 456.045 409.492 457.114L408.716 458.184C407.485 457.444 406.65 456.133 406.211 454.609C405.72 456.279 404.819 457.7 403.545 458.477L402.681 457.437C404.541 456.323 405.508 454.009 405.508 451.768V449.321H406.855V451.709ZM414.15 448.12V461.245H412.817V448.12H414.15ZM411.426 448.369V460.601H410.107V453.892H408.071V452.734H410.107V448.369H411.426ZM427.832 458.447V459.604H415.82V458.447H418.691V455.02C417.615 454.426 416.963 453.481 416.963 452.31C416.963 450.244 418.984 448.882 421.797 448.882C424.624 448.882 426.646 450.244 426.646 452.31C426.646 453.467 426.016 454.397 424.961 454.99V458.447H427.832ZM421.797 449.995C419.731 449.995 418.311 450.889 418.311 452.31C418.311 453.716 419.731 454.639 421.797 454.639C423.848 454.639 425.298 453.716 425.298 452.31C425.298 450.889 423.848 449.995 421.797 449.995ZM420.068 458.447H423.555V455.518C423.02 455.657 422.427 455.723 421.797 455.723C421.182 455.723 420.596 455.657 420.068 455.532V458.447Z" fill="#71717A"/>
<path d="M777.676 447.244V462.994H775.988V447.244H777.676ZM772.982 448.932C772.982 453.537 771.014 457.545 765.617 460.129L764.738 458.775C768.931 456.78 770.97 453.941 771.295 450.268H765.494V448.932H772.982ZM794.533 455.84V457.193H780.119V455.84H786.5V454.346H781.965V450.338H791.053V448.932H781.93V447.613H792.723V451.568H783.617V453.045H793.039V454.346H788.152V455.84H794.533ZM792.811 458.301V462.871H791.123V459.637H781.736V458.301H792.811ZM801.178 451.885C801.178 454.381 802.812 457.158 805.203 458.283L804.254 459.584C802.487 458.731 801.09 456.956 800.387 454.891C799.657 457.149 798.181 459.092 796.379 459.988L795.395 458.67C797.785 457.527 799.525 454.557 799.525 451.885V450.215H795.975V448.826H804.605V450.215H801.178V451.885ZM807.963 447.244V453.484H810.494V454.891H807.963V462.994H806.293V447.244H807.963Z" fill="#18181B"/>
<rect x="834" y="426" width="419" height="58" rx="10" fill="#FAFAFA"/>
<path d="M867.396 448.12V461.245H865.99V448.12H867.396ZM863.485 449.526C863.485 453.364 861.845 456.704 857.348 458.857L856.615 457.729C860.109 456.067 861.808 453.701 862.079 450.64H857.245V449.526H863.485ZM881.444 455.283V456.411H869.433V455.283H874.75V454.038H870.971V450.698H878.544V449.526H870.941V448.428H879.936V451.724H872.348V452.954H880.199V454.038H876.127V455.283H881.444ZM880.009 457.334V461.143H878.603V458.447H870.78V457.334H880.009ZM886.981 451.987C886.981 454.067 888.344 456.382 890.336 457.319L889.545 458.403C888.073 457.693 886.908 456.213 886.322 454.492C885.714 456.375 884.484 457.993 882.982 458.74L882.162 457.642C884.154 456.689 885.604 454.214 885.604 451.987V450.596H882.646V449.438H889.838V450.596H886.981V451.987ZM892.636 448.12V453.32H894.745V454.492H892.636V461.245H891.244V448.12H892.636ZM907.372 454.141V455.21H895.36V454.141H907.372ZM905.893 456.133V459.019H898.188V460.103H906.303V461.084H896.796V458.096H904.516V457.129H896.781V456.133H905.893ZM905.863 448.457V451.299H898.275V452.295H906.083V453.276H896.898V450.376H904.472V449.438H896.869V448.457H905.863ZM922.885 448.12V455.166H921.493V448.12H922.885ZM915.663 455.796V457.275H921.508V455.796H922.885V461.084H914.301V455.796H915.663ZM915.663 459.941H921.508V458.374H915.663V459.941ZM915.766 448.721C917.772 448.721 919.252 449.966 919.252 451.768C919.252 453.569 917.772 454.814 915.766 454.8C913.759 454.814 912.265 453.569 912.265 451.768C912.265 449.966 913.759 448.721 915.766 448.721ZM915.766 449.893C914.521 449.878 913.627 450.654 913.627 451.768C913.627 452.896 914.521 453.657 915.766 453.657C916.996 453.657 917.89 452.896 917.89 451.768C917.89 450.654 916.996 449.878 915.766 449.893ZM931.22 448.911V452.734H926.884V454.551C929.169 454.558 930.414 454.507 931.894 454.229L932.025 455.356C930.429 455.635 929.081 455.679 926.459 455.679H925.507V451.68H929.828V450.024H925.492V448.911H931.22ZM935.907 448.135V456.206H934.516V453.892H932.055V452.778H934.516V451.152H932.055V450.039H934.516V448.135H935.907ZM935.907 456.865V461.26H934.516V457.993H927.001V456.865H935.907ZM944.418 450.288V451.416H937.899V450.288H940.478V448.501H941.854V450.288H944.418ZM941.166 452.207C942.836 452.207 944.008 453.452 944.022 455.225C944.008 457.012 942.836 458.271 941.166 458.271C939.525 458.271 938.31 457.012 938.324 455.225C938.31 453.452 939.525 452.207 941.166 452.207ZM941.166 453.364C940.214 453.364 939.555 454.141 939.555 455.225C939.555 456.338 940.214 457.085 941.166 457.085C942.104 457.085 942.792 456.338 942.792 455.225C942.792 454.141 942.104 453.364 941.166 453.364ZM949.164 448.12V461.245H947.846V454.727H946.337V460.63H945.019V448.413H946.337V453.584H947.846V448.12H949.164ZM962.86 455.518V456.646H957.528V461.23H956.166V456.646H950.893V455.518H962.86ZM961.732 448.896V450.01H957.675C957.697 451.636 959.718 453.086 962.201 453.423L961.688 454.521C959.535 454.185 957.675 453.123 956.884 451.621C956.071 453.123 954.218 454.185 952.094 454.521L951.566 453.423C954.02 453.086 956.042 451.636 956.093 450.01H952.006V448.896H961.732ZM967.855 451.709C967.855 453.804 968.734 456.045 970.492 457.114L969.716 458.184C968.485 457.444 967.65 456.133 967.211 454.609C966.72 456.279 965.819 457.7 964.545 458.477L963.681 457.437C965.541 456.323 966.508 454.009 966.508 451.768V449.321H967.855V451.709ZM975.15 448.12V461.245H973.817V448.12H975.15ZM972.426 448.369V460.601H971.107V453.892H969.071V452.734H971.107V448.369H972.426ZM988.832 458.447V459.604H976.82V458.447H979.691V455.02C978.615 454.426 977.963 453.481 977.963 452.31C977.963 450.244 979.984 448.882 982.797 448.882C985.624 448.882 987.646 450.244 987.646 452.31C987.646 453.467 987.016 454.397 985.961 454.99V458.447H988.832ZM982.797 449.995C980.731 449.995 979.311 450.889 979.311 452.31C979.311 453.716 980.731 454.639 982.797 454.639C984.848 454.639 986.298 453.716 986.298 452.31C986.298 450.889 984.848 449.995 982.797 449.995ZM981.068 458.447H984.555V455.518C984.02 455.657 983.427 455.723 982.797 455.723C982.182 455.723 981.596 455.657 981.068 455.532V458.447Z" fill="#71717A"/>
<path d="M199.605 363.758V379.508H197.936V363.758H199.605ZM186.668 375.219C187.96 375.21 189.445 375.201 190.992 375.148V373.584C189.146 373.347 187.951 372.266 187.969 370.719C187.951 368.943 189.498 367.766 191.783 367.766C194.086 367.766 195.668 368.943 195.668 370.719C195.668 372.248 194.473 373.32 192.645 373.566V375.096C194.104 375.034 195.58 374.92 196.969 374.744L197.092 375.992C193.594 376.572 189.779 376.607 186.896 376.607L186.668 375.219ZM196.617 365.639V366.975H187.002V365.639H190.992V363.793H192.662V365.639H196.617ZM191.783 369.066C190.465 369.066 189.533 369.717 189.551 370.719C189.533 371.721 190.465 372.336 191.783 372.336C193.137 372.336 194.068 371.721 194.068 370.719C194.068 369.717 193.137 369.066 191.783 369.066ZM207.27 364.883C209.766 364.865 211.541 366.412 211.559 368.627C211.541 370.842 209.766 372.389 207.27 372.389C204.791 372.389 202.963 370.842 202.98 368.627C202.963 366.412 204.791 364.865 207.27 364.883ZM207.27 366.324C205.74 366.324 204.615 367.238 204.633 368.627C204.615 370.016 205.74 370.93 207.27 370.93C208.799 370.93 209.924 370.016 209.924 368.627C209.924 367.238 208.799 366.324 207.27 366.324ZM215.162 363.758V379.543H213.492V363.758H215.162ZM202.225 374.762C205.09 374.762 209.062 374.727 212.508 374.234L212.631 375.447C209.062 376.133 205.248 376.15 202.436 376.15L202.225 374.762ZM234.463 363.758V366.922H236.748V368.328H234.463V371.65H232.793V363.758H234.463ZM224.479 364.461V369.594C226.597 369.576 228.829 369.409 231.246 368.926L231.457 370.314C228.803 370.842 226.412 371 224.092 371H222.809V364.461H224.479ZM234.463 372.371V376.379H225.973V377.961H235.008V379.314H224.32V375.096H232.793V373.689H224.285V372.371H234.463ZM250.336 363.758V369.91H252.41V371.316H250.336V379.508H248.666V363.758H250.336ZM241.371 368.223C241.371 369.989 241.582 372.406 242.812 374.111C243.981 372.441 244.219 370.051 244.236 368.223V366.641H243.111V365.287H247.506V366.641H245.818V368.223C245.818 370.648 246.275 373.531 248.244 374.973L247.172 376.186C246.047 375.315 245.388 373.936 245.01 372.371C244.649 373.971 243.981 375.43 242.795 376.326C241.626 375.438 240.958 373.971 240.598 372.389C240.202 373.936 239.543 375.324 238.436 376.186L237.363 374.973C239.314 373.514 239.789 370.578 239.789 368.223V366.641H237.908V365.287H242.479V366.641H241.371V368.223Z" fill="#18181B"/>
<rect x="273" y="342.514" width="415" height="58" rx="10" fill="#FAFAFA"/>
<path d="M295.938 376.514V375.342L299.614 371.636C300.771 370.42 301.357 369.746 301.357 368.823C301.357 367.783 300.508 367.109 299.395 367.109C298.223 367.109 297.461 367.856 297.461 368.984H295.938C295.923 367.051 297.402 365.762 299.424 365.762C301.475 365.762 302.881 367.051 302.896 368.779C302.881 369.966 302.324 370.903 300.332 372.866L298.179 375.049V375.137H303.071V376.514H295.938ZM308.55 376.66C306.089 376.66 304.653 374.683 304.653 371.211C304.653 367.769 306.118 365.762 308.55 365.762C310.981 365.762 312.446 367.769 312.446 371.211C312.446 374.683 310.996 376.66 308.55 376.66ZM308.55 375.269C309.985 375.269 310.835 373.862 310.835 371.211C310.835 368.574 309.971 367.124 308.55 367.124C307.129 367.124 306.265 368.574 306.265 371.211C306.265 373.862 307.114 375.269 308.55 375.269ZM314.116 376.514V375.342L317.793 371.636C318.95 370.42 319.536 369.746 319.536 368.823C319.536 367.783 318.687 367.109 317.573 367.109C316.401 367.109 315.64 367.856 315.64 368.984H314.116C314.102 367.051 315.581 365.762 317.603 365.762C319.653 365.762 321.06 367.051 321.074 368.779C321.06 369.966 320.503 370.903 318.511 372.866L316.357 375.049V375.137H321.25V376.514H314.116ZM326.641 376.66C324.634 376.66 323.125 375.43 323.052 373.745H324.619C324.707 374.653 325.571 375.312 326.641 375.312C327.93 375.312 328.853 374.375 328.853 373.115C328.853 371.826 327.9 370.889 326.567 370.874C325.718 370.874 325.073 371.152 324.707 371.812H323.184L323.872 365.908H329.878V367.285H325.205L324.854 370.259H324.956C325.396 369.834 326.143 369.541 326.948 369.541C328.94 369.541 330.42 371.021 330.42 373.071C330.42 375.166 328.853 376.66 326.641 376.66ZM332.793 376.616C332.222 376.616 331.738 376.147 331.753 375.576C331.738 375.005 332.222 374.536 332.793 374.536C333.35 374.536 333.833 375.005 333.833 375.576C333.833 376.147 333.35 376.616 332.793 376.616ZM339.004 376.66C336.543 376.66 335.107 374.683 335.107 371.211C335.107 367.769 336.572 365.762 339.004 365.762C341.436 365.762 342.9 367.769 342.9 371.211C342.9 374.683 341.45 376.66 339.004 376.66ZM339.004 375.269C340.439 375.269 341.289 373.862 341.289 371.211C341.289 368.574 340.425 367.124 339.004 367.124C337.583 367.124 336.719 368.574 336.719 371.211C336.719 373.862 337.568 375.269 339.004 375.269ZM344.644 376.514L349.375 367.373V367.285H343.911V365.908H351.045V367.344L346.328 376.514H344.644ZM351.88 376.616C351.309 376.616 350.825 376.147 350.84 375.576C350.825 375.005 351.309 374.536 351.88 374.536C352.437 374.536 352.92 375.005 352.92 375.576C352.92 376.147 352.437 376.616 351.88 376.616ZM358.091 376.66C355.63 376.66 354.194 374.683 354.194 371.211C354.194 367.769 355.659 365.762 358.091 365.762C360.522 365.762 361.987 367.769 361.987 371.211C361.987 374.683 360.537 376.66 358.091 376.66ZM358.091 375.269C359.526 375.269 360.376 373.862 360.376 371.211C360.376 368.574 359.512 367.124 358.091 367.124C356.67 367.124 355.806 368.574 355.806 371.211C355.806 373.862 356.655 375.269 358.091 375.269ZM363.73 376.514L368.462 367.373V367.285H362.998V365.908H370.132V367.344L365.415 376.514H363.73Z" fill="#71717A"/>
<g clip-path="url(#clip0_1004_7259)">
<path d="M663 364.764H662.25V363.264H660.75V364.764H653.25V363.264H651.75V364.764H651C650.175 364.764 649.5 365.439 649.5 366.264V378.264C649.5 379.089 650.175 379.764 651 379.764H663C663.825 379.764 664.5 379.089 664.5 378.264V366.264C664.5 365.439 663.825 364.764 663 364.764ZM663 378.264H651V370.014H663V378.264ZM663 368.514H651V366.264H663V368.514Z" fill="#71717A"/>
</g>
<path d="M770.363 367.766C770.346 370.648 772.086 373.531 774.529 374.621L773.527 375.939C771.717 375.078 770.284 373.312 769.555 371.158C768.816 373.461 767.366 375.368 765.477 376.291L764.457 374.885C766.936 373.777 768.676 370.771 768.676 367.766V365.076H770.363V367.766ZM777.623 363.758V379.543H775.953V363.758H777.623ZM792.512 363.758V368.416H794.797V369.805H792.512V375.201H790.824V363.758H792.512ZM788.24 364.953C788.24 369.084 785.428 372.09 780.822 373.479L780.119 372.143C783.802 371.035 786.096 368.943 786.43 366.342H780.787V364.953H788.24ZM793.162 377.82V379.174H782.51V374.023H784.197V377.82H793.162Z" fill="#18181B"/>
<rect x="833" y="342.514" width="421" height="58" rx="10" fill="#FAFAFA"/>
<path d="M860.303 367.974C860.288 370.376 861.738 372.778 863.774 373.687L862.939 374.785C861.431 374.067 860.237 372.595 859.629 370.801C859.014 372.72 857.805 374.309 856.23 375.078L855.381 373.906C857.446 372.983 858.896 370.479 858.896 367.974V365.732H860.303V367.974ZM866.353 364.634V377.788H864.961V364.634H866.353ZM878.76 364.634V368.516H880.664V369.673H878.76V374.17H877.354V364.634H878.76ZM875.2 365.63C875.2 369.072 872.856 371.577 869.019 372.734L868.433 371.621C871.501 370.698 873.413 368.955 873.691 366.787H868.989V365.63H875.2ZM879.302 376.353V377.48H870.425V373.188H871.831V376.353H879.302ZM887.388 364.854C890.347 364.854 892.075 365.645 892.075 367.109C892.075 368.574 890.347 369.38 887.388 369.38C884.429 369.38 882.7 368.574 882.7 367.109C882.7 365.645 884.429 364.854 887.388 364.854ZM887.388 365.879C885.293 365.879 884.136 366.333 884.15 367.109C884.136 367.915 885.293 368.34 887.388 368.34C889.482 368.34 890.64 367.915 890.64 367.109C890.64 366.333 889.482 365.879 887.388 365.879ZM893.379 370.186V371.299H881.411V370.186H893.379ZM891.87 372.31V375.386H884.224V376.558H892.236V377.627H882.861V374.375H890.493V373.35H882.847V372.31H891.87ZM908.921 364.634V371.68H907.529V364.634H908.921ZM901.699 372.31V373.789H907.544V372.31H908.921V377.598H900.337V372.31H901.699ZM901.699 376.455H907.544V374.888H901.699V376.455ZM901.802 365.234C903.809 365.234 905.288 366.479 905.288 368.281C905.288 370.083 903.809 371.328 901.802 371.313C899.795 371.328 898.301 370.083 898.301 368.281C898.301 366.479 899.795 365.234 901.802 365.234ZM901.802 366.406C900.557 366.392 899.663 367.168 899.663 368.281C899.663 369.409 900.557 370.171 901.802 370.171C903.032 370.171 903.926 369.409 903.926 368.281C903.926 367.168 903.032 366.392 901.802 366.406ZM917.256 365.425V369.248H912.92V371.064C915.205 371.072 916.45 371.021 917.93 370.742L918.062 371.87C916.465 372.148 915.117 372.192 912.495 372.192H911.543V368.193H915.864V366.538H911.528V365.425H917.256ZM921.943 364.648V372.72H920.552V370.405H918.091V369.292H920.552V367.666H918.091V366.553H920.552V364.648H921.943ZM921.943 373.379V377.773H920.552V374.507H913.037V373.379H921.943ZM930.454 366.802V367.93H923.936V366.802H926.514V365.015H927.891V366.802H930.454ZM927.202 368.721C928.872 368.721 930.044 369.966 930.059 371.738C930.044 373.525 928.872 374.785 927.202 374.785C925.562 374.785 924.346 373.525 924.36 371.738C924.346 369.966 925.562 368.721 927.202 368.721ZM927.202 369.878C926.25 369.878 925.591 370.654 925.591 371.738C925.591 372.852 926.25 373.599 927.202 373.599C928.14 373.599 928.828 372.852 928.828 371.738C928.828 370.654 928.14 369.878 927.202 369.878ZM935.2 364.634V377.759H933.882V371.24H932.373V377.144H931.055V364.927H932.373V370.098H933.882V364.634H935.2ZM948.896 372.031V373.159H943.564V377.744H942.202V373.159H936.929V372.031H948.896ZM947.769 365.41V366.523H943.711C943.733 368.149 945.754 369.6 948.237 369.937L947.725 371.035C945.571 370.698 943.711 369.636 942.92 368.135C942.107 369.636 940.254 370.698 938.13 371.035L937.603 369.937C940.056 369.6 942.078 368.149 942.129 366.523H938.042V365.41H947.769ZM953.892 368.223C953.892 370.317 954.771 372.559 956.528 373.628L955.752 374.697C954.521 373.958 953.687 372.646 953.247 371.123C952.756 372.793 951.855 374.214 950.581 374.99L949.717 373.95C951.577 372.837 952.544 370.522 952.544 368.281V365.835H953.892V368.223ZM961.187 364.634V377.759H959.854V364.634H961.187ZM958.462 364.883V377.114H957.144V370.405H955.107V369.248H957.144V364.883H958.462ZM974.868 374.961V376.118H962.856V374.961H965.728V371.533C964.651 370.94 963.999 369.995 963.999 368.823C963.999 366.758 966.021 365.396 968.833 365.396C971.66 365.396 973.682 366.758 973.682 368.823C973.682 369.98 973.052 370.911 971.997 371.504V374.961H974.868ZM968.833 366.509C966.768 366.509 965.347 367.402 965.347 368.823C965.347 370.229 966.768 371.152 968.833 371.152C970.884 371.152 972.334 370.229 972.334 368.823C972.334 367.402 970.884 366.509 968.833 366.509ZM967.104 374.961H970.591V372.031C970.056 372.17 969.463 372.236 968.833 372.236C968.218 372.236 967.632 372.17 967.104 372.046V374.961Z" fill="#71717A"/>
<g clip-path="url(#clip1_1004_7259)">
<path d="M1217.99 363.181C1213.39 363.181 1209.67 366.914 1209.67 371.514C1209.67 376.114 1213.39 379.847 1217.99 379.847C1222.6 379.847 1226.33 376.114 1226.33 371.514C1226.33 366.914 1222.6 363.181 1217.99 363.181ZM1218 378.181C1214.32 378.181 1211.33 375.197 1211.33 371.514C1211.33 367.831 1214.32 364.847 1218 364.847C1221.68 364.847 1224.67 367.831 1224.67 371.514C1224.67 375.197 1221.68 378.181 1218 378.181ZM1218.42 367.347H1217.17V372.347L1221.54 374.972L1222.17 373.947L1218.42 371.722V367.347Z" fill="#71717A"/>
</g>
<path d="M201.469 202.023V219.797H198.988V202.023H201.469ZM186.605 214.777C187.963 214.768 189.516 214.768 191.137 214.719V213.215C189.184 212.873 187.914 211.662 187.934 209.992C187.914 208 189.73 206.652 192.348 206.652C194.984 206.652 196.82 208 196.82 209.992C196.82 211.652 195.551 212.863 193.598 213.215V214.641C195.082 214.572 196.586 214.455 198.012 214.27L198.188 216.105C194.301 216.77 190.102 216.809 186.938 216.809L186.605 214.777ZM197.758 203.996V205.949H186.957V203.996H191.137V202.102H193.617V203.996H197.758ZM192.348 208.547C191.137 208.547 190.277 209.074 190.297 209.992C190.277 210.93 191.137 211.438 192.348 211.438C193.598 211.438 194.438 210.93 194.438 209.992C194.438 209.074 193.598 208.547 192.348 208.547ZM209.504 203.215C212.317 203.195 214.426 205.031 214.426 207.57C214.426 210.129 212.317 211.945 209.504 211.945C206.692 211.945 204.563 210.129 204.563 207.57C204.563 205.031 206.692 203.195 209.504 203.215ZM209.504 205.363C208.098 205.363 207.024 206.184 207.043 207.57C207.024 208.977 208.098 209.777 209.504 209.777C210.91 209.777 211.985 208.977 212.004 207.57C211.985 206.184 210.93 205.363 209.504 205.363ZM218.684 202.023V219.836H216.203V202.023H218.684ZM203.821 214.172C206.985 214.191 211.379 214.133 215.188 213.605L215.383 215.402C211.438 216.164 207.219 216.203 204.114 216.203L203.821 214.172ZM239.657 202.727V208.977H234.833V210.676H241.708V212.688H225.497V210.676H232.333V208.977H227.509V202.727H239.657ZM229.95 204.66V207.023H237.216V204.66H229.95ZM239.735 213.996V219.797H237.255V215.949H227.294V213.996H239.735ZM258.982 215.832V217.824H242.712V215.832H246.755V212.453H244.06V210.441H246.443V205.441H243.982V203.449H257.615V205.441H255.115V210.441H257.536V212.453H254.861V215.832H258.982ZM248.943 210.441H252.654V205.441H248.943V210.441ZM249.255 215.832H252.361V212.453H249.255V215.832Z" fill="black"/>
<path d="M261 230.5H262.5V227.5H261V230.5ZM186 229V230.5H261V229V227.5H186V229Z" fill="#3B82F6"/>
<path d="M203.016 655.426V674.977H200.287V655.426H203.016ZM186.666 669.455C188.159 669.444 189.867 669.444 191.65 669.391V667.736C189.502 667.36 188.105 666.028 188.127 664.191C188.105 662 190.104 660.518 192.982 660.518C195.883 660.518 197.902 662 197.902 664.191C197.902 666.018 196.506 667.35 194.357 667.736V669.305C195.99 669.229 197.645 669.101 199.213 668.896L199.406 670.916C195.131 671.646 190.512 671.689 187.031 671.689L186.666 669.455ZM198.934 657.596V659.744H187.053V657.596H191.65V655.512H194.379V657.596H198.934ZM192.982 662.602C191.65 662.602 190.705 663.182 190.727 664.191C190.705 665.223 191.65 665.781 192.982 665.781C194.357 665.781 195.281 665.223 195.281 664.191C195.281 663.182 194.357 662.602 192.982 662.602ZM211.855 656.736C214.948 656.715 217.269 658.734 217.269 661.527C217.269 664.342 214.948 666.34 211.855 666.34C208.761 666.34 206.419 664.342 206.419 661.527C206.419 658.734 208.761 656.715 211.855 656.736ZM211.855 659.1C210.308 659.1 209.126 660.002 209.148 661.527C209.126 663.074 210.308 663.955 211.855 663.955C213.402 663.955 214.583 663.074 214.605 661.527C214.583 660.002 213.423 659.1 211.855 659.1ZM221.952 655.426V675.02H219.224V655.426H221.952ZM205.603 668.789C209.083 668.811 213.917 668.746 218.107 668.166L218.321 670.143C213.982 670.98 209.341 671.023 205.925 671.023L205.603 668.789ZM244.958 655.426V661.033H247.601V663.311H244.958V669.67H242.208V655.426H244.958ZM245.667 672.441V674.633H232.283V668.166H235.011V672.441H245.667ZM234.947 656.693C237.933 656.693 240.275 658.756 240.275 661.656C240.275 664.514 237.933 666.619 234.947 666.619C231.939 666.619 229.576 664.514 229.576 661.656C229.576 658.756 231.939 656.693 234.947 656.693ZM234.947 659.078C233.464 659.057 232.261 660.023 232.283 661.656C232.261 663.246 233.464 664.234 234.947 664.234C236.451 664.234 237.589 663.246 237.611 661.656C237.589 660.023 236.451 659.057 234.947 659.078ZM264.862 655.447V669.734H262.133V663.354H258.631V661.098H262.133V655.447H264.862ZM258.803 656.887C258.803 662.129 255.473 665.996 249.758 667.779L248.641 665.609C252.691 664.342 255.301 662.011 255.817 659.121H249.651V656.887H258.803ZM265.356 672.441V674.633H251.971V668.295H254.764V672.441H265.356Z" fill="#3F3F46"/>
<line x1="186" y1="682.5" x2="269" y2="682.5" stroke="#3B82F6" stroke-width="3"/>
<circle cx="719.5" cy="815.014" r="22.5" fill="#EFF6FF"/>
<path d="M720.078 808.668L720.078 822.514" stroke="#3B82F6" stroke-width="1.73077" stroke-linecap="round"/>
<path d="M727 815.59L713.154 815.59" stroke="#3B82F6" stroke-width="1.73077" stroke-linecap="round"/>
<mask id="path-43-outside-1_1004_7259" maskUnits="userSpaceOnUse" x="181.343" y="38.1719" width="164" height="22" fill="black">
<rect fill="white" x="181.343" y="38.1719" width="164" height="22"/>
<path d="M193.663 39.4656L200.205 58.4487H196.253L194.918 54.4172H187.683L186.321 58.4487H182.343L189.071 39.4656H193.663ZM188.51 51.6671H194.037L191.26 42.9098L188.51 51.6671Z"/>
<path d="M212.712 54.7108L213.62 57.4075C213.104 57.8347 212.436 58.1729 211.617 58.422C210.798 58.6712 209.846 58.7958 208.76 58.7958C206.536 58.7958 204.818 58.2708 203.607 57.2206C202.415 56.1526 201.819 54.5507 201.819 52.4147V51.2666C201.819 49.9495 202.014 48.8726 202.406 48.036C202.815 47.1995 203.349 46.5409 204.008 46.0603C204.649 45.5797 205.387 45.2504 206.224 45.0724C207.061 44.8944 207.915 44.8054 208.787 44.8054C210.015 44.8054 210.976 44.9389 211.671 45.2059C212.365 45.4729 212.979 45.7844 213.513 46.1404L212.632 48.8637C212.027 48.5611 211.404 48.3297 210.763 48.1695C210.14 48.0093 209.481 47.9292 208.787 47.9292C207.612 47.9292 206.802 48.2941 206.358 49.0239C205.93 49.7359 205.717 50.6793 205.717 51.854C205.717 53.189 205.966 54.168 206.464 54.7909C206.963 55.3961 207.728 55.6987 208.76 55.6987C209.383 55.6987 210.024 55.6364 210.683 55.5118C211.341 55.3694 212.018 55.1024 212.712 54.7108Z"/>
<path d="M224.576 48.1161H221.585V54.8443C221.585 55.1825 221.656 55.4139 221.799 55.5385C221.941 55.6631 222.137 55.7254 222.386 55.7254C222.618 55.7254 222.876 55.6809 223.161 55.5919C223.463 55.5029 223.775 55.3694 224.095 55.1914L225.003 57.4609C224.647 57.8169 224.113 58.1284 223.401 58.3953C222.707 58.6623 221.995 58.7958 221.265 58.7958C219.948 58.7958 219.031 58.4843 218.515 57.8614C217.999 57.2206 217.741 56.3395 217.741 55.2181V48.1161H215.631V45.0724H217.741V40.7204L221.585 39.9729V45.0724H224.576V48.1161Z"/>
<path d="M233.451 55.7254C233.682 55.7254 233.94 55.6809 234.225 55.5919C234.51 55.5029 234.812 55.3694 235.133 55.1914L236.04 57.4609C235.684 57.8169 235.159 58.1284 234.465 58.3953C233.771 58.6623 233.059 58.7958 232.329 58.7958C231.012 58.7958 230.095 58.4843 229.579 57.8614C229.063 57.2206 228.805 56.3395 228.805 55.2181V48.2229H227.417V45.2593H232.703V54.8443C232.703 55.1825 232.765 55.4139 232.89 55.5385C233.014 55.6631 233.201 55.7254 233.451 55.7254ZM232.703 42.9899H228.538V39.1719H232.703V42.9899Z"/>
<path d="M244.345 44.8054C246.374 44.8054 247.994 45.3661 249.204 46.4875C250.415 47.6088 251.02 49.371 251.02 51.7739C251.02 54.0701 250.441 55.8144 249.285 57.007C248.145 58.1996 246.499 58.7958 244.345 58.7958C242.174 58.7958 240.509 58.1996 239.352 57.007C238.213 55.8144 237.644 54.0701 237.644 51.7739C237.644 49.371 238.249 47.6088 239.459 46.4875C240.687 45.3661 242.316 44.8054 244.345 44.8054ZM241.595 51.7739C241.595 53.0555 241.791 54.0345 242.183 54.7108C242.592 55.3694 243.313 55.6987 244.345 55.6987C245.36 55.6987 246.072 55.3694 246.481 54.7108C246.89 54.0345 247.095 53.0555 247.095 51.7739C247.095 50.439 246.89 49.4689 246.481 48.8637C246.089 48.2407 245.386 47.9292 244.372 47.9292C243.322 47.9292 242.592 48.2407 242.183 48.8637C241.791 49.4689 241.595 50.439 241.595 51.7739Z"/>
<path d="M266.388 58.4487H262.49V49.5579C262.49 48.9883 262.383 48.57 262.169 48.303C261.973 48.0182 261.644 47.8758 261.181 47.8758C260.612 47.8758 260.007 48.036 259.366 48.3564C258.725 48.659 258.218 49.0061 257.844 49.3977V58.4487H253.946V45.2593H257.524L257.737 46.1938C258.218 45.82 258.769 45.4996 259.392 45.2326C260.015 44.9478 260.781 44.8054 261.689 44.8054C263.255 44.8054 264.43 45.1436 265.213 45.82C265.996 46.4964 266.388 47.5198 266.388 48.8904V58.4487Z"/>
<path d="M277.053 43.1501C277.053 41.7795 277.356 40.8272 277.961 40.2932C278.584 39.7415 279.581 39.4656 280.951 39.4656H284.289C286.905 39.4656 288.73 39.9907 289.762 41.0408C290.812 42.0732 291.337 43.604 291.337 45.6331C291.337 47.947 290.759 49.5579 289.602 50.4657C288.445 51.3734 286.665 51.8273 284.262 51.8273H281.005V58.4487H277.053V43.1501ZM283.942 42.5093H282.286C281.77 42.5093 281.423 42.6161 281.245 42.8297C281.085 43.0255 281.005 43.3281 281.005 43.7375V48.7569H283.888C285.027 48.7569 285.882 48.5166 286.451 48.036C287.021 47.5554 287.306 46.7545 287.306 45.6331C287.306 44.4939 287.021 43.693 286.451 43.2302C285.9 42.7496 285.063 42.5093 283.942 42.5093Z"/>
<path d="M300.429 44.8054C302.458 44.8054 304.078 45.3661 305.289 46.4875C306.499 47.6088 307.104 49.371 307.104 51.7739C307.104 54.0701 306.526 55.8144 305.369 57.007C304.229 58.1996 302.583 58.7958 300.429 58.7958C298.258 58.7958 296.593 58.1996 295.436 57.007C294.297 55.8144 293.728 54.0701 293.728 51.7739C293.728 49.371 294.333 47.6088 295.543 46.4875C296.771 45.3661 298.4 44.8054 300.429 44.8054ZM297.679 51.7739C297.679 53.0555 297.875 54.0345 298.267 54.7108C298.676 55.3694 299.397 55.6987 300.429 55.6987C301.444 55.6987 302.156 55.3694 302.565 54.7108C302.975 54.0345 303.179 53.0555 303.179 51.7739C303.179 50.439 302.975 49.4689 302.565 48.8637C302.174 48.2407 301.471 47.9292 300.456 47.9292C299.406 47.9292 298.676 48.2407 298.267 48.8637C297.875 49.4689 297.679 50.439 297.679 51.7739Z"/>
<path d="M315.53 55.7254C315.761 55.7254 316.019 55.6809 316.304 55.5919C316.589 55.5029 316.892 55.3694 317.212 55.1914L318.12 57.4609C317.764 57.8169 317.239 58.1284 316.545 58.3953C315.85 58.6623 315.138 58.7958 314.409 58.7958C313.091 58.7958 312.175 58.4843 311.659 57.8614C311.142 57.2206 310.884 56.3395 310.884 55.2181V48.2229H309.496V45.2593H314.782V54.8443C314.782 55.1825 314.845 55.4139 314.969 55.5385C315.094 55.6631 315.281 55.7254 315.53 55.7254ZM314.782 42.9899H310.617V39.1719H314.782V42.9899Z"/>
<path d="M332.432 58.4487H328.534V49.5579C328.534 48.9883 328.427 48.57 328.213 48.303C328.018 48.0182 327.688 47.8758 327.225 47.8758C326.656 47.8758 326.051 48.036 325.41 48.3564C324.769 48.659 324.262 49.0061 323.888 49.3977V58.4487H319.99V45.2593H323.568L323.781 46.1938C324.262 45.82 324.814 45.4996 325.437 45.2326C326.06 44.9478 326.825 44.8054 327.733 44.8054C329.299 44.8054 330.474 45.1436 331.257 45.82C332.04 46.4964 332.432 47.5198 332.432 48.8904V58.4487Z"/>
<path d="M344.044 48.1161H341.054V54.8443C341.054 55.1825 341.125 55.4139 341.268 55.5385C341.41 55.6631 341.606 55.7254 341.855 55.7254C342.086 55.7254 342.345 55.6809 342.629 55.5919C342.932 55.5029 343.243 55.3694 343.564 55.1914L344.472 57.4609C344.116 57.8169 343.582 58.1284 342.87 58.3953C342.175 58.6623 341.463 58.7958 340.734 58.7958C339.416 58.7958 338.5 58.4843 337.984 57.8614C337.467 57.2206 337.209 56.3395 337.209 55.2181V48.1161H335.1V45.0724H337.209V40.7204L341.054 39.9729V45.0724H344.044V48.1161Z"/>
</mask>
<path d="M193.663 39.4656L200.205 58.4487H196.253L194.918 54.4172H187.683L186.321 58.4487H182.343L189.071 39.4656H193.663ZM188.51 51.6671H194.037L191.26 42.9098L188.51 51.6671Z" fill="#18181B"/>
<path d="M212.712 54.7108L213.62 57.4075C213.104 57.8347 212.436 58.1729 211.617 58.422C210.798 58.6712 209.846 58.7958 208.76 58.7958C206.536 58.7958 204.818 58.2708 203.607 57.2206C202.415 56.1526 201.819 54.5507 201.819 52.4147V51.2666C201.819 49.9495 202.014 48.8726 202.406 48.036C202.815 47.1995 203.349 46.5409 204.008 46.0603C204.649 45.5797 205.387 45.2504 206.224 45.0724C207.061 44.8944 207.915 44.8054 208.787 44.8054C210.015 44.8054 210.976 44.9389 211.671 45.2059C212.365 45.4729 212.979 45.7844 213.513 46.1404L212.632 48.8637C212.027 48.5611 211.404 48.3297 210.763 48.1695C210.14 48.0093 209.481 47.9292 208.787 47.9292C207.612 47.9292 206.802 48.2941 206.358 49.0239C205.93 49.7359 205.717 50.6793 205.717 51.854C205.717 53.189 205.966 54.168 206.464 54.7909C206.963 55.3961 207.728 55.6987 208.76 55.6987C209.383 55.6987 210.024 55.6364 210.683 55.5118C211.341 55.3694 212.018 55.1024 212.712 54.7108Z" fill="#18181B"/>
<path d="M224.576 48.1161H221.585V54.8443C221.585 55.1825 221.656 55.4139 221.799 55.5385C221.941 55.6631 222.137 55.7254 222.386 55.7254C222.618 55.7254 222.876 55.6809 223.161 55.5919C223.463 55.5029 223.775 55.3694 224.095 55.1914L225.003 57.4609C224.647 57.8169 224.113 58.1284 223.401 58.3953C222.707 58.6623 221.995 58.7958 221.265 58.7958C219.948 58.7958 219.031 58.4843 218.515 57.8614C217.999 57.2206 217.741 56.3395 217.741 55.2181V48.1161H215.631V45.0724H217.741V40.7204L221.585 39.9729V45.0724H224.576V48.1161Z" fill="#18181B"/>
<path d="M233.451 55.7254C233.682 55.7254 233.94 55.6809 234.225 55.5919C234.51 55.5029 234.812 55.3694 235.133 55.1914L236.04 57.4609C235.684 57.8169 235.159 58.1284 234.465 58.3953C233.771 58.6623 233.059 58.7958 232.329 58.7958C231.012 58.7958 230.095 58.4843 229.579 57.8614C229.063 57.2206 228.805 56.3395 228.805 55.2181V48.2229H227.417V45.2593H232.703V54.8443C232.703 55.1825 232.765 55.4139 232.89 55.5385C233.014 55.6631 233.201 55.7254 233.451 55.7254ZM232.703 42.9899H228.538V39.1719H232.703V42.9899Z" fill="#18181B"/>
<path d="M244.345 44.8054C246.374 44.8054 247.994 45.3661 249.204 46.4875C250.415 47.6088 251.02 49.371 251.02 51.7739C251.02 54.0701 250.441 55.8144 249.285 57.007C248.145 58.1996 246.499 58.7958 244.345 58.7958C242.174 58.7958 240.509 58.1996 239.352 57.007C238.213 55.8144 237.644 54.0701 237.644 51.7739C237.644 49.371 238.249 47.6088 239.459 46.4875C240.687 45.3661 242.316 44.8054 244.345 44.8054ZM241.595 51.7739C241.595 53.0555 241.791 54.0345 242.183 54.7108C242.592 55.3694 243.313 55.6987 244.345 55.6987C245.36 55.6987 246.072 55.3694 246.481 54.7108C246.89 54.0345 247.095 53.0555 247.095 51.7739C247.095 50.439 246.89 49.4689 246.481 48.8637C246.089 48.2407 245.386 47.9292 244.372 47.9292C243.322 47.9292 242.592 48.2407 242.183 48.8637C241.791 49.4689 241.595 50.439 241.595 51.7739Z" fill="#18181B"/>
<path d="M266.388 58.4487H262.49V49.5579C262.49 48.9883 262.383 48.57 262.169 48.303C261.973 48.0182 261.644 47.8758 261.181 47.8758C260.612 47.8758 260.007 48.036 259.366 48.3564C258.725 48.659 258.218 49.0061 257.844 49.3977V58.4487H253.946V45.2593H257.524L257.737 46.1938C258.218 45.82 258.769 45.4996 259.392 45.2326C260.015 44.9478 260.781 44.8054 261.689 44.8054C263.255 44.8054 264.43 45.1436 265.213 45.82C265.996 46.4964 266.388 47.5198 266.388 48.8904V58.4487Z" fill="#18181B"/>
<path d="M277.053 43.1501C277.053 41.7795 277.356 40.8272 277.961 40.2932C278.584 39.7415 279.581 39.4656 280.951 39.4656H284.289C286.905 39.4656 288.73 39.9907 289.762 41.0408C290.812 42.0732 291.337 43.604 291.337 45.6331C291.337 47.947 290.759 49.5579 289.602 50.4657C288.445 51.3734 286.665 51.8273 284.262 51.8273H281.005V58.4487H277.053V43.1501ZM283.942 42.5093H282.286C281.77 42.5093 281.423 42.6161 281.245 42.8297C281.085 43.0255 281.005 43.3281 281.005 43.7375V48.7569H283.888C285.027 48.7569 285.882 48.5166 286.451 48.036C287.021 47.5554 287.306 46.7545 287.306 45.6331C287.306 44.4939 287.021 43.693 286.451 43.2302C285.9 42.7496 285.063 42.5093 283.942 42.5093Z" fill="#18181B"/>
<path d="M300.429 44.8054C302.458 44.8054 304.078 45.3661 305.289 46.4875C306.499 47.6088 307.104 49.371 307.104 51.7739C307.104 54.0701 306.526 55.8144 305.369 57.007C304.229 58.1996 302.583 58.7958 300.429 58.7958C298.258 58.7958 296.593 58.1996 295.436 57.007C294.297 55.8144 293.728 54.0701 293.728 51.7739C293.728 49.371 294.333 47.6088 295.543 46.4875C296.771 45.3661 298.4 44.8054 300.429 44.8054ZM297.679 51.7739C297.679 53.0555 297.875 54.0345 298.267 54.7108C298.676 55.3694 299.397 55.6987 300.429 55.6987C301.444 55.6987 302.156 55.3694 302.565 54.7108C302.975 54.0345 303.179 53.0555 303.179 51.7739C303.179 50.439 302.975 49.4689 302.565 48.8637C302.174 48.2407 301.471 47.9292 300.456 47.9292C299.406 47.9292 298.676 48.2407 298.267 48.8637C297.875 49.4689 297.679 50.439 297.679 51.7739Z" fill="#18181B"/>
<path d="M315.53 55.7254C315.761 55.7254 316.019 55.6809 316.304 55.5919C316.589 55.5029 316.892 55.3694 317.212 55.1914L318.12 57.4609C317.764 57.8169 317.239 58.1284 316.545 58.3953C315.85 58.6623 315.138 58.7958 314.409 58.7958C313.091 58.7958 312.175 58.4843 311.659 57.8614C311.142 57.2206 310.884 56.3395 310.884 55.2181V48.2229H309.496V45.2593H314.782V54.8443C314.782 55.1825 314.845 55.4139 314.969 55.5385C315.094 55.6631 315.281 55.7254 315.53 55.7254ZM314.782 42.9899H310.617V39.1719H314.782V42.9899Z" fill="#18181B"/>
<path d="M332.432 58.4487H328.534V49.5579C328.534 48.9883 328.427 48.57 328.213 48.303C328.018 48.0182 327.688 47.8758 327.225 47.8758C326.656 47.8758 326.051 48.036 325.41 48.3564C324.769 48.659 324.262 49.0061 323.888 49.3977V58.4487H319.99V45.2593H323.568L323.781 46.1938C324.262 45.82 324.814 45.4996 325.437 45.2326C326.06 44.9478 326.825 44.8054 327.733 44.8054C329.299 44.8054 330.474 45.1436 331.257 45.82C332.04 46.4964 332.432 47.5198 332.432 48.8904V58.4487Z" fill="#18181B"/>
<path d="M344.044 48.1161H341.054V54.8443C341.054 55.1825 341.125 55.4139 341.268 55.5385C341.41 55.6631 341.606 55.7254 341.855 55.7254C342.086 55.7254 342.345 55.6809 342.629 55.5919C342.932 55.5029 343.243 55.3694 343.564 55.1914L344.472 57.4609C344.116 57.8169 343.582 58.1284 342.87 58.3953C342.175 58.6623 341.463 58.7958 340.734 58.7958C339.416 58.7958 338.5 58.4843 337.984 57.8614C337.467 57.2206 337.209 56.3395 337.209 55.2181V48.1161H335.1V45.0724H337.209V40.7204L341.054 39.9729V45.0724H344.044V48.1161Z" fill="#18181B"/>
<path d="M193.663 39.4656L200.205 58.4487H196.253L194.918 54.4172H187.683L186.321 58.4487H182.343L189.071 39.4656H193.663ZM188.51 51.6671H194.037L191.26 42.9098L188.51 51.6671Z" stroke="#18181B" stroke-width="0.821516" mask="url(#path-43-outside-1_1004_7259)"/>
<path d="M212.712 54.7108L213.62 57.4075C213.104 57.8347 212.436 58.1729 211.617 58.422C210.798 58.6712 209.846 58.7958 208.76 58.7958C206.536 58.7958 204.818 58.2708 203.607 57.2206C202.415 56.1526 201.819 54.5507 201.819 52.4147V51.2666C201.819 49.9495 202.014 48.8726 202.406 48.036C202.815 47.1995 203.349 46.5409 204.008 46.0603C204.649 45.5797 205.387 45.2504 206.224 45.0724C207.061 44.8944 207.915 44.8054 208.787 44.8054C210.015 44.8054 210.976 44.9389 211.671 45.2059C212.365 45.4729 212.979 45.7844 213.513 46.1404L212.632 48.8637C212.027 48.5611 211.404 48.3297 210.763 48.1695C210.14 48.0093 209.481 47.9292 208.787 47.9292C207.612 47.9292 206.802 48.2941 206.358 49.0239C205.93 49.7359 205.717 50.6793 205.717 51.854C205.717 53.189 205.966 54.168 206.464 54.7909C206.963 55.3961 207.728 55.6987 208.76 55.6987C209.383 55.6987 210.024 55.6364 210.683 55.5118C211.341 55.3694 212.018 55.1024 212.712 54.7108Z" stroke="#18181B" stroke-width="0.821516" mask="url(#path-43-outside-1_1004_7259)"/>
<path d="M224.576 48.1161H221.585V54.8443C221.585 55.1825 221.656 55.4139 221.799 55.5385C221.941 55.6631 222.137 55.7254 222.386 55.7254C222.618 55.7254 222.876 55.6809 223.161 55.5919C223.463 55.5029 223.775 55.3694 224.095 55.1914L225.003 57.4609C224.647 57.8169 224.113 58.1284 223.401 58.3953C222.707 58.6623 221.995 58.7958 221.265 58.7958C219.948 58.7958 219.031 58.4843 218.515 57.8614C217.999 57.2206 217.741 56.3395 217.741 55.2181V48.1161H215.631V45.0724H217.741V40.7204L221.585 39.9729V45.0724H224.576V48.1161Z" stroke="#18181B" stroke-width="0.821516" mask="url(#path-43-outside-1_1004_7259)"/>
<path d="M233.451 55.7254C233.682 55.7254 233.94 55.6809 234.225 55.5919C234.51 55.5029 234.812 55.3694 235.133 55.1914L236.04 57.4609C235.684 57.8169 235.159 58.1284 234.465 58.3953C233.771 58.6623 233.059 58.7958 232.329 58.7958C231.012 58.7958 230.095 58.4843 229.579 57.8614C229.063 57.2206 228.805 56.3395 228.805 55.2181V48.2229H227.417V45.2593H232.703V54.8443C232.703 55.1825 232.765 55.4139 232.89 55.5385C233.014 55.6631 233.201 55.7254 233.451 55.7254ZM232.703 42.9899H228.538V39.1719H232.703V42.9899Z" stroke="#18181B" stroke-width="0.821516" mask="url(#path-43-outside-1_1004_7259)"/>
<path d="M244.345 44.8054C246.374 44.8054 247.994 45.3661 249.204 46.4875C250.415 47.6088 251.02 49.371 251.02 51.7739C251.02 54.0701 250.441 55.8144 249.285 57.007C248.145 58.1996 246.499 58.7958 244.345 58.7958C242.174 58.7958 240.509 58.1996 239.352 57.007C238.213 55.8144 237.644 54.0701 237.644 51.7739C237.644 49.371 238.249 47.6088 239.459 46.4875C240.687 45.3661 242.316 44.8054 244.345 44.8054ZM241.595 51.7739C241.595 53.0555 241.791 54.0345 242.183 54.7108C242.592 55.3694 243.313 55.6987 244.345 55.6987C245.36 55.6987 246.072 55.3694 246.481 54.7108C246.89 54.0345 247.095 53.0555 247.095 51.7739C247.095 50.439 246.89 49.4689 246.481 48.8637C246.089 48.2407 245.386 47.9292 244.372 47.9292C243.322 47.9292 242.592 48.2407 242.183 48.8637C241.791 49.4689 241.595 50.439 241.595 51.7739Z" stroke="#18181B" stroke-width="0.821516" mask="url(#path-43-outside-1_1004_7259)"/>
<path d="M266.388 58.4487H262.49V49.5579C262.49 48.9883 262.383 48.57 262.169 48.303C261.973 48.0182 261.644 47.8758 261.181 47.8758C260.612 47.8758 260.007 48.036 259.366 48.3564C258.725 48.659 258.218 49.0061 257.844 49.3977V58.4487H253.946V45.2593H257.524L257.737 46.1938C258.218 45.82 258.769 45.4996 259.392 45.2326C260.015 44.9478 260.781 44.8054 261.689 44.8054C263.255 44.8054 264.43 45.1436 265.213 45.82C265.996 46.4964 266.388 47.5198 266.388 48.8904V58.4487Z" stroke="#18181B" stroke-width="0.821516" mask="url(#path-43-outside-1_1004_7259)"/>
<path d="M277.053 43.1501C277.053 41.7795 277.356 40.8272 277.961 40.2932C278.584 39.7415 279.581 39.4656 280.951 39.4656H284.289C286.905 39.4656 288.73 39.9907 289.762 41.0408C290.812 42.0732 291.337 43.604 291.337 45.6331C291.337 47.947 290.759 49.5579 289.602 50.4657C288.445 51.3734 286.665 51.8273 284.262 51.8273H281.005V58.4487H277.053V43.1501ZM283.942 42.5093H282.286C281.77 42.5093 281.423 42.6161 281.245 42.8297C281.085 43.0255 281.005 43.3281 281.005 43.7375V48.7569H283.888C285.027 48.7569 285.882 48.5166 286.451 48.036C287.021 47.5554 287.306 46.7545 287.306 45.6331C287.306 44.4939 287.021 43.693 286.451 43.2302C285.9 42.7496 285.063 42.5093 283.942 42.5093Z" stroke="#18181B" stroke-width="0.821516" mask="url(#path-43-outside-1_1004_7259)"/>
<path d="M300.429 44.8054C302.458 44.8054 304.078 45.3661 305.289 46.4875C306.499 47.6088 307.104 49.371 307.104 51.7739C307.104 54.0701 306.526 55.8144 305.369 57.007C304.229 58.1996 302.583 58.7958 300.429 58.7958C298.258 58.7958 296.593 58.1996 295.436 57.007C294.297 55.8144 293.728 54.0701 293.728 51.7739C293.728 49.371 294.333 47.6088 295.543 46.4875C296.771 45.3661 298.4 44.8054 300.429 44.8054ZM297.679 51.7739C297.679 53.0555 297.875 54.0345 298.267 54.7108C298.676 55.3694 299.397 55.6987 300.429 55.6987C301.444 55.6987 302.156 55.3694 302.565 54.7108C302.975 54.0345 303.179 53.0555 303.179 51.7739C303.179 50.439 302.975 49.4689 302.565 48.8637C302.174 48.2407 301.471 47.9292 300.456 47.9292C299.406 47.9292 298.676 48.2407 298.267 48.8637C297.875 49.4689 297.679 50.439 297.679 51.7739Z" stroke="#18181B" stroke-width="0.821516" mask="url(#path-43-outside-1_1004_7259)"/>
<path d="M315.53 55.7254C315.761 55.7254 316.019 55.6809 316.304 55.5919C316.589 55.5029 316.892 55.3694 317.212 55.1914L318.12 57.4609C317.764 57.8169 317.239 58.1284 316.545 58.3953C315.85 58.6623 315.138 58.7958 314.409 58.7958C313.091 58.7958 312.175 58.4843 311.659 57.8614C311.142 57.2206 310.884 56.3395 310.884 55.2181V48.2229H309.496V45.2593H314.782V54.8443C314.782 55.1825 314.845 55.4139 314.969 55.5385C315.094 55.6631 315.281 55.7254 315.53 55.7254ZM314.782 42.9899H310.617V39.1719H314.782V42.9899Z" stroke="#18181B" stroke-width="0.821516" mask="url(#path-43-outside-1_1004_7259)"/>
<path d="M332.432 58.4487H328.534V49.5579C328.534 48.9883 328.427 48.57 328.213 48.303C328.018 48.0182 327.688 47.8758 327.225 47.8758C326.656 47.8758 326.051 48.036 325.41 48.3564C324.769 48.659 324.262 49.0061 323.888 49.3977V58.4487H319.99V45.2593H323.568L323.781 46.1938C324.262 45.82 324.814 45.4996 325.437 45.2326C326.06 44.9478 326.825 44.8054 327.733 44.8054C329.299 44.8054 330.474 45.1436 331.257 45.82C332.04 46.4964 332.432 47.5198 332.432 48.8904V58.4487Z" stroke="#18181B" stroke-width="0.821516" mask="url(#path-43-outside-1_1004_7259)"/>
<path d="M344.044 48.1161H341.054V54.8443C341.054 55.1825 341.125 55.4139 341.268 55.5385C341.41 55.6631 341.606 55.7254 341.855 55.7254C342.086 55.7254 342.345 55.6809 342.629 55.5919C342.932 55.5029 343.243 55.3694 343.564 55.1914L344.472 57.4609C344.116 57.8169 343.582 58.1284 342.87 58.3953C342.175 58.6623 341.463 58.7958 340.734 58.7958C339.416 58.7958 338.5 58.4843 337.984 57.8614C337.467 57.2206 337.209 56.3395 337.209 55.2181V48.1161H335.1V45.0724H337.209V40.7204L341.054 39.9729V45.0724H344.044V48.1161Z" stroke="#18181B" stroke-width="0.821516" mask="url(#path-43-outside-1_1004_7259)"/>
<path d="M146 41.5801C146 40.1676 147.145 39.0225 148.558 39.0225H162.893C164.306 39.0225 165.451 40.1676 165.451 41.5801V49.9891C165.451 51.1871 164.619 52.2246 163.45 52.4855L149.115 55.6833C147.517 56.0397 146 54.8241 146 53.187V41.5801Z" fill="#18181B"/>
<rect x="162.594" y="43.8633" width="1.27883" height="3.83649" rx="0.639416" fill="white"/>
<rect x="160.034" y="43.8633" width="1.27883" height="3.83649" rx="0.639416" fill="white"/>
<path d="M176.969 52.834C176.969 51.4215 175.824 50.2764 174.411 50.2764H164.17C162.758 50.2764 161.613 51.4215 161.613 52.834V58.5027C161.613 59.7007 162.444 60.7382 163.614 60.999L173.854 63.2834C175.452 63.6398 176.969 62.4242 176.969 60.7871V52.834Z" fill="#60A5FA"/>
<rect width="1.02306" height="2.81343" rx="0.511532" transform="matrix(-1 0 0 1 164.428 54.3682)" fill="#CBE2FF"/>
<rect width="1.02306" height="2.81343" rx="0.511532" transform="matrix(-1 0 0 1 166.475 54.3682)" fill="#CBE2FF"/>
<path d="M169.802 47.8722L168.01 46.7054" stroke="#60A5FA" stroke-width="0.532493" stroke-linecap="round"/>
<path d="M168.011 44.3234L169.802 43.1566" stroke="#60A5FA" stroke-width="0.532493" stroke-linecap="round"/>
<path d="M168.011 44.3234L169.802 43.1566" stroke="#60A5FA" stroke-width="0.532493" stroke-linecap="round"/>
<path d="M168.011 45.5215H169.787" stroke="#60A5FA" stroke-width="0.532493" stroke-linecap="round"/>
<path d="M613.219 44.5879C615.346 44.5879 616.91 46.2051 616.928 48.4902C616.91 50.8105 615.346 52.375 613.219 52.375C611.092 52.375 609.545 50.8105 609.545 48.4902C609.545 46.2051 611.092 44.5879 613.219 44.5879ZM613.219 46.4863C612.234 46.4863 611.549 47.2246 611.549 48.4902C611.549 49.7559 612.234 50.5117 613.219 50.5117C614.186 50.5117 614.871 49.7559 614.889 48.4902C614.871 47.2246 614.186 46.4863 613.219 46.4863ZM623.221 43.6387V53.1836H621.094V49.2988H619.775V53.0957H617.701V43.9199H619.775V47.5059H621.094V43.6387H623.221ZM623.221 53.8867V59.6172H620.988V55.6797H612.164V53.8867H623.221ZM631.025 46.3809C631.025 48.5957 632.115 50.793 634.646 51.7246L633.398 53.4648C631.72 52.8057 630.568 51.5488 629.918 49.9668C629.215 51.6543 627.976 52.9727 626.156 53.6582L624.961 51.9004C627.58 50.9688 628.758 48.7188 628.758 46.3809V44.5352H631.025V46.3809ZM638.514 43.6387V55.5039H636.281V50.6172H633.539V48.8066H636.281V47.5234H633.539V45.7129H636.281V43.6387H638.514ZM638.848 57.543V59.3359H627.861V54.3613H630.129V57.543H638.848ZM659.379 55.9609V57.8418H644.736V55.9609H650.889V53.0781H645.949V51.3203H648.094V46.75H645.879V44.957H658.148V46.75H655.898V51.3203H658.078V53.0781H653.121V55.9609H659.379ZM650.344 51.3203H653.684V46.75H650.344V51.3203ZM673.688 43.6387V55.1348H671.438V43.6387H673.688ZM674.109 57.543V59.3359H662.965V53.9746H665.232V57.543H674.109ZM664.916 44.6582C667.377 44.6582 669.293 46.3457 669.293 48.6836C669.293 51.0742 667.377 52.7441 664.916 52.7441C662.455 52.7441 660.539 51.0742 660.539 48.6836C660.539 46.3457 662.455 44.6582 664.916 44.6582ZM664.916 46.6094C663.668 46.5918 662.719 47.3828 662.736 48.6836C662.719 50.0195 663.668 50.793 664.916 50.793C666.129 50.793 667.078 50.0195 667.078 48.6836C667.078 47.3828 666.129 46.5918 664.916 46.6094ZM688.893 51.8828V53.6582H677.572V44.7988H688.77V46.6094H679.857V48.2969H688.4V50.0547H679.857V51.8828H688.893ZM690.492 55.9258V57.7539H675.85V55.9258H690.492Z" fill="#AFAFC1"/>
<path d="M749.117 55.8906V57.7539H734.475V55.8906H749.117ZM747.887 45.0273V46.8203H745.637V51.6719H747.816V53.4297H735.688V51.6719H737.832V46.8203H735.617V45.0273H747.887ZM740.082 51.6719H743.422V46.8203H740.082V51.6719ZM764.674 55.9961V57.8418H750.031V55.9961H756.201V53.5879H751.719V48.209H760.771V46.4512H751.701V44.6582H762.986V49.9668H753.969V51.7598H763.355V53.5879H758.434V55.9961H764.674ZM776.152 43.9375V53.2891H774.025V49.3867H772.25V47.5762H774.025V43.9375H776.152ZM770.633 47.0664C770.633 48.7539 771.477 50.4238 773.533 51.2148L772.408 52.9375C771.046 52.4102 770.123 51.4609 769.578 50.3008C768.989 51.6016 768.005 52.665 766.537 53.2539L765.359 51.4785C767.557 50.6523 768.453 48.8242 768.453 47.0488V46.5742H765.904V44.7812H773.023V46.5742H770.633V47.0664ZM779.334 43.6211V53.377H777.207V43.6211H779.334ZM779.334 53.957V59.6172H777.102V55.7324H768.277V53.957H779.334ZM794.188 51.8828V53.6582H782.867V44.7988H794.064V46.6094H785.152V48.2969H793.695V50.0547H785.152V51.8828H794.188ZM795.787 55.9258V57.7539H781.145V55.9258H795.787ZM809.814 44.7812V45.7832C809.814 46.8906 809.814 48.4902 809.445 50.4766L807.248 50.2656C807.529 48.7275 807.6 47.5674 807.617 46.6094H801.588V44.7812H809.814ZM805.842 48.4727V51.5312C807.433 51.4697 809.067 51.3467 810.57 51.127L810.693 52.7441C807.371 53.3594 803.609 53.4121 800.832 53.4297L800.639 51.6367C801.535 51.6367 802.546 51.6367 803.609 51.6016V48.4727H805.842ZM813.734 43.6211V48.4902H815.668V50.3711H813.734V55.5918H811.432V43.6211H813.734ZM814.227 57.543V59.3359H802.994V54.5195H805.244V57.543H814.227ZM829.818 43.6211V59.6523H827.586V43.6211H829.818ZM824.861 44.957V51.127H819.588V54.0625C822.022 54.0537 824.097 53.9131 826.443 53.5352L826.637 55.3457C824 55.8027 821.627 55.9082 818.709 55.9082H817.268V49.3516H822.576V46.7676H817.25V44.957H824.861Z" fill="#3B82F6"/>
<g clip-path="url(#clip2_1004_7259)">
<circle cx="1219.5" cy="51.5" r="13.5" fill="#FAFAFA"/>
<path d="M1225.06 47.2535C1225.06 46.2365 1224.24 45.4121 1223.22 45.4121H1214.2C1213.18 45.4121 1212.35 46.2365 1212.35 47.2535V53.7901C1212.35 54.6304 1212.92 55.3641 1213.74 55.5734L1222.76 57.8946C1223.93 58.1943 1225.06 57.3144 1225.06 56.1112V47.2535Z" fill="#3B82F6"/>
<rect width="0.841798" height="2.52539" rx="0.420899" transform="matrix(-1 0 0 1 1215.46 49.9043)" fill="white"/>
<rect width="0.841798" height="2.52539" rx="0.420899" transform="matrix(-1 0 0 1 1217.15 49.9043)" fill="white"/>
</g>
<path d="M1245.94 45.125C1245.94 48.7969 1243.45 51.3438 1239.25 52.4219L1238.56 51.0781C1241.85 50.2266 1243.78 48.5625 1244.08 46.5H1239.38V45.125H1245.94ZM1250.23 44.2812V52.1875H1248.48V44.2812H1250.23ZM1250.23 52.7969V58.2031H1240.91V52.7969H1250.23ZM1242.62 54.1719V56.8281H1248.53V54.1719H1242.62ZM1257.34 47.6562C1257.33 50.1719 1258.59 52.7344 1260.78 53.7812L1259.72 55.1719C1258.19 54.3984 1257.09 52.9062 1256.48 51.1094C1255.87 53.0312 1254.71 54.625 1253.09 55.4375L1252.03 54.0469C1254.3 52.9688 1255.59 50.2656 1255.61 47.6562V45.4062H1257.34V47.6562ZM1263.36 44.2656V49.7969H1265.53V51.2812H1263.36V58.3906H1261.62V44.2656H1263.36ZM1277.27 44.2812V47.6562H1279.25V49.0938H1277.27V52.7656H1275.53V44.2812H1277.27ZM1273.11 45.1406V49.2031H1268.41V50.6875C1270.8 50.6719 1272.45 50.5859 1274.38 50.2656L1274.56 51.6562C1272.45 52.0312 1270.62 52.125 1267.83 52.1094H1266.67V47.8906H1271.41V46.5156H1266.66V45.1406H1273.11ZM1272.66 53.0781C1275.56 53.0938 1277.39 54.0781 1277.41 55.75C1277.39 57.4062 1275.56 58.3594 1272.66 58.3594C1269.69 58.3594 1267.88 57.4062 1267.88 55.75C1267.88 54.0781 1269.69 53.0938 1272.66 53.0781ZM1272.66 54.4375C1270.69 54.4375 1269.56 54.9062 1269.58 55.75C1269.56 56.5938 1270.69 57.0469 1272.66 57.0469C1274.61 57.0469 1275.69 56.5938 1275.69 55.75C1275.69 54.9062 1274.61 54.4375 1272.66 54.4375ZM1291.59 44.3281V52.2344H1290.12V44.3281H1291.59ZM1282.34 45.1406V50.0469C1284.6 50.0312 1286.59 49.8672 1288.69 49.4219L1288.89 50.6562C1286.58 51.125 1284.47 51.2969 1282.02 51.2969H1280.86V45.1406H1282.34ZM1291.59 52.875V58.1406H1282.42V52.875H1291.59ZM1283.88 54.0469V56.9531H1290.14V54.0469H1283.88Z" fill="#18181B"/>
<defs>
<clipPath id="clip0_1004_7259">
<rect width="18" height="18" fill="white" transform="translate(648 362.514)"/>
</clipPath>
<clipPath id="clip1_1004_7259">
<rect width="20" height="20" fill="white" transform="translate(1208 361.514)"/>
</clipPath>
<clipPath id="clip2_1004_7259">
<rect x="1206" y="38" width="27" height="27" rx="13.5" fill="white"/>
</clipPath>
</defs>
</svg>
